G04 #@! TF.GenerationSoftware,KiCad,Pcbnew,9.0.5*
G04 #@! TF.CreationDate,2025-10-24T14:18:36+02:00*
G04 #@! TF.ProjectId,GameboyCartridgeV1.1,47616d65-626f-4794-9361-727472696467,rev?*
G04 #@! TF.SameCoordinates,Original*
G04 #@! TF.FileFunction,Copper,L3,Inr*
G04 #@! TF.FilePolarity,Positive*
%FSLAX46Y46*%
G04 Gerber Fmt 4.6, Leading zero omitted, Abs format (unit mm)*
G04 Created by KiCad (PCBNEW 9.0.5) date 2025-10-24 14:18:36*
%MOMM*%
%LPD*%
G01*
G04 APERTURE LIST*
G04 #@! TA.AperFunction,ComponentPad*
%ADD10O,1.000000X2.100000*%
G04 #@! TD*
G04 #@! TA.AperFunction,ComponentPad*
%ADD11O,1.000000X1.800000*%
G04 #@! TD*
G04 #@! TA.AperFunction,ComponentPad*
%ADD12C,0.800000*%
G04 #@! TD*
G04 #@! TA.AperFunction,ComponentPad*
%ADD13R,1.700000X1.700000*%
G04 #@! TD*
G04 #@! TA.AperFunction,ComponentPad*
%ADD14O,1.700000X1.700000*%
G04 #@! TD*
G04 #@! TA.AperFunction,ViaPad*
%ADD15C,0.600000*%
G04 #@! TD*
G04 #@! TA.AperFunction,Conductor*
%ADD16C,0.200000*%
G04 #@! TD*
G04 APERTURE END LIST*
D10*
X109835000Y-66340000D03*
X118475000Y-66340000D03*
X118480000Y-62165000D03*
D11*
X118480000Y-57985000D03*
D10*
X109840000Y-62165000D03*
D11*
X109840000Y-57985000D03*
D12*
X88266962Y-109283715D03*
X90016962Y-109283715D03*
X91516962Y-109283715D03*
X93016962Y-109283715D03*
X94516962Y-109283715D03*
X96016962Y-109283715D03*
X97516962Y-109283715D03*
X99016962Y-109283715D03*
X100516962Y-109283715D03*
X102016962Y-109283715D03*
X103516962Y-109283715D03*
X105016962Y-109283715D03*
X106516962Y-109283715D03*
X108016962Y-109283715D03*
X109516962Y-109283715D03*
X111016962Y-109283715D03*
X112516962Y-109283715D03*
X114016962Y-109283715D03*
X115516962Y-109283715D03*
X117016962Y-109283715D03*
X118516962Y-109283715D03*
X120016962Y-109283715D03*
X121516962Y-109283715D03*
X123016962Y-109283715D03*
X124516962Y-109283715D03*
X126016962Y-109283715D03*
X127516962Y-109283715D03*
X129016962Y-109283715D03*
X130516962Y-109283715D03*
X132016962Y-109283715D03*
X133516962Y-109283715D03*
X135266962Y-109283715D03*
D13*
X125345000Y-61375000D03*
D14*
X127885000Y-61375000D03*
D15*
X124500000Y-85400000D03*
X124100000Y-65300000D03*
X137700000Y-104200000D03*
X112800000Y-79500000D03*
X85900000Y-76200000D03*
X127900000Y-56200000D03*
X105400000Y-105300000D03*
X85900000Y-94200000D03*
X85900000Y-100200000D03*
X135000000Y-67600000D03*
X137700000Y-106200000D03*
X133953022Y-87630570D03*
X85900000Y-92200000D03*
X118500000Y-71600000D03*
X95200000Y-98400000D03*
X121900000Y-56200000D03*
X110200000Y-83000000D03*
X107500000Y-84700000D03*
X98400000Y-78900000D03*
X85900000Y-62200000D03*
X135000000Y-60900000D03*
X116900000Y-66500000D03*
X85900000Y-102200000D03*
X85900000Y-78200000D03*
X96800000Y-65900000D03*
X85900000Y-66200000D03*
X85900000Y-68200000D03*
X130700000Y-76900000D03*
X91900000Y-56200000D03*
X85900000Y-64200000D03*
X134200000Y-96700000D03*
X137700000Y-70200000D03*
X121900000Y-58100000D03*
X134200000Y-105400000D03*
X125900000Y-56200000D03*
X96600000Y-94000000D03*
X137700000Y-86200000D03*
X117400000Y-105100000D03*
X96700000Y-67900000D03*
X105800000Y-98000000D03*
X111800000Y-71300000D03*
X120550000Y-77360000D03*
X129900000Y-58000000D03*
X111700000Y-80700000D03*
X119900000Y-56200000D03*
X113500000Y-87800000D03*
X96800000Y-57900000D03*
X126600000Y-105300000D03*
X137700000Y-84200000D03*
X137700000Y-60200000D03*
X92100000Y-106500000D03*
X107800000Y-90000000D03*
X137700000Y-72200000D03*
X132000000Y-60900000D03*
X125300000Y-105300000D03*
X137700000Y-76200000D03*
X93400000Y-77400000D03*
X127900000Y-100900000D03*
X123000000Y-92900000D03*
X94900000Y-57900000D03*
X135000000Y-79700000D03*
X90000000Y-65400000D03*
X137700000Y-68200000D03*
X135000000Y-69700000D03*
X85900000Y-56200000D03*
X94600000Y-106500000D03*
X85900000Y-70200000D03*
X137700000Y-100200000D03*
X112400000Y-73000000D03*
X114900000Y-57700000D03*
X137700000Y-98200000D03*
X123900000Y-72400000D03*
X111900000Y-56200000D03*
X109900000Y-56200000D03*
X112800000Y-57700000D03*
X91900000Y-76600000D03*
X137700000Y-94200000D03*
X111400000Y-73000000D03*
X85900000Y-90200000D03*
X89900000Y-56200000D03*
X118700000Y-100000000D03*
X100800000Y-57900000D03*
X112800000Y-68800000D03*
X123300000Y-81600000D03*
X129900000Y-65300000D03*
X135000000Y-77800000D03*
X103000000Y-82800000D03*
X92200000Y-101550000D03*
X115900000Y-56200000D03*
X85900000Y-74200000D03*
X137700000Y-78200000D03*
X120560000Y-81600000D03*
X85900000Y-104200000D03*
X113900000Y-56200000D03*
X104600000Y-68300000D03*
X95800000Y-90400000D03*
X126800000Y-89700000D03*
X99900000Y-59300000D03*
X111350000Y-88650000D03*
X115700000Y-86000000D03*
X137700000Y-66200000D03*
X105900000Y-56200000D03*
X124800000Y-76900000D03*
X85900000Y-86200000D03*
X107900000Y-56200000D03*
X129000000Y-72500000D03*
X135000000Y-75700000D03*
X137700000Y-88200000D03*
X127900000Y-58000000D03*
X111700000Y-79500000D03*
X137700000Y-74200000D03*
X112700000Y-66500000D03*
X101900000Y-56200000D03*
X95200000Y-103500000D03*
X129900000Y-56200000D03*
X106900000Y-57900000D03*
X92200000Y-94200000D03*
X137700000Y-90200000D03*
X112400000Y-94250000D03*
X110505474Y-63864476D03*
X117900000Y-56200000D03*
X112800000Y-81800000D03*
X85900000Y-60200000D03*
X137700000Y-82200000D03*
X121100000Y-100000000D03*
X91000000Y-68200000D03*
X107200000Y-106500000D03*
X85900000Y-82200000D03*
X89500000Y-102100000D03*
X99900000Y-56200000D03*
X117905474Y-63864476D03*
X91900000Y-78700000D03*
X92700000Y-89300000D03*
X136400000Y-58900000D03*
X100300000Y-65900000D03*
X106700000Y-60100000D03*
X85900000Y-96200000D03*
X97900000Y-56200000D03*
X92200000Y-98100000D03*
X85900000Y-80200000D03*
X116900000Y-68800000D03*
X95300000Y-105400000D03*
X85900000Y-98200000D03*
X135000000Y-63200000D03*
X103900000Y-56200000D03*
X137700000Y-96200000D03*
X137700000Y-62200000D03*
X111700000Y-81800000D03*
X92500000Y-85400000D03*
X93700000Y-105400000D03*
X85900000Y-106200000D03*
X100700000Y-74700000D03*
X108400000Y-94200000D03*
X123900000Y-56200000D03*
X110600000Y-81800000D03*
X110600000Y-79500000D03*
X135000000Y-65200000D03*
X102700000Y-100900000D03*
X135000000Y-71700000D03*
X97000000Y-105400000D03*
X85900000Y-58200000D03*
X93900000Y-56200000D03*
X95900000Y-56200000D03*
X135300000Y-100900000D03*
X85900000Y-84200000D03*
X103000000Y-57900000D03*
X131900000Y-56200000D03*
X137700000Y-80200000D03*
X133550000Y-58900000D03*
X85900000Y-72200000D03*
X137700000Y-92200000D03*
X88800000Y-82900000D03*
X110600000Y-80700000D03*
X98800000Y-57900000D03*
X131300000Y-100900000D03*
X131900000Y-58000000D03*
X125300000Y-93700000D03*
X117000000Y-71600000D03*
X112800000Y-80700000D03*
X104500000Y-71700000D03*
X102900000Y-77800000D03*
X87900000Y-56200000D03*
X127500000Y-77900000D03*
X125900000Y-58100000D03*
X137700000Y-102200000D03*
X137700000Y-64200000D03*
X94100000Y-65400000D03*
X104900000Y-57900000D03*
X85900000Y-88200000D03*
X135000000Y-73700000D03*
X125300000Y-97000000D03*
X102700000Y-99600000D03*
X123200000Y-99600000D03*
X106200000Y-81900000D03*
X117500000Y-76300000D03*
X132100000Y-99400000D03*
X109475000Y-78425000D03*
X106200000Y-69800000D03*
X132500000Y-68100000D03*
X115100000Y-77200000D03*
X117460000Y-81600000D03*
X95200000Y-99450000D03*
X116600000Y-77200000D03*
X123000000Y-91800000D03*
X106700000Y-77800000D03*
X111300000Y-82950000D03*
X93700000Y-78500000D03*
X92700000Y-88200000D03*
X94500000Y-77700000D03*
X112800000Y-78200000D03*
X120800000Y-92650000D03*
X113543466Y-85156974D03*
X126800000Y-78500000D03*
X113850000Y-82950000D03*
X126000000Y-89100000D03*
X118000000Y-89100000D03*
X114200000Y-85800500D03*
X123200000Y-102500000D03*
X132100000Y-102500000D03*
X88265112Y-106594801D03*
X88272528Y-105663384D03*
X102700000Y-102700000D03*
X111705474Y-63864476D03*
X91000000Y-69300000D03*
X116605474Y-63864476D03*
X121174500Y-105400000D03*
X121200000Y-106400000D03*
X122500000Y-105400000D03*
X123800000Y-105400000D03*
X129424500Y-105400000D03*
X129904610Y-106039295D03*
X130724500Y-105400000D03*
X132700000Y-105400000D03*
X111500000Y-78300000D03*
X113000000Y-82900000D03*
X113700000Y-78500000D03*
X118000000Y-99500000D03*
X95800000Y-91500000D03*
X97500000Y-93600000D03*
X122800000Y-72400000D03*
X98800000Y-66000000D03*
D16*
X113543466Y-86543466D02*
X113543466Y-85156974D01*
X120800000Y-92650000D02*
X116250000Y-92650000D01*
X116250000Y-92650000D02*
X115700000Y-92100000D01*
X115700000Y-92100000D02*
X115700000Y-88700000D01*
X115700000Y-88700000D02*
X113543466Y-86543466D01*
X126800000Y-88300000D02*
X126800000Y-83300000D01*
X113850000Y-82950000D02*
X114200000Y-83300000D01*
X126800000Y-83300000D02*
X126800000Y-78500000D01*
X126000000Y-89100000D02*
X126800000Y-88300000D01*
X114200000Y-83300000D02*
X126800000Y-83300000D01*
X114200000Y-85800500D02*
X117499500Y-89100000D01*
X118000000Y-89100000D02*
X117499500Y-89100000D01*
X114016962Y-106683038D02*
X115000000Y-105700000D01*
X115000000Y-105700000D02*
X120874500Y-105700000D01*
X120874500Y-105700000D02*
X121174500Y-105400000D01*
X114016962Y-109283715D02*
X114016962Y-106683038D01*
X115516962Y-109283715D02*
X115516962Y-106983038D01*
X115516962Y-106983038D02*
X116100000Y-106400000D01*
X116100000Y-106400000D02*
X121200000Y-106400000D01*
X117016962Y-109283715D02*
X117016962Y-107783038D01*
X122500000Y-106200000D02*
X122500000Y-105400000D01*
X117016962Y-107783038D02*
X117600000Y-107200000D01*
X117600000Y-107200000D02*
X121500000Y-107200000D01*
X121500000Y-107200000D02*
X122500000Y-106200000D01*
X118516962Y-108383038D02*
X119100000Y-107800000D01*
X118516962Y-109283715D02*
X118516962Y-108383038D01*
X119100000Y-107800000D02*
X122600000Y-107800000D01*
X122600000Y-107800000D02*
X123800000Y-106600000D01*
X123800000Y-106600000D02*
X123800000Y-105400000D01*
X126000000Y-106300000D02*
X128524500Y-106300000D01*
X124516962Y-109283715D02*
X124516962Y-107783038D01*
X128524500Y-106300000D02*
X129424500Y-105400000D01*
X124516962Y-107783038D02*
X126000000Y-106300000D01*
X128843905Y-107100000D02*
X129904610Y-106039295D01*
X126016962Y-109283715D02*
X126016962Y-107783038D01*
X126016962Y-107783038D02*
X126700000Y-107100000D01*
X126700000Y-107100000D02*
X128843905Y-107100000D01*
X127516962Y-108383038D02*
X127516962Y-109283715D01*
X129400000Y-107800000D02*
X128100000Y-107800000D01*
X130724500Y-106475500D02*
X129400000Y-107800000D01*
X130724500Y-105400000D02*
X130724500Y-106475500D01*
X128100000Y-107800000D02*
X127516962Y-108383038D01*
X132700000Y-106500000D02*
X132700000Y-105400000D01*
X130516962Y-108683038D02*
X132700000Y-106500000D01*
X130516962Y-109283715D02*
X130516962Y-108683038D01*
X111900000Y-78900000D02*
X113700000Y-78900000D01*
X113700000Y-78900000D02*
X113700000Y-82200000D01*
X111500000Y-78300000D02*
X111500000Y-78500000D01*
X111500000Y-78500000D02*
X111900000Y-78900000D01*
X113700000Y-78900000D02*
X113700000Y-78500000D01*
X113700000Y-82200000D02*
X113000000Y-82900000D01*
X114800000Y-93500000D02*
X113300000Y-92000000D01*
X97500000Y-93600000D02*
X97500000Y-92000000D01*
X113300000Y-92000000D02*
X97500000Y-92000000D01*
X97500000Y-92000000D02*
X96300000Y-92000000D01*
X118000000Y-94900000D02*
X116600000Y-93500000D01*
X116600000Y-93500000D02*
X114800000Y-93500000D01*
X118000000Y-99500000D02*
X118000000Y-94900000D01*
X96300000Y-92000000D02*
X95800000Y-91500000D01*
G04 #@! TA.AperFunction,Conductor*
G36*
X98447287Y-66504149D02*
G01*
X98461034Y-66503495D01*
X98493798Y-66516612D01*
X98568216Y-66559577D01*
X98720943Y-66600500D01*
X98720945Y-66600500D01*
X98879055Y-66600500D01*
X98879057Y-66600500D01*
X99031784Y-66559577D01*
X99106200Y-66516612D01*
X99168200Y-66500000D01*
X100219077Y-66500000D01*
X100220943Y-66500500D01*
X100379057Y-66500500D01*
X100380923Y-66500000D01*
X108910500Y-66500000D01*
X108977539Y-66519685D01*
X109023294Y-66572489D01*
X109034500Y-66624000D01*
X109034500Y-66968846D01*
X109065261Y-67123489D01*
X109065264Y-67123501D01*
X109125602Y-67269172D01*
X109125609Y-67269185D01*
X109213210Y-67400288D01*
X109213213Y-67400292D01*
X109324707Y-67511786D01*
X109324711Y-67511789D01*
X109455814Y-67599390D01*
X109455827Y-67599397D01*
X109601498Y-67659735D01*
X109601503Y-67659737D01*
X109698626Y-67679056D01*
X109756153Y-67690499D01*
X109756156Y-67690500D01*
X109756158Y-67690500D01*
X109913843Y-67690500D01*
X109931010Y-67687084D01*
X109951807Y-67682948D01*
X110021399Y-67689175D01*
X110076577Y-67732037D01*
X110099822Y-67797926D01*
X110100000Y-67804565D01*
X110100000Y-74900000D01*
X121400868Y-74999130D01*
X121499999Y-75000000D01*
X121500000Y-75000000D01*
X121500000Y-73620943D01*
X134399500Y-73620943D01*
X134399500Y-73779056D01*
X134440423Y-73931783D01*
X134440426Y-73931790D01*
X134519475Y-74068709D01*
X134519479Y-74068714D01*
X134519480Y-74068716D01*
X134631284Y-74180520D01*
X134631286Y-74180521D01*
X134631290Y-74180524D01*
X134698765Y-74219480D01*
X134768216Y-74259577D01*
X134920943Y-74300500D01*
X134920945Y-74300500D01*
X135079055Y-74300500D01*
X135079057Y-74300500D01*
X135231784Y-74259577D01*
X135368716Y-74180520D01*
X135480520Y-74068716D01*
X135559577Y-73931784D01*
X135600500Y-73779057D01*
X135600500Y-73620943D01*
X135559577Y-73468216D01*
X135559573Y-73468209D01*
X135480524Y-73331290D01*
X135480518Y-73331282D01*
X135368717Y-73219481D01*
X135368709Y-73219475D01*
X135231790Y-73140426D01*
X135231786Y-73140424D01*
X135231784Y-73140423D01*
X135079057Y-73099500D01*
X134920943Y-73099500D01*
X134768216Y-73140423D01*
X134768209Y-73140426D01*
X134631290Y-73219475D01*
X134631282Y-73219481D01*
X134519481Y-73331282D01*
X134519475Y-73331290D01*
X134440426Y-73468209D01*
X134440423Y-73468216D01*
X134399500Y-73620943D01*
X121500000Y-73620943D01*
X121500000Y-72320943D01*
X122199500Y-72320943D01*
X122199500Y-72479057D01*
X122226295Y-72579055D01*
X122240423Y-72631783D01*
X122240426Y-72631790D01*
X122319475Y-72768709D01*
X122319479Y-72768714D01*
X122319480Y-72768716D01*
X122431284Y-72880520D01*
X122431286Y-72880521D01*
X122431290Y-72880524D01*
X122501299Y-72920943D01*
X122568216Y-72959577D01*
X122720943Y-73000500D01*
X122720945Y-73000500D01*
X122879055Y-73000500D01*
X122879057Y-73000500D01*
X123031784Y-72959577D01*
X123168716Y-72880520D01*
X123262319Y-72786917D01*
X123323642Y-72753432D01*
X123393334Y-72758416D01*
X123437681Y-72786917D01*
X123531284Y-72880520D01*
X123531286Y-72880521D01*
X123531290Y-72880524D01*
X123601299Y-72920943D01*
X123668216Y-72959577D01*
X123820943Y-73000500D01*
X123820945Y-73000500D01*
X123979055Y-73000500D01*
X123979057Y-73000500D01*
X124131784Y-72959577D01*
X124268716Y-72880520D01*
X124380520Y-72768716D01*
X124459577Y-72631784D01*
X124500500Y-72479057D01*
X124500500Y-72420943D01*
X128399500Y-72420943D01*
X128399500Y-72579056D01*
X128440423Y-72731783D01*
X128440426Y-72731790D01*
X128519475Y-72868709D01*
X128519479Y-72868714D01*
X128519480Y-72868716D01*
X128631284Y-72980520D01*
X128631286Y-72980521D01*
X128631290Y-72980524D01*
X128768209Y-73059573D01*
X128768216Y-73059577D01*
X128920943Y-73100500D01*
X128920945Y-73100500D01*
X129079055Y-73100500D01*
X129079057Y-73100500D01*
X129231784Y-73059577D01*
X129368716Y-72980520D01*
X129480520Y-72868716D01*
X129559577Y-72731784D01*
X129600500Y-72579057D01*
X129600500Y-72420943D01*
X129559577Y-72268216D01*
X129520482Y-72200500D01*
X129480524Y-72131290D01*
X129480518Y-72131282D01*
X129368717Y-72019481D01*
X129368709Y-72019475D01*
X129231790Y-71940426D01*
X129231786Y-71940424D01*
X129231784Y-71940423D01*
X129079057Y-71899500D01*
X128920943Y-71899500D01*
X128768216Y-71940423D01*
X128768209Y-71940426D01*
X128631290Y-72019475D01*
X128631282Y-72019481D01*
X128519481Y-72131282D01*
X128519475Y-72131290D01*
X128440426Y-72268209D01*
X128440423Y-72268216D01*
X128399500Y-72420943D01*
X124500500Y-72420943D01*
X124500500Y-72320943D01*
X124459577Y-72168216D01*
X124454589Y-72159577D01*
X124380524Y-72031290D01*
X124380518Y-72031282D01*
X124268717Y-71919481D01*
X124268709Y-71919475D01*
X124131790Y-71840426D01*
X124131786Y-71840424D01*
X124131784Y-71840423D01*
X123979057Y-71799500D01*
X123820943Y-71799500D01*
X123668216Y-71840423D01*
X123668209Y-71840426D01*
X123531290Y-71919475D01*
X123531282Y-71919481D01*
X123437681Y-72013083D01*
X123376358Y-72046568D01*
X123306666Y-72041584D01*
X123262319Y-72013083D01*
X123168717Y-71919481D01*
X123168709Y-71919475D01*
X123031790Y-71840426D01*
X123031786Y-71840424D01*
X123031784Y-71840423D01*
X122879057Y-71799500D01*
X122720943Y-71799500D01*
X122568216Y-71840423D01*
X122568209Y-71840426D01*
X122431290Y-71919475D01*
X122431282Y-71919481D01*
X122319481Y-72031282D01*
X122319475Y-72031290D01*
X122240426Y-72168209D01*
X122240423Y-72168216D01*
X122199500Y-72320943D01*
X121500000Y-72320943D01*
X121500000Y-71620943D01*
X134399500Y-71620943D01*
X134399500Y-71779057D01*
X134437127Y-71919481D01*
X134440423Y-71931783D01*
X134440426Y-71931790D01*
X134519475Y-72068709D01*
X134519479Y-72068714D01*
X134519480Y-72068716D01*
X134631284Y-72180520D01*
X134631286Y-72180521D01*
X134631290Y-72180524D01*
X134768209Y-72259573D01*
X134768216Y-72259577D01*
X134920943Y-72300500D01*
X134920945Y-72300500D01*
X135079055Y-72300500D01*
X135079057Y-72300500D01*
X135231784Y-72259577D01*
X135368716Y-72180520D01*
X135480520Y-72068716D01*
X135559577Y-71931784D01*
X135600500Y-71779057D01*
X135600500Y-71620943D01*
X135559577Y-71468216D01*
X135501843Y-71368216D01*
X135480524Y-71331290D01*
X135480518Y-71331282D01*
X135368717Y-71219481D01*
X135368709Y-71219475D01*
X135231790Y-71140426D01*
X135231786Y-71140424D01*
X135231784Y-71140423D01*
X135079057Y-71099500D01*
X134920943Y-71099500D01*
X134768216Y-71140423D01*
X134768209Y-71140426D01*
X134631290Y-71219475D01*
X134631282Y-71219481D01*
X134519481Y-71331282D01*
X134519475Y-71331290D01*
X134440426Y-71468209D01*
X134440423Y-71468216D01*
X134399500Y-71620943D01*
X121500000Y-71620943D01*
X121500000Y-69620943D01*
X134399500Y-69620943D01*
X134399500Y-69779057D01*
X134432041Y-69900500D01*
X134440423Y-69931783D01*
X134440426Y-69931790D01*
X134519475Y-70068709D01*
X134519479Y-70068714D01*
X134519480Y-70068716D01*
X134631284Y-70180520D01*
X134631286Y-70180521D01*
X134631290Y-70180524D01*
X134768209Y-70259573D01*
X134768216Y-70259577D01*
X134920943Y-70300500D01*
X134920945Y-70300500D01*
X135079055Y-70300500D01*
X135079057Y-70300500D01*
X135231784Y-70259577D01*
X135368716Y-70180520D01*
X135480520Y-70068716D01*
X135559577Y-69931784D01*
X135600500Y-69779057D01*
X135600500Y-69620943D01*
X135559577Y-69468216D01*
X135496855Y-69359577D01*
X135480524Y-69331290D01*
X135480518Y-69331282D01*
X135368717Y-69219481D01*
X135368709Y-69219475D01*
X135231790Y-69140426D01*
X135231786Y-69140424D01*
X135231784Y-69140423D01*
X135079057Y-69099500D01*
X134920943Y-69099500D01*
X134768216Y-69140423D01*
X134768209Y-69140426D01*
X134631290Y-69219475D01*
X134631282Y-69219481D01*
X134519481Y-69331282D01*
X134519475Y-69331290D01*
X134440426Y-69468209D01*
X134440423Y-69468216D01*
X134399500Y-69620943D01*
X121500000Y-69620943D01*
X121500000Y-67520943D01*
X134399500Y-67520943D01*
X134399500Y-67679057D01*
X134437127Y-67819481D01*
X134440423Y-67831783D01*
X134440426Y-67831790D01*
X134519475Y-67968709D01*
X134519479Y-67968714D01*
X134519480Y-67968716D01*
X134631284Y-68080520D01*
X134631286Y-68080521D01*
X134631290Y-68080524D01*
X134768209Y-68159573D01*
X134768216Y-68159577D01*
X134920943Y-68200500D01*
X134920945Y-68200500D01*
X135079055Y-68200500D01*
X135079057Y-68200500D01*
X135231784Y-68159577D01*
X135368716Y-68080520D01*
X135480520Y-67968716D01*
X135559577Y-67831784D01*
X135600500Y-67679057D01*
X135600500Y-67520943D01*
X135559577Y-67368216D01*
X135502402Y-67269185D01*
X135480524Y-67231290D01*
X135480518Y-67231282D01*
X135368717Y-67119481D01*
X135368709Y-67119475D01*
X135231790Y-67040426D01*
X135231786Y-67040424D01*
X135231784Y-67040423D01*
X135079057Y-66999500D01*
X134920943Y-66999500D01*
X134768216Y-67040423D01*
X134768209Y-67040426D01*
X134631290Y-67119475D01*
X134631282Y-67119481D01*
X134519481Y-67231282D01*
X134519475Y-67231290D01*
X134440426Y-67368209D01*
X134440423Y-67368216D01*
X134399500Y-67520943D01*
X121500000Y-67520943D01*
X121500000Y-66624000D01*
X121519685Y-66556961D01*
X121572489Y-66511206D01*
X121624000Y-66500000D01*
X136876000Y-66500000D01*
X136943039Y-66519685D01*
X136988794Y-66572489D01*
X137000000Y-66624000D01*
X137000000Y-100076000D01*
X136980315Y-100143039D01*
X136927511Y-100188794D01*
X136876000Y-100200000D01*
X121824500Y-100200000D01*
X121815992Y-100197502D01*
X121807221Y-100198790D01*
X121782985Y-100187809D01*
X121757461Y-100180315D01*
X121751656Y-100173615D01*
X121743578Y-100169956D01*
X121729124Y-100147612D01*
X121711706Y-100127511D01*
X121709444Y-100117191D01*
X121705628Y-100111291D01*
X121700658Y-100077087D01*
X121700501Y-100076371D01*
X121700500Y-100076000D01*
X121700500Y-99920943D01*
X121700030Y-99919190D01*
X121700001Y-99909391D01*
X121700020Y-99909325D01*
X121700000Y-99909020D01*
X121700000Y-96920943D01*
X124699500Y-96920943D01*
X124699500Y-97079057D01*
X124726687Y-97180518D01*
X124740423Y-97231783D01*
X124740426Y-97231790D01*
X124819475Y-97368709D01*
X124819479Y-97368714D01*
X124819480Y-97368716D01*
X124931284Y-97480520D01*
X124931286Y-97480521D01*
X124931290Y-97480524D01*
X124998765Y-97519480D01*
X125068216Y-97559577D01*
X125220943Y-97600500D01*
X125220945Y-97600500D01*
X125379055Y-97600500D01*
X125379057Y-97600500D01*
X125531784Y-97559577D01*
X125668716Y-97480520D01*
X125780520Y-97368716D01*
X125859577Y-97231784D01*
X125900500Y-97079057D01*
X125900500Y-96920943D01*
X125859577Y-96768216D01*
X125780520Y-96631284D01*
X125770179Y-96620943D01*
X133599500Y-96620943D01*
X133599500Y-96779056D01*
X133640423Y-96931783D01*
X133640426Y-96931790D01*
X133719475Y-97068709D01*
X133719479Y-97068714D01*
X133719480Y-97068716D01*
X133831284Y-97180520D01*
X133831286Y-97180521D01*
X133831290Y-97180524D01*
X133920087Y-97231790D01*
X133968216Y-97259577D01*
X134120943Y-97300500D01*
X134120945Y-97300500D01*
X134279055Y-97300500D01*
X134279057Y-97300500D01*
X134431784Y-97259577D01*
X134568716Y-97180520D01*
X134680520Y-97068716D01*
X134759577Y-96931784D01*
X134800500Y-96779057D01*
X134800500Y-96620943D01*
X134759577Y-96468216D01*
X134719904Y-96399500D01*
X134680524Y-96331290D01*
X134680518Y-96331282D01*
X134568717Y-96219481D01*
X134568709Y-96219475D01*
X134431790Y-96140426D01*
X134431786Y-96140424D01*
X134431784Y-96140423D01*
X134279057Y-96099500D01*
X134120943Y-96099500D01*
X133968216Y-96140423D01*
X133968209Y-96140426D01*
X133831290Y-96219475D01*
X133831282Y-96219481D01*
X133719481Y-96331282D01*
X133719475Y-96331290D01*
X133640426Y-96468209D01*
X133640423Y-96468216D01*
X133599500Y-96620943D01*
X125770179Y-96620943D01*
X125668716Y-96519480D01*
X125668714Y-96519479D01*
X125668709Y-96519475D01*
X125531790Y-96440426D01*
X125531786Y-96440424D01*
X125531784Y-96440423D01*
X125379057Y-96399500D01*
X125220943Y-96399500D01*
X125068216Y-96440423D01*
X125068209Y-96440426D01*
X124931290Y-96519475D01*
X124931282Y-96519481D01*
X124819481Y-96631282D01*
X124819475Y-96631290D01*
X124740426Y-96768209D01*
X124740423Y-96768216D01*
X124699500Y-96920943D01*
X121700000Y-96920943D01*
X121700000Y-93620943D01*
X124699500Y-93620943D01*
X124699500Y-93779056D01*
X124740423Y-93931783D01*
X124740426Y-93931790D01*
X124819475Y-94068709D01*
X124819479Y-94068714D01*
X124819480Y-94068716D01*
X124931284Y-94180520D01*
X124931286Y-94180521D01*
X124931290Y-94180524D01*
X125020087Y-94231790D01*
X125068216Y-94259577D01*
X125220943Y-94300500D01*
X125220945Y-94300500D01*
X125379055Y-94300500D01*
X125379057Y-94300500D01*
X125531784Y-94259577D01*
X125668716Y-94180520D01*
X125780520Y-94068716D01*
X125859577Y-93931784D01*
X125900500Y-93779057D01*
X125900500Y-93620943D01*
X125859577Y-93468216D01*
X125819904Y-93399500D01*
X125780524Y-93331290D01*
X125780518Y-93331282D01*
X125668717Y-93219481D01*
X125668709Y-93219475D01*
X125531790Y-93140426D01*
X125531786Y-93140424D01*
X125531784Y-93140423D01*
X125379057Y-93099500D01*
X125220943Y-93099500D01*
X125068216Y-93140423D01*
X125068209Y-93140426D01*
X124931290Y-93219475D01*
X124931282Y-93219481D01*
X124819481Y-93331282D01*
X124819475Y-93331290D01*
X124740426Y-93468209D01*
X124740423Y-93468216D01*
X124699500Y-93620943D01*
X121700000Y-93620943D01*
X121700000Y-92820943D01*
X122399500Y-92820943D01*
X122399500Y-92979057D01*
X122440085Y-93130520D01*
X122440423Y-93131783D01*
X122440426Y-93131790D01*
X122519475Y-93268709D01*
X122519479Y-93268714D01*
X122519480Y-93268716D01*
X122631284Y-93380520D01*
X122631286Y-93380521D01*
X122631290Y-93380524D01*
X122735040Y-93440423D01*
X122768216Y-93459577D01*
X122920943Y-93500500D01*
X122920945Y-93500500D01*
X123079055Y-93500500D01*
X123079057Y-93500500D01*
X123231784Y-93459577D01*
X123368716Y-93380520D01*
X123480520Y-93268716D01*
X123559577Y-93131784D01*
X123600500Y-92979057D01*
X123600500Y-92820943D01*
X123559577Y-92668216D01*
X123503417Y-92570943D01*
X123480524Y-92531290D01*
X123480518Y-92531282D01*
X123368717Y-92419481D01*
X123368709Y-92419475D01*
X123231790Y-92340426D01*
X123231786Y-92340424D01*
X123231784Y-92340423D01*
X123079057Y-92299500D01*
X122920943Y-92299500D01*
X122768216Y-92340423D01*
X122768209Y-92340426D01*
X122631290Y-92419475D01*
X122631282Y-92419481D01*
X122519481Y-92531282D01*
X122519475Y-92531290D01*
X122440426Y-92668209D01*
X122440423Y-92668216D01*
X122399500Y-92820943D01*
X121700000Y-92820943D01*
X121700000Y-92200000D01*
X121250582Y-92200000D01*
X121183543Y-92180315D01*
X121175092Y-92174373D01*
X121168710Y-92169475D01*
X121031790Y-92090426D01*
X121031786Y-92090424D01*
X121031784Y-92090423D01*
X120879057Y-92049500D01*
X120720943Y-92049500D01*
X120568216Y-92090423D01*
X120568209Y-92090426D01*
X120431289Y-92169475D01*
X120424908Y-92174373D01*
X120403584Y-92182617D01*
X120384353Y-92194977D01*
X120364080Y-92197891D01*
X120359740Y-92199570D01*
X120349418Y-92200000D01*
X120280312Y-92200000D01*
X120213273Y-92180315D01*
X120167518Y-92127511D01*
X120157574Y-92058353D01*
X120186599Y-91994797D01*
X120224017Y-91965515D01*
X120313650Y-91919845D01*
X120496761Y-91786807D01*
X120656807Y-91626761D01*
X120789845Y-91443650D01*
X120892600Y-91241981D01*
X120917476Y-91165420D01*
X120962541Y-91026725D01*
X120962541Y-91026724D01*
X120962542Y-91026721D01*
X120997950Y-90803169D01*
X120997950Y-90616540D01*
X121354200Y-90616540D01*
X121354200Y-90763459D01*
X121382858Y-90907534D01*
X121382861Y-90907544D01*
X121439078Y-91043266D01*
X121439083Y-91043275D01*
X121520698Y-91165419D01*
X121520701Y-91165423D01*
X121624576Y-91269298D01*
X121624580Y-91269301D01*
X121746724Y-91350916D01*
X121746730Y-91350919D01*
X121746731Y-91350920D01*
X121882458Y-91407140D01*
X122026540Y-91435799D01*
X122026544Y-91435800D01*
X122026545Y-91435800D01*
X122173456Y-91435800D01*
X122173457Y-91435799D01*
X122317542Y-91407140D01*
X122453269Y-91350920D01*
X122575420Y-91269301D01*
X122679301Y-91165420D01*
X122760920Y-91043269D01*
X122817140Y-90907542D01*
X122845800Y-90763455D01*
X122845800Y-90616545D01*
X122817140Y-90472458D01*
X122760920Y-90336731D01*
X122760919Y-90336730D01*
X122760916Y-90336724D01*
X122679301Y-90214580D01*
X122679298Y-90214576D01*
X122575423Y-90110701D01*
X122575419Y-90110698D01*
X122453275Y-90029083D01*
X122453266Y-90029078D01*
X122317544Y-89972861D01*
X122317545Y-89972861D01*
X122317542Y-89972860D01*
X122317538Y-89972859D01*
X122317534Y-89972858D01*
X122173459Y-89944200D01*
X122173455Y-89944200D01*
X122026545Y-89944200D01*
X122026540Y-89944200D01*
X121882465Y-89972858D01*
X121882455Y-89972861D01*
X121746733Y-90029078D01*
X121746724Y-90029083D01*
X121624580Y-90110698D01*
X121624576Y-90110701D01*
X121520701Y-90214576D01*
X121520698Y-90214580D01*
X121439083Y-90336724D01*
X121439078Y-90336733D01*
X121382861Y-90472455D01*
X121382858Y-90472465D01*
X121354200Y-90616540D01*
X120997950Y-90616540D01*
X120997950Y-90576831D01*
X120962542Y-90353279D01*
X120962541Y-90353275D01*
X120962541Y-90353274D01*
X120892601Y-90138021D01*
X120892599Y-90138018D01*
X120878681Y-90110701D01*
X120789845Y-89936350D01*
X120656807Y-89753239D01*
X120496761Y-89593193D01*
X120313650Y-89460155D01*
X120111981Y-89357400D01*
X120111978Y-89357398D01*
X119896723Y-89287458D01*
X119747686Y-89263852D01*
X119673169Y-89252050D01*
X119446831Y-89252050D01*
X119372313Y-89263852D01*
X119223277Y-89287458D01*
X119223274Y-89287458D01*
X119008021Y-89357398D01*
X119008018Y-89357400D01*
X118806345Y-89460157D01*
X118725559Y-89518852D01*
X118659753Y-89542332D01*
X118591699Y-89526506D01*
X118543004Y-89476400D01*
X118529129Y-89407922D01*
X118545286Y-89356535D01*
X118559577Y-89331784D01*
X118600500Y-89179057D01*
X118600500Y-89020943D01*
X118559577Y-88868216D01*
X118550258Y-88852076D01*
X118533787Y-88784177D01*
X118556640Y-88718150D01*
X118611562Y-88674960D01*
X118681115Y-88668319D01*
X118730530Y-88689758D01*
X118806350Y-88744845D01*
X119008019Y-88847600D01*
X119008021Y-88847601D01*
X119151738Y-88894297D01*
X119223279Y-88917542D01*
X119446831Y-88952950D01*
X119446832Y-88952950D01*
X119673168Y-88952950D01*
X119673169Y-88952950D01*
X119896721Y-88917542D01*
X119896724Y-88917541D01*
X119896725Y-88917541D01*
X120111978Y-88847601D01*
X120111978Y-88847600D01*
X120111981Y-88847600D01*
X120313650Y-88744845D01*
X120496761Y-88611807D01*
X120656807Y-88451761D01*
X120789845Y-88268650D01*
X120892600Y-88066981D01*
X120904036Y-88031784D01*
X120962541Y-87851725D01*
X120962541Y-87851724D01*
X120962542Y-87851721D01*
X120997950Y-87628169D01*
X120997950Y-87401831D01*
X120962542Y-87178279D01*
X120962541Y-87178275D01*
X120962541Y-87178274D01*
X120892601Y-86963021D01*
X120892599Y-86963018D01*
X120809793Y-86800500D01*
X120789845Y-86761350D01*
X120656807Y-86578239D01*
X120496761Y-86418193D01*
X120313650Y-86285155D01*
X120111981Y-86182400D01*
X120111978Y-86182398D01*
X119896723Y-86112458D01*
X119747686Y-86088852D01*
X119673169Y-86077050D01*
X119446831Y-86077050D01*
X119372313Y-86088852D01*
X119223277Y-86112458D01*
X119223274Y-86112458D01*
X119008021Y-86182398D01*
X119008018Y-86182400D01*
X118806349Y-86285155D01*
X118703229Y-86360077D01*
X118623239Y-86418193D01*
X118623237Y-86418195D01*
X118623236Y-86418195D01*
X118463195Y-86578236D01*
X118463195Y-86578237D01*
X118463193Y-86578239D01*
X118439855Y-86610361D01*
X118330155Y-86761349D01*
X118227400Y-86963018D01*
X118227398Y-86963021D01*
X118157458Y-87178274D01*
X118157458Y-87178277D01*
X118144221Y-87261852D01*
X118122050Y-87401831D01*
X118122050Y-87628169D01*
X118125050Y-87647108D01*
X118157458Y-87851722D01*
X118157458Y-87851725D01*
X118227398Y-88066978D01*
X118227400Y-88066981D01*
X118330155Y-88268650D01*
X118398463Y-88362668D01*
X118421943Y-88428473D01*
X118406118Y-88496527D01*
X118356012Y-88545222D01*
X118287534Y-88559098D01*
X118236151Y-88542943D01*
X118231792Y-88540426D01*
X118231785Y-88540423D01*
X118231784Y-88540423D01*
X118079057Y-88499500D01*
X117920943Y-88499500D01*
X117768216Y-88540423D01*
X117768215Y-88540423D01*
X117684577Y-88588711D01*
X117616676Y-88605182D01*
X117550650Y-88582330D01*
X117534897Y-88569004D01*
X116675518Y-87709625D01*
X115763200Y-86797308D01*
X115729716Y-86735986D01*
X115734700Y-86666294D01*
X115776572Y-86610361D01*
X115818785Y-86589854D01*
X115931784Y-86559577D01*
X116068716Y-86480520D01*
X116180520Y-86368716D01*
X116259577Y-86231784D01*
X116300500Y-86079057D01*
X116300500Y-85920943D01*
X116259577Y-85768216D01*
X116210643Y-85683459D01*
X116180524Y-85631290D01*
X116180518Y-85631282D01*
X116085776Y-85536540D01*
X120338200Y-85536540D01*
X120338200Y-85683459D01*
X120366858Y-85827534D01*
X120366860Y-85827542D01*
X120377244Y-85852611D01*
X120423078Y-85963266D01*
X120423083Y-85963275D01*
X120504698Y-86085419D01*
X120504701Y-86085423D01*
X120608576Y-86189298D01*
X120608580Y-86189301D01*
X120730724Y-86270916D01*
X120730730Y-86270919D01*
X120730731Y-86270920D01*
X120866458Y-86327140D01*
X121010540Y-86355799D01*
X121010544Y-86355800D01*
X121010545Y-86355800D01*
X121157456Y-86355800D01*
X121157457Y-86355799D01*
X121301542Y-86327140D01*
X121437269Y-86270920D01*
X121559420Y-86189301D01*
X121663301Y-86085420D01*
X121744920Y-85963269D01*
X121801140Y-85827542D01*
X121829800Y-85683455D01*
X121829800Y-85536545D01*
X121801140Y-85392458D01*
X121746099Y-85259577D01*
X121744921Y-85256733D01*
X121744916Y-85256724D01*
X121663301Y-85134580D01*
X121663298Y-85134576D01*
X121559423Y-85030701D01*
X121559419Y-85030698D01*
X121437275Y-84949083D01*
X121437266Y-84949078D01*
X121301544Y-84892861D01*
X121301545Y-84892861D01*
X121301542Y-84892860D01*
X121301538Y-84892859D01*
X121301534Y-84892858D01*
X121157459Y-84864200D01*
X121157455Y-84864200D01*
X121010545Y-84864200D01*
X121010540Y-84864200D01*
X120866465Y-84892858D01*
X120866455Y-84892861D01*
X120730733Y-84949078D01*
X120730724Y-84949083D01*
X120608580Y-85030698D01*
X120608576Y-85030701D01*
X120504701Y-85134576D01*
X120504698Y-85134580D01*
X120423083Y-85256724D01*
X120423078Y-85256733D01*
X120366861Y-85392455D01*
X120366858Y-85392465D01*
X120338200Y-85536540D01*
X116085776Y-85536540D01*
X116068717Y-85519481D01*
X116068709Y-85519475D01*
X115931790Y-85440426D01*
X115931786Y-85440424D01*
X115931784Y-85440423D01*
X115779057Y-85399500D01*
X115620943Y-85399500D01*
X115468216Y-85440423D01*
X115468209Y-85440426D01*
X115331290Y-85519475D01*
X115331282Y-85519481D01*
X115219481Y-85631282D01*
X115219475Y-85631290D01*
X115140426Y-85768209D01*
X115140423Y-85768214D01*
X115110146Y-85881210D01*
X115106986Y-85886394D01*
X115106553Y-85892450D01*
X115089013Y-85915879D01*
X115073780Y-85940871D01*
X115068318Y-85943523D01*
X115064681Y-85948383D01*
X115037260Y-85958610D01*
X115010933Y-85971399D01*
X115004905Y-85970678D01*
X114999217Y-85972800D01*
X114970618Y-85966578D01*
X114941558Y-85963104D01*
X114935359Y-85958908D01*
X114930944Y-85957948D01*
X114902690Y-85936797D01*
X114836819Y-85870926D01*
X114803334Y-85809603D01*
X114800500Y-85783245D01*
X114800500Y-85721445D01*
X114800500Y-85721443D01*
X114759577Y-85568716D01*
X114741003Y-85536544D01*
X114680524Y-85431790D01*
X114680518Y-85431782D01*
X114568717Y-85319981D01*
X114568709Y-85319975D01*
X114431790Y-85240926D01*
X114431786Y-85240924D01*
X114431784Y-85240923D01*
X114279057Y-85200000D01*
X114279056Y-85200000D01*
X114267966Y-85200000D01*
X114200927Y-85180315D01*
X114155172Y-85127511D01*
X114146105Y-85085834D01*
X114145027Y-85085977D01*
X114143966Y-85077924D01*
X114143966Y-85077917D01*
X114103043Y-84925190D01*
X114099746Y-84919480D01*
X114023990Y-84788264D01*
X114023984Y-84788256D01*
X113912183Y-84676455D01*
X113912175Y-84676449D01*
X113775256Y-84597400D01*
X113775252Y-84597398D01*
X113775250Y-84597397D01*
X113622523Y-84556474D01*
X113464409Y-84556474D01*
X113311682Y-84597397D01*
X113311675Y-84597400D01*
X113174756Y-84676449D01*
X113174748Y-84676455D01*
X113062947Y-84788256D01*
X113062941Y-84788264D01*
X112983892Y-84925183D01*
X112983889Y-84925190D01*
X112942966Y-85077917D01*
X112942966Y-85236031D01*
X112965461Y-85319981D01*
X112983889Y-85388757D01*
X112983892Y-85388764D01*
X113062941Y-85525683D01*
X113062947Y-85525691D01*
X113106647Y-85569391D01*
X113140132Y-85630714D01*
X113142966Y-85657072D01*
X113142966Y-86596192D01*
X113170259Y-86698055D01*
X113192159Y-86735986D01*
X113222986Y-86789379D01*
X113222988Y-86789381D01*
X113436403Y-87002796D01*
X113469888Y-87064119D01*
X113464904Y-87133811D01*
X113423032Y-87189744D01*
X113380816Y-87210252D01*
X113268214Y-87240423D01*
X113268209Y-87240426D01*
X113131290Y-87319475D01*
X113131282Y-87319481D01*
X113019481Y-87431282D01*
X113019475Y-87431290D01*
X112940426Y-87568209D01*
X112940423Y-87568216D01*
X112899500Y-87720943D01*
X112899500Y-87879057D01*
X112931716Y-87999287D01*
X112940423Y-88031783D01*
X112940426Y-88031790D01*
X113019475Y-88168709D01*
X113019479Y-88168714D01*
X113019480Y-88168716D01*
X113131284Y-88280520D01*
X113131286Y-88280521D01*
X113131290Y-88280524D01*
X113256351Y-88352727D01*
X113268216Y-88359577D01*
X113420943Y-88400500D01*
X113420945Y-88400500D01*
X113579055Y-88400500D01*
X113579057Y-88400500D01*
X113731784Y-88359577D01*
X113868716Y-88280520D01*
X113980520Y-88168716D01*
X114059577Y-88031784D01*
X114089749Y-87919179D01*
X114126111Y-87859523D01*
X114188958Y-87828993D01*
X114258334Y-87837287D01*
X114297203Y-87863595D01*
X115263181Y-88829573D01*
X115296666Y-88890896D01*
X115299500Y-88917254D01*
X115299500Y-92076000D01*
X115279815Y-92143039D01*
X115227011Y-92188794D01*
X115175500Y-92200000D01*
X104700000Y-92200000D01*
X104700000Y-100076000D01*
X104680315Y-100143039D01*
X104627511Y-100188794D01*
X104576000Y-100200000D01*
X87324000Y-100200000D01*
X87256961Y-100180315D01*
X87211206Y-100127511D01*
X87200000Y-100076000D01*
X87200000Y-98020943D01*
X91599500Y-98020943D01*
X91599500Y-98179057D01*
X91626742Y-98280723D01*
X91640423Y-98331783D01*
X91640426Y-98331790D01*
X91719475Y-98468709D01*
X91719479Y-98468714D01*
X91719480Y-98468716D01*
X91831284Y-98580520D01*
X91831286Y-98580521D01*
X91831290Y-98580524D01*
X91920087Y-98631790D01*
X91968216Y-98659577D01*
X92120943Y-98700500D01*
X92120945Y-98700500D01*
X92279055Y-98700500D01*
X92279057Y-98700500D01*
X92431784Y-98659577D01*
X92568716Y-98580520D01*
X92680520Y-98468716D01*
X92759577Y-98331784D01*
X92762482Y-98320943D01*
X94599500Y-98320943D01*
X94599500Y-98479057D01*
X94632041Y-98600500D01*
X94640423Y-98631783D01*
X94640426Y-98631790D01*
X94719475Y-98768709D01*
X94719479Y-98768714D01*
X94719480Y-98768716D01*
X94831284Y-98880520D01*
X94831286Y-98880521D01*
X94831290Y-98880524D01*
X94968209Y-98959573D01*
X94968216Y-98959577D01*
X95120943Y-99000500D01*
X95120945Y-99000500D01*
X95279055Y-99000500D01*
X95279057Y-99000500D01*
X95431784Y-98959577D01*
X95568716Y-98880520D01*
X95680520Y-98768716D01*
X95759577Y-98631784D01*
X95800500Y-98479057D01*
X95800500Y-98320943D01*
X95759577Y-98168216D01*
X95708102Y-98079057D01*
X95680524Y-98031290D01*
X95680518Y-98031282D01*
X95568717Y-97919481D01*
X95568709Y-97919475D01*
X95431790Y-97840426D01*
X95431786Y-97840424D01*
X95431784Y-97840423D01*
X95279057Y-97799500D01*
X95120943Y-97799500D01*
X94968216Y-97840423D01*
X94968209Y-97840426D01*
X94831290Y-97919475D01*
X94831282Y-97919481D01*
X94719481Y-98031282D01*
X94719475Y-98031290D01*
X94640426Y-98168209D01*
X94640423Y-98168216D01*
X94599500Y-98320943D01*
X92762482Y-98320943D01*
X92800500Y-98179057D01*
X92800500Y-98020943D01*
X92759577Y-97868216D01*
X92743531Y-97840423D01*
X92680524Y-97731290D01*
X92680518Y-97731282D01*
X92568717Y-97619481D01*
X92568709Y-97619475D01*
X92431790Y-97540426D01*
X92431786Y-97540424D01*
X92431784Y-97540423D01*
X92279057Y-97499500D01*
X92120943Y-97499500D01*
X91968216Y-97540423D01*
X91968209Y-97540426D01*
X91831290Y-97619475D01*
X91831282Y-97619481D01*
X91719481Y-97731282D01*
X91719475Y-97731290D01*
X91640426Y-97868209D01*
X91640423Y-97868216D01*
X91599500Y-98020943D01*
X87200000Y-98020943D01*
X87200000Y-94120943D01*
X91599500Y-94120943D01*
X91599500Y-94279057D01*
X91623525Y-94368717D01*
X91640423Y-94431783D01*
X91640426Y-94431790D01*
X91719475Y-94568709D01*
X91719479Y-94568714D01*
X91719480Y-94568716D01*
X91831284Y-94680520D01*
X91831286Y-94680521D01*
X91831290Y-94680524D01*
X91917887Y-94730520D01*
X91968216Y-94759577D01*
X92120943Y-94800500D01*
X92120945Y-94800500D01*
X92279055Y-94800500D01*
X92279057Y-94800500D01*
X92431784Y-94759577D01*
X92568716Y-94680520D01*
X92680520Y-94568716D01*
X92759577Y-94431784D01*
X92800500Y-94279057D01*
X92800500Y-94120943D01*
X92759577Y-93968216D01*
X92738543Y-93931784D01*
X92732284Y-93920943D01*
X95999500Y-93920943D01*
X95999500Y-94079057D01*
X96026687Y-94180518D01*
X96040423Y-94231783D01*
X96040426Y-94231790D01*
X96119475Y-94368709D01*
X96119479Y-94368714D01*
X96119480Y-94368716D01*
X96231284Y-94480520D01*
X96231286Y-94480521D01*
X96231290Y-94480524D01*
X96368209Y-94559573D01*
X96368216Y-94559577D01*
X96520943Y-94600500D01*
X96520945Y-94600500D01*
X96679055Y-94600500D01*
X96679057Y-94600500D01*
X96831784Y-94559577D01*
X96968716Y-94480520D01*
X97080520Y-94368716D01*
X97159577Y-94231784D01*
X97200500Y-94079057D01*
X97200500Y-93920943D01*
X97159577Y-93768216D01*
X97091037Y-93649500D01*
X97080524Y-93631290D01*
X97080518Y-93631282D01*
X96968717Y-93519481D01*
X96968709Y-93519475D01*
X96831790Y-93440426D01*
X96831786Y-93440424D01*
X96831784Y-93440423D01*
X96679057Y-93399500D01*
X96520943Y-93399500D01*
X96368216Y-93440423D01*
X96368209Y-93440426D01*
X96231290Y-93519475D01*
X96231282Y-93519481D01*
X96119481Y-93631282D01*
X96119475Y-93631290D01*
X96040426Y-93768209D01*
X96040423Y-93768216D01*
X95999500Y-93920943D01*
X92732284Y-93920943D01*
X92680522Y-93831287D01*
X92680518Y-93831282D01*
X92568717Y-93719481D01*
X92568709Y-93719475D01*
X92431790Y-93640426D01*
X92431786Y-93640424D01*
X92431784Y-93640423D01*
X92279057Y-93599500D01*
X92120943Y-93599500D01*
X91968216Y-93640423D01*
X91968209Y-93640426D01*
X91831290Y-93719475D01*
X91831282Y-93719481D01*
X91719481Y-93831282D01*
X91719475Y-93831290D01*
X91640426Y-93968209D01*
X91640426Y-93968210D01*
X91640423Y-93968216D01*
X91599500Y-94120943D01*
X87200000Y-94120943D01*
X87200000Y-90320943D01*
X95199500Y-90320943D01*
X95199500Y-90479057D01*
X95236340Y-90616544D01*
X95240423Y-90631783D01*
X95240426Y-90631790D01*
X95319475Y-90768709D01*
X95319479Y-90768714D01*
X95319480Y-90768716D01*
X95431284Y-90880520D01*
X95431286Y-90880521D01*
X95431290Y-90880524D01*
X95478091Y-90907544D01*
X95568216Y-90959577D01*
X95720943Y-91000500D01*
X95720945Y-91000500D01*
X95879055Y-91000500D01*
X95879057Y-91000500D01*
X96031784Y-90959577D01*
X96168716Y-90880520D01*
X96280520Y-90768716D01*
X96359577Y-90631784D01*
X96400500Y-90479057D01*
X96400500Y-90320943D01*
X96359577Y-90168216D01*
X96326370Y-90110699D01*
X96280524Y-90031290D01*
X96280518Y-90031282D01*
X96170179Y-89920943D01*
X107199500Y-89920943D01*
X107199500Y-90079057D01*
X107226687Y-90180518D01*
X107240423Y-90231783D01*
X107240426Y-90231790D01*
X107319475Y-90368709D01*
X107319479Y-90368714D01*
X107319480Y-90368716D01*
X107431284Y-90480520D01*
X107431286Y-90480521D01*
X107431290Y-90480524D01*
X107568209Y-90559573D01*
X107568216Y-90559577D01*
X107720943Y-90600500D01*
X107720945Y-90600500D01*
X107879055Y-90600500D01*
X107879057Y-90600500D01*
X108031784Y-90559577D01*
X108168716Y-90480520D01*
X108280520Y-90368716D01*
X108359577Y-90231784D01*
X108400500Y-90079057D01*
X108400500Y-89920943D01*
X108359577Y-89768216D01*
X108356869Y-89763525D01*
X108280524Y-89631290D01*
X108280518Y-89631282D01*
X108168717Y-89519481D01*
X108168709Y-89519475D01*
X108031790Y-89440426D01*
X108031786Y-89440424D01*
X108031784Y-89440423D01*
X107879057Y-89399500D01*
X107720943Y-89399500D01*
X107568216Y-89440423D01*
X107568209Y-89440426D01*
X107431290Y-89519475D01*
X107431282Y-89519481D01*
X107319481Y-89631282D01*
X107319475Y-89631290D01*
X107240426Y-89768209D01*
X107240423Y-89768216D01*
X107199500Y-89920943D01*
X96170179Y-89920943D01*
X96168717Y-89919481D01*
X96168709Y-89919475D01*
X96031790Y-89840426D01*
X96031786Y-89840424D01*
X96031784Y-89840423D01*
X95879057Y-89799500D01*
X95720943Y-89799500D01*
X95568216Y-89840423D01*
X95568209Y-89840426D01*
X95431290Y-89919475D01*
X95431282Y-89919481D01*
X95319481Y-90031282D01*
X95319475Y-90031290D01*
X95240426Y-90168209D01*
X95240423Y-90168216D01*
X95199500Y-90320943D01*
X87200000Y-90320943D01*
X87200000Y-88120943D01*
X92099500Y-88120943D01*
X92099500Y-88279057D01*
X92137089Y-88419339D01*
X92140423Y-88431783D01*
X92140426Y-88431790D01*
X92219475Y-88568709D01*
X92219481Y-88568717D01*
X92313083Y-88662319D01*
X92346568Y-88723642D01*
X92341584Y-88793334D01*
X92313083Y-88837681D01*
X92219481Y-88931282D01*
X92219475Y-88931290D01*
X92140426Y-89068209D01*
X92140423Y-89068216D01*
X92099500Y-89220943D01*
X92099500Y-89379057D01*
X92137316Y-89520186D01*
X92140423Y-89531783D01*
X92140426Y-89531790D01*
X92219475Y-89668709D01*
X92219479Y-89668714D01*
X92219480Y-89668716D01*
X92331284Y-89780520D01*
X92331286Y-89780521D01*
X92331290Y-89780524D01*
X92423426Y-89833718D01*
X92468216Y-89859577D01*
X92620943Y-89900500D01*
X92620945Y-89900500D01*
X92779055Y-89900500D01*
X92779057Y-89900500D01*
X92931784Y-89859577D01*
X93068716Y-89780520D01*
X93180520Y-89668716D01*
X93259577Y-89531784D01*
X93300500Y-89379057D01*
X93300500Y-89220943D01*
X93259577Y-89068216D01*
X93235788Y-89027011D01*
X93180524Y-88931290D01*
X93180518Y-88931282D01*
X93086917Y-88837681D01*
X93085652Y-88835364D01*
X93083390Y-88834006D01*
X93069003Y-88804875D01*
X93053432Y-88776358D01*
X93053620Y-88773725D01*
X93052452Y-88771360D01*
X93056097Y-88739082D01*
X93058416Y-88706666D01*
X93060088Y-88703746D01*
X93060294Y-88701931D01*
X93065961Y-88693498D01*
X93078467Y-88671675D01*
X93082451Y-88666784D01*
X93178293Y-88570943D01*
X110749500Y-88570943D01*
X110749500Y-88729057D01*
X110786788Y-88868216D01*
X110790423Y-88881783D01*
X110790426Y-88881790D01*
X110869475Y-89018709D01*
X110869479Y-89018714D01*
X110869480Y-89018716D01*
X110981284Y-89130520D01*
X110981286Y-89130521D01*
X110981290Y-89130524D01*
X111065353Y-89179057D01*
X111118216Y-89209577D01*
X111270943Y-89250500D01*
X111270945Y-89250500D01*
X111429055Y-89250500D01*
X111429057Y-89250500D01*
X111581784Y-89209577D01*
X111718716Y-89130520D01*
X111830520Y-89018716D01*
X111909577Y-88881784D01*
X111950500Y-88729057D01*
X111950500Y-88570943D01*
X111909577Y-88418216D01*
X111875722Y-88359577D01*
X111830524Y-88281290D01*
X111830518Y-88281282D01*
X111718717Y-88169481D01*
X111718709Y-88169475D01*
X111581790Y-88090426D01*
X111581786Y-88090424D01*
X111581784Y-88090423D01*
X111429057Y-88049500D01*
X111270943Y-88049500D01*
X111118216Y-88090423D01*
X111118209Y-88090426D01*
X110981290Y-88169475D01*
X110981282Y-88169481D01*
X110869481Y-88281282D01*
X110869475Y-88281290D01*
X110790426Y-88418209D01*
X110790423Y-88418216D01*
X110749500Y-88570943D01*
X93178293Y-88570943D01*
X93180520Y-88568716D01*
X93259577Y-88431784D01*
X93300500Y-88279057D01*
X93300500Y-88120943D01*
X93259577Y-87968216D01*
X93198462Y-87862360D01*
X93180524Y-87831290D01*
X93180518Y-87831282D01*
X93068717Y-87719481D01*
X93068709Y-87719475D01*
X92931790Y-87640426D01*
X92931786Y-87640424D01*
X92931784Y-87640423D01*
X92779057Y-87599500D01*
X92620943Y-87599500D01*
X92468216Y-87640423D01*
X92468209Y-87640426D01*
X92331290Y-87719475D01*
X92331282Y-87719481D01*
X92219481Y-87831282D01*
X92219475Y-87831290D01*
X92140426Y-87968209D01*
X92140423Y-87968216D01*
X92099500Y-88120943D01*
X87200000Y-88120943D01*
X87200000Y-85320943D01*
X91899500Y-85320943D01*
X91899500Y-85479057D01*
X91940289Y-85631282D01*
X91940423Y-85631783D01*
X91940426Y-85631790D01*
X92019475Y-85768709D01*
X92019479Y-85768714D01*
X92019480Y-85768716D01*
X92131284Y-85880520D01*
X92131286Y-85880521D01*
X92131290Y-85880524D01*
X92235816Y-85940871D01*
X92268216Y-85959577D01*
X92420943Y-86000500D01*
X92420945Y-86000500D01*
X92579055Y-86000500D01*
X92579057Y-86000500D01*
X92731784Y-85959577D01*
X92868716Y-85880520D01*
X92980520Y-85768716D01*
X93059577Y-85631784D01*
X93100500Y-85479057D01*
X93100500Y-85320943D01*
X93059577Y-85168216D01*
X93059573Y-85168209D01*
X92980524Y-85031290D01*
X92980518Y-85031282D01*
X92868717Y-84919481D01*
X92868709Y-84919475D01*
X92731790Y-84840426D01*
X92731786Y-84840424D01*
X92731784Y-84840423D01*
X92579057Y-84799500D01*
X92420943Y-84799500D01*
X92268216Y-84840423D01*
X92268209Y-84840426D01*
X92131290Y-84919475D01*
X92131282Y-84919481D01*
X92019481Y-85031282D01*
X92019475Y-85031290D01*
X91940426Y-85168209D01*
X91940423Y-85168216D01*
X91899500Y-85320943D01*
X87200000Y-85320943D01*
X87200000Y-84620943D01*
X106899500Y-84620943D01*
X106899500Y-84779057D01*
X106938655Y-84925183D01*
X106940423Y-84931783D01*
X106940426Y-84931790D01*
X107019475Y-85068709D01*
X107019479Y-85068714D01*
X107019480Y-85068716D01*
X107131284Y-85180520D01*
X107131286Y-85180521D01*
X107131290Y-85180524D01*
X107263290Y-85256733D01*
X107268216Y-85259577D01*
X107420943Y-85300500D01*
X107420945Y-85300500D01*
X107579055Y-85300500D01*
X107579057Y-85300500D01*
X107731784Y-85259577D01*
X107868716Y-85180520D01*
X107980520Y-85068716D01*
X108059577Y-84931784D01*
X108100500Y-84779057D01*
X108100500Y-84620943D01*
X108059577Y-84468216D01*
X108038543Y-84431784D01*
X107980524Y-84331290D01*
X107980518Y-84331282D01*
X107868717Y-84219481D01*
X107868709Y-84219475D01*
X107731790Y-84140426D01*
X107731786Y-84140424D01*
X107731784Y-84140423D01*
X107579057Y-84099500D01*
X107420943Y-84099500D01*
X107268216Y-84140423D01*
X107268209Y-84140426D01*
X107131290Y-84219475D01*
X107131282Y-84219481D01*
X107019481Y-84331282D01*
X107019475Y-84331290D01*
X106940426Y-84468209D01*
X106940423Y-84468216D01*
X106899500Y-84620943D01*
X87200000Y-84620943D01*
X87200000Y-82820943D01*
X88199500Y-82820943D01*
X88199500Y-82979057D01*
X88226295Y-83079055D01*
X88240423Y-83131783D01*
X88240426Y-83131790D01*
X88319475Y-83268709D01*
X88319479Y-83268714D01*
X88319480Y-83268716D01*
X88431284Y-83380520D01*
X88431286Y-83380521D01*
X88431290Y-83380524D01*
X88517887Y-83430520D01*
X88568216Y-83459577D01*
X88720943Y-83500500D01*
X88720945Y-83500500D01*
X88879055Y-83500500D01*
X88879057Y-83500500D01*
X89031784Y-83459577D01*
X89168716Y-83380520D01*
X89280520Y-83268716D01*
X89359577Y-83131784D01*
X89400500Y-82979057D01*
X89400500Y-82820943D01*
X89373705Y-82720943D01*
X102399500Y-82720943D01*
X102399500Y-82879057D01*
X102426295Y-82979055D01*
X102440423Y-83031783D01*
X102440426Y-83031790D01*
X102519475Y-83168709D01*
X102519479Y-83168714D01*
X102519480Y-83168716D01*
X102631284Y-83280520D01*
X102631286Y-83280521D01*
X102631290Y-83280524D01*
X102750305Y-83349236D01*
X102768216Y-83359577D01*
X102920943Y-83400500D01*
X102920945Y-83400500D01*
X103079055Y-83400500D01*
X103079057Y-83400500D01*
X103231784Y-83359577D01*
X103368716Y-83280520D01*
X103480520Y-83168716D01*
X103559577Y-83031784D01*
X103589277Y-82920943D01*
X109599500Y-82920943D01*
X109599500Y-83079057D01*
X109623525Y-83168717D01*
X109640423Y-83231783D01*
X109640426Y-83231790D01*
X109719475Y-83368709D01*
X109719479Y-83368714D01*
X109719480Y-83368716D01*
X109831284Y-83480520D01*
X109831286Y-83480521D01*
X109831290Y-83480524D01*
X109966553Y-83558617D01*
X109968216Y-83559577D01*
X110120943Y-83600500D01*
X110120945Y-83600500D01*
X110279055Y-83600500D01*
X110279057Y-83600500D01*
X110431784Y-83559577D01*
X110568716Y-83480520D01*
X110680520Y-83368716D01*
X110759577Y-83231784D01*
X110800500Y-83079057D01*
X110800500Y-82920943D01*
X110759577Y-82768216D01*
X110754589Y-82759577D01*
X110680524Y-82631290D01*
X110680518Y-82631282D01*
X110650065Y-82600829D01*
X110616580Y-82539506D01*
X110621564Y-82469814D01*
X110663436Y-82413881D01*
X110705650Y-82393374D01*
X110831784Y-82359577D01*
X110968716Y-82280520D01*
X111062319Y-82186917D01*
X111123642Y-82153432D01*
X111193334Y-82158416D01*
X111237681Y-82186917D01*
X111331284Y-82280520D01*
X111331286Y-82280521D01*
X111331290Y-82280524D01*
X111398765Y-82319480D01*
X111468216Y-82359577D01*
X111620943Y-82400500D01*
X111620945Y-82400500D01*
X111779055Y-82400500D01*
X111779057Y-82400500D01*
X111931784Y-82359577D01*
X112068716Y-82280520D01*
X112162319Y-82186917D01*
X112164342Y-82185811D01*
X112165521Y-82183827D01*
X112194867Y-82169144D01*
X112223642Y-82153432D01*
X112225942Y-82153596D01*
X112228006Y-82152564D01*
X112260614Y-82156076D01*
X112293334Y-82158416D01*
X112295897Y-82159876D01*
X112297474Y-82160046D01*
X112304848Y-82164974D01*
X112327824Y-82178061D01*
X112332988Y-82182224D01*
X112431284Y-82280520D01*
X112514556Y-82328596D01*
X112522050Y-82334638D01*
X112536704Y-82355752D01*
X112554442Y-82374355D01*
X112556297Y-82383983D01*
X112561888Y-82392038D01*
X112562800Y-82417723D01*
X112567665Y-82442962D01*
X112564020Y-82452064D01*
X112564369Y-82461863D01*
X112551250Y-82483964D01*
X112541697Y-82507827D01*
X112531910Y-82518854D01*
X112519479Y-82531285D01*
X112519475Y-82531290D01*
X112440426Y-82668209D01*
X112440423Y-82668216D01*
X112399500Y-82820943D01*
X112399500Y-82979057D01*
X112426295Y-83079055D01*
X112440423Y-83131783D01*
X112440426Y-83131790D01*
X112519475Y-83268709D01*
X112519479Y-83268714D01*
X112519480Y-83268716D01*
X112631284Y-83380520D01*
X112631286Y-83380521D01*
X112631290Y-83380524D01*
X112717887Y-83430520D01*
X112768216Y-83459577D01*
X112920943Y-83500500D01*
X112920945Y-83500500D01*
X113079055Y-83500500D01*
X113079057Y-83500500D01*
X113231784Y-83459577D01*
X113325983Y-83405191D01*
X113393881Y-83388719D01*
X113459908Y-83411571D01*
X113475662Y-83424898D01*
X113481284Y-83430520D01*
X113481286Y-83430521D01*
X113481290Y-83430524D01*
X113567887Y-83480520D01*
X113618216Y-83509577D01*
X113770943Y-83550500D01*
X113832745Y-83550500D01*
X113854385Y-83556854D01*
X113876871Y-83558617D01*
X113890548Y-83567473D01*
X113899784Y-83570185D01*
X113907731Y-83575743D01*
X113914457Y-83580850D01*
X113954087Y-83620480D01*
X113999750Y-83646843D01*
X114045412Y-83673207D01*
X114147273Y-83700501D01*
X114147276Y-83700501D01*
X114260323Y-83700501D01*
X114260339Y-83700500D01*
X126275500Y-83700500D01*
X126342539Y-83720185D01*
X126388294Y-83772989D01*
X126399500Y-83824500D01*
X126399500Y-88082745D01*
X126379815Y-88149784D01*
X126363181Y-88170426D01*
X126070426Y-88463181D01*
X126043498Y-88477884D01*
X126017680Y-88494477D01*
X126011479Y-88495368D01*
X126009103Y-88496666D01*
X125982745Y-88499500D01*
X125945487Y-88499500D01*
X125878448Y-88479815D01*
X125832693Y-88427011D01*
X125822749Y-88357853D01*
X125845168Y-88302615D01*
X125860661Y-88281290D01*
X125869845Y-88268650D01*
X125972600Y-88066981D01*
X125984036Y-88031784D01*
X126042541Y-87851725D01*
X126042541Y-87851724D01*
X126042542Y-87851721D01*
X126077950Y-87628169D01*
X126077950Y-87401831D01*
X126042542Y-87178279D01*
X126042541Y-87178275D01*
X126042541Y-87178274D01*
X125972601Y-86963021D01*
X125972599Y-86963018D01*
X125889793Y-86800500D01*
X125869845Y-86761350D01*
X125736807Y-86578239D01*
X125576761Y-86418193D01*
X125393650Y-86285155D01*
X125191981Y-86182400D01*
X125191978Y-86182398D01*
X124976724Y-86112458D01*
X124921707Y-86103744D01*
X124858572Y-86073814D01*
X124821642Y-86014502D01*
X124822640Y-85944640D01*
X124861251Y-85886407D01*
X124865622Y-85882893D01*
X124868705Y-85880525D01*
X124868716Y-85880520D01*
X124980520Y-85768716D01*
X125059577Y-85631784D01*
X125100500Y-85479057D01*
X125100500Y-85320943D01*
X125059577Y-85168216D01*
X125059573Y-85168209D01*
X124980524Y-85031290D01*
X124980518Y-85031282D01*
X124868717Y-84919481D01*
X124868709Y-84919475D01*
X124731790Y-84840426D01*
X124731786Y-84840424D01*
X124731784Y-84840423D01*
X124579057Y-84799500D01*
X124420943Y-84799500D01*
X124268216Y-84840423D01*
X124268209Y-84840426D01*
X124131290Y-84919475D01*
X124131282Y-84919481D01*
X124019481Y-85031282D01*
X124019477Y-85031287D01*
X123936921Y-85174280D01*
X123886354Y-85222496D01*
X123817747Y-85235719D01*
X123752882Y-85209751D01*
X123726433Y-85181172D01*
X123695301Y-85134580D01*
X123695299Y-85134577D01*
X123591423Y-85030701D01*
X123591419Y-85030698D01*
X123469275Y-84949083D01*
X123469266Y-84949078D01*
X123333544Y-84892861D01*
X123333545Y-84892861D01*
X123333542Y-84892860D01*
X123333538Y-84892859D01*
X123333534Y-84892858D01*
X123189459Y-84864200D01*
X123189455Y-84864200D01*
X123042545Y-84864200D01*
X123042540Y-84864200D01*
X122898465Y-84892858D01*
X122898455Y-84892861D01*
X122762733Y-84949078D01*
X122762724Y-84949083D01*
X122640580Y-85030698D01*
X122640576Y-85030701D01*
X122536701Y-85134576D01*
X122536698Y-85134580D01*
X122455083Y-85256724D01*
X122455078Y-85256733D01*
X122398861Y-85392455D01*
X122398858Y-85392465D01*
X122370200Y-85536540D01*
X122370200Y-85683459D01*
X122398858Y-85827534D01*
X122398860Y-85827542D01*
X122409244Y-85852611D01*
X122455078Y-85963266D01*
X122455083Y-85963275D01*
X122536698Y-86085419D01*
X122536701Y-86085423D01*
X122640576Y-86189298D01*
X122640580Y-86189301D01*
X122762724Y-86270916D01*
X122762730Y-86270919D01*
X122762731Y-86270920D01*
X122898458Y-86327140D01*
X123042540Y-86355799D01*
X123042544Y-86355800D01*
X123042545Y-86355800D01*
X123189456Y-86355800D01*
X123189457Y-86355799D01*
X123333542Y-86327140D01*
X123469269Y-86270920D01*
X123591420Y-86189301D01*
X123695301Y-86085420D01*
X123776920Y-85963269D01*
X123833140Y-85827542D01*
X123833140Y-85827539D01*
X123833929Y-85825636D01*
X123877769Y-85771232D01*
X123944063Y-85749167D01*
X124011763Y-85766446D01*
X124036171Y-85785407D01*
X124131284Y-85880520D01*
X124131285Y-85880521D01*
X124131287Y-85880522D01*
X124209086Y-85925439D01*
X124257301Y-85976006D01*
X124270525Y-86044613D01*
X124244557Y-86109477D01*
X124187643Y-86150006D01*
X124185404Y-86150757D01*
X124088021Y-86182398D01*
X124088018Y-86182400D01*
X123886349Y-86285155D01*
X123783229Y-86360077D01*
X123703239Y-86418193D01*
X123703237Y-86418195D01*
X123703236Y-86418195D01*
X123543195Y-86578236D01*
X123543195Y-86578237D01*
X123543193Y-86578239D01*
X123519855Y-86610361D01*
X123410155Y-86761349D01*
X123307400Y-86963018D01*
X123307398Y-86963021D01*
X123237458Y-87178274D01*
X123237458Y-87178277D01*
X123224221Y-87261852D01*
X123202050Y-87401831D01*
X123202050Y-87628169D01*
X123205050Y-87647108D01*
X123237458Y-87851722D01*
X123237458Y-87851725D01*
X123307398Y-88066978D01*
X123307400Y-88066981D01*
X123410155Y-88268650D01*
X123543193Y-88451761D01*
X123703239Y-88611807D01*
X123886350Y-88744845D01*
X124088019Y-88847600D01*
X124088021Y-88847601D01*
X124231738Y-88894297D01*
X124303279Y-88917542D01*
X124526831Y-88952950D01*
X124526832Y-88952950D01*
X124753168Y-88952950D01*
X124753169Y-88952950D01*
X124976721Y-88917542D01*
X124976724Y-88917541D01*
X124976725Y-88917541D01*
X125191978Y-88847601D01*
X125191978Y-88847600D01*
X125191981Y-88847600D01*
X125237950Y-88824177D01*
X125306616Y-88811281D01*
X125371357Y-88837556D01*
X125411615Y-88894661D01*
X125414609Y-88964467D01*
X125414019Y-88966754D01*
X125399500Y-89020941D01*
X125399500Y-89020943D01*
X125399500Y-89179057D01*
X125410724Y-89220945D01*
X125415571Y-89239034D01*
X125413908Y-89308884D01*
X125374745Y-89366746D01*
X125310517Y-89394250D01*
X125241615Y-89382663D01*
X125239502Y-89381612D01*
X125191987Y-89357402D01*
X125191978Y-89357398D01*
X124976723Y-89287458D01*
X124827686Y-89263852D01*
X124753169Y-89252050D01*
X124526831Y-89252050D01*
X124452313Y-89263852D01*
X124303277Y-89287458D01*
X124303274Y-89287458D01*
X124088021Y-89357398D01*
X124088018Y-89357400D01*
X123886349Y-89460155D01*
X123804703Y-89519475D01*
X123703239Y-89593193D01*
X123703237Y-89593195D01*
X123703236Y-89593195D01*
X123543195Y-89753236D01*
X123543195Y-89753237D01*
X123543193Y-89753239D01*
X123504240Y-89806853D01*
X123410155Y-89936349D01*
X123307400Y-90138018D01*
X123307398Y-90138021D01*
X123237458Y-90353274D01*
X123237458Y-90353277D01*
X123217304Y-90480524D01*
X123202050Y-90576831D01*
X123202050Y-90803169D01*
X123214302Y-90880524D01*
X123237458Y-91026722D01*
X123237458Y-91026725D01*
X123307398Y-91241978D01*
X123307400Y-91241981D01*
X123410155Y-91443650D01*
X123543193Y-91626761D01*
X123703239Y-91786807D01*
X123886350Y-91919845D01*
X124088019Y-92022600D01*
X124088021Y-92022601D01*
X124252368Y-92076000D01*
X124303279Y-92092542D01*
X124526831Y-92127950D01*
X124526832Y-92127950D01*
X124753168Y-92127950D01*
X124753169Y-92127950D01*
X124976721Y-92092542D01*
X124976724Y-92092541D01*
X124976725Y-92092541D01*
X125191978Y-92022601D01*
X125191978Y-92022600D01*
X125191981Y-92022600D01*
X125393650Y-91919845D01*
X125576761Y-91786807D01*
X125736807Y-91626761D01*
X125869845Y-91443650D01*
X125972600Y-91241981D01*
X125997476Y-91165420D01*
X126042541Y-91026725D01*
X126042541Y-91026724D01*
X126042542Y-91026721D01*
X126077950Y-90803169D01*
X126077950Y-90576831D01*
X126042542Y-90353279D01*
X126042541Y-90353275D01*
X126042541Y-90353274D01*
X125972601Y-90138021D01*
X125972599Y-90138018D01*
X125963899Y-90120943D01*
X125869845Y-89936350D01*
X125857585Y-89919475D01*
X125841536Y-89897385D01*
X125837304Y-89885525D01*
X125829060Y-89876011D01*
X125825786Y-89853244D01*
X125818056Y-89831579D01*
X125820907Y-89819315D01*
X125819116Y-89806853D01*
X125828672Y-89785927D01*
X125833882Y-89763525D01*
X125842910Y-89754750D01*
X125848141Y-89743297D01*
X125867491Y-89730861D01*
X125883987Y-89714830D01*
X125897734Y-89711425D01*
X125906919Y-89705523D01*
X125941854Y-89700500D01*
X126083303Y-89700500D01*
X126150342Y-89720185D01*
X126196097Y-89772989D01*
X126203074Y-89792397D01*
X126237518Y-89920943D01*
X126240423Y-89931783D01*
X126240426Y-89931790D01*
X126319475Y-90068709D01*
X126319479Y-90068714D01*
X126319480Y-90068716D01*
X126431284Y-90180520D01*
X126431286Y-90180521D01*
X126431290Y-90180524D01*
X126520087Y-90231790D01*
X126568216Y-90259577D01*
X126720943Y-90300500D01*
X126720945Y-90300500D01*
X126879055Y-90300500D01*
X126879057Y-90300500D01*
X127031784Y-90259577D01*
X127168716Y-90180520D01*
X127280520Y-90068716D01*
X127359577Y-89931784D01*
X127400500Y-89779057D01*
X127400500Y-89620943D01*
X127359577Y-89468216D01*
X127343531Y-89440423D01*
X127280524Y-89331290D01*
X127280518Y-89331282D01*
X127168717Y-89219481D01*
X127168709Y-89219475D01*
X127031790Y-89140426D01*
X127031786Y-89140424D01*
X127031784Y-89140423D01*
X126879057Y-89099500D01*
X126866255Y-89099500D01*
X126799216Y-89079815D01*
X126753461Y-89027011D01*
X126743517Y-88957853D01*
X126772542Y-88894297D01*
X126778574Y-88887819D01*
X126948243Y-88718150D01*
X127120480Y-88545913D01*
X127173207Y-88454588D01*
X127200500Y-88352727D01*
X127200500Y-88247273D01*
X127200500Y-87551513D01*
X133352522Y-87551513D01*
X133352522Y-87709627D01*
X133392687Y-87859523D01*
X133393445Y-87862353D01*
X133393448Y-87862360D01*
X133472497Y-87999279D01*
X133472501Y-87999284D01*
X133472502Y-87999286D01*
X133584306Y-88111090D01*
X133584308Y-88111091D01*
X133584312Y-88111094D01*
X133685441Y-88169480D01*
X133721238Y-88190147D01*
X133873965Y-88231070D01*
X133873967Y-88231070D01*
X134032077Y-88231070D01*
X134032079Y-88231070D01*
X134184806Y-88190147D01*
X134321738Y-88111090D01*
X134433542Y-87999286D01*
X134512599Y-87862354D01*
X134553522Y-87709627D01*
X134553522Y-87551513D01*
X134512599Y-87398786D01*
X134466812Y-87319480D01*
X134433546Y-87261860D01*
X134433540Y-87261852D01*
X134321739Y-87150051D01*
X134321731Y-87150045D01*
X134184812Y-87070996D01*
X134184808Y-87070994D01*
X134184806Y-87070993D01*
X134032079Y-87030070D01*
X133873965Y-87030070D01*
X133721238Y-87070993D01*
X133721231Y-87070996D01*
X133584312Y-87150045D01*
X133584304Y-87150051D01*
X133472503Y-87261852D01*
X133472497Y-87261860D01*
X133393448Y-87398779D01*
X133393445Y-87398786D01*
X133352522Y-87551513D01*
X127200500Y-87551513D01*
X127200500Y-83247273D01*
X127200500Y-79620943D01*
X134399500Y-79620943D01*
X134399500Y-79779057D01*
X134423525Y-79868717D01*
X134440423Y-79931783D01*
X134440426Y-79931790D01*
X134519475Y-80068709D01*
X134519479Y-80068714D01*
X134519480Y-80068716D01*
X134631284Y-80180520D01*
X134631286Y-80180521D01*
X134631290Y-80180524D01*
X134651916Y-80192432D01*
X134768216Y-80259577D01*
X134920943Y-80300500D01*
X134920945Y-80300500D01*
X135079055Y-80300500D01*
X135079057Y-80300500D01*
X135231784Y-80259577D01*
X135368716Y-80180520D01*
X135480520Y-80068716D01*
X135559577Y-79931784D01*
X135600500Y-79779057D01*
X135600500Y-79620943D01*
X135559577Y-79468216D01*
X135532284Y-79420943D01*
X135480524Y-79331290D01*
X135480518Y-79331282D01*
X135368717Y-79219481D01*
X135368709Y-79219475D01*
X135231790Y-79140426D01*
X135231786Y-79140424D01*
X135231784Y-79140423D01*
X135079057Y-79099500D01*
X134920943Y-79099500D01*
X134768216Y-79140423D01*
X134768209Y-79140426D01*
X134631290Y-79219475D01*
X134631282Y-79219481D01*
X134519481Y-79331282D01*
X134519475Y-79331290D01*
X134440426Y-79468209D01*
X134440423Y-79468216D01*
X134399500Y-79620943D01*
X127200500Y-79620943D01*
X127200500Y-79000098D01*
X127220185Y-78933059D01*
X127236819Y-78912417D01*
X127255770Y-78893466D01*
X127280520Y-78868716D01*
X127359577Y-78731784D01*
X127396923Y-78592404D01*
X127433287Y-78532746D01*
X127496134Y-78502217D01*
X127516697Y-78500500D01*
X127579055Y-78500500D01*
X127579057Y-78500500D01*
X127731784Y-78459577D01*
X127868716Y-78380520D01*
X127980520Y-78268716D01*
X128059577Y-78131784D01*
X128100500Y-77979057D01*
X128100500Y-77820943D01*
X128073705Y-77720943D01*
X134399500Y-77720943D01*
X134399500Y-77879057D01*
X134437127Y-78019481D01*
X134440423Y-78031783D01*
X134440426Y-78031790D01*
X134519475Y-78168709D01*
X134519479Y-78168714D01*
X134519480Y-78168716D01*
X134631284Y-78280520D01*
X134631286Y-78280521D01*
X134631290Y-78280524D01*
X134719221Y-78331290D01*
X134768216Y-78359577D01*
X134920943Y-78400500D01*
X134920945Y-78400500D01*
X135079055Y-78400500D01*
X135079057Y-78400500D01*
X135231784Y-78359577D01*
X135368716Y-78280520D01*
X135480520Y-78168716D01*
X135559577Y-78031784D01*
X135600500Y-77879057D01*
X135600500Y-77720943D01*
X135559577Y-77568216D01*
X135538258Y-77531290D01*
X135480524Y-77431290D01*
X135480518Y-77431282D01*
X135368717Y-77319481D01*
X135368709Y-77319475D01*
X135231790Y-77240426D01*
X135231786Y-77240424D01*
X135231784Y-77240423D01*
X135079057Y-77199500D01*
X134920943Y-77199500D01*
X134768216Y-77240423D01*
X134768209Y-77240426D01*
X134631290Y-77319475D01*
X134631282Y-77319481D01*
X134519481Y-77431282D01*
X134519475Y-77431290D01*
X134440426Y-77568209D01*
X134440423Y-77568216D01*
X134399500Y-77720943D01*
X128073705Y-77720943D01*
X128059577Y-77668216D01*
X128038543Y-77631783D01*
X127980524Y-77531290D01*
X127980518Y-77531282D01*
X127868717Y-77419481D01*
X127868709Y-77419475D01*
X127731790Y-77340426D01*
X127731786Y-77340424D01*
X127731784Y-77340423D01*
X127579057Y-77299500D01*
X127420943Y-77299500D01*
X127268216Y-77340423D01*
X127268209Y-77340426D01*
X127131290Y-77419475D01*
X127131282Y-77419481D01*
X127019481Y-77531282D01*
X127019475Y-77531290D01*
X126940426Y-77668209D01*
X126940423Y-77668216D01*
X126903076Y-77807595D01*
X126866713Y-77867254D01*
X126803866Y-77897783D01*
X126783303Y-77899500D01*
X126720943Y-77899500D01*
X126568216Y-77940423D01*
X126568209Y-77940426D01*
X126431290Y-78019475D01*
X126431282Y-78019481D01*
X126319481Y-78131282D01*
X126319475Y-78131290D01*
X126240426Y-78268209D01*
X126240423Y-78268216D01*
X126199500Y-78420943D01*
X126199500Y-78579057D01*
X126223525Y-78668717D01*
X126240423Y-78731783D01*
X126240426Y-78731790D01*
X126319475Y-78868709D01*
X126319481Y-78868717D01*
X126363181Y-78912417D01*
X126396666Y-78973740D01*
X126399500Y-79000098D01*
X126399500Y-82775500D01*
X126379815Y-82842539D01*
X126327011Y-82888294D01*
X126275500Y-82899500D01*
X114553300Y-82899500D01*
X114486261Y-82879815D01*
X114440506Y-82827011D01*
X114433525Y-82807593D01*
X114409577Y-82718216D01*
X114409573Y-82718209D01*
X114330524Y-82581290D01*
X114330518Y-82581282D01*
X114218717Y-82469481D01*
X114218712Y-82469477D01*
X114148441Y-82428906D01*
X114100225Y-82378339D01*
X114087003Y-82309732D01*
X114090664Y-82289435D01*
X114100500Y-82252727D01*
X114100500Y-81520943D01*
X119959500Y-81520943D01*
X119959500Y-81679057D01*
X119970724Y-81720943D01*
X120000423Y-81831783D01*
X120000426Y-81831790D01*
X120079475Y-81968709D01*
X120079479Y-81968714D01*
X120079480Y-81968716D01*
X120191284Y-82080520D01*
X120191286Y-82080521D01*
X120191290Y-82080524D01*
X120322152Y-82156076D01*
X120328216Y-82159577D01*
X120480943Y-82200500D01*
X120480945Y-82200500D01*
X120639055Y-82200500D01*
X120639057Y-82200500D01*
X120791784Y-82159577D01*
X120928716Y-82080520D01*
X121040520Y-81968716D01*
X121119577Y-81831784D01*
X121160500Y-81679057D01*
X121160500Y-81520943D01*
X122699500Y-81520943D01*
X122699500Y-81679057D01*
X122710724Y-81720943D01*
X122740423Y-81831783D01*
X122740426Y-81831790D01*
X122819475Y-81968709D01*
X122819479Y-81968714D01*
X122819480Y-81968716D01*
X122931284Y-82080520D01*
X122931286Y-82080521D01*
X122931290Y-82080524D01*
X123062152Y-82156076D01*
X123068216Y-82159577D01*
X123220943Y-82200500D01*
X123220945Y-82200500D01*
X123379055Y-82200500D01*
X123379057Y-82200500D01*
X123531784Y-82159577D01*
X123668716Y-82080520D01*
X123780520Y-81968716D01*
X123859577Y-81831784D01*
X123900500Y-81679057D01*
X123900500Y-81520943D01*
X123859577Y-81368216D01*
X123831440Y-81319480D01*
X123780524Y-81231290D01*
X123780518Y-81231282D01*
X123668717Y-81119481D01*
X123668709Y-81119475D01*
X123531790Y-81040426D01*
X123531786Y-81040424D01*
X123531784Y-81040423D01*
X123379057Y-80999500D01*
X123220943Y-80999500D01*
X123068216Y-81040423D01*
X123068209Y-81040426D01*
X122931290Y-81119475D01*
X122931282Y-81119481D01*
X122819481Y-81231282D01*
X122819475Y-81231290D01*
X122740426Y-81368209D01*
X122740423Y-81368216D01*
X122699500Y-81520943D01*
X121160500Y-81520943D01*
X121119577Y-81368216D01*
X121091440Y-81319480D01*
X121040524Y-81231290D01*
X121040518Y-81231282D01*
X120928717Y-81119481D01*
X120928709Y-81119475D01*
X120791790Y-81040426D01*
X120791786Y-81040424D01*
X120791784Y-81040423D01*
X120639057Y-80999500D01*
X120480943Y-80999500D01*
X120328216Y-81040423D01*
X120328209Y-81040426D01*
X120191290Y-81119475D01*
X120191282Y-81119481D01*
X120079481Y-81231282D01*
X120079475Y-81231290D01*
X120000426Y-81368209D01*
X120000423Y-81368216D01*
X119959500Y-81520943D01*
X114100500Y-81520943D01*
X114100500Y-79000098D01*
X114120185Y-78933059D01*
X114136819Y-78912417D01*
X114155770Y-78893466D01*
X114180520Y-78868716D01*
X114259577Y-78731784D01*
X114300500Y-78579057D01*
X114300500Y-78420943D01*
X114259577Y-78268216D01*
X114247776Y-78247776D01*
X114180524Y-78131290D01*
X114180518Y-78131282D01*
X114068717Y-78019481D01*
X114068709Y-78019475D01*
X113931790Y-77940426D01*
X113931786Y-77940424D01*
X113931784Y-77940423D01*
X113779057Y-77899500D01*
X113620943Y-77899500D01*
X113468216Y-77940423D01*
X113468209Y-77940426D01*
X113331290Y-78019475D01*
X113331282Y-78019481D01*
X113219481Y-78131282D01*
X113219475Y-78131290D01*
X113140426Y-78268209D01*
X113140423Y-78268216D01*
X113103076Y-78407595D01*
X113066713Y-78467254D01*
X113003866Y-78497783D01*
X112983303Y-78499500D01*
X112224500Y-78499500D01*
X112157461Y-78479815D01*
X112111706Y-78427011D01*
X112100500Y-78375500D01*
X112100500Y-78220945D01*
X112100500Y-78220943D01*
X112059577Y-78068216D01*
X112031437Y-78019475D01*
X111980524Y-77931290D01*
X111980518Y-77931282D01*
X111868717Y-77819481D01*
X111868709Y-77819475D01*
X111731790Y-77740426D01*
X111731786Y-77740424D01*
X111731784Y-77740423D01*
X111579057Y-77699500D01*
X111420943Y-77699500D01*
X111268216Y-77740423D01*
X111268209Y-77740426D01*
X111131290Y-77819475D01*
X111131282Y-77819481D01*
X111019481Y-77931282D01*
X111019475Y-77931290D01*
X110940426Y-78068209D01*
X110940423Y-78068216D01*
X110899500Y-78220943D01*
X110899500Y-78379057D01*
X110940289Y-78531282D01*
X110940423Y-78531783D01*
X110940426Y-78531790D01*
X111019475Y-78668709D01*
X111019479Y-78668714D01*
X111019480Y-78668716D01*
X111131284Y-78780520D01*
X111131286Y-78780521D01*
X111131290Y-78780524D01*
X111269623Y-78860390D01*
X111286875Y-78878483D01*
X111306890Y-78893466D01*
X111310570Y-78903333D01*
X111317839Y-78910956D01*
X111322571Y-78935506D01*
X111331308Y-78958930D01*
X111329069Y-78969220D01*
X111331063Y-78979563D01*
X111321771Y-79002773D01*
X111316457Y-79027203D01*
X111306856Y-79040027D01*
X111305095Y-79044428D01*
X111295306Y-79055457D01*
X111237682Y-79113082D01*
X111176359Y-79146568D01*
X111106667Y-79141584D01*
X111062319Y-79113083D01*
X110968717Y-79019481D01*
X110968709Y-79019475D01*
X110831790Y-78940426D01*
X110831786Y-78940424D01*
X110831784Y-78940423D01*
X110679057Y-78899500D01*
X110520943Y-78899500D01*
X110368216Y-78940423D01*
X110368209Y-78940426D01*
X110231290Y-79019475D01*
X110231282Y-79019481D01*
X110119481Y-79131282D01*
X110119475Y-79131290D01*
X110040426Y-79268209D01*
X110040423Y-79268216D01*
X109999500Y-79420943D01*
X109999500Y-79579057D01*
X110010724Y-79620943D01*
X110040423Y-79731783D01*
X110040426Y-79731790D01*
X110119475Y-79868709D01*
X110119479Y-79868714D01*
X110119480Y-79868716D01*
X110231284Y-79980520D01*
X110231285Y-79980521D01*
X110231287Y-79980522D01*
X110252229Y-79992613D01*
X110300445Y-80043180D01*
X110313668Y-80111787D01*
X110287700Y-80176652D01*
X110252229Y-80207387D01*
X110231287Y-80219477D01*
X110231282Y-80219481D01*
X110119481Y-80331282D01*
X110119475Y-80331290D01*
X110040426Y-80468209D01*
X110040423Y-80468216D01*
X109999500Y-80620943D01*
X109999500Y-80779056D01*
X110040423Y-80931783D01*
X110040426Y-80931790D01*
X110119475Y-81068709D01*
X110119481Y-81068717D01*
X110213083Y-81162319D01*
X110246568Y-81223642D01*
X110241584Y-81293334D01*
X110213083Y-81337681D01*
X110119481Y-81431282D01*
X110119475Y-81431290D01*
X110040426Y-81568209D01*
X110040423Y-81568216D01*
X109999500Y-81720943D01*
X109999500Y-81879057D01*
X110023525Y-81968717D01*
X110040423Y-82031783D01*
X110040426Y-82031790D01*
X110119475Y-82168709D01*
X110119481Y-82168717D01*
X110149934Y-82199170D01*
X110183419Y-82260493D01*
X110178435Y-82330185D01*
X110136563Y-82386118D01*
X110094347Y-82406626D01*
X109968214Y-82440423D01*
X109968209Y-82440426D01*
X109831290Y-82519475D01*
X109831282Y-82519481D01*
X109719481Y-82631282D01*
X109719475Y-82631290D01*
X109640426Y-82768209D01*
X109640423Y-82768216D01*
X109599500Y-82920943D01*
X103589277Y-82920943D01*
X103600500Y-82879057D01*
X103600500Y-82720943D01*
X103559577Y-82568216D01*
X103559573Y-82568209D01*
X103480524Y-82431290D01*
X103480518Y-82431282D01*
X103368717Y-82319481D01*
X103368709Y-82319475D01*
X103231790Y-82240426D01*
X103231786Y-82240424D01*
X103231784Y-82240423D01*
X103079057Y-82199500D01*
X102920943Y-82199500D01*
X102768216Y-82240423D01*
X102768209Y-82240426D01*
X102631290Y-82319475D01*
X102631282Y-82319481D01*
X102519481Y-82431282D01*
X102519475Y-82431290D01*
X102440426Y-82568209D01*
X102440423Y-82568216D01*
X102399500Y-82720943D01*
X89373705Y-82720943D01*
X89359577Y-82668216D01*
X89338258Y-82631290D01*
X89280524Y-82531290D01*
X89280521Y-82531286D01*
X89280520Y-82531284D01*
X89168716Y-82419480D01*
X89168714Y-82419479D01*
X89168709Y-82419475D01*
X89031790Y-82340426D01*
X89031786Y-82340424D01*
X89031784Y-82340423D01*
X88879057Y-82299500D01*
X88720943Y-82299500D01*
X88568216Y-82340423D01*
X88568209Y-82340426D01*
X88431290Y-82419475D01*
X88431282Y-82419481D01*
X88319481Y-82531282D01*
X88319475Y-82531290D01*
X88240426Y-82668209D01*
X88240423Y-82668216D01*
X88199500Y-82820943D01*
X87200000Y-82820943D01*
X87200000Y-78620943D01*
X91299500Y-78620943D01*
X91299500Y-78779057D01*
X91323525Y-78868717D01*
X91340423Y-78931783D01*
X91340426Y-78931790D01*
X91419475Y-79068709D01*
X91419479Y-79068714D01*
X91419480Y-79068716D01*
X91531284Y-79180520D01*
X91531286Y-79180521D01*
X91531290Y-79180524D01*
X91598765Y-79219480D01*
X91668216Y-79259577D01*
X91820943Y-79300500D01*
X91820945Y-79300500D01*
X91979055Y-79300500D01*
X91979057Y-79300500D01*
X92131784Y-79259577D01*
X92268716Y-79180520D01*
X92380520Y-79068716D01*
X92459577Y-78931784D01*
X92500500Y-78779057D01*
X92500500Y-78620943D01*
X92459577Y-78468216D01*
X92434338Y-78424500D01*
X92380524Y-78331290D01*
X92380518Y-78331282D01*
X92268717Y-78219481D01*
X92268709Y-78219475D01*
X92131790Y-78140426D01*
X92131786Y-78140424D01*
X92131784Y-78140423D01*
X91979057Y-78099500D01*
X91820943Y-78099500D01*
X91668216Y-78140423D01*
X91668209Y-78140426D01*
X91531290Y-78219475D01*
X91531282Y-78219481D01*
X91419481Y-78331282D01*
X91419475Y-78331290D01*
X91340426Y-78468209D01*
X91340423Y-78468216D01*
X91299500Y-78620943D01*
X87200000Y-78620943D01*
X87200000Y-77320943D01*
X92799500Y-77320943D01*
X92799500Y-77479057D01*
X92805246Y-77500499D01*
X92840423Y-77631783D01*
X92840426Y-77631790D01*
X92919475Y-77768709D01*
X92919479Y-77768714D01*
X92919480Y-77768716D01*
X93031284Y-77880520D01*
X93168216Y-77959577D01*
X93168219Y-77959577D01*
X93173627Y-77962700D01*
X93221843Y-78013267D01*
X93235067Y-78081874D01*
X93219016Y-78132087D01*
X93140423Y-78268215D01*
X93140423Y-78268216D01*
X93099500Y-78420943D01*
X93099500Y-78579057D01*
X93123525Y-78668717D01*
X93140423Y-78731783D01*
X93140426Y-78731790D01*
X93219475Y-78868709D01*
X93219479Y-78868714D01*
X93219480Y-78868716D01*
X93331284Y-78980520D01*
X93331286Y-78980521D01*
X93331290Y-78980524D01*
X93398765Y-79019480D01*
X93468216Y-79059577D01*
X93620943Y-79100500D01*
X93620945Y-79100500D01*
X93779055Y-79100500D01*
X93779057Y-79100500D01*
X93931784Y-79059577D01*
X94068716Y-78980520D01*
X94180520Y-78868716D01*
X94208102Y-78820943D01*
X97799500Y-78820943D01*
X97799500Y-78979057D01*
X97840289Y-79131282D01*
X97840423Y-79131783D01*
X97840426Y-79131790D01*
X97919475Y-79268709D01*
X97919479Y-79268714D01*
X97919480Y-79268716D01*
X98031284Y-79380520D01*
X98031286Y-79380521D01*
X98031290Y-79380524D01*
X98101299Y-79420943D01*
X98168216Y-79459577D01*
X98320943Y-79500500D01*
X98320945Y-79500500D01*
X98479055Y-79500500D01*
X98479057Y-79500500D01*
X98631784Y-79459577D01*
X98768716Y-79380520D01*
X98880520Y-79268716D01*
X98959577Y-79131784D01*
X99000500Y-78979057D01*
X99000500Y-78820943D01*
X98959577Y-78668216D01*
X98959573Y-78668209D01*
X98880524Y-78531290D01*
X98880518Y-78531282D01*
X98768717Y-78419481D01*
X98768709Y-78419475D01*
X98631790Y-78340426D01*
X98631786Y-78340424D01*
X98631784Y-78340423D01*
X98479057Y-78299500D01*
X98320943Y-78299500D01*
X98168216Y-78340423D01*
X98168209Y-78340426D01*
X98031290Y-78419475D01*
X98031282Y-78419481D01*
X97919481Y-78531282D01*
X97919475Y-78531290D01*
X97840426Y-78668209D01*
X97840423Y-78668216D01*
X97799500Y-78820943D01*
X94208102Y-78820943D01*
X94259577Y-78731784D01*
X94300500Y-78579057D01*
X94300500Y-78424500D01*
X94320185Y-78357461D01*
X94372989Y-78311706D01*
X94424500Y-78300500D01*
X94579055Y-78300500D01*
X94579057Y-78300500D01*
X94731784Y-78259577D01*
X94868716Y-78180520D01*
X94980520Y-78068716D01*
X95059577Y-77931784D01*
X95100500Y-77779057D01*
X95100500Y-77720943D01*
X102299500Y-77720943D01*
X102299500Y-77879057D01*
X102337127Y-78019481D01*
X102340423Y-78031783D01*
X102340426Y-78031790D01*
X102419475Y-78168709D01*
X102419479Y-78168714D01*
X102419480Y-78168716D01*
X102531284Y-78280520D01*
X102531286Y-78280521D01*
X102531290Y-78280524D01*
X102619221Y-78331290D01*
X102668216Y-78359577D01*
X102820943Y-78400500D01*
X102820945Y-78400500D01*
X102979055Y-78400500D01*
X102979057Y-78400500D01*
X103131784Y-78359577D01*
X103268716Y-78280520D01*
X103380520Y-78168716D01*
X103459577Y-78031784D01*
X103500500Y-77879057D01*
X103500500Y-77720943D01*
X103459577Y-77568216D01*
X103438258Y-77531290D01*
X103380524Y-77431290D01*
X103380518Y-77431282D01*
X103268717Y-77319481D01*
X103268709Y-77319475D01*
X103201969Y-77280943D01*
X119949500Y-77280943D01*
X119949500Y-77439057D01*
X119965964Y-77500499D01*
X119990423Y-77591783D01*
X119990426Y-77591790D01*
X120069475Y-77728709D01*
X120069479Y-77728714D01*
X120069480Y-77728716D01*
X120181284Y-77840520D01*
X120181286Y-77840521D01*
X120181290Y-77840524D01*
X120280467Y-77897783D01*
X120318216Y-77919577D01*
X120470943Y-77960500D01*
X120470945Y-77960500D01*
X120629055Y-77960500D01*
X120629057Y-77960500D01*
X120781784Y-77919577D01*
X120918716Y-77840520D01*
X121030520Y-77728716D01*
X121109577Y-77591784D01*
X121150500Y-77439057D01*
X121150500Y-77280943D01*
X121109577Y-77128216D01*
X121082039Y-77080518D01*
X121030524Y-76991290D01*
X121030518Y-76991282D01*
X120918717Y-76879481D01*
X120918709Y-76879475D01*
X120817327Y-76820943D01*
X124199500Y-76820943D01*
X124199500Y-76979057D01*
X124226687Y-77080518D01*
X124240423Y-77131783D01*
X124240426Y-77131790D01*
X124319475Y-77268709D01*
X124319479Y-77268714D01*
X124319480Y-77268716D01*
X124431284Y-77380520D01*
X124431286Y-77380521D01*
X124431290Y-77380524D01*
X124532672Y-77439056D01*
X124568216Y-77459577D01*
X124720943Y-77500500D01*
X124720945Y-77500500D01*
X124879055Y-77500500D01*
X124879057Y-77500500D01*
X125031784Y-77459577D01*
X125168716Y-77380520D01*
X125280520Y-77268716D01*
X125359577Y-77131784D01*
X125400500Y-76979057D01*
X125400500Y-76820943D01*
X130099500Y-76820943D01*
X130099500Y-76979057D01*
X130126687Y-77080518D01*
X130140423Y-77131783D01*
X130140426Y-77131790D01*
X130219475Y-77268709D01*
X130219479Y-77268714D01*
X130219480Y-77268716D01*
X130331284Y-77380520D01*
X130331286Y-77380521D01*
X130331290Y-77380524D01*
X130432672Y-77439056D01*
X130468216Y-77459577D01*
X130620943Y-77500500D01*
X130620945Y-77500500D01*
X130779055Y-77500500D01*
X130779057Y-77500500D01*
X130931784Y-77459577D01*
X131068716Y-77380520D01*
X131180520Y-77268716D01*
X131259577Y-77131784D01*
X131300500Y-76979057D01*
X131300500Y-76820943D01*
X131259577Y-76668216D01*
X131259573Y-76668209D01*
X131180524Y-76531290D01*
X131180518Y-76531282D01*
X131068717Y-76419481D01*
X131068709Y-76419475D01*
X130931790Y-76340426D01*
X130931786Y-76340424D01*
X130931784Y-76340423D01*
X130779057Y-76299500D01*
X130620943Y-76299500D01*
X130468216Y-76340423D01*
X130468209Y-76340426D01*
X130331290Y-76419475D01*
X130331282Y-76419481D01*
X130219481Y-76531282D01*
X130219475Y-76531290D01*
X130140426Y-76668209D01*
X130140423Y-76668216D01*
X130099500Y-76820943D01*
X125400500Y-76820943D01*
X125359577Y-76668216D01*
X125359573Y-76668209D01*
X125280524Y-76531290D01*
X125280518Y-76531282D01*
X125168717Y-76419481D01*
X125168709Y-76419475D01*
X125031790Y-76340426D01*
X125031786Y-76340424D01*
X125031784Y-76340423D01*
X124879057Y-76299500D01*
X124720943Y-76299500D01*
X124568216Y-76340423D01*
X124568209Y-76340426D01*
X124431290Y-76419475D01*
X124431282Y-76419481D01*
X124319481Y-76531282D01*
X124319475Y-76531290D01*
X124240426Y-76668209D01*
X124240423Y-76668216D01*
X124199500Y-76820943D01*
X120817327Y-76820943D01*
X120781790Y-76800426D01*
X120781786Y-76800424D01*
X120781784Y-76800423D01*
X120629057Y-76759500D01*
X120470943Y-76759500D01*
X120318216Y-76800423D01*
X120318209Y-76800426D01*
X120181290Y-76879475D01*
X120181282Y-76879481D01*
X120069481Y-76991282D01*
X120069475Y-76991290D01*
X119990426Y-77128209D01*
X119990423Y-77128216D01*
X119949500Y-77280943D01*
X103201969Y-77280943D01*
X103131790Y-77240426D01*
X103131786Y-77240424D01*
X103131784Y-77240423D01*
X102979057Y-77199500D01*
X102820943Y-77199500D01*
X102668216Y-77240423D01*
X102668209Y-77240426D01*
X102531290Y-77319475D01*
X102531282Y-77319481D01*
X102419481Y-77431282D01*
X102419475Y-77431290D01*
X102340426Y-77568209D01*
X102340423Y-77568216D01*
X102299500Y-77720943D01*
X95100500Y-77720943D01*
X95100500Y-77620943D01*
X95059577Y-77468216D01*
X95038258Y-77431290D01*
X94980524Y-77331290D01*
X94980518Y-77331282D01*
X94868717Y-77219481D01*
X94868709Y-77219475D01*
X94731790Y-77140426D01*
X94731786Y-77140424D01*
X94731784Y-77140423D01*
X94579057Y-77099500D01*
X94420943Y-77099500D01*
X94268216Y-77140423D01*
X94268215Y-77140423D01*
X94132087Y-77219016D01*
X94064187Y-77235488D01*
X93998160Y-77212635D01*
X93962700Y-77173627D01*
X93959577Y-77168219D01*
X93959577Y-77168216D01*
X93880520Y-77031284D01*
X93768716Y-76919480D01*
X93768714Y-76919479D01*
X93768709Y-76919475D01*
X93631790Y-76840426D01*
X93631786Y-76840424D01*
X93631784Y-76840423D01*
X93479057Y-76799500D01*
X93320943Y-76799500D01*
X93168216Y-76840423D01*
X93168209Y-76840426D01*
X93031290Y-76919475D01*
X93031282Y-76919481D01*
X92919481Y-77031282D01*
X92919475Y-77031290D01*
X92840426Y-77168209D01*
X92840423Y-77168216D01*
X92799500Y-77320943D01*
X87200000Y-77320943D01*
X87200000Y-76520943D01*
X91299500Y-76520943D01*
X91299500Y-76679057D01*
X91332041Y-76800500D01*
X91340423Y-76831783D01*
X91340426Y-76831790D01*
X91419475Y-76968709D01*
X91419479Y-76968714D01*
X91419480Y-76968716D01*
X91531284Y-77080520D01*
X91531286Y-77080521D01*
X91531290Y-77080524D01*
X91620087Y-77131790D01*
X91668216Y-77159577D01*
X91820943Y-77200500D01*
X91820945Y-77200500D01*
X91979055Y-77200500D01*
X91979057Y-77200500D01*
X92131784Y-77159577D01*
X92268716Y-77080520D01*
X92380520Y-76968716D01*
X92459577Y-76831784D01*
X92500500Y-76679057D01*
X92500500Y-76520943D01*
X92459577Y-76368216D01*
X92396855Y-76259577D01*
X92380524Y-76231290D01*
X92380518Y-76231282D01*
X92268717Y-76119481D01*
X92268709Y-76119475D01*
X92131790Y-76040426D01*
X92131786Y-76040424D01*
X92131784Y-76040423D01*
X91979057Y-75999500D01*
X91820943Y-75999500D01*
X91668216Y-76040423D01*
X91668209Y-76040426D01*
X91531290Y-76119475D01*
X91531282Y-76119481D01*
X91419481Y-76231282D01*
X91419475Y-76231290D01*
X91340426Y-76368209D01*
X91340423Y-76368216D01*
X91299500Y-76520943D01*
X87200000Y-76520943D01*
X87200000Y-75620943D01*
X134399500Y-75620943D01*
X134399500Y-75779056D01*
X134440423Y-75931783D01*
X134440426Y-75931790D01*
X134519475Y-76068709D01*
X134519479Y-76068714D01*
X134519480Y-76068716D01*
X134631284Y-76180520D01*
X134631286Y-76180521D01*
X134631290Y-76180524D01*
X134719221Y-76231290D01*
X134768216Y-76259577D01*
X134920943Y-76300500D01*
X134920945Y-76300500D01*
X135079055Y-76300500D01*
X135079057Y-76300500D01*
X135231784Y-76259577D01*
X135368716Y-76180520D01*
X135480520Y-76068716D01*
X135559577Y-75931784D01*
X135600500Y-75779057D01*
X135600500Y-75620943D01*
X135559577Y-75468216D01*
X135559573Y-75468209D01*
X135480524Y-75331290D01*
X135480518Y-75331282D01*
X135368717Y-75219481D01*
X135368709Y-75219475D01*
X135231790Y-75140426D01*
X135231786Y-75140424D01*
X135231784Y-75140423D01*
X135079057Y-75099500D01*
X134920943Y-75099500D01*
X134768216Y-75140423D01*
X134768209Y-75140426D01*
X134631290Y-75219475D01*
X134631282Y-75219481D01*
X134519481Y-75331282D01*
X134519475Y-75331290D01*
X134440426Y-75468209D01*
X134440423Y-75468216D01*
X134399500Y-75620943D01*
X87200000Y-75620943D01*
X87200000Y-74624000D01*
X87200898Y-74620943D01*
X100099500Y-74620943D01*
X100099500Y-74779056D01*
X100140423Y-74931783D01*
X100140426Y-74931790D01*
X100219475Y-75068709D01*
X100219479Y-75068714D01*
X100219480Y-75068716D01*
X100331284Y-75180520D01*
X100331286Y-75180521D01*
X100331290Y-75180524D01*
X100398765Y-75219480D01*
X100468216Y-75259577D01*
X100620943Y-75300500D01*
X100620945Y-75300500D01*
X100779055Y-75300500D01*
X100779057Y-75300500D01*
X100931784Y-75259577D01*
X101068716Y-75180520D01*
X101180520Y-75068716D01*
X101259577Y-74931784D01*
X101300500Y-74779057D01*
X101300500Y-74620943D01*
X101259577Y-74468216D01*
X101238543Y-74431784D01*
X101180524Y-74331290D01*
X101180518Y-74331282D01*
X101068717Y-74219481D01*
X101068709Y-74219475D01*
X100931790Y-74140426D01*
X100931786Y-74140424D01*
X100931784Y-74140423D01*
X100779057Y-74099500D01*
X100620943Y-74099500D01*
X100468216Y-74140423D01*
X100468209Y-74140426D01*
X100331290Y-74219475D01*
X100331282Y-74219481D01*
X100219481Y-74331282D01*
X100219475Y-74331290D01*
X100140426Y-74468209D01*
X100140423Y-74468216D01*
X100099500Y-74620943D01*
X87200898Y-74620943D01*
X87219685Y-74556961D01*
X87272489Y-74511206D01*
X87324000Y-74500000D01*
X97300000Y-74500000D01*
X97300000Y-71620943D01*
X103899500Y-71620943D01*
X103899500Y-71779057D01*
X103937127Y-71919481D01*
X103940423Y-71931783D01*
X103940426Y-71931790D01*
X104019475Y-72068709D01*
X104019479Y-72068714D01*
X104019480Y-72068716D01*
X104131284Y-72180520D01*
X104131286Y-72180521D01*
X104131290Y-72180524D01*
X104268209Y-72259573D01*
X104268216Y-72259577D01*
X104420943Y-72300500D01*
X104420945Y-72300500D01*
X104579055Y-72300500D01*
X104579057Y-72300500D01*
X104731784Y-72259577D01*
X104868716Y-72180520D01*
X104980520Y-72068716D01*
X105059577Y-71931784D01*
X105100500Y-71779057D01*
X105100500Y-71620943D01*
X105059577Y-71468216D01*
X105001843Y-71368216D01*
X104980524Y-71331290D01*
X104980518Y-71331282D01*
X104868717Y-71219481D01*
X104868709Y-71219475D01*
X104731790Y-71140426D01*
X104731786Y-71140424D01*
X104731784Y-71140423D01*
X104579057Y-71099500D01*
X104420943Y-71099500D01*
X104268216Y-71140423D01*
X104268209Y-71140426D01*
X104131290Y-71219475D01*
X104131282Y-71219481D01*
X104019481Y-71331282D01*
X104019475Y-71331290D01*
X103940426Y-71468209D01*
X103940423Y-71468216D01*
X103899500Y-71620943D01*
X97300000Y-71620943D01*
X97300000Y-68220943D01*
X103999500Y-68220943D01*
X103999500Y-68379057D01*
X104032041Y-68500500D01*
X104040423Y-68531783D01*
X104040426Y-68531790D01*
X104119475Y-68668709D01*
X104119479Y-68668714D01*
X104119480Y-68668716D01*
X104231284Y-68780520D01*
X104231286Y-68780521D01*
X104231290Y-68780524D01*
X104298765Y-68819480D01*
X104368216Y-68859577D01*
X104520943Y-68900500D01*
X104520945Y-68900500D01*
X104679055Y-68900500D01*
X104679057Y-68900500D01*
X104831784Y-68859577D01*
X104968716Y-68780520D01*
X105080520Y-68668716D01*
X105159577Y-68531784D01*
X105200500Y-68379057D01*
X105200500Y-68220943D01*
X105159577Y-68068216D01*
X105102132Y-67968717D01*
X105080524Y-67931290D01*
X105080518Y-67931282D01*
X104968717Y-67819481D01*
X104968709Y-67819475D01*
X104831790Y-67740426D01*
X104831786Y-67740424D01*
X104831784Y-67740423D01*
X104679057Y-67699500D01*
X104520943Y-67699500D01*
X104368216Y-67740423D01*
X104368209Y-67740426D01*
X104231290Y-67819475D01*
X104231282Y-67819481D01*
X104119481Y-67931282D01*
X104119475Y-67931290D01*
X104040426Y-68068209D01*
X104040423Y-68068216D01*
X103999500Y-68220943D01*
X97300000Y-68220943D01*
X97300000Y-67990981D01*
X97300500Y-67983351D01*
X97300500Y-67816650D01*
X97300000Y-67809020D01*
X97300000Y-66624000D01*
X97319685Y-66556961D01*
X97372489Y-66511206D01*
X97424000Y-66500000D01*
X98431800Y-66500000D01*
X98447287Y-66504149D01*
G37*
G04 #@! TD.AperFunction*
G04 #@! TA.AperFunction,Conductor*
G36*
X116943039Y-96019685D02*
G01*
X116988794Y-96072489D01*
X117000000Y-96124000D01*
X117000000Y-101500000D01*
X127819077Y-101500000D01*
X127820943Y-101500500D01*
X127979057Y-101500500D01*
X127980923Y-101500000D01*
X131209019Y-101500000D01*
X131216648Y-101500500D01*
X131220943Y-101500500D01*
X131383352Y-101500500D01*
X131390981Y-101500000D01*
X135219077Y-101500000D01*
X135220943Y-101500500D01*
X135379057Y-101500500D01*
X135380923Y-101500000D01*
X135876000Y-101500000D01*
X135943039Y-101519685D01*
X135988794Y-101572489D01*
X136000000Y-101624000D01*
X136000000Y-104376000D01*
X135980315Y-104443039D01*
X135927511Y-104488794D01*
X135876000Y-104500000D01*
X117480923Y-104500000D01*
X117479057Y-104499500D01*
X117320943Y-104499500D01*
X117319077Y-104500000D01*
X114359636Y-104500000D01*
X114292597Y-104480315D01*
X114246842Y-104427511D01*
X114236898Y-104358353D01*
X114265923Y-104294797D01*
X114280971Y-104280147D01*
X114282306Y-104279050D01*
X114358956Y-104216146D01*
X114626473Y-103948629D01*
X114866481Y-103656180D01*
X115076667Y-103341613D01*
X115255009Y-103007959D01*
X115399788Y-102658432D01*
X115509610Y-102296397D01*
X115509612Y-102296387D01*
X115509615Y-102296376D01*
X115583418Y-101925339D01*
X115602530Y-101731290D01*
X115620500Y-101548836D01*
X115620500Y-101170510D01*
X115583418Y-100794006D01*
X115558397Y-100668216D01*
X115509615Y-100422969D01*
X115509612Y-100422958D01*
X115509611Y-100422955D01*
X115509610Y-100422949D01*
X115399788Y-100060914D01*
X115255009Y-99711387D01*
X115157551Y-99529057D01*
X115076673Y-99377744D01*
X115076671Y-99377742D01*
X115076667Y-99377733D01*
X115070308Y-99368216D01*
X114866493Y-99063183D01*
X114866486Y-99063173D01*
X114866481Y-99063166D01*
X114626473Y-98770717D01*
X114626472Y-98770716D01*
X114626468Y-98770711D01*
X114358961Y-98503204D01*
X114066512Y-98263196D01*
X114066489Y-98263179D01*
X113751956Y-98053016D01*
X113751928Y-98052999D01*
X113418293Y-97874667D01*
X113418288Y-97874665D01*
X113068760Y-97729885D01*
X112706714Y-97620060D01*
X112706703Y-97620057D01*
X112335666Y-97546254D01*
X112052099Y-97518326D01*
X111959163Y-97509173D01*
X111580837Y-97509173D01*
X111494966Y-97517630D01*
X111204333Y-97546254D01*
X110833296Y-97620057D01*
X110833285Y-97620060D01*
X110471239Y-97729885D01*
X110121711Y-97874665D01*
X110121706Y-97874667D01*
X109788071Y-98052999D01*
X109788043Y-98053016D01*
X109473510Y-98263179D01*
X109473487Y-98263196D01*
X109181038Y-98503204D01*
X108913531Y-98770711D01*
X108673523Y-99063160D01*
X108673506Y-99063183D01*
X108463343Y-99377716D01*
X108463326Y-99377744D01*
X108284994Y-99711379D01*
X108284992Y-99711384D01*
X108140212Y-100060912D01*
X108030387Y-100422958D01*
X108030384Y-100422969D01*
X107956581Y-100794006D01*
X107941267Y-100949500D01*
X107919500Y-101170510D01*
X107919500Y-101548836D01*
X107921830Y-101572489D01*
X107956581Y-101925339D01*
X108030384Y-102296376D01*
X108030387Y-102296387D01*
X108140212Y-102658433D01*
X108284992Y-103007961D01*
X108284994Y-103007966D01*
X108463326Y-103341601D01*
X108463343Y-103341629D01*
X108673506Y-103656162D01*
X108673523Y-103656185D01*
X108913531Y-103948634D01*
X109181038Y-104216141D01*
X109259029Y-104280147D01*
X109298363Y-104337893D01*
X109300234Y-104407737D01*
X109264046Y-104467506D01*
X109201290Y-104498221D01*
X109180364Y-104500000D01*
X91000000Y-104500000D01*
X89076153Y-108636266D01*
X89076154Y-108636267D01*
X89000000Y-108800000D01*
X89000000Y-108904231D01*
X88561816Y-109342414D01*
X88566962Y-109323211D01*
X88566962Y-109244219D01*
X88546518Y-109167919D01*
X88507022Y-109099510D01*
X88451167Y-109043655D01*
X88382758Y-109004159D01*
X88306458Y-108983715D01*
X88227466Y-108983715D01*
X88151166Y-109004159D01*
X88082757Y-109043655D01*
X88026902Y-109099510D01*
X87987406Y-109167919D01*
X87966962Y-109244219D01*
X87966962Y-109323211D01*
X87972107Y-109342414D01*
X87459901Y-108830208D01*
X87454470Y-108829178D01*
X87403761Y-108781111D01*
X87389528Y-108742407D01*
X87344224Y-108493236D01*
X87830038Y-108493236D01*
X87830038Y-108493237D01*
X88266962Y-108930161D01*
X88266963Y-108930161D01*
X88703885Y-108493237D01*
X88693273Y-108486145D01*
X88529482Y-108418301D01*
X88529474Y-108418299D01*
X88355608Y-108383715D01*
X88178315Y-108383715D01*
X88004449Y-108418299D01*
X88004441Y-108418301D01*
X87840653Y-108486144D01*
X87830038Y-108493236D01*
X87344224Y-108493236D01*
X87342935Y-108486145D01*
X87202000Y-107711000D01*
X87200000Y-107688818D01*
X87200000Y-103420943D01*
X94599500Y-103420943D01*
X94599500Y-103579057D01*
X94620167Y-103656185D01*
X94640423Y-103731783D01*
X94640426Y-103731790D01*
X94719475Y-103868709D01*
X94719479Y-103868714D01*
X94719480Y-103868716D01*
X94831284Y-103980520D01*
X94831286Y-103980521D01*
X94831290Y-103980524D01*
X94968209Y-104059573D01*
X94968216Y-104059577D01*
X95120943Y-104100500D01*
X95120945Y-104100500D01*
X95279055Y-104100500D01*
X95279057Y-104100500D01*
X95431784Y-104059577D01*
X95568716Y-103980520D01*
X95680520Y-103868716D01*
X95759577Y-103731784D01*
X95800500Y-103579057D01*
X95800500Y-103420943D01*
X95759577Y-103268216D01*
X95759573Y-103268209D01*
X95680524Y-103131290D01*
X95680518Y-103131282D01*
X95568717Y-103019481D01*
X95568709Y-103019475D01*
X95431790Y-102940426D01*
X95431786Y-102940424D01*
X95431784Y-102940423D01*
X95279057Y-102899500D01*
X95120943Y-102899500D01*
X94968216Y-102940423D01*
X94968209Y-102940426D01*
X94831290Y-103019475D01*
X94831282Y-103019481D01*
X94719481Y-103131282D01*
X94719475Y-103131290D01*
X94640426Y-103268209D01*
X94640423Y-103268216D01*
X94599500Y-103420943D01*
X87200000Y-103420943D01*
X87200000Y-101624000D01*
X87219685Y-101556961D01*
X87272489Y-101511206D01*
X87324000Y-101500000D01*
X88951402Y-101500000D01*
X89018441Y-101519685D01*
X89064196Y-101572489D01*
X89074140Y-101641647D01*
X89045115Y-101705203D01*
X89039083Y-101711681D01*
X89019481Y-101731282D01*
X89019475Y-101731290D01*
X88940426Y-101868209D01*
X88940423Y-101868216D01*
X88899500Y-102020943D01*
X88899500Y-102179057D01*
X88930939Y-102296387D01*
X88940423Y-102331783D01*
X88940426Y-102331790D01*
X89019475Y-102468709D01*
X89019479Y-102468714D01*
X89019480Y-102468716D01*
X89131284Y-102580520D01*
X89131286Y-102580521D01*
X89131290Y-102580524D01*
X89268209Y-102659573D01*
X89268216Y-102659577D01*
X89420943Y-102700500D01*
X89420945Y-102700500D01*
X89579055Y-102700500D01*
X89579057Y-102700500D01*
X89731784Y-102659577D01*
X89868716Y-102580520D01*
X89980520Y-102468716D01*
X90059577Y-102331784D01*
X90100500Y-102179057D01*
X90100500Y-102020943D01*
X90059577Y-101868216D01*
X90059573Y-101868209D01*
X89980524Y-101731290D01*
X89980518Y-101731282D01*
X89960917Y-101711681D01*
X89927432Y-101650358D01*
X89932416Y-101580666D01*
X89974288Y-101524733D01*
X90039752Y-101500316D01*
X90048598Y-101500000D01*
X91475500Y-101500000D01*
X91542539Y-101519685D01*
X91588294Y-101572489D01*
X91599500Y-101624000D01*
X91599500Y-101629057D01*
X91602874Y-101641647D01*
X91640423Y-101781783D01*
X91640426Y-101781790D01*
X91719475Y-101918709D01*
X91719479Y-101918714D01*
X91719480Y-101918716D01*
X91831284Y-102030520D01*
X91831286Y-102030521D01*
X91831290Y-102030524D01*
X91968209Y-102109573D01*
X91968216Y-102109577D01*
X92120943Y-102150500D01*
X92120945Y-102150500D01*
X92279055Y-102150500D01*
X92279057Y-102150500D01*
X92431784Y-102109577D01*
X92568716Y-102030520D01*
X92680520Y-101918716D01*
X92759577Y-101781784D01*
X92800500Y-101629057D01*
X92800500Y-101624000D01*
X92820185Y-101556961D01*
X92872989Y-101511206D01*
X92924500Y-101500000D01*
X102619077Y-101500000D01*
X102620943Y-101500500D01*
X102779057Y-101500500D01*
X102780923Y-101500000D01*
X106600000Y-101500000D01*
X106600000Y-96124000D01*
X106619685Y-96056961D01*
X106672489Y-96011206D01*
X106724000Y-96000000D01*
X116876000Y-96000000D01*
X116943039Y-96019685D01*
G37*
G04 #@! TD.AperFunction*
G04 #@! TA.AperFunction,Conductor*
G36*
X99242539Y-59119685D02*
G01*
X99288294Y-59172489D01*
X99299500Y-59224000D01*
X99299500Y-59379056D01*
X99340423Y-59531783D01*
X99340426Y-59531790D01*
X99419475Y-59668709D01*
X99419479Y-59668714D01*
X99419480Y-59668716D01*
X99531284Y-59780520D01*
X99531286Y-59780521D01*
X99531290Y-59780524D01*
X99668209Y-59859573D01*
X99668216Y-59859577D01*
X99820943Y-59900500D01*
X99820945Y-59900500D01*
X99979055Y-59900500D01*
X99979057Y-59900500D01*
X100131784Y-59859577D01*
X100268716Y-59780520D01*
X100380520Y-59668716D01*
X100459577Y-59531784D01*
X100500500Y-59379057D01*
X100500500Y-59224000D01*
X100520185Y-59156961D01*
X100572989Y-59111206D01*
X100624500Y-59100000D01*
X109449691Y-59100000D01*
X109497143Y-59109439D01*
X109606503Y-59154737D01*
X109606506Y-59154737D01*
X109606511Y-59154739D01*
X109761153Y-59185499D01*
X109761156Y-59185500D01*
X109761158Y-59185500D01*
X109918844Y-59185500D01*
X109918845Y-59185499D01*
X109995152Y-59170320D01*
X110073488Y-59154739D01*
X110073490Y-59154738D01*
X110073497Y-59154737D01*
X110182857Y-59109439D01*
X110230309Y-59100000D01*
X118089691Y-59100000D01*
X118137143Y-59109439D01*
X118246503Y-59154737D01*
X118246506Y-59154737D01*
X118246511Y-59154739D01*
X118401153Y-59185499D01*
X118401156Y-59185500D01*
X118401158Y-59185500D01*
X118558844Y-59185500D01*
X118558845Y-59185499D01*
X118635152Y-59170320D01*
X118713488Y-59154739D01*
X118713490Y-59154738D01*
X118713497Y-59154737D01*
X118822857Y-59109439D01*
X118870309Y-59100000D01*
X122876000Y-59100000D01*
X122943039Y-59119685D01*
X122988794Y-59172489D01*
X123000000Y-59224000D01*
X123000000Y-65276000D01*
X122980315Y-65343039D01*
X122927511Y-65388794D01*
X122876000Y-65400000D01*
X119243443Y-65400000D01*
X119176404Y-65380315D01*
X119140341Y-65344890D01*
X119096792Y-65279715D01*
X119096786Y-65279707D01*
X118985292Y-65168213D01*
X118985288Y-65168210D01*
X118854185Y-65080609D01*
X118854172Y-65080602D01*
X118708501Y-65020264D01*
X118708489Y-65020261D01*
X118553845Y-64989500D01*
X118553842Y-64989500D01*
X118396158Y-64989500D01*
X118396155Y-64989500D01*
X118241510Y-65020261D01*
X118241498Y-65020264D01*
X118095827Y-65080602D01*
X118095814Y-65080609D01*
X117964711Y-65168210D01*
X117964707Y-65168213D01*
X117853213Y-65279707D01*
X117853207Y-65279715D01*
X117809659Y-65344890D01*
X117803568Y-65349980D01*
X117800270Y-65357203D01*
X117777139Y-65372067D01*
X117756047Y-65389696D01*
X117746672Y-65391647D01*
X117741492Y-65394977D01*
X117706557Y-65400000D01*
X117467123Y-65400000D01*
X117405122Y-65383387D01*
X117398366Y-65379486D01*
X117398365Y-65379485D01*
X117323842Y-65336459D01*
X117267136Y-65303719D01*
X117163685Y-65276000D01*
X117120766Y-65264500D01*
X116969234Y-65264500D01*
X116822863Y-65303719D01*
X116759292Y-65340423D01*
X116691635Y-65379485D01*
X116691633Y-65379486D01*
X116684878Y-65383387D01*
X116622877Y-65400000D01*
X111687123Y-65400000D01*
X111625122Y-65383387D01*
X111618366Y-65379486D01*
X111618365Y-65379485D01*
X111543842Y-65336459D01*
X111487136Y-65303719D01*
X111383685Y-65276000D01*
X111340766Y-65264500D01*
X111189234Y-65264500D01*
X111042863Y-65303719D01*
X110979292Y-65340423D01*
X110911635Y-65379485D01*
X110911633Y-65379486D01*
X110904878Y-65383387D01*
X110889388Y-65387537D01*
X110877812Y-65394977D01*
X110842877Y-65400000D01*
X110603443Y-65400000D01*
X110536404Y-65380315D01*
X110500341Y-65344890D01*
X110456792Y-65279715D01*
X110456786Y-65279707D01*
X110345292Y-65168213D01*
X110345288Y-65168210D01*
X110214185Y-65080609D01*
X110214172Y-65080602D01*
X110068501Y-65020264D01*
X110068489Y-65020261D01*
X109913845Y-64989500D01*
X109913842Y-64989500D01*
X109756158Y-64989500D01*
X109756155Y-64989500D01*
X109601510Y-65020261D01*
X109601498Y-65020264D01*
X109455827Y-65080602D01*
X109455814Y-65080609D01*
X109324711Y-65168210D01*
X109324707Y-65168213D01*
X109213213Y-65279707D01*
X109213207Y-65279715D01*
X109169659Y-65344890D01*
X109116047Y-65389696D01*
X109066557Y-65400000D01*
X100668200Y-65400000D01*
X100606200Y-65383387D01*
X100531784Y-65340423D01*
X100379057Y-65299500D01*
X100220943Y-65299500D01*
X100068216Y-65340423D01*
X100068213Y-65340424D01*
X100015302Y-65370972D01*
X99993799Y-65383387D01*
X99931800Y-65400000D01*
X98880923Y-65400000D01*
X98879057Y-65399500D01*
X98720943Y-65399500D01*
X98719077Y-65400000D01*
X97168200Y-65400000D01*
X97106200Y-65383387D01*
X97031784Y-65340423D01*
X96879057Y-65299500D01*
X96720943Y-65299500D01*
X96568216Y-65340423D01*
X96568213Y-65340424D01*
X96515302Y-65370972D01*
X96493799Y-65383387D01*
X96431800Y-65400000D01*
X96100000Y-65400000D01*
X96100000Y-67819076D01*
X96099500Y-67820943D01*
X96099500Y-67979057D01*
X96100000Y-67980923D01*
X96100000Y-72676000D01*
X96080315Y-72743039D01*
X96027511Y-72788794D01*
X95976000Y-72800000D01*
X88024000Y-72800000D01*
X87956961Y-72780315D01*
X87911206Y-72727511D01*
X87900000Y-72676000D01*
X87900000Y-68120943D01*
X90399500Y-68120943D01*
X90399500Y-68279057D01*
X90410332Y-68319480D01*
X90440423Y-68431783D01*
X90440426Y-68431790D01*
X90519475Y-68568709D01*
X90519479Y-68568714D01*
X90519480Y-68568716D01*
X90631284Y-68680520D01*
X90631286Y-68680521D01*
X90631290Y-68680524D01*
X90701299Y-68720943D01*
X90768216Y-68759577D01*
X90920943Y-68800500D01*
X90920945Y-68800500D01*
X91079055Y-68800500D01*
X91079057Y-68800500D01*
X91231784Y-68759577D01*
X91368716Y-68680520D01*
X91480520Y-68568716D01*
X91559577Y-68431784D01*
X91600500Y-68279057D01*
X91600500Y-68120943D01*
X91559577Y-67968216D01*
X91559573Y-67968209D01*
X91480524Y-67831290D01*
X91480518Y-67831282D01*
X91368717Y-67719481D01*
X91368709Y-67719475D01*
X91231790Y-67640426D01*
X91231786Y-67640424D01*
X91231784Y-67640423D01*
X91079057Y-67599500D01*
X90920943Y-67599500D01*
X90768216Y-67640423D01*
X90768209Y-67640426D01*
X90631290Y-67719475D01*
X90631282Y-67719481D01*
X90519481Y-67831282D01*
X90519475Y-67831290D01*
X90440426Y-67968209D01*
X90440423Y-67968216D01*
X90399500Y-68120943D01*
X87900000Y-68120943D01*
X87900000Y-65320943D01*
X89399500Y-65320943D01*
X89399500Y-65479057D01*
X89436694Y-65617865D01*
X89440423Y-65631783D01*
X89440426Y-65631790D01*
X89519475Y-65768709D01*
X89519479Y-65768714D01*
X89519480Y-65768716D01*
X89631284Y-65880520D01*
X89631286Y-65880521D01*
X89631290Y-65880524D01*
X89692332Y-65915766D01*
X89768216Y-65959577D01*
X89920943Y-66000500D01*
X89920945Y-66000500D01*
X90079055Y-66000500D01*
X90079057Y-66000500D01*
X90231784Y-65959577D01*
X90368716Y-65880520D01*
X90480520Y-65768716D01*
X90559577Y-65631784D01*
X90600500Y-65479057D01*
X90600500Y-65320943D01*
X93499500Y-65320943D01*
X93499500Y-65479057D01*
X93536694Y-65617865D01*
X93540423Y-65631783D01*
X93540426Y-65631790D01*
X93619475Y-65768709D01*
X93619479Y-65768714D01*
X93619480Y-65768716D01*
X93731284Y-65880520D01*
X93731286Y-65880521D01*
X93731290Y-65880524D01*
X93792332Y-65915766D01*
X93868216Y-65959577D01*
X94020943Y-66000500D01*
X94020945Y-66000500D01*
X94179055Y-66000500D01*
X94179057Y-66000500D01*
X94331784Y-65959577D01*
X94468716Y-65880520D01*
X94580520Y-65768716D01*
X94659577Y-65631784D01*
X94700500Y-65479057D01*
X94700500Y-65320943D01*
X94659577Y-65168216D01*
X94608996Y-65080606D01*
X94580524Y-65031290D01*
X94580518Y-65031282D01*
X94468717Y-64919481D01*
X94468709Y-64919475D01*
X94331790Y-64840426D01*
X94331786Y-64840424D01*
X94331784Y-64840423D01*
X94179057Y-64799500D01*
X94020943Y-64799500D01*
X93868216Y-64840423D01*
X93868209Y-64840426D01*
X93731290Y-64919475D01*
X93731282Y-64919481D01*
X93619481Y-65031282D01*
X93619475Y-65031290D01*
X93540426Y-65168209D01*
X93540423Y-65168216D01*
X93499500Y-65320943D01*
X90600500Y-65320943D01*
X90559577Y-65168216D01*
X90508996Y-65080606D01*
X90480524Y-65031290D01*
X90480518Y-65031282D01*
X90368717Y-64919481D01*
X90368709Y-64919475D01*
X90231790Y-64840426D01*
X90231786Y-64840424D01*
X90231784Y-64840423D01*
X90079057Y-64799500D01*
X89920943Y-64799500D01*
X89768216Y-64840423D01*
X89768209Y-64840426D01*
X89631290Y-64919475D01*
X89631282Y-64919481D01*
X89519481Y-65031282D01*
X89519475Y-65031290D01*
X89440426Y-65168209D01*
X89440423Y-65168216D01*
X89399500Y-65320943D01*
X87900000Y-65320943D01*
X87900000Y-61536153D01*
X109039500Y-61536153D01*
X109039500Y-62793846D01*
X109070261Y-62948489D01*
X109070264Y-62948501D01*
X109130602Y-63094172D01*
X109130609Y-63094185D01*
X109218210Y-63225288D01*
X109218213Y-63225292D01*
X109329707Y-63336786D01*
X109329711Y-63336789D01*
X109460814Y-63424390D01*
X109460827Y-63424397D01*
X109606498Y-63484735D01*
X109606503Y-63484737D01*
X109750168Y-63513314D01*
X109761153Y-63515499D01*
X109761156Y-63515500D01*
X109815699Y-63515500D01*
X109882738Y-63535185D01*
X109928493Y-63587989D01*
X109938437Y-63657147D01*
X109935476Y-63671582D01*
X109904974Y-63785419D01*
X109904974Y-63785421D01*
X109904974Y-63943532D01*
X109945897Y-64096259D01*
X109945900Y-64096266D01*
X110024949Y-64233185D01*
X110024953Y-64233190D01*
X110024954Y-64233192D01*
X110136758Y-64344996D01*
X110136760Y-64344997D01*
X110136764Y-64345000D01*
X110273683Y-64424049D01*
X110273690Y-64424053D01*
X110426417Y-64464976D01*
X110426419Y-64464976D01*
X110584529Y-64464976D01*
X110584531Y-64464976D01*
X110737258Y-64424053D01*
X110874190Y-64344996D01*
X110985994Y-64233192D01*
X111065051Y-64096260D01*
X111105974Y-63943533D01*
X111105974Y-63785419D01*
X111065051Y-63632692D01*
X111065047Y-63632685D01*
X110985998Y-63495766D01*
X110985992Y-63495758D01*
X110874191Y-63383957D01*
X110874183Y-63383951D01*
X110737264Y-63304902D01*
X110737259Y-63304899D01*
X110625322Y-63274906D01*
X110565662Y-63238541D01*
X110535133Y-63175694D01*
X110543428Y-63106318D01*
X110548063Y-63096668D01*
X110549390Y-63094185D01*
X110549394Y-63094179D01*
X110609737Y-62948497D01*
X110640500Y-62793842D01*
X110640500Y-62148742D01*
X110660185Y-62081703D01*
X110712989Y-62035948D01*
X110782147Y-62026004D01*
X110845703Y-62055029D01*
X110852181Y-62061061D01*
X110916635Y-62125515D01*
X111047865Y-62201281D01*
X111194234Y-62240500D01*
X111194236Y-62240500D01*
X111345764Y-62240500D01*
X111345766Y-62240500D01*
X111492135Y-62201281D01*
X111623365Y-62125515D01*
X111730515Y-62018365D01*
X111806281Y-61887135D01*
X111845500Y-61740766D01*
X111845500Y-61589234D01*
X116474500Y-61589234D01*
X116474500Y-61740765D01*
X116513719Y-61887136D01*
X116551602Y-61952750D01*
X116589485Y-62018365D01*
X116696635Y-62125515D01*
X116827865Y-62201281D01*
X116974234Y-62240500D01*
X116974236Y-62240500D01*
X117125764Y-62240500D01*
X117125766Y-62240500D01*
X117272135Y-62201281D01*
X117403365Y-62125515D01*
X117467819Y-62061061D01*
X117529142Y-62027576D01*
X117598834Y-62032560D01*
X117654767Y-62074432D01*
X117679184Y-62139896D01*
X117679500Y-62148742D01*
X117679500Y-62793846D01*
X117710261Y-62948489D01*
X117710264Y-62948501D01*
X117770602Y-63094172D01*
X117770607Y-63094181D01*
X117779169Y-63106994D01*
X117800048Y-63173671D01*
X117781565Y-63241051D01*
X117729587Y-63287743D01*
X117708164Y-63295661D01*
X117673692Y-63304898D01*
X117673683Y-63304902D01*
X117536764Y-63383951D01*
X117536756Y-63383957D01*
X117424955Y-63495758D01*
X117424949Y-63495766D01*
X117345900Y-63632685D01*
X117345897Y-63632692D01*
X117304974Y-63785419D01*
X117304974Y-63943532D01*
X117345897Y-64096259D01*
X117345900Y-64096266D01*
X117424949Y-64233185D01*
X117424953Y-64233190D01*
X117424954Y-64233192D01*
X117536758Y-64344996D01*
X117536760Y-64344997D01*
X117536764Y-64345000D01*
X117673683Y-64424049D01*
X117673690Y-64424053D01*
X117826417Y-64464976D01*
X117826419Y-64464976D01*
X117984529Y-64464976D01*
X117984531Y-64464976D01*
X118137258Y-64424053D01*
X118274190Y-64344996D01*
X118385994Y-64233192D01*
X118465051Y-64096260D01*
X118505974Y-63943533D01*
X118505974Y-63785419D01*
X118474249Y-63667019D01*
X118475912Y-63597175D01*
X118515074Y-63539313D01*
X118569833Y-63513314D01*
X118613777Y-63504572D01*
X118713497Y-63484737D01*
X118859179Y-63424394D01*
X118990289Y-63336789D01*
X119101789Y-63225289D01*
X119189394Y-63094179D01*
X119249737Y-62948497D01*
X119280500Y-62793842D01*
X119280500Y-61536158D01*
X119280500Y-61536155D01*
X119280499Y-61536153D01*
X119249738Y-61381510D01*
X119249737Y-61381503D01*
X119220104Y-61309961D01*
X119189397Y-61235827D01*
X119189390Y-61235814D01*
X119101789Y-61104711D01*
X119101786Y-61104707D01*
X118990292Y-60993213D01*
X118990288Y-60993210D01*
X118859185Y-60905609D01*
X118859172Y-60905602D01*
X118713501Y-60845264D01*
X118713489Y-60845261D01*
X118558845Y-60814500D01*
X118558842Y-60814500D01*
X118401158Y-60814500D01*
X118401155Y-60814500D01*
X118246510Y-60845261D01*
X118246498Y-60845264D01*
X118100827Y-60905602D01*
X118100814Y-60905609D01*
X117969711Y-60993210D01*
X117969707Y-60993213D01*
X117858213Y-61104707D01*
X117858210Y-61104711D01*
X117770609Y-61235814D01*
X117770604Y-61235824D01*
X117739895Y-61309962D01*
X117696053Y-61364366D01*
X117629759Y-61386430D01*
X117562060Y-61369150D01*
X117517947Y-61324508D01*
X117510515Y-61311635D01*
X117403365Y-61204485D01*
X117337750Y-61166602D01*
X117272136Y-61128719D01*
X117182520Y-61104707D01*
X117125766Y-61089500D01*
X116974234Y-61089500D01*
X116827863Y-61128719D01*
X116696635Y-61204485D01*
X116696632Y-61204487D01*
X116589487Y-61311632D01*
X116589485Y-61311635D01*
X116513719Y-61442863D01*
X116474500Y-61589234D01*
X111845500Y-61589234D01*
X111806281Y-61442865D01*
X111730515Y-61311635D01*
X111623365Y-61204485D01*
X111557750Y-61166602D01*
X111492136Y-61128719D01*
X111402520Y-61104707D01*
X111345766Y-61089500D01*
X111194234Y-61089500D01*
X111047863Y-61128719D01*
X110916635Y-61204485D01*
X110916632Y-61204487D01*
X110809487Y-61311632D01*
X110809485Y-61311635D01*
X110802052Y-61324510D01*
X110751484Y-61372725D01*
X110682877Y-61385947D01*
X110618012Y-61359979D01*
X110580104Y-61309961D01*
X110549397Y-61235827D01*
X110549390Y-61235814D01*
X110461789Y-61104711D01*
X110461786Y-61104707D01*
X110350292Y-60993213D01*
X110350288Y-60993210D01*
X110219185Y-60905609D01*
X110219172Y-60905602D01*
X110073501Y-60845264D01*
X110073489Y-60845261D01*
X109918845Y-60814500D01*
X109918842Y-60814500D01*
X109761158Y-60814500D01*
X109761155Y-60814500D01*
X109606510Y-60845261D01*
X109606498Y-60845264D01*
X109460827Y-60905602D01*
X109460814Y-60905609D01*
X109329711Y-60993210D01*
X109329707Y-60993213D01*
X109218213Y-61104707D01*
X109218210Y-61104711D01*
X109130609Y-61235814D01*
X109130602Y-61235827D01*
X109070264Y-61381498D01*
X109070261Y-61381510D01*
X109039500Y-61536153D01*
X87900000Y-61536153D01*
X87900000Y-60020943D01*
X106099500Y-60020943D01*
X106099500Y-60179056D01*
X106140423Y-60331783D01*
X106140426Y-60331790D01*
X106219475Y-60468709D01*
X106219479Y-60468714D01*
X106219480Y-60468716D01*
X106331284Y-60580520D01*
X106331286Y-60580521D01*
X106331290Y-60580524D01*
X106468209Y-60659573D01*
X106468216Y-60659577D01*
X106620943Y-60700500D01*
X106620945Y-60700500D01*
X106779055Y-60700500D01*
X106779057Y-60700500D01*
X106931784Y-60659577D01*
X107068716Y-60580520D01*
X107180520Y-60468716D01*
X107259577Y-60331784D01*
X107300500Y-60179057D01*
X107300500Y-60020943D01*
X107259577Y-59868216D01*
X107254587Y-59859573D01*
X107180524Y-59731290D01*
X107180518Y-59731282D01*
X107068717Y-59619481D01*
X107068709Y-59619475D01*
X106931790Y-59540426D01*
X106931786Y-59540424D01*
X106931784Y-59540423D01*
X106779057Y-59499500D01*
X106620943Y-59499500D01*
X106468216Y-59540423D01*
X106468209Y-59540426D01*
X106331290Y-59619475D01*
X106331282Y-59619481D01*
X106219481Y-59731282D01*
X106219475Y-59731290D01*
X106140426Y-59868209D01*
X106140423Y-59868216D01*
X106099500Y-60020943D01*
X87900000Y-60020943D01*
X87900000Y-59224000D01*
X87919685Y-59156961D01*
X87972489Y-59111206D01*
X88024000Y-59100000D01*
X99175500Y-59100000D01*
X99242539Y-59119685D01*
G37*
G04 #@! TD.AperFunction*
M02*
