G04 #@! TF.GenerationSoftware,KiCad,Pcbnew,9.0.5*
G04 #@! TF.CreationDate,2025-10-24T16:53:28+02:00*
G04 #@! TF.ProjectId,GameboyCartridgeV1.1,47616d65-626f-4794-9361-727472696467,rev?*
G04 #@! TF.SameCoordinates,Original*
G04 #@! TF.FileFunction,Legend,Top*
G04 #@! TF.FilePolarity,Positive*
%FSLAX46Y46*%
G04 Gerber Fmt 4.6, Leading zero omitted, Abs format (unit mm)*
G04 Created by KiCad (PCBNEW 9.0.5) date 2025-10-24 16:53:28*
%MOMM*%
%LPD*%
G01*
G04 APERTURE LIST*
G04 Aperture macros list*
%AMRoundRect*
0 Rectangle with rounded corners*
0 $1 Rounding radius*
0 $2 $3 $4 $5 $6 $7 $8 $9 X,Y pos of 4 corners*
0 Add a 4 corners polygon primitive as box body*
4,1,4,$2,$3,$4,$5,$6,$7,$8,$9,$2,$3,0*
0 Add four circle primitives for the rounded corners*
1,1,$1+$1,$2,$3*
1,1,$1+$1,$4,$5*
1,1,$1+$1,$6,$7*
1,1,$1+$1,$8,$9*
0 Add four rect primitives between the rounded corners*
20,1,$1+$1,$2,$3,$4,$5,0*
20,1,$1+$1,$4,$5,$6,$7,0*
20,1,$1+$1,$6,$7,$8,$9,0*
20,1,$1+$1,$8,$9,$2,$3,0*%
%AMFreePoly0*
4,1,23,0.500000,-0.750000,0.000000,-0.750000,0.000000,-0.745722,-0.065263,-0.745722,-0.191342,-0.711940,-0.304381,-0.646677,-0.396677,-0.554381,-0.461940,-0.441342,-0.495722,-0.315263,-0.495722,-0.250000,-0.500000,-0.250000,-0.500000,0.250000,-0.495722,0.250000,-0.495722,0.315263,-0.461940,0.441342,-0.396677,0.554381,-0.304381,0.646677,-0.191342,0.711940,-0.065263,0.745722,0.000000,0.745722,
0.000000,0.750000,0.500000,0.750000,0.500000,-0.750000,0.500000,-0.750000,$1*%
%AMFreePoly1*
4,1,23,0.000000,0.745722,0.065263,0.745722,0.191342,0.711940,0.304381,0.646677,0.396677,0.554381,0.461940,0.441342,0.495722,0.315263,0.495722,0.250000,0.500000,0.250000,0.500000,-0.250000,0.495722,-0.250000,0.495722,-0.315263,0.461940,-0.441342,0.396677,-0.554381,0.304381,-0.646677,0.191342,-0.711940,0.065263,-0.745722,0.000000,-0.745722,0.000000,-0.750000,-0.500000,-0.750000,
-0.500000,0.750000,0.000000,0.750000,0.000000,0.745722,0.000000,0.745722,$1*%
G04 Aperture macros list end*
%ADD10C,0.300000*%
%ADD11C,0.200000*%
%ADD12C,0.150000*%
%ADD13C,0.120000*%
%ADD14C,0.100000*%
%ADD15C,0.000000*%
%ADD16RoundRect,0.237500X-0.300000X-0.237500X0.300000X-0.237500X0.300000X0.237500X-0.300000X0.237500X0*%
%ADD17C,0.650000*%
%ADD18RoundRect,0.150000X0.150000X0.425000X-0.150000X0.425000X-0.150000X-0.425000X0.150000X-0.425000X0*%
%ADD19RoundRect,0.075000X0.075000X0.500000X-0.075000X0.500000X-0.075000X-0.500000X0.075000X-0.500000X0*%
%ADD20O,1.000000X2.100000*%
%ADD21O,1.000000X1.800000*%
%ADD22RoundRect,0.200000X-0.200000X-0.800000X0.200000X-0.800000X0.200000X0.800000X-0.200000X0.800000X0*%
%ADD23RoundRect,0.237500X-0.237500X0.300000X-0.237500X-0.300000X0.237500X-0.300000X0.237500X0.300000X0*%
%ADD24RoundRect,0.237500X0.237500X-0.250000X0.237500X0.250000X-0.237500X0.250000X-0.237500X-0.250000X0*%
%ADD25RoundRect,0.237500X-0.237500X0.250000X-0.237500X-0.250000X0.237500X-0.250000X0.237500X0.250000X0*%
%ADD26C,0.800000*%
%ADD27RoundRect,0.237500X0.300000X0.237500X-0.300000X0.237500X-0.300000X-0.237500X0.300000X-0.237500X0*%
%ADD28RoundRect,0.237500X0.250000X0.237500X-0.250000X0.237500X-0.250000X-0.237500X0.250000X-0.237500X0*%
%ADD29C,2.374900*%
%ADD30C,0.990600*%
%ADD31C,0.787400*%
%ADD32C,2.000000*%
%ADD33RoundRect,0.150000X-0.512500X-0.150000X0.512500X-0.150000X0.512500X0.150000X-0.512500X0.150000X0*%
%ADD34RoundRect,0.237500X0.237500X-0.300000X0.237500X0.300000X-0.237500X0.300000X-0.237500X-0.300000X0*%
%ADD35C,7.200000*%
%ADD36RoundRect,0.150000X-0.425000X0.150000X-0.425000X-0.150000X0.425000X-0.150000X0.425000X0.150000X0*%
%ADD37RoundRect,0.075000X-0.500000X0.075000X-0.500000X-0.075000X0.500000X-0.075000X0.500000X0.075000X0*%
%ADD38O,2.100000X1.000000*%
%ADD39O,1.800000X1.000000*%
%ADD40RoundRect,0.237500X-0.250000X-0.237500X0.250000X-0.237500X0.250000X0.237500X-0.250000X0.237500X0*%
%ADD41RoundRect,0.050000X-0.387500X-0.050000X0.387500X-0.050000X0.387500X0.050000X-0.387500X0.050000X0*%
%ADD42RoundRect,0.050000X-0.050000X-0.387500X0.050000X-0.387500X0.050000X0.387500X-0.050000X0.387500X0*%
%ADD43R,3.200000X3.200000*%
%ADD44R,1.700000X1.700000*%
%ADD45O,1.700000X1.700000*%
%ADD46R,1.400000X1.200000*%
%ADD47R,0.700000X0.700000*%
%ADD48RoundRect,0.100000X-0.100000X0.637500X-0.100000X-0.637500X0.100000X-0.637500X0.100000X0.637500X0*%
%ADD49FreePoly0,90.000000*%
%ADD50FreePoly1,90.000000*%
%ADD51RoundRect,0.150000X-0.650000X-0.150000X0.650000X-0.150000X0.650000X0.150000X-0.650000X0.150000X0*%
%ADD52RoundRect,0.112500X0.112500X-0.187500X0.112500X0.187500X-0.112500X0.187500X-0.112500X-0.187500X0*%
%ADD53RoundRect,0.250000X-0.250000X-0.475000X0.250000X-0.475000X0.250000X0.475000X-0.250000X0.475000X0*%
%ADD54R,0.800000X1.900000*%
%ADD55RoundRect,0.112500X0.187500X0.112500X-0.187500X0.112500X-0.187500X-0.112500X0.187500X-0.112500X0*%
%ADD56R,0.750000X0.250000*%
G04 APERTURE END LIST*
D10*
X123950000Y-96700000D02*
G75*
G02*
X123650000Y-96700000I-150000J0D01*
G01*
X123650000Y-96700000D02*
G75*
G02*
X123950000Y-96700000I150000J0D01*
G01*
D11*
X94400000Y-101900000D02*
G75*
G02*
X94200000Y-101900000I-100000J0D01*
G01*
X94200000Y-101900000D02*
G75*
G02*
X94400000Y-101900000I100000J0D01*
G01*
D10*
X107250000Y-77200000D02*
G75*
G02*
X106950000Y-77200000I-150000J0D01*
G01*
X106950000Y-77200000D02*
G75*
G02*
X107250000Y-77200000I150000J0D01*
G01*
X103450000Y-96700000D02*
G75*
G02*
X103150000Y-96700000I-150000J0D01*
G01*
X103150000Y-96700000D02*
G75*
G02*
X103450000Y-96700000I150000J0D01*
G01*
X132850000Y-96700000D02*
G75*
G02*
X132550000Y-96700000I-150000J0D01*
G01*
X132550000Y-96700000D02*
G75*
G02*
X132850000Y-96700000I150000J0D01*
G01*
X99550000Y-69800000D02*
G75*
G02*
X99250000Y-69800000I-150000J0D01*
G01*
X99250000Y-69800000D02*
G75*
G02*
X99550000Y-69800000I150000J0D01*
G01*
D12*
X92769642Y-85109580D02*
X92722023Y-85157200D01*
X92722023Y-85157200D02*
X92579166Y-85204819D01*
X92579166Y-85204819D02*
X92483928Y-85204819D01*
X92483928Y-85204819D02*
X92341071Y-85157200D01*
X92341071Y-85157200D02*
X92245833Y-85061961D01*
X92245833Y-85061961D02*
X92198214Y-84966723D01*
X92198214Y-84966723D02*
X92150595Y-84776247D01*
X92150595Y-84776247D02*
X92150595Y-84633390D01*
X92150595Y-84633390D02*
X92198214Y-84442914D01*
X92198214Y-84442914D02*
X92245833Y-84347676D01*
X92245833Y-84347676D02*
X92341071Y-84252438D01*
X92341071Y-84252438D02*
X92483928Y-84204819D01*
X92483928Y-84204819D02*
X92579166Y-84204819D01*
X92579166Y-84204819D02*
X92722023Y-84252438D01*
X92722023Y-84252438D02*
X92769642Y-84300057D01*
X93722023Y-85204819D02*
X93150595Y-85204819D01*
X93436309Y-85204819D02*
X93436309Y-84204819D01*
X93436309Y-84204819D02*
X93341071Y-84347676D01*
X93341071Y-84347676D02*
X93245833Y-84442914D01*
X93245833Y-84442914D02*
X93150595Y-84490533D01*
X94626785Y-84204819D02*
X94150595Y-84204819D01*
X94150595Y-84204819D02*
X94102976Y-84681009D01*
X94102976Y-84681009D02*
X94150595Y-84633390D01*
X94150595Y-84633390D02*
X94245833Y-84585771D01*
X94245833Y-84585771D02*
X94483928Y-84585771D01*
X94483928Y-84585771D02*
X94579166Y-84633390D01*
X94579166Y-84633390D02*
X94626785Y-84681009D01*
X94626785Y-84681009D02*
X94674404Y-84776247D01*
X94674404Y-84776247D02*
X94674404Y-85014342D01*
X94674404Y-85014342D02*
X94626785Y-85109580D01*
X94626785Y-85109580D02*
X94579166Y-85157200D01*
X94579166Y-85157200D02*
X94483928Y-85204819D01*
X94483928Y-85204819D02*
X94245833Y-85204819D01*
X94245833Y-85204819D02*
X94150595Y-85157200D01*
X94150595Y-85157200D02*
X94102976Y-85109580D01*
X126416667Y-70657200D02*
X126559524Y-70704819D01*
X126559524Y-70704819D02*
X126797619Y-70704819D01*
X126797619Y-70704819D02*
X126892857Y-70657200D01*
X126892857Y-70657200D02*
X126940476Y-70609580D01*
X126940476Y-70609580D02*
X126988095Y-70514342D01*
X126988095Y-70514342D02*
X126988095Y-70419104D01*
X126988095Y-70419104D02*
X126940476Y-70323866D01*
X126940476Y-70323866D02*
X126892857Y-70276247D01*
X126892857Y-70276247D02*
X126797619Y-70228628D01*
X126797619Y-70228628D02*
X126607143Y-70181009D01*
X126607143Y-70181009D02*
X126511905Y-70133390D01*
X126511905Y-70133390D02*
X126464286Y-70085771D01*
X126464286Y-70085771D02*
X126416667Y-69990533D01*
X126416667Y-69990533D02*
X126416667Y-69895295D01*
X126416667Y-69895295D02*
X126464286Y-69800057D01*
X126464286Y-69800057D02*
X126511905Y-69752438D01*
X126511905Y-69752438D02*
X126607143Y-69704819D01*
X126607143Y-69704819D02*
X126845238Y-69704819D01*
X126845238Y-69704819D02*
X126988095Y-69752438D01*
X127321429Y-69704819D02*
X127559524Y-70704819D01*
X127559524Y-70704819D02*
X127750000Y-69990533D01*
X127750000Y-69990533D02*
X127940476Y-70704819D01*
X127940476Y-70704819D02*
X128178572Y-69704819D01*
X129083333Y-70704819D02*
X128511905Y-70704819D01*
X128797619Y-70704819D02*
X128797619Y-69704819D01*
X128797619Y-69704819D02*
X128702381Y-69847676D01*
X128702381Y-69847676D02*
X128607143Y-69942914D01*
X128607143Y-69942914D02*
X128511905Y-69990533D01*
X104333333Y-81179580D02*
X104285714Y-81227200D01*
X104285714Y-81227200D02*
X104142857Y-81274819D01*
X104142857Y-81274819D02*
X104047619Y-81274819D01*
X104047619Y-81274819D02*
X103904762Y-81227200D01*
X103904762Y-81227200D02*
X103809524Y-81131961D01*
X103809524Y-81131961D02*
X103761905Y-81036723D01*
X103761905Y-81036723D02*
X103714286Y-80846247D01*
X103714286Y-80846247D02*
X103714286Y-80703390D01*
X103714286Y-80703390D02*
X103761905Y-80512914D01*
X103761905Y-80512914D02*
X103809524Y-80417676D01*
X103809524Y-80417676D02*
X103904762Y-80322438D01*
X103904762Y-80322438D02*
X104047619Y-80274819D01*
X104047619Y-80274819D02*
X104142857Y-80274819D01*
X104142857Y-80274819D02*
X104285714Y-80322438D01*
X104285714Y-80322438D02*
X104333333Y-80370057D01*
X104904762Y-80703390D02*
X104809524Y-80655771D01*
X104809524Y-80655771D02*
X104761905Y-80608152D01*
X104761905Y-80608152D02*
X104714286Y-80512914D01*
X104714286Y-80512914D02*
X104714286Y-80465295D01*
X104714286Y-80465295D02*
X104761905Y-80370057D01*
X104761905Y-80370057D02*
X104809524Y-80322438D01*
X104809524Y-80322438D02*
X104904762Y-80274819D01*
X104904762Y-80274819D02*
X105095238Y-80274819D01*
X105095238Y-80274819D02*
X105190476Y-80322438D01*
X105190476Y-80322438D02*
X105238095Y-80370057D01*
X105238095Y-80370057D02*
X105285714Y-80465295D01*
X105285714Y-80465295D02*
X105285714Y-80512914D01*
X105285714Y-80512914D02*
X105238095Y-80608152D01*
X105238095Y-80608152D02*
X105190476Y-80655771D01*
X105190476Y-80655771D02*
X105095238Y-80703390D01*
X105095238Y-80703390D02*
X104904762Y-80703390D01*
X104904762Y-80703390D02*
X104809524Y-80751009D01*
X104809524Y-80751009D02*
X104761905Y-80798628D01*
X104761905Y-80798628D02*
X104714286Y-80893866D01*
X104714286Y-80893866D02*
X104714286Y-81084342D01*
X104714286Y-81084342D02*
X104761905Y-81179580D01*
X104761905Y-81179580D02*
X104809524Y-81227200D01*
X104809524Y-81227200D02*
X104904762Y-81274819D01*
X104904762Y-81274819D02*
X105095238Y-81274819D01*
X105095238Y-81274819D02*
X105190476Y-81227200D01*
X105190476Y-81227200D02*
X105238095Y-81179580D01*
X105238095Y-81179580D02*
X105285714Y-81084342D01*
X105285714Y-81084342D02*
X105285714Y-80893866D01*
X105285714Y-80893866D02*
X105238095Y-80798628D01*
X105238095Y-80798628D02*
X105190476Y-80751009D01*
X105190476Y-80751009D02*
X105095238Y-80703390D01*
X136159580Y-99342857D02*
X136207200Y-99390476D01*
X136207200Y-99390476D02*
X136254819Y-99533333D01*
X136254819Y-99533333D02*
X136254819Y-99628571D01*
X136254819Y-99628571D02*
X136207200Y-99771428D01*
X136207200Y-99771428D02*
X136111961Y-99866666D01*
X136111961Y-99866666D02*
X136016723Y-99914285D01*
X136016723Y-99914285D02*
X135826247Y-99961904D01*
X135826247Y-99961904D02*
X135683390Y-99961904D01*
X135683390Y-99961904D02*
X135492914Y-99914285D01*
X135492914Y-99914285D02*
X135397676Y-99866666D01*
X135397676Y-99866666D02*
X135302438Y-99771428D01*
X135302438Y-99771428D02*
X135254819Y-99628571D01*
X135254819Y-99628571D02*
X135254819Y-99533333D01*
X135254819Y-99533333D02*
X135302438Y-99390476D01*
X135302438Y-99390476D02*
X135350057Y-99342857D01*
X136254819Y-98390476D02*
X136254819Y-98961904D01*
X136254819Y-98676190D02*
X135254819Y-98676190D01*
X135254819Y-98676190D02*
X135397676Y-98771428D01*
X135397676Y-98771428D02*
X135492914Y-98866666D01*
X135492914Y-98866666D02*
X135540533Y-98961904D01*
X135683390Y-97819047D02*
X135635771Y-97914285D01*
X135635771Y-97914285D02*
X135588152Y-97961904D01*
X135588152Y-97961904D02*
X135492914Y-98009523D01*
X135492914Y-98009523D02*
X135445295Y-98009523D01*
X135445295Y-98009523D02*
X135350057Y-97961904D01*
X135350057Y-97961904D02*
X135302438Y-97914285D01*
X135302438Y-97914285D02*
X135254819Y-97819047D01*
X135254819Y-97819047D02*
X135254819Y-97628571D01*
X135254819Y-97628571D02*
X135302438Y-97533333D01*
X135302438Y-97533333D02*
X135350057Y-97485714D01*
X135350057Y-97485714D02*
X135445295Y-97438095D01*
X135445295Y-97438095D02*
X135492914Y-97438095D01*
X135492914Y-97438095D02*
X135588152Y-97485714D01*
X135588152Y-97485714D02*
X135635771Y-97533333D01*
X135635771Y-97533333D02*
X135683390Y-97628571D01*
X135683390Y-97628571D02*
X135683390Y-97819047D01*
X135683390Y-97819047D02*
X135731009Y-97914285D01*
X135731009Y-97914285D02*
X135778628Y-97961904D01*
X135778628Y-97961904D02*
X135873866Y-98009523D01*
X135873866Y-98009523D02*
X136064342Y-98009523D01*
X136064342Y-98009523D02*
X136159580Y-97961904D01*
X136159580Y-97961904D02*
X136207200Y-97914285D01*
X136207200Y-97914285D02*
X136254819Y-97819047D01*
X136254819Y-97819047D02*
X136254819Y-97628571D01*
X136254819Y-97628571D02*
X136207200Y-97533333D01*
X136207200Y-97533333D02*
X136159580Y-97485714D01*
X136159580Y-97485714D02*
X136064342Y-97438095D01*
X136064342Y-97438095D02*
X135873866Y-97438095D01*
X135873866Y-97438095D02*
X135778628Y-97485714D01*
X135778628Y-97485714D02*
X135731009Y-97533333D01*
X135731009Y-97533333D02*
X135683390Y-97628571D01*
X116254819Y-70916666D02*
X115778628Y-71249999D01*
X116254819Y-71488094D02*
X115254819Y-71488094D01*
X115254819Y-71488094D02*
X115254819Y-71107142D01*
X115254819Y-71107142D02*
X115302438Y-71011904D01*
X115302438Y-71011904D02*
X115350057Y-70964285D01*
X115350057Y-70964285D02*
X115445295Y-70916666D01*
X115445295Y-70916666D02*
X115588152Y-70916666D01*
X115588152Y-70916666D02*
X115683390Y-70964285D01*
X115683390Y-70964285D02*
X115731009Y-71011904D01*
X115731009Y-71011904D02*
X115778628Y-71107142D01*
X115778628Y-71107142D02*
X115778628Y-71488094D01*
X115254819Y-70583332D02*
X115254819Y-69964285D01*
X115254819Y-69964285D02*
X115635771Y-70297618D01*
X115635771Y-70297618D02*
X115635771Y-70154761D01*
X115635771Y-70154761D02*
X115683390Y-70059523D01*
X115683390Y-70059523D02*
X115731009Y-70011904D01*
X115731009Y-70011904D02*
X115826247Y-69964285D01*
X115826247Y-69964285D02*
X116064342Y-69964285D01*
X116064342Y-69964285D02*
X116159580Y-70011904D01*
X116159580Y-70011904D02*
X116207200Y-70059523D01*
X116207200Y-70059523D02*
X116254819Y-70154761D01*
X116254819Y-70154761D02*
X116254819Y-70440475D01*
X116254819Y-70440475D02*
X116207200Y-70535713D01*
X116207200Y-70535713D02*
X116159580Y-70583332D01*
X116184819Y-90816666D02*
X115708628Y-91149999D01*
X116184819Y-91388094D02*
X115184819Y-91388094D01*
X115184819Y-91388094D02*
X115184819Y-91007142D01*
X115184819Y-91007142D02*
X115232438Y-90911904D01*
X115232438Y-90911904D02*
X115280057Y-90864285D01*
X115280057Y-90864285D02*
X115375295Y-90816666D01*
X115375295Y-90816666D02*
X115518152Y-90816666D01*
X115518152Y-90816666D02*
X115613390Y-90864285D01*
X115613390Y-90864285D02*
X115661009Y-90911904D01*
X115661009Y-90911904D02*
X115708628Y-91007142D01*
X115708628Y-91007142D02*
X115708628Y-91388094D01*
X115518152Y-89959523D02*
X116184819Y-89959523D01*
X115137200Y-90197618D02*
X115851485Y-90435713D01*
X115851485Y-90435713D02*
X115851485Y-89816666D01*
X111609580Y-70892857D02*
X111657200Y-70940476D01*
X111657200Y-70940476D02*
X111704819Y-71083333D01*
X111704819Y-71083333D02*
X111704819Y-71178571D01*
X111704819Y-71178571D02*
X111657200Y-71321428D01*
X111657200Y-71321428D02*
X111561961Y-71416666D01*
X111561961Y-71416666D02*
X111466723Y-71464285D01*
X111466723Y-71464285D02*
X111276247Y-71511904D01*
X111276247Y-71511904D02*
X111133390Y-71511904D01*
X111133390Y-71511904D02*
X110942914Y-71464285D01*
X110942914Y-71464285D02*
X110847676Y-71416666D01*
X110847676Y-71416666D02*
X110752438Y-71321428D01*
X110752438Y-71321428D02*
X110704819Y-71178571D01*
X110704819Y-71178571D02*
X110704819Y-71083333D01*
X110704819Y-71083333D02*
X110752438Y-70940476D01*
X110752438Y-70940476D02*
X110800057Y-70892857D01*
X111704819Y-69940476D02*
X111704819Y-70511904D01*
X111704819Y-70226190D02*
X110704819Y-70226190D01*
X110704819Y-70226190D02*
X110847676Y-70321428D01*
X110847676Y-70321428D02*
X110942914Y-70416666D01*
X110942914Y-70416666D02*
X110990533Y-70511904D01*
X110800057Y-69559523D02*
X110752438Y-69511904D01*
X110752438Y-69511904D02*
X110704819Y-69416666D01*
X110704819Y-69416666D02*
X110704819Y-69178571D01*
X110704819Y-69178571D02*
X110752438Y-69083333D01*
X110752438Y-69083333D02*
X110800057Y-69035714D01*
X110800057Y-69035714D02*
X110895295Y-68988095D01*
X110895295Y-68988095D02*
X110990533Y-68988095D01*
X110990533Y-68988095D02*
X111133390Y-69035714D01*
X111133390Y-69035714D02*
X111704819Y-69607142D01*
X111704819Y-69607142D02*
X111704819Y-68988095D01*
X113109580Y-70916666D02*
X113157200Y-70964285D01*
X113157200Y-70964285D02*
X113204819Y-71107142D01*
X113204819Y-71107142D02*
X113204819Y-71202380D01*
X113204819Y-71202380D02*
X113157200Y-71345237D01*
X113157200Y-71345237D02*
X113061961Y-71440475D01*
X113061961Y-71440475D02*
X112966723Y-71488094D01*
X112966723Y-71488094D02*
X112776247Y-71535713D01*
X112776247Y-71535713D02*
X112633390Y-71535713D01*
X112633390Y-71535713D02*
X112442914Y-71488094D01*
X112442914Y-71488094D02*
X112347676Y-71440475D01*
X112347676Y-71440475D02*
X112252438Y-71345237D01*
X112252438Y-71345237D02*
X112204819Y-71202380D01*
X112204819Y-71202380D02*
X112204819Y-71107142D01*
X112204819Y-71107142D02*
X112252438Y-70964285D01*
X112252438Y-70964285D02*
X112300057Y-70916666D01*
X112300057Y-70535713D02*
X112252438Y-70488094D01*
X112252438Y-70488094D02*
X112204819Y-70392856D01*
X112204819Y-70392856D02*
X112204819Y-70154761D01*
X112204819Y-70154761D02*
X112252438Y-70059523D01*
X112252438Y-70059523D02*
X112300057Y-70011904D01*
X112300057Y-70011904D02*
X112395295Y-69964285D01*
X112395295Y-69964285D02*
X112490533Y-69964285D01*
X112490533Y-69964285D02*
X112633390Y-70011904D01*
X112633390Y-70011904D02*
X113204819Y-70583332D01*
X113204819Y-70583332D02*
X113204819Y-69964285D01*
X117859580Y-87892857D02*
X117907200Y-87940476D01*
X117907200Y-87940476D02*
X117954819Y-88083333D01*
X117954819Y-88083333D02*
X117954819Y-88178571D01*
X117954819Y-88178571D02*
X117907200Y-88321428D01*
X117907200Y-88321428D02*
X117811961Y-88416666D01*
X117811961Y-88416666D02*
X117716723Y-88464285D01*
X117716723Y-88464285D02*
X117526247Y-88511904D01*
X117526247Y-88511904D02*
X117383390Y-88511904D01*
X117383390Y-88511904D02*
X117192914Y-88464285D01*
X117192914Y-88464285D02*
X117097676Y-88416666D01*
X117097676Y-88416666D02*
X117002438Y-88321428D01*
X117002438Y-88321428D02*
X116954819Y-88178571D01*
X116954819Y-88178571D02*
X116954819Y-88083333D01*
X116954819Y-88083333D02*
X117002438Y-87940476D01*
X117002438Y-87940476D02*
X117050057Y-87892857D01*
X117954819Y-86940476D02*
X117954819Y-87511904D01*
X117954819Y-87226190D02*
X116954819Y-87226190D01*
X116954819Y-87226190D02*
X117097676Y-87321428D01*
X117097676Y-87321428D02*
X117192914Y-87416666D01*
X117192914Y-87416666D02*
X117240533Y-87511904D01*
X116954819Y-86607142D02*
X116954819Y-85988095D01*
X116954819Y-85988095D02*
X117335771Y-86321428D01*
X117335771Y-86321428D02*
X117335771Y-86178571D01*
X117335771Y-86178571D02*
X117383390Y-86083333D01*
X117383390Y-86083333D02*
X117431009Y-86035714D01*
X117431009Y-86035714D02*
X117526247Y-85988095D01*
X117526247Y-85988095D02*
X117764342Y-85988095D01*
X117764342Y-85988095D02*
X117859580Y-86035714D01*
X117859580Y-86035714D02*
X117907200Y-86083333D01*
X117907200Y-86083333D02*
X117954819Y-86178571D01*
X117954819Y-86178571D02*
X117954819Y-86464285D01*
X117954819Y-86464285D02*
X117907200Y-86559523D01*
X117907200Y-86559523D02*
X117859580Y-86607142D01*
X134619342Y-107396010D02*
X135114580Y-107396010D01*
X135114580Y-107396010D02*
X134847914Y-107700772D01*
X134847914Y-107700772D02*
X134962199Y-107700772D01*
X134962199Y-107700772D02*
X135038390Y-107738867D01*
X135038390Y-107738867D02*
X135076485Y-107776962D01*
X135076485Y-107776962D02*
X135114580Y-107853153D01*
X135114580Y-107853153D02*
X135114580Y-108043629D01*
X135114580Y-108043629D02*
X135076485Y-108119819D01*
X135076485Y-108119819D02*
X135038390Y-108157915D01*
X135038390Y-108157915D02*
X134962199Y-108196010D01*
X134962199Y-108196010D02*
X134733628Y-108196010D01*
X134733628Y-108196010D02*
X134657437Y-108157915D01*
X134657437Y-108157915D02*
X134619342Y-108119819D01*
X135419342Y-107472200D02*
X135457438Y-107434105D01*
X135457438Y-107434105D02*
X135533628Y-107396010D01*
X135533628Y-107396010D02*
X135724104Y-107396010D01*
X135724104Y-107396010D02*
X135800295Y-107434105D01*
X135800295Y-107434105D02*
X135838390Y-107472200D01*
X135838390Y-107472200D02*
X135876485Y-107548391D01*
X135876485Y-107548391D02*
X135876485Y-107624581D01*
X135876485Y-107624581D02*
X135838390Y-107738867D01*
X135838390Y-107738867D02*
X135381247Y-108196010D01*
X135381247Y-108196010D02*
X135876485Y-108196010D01*
X88495533Y-108196010D02*
X88038390Y-108196010D01*
X88266962Y-108196010D02*
X88266962Y-107396010D01*
X88266962Y-107396010D02*
X88190771Y-107510295D01*
X88190771Y-107510295D02*
X88114581Y-107586486D01*
X88114581Y-107586486D02*
X88038390Y-107624581D01*
X118833333Y-83539580D02*
X118785714Y-83587200D01*
X118785714Y-83587200D02*
X118642857Y-83634819D01*
X118642857Y-83634819D02*
X118547619Y-83634819D01*
X118547619Y-83634819D02*
X118404762Y-83587200D01*
X118404762Y-83587200D02*
X118309524Y-83491961D01*
X118309524Y-83491961D02*
X118261905Y-83396723D01*
X118261905Y-83396723D02*
X118214286Y-83206247D01*
X118214286Y-83206247D02*
X118214286Y-83063390D01*
X118214286Y-83063390D02*
X118261905Y-82872914D01*
X118261905Y-82872914D02*
X118309524Y-82777676D01*
X118309524Y-82777676D02*
X118404762Y-82682438D01*
X118404762Y-82682438D02*
X118547619Y-82634819D01*
X118547619Y-82634819D02*
X118642857Y-82634819D01*
X118642857Y-82634819D02*
X118785714Y-82682438D01*
X118785714Y-82682438D02*
X118833333Y-82730057D01*
X119738095Y-82634819D02*
X119261905Y-82634819D01*
X119261905Y-82634819D02*
X119214286Y-83111009D01*
X119214286Y-83111009D02*
X119261905Y-83063390D01*
X119261905Y-83063390D02*
X119357143Y-83015771D01*
X119357143Y-83015771D02*
X119595238Y-83015771D01*
X119595238Y-83015771D02*
X119690476Y-83063390D01*
X119690476Y-83063390D02*
X119738095Y-83111009D01*
X119738095Y-83111009D02*
X119785714Y-83206247D01*
X119785714Y-83206247D02*
X119785714Y-83444342D01*
X119785714Y-83444342D02*
X119738095Y-83539580D01*
X119738095Y-83539580D02*
X119690476Y-83587200D01*
X119690476Y-83587200D02*
X119595238Y-83634819D01*
X119595238Y-83634819D02*
X119357143Y-83634819D01*
X119357143Y-83634819D02*
X119261905Y-83587200D01*
X119261905Y-83587200D02*
X119214286Y-83539580D01*
X134733333Y-84854819D02*
X134400000Y-84378628D01*
X134161905Y-84854819D02*
X134161905Y-83854819D01*
X134161905Y-83854819D02*
X134542857Y-83854819D01*
X134542857Y-83854819D02*
X134638095Y-83902438D01*
X134638095Y-83902438D02*
X134685714Y-83950057D01*
X134685714Y-83950057D02*
X134733333Y-84045295D01*
X134733333Y-84045295D02*
X134733333Y-84188152D01*
X134733333Y-84188152D02*
X134685714Y-84283390D01*
X134685714Y-84283390D02*
X134638095Y-84331009D01*
X134638095Y-84331009D02*
X134542857Y-84378628D01*
X134542857Y-84378628D02*
X134161905Y-84378628D01*
X135209524Y-84854819D02*
X135400000Y-84854819D01*
X135400000Y-84854819D02*
X135495238Y-84807200D01*
X135495238Y-84807200D02*
X135542857Y-84759580D01*
X135542857Y-84759580D02*
X135638095Y-84616723D01*
X135638095Y-84616723D02*
X135685714Y-84426247D01*
X135685714Y-84426247D02*
X135685714Y-84045295D01*
X135685714Y-84045295D02*
X135638095Y-83950057D01*
X135638095Y-83950057D02*
X135590476Y-83902438D01*
X135590476Y-83902438D02*
X135495238Y-83854819D01*
X135495238Y-83854819D02*
X135304762Y-83854819D01*
X135304762Y-83854819D02*
X135209524Y-83902438D01*
X135209524Y-83902438D02*
X135161905Y-83950057D01*
X135161905Y-83950057D02*
X135114286Y-84045295D01*
X135114286Y-84045295D02*
X135114286Y-84283390D01*
X135114286Y-84283390D02*
X135161905Y-84378628D01*
X135161905Y-84378628D02*
X135209524Y-84426247D01*
X135209524Y-84426247D02*
X135304762Y-84473866D01*
X135304762Y-84473866D02*
X135495238Y-84473866D01*
X135495238Y-84473866D02*
X135590476Y-84426247D01*
X135590476Y-84426247D02*
X135638095Y-84378628D01*
X135638095Y-84378628D02*
X135685714Y-84283390D01*
X105983333Y-93709580D02*
X105935714Y-93757200D01*
X105935714Y-93757200D02*
X105792857Y-93804819D01*
X105792857Y-93804819D02*
X105697619Y-93804819D01*
X105697619Y-93804819D02*
X105554762Y-93757200D01*
X105554762Y-93757200D02*
X105459524Y-93661961D01*
X105459524Y-93661961D02*
X105411905Y-93566723D01*
X105411905Y-93566723D02*
X105364286Y-93376247D01*
X105364286Y-93376247D02*
X105364286Y-93233390D01*
X105364286Y-93233390D02*
X105411905Y-93042914D01*
X105411905Y-93042914D02*
X105459524Y-92947676D01*
X105459524Y-92947676D02*
X105554762Y-92852438D01*
X105554762Y-92852438D02*
X105697619Y-92804819D01*
X105697619Y-92804819D02*
X105792857Y-92804819D01*
X105792857Y-92804819D02*
X105935714Y-92852438D01*
X105935714Y-92852438D02*
X105983333Y-92900057D01*
X106316667Y-92804819D02*
X106935714Y-92804819D01*
X106935714Y-92804819D02*
X106602381Y-93185771D01*
X106602381Y-93185771D02*
X106745238Y-93185771D01*
X106745238Y-93185771D02*
X106840476Y-93233390D01*
X106840476Y-93233390D02*
X106888095Y-93281009D01*
X106888095Y-93281009D02*
X106935714Y-93376247D01*
X106935714Y-93376247D02*
X106935714Y-93614342D01*
X106935714Y-93614342D02*
X106888095Y-93709580D01*
X106888095Y-93709580D02*
X106840476Y-93757200D01*
X106840476Y-93757200D02*
X106745238Y-93804819D01*
X106745238Y-93804819D02*
X106459524Y-93804819D01*
X106459524Y-93804819D02*
X106364286Y-93757200D01*
X106364286Y-93757200D02*
X106316667Y-93709580D01*
X106589580Y-99542857D02*
X106637200Y-99590476D01*
X106637200Y-99590476D02*
X106684819Y-99733333D01*
X106684819Y-99733333D02*
X106684819Y-99828571D01*
X106684819Y-99828571D02*
X106637200Y-99971428D01*
X106637200Y-99971428D02*
X106541961Y-100066666D01*
X106541961Y-100066666D02*
X106446723Y-100114285D01*
X106446723Y-100114285D02*
X106256247Y-100161904D01*
X106256247Y-100161904D02*
X106113390Y-100161904D01*
X106113390Y-100161904D02*
X105922914Y-100114285D01*
X105922914Y-100114285D02*
X105827676Y-100066666D01*
X105827676Y-100066666D02*
X105732438Y-99971428D01*
X105732438Y-99971428D02*
X105684819Y-99828571D01*
X105684819Y-99828571D02*
X105684819Y-99733333D01*
X105684819Y-99733333D02*
X105732438Y-99590476D01*
X105732438Y-99590476D02*
X105780057Y-99542857D01*
X105780057Y-99161904D02*
X105732438Y-99114285D01*
X105732438Y-99114285D02*
X105684819Y-99019047D01*
X105684819Y-99019047D02*
X105684819Y-98780952D01*
X105684819Y-98780952D02*
X105732438Y-98685714D01*
X105732438Y-98685714D02*
X105780057Y-98638095D01*
X105780057Y-98638095D02*
X105875295Y-98590476D01*
X105875295Y-98590476D02*
X105970533Y-98590476D01*
X105970533Y-98590476D02*
X106113390Y-98638095D01*
X106113390Y-98638095D02*
X106684819Y-99209523D01*
X106684819Y-99209523D02*
X106684819Y-98590476D01*
X106684819Y-97638095D02*
X106684819Y-98209523D01*
X106684819Y-97923809D02*
X105684819Y-97923809D01*
X105684819Y-97923809D02*
X105827676Y-98019047D01*
X105827676Y-98019047D02*
X105922914Y-98114285D01*
X105922914Y-98114285D02*
X105970533Y-98209523D01*
X121666666Y-83704819D02*
X121666666Y-84419104D01*
X121666666Y-84419104D02*
X121619047Y-84561961D01*
X121619047Y-84561961D02*
X121523809Y-84657200D01*
X121523809Y-84657200D02*
X121380952Y-84704819D01*
X121380952Y-84704819D02*
X121285714Y-84704819D01*
X122047619Y-83704819D02*
X122666666Y-83704819D01*
X122666666Y-83704819D02*
X122333333Y-84085771D01*
X122333333Y-84085771D02*
X122476190Y-84085771D01*
X122476190Y-84085771D02*
X122571428Y-84133390D01*
X122571428Y-84133390D02*
X122619047Y-84181009D01*
X122619047Y-84181009D02*
X122666666Y-84276247D01*
X122666666Y-84276247D02*
X122666666Y-84514342D01*
X122666666Y-84514342D02*
X122619047Y-84609580D01*
X122619047Y-84609580D02*
X122571428Y-84657200D01*
X122571428Y-84657200D02*
X122476190Y-84704819D01*
X122476190Y-84704819D02*
X122190476Y-84704819D01*
X122190476Y-84704819D02*
X122095238Y-84657200D01*
X122095238Y-84657200D02*
X122047619Y-84609580D01*
X94238095Y-74554819D02*
X94238095Y-75364342D01*
X94238095Y-75364342D02*
X94285714Y-75459580D01*
X94285714Y-75459580D02*
X94333333Y-75507200D01*
X94333333Y-75507200D02*
X94428571Y-75554819D01*
X94428571Y-75554819D02*
X94619047Y-75554819D01*
X94619047Y-75554819D02*
X94714285Y-75507200D01*
X94714285Y-75507200D02*
X94761904Y-75459580D01*
X94761904Y-75459580D02*
X94809523Y-75364342D01*
X94809523Y-75364342D02*
X94809523Y-74554819D01*
X95333333Y-75554819D02*
X95523809Y-75554819D01*
X95523809Y-75554819D02*
X95619047Y-75507200D01*
X95619047Y-75507200D02*
X95666666Y-75459580D01*
X95666666Y-75459580D02*
X95761904Y-75316723D01*
X95761904Y-75316723D02*
X95809523Y-75126247D01*
X95809523Y-75126247D02*
X95809523Y-74745295D01*
X95809523Y-74745295D02*
X95761904Y-74650057D01*
X95761904Y-74650057D02*
X95714285Y-74602438D01*
X95714285Y-74602438D02*
X95619047Y-74554819D01*
X95619047Y-74554819D02*
X95428571Y-74554819D01*
X95428571Y-74554819D02*
X95333333Y-74602438D01*
X95333333Y-74602438D02*
X95285714Y-74650057D01*
X95285714Y-74650057D02*
X95238095Y-74745295D01*
X95238095Y-74745295D02*
X95238095Y-74983390D01*
X95238095Y-74983390D02*
X95285714Y-75078628D01*
X95285714Y-75078628D02*
X95333333Y-75126247D01*
X95333333Y-75126247D02*
X95428571Y-75173866D01*
X95428571Y-75173866D02*
X95619047Y-75173866D01*
X95619047Y-75173866D02*
X95714285Y-75126247D01*
X95714285Y-75126247D02*
X95761904Y-75078628D01*
X95761904Y-75078628D02*
X95809523Y-74983390D01*
X116133333Y-93709580D02*
X116085714Y-93757200D01*
X116085714Y-93757200D02*
X115942857Y-93804819D01*
X115942857Y-93804819D02*
X115847619Y-93804819D01*
X115847619Y-93804819D02*
X115704762Y-93757200D01*
X115704762Y-93757200D02*
X115609524Y-93661961D01*
X115609524Y-93661961D02*
X115561905Y-93566723D01*
X115561905Y-93566723D02*
X115514286Y-93376247D01*
X115514286Y-93376247D02*
X115514286Y-93233390D01*
X115514286Y-93233390D02*
X115561905Y-93042914D01*
X115561905Y-93042914D02*
X115609524Y-92947676D01*
X115609524Y-92947676D02*
X115704762Y-92852438D01*
X115704762Y-92852438D02*
X115847619Y-92804819D01*
X115847619Y-92804819D02*
X115942857Y-92804819D01*
X115942857Y-92804819D02*
X116085714Y-92852438D01*
X116085714Y-92852438D02*
X116133333Y-92900057D01*
X116990476Y-93138152D02*
X116990476Y-93804819D01*
X116752381Y-92757200D02*
X116514286Y-93471485D01*
X116514286Y-93471485D02*
X117133333Y-93471485D01*
X136059580Y-103842857D02*
X136107200Y-103890476D01*
X136107200Y-103890476D02*
X136154819Y-104033333D01*
X136154819Y-104033333D02*
X136154819Y-104128571D01*
X136154819Y-104128571D02*
X136107200Y-104271428D01*
X136107200Y-104271428D02*
X136011961Y-104366666D01*
X136011961Y-104366666D02*
X135916723Y-104414285D01*
X135916723Y-104414285D02*
X135726247Y-104461904D01*
X135726247Y-104461904D02*
X135583390Y-104461904D01*
X135583390Y-104461904D02*
X135392914Y-104414285D01*
X135392914Y-104414285D02*
X135297676Y-104366666D01*
X135297676Y-104366666D02*
X135202438Y-104271428D01*
X135202438Y-104271428D02*
X135154819Y-104128571D01*
X135154819Y-104128571D02*
X135154819Y-104033333D01*
X135154819Y-104033333D02*
X135202438Y-103890476D01*
X135202438Y-103890476D02*
X135250057Y-103842857D01*
X135250057Y-103461904D02*
X135202438Y-103414285D01*
X135202438Y-103414285D02*
X135154819Y-103319047D01*
X135154819Y-103319047D02*
X135154819Y-103080952D01*
X135154819Y-103080952D02*
X135202438Y-102985714D01*
X135202438Y-102985714D02*
X135250057Y-102938095D01*
X135250057Y-102938095D02*
X135345295Y-102890476D01*
X135345295Y-102890476D02*
X135440533Y-102890476D01*
X135440533Y-102890476D02*
X135583390Y-102938095D01*
X135583390Y-102938095D02*
X136154819Y-103509523D01*
X136154819Y-103509523D02*
X136154819Y-102890476D01*
X135154819Y-102271428D02*
X135154819Y-102176190D01*
X135154819Y-102176190D02*
X135202438Y-102080952D01*
X135202438Y-102080952D02*
X135250057Y-102033333D01*
X135250057Y-102033333D02*
X135345295Y-101985714D01*
X135345295Y-101985714D02*
X135535771Y-101938095D01*
X135535771Y-101938095D02*
X135773866Y-101938095D01*
X135773866Y-101938095D02*
X135964342Y-101985714D01*
X135964342Y-101985714D02*
X136059580Y-102033333D01*
X136059580Y-102033333D02*
X136107200Y-102080952D01*
X136107200Y-102080952D02*
X136154819Y-102176190D01*
X136154819Y-102176190D02*
X136154819Y-102271428D01*
X136154819Y-102271428D02*
X136107200Y-102366666D01*
X136107200Y-102366666D02*
X136059580Y-102414285D01*
X136059580Y-102414285D02*
X135964342Y-102461904D01*
X135964342Y-102461904D02*
X135773866Y-102509523D01*
X135773866Y-102509523D02*
X135535771Y-102509523D01*
X135535771Y-102509523D02*
X135345295Y-102461904D01*
X135345295Y-102461904D02*
X135250057Y-102414285D01*
X135250057Y-102414285D02*
X135202438Y-102366666D01*
X135202438Y-102366666D02*
X135154819Y-102271428D01*
X95659580Y-98842857D02*
X95707200Y-98890476D01*
X95707200Y-98890476D02*
X95754819Y-99033333D01*
X95754819Y-99033333D02*
X95754819Y-99128571D01*
X95754819Y-99128571D02*
X95707200Y-99271428D01*
X95707200Y-99271428D02*
X95611961Y-99366666D01*
X95611961Y-99366666D02*
X95516723Y-99414285D01*
X95516723Y-99414285D02*
X95326247Y-99461904D01*
X95326247Y-99461904D02*
X95183390Y-99461904D01*
X95183390Y-99461904D02*
X94992914Y-99414285D01*
X94992914Y-99414285D02*
X94897676Y-99366666D01*
X94897676Y-99366666D02*
X94802438Y-99271428D01*
X94802438Y-99271428D02*
X94754819Y-99128571D01*
X94754819Y-99128571D02*
X94754819Y-99033333D01*
X94754819Y-99033333D02*
X94802438Y-98890476D01*
X94802438Y-98890476D02*
X94850057Y-98842857D01*
X95754819Y-97890476D02*
X95754819Y-98461904D01*
X95754819Y-98176190D02*
X94754819Y-98176190D01*
X94754819Y-98176190D02*
X94897676Y-98271428D01*
X94897676Y-98271428D02*
X94992914Y-98366666D01*
X94992914Y-98366666D02*
X95040533Y-98461904D01*
X94754819Y-97557142D02*
X94754819Y-96890476D01*
X94754819Y-96890476D02*
X95754819Y-97319047D01*
X106659580Y-103642857D02*
X106707200Y-103690476D01*
X106707200Y-103690476D02*
X106754819Y-103833333D01*
X106754819Y-103833333D02*
X106754819Y-103928571D01*
X106754819Y-103928571D02*
X106707200Y-104071428D01*
X106707200Y-104071428D02*
X106611961Y-104166666D01*
X106611961Y-104166666D02*
X106516723Y-104214285D01*
X106516723Y-104214285D02*
X106326247Y-104261904D01*
X106326247Y-104261904D02*
X106183390Y-104261904D01*
X106183390Y-104261904D02*
X105992914Y-104214285D01*
X105992914Y-104214285D02*
X105897676Y-104166666D01*
X105897676Y-104166666D02*
X105802438Y-104071428D01*
X105802438Y-104071428D02*
X105754819Y-103928571D01*
X105754819Y-103928571D02*
X105754819Y-103833333D01*
X105754819Y-103833333D02*
X105802438Y-103690476D01*
X105802438Y-103690476D02*
X105850057Y-103642857D01*
X105850057Y-103261904D02*
X105802438Y-103214285D01*
X105802438Y-103214285D02*
X105754819Y-103119047D01*
X105754819Y-103119047D02*
X105754819Y-102880952D01*
X105754819Y-102880952D02*
X105802438Y-102785714D01*
X105802438Y-102785714D02*
X105850057Y-102738095D01*
X105850057Y-102738095D02*
X105945295Y-102690476D01*
X105945295Y-102690476D02*
X106040533Y-102690476D01*
X106040533Y-102690476D02*
X106183390Y-102738095D01*
X106183390Y-102738095D02*
X106754819Y-103309523D01*
X106754819Y-103309523D02*
X106754819Y-102690476D01*
X105754819Y-102357142D02*
X105754819Y-101738095D01*
X105754819Y-101738095D02*
X106135771Y-102071428D01*
X106135771Y-102071428D02*
X106135771Y-101928571D01*
X106135771Y-101928571D02*
X106183390Y-101833333D01*
X106183390Y-101833333D02*
X106231009Y-101785714D01*
X106231009Y-101785714D02*
X106326247Y-101738095D01*
X106326247Y-101738095D02*
X106564342Y-101738095D01*
X106564342Y-101738095D02*
X106659580Y-101785714D01*
X106659580Y-101785714D02*
X106707200Y-101833333D01*
X106707200Y-101833333D02*
X106754819Y-101928571D01*
X106754819Y-101928571D02*
X106754819Y-102214285D01*
X106754819Y-102214285D02*
X106707200Y-102309523D01*
X106707200Y-102309523D02*
X106659580Y-102357142D01*
X99545180Y-64166666D02*
X98830895Y-64166666D01*
X98830895Y-64166666D02*
X98688038Y-64119047D01*
X98688038Y-64119047D02*
X98592800Y-64023809D01*
X98592800Y-64023809D02*
X98545180Y-63880952D01*
X98545180Y-63880952D02*
X98545180Y-63785714D01*
X99211847Y-65071428D02*
X98545180Y-65071428D01*
X99592800Y-64833333D02*
X98878514Y-64595238D01*
X98878514Y-64595238D02*
X98878514Y-65214285D01*
X93245833Y-80774819D02*
X92912500Y-80298628D01*
X92674405Y-80774819D02*
X92674405Y-79774819D01*
X92674405Y-79774819D02*
X93055357Y-79774819D01*
X93055357Y-79774819D02*
X93150595Y-79822438D01*
X93150595Y-79822438D02*
X93198214Y-79870057D01*
X93198214Y-79870057D02*
X93245833Y-79965295D01*
X93245833Y-79965295D02*
X93245833Y-80108152D01*
X93245833Y-80108152D02*
X93198214Y-80203390D01*
X93198214Y-80203390D02*
X93150595Y-80251009D01*
X93150595Y-80251009D02*
X93055357Y-80298628D01*
X93055357Y-80298628D02*
X92674405Y-80298628D01*
X93579167Y-79774819D02*
X94245833Y-79774819D01*
X94245833Y-79774819D02*
X93817262Y-80774819D01*
X107338095Y-75454819D02*
X107338095Y-76264342D01*
X107338095Y-76264342D02*
X107385714Y-76359580D01*
X107385714Y-76359580D02*
X107433333Y-76407200D01*
X107433333Y-76407200D02*
X107528571Y-76454819D01*
X107528571Y-76454819D02*
X107719047Y-76454819D01*
X107719047Y-76454819D02*
X107814285Y-76407200D01*
X107814285Y-76407200D02*
X107861904Y-76359580D01*
X107861904Y-76359580D02*
X107909523Y-76264342D01*
X107909523Y-76264342D02*
X107909523Y-75454819D01*
X108338095Y-75550057D02*
X108385714Y-75502438D01*
X108385714Y-75502438D02*
X108480952Y-75454819D01*
X108480952Y-75454819D02*
X108719047Y-75454819D01*
X108719047Y-75454819D02*
X108814285Y-75502438D01*
X108814285Y-75502438D02*
X108861904Y-75550057D01*
X108861904Y-75550057D02*
X108909523Y-75645295D01*
X108909523Y-75645295D02*
X108909523Y-75740533D01*
X108909523Y-75740533D02*
X108861904Y-75883390D01*
X108861904Y-75883390D02*
X108290476Y-76454819D01*
X108290476Y-76454819D02*
X108909523Y-76454819D01*
X104433333Y-76604580D02*
X104385714Y-76652200D01*
X104385714Y-76652200D02*
X104242857Y-76699819D01*
X104242857Y-76699819D02*
X104147619Y-76699819D01*
X104147619Y-76699819D02*
X104004762Y-76652200D01*
X104004762Y-76652200D02*
X103909524Y-76556961D01*
X103909524Y-76556961D02*
X103861905Y-76461723D01*
X103861905Y-76461723D02*
X103814286Y-76271247D01*
X103814286Y-76271247D02*
X103814286Y-76128390D01*
X103814286Y-76128390D02*
X103861905Y-75937914D01*
X103861905Y-75937914D02*
X103909524Y-75842676D01*
X103909524Y-75842676D02*
X104004762Y-75747438D01*
X104004762Y-75747438D02*
X104147619Y-75699819D01*
X104147619Y-75699819D02*
X104242857Y-75699819D01*
X104242857Y-75699819D02*
X104385714Y-75747438D01*
X104385714Y-75747438D02*
X104433333Y-75795057D01*
X105290476Y-75699819D02*
X105100000Y-75699819D01*
X105100000Y-75699819D02*
X105004762Y-75747438D01*
X105004762Y-75747438D02*
X104957143Y-75795057D01*
X104957143Y-75795057D02*
X104861905Y-75937914D01*
X104861905Y-75937914D02*
X104814286Y-76128390D01*
X104814286Y-76128390D02*
X104814286Y-76509342D01*
X104814286Y-76509342D02*
X104861905Y-76604580D01*
X104861905Y-76604580D02*
X104909524Y-76652200D01*
X104909524Y-76652200D02*
X105004762Y-76699819D01*
X105004762Y-76699819D02*
X105195238Y-76699819D01*
X105195238Y-76699819D02*
X105290476Y-76652200D01*
X105290476Y-76652200D02*
X105338095Y-76604580D01*
X105338095Y-76604580D02*
X105385714Y-76509342D01*
X105385714Y-76509342D02*
X105385714Y-76271247D01*
X105385714Y-76271247D02*
X105338095Y-76176009D01*
X105338095Y-76176009D02*
X105290476Y-76128390D01*
X105290476Y-76128390D02*
X105195238Y-76080771D01*
X105195238Y-76080771D02*
X105004762Y-76080771D01*
X105004762Y-76080771D02*
X104909524Y-76128390D01*
X104909524Y-76128390D02*
X104861905Y-76176009D01*
X104861905Y-76176009D02*
X104814286Y-76271247D01*
X122535293Y-56987809D02*
X123249578Y-56987809D01*
X123249578Y-56987809D02*
X123392435Y-57035428D01*
X123392435Y-57035428D02*
X123487674Y-57130666D01*
X123487674Y-57130666D02*
X123535293Y-57273523D01*
X123535293Y-57273523D02*
X123535293Y-57368761D01*
X122630531Y-56559237D02*
X122582912Y-56511618D01*
X122582912Y-56511618D02*
X122535293Y-56416380D01*
X122535293Y-56416380D02*
X122535293Y-56178285D01*
X122535293Y-56178285D02*
X122582912Y-56083047D01*
X122582912Y-56083047D02*
X122630531Y-56035428D01*
X122630531Y-56035428D02*
X122725769Y-55987809D01*
X122725769Y-55987809D02*
X122821007Y-55987809D01*
X122821007Y-55987809D02*
X122963864Y-56035428D01*
X122963864Y-56035428D02*
X123535293Y-56606856D01*
X123535293Y-56606856D02*
X123535293Y-55987809D01*
X110823809Y-93078628D02*
X110823809Y-93554819D01*
X110490476Y-92554819D02*
X110823809Y-93078628D01*
X110823809Y-93078628D02*
X111157142Y-92554819D01*
X112014285Y-93554819D02*
X111442857Y-93554819D01*
X111728571Y-93554819D02*
X111728571Y-92554819D01*
X111728571Y-92554819D02*
X111633333Y-92697676D01*
X111633333Y-92697676D02*
X111538095Y-92792914D01*
X111538095Y-92792914D02*
X111442857Y-92840533D01*
X87857142Y-102259580D02*
X87809523Y-102307200D01*
X87809523Y-102307200D02*
X87666666Y-102354819D01*
X87666666Y-102354819D02*
X87571428Y-102354819D01*
X87571428Y-102354819D02*
X87428571Y-102307200D01*
X87428571Y-102307200D02*
X87333333Y-102211961D01*
X87333333Y-102211961D02*
X87285714Y-102116723D01*
X87285714Y-102116723D02*
X87238095Y-101926247D01*
X87238095Y-101926247D02*
X87238095Y-101783390D01*
X87238095Y-101783390D02*
X87285714Y-101592914D01*
X87285714Y-101592914D02*
X87333333Y-101497676D01*
X87333333Y-101497676D02*
X87428571Y-101402438D01*
X87428571Y-101402438D02*
X87571428Y-101354819D01*
X87571428Y-101354819D02*
X87666666Y-101354819D01*
X87666666Y-101354819D02*
X87809523Y-101402438D01*
X87809523Y-101402438D02*
X87857142Y-101450057D01*
X88809523Y-102354819D02*
X88238095Y-102354819D01*
X88523809Y-102354819D02*
X88523809Y-101354819D01*
X88523809Y-101354819D02*
X88428571Y-101497676D01*
X88428571Y-101497676D02*
X88333333Y-101592914D01*
X88333333Y-101592914D02*
X88238095Y-101640533D01*
X89285714Y-102354819D02*
X89476190Y-102354819D01*
X89476190Y-102354819D02*
X89571428Y-102307200D01*
X89571428Y-102307200D02*
X89619047Y-102259580D01*
X89619047Y-102259580D02*
X89714285Y-102116723D01*
X89714285Y-102116723D02*
X89761904Y-101926247D01*
X89761904Y-101926247D02*
X89761904Y-101545295D01*
X89761904Y-101545295D02*
X89714285Y-101450057D01*
X89714285Y-101450057D02*
X89666666Y-101402438D01*
X89666666Y-101402438D02*
X89571428Y-101354819D01*
X89571428Y-101354819D02*
X89380952Y-101354819D01*
X89380952Y-101354819D02*
X89285714Y-101402438D01*
X89285714Y-101402438D02*
X89238095Y-101450057D01*
X89238095Y-101450057D02*
X89190476Y-101545295D01*
X89190476Y-101545295D02*
X89190476Y-101783390D01*
X89190476Y-101783390D02*
X89238095Y-101878628D01*
X89238095Y-101878628D02*
X89285714Y-101926247D01*
X89285714Y-101926247D02*
X89380952Y-101973866D01*
X89380952Y-101973866D02*
X89571428Y-101973866D01*
X89571428Y-101973866D02*
X89666666Y-101926247D01*
X89666666Y-101926247D02*
X89714285Y-101878628D01*
X89714285Y-101878628D02*
X89761904Y-101783390D01*
X113359580Y-87416666D02*
X113407200Y-87464285D01*
X113407200Y-87464285D02*
X113454819Y-87607142D01*
X113454819Y-87607142D02*
X113454819Y-87702380D01*
X113454819Y-87702380D02*
X113407200Y-87845237D01*
X113407200Y-87845237D02*
X113311961Y-87940475D01*
X113311961Y-87940475D02*
X113216723Y-87988094D01*
X113216723Y-87988094D02*
X113026247Y-88035713D01*
X113026247Y-88035713D02*
X112883390Y-88035713D01*
X112883390Y-88035713D02*
X112692914Y-87988094D01*
X112692914Y-87988094D02*
X112597676Y-87940475D01*
X112597676Y-87940475D02*
X112502438Y-87845237D01*
X112502438Y-87845237D02*
X112454819Y-87702380D01*
X112454819Y-87702380D02*
X112454819Y-87607142D01*
X112454819Y-87607142D02*
X112502438Y-87464285D01*
X112502438Y-87464285D02*
X112550057Y-87416666D01*
X113454819Y-86940475D02*
X113454819Y-86749999D01*
X113454819Y-86749999D02*
X113407200Y-86654761D01*
X113407200Y-86654761D02*
X113359580Y-86607142D01*
X113359580Y-86607142D02*
X113216723Y-86511904D01*
X113216723Y-86511904D02*
X113026247Y-86464285D01*
X113026247Y-86464285D02*
X112645295Y-86464285D01*
X112645295Y-86464285D02*
X112550057Y-86511904D01*
X112550057Y-86511904D02*
X112502438Y-86559523D01*
X112502438Y-86559523D02*
X112454819Y-86654761D01*
X112454819Y-86654761D02*
X112454819Y-86845237D01*
X112454819Y-86845237D02*
X112502438Y-86940475D01*
X112502438Y-86940475D02*
X112550057Y-86988094D01*
X112550057Y-86988094D02*
X112645295Y-87035713D01*
X112645295Y-87035713D02*
X112883390Y-87035713D01*
X112883390Y-87035713D02*
X112978628Y-86988094D01*
X112978628Y-86988094D02*
X113026247Y-86940475D01*
X113026247Y-86940475D02*
X113073866Y-86845237D01*
X113073866Y-86845237D02*
X113073866Y-86654761D01*
X113073866Y-86654761D02*
X113026247Y-86559523D01*
X113026247Y-86559523D02*
X112978628Y-86511904D01*
X112978628Y-86511904D02*
X112883390Y-86464285D01*
X134733333Y-82054819D02*
X134400000Y-81578628D01*
X134161905Y-82054819D02*
X134161905Y-81054819D01*
X134161905Y-81054819D02*
X134542857Y-81054819D01*
X134542857Y-81054819D02*
X134638095Y-81102438D01*
X134638095Y-81102438D02*
X134685714Y-81150057D01*
X134685714Y-81150057D02*
X134733333Y-81245295D01*
X134733333Y-81245295D02*
X134733333Y-81388152D01*
X134733333Y-81388152D02*
X134685714Y-81483390D01*
X134685714Y-81483390D02*
X134638095Y-81531009D01*
X134638095Y-81531009D02*
X134542857Y-81578628D01*
X134542857Y-81578628D02*
X134161905Y-81578628D01*
X135304762Y-81483390D02*
X135209524Y-81435771D01*
X135209524Y-81435771D02*
X135161905Y-81388152D01*
X135161905Y-81388152D02*
X135114286Y-81292914D01*
X135114286Y-81292914D02*
X135114286Y-81245295D01*
X135114286Y-81245295D02*
X135161905Y-81150057D01*
X135161905Y-81150057D02*
X135209524Y-81102438D01*
X135209524Y-81102438D02*
X135304762Y-81054819D01*
X135304762Y-81054819D02*
X135495238Y-81054819D01*
X135495238Y-81054819D02*
X135590476Y-81102438D01*
X135590476Y-81102438D02*
X135638095Y-81150057D01*
X135638095Y-81150057D02*
X135685714Y-81245295D01*
X135685714Y-81245295D02*
X135685714Y-81292914D01*
X135685714Y-81292914D02*
X135638095Y-81388152D01*
X135638095Y-81388152D02*
X135590476Y-81435771D01*
X135590476Y-81435771D02*
X135495238Y-81483390D01*
X135495238Y-81483390D02*
X135304762Y-81483390D01*
X135304762Y-81483390D02*
X135209524Y-81531009D01*
X135209524Y-81531009D02*
X135161905Y-81578628D01*
X135161905Y-81578628D02*
X135114286Y-81673866D01*
X135114286Y-81673866D02*
X135114286Y-81864342D01*
X135114286Y-81864342D02*
X135161905Y-81959580D01*
X135161905Y-81959580D02*
X135209524Y-82007200D01*
X135209524Y-82007200D02*
X135304762Y-82054819D01*
X135304762Y-82054819D02*
X135495238Y-82054819D01*
X135495238Y-82054819D02*
X135590476Y-82007200D01*
X135590476Y-82007200D02*
X135638095Y-81959580D01*
X135638095Y-81959580D02*
X135685714Y-81864342D01*
X135685714Y-81864342D02*
X135685714Y-81673866D01*
X135685714Y-81673866D02*
X135638095Y-81578628D01*
X135638095Y-81578628D02*
X135590476Y-81531009D01*
X135590476Y-81531009D02*
X135495238Y-81483390D01*
X125033333Y-67254819D02*
X124700000Y-66778628D01*
X124461905Y-67254819D02*
X124461905Y-66254819D01*
X124461905Y-66254819D02*
X124842857Y-66254819D01*
X124842857Y-66254819D02*
X124938095Y-66302438D01*
X124938095Y-66302438D02*
X124985714Y-66350057D01*
X124985714Y-66350057D02*
X125033333Y-66445295D01*
X125033333Y-66445295D02*
X125033333Y-66588152D01*
X125033333Y-66588152D02*
X124985714Y-66683390D01*
X124985714Y-66683390D02*
X124938095Y-66731009D01*
X124938095Y-66731009D02*
X124842857Y-66778628D01*
X124842857Y-66778628D02*
X124461905Y-66778628D01*
X125938095Y-66254819D02*
X125461905Y-66254819D01*
X125461905Y-66254819D02*
X125414286Y-66731009D01*
X125414286Y-66731009D02*
X125461905Y-66683390D01*
X125461905Y-66683390D02*
X125557143Y-66635771D01*
X125557143Y-66635771D02*
X125795238Y-66635771D01*
X125795238Y-66635771D02*
X125890476Y-66683390D01*
X125890476Y-66683390D02*
X125938095Y-66731009D01*
X125938095Y-66731009D02*
X125985714Y-66826247D01*
X125985714Y-66826247D02*
X125985714Y-67064342D01*
X125985714Y-67064342D02*
X125938095Y-67159580D01*
X125938095Y-67159580D02*
X125890476Y-67207200D01*
X125890476Y-67207200D02*
X125795238Y-67254819D01*
X125795238Y-67254819D02*
X125557143Y-67254819D01*
X125557143Y-67254819D02*
X125461905Y-67207200D01*
X125461905Y-67207200D02*
X125414286Y-67159580D01*
X99859580Y-78142857D02*
X99907200Y-78190476D01*
X99907200Y-78190476D02*
X99954819Y-78333333D01*
X99954819Y-78333333D02*
X99954819Y-78428571D01*
X99954819Y-78428571D02*
X99907200Y-78571428D01*
X99907200Y-78571428D02*
X99811961Y-78666666D01*
X99811961Y-78666666D02*
X99716723Y-78714285D01*
X99716723Y-78714285D02*
X99526247Y-78761904D01*
X99526247Y-78761904D02*
X99383390Y-78761904D01*
X99383390Y-78761904D02*
X99192914Y-78714285D01*
X99192914Y-78714285D02*
X99097676Y-78666666D01*
X99097676Y-78666666D02*
X99002438Y-78571428D01*
X99002438Y-78571428D02*
X98954819Y-78428571D01*
X98954819Y-78428571D02*
X98954819Y-78333333D01*
X98954819Y-78333333D02*
X99002438Y-78190476D01*
X99002438Y-78190476D02*
X99050057Y-78142857D01*
X99050057Y-77761904D02*
X99002438Y-77714285D01*
X99002438Y-77714285D02*
X98954819Y-77619047D01*
X98954819Y-77619047D02*
X98954819Y-77380952D01*
X98954819Y-77380952D02*
X99002438Y-77285714D01*
X99002438Y-77285714D02*
X99050057Y-77238095D01*
X99050057Y-77238095D02*
X99145295Y-77190476D01*
X99145295Y-77190476D02*
X99240533Y-77190476D01*
X99240533Y-77190476D02*
X99383390Y-77238095D01*
X99383390Y-77238095D02*
X99954819Y-77809523D01*
X99954819Y-77809523D02*
X99954819Y-77190476D01*
X98954819Y-76333333D02*
X98954819Y-76523809D01*
X98954819Y-76523809D02*
X99002438Y-76619047D01*
X99002438Y-76619047D02*
X99050057Y-76666666D01*
X99050057Y-76666666D02*
X99192914Y-76761904D01*
X99192914Y-76761904D02*
X99383390Y-76809523D01*
X99383390Y-76809523D02*
X99764342Y-76809523D01*
X99764342Y-76809523D02*
X99859580Y-76761904D01*
X99859580Y-76761904D02*
X99907200Y-76714285D01*
X99907200Y-76714285D02*
X99954819Y-76619047D01*
X99954819Y-76619047D02*
X99954819Y-76428571D01*
X99954819Y-76428571D02*
X99907200Y-76333333D01*
X99907200Y-76333333D02*
X99859580Y-76285714D01*
X99859580Y-76285714D02*
X99764342Y-76238095D01*
X99764342Y-76238095D02*
X99526247Y-76238095D01*
X99526247Y-76238095D02*
X99431009Y-76285714D01*
X99431009Y-76285714D02*
X99383390Y-76333333D01*
X99383390Y-76333333D02*
X99335771Y-76428571D01*
X99335771Y-76428571D02*
X99335771Y-76619047D01*
X99335771Y-76619047D02*
X99383390Y-76714285D01*
X99383390Y-76714285D02*
X99431009Y-76761904D01*
X99431009Y-76761904D02*
X99526247Y-76809523D01*
X100461905Y-63354819D02*
X100461905Y-62354819D01*
X100461905Y-62354819D02*
X100700000Y-62354819D01*
X100700000Y-62354819D02*
X100842857Y-62402438D01*
X100842857Y-62402438D02*
X100938095Y-62497676D01*
X100938095Y-62497676D02*
X100985714Y-62592914D01*
X100985714Y-62592914D02*
X101033333Y-62783390D01*
X101033333Y-62783390D02*
X101033333Y-62926247D01*
X101033333Y-62926247D02*
X100985714Y-63116723D01*
X100985714Y-63116723D02*
X100938095Y-63211961D01*
X100938095Y-63211961D02*
X100842857Y-63307200D01*
X100842857Y-63307200D02*
X100700000Y-63354819D01*
X100700000Y-63354819D02*
X100461905Y-63354819D01*
X101985714Y-63354819D02*
X101414286Y-63354819D01*
X101700000Y-63354819D02*
X101700000Y-62354819D01*
X101700000Y-62354819D02*
X101604762Y-62497676D01*
X101604762Y-62497676D02*
X101509524Y-62592914D01*
X101509524Y-62592914D02*
X101414286Y-62640533D01*
X125759580Y-106742857D02*
X125807200Y-106790476D01*
X125807200Y-106790476D02*
X125854819Y-106933333D01*
X125854819Y-106933333D02*
X125854819Y-107028571D01*
X125854819Y-107028571D02*
X125807200Y-107171428D01*
X125807200Y-107171428D02*
X125711961Y-107266666D01*
X125711961Y-107266666D02*
X125616723Y-107314285D01*
X125616723Y-107314285D02*
X125426247Y-107361904D01*
X125426247Y-107361904D02*
X125283390Y-107361904D01*
X125283390Y-107361904D02*
X125092914Y-107314285D01*
X125092914Y-107314285D02*
X124997676Y-107266666D01*
X124997676Y-107266666D02*
X124902438Y-107171428D01*
X124902438Y-107171428D02*
X124854819Y-107028571D01*
X124854819Y-107028571D02*
X124854819Y-106933333D01*
X124854819Y-106933333D02*
X124902438Y-106790476D01*
X124902438Y-106790476D02*
X124950057Y-106742857D01*
X124950057Y-106361904D02*
X124902438Y-106314285D01*
X124902438Y-106314285D02*
X124854819Y-106219047D01*
X124854819Y-106219047D02*
X124854819Y-105980952D01*
X124854819Y-105980952D02*
X124902438Y-105885714D01*
X124902438Y-105885714D02*
X124950057Y-105838095D01*
X124950057Y-105838095D02*
X125045295Y-105790476D01*
X125045295Y-105790476D02*
X125140533Y-105790476D01*
X125140533Y-105790476D02*
X125283390Y-105838095D01*
X125283390Y-105838095D02*
X125854819Y-106409523D01*
X125854819Y-106409523D02*
X125854819Y-105790476D01*
X125188152Y-104933333D02*
X125854819Y-104933333D01*
X124807200Y-105171428D02*
X125521485Y-105409523D01*
X125521485Y-105409523D02*
X125521485Y-104790476D01*
X118407142Y-78989580D02*
X118359523Y-79037200D01*
X118359523Y-79037200D02*
X118216666Y-79084819D01*
X118216666Y-79084819D02*
X118121428Y-79084819D01*
X118121428Y-79084819D02*
X117978571Y-79037200D01*
X117978571Y-79037200D02*
X117883333Y-78941961D01*
X117883333Y-78941961D02*
X117835714Y-78846723D01*
X117835714Y-78846723D02*
X117788095Y-78656247D01*
X117788095Y-78656247D02*
X117788095Y-78513390D01*
X117788095Y-78513390D02*
X117835714Y-78322914D01*
X117835714Y-78322914D02*
X117883333Y-78227676D01*
X117883333Y-78227676D02*
X117978571Y-78132438D01*
X117978571Y-78132438D02*
X118121428Y-78084819D01*
X118121428Y-78084819D02*
X118216666Y-78084819D01*
X118216666Y-78084819D02*
X118359523Y-78132438D01*
X118359523Y-78132438D02*
X118407142Y-78180057D01*
X119359523Y-79084819D02*
X118788095Y-79084819D01*
X119073809Y-79084819D02*
X119073809Y-78084819D01*
X119073809Y-78084819D02*
X118978571Y-78227676D01*
X118978571Y-78227676D02*
X118883333Y-78322914D01*
X118883333Y-78322914D02*
X118788095Y-78370533D01*
X119978571Y-78084819D02*
X120073809Y-78084819D01*
X120073809Y-78084819D02*
X120169047Y-78132438D01*
X120169047Y-78132438D02*
X120216666Y-78180057D01*
X120216666Y-78180057D02*
X120264285Y-78275295D01*
X120264285Y-78275295D02*
X120311904Y-78465771D01*
X120311904Y-78465771D02*
X120311904Y-78703866D01*
X120311904Y-78703866D02*
X120264285Y-78894342D01*
X120264285Y-78894342D02*
X120216666Y-78989580D01*
X120216666Y-78989580D02*
X120169047Y-79037200D01*
X120169047Y-79037200D02*
X120073809Y-79084819D01*
X120073809Y-79084819D02*
X119978571Y-79084819D01*
X119978571Y-79084819D02*
X119883333Y-79037200D01*
X119883333Y-79037200D02*
X119835714Y-78989580D01*
X119835714Y-78989580D02*
X119788095Y-78894342D01*
X119788095Y-78894342D02*
X119740476Y-78703866D01*
X119740476Y-78703866D02*
X119740476Y-78465771D01*
X119740476Y-78465771D02*
X119788095Y-78275295D01*
X119788095Y-78275295D02*
X119835714Y-78180057D01*
X119835714Y-78180057D02*
X119883333Y-78132438D01*
X119883333Y-78132438D02*
X119978571Y-78084819D01*
X117338095Y-96154819D02*
X117338095Y-96964342D01*
X117338095Y-96964342D02*
X117385714Y-97059580D01*
X117385714Y-97059580D02*
X117433333Y-97107200D01*
X117433333Y-97107200D02*
X117528571Y-97154819D01*
X117528571Y-97154819D02*
X117719047Y-97154819D01*
X117719047Y-97154819D02*
X117814285Y-97107200D01*
X117814285Y-97107200D02*
X117861904Y-97059580D01*
X117861904Y-97059580D02*
X117909523Y-96964342D01*
X117909523Y-96964342D02*
X117909523Y-96154819D01*
X118528571Y-96583390D02*
X118433333Y-96535771D01*
X118433333Y-96535771D02*
X118385714Y-96488152D01*
X118385714Y-96488152D02*
X118338095Y-96392914D01*
X118338095Y-96392914D02*
X118338095Y-96345295D01*
X118338095Y-96345295D02*
X118385714Y-96250057D01*
X118385714Y-96250057D02*
X118433333Y-96202438D01*
X118433333Y-96202438D02*
X118528571Y-96154819D01*
X118528571Y-96154819D02*
X118719047Y-96154819D01*
X118719047Y-96154819D02*
X118814285Y-96202438D01*
X118814285Y-96202438D02*
X118861904Y-96250057D01*
X118861904Y-96250057D02*
X118909523Y-96345295D01*
X118909523Y-96345295D02*
X118909523Y-96392914D01*
X118909523Y-96392914D02*
X118861904Y-96488152D01*
X118861904Y-96488152D02*
X118814285Y-96535771D01*
X118814285Y-96535771D02*
X118719047Y-96583390D01*
X118719047Y-96583390D02*
X118528571Y-96583390D01*
X118528571Y-96583390D02*
X118433333Y-96631009D01*
X118433333Y-96631009D02*
X118385714Y-96678628D01*
X118385714Y-96678628D02*
X118338095Y-96773866D01*
X118338095Y-96773866D02*
X118338095Y-96964342D01*
X118338095Y-96964342D02*
X118385714Y-97059580D01*
X118385714Y-97059580D02*
X118433333Y-97107200D01*
X118433333Y-97107200D02*
X118528571Y-97154819D01*
X118528571Y-97154819D02*
X118719047Y-97154819D01*
X118719047Y-97154819D02*
X118814285Y-97107200D01*
X118814285Y-97107200D02*
X118861904Y-97059580D01*
X118861904Y-97059580D02*
X118909523Y-96964342D01*
X118909523Y-96964342D02*
X118909523Y-96773866D01*
X118909523Y-96773866D02*
X118861904Y-96678628D01*
X118861904Y-96678628D02*
X118814285Y-96631009D01*
X118814285Y-96631009D02*
X118719047Y-96583390D01*
X94179819Y-73533333D02*
X94894104Y-73533333D01*
X94894104Y-73533333D02*
X95036961Y-73580952D01*
X95036961Y-73580952D02*
X95132200Y-73676190D01*
X95132200Y-73676190D02*
X95179819Y-73819047D01*
X95179819Y-73819047D02*
X95179819Y-73914285D01*
X95179819Y-73057142D02*
X94179819Y-73057142D01*
X94179819Y-73057142D02*
X94179819Y-72676190D01*
X94179819Y-72676190D02*
X94227438Y-72580952D01*
X94227438Y-72580952D02*
X94275057Y-72533333D01*
X94275057Y-72533333D02*
X94370295Y-72485714D01*
X94370295Y-72485714D02*
X94513152Y-72485714D01*
X94513152Y-72485714D02*
X94608390Y-72533333D01*
X94608390Y-72533333D02*
X94656009Y-72580952D01*
X94656009Y-72580952D02*
X94703628Y-72676190D01*
X94703628Y-72676190D02*
X94703628Y-73057142D01*
X95179819Y-71533333D02*
X95179819Y-72104761D01*
X95179819Y-71819047D02*
X94179819Y-71819047D01*
X94179819Y-71819047D02*
X94322676Y-71914285D01*
X94322676Y-71914285D02*
X94417914Y-72009523D01*
X94417914Y-72009523D02*
X94465533Y-72104761D01*
X105859580Y-61642857D02*
X105907200Y-61690476D01*
X105907200Y-61690476D02*
X105954819Y-61833333D01*
X105954819Y-61833333D02*
X105954819Y-61928571D01*
X105954819Y-61928571D02*
X105907200Y-62071428D01*
X105907200Y-62071428D02*
X105811961Y-62166666D01*
X105811961Y-62166666D02*
X105716723Y-62214285D01*
X105716723Y-62214285D02*
X105526247Y-62261904D01*
X105526247Y-62261904D02*
X105383390Y-62261904D01*
X105383390Y-62261904D02*
X105192914Y-62214285D01*
X105192914Y-62214285D02*
X105097676Y-62166666D01*
X105097676Y-62166666D02*
X105002438Y-62071428D01*
X105002438Y-62071428D02*
X104954819Y-61928571D01*
X104954819Y-61928571D02*
X104954819Y-61833333D01*
X104954819Y-61833333D02*
X105002438Y-61690476D01*
X105002438Y-61690476D02*
X105050057Y-61642857D01*
X105954819Y-60690476D02*
X105954819Y-61261904D01*
X105954819Y-60976190D02*
X104954819Y-60976190D01*
X104954819Y-60976190D02*
X105097676Y-61071428D01*
X105097676Y-61071428D02*
X105192914Y-61166666D01*
X105192914Y-61166666D02*
X105240533Y-61261904D01*
X105288152Y-59833333D02*
X105954819Y-59833333D01*
X104907200Y-60071428D02*
X105621485Y-60309523D01*
X105621485Y-60309523D02*
X105621485Y-59690476D01*
X114704819Y-70916666D02*
X114228628Y-71249999D01*
X114704819Y-71488094D02*
X113704819Y-71488094D01*
X113704819Y-71488094D02*
X113704819Y-71107142D01*
X113704819Y-71107142D02*
X113752438Y-71011904D01*
X113752438Y-71011904D02*
X113800057Y-70964285D01*
X113800057Y-70964285D02*
X113895295Y-70916666D01*
X113895295Y-70916666D02*
X114038152Y-70916666D01*
X114038152Y-70916666D02*
X114133390Y-70964285D01*
X114133390Y-70964285D02*
X114181009Y-71011904D01*
X114181009Y-71011904D02*
X114228628Y-71107142D01*
X114228628Y-71107142D02*
X114228628Y-71488094D01*
X113800057Y-70535713D02*
X113752438Y-70488094D01*
X113752438Y-70488094D02*
X113704819Y-70392856D01*
X113704819Y-70392856D02*
X113704819Y-70154761D01*
X113704819Y-70154761D02*
X113752438Y-70059523D01*
X113752438Y-70059523D02*
X113800057Y-70011904D01*
X113800057Y-70011904D02*
X113895295Y-69964285D01*
X113895295Y-69964285D02*
X113990533Y-69964285D01*
X113990533Y-69964285D02*
X114133390Y-70011904D01*
X114133390Y-70011904D02*
X114704819Y-70583332D01*
X114704819Y-70583332D02*
X114704819Y-69964285D01*
X106933333Y-66829580D02*
X106885714Y-66877200D01*
X106885714Y-66877200D02*
X106742857Y-66924819D01*
X106742857Y-66924819D02*
X106647619Y-66924819D01*
X106647619Y-66924819D02*
X106504762Y-66877200D01*
X106504762Y-66877200D02*
X106409524Y-66781961D01*
X106409524Y-66781961D02*
X106361905Y-66686723D01*
X106361905Y-66686723D02*
X106314286Y-66496247D01*
X106314286Y-66496247D02*
X106314286Y-66353390D01*
X106314286Y-66353390D02*
X106361905Y-66162914D01*
X106361905Y-66162914D02*
X106409524Y-66067676D01*
X106409524Y-66067676D02*
X106504762Y-65972438D01*
X106504762Y-65972438D02*
X106647619Y-65924819D01*
X106647619Y-65924819D02*
X106742857Y-65924819D01*
X106742857Y-65924819D02*
X106885714Y-65972438D01*
X106885714Y-65972438D02*
X106933333Y-66020057D01*
X107885714Y-66924819D02*
X107314286Y-66924819D01*
X107600000Y-66924819D02*
X107600000Y-65924819D01*
X107600000Y-65924819D02*
X107504762Y-66067676D01*
X107504762Y-66067676D02*
X107409524Y-66162914D01*
X107409524Y-66162914D02*
X107314286Y-66210533D01*
X125759580Y-96442857D02*
X125807200Y-96490476D01*
X125807200Y-96490476D02*
X125854819Y-96633333D01*
X125854819Y-96633333D02*
X125854819Y-96728571D01*
X125854819Y-96728571D02*
X125807200Y-96871428D01*
X125807200Y-96871428D02*
X125711961Y-96966666D01*
X125711961Y-96966666D02*
X125616723Y-97014285D01*
X125616723Y-97014285D02*
X125426247Y-97061904D01*
X125426247Y-97061904D02*
X125283390Y-97061904D01*
X125283390Y-97061904D02*
X125092914Y-97014285D01*
X125092914Y-97014285D02*
X124997676Y-96966666D01*
X124997676Y-96966666D02*
X124902438Y-96871428D01*
X124902438Y-96871428D02*
X124854819Y-96728571D01*
X124854819Y-96728571D02*
X124854819Y-96633333D01*
X124854819Y-96633333D02*
X124902438Y-96490476D01*
X124902438Y-96490476D02*
X124950057Y-96442857D01*
X124950057Y-96061904D02*
X124902438Y-96014285D01*
X124902438Y-96014285D02*
X124854819Y-95919047D01*
X124854819Y-95919047D02*
X124854819Y-95680952D01*
X124854819Y-95680952D02*
X124902438Y-95585714D01*
X124902438Y-95585714D02*
X124950057Y-95538095D01*
X124950057Y-95538095D02*
X125045295Y-95490476D01*
X125045295Y-95490476D02*
X125140533Y-95490476D01*
X125140533Y-95490476D02*
X125283390Y-95538095D01*
X125283390Y-95538095D02*
X125854819Y-96109523D01*
X125854819Y-96109523D02*
X125854819Y-95490476D01*
X124950057Y-95109523D02*
X124902438Y-95061904D01*
X124902438Y-95061904D02*
X124854819Y-94966666D01*
X124854819Y-94966666D02*
X124854819Y-94728571D01*
X124854819Y-94728571D02*
X124902438Y-94633333D01*
X124902438Y-94633333D02*
X124950057Y-94585714D01*
X124950057Y-94585714D02*
X125045295Y-94538095D01*
X125045295Y-94538095D02*
X125140533Y-94538095D01*
X125140533Y-94538095D02*
X125283390Y-94585714D01*
X125283390Y-94585714D02*
X125854819Y-95157142D01*
X125854819Y-95157142D02*
X125854819Y-94538095D01*
X103438095Y-67654819D02*
X103438095Y-68464342D01*
X103438095Y-68464342D02*
X103485714Y-68559580D01*
X103485714Y-68559580D02*
X103533333Y-68607200D01*
X103533333Y-68607200D02*
X103628571Y-68654819D01*
X103628571Y-68654819D02*
X103819047Y-68654819D01*
X103819047Y-68654819D02*
X103914285Y-68607200D01*
X103914285Y-68607200D02*
X103961904Y-68559580D01*
X103961904Y-68559580D02*
X104009523Y-68464342D01*
X104009523Y-68464342D02*
X104009523Y-67654819D01*
X105009523Y-68654819D02*
X104438095Y-68654819D01*
X104723809Y-68654819D02*
X104723809Y-67654819D01*
X104723809Y-67654819D02*
X104628571Y-67797676D01*
X104628571Y-67797676D02*
X104533333Y-67892914D01*
X104533333Y-67892914D02*
X104438095Y-67940533D01*
X130333333Y-67254819D02*
X130000000Y-66778628D01*
X129761905Y-67254819D02*
X129761905Y-66254819D01*
X129761905Y-66254819D02*
X130142857Y-66254819D01*
X130142857Y-66254819D02*
X130238095Y-66302438D01*
X130238095Y-66302438D02*
X130285714Y-66350057D01*
X130285714Y-66350057D02*
X130333333Y-66445295D01*
X130333333Y-66445295D02*
X130333333Y-66588152D01*
X130333333Y-66588152D02*
X130285714Y-66683390D01*
X130285714Y-66683390D02*
X130238095Y-66731009D01*
X130238095Y-66731009D02*
X130142857Y-66778628D01*
X130142857Y-66778628D02*
X129761905Y-66778628D01*
X131190476Y-66254819D02*
X131000000Y-66254819D01*
X131000000Y-66254819D02*
X130904762Y-66302438D01*
X130904762Y-66302438D02*
X130857143Y-66350057D01*
X130857143Y-66350057D02*
X130761905Y-66492914D01*
X130761905Y-66492914D02*
X130714286Y-66683390D01*
X130714286Y-66683390D02*
X130714286Y-67064342D01*
X130714286Y-67064342D02*
X130761905Y-67159580D01*
X130761905Y-67159580D02*
X130809524Y-67207200D01*
X130809524Y-67207200D02*
X130904762Y-67254819D01*
X130904762Y-67254819D02*
X131095238Y-67254819D01*
X131095238Y-67254819D02*
X131190476Y-67207200D01*
X131190476Y-67207200D02*
X131238095Y-67159580D01*
X131238095Y-67159580D02*
X131285714Y-67064342D01*
X131285714Y-67064342D02*
X131285714Y-66826247D01*
X131285714Y-66826247D02*
X131238095Y-66731009D01*
X131238095Y-66731009D02*
X131190476Y-66683390D01*
X131190476Y-66683390D02*
X131095238Y-66635771D01*
X131095238Y-66635771D02*
X130904762Y-66635771D01*
X130904762Y-66635771D02*
X130809524Y-66683390D01*
X130809524Y-66683390D02*
X130761905Y-66731009D01*
X130761905Y-66731009D02*
X130714286Y-66826247D01*
X96938095Y-96254819D02*
X96938095Y-97064342D01*
X96938095Y-97064342D02*
X96985714Y-97159580D01*
X96985714Y-97159580D02*
X97033333Y-97207200D01*
X97033333Y-97207200D02*
X97128571Y-97254819D01*
X97128571Y-97254819D02*
X97319047Y-97254819D01*
X97319047Y-97254819D02*
X97414285Y-97207200D01*
X97414285Y-97207200D02*
X97461904Y-97159580D01*
X97461904Y-97159580D02*
X97509523Y-97064342D01*
X97509523Y-97064342D02*
X97509523Y-96254819D01*
X97890476Y-96254819D02*
X98557142Y-96254819D01*
X98557142Y-96254819D02*
X98128571Y-97254819D01*
X90929580Y-78142857D02*
X90977200Y-78190476D01*
X90977200Y-78190476D02*
X91024819Y-78333333D01*
X91024819Y-78333333D02*
X91024819Y-78428571D01*
X91024819Y-78428571D02*
X90977200Y-78571428D01*
X90977200Y-78571428D02*
X90881961Y-78666666D01*
X90881961Y-78666666D02*
X90786723Y-78714285D01*
X90786723Y-78714285D02*
X90596247Y-78761904D01*
X90596247Y-78761904D02*
X90453390Y-78761904D01*
X90453390Y-78761904D02*
X90262914Y-78714285D01*
X90262914Y-78714285D02*
X90167676Y-78666666D01*
X90167676Y-78666666D02*
X90072438Y-78571428D01*
X90072438Y-78571428D02*
X90024819Y-78428571D01*
X90024819Y-78428571D02*
X90024819Y-78333333D01*
X90024819Y-78333333D02*
X90072438Y-78190476D01*
X90072438Y-78190476D02*
X90120057Y-78142857D01*
X90120057Y-77761904D02*
X90072438Y-77714285D01*
X90072438Y-77714285D02*
X90024819Y-77619047D01*
X90024819Y-77619047D02*
X90024819Y-77380952D01*
X90024819Y-77380952D02*
X90072438Y-77285714D01*
X90072438Y-77285714D02*
X90120057Y-77238095D01*
X90120057Y-77238095D02*
X90215295Y-77190476D01*
X90215295Y-77190476D02*
X90310533Y-77190476D01*
X90310533Y-77190476D02*
X90453390Y-77238095D01*
X90453390Y-77238095D02*
X91024819Y-77809523D01*
X91024819Y-77809523D02*
X91024819Y-77190476D01*
X90024819Y-76285714D02*
X90024819Y-76761904D01*
X90024819Y-76761904D02*
X90501009Y-76809523D01*
X90501009Y-76809523D02*
X90453390Y-76761904D01*
X90453390Y-76761904D02*
X90405771Y-76666666D01*
X90405771Y-76666666D02*
X90405771Y-76428571D01*
X90405771Y-76428571D02*
X90453390Y-76333333D01*
X90453390Y-76333333D02*
X90501009Y-76285714D01*
X90501009Y-76285714D02*
X90596247Y-76238095D01*
X90596247Y-76238095D02*
X90834342Y-76238095D01*
X90834342Y-76238095D02*
X90929580Y-76285714D01*
X90929580Y-76285714D02*
X90977200Y-76333333D01*
X90977200Y-76333333D02*
X91024819Y-76428571D01*
X91024819Y-76428571D02*
X91024819Y-76666666D01*
X91024819Y-76666666D02*
X90977200Y-76761904D01*
X90977200Y-76761904D02*
X90929580Y-76809523D01*
X126238095Y-96054819D02*
X126238095Y-96864342D01*
X126238095Y-96864342D02*
X126285714Y-96959580D01*
X126285714Y-96959580D02*
X126333333Y-97007200D01*
X126333333Y-97007200D02*
X126428571Y-97054819D01*
X126428571Y-97054819D02*
X126619047Y-97054819D01*
X126619047Y-97054819D02*
X126714285Y-97007200D01*
X126714285Y-97007200D02*
X126761904Y-96959580D01*
X126761904Y-96959580D02*
X126809523Y-96864342D01*
X126809523Y-96864342D02*
X126809523Y-96054819D01*
X127714285Y-96054819D02*
X127523809Y-96054819D01*
X127523809Y-96054819D02*
X127428571Y-96102438D01*
X127428571Y-96102438D02*
X127380952Y-96150057D01*
X127380952Y-96150057D02*
X127285714Y-96292914D01*
X127285714Y-96292914D02*
X127238095Y-96483390D01*
X127238095Y-96483390D02*
X127238095Y-96864342D01*
X127238095Y-96864342D02*
X127285714Y-96959580D01*
X127285714Y-96959580D02*
X127333333Y-97007200D01*
X127333333Y-97007200D02*
X127428571Y-97054819D01*
X127428571Y-97054819D02*
X127619047Y-97054819D01*
X127619047Y-97054819D02*
X127714285Y-97007200D01*
X127714285Y-97007200D02*
X127761904Y-96959580D01*
X127761904Y-96959580D02*
X127809523Y-96864342D01*
X127809523Y-96864342D02*
X127809523Y-96626247D01*
X127809523Y-96626247D02*
X127761904Y-96531009D01*
X127761904Y-96531009D02*
X127714285Y-96483390D01*
X127714285Y-96483390D02*
X127619047Y-96435771D01*
X127619047Y-96435771D02*
X127428571Y-96435771D01*
X127428571Y-96435771D02*
X127333333Y-96483390D01*
X127333333Y-96483390D02*
X127285714Y-96531009D01*
X127285714Y-96531009D02*
X127238095Y-96626247D01*
X92804819Y-73738094D02*
X91804819Y-73738094D01*
X91804819Y-73738094D02*
X91804819Y-73499999D01*
X91804819Y-73499999D02*
X91852438Y-73357142D01*
X91852438Y-73357142D02*
X91947676Y-73261904D01*
X91947676Y-73261904D02*
X92042914Y-73214285D01*
X92042914Y-73214285D02*
X92233390Y-73166666D01*
X92233390Y-73166666D02*
X92376247Y-73166666D01*
X92376247Y-73166666D02*
X92566723Y-73214285D01*
X92566723Y-73214285D02*
X92661961Y-73261904D01*
X92661961Y-73261904D02*
X92757200Y-73357142D01*
X92757200Y-73357142D02*
X92804819Y-73499999D01*
X92804819Y-73499999D02*
X92804819Y-73738094D01*
X91804819Y-72833332D02*
X91804819Y-72214285D01*
X91804819Y-72214285D02*
X92185771Y-72547618D01*
X92185771Y-72547618D02*
X92185771Y-72404761D01*
X92185771Y-72404761D02*
X92233390Y-72309523D01*
X92233390Y-72309523D02*
X92281009Y-72261904D01*
X92281009Y-72261904D02*
X92376247Y-72214285D01*
X92376247Y-72214285D02*
X92614342Y-72214285D01*
X92614342Y-72214285D02*
X92709580Y-72261904D01*
X92709580Y-72261904D02*
X92757200Y-72309523D01*
X92757200Y-72309523D02*
X92804819Y-72404761D01*
X92804819Y-72404761D02*
X92804819Y-72690475D01*
X92804819Y-72690475D02*
X92757200Y-72785713D01*
X92757200Y-72785713D02*
X92709580Y-72833332D01*
X96652142Y-82739580D02*
X96604523Y-82787200D01*
X96604523Y-82787200D02*
X96461666Y-82834819D01*
X96461666Y-82834819D02*
X96366428Y-82834819D01*
X96366428Y-82834819D02*
X96223571Y-82787200D01*
X96223571Y-82787200D02*
X96128333Y-82691961D01*
X96128333Y-82691961D02*
X96080714Y-82596723D01*
X96080714Y-82596723D02*
X96033095Y-82406247D01*
X96033095Y-82406247D02*
X96033095Y-82263390D01*
X96033095Y-82263390D02*
X96080714Y-82072914D01*
X96080714Y-82072914D02*
X96128333Y-81977676D01*
X96128333Y-81977676D02*
X96223571Y-81882438D01*
X96223571Y-81882438D02*
X96366428Y-81834819D01*
X96366428Y-81834819D02*
X96461666Y-81834819D01*
X96461666Y-81834819D02*
X96604523Y-81882438D01*
X96604523Y-81882438D02*
X96652142Y-81930057D01*
X97033095Y-81930057D02*
X97080714Y-81882438D01*
X97080714Y-81882438D02*
X97175952Y-81834819D01*
X97175952Y-81834819D02*
X97414047Y-81834819D01*
X97414047Y-81834819D02*
X97509285Y-81882438D01*
X97509285Y-81882438D02*
X97556904Y-81930057D01*
X97556904Y-81930057D02*
X97604523Y-82025295D01*
X97604523Y-82025295D02*
X97604523Y-82120533D01*
X97604523Y-82120533D02*
X97556904Y-82263390D01*
X97556904Y-82263390D02*
X96985476Y-82834819D01*
X96985476Y-82834819D02*
X97604523Y-82834819D01*
X97937857Y-81834819D02*
X98604523Y-81834819D01*
X98604523Y-81834819D02*
X98175952Y-82834819D01*
X133150057Y-91295238D02*
X133102438Y-91390476D01*
X133102438Y-91390476D02*
X133007200Y-91485714D01*
X133007200Y-91485714D02*
X132864342Y-91628571D01*
X132864342Y-91628571D02*
X132816723Y-91723809D01*
X132816723Y-91723809D02*
X132816723Y-91819047D01*
X133054819Y-91771428D02*
X133007200Y-91866666D01*
X133007200Y-91866666D02*
X132911961Y-91961904D01*
X132911961Y-91961904D02*
X132721485Y-92009523D01*
X132721485Y-92009523D02*
X132388152Y-92009523D01*
X132388152Y-92009523D02*
X132197676Y-91961904D01*
X132197676Y-91961904D02*
X132102438Y-91866666D01*
X132102438Y-91866666D02*
X132054819Y-91771428D01*
X132054819Y-91771428D02*
X132054819Y-91580952D01*
X132054819Y-91580952D02*
X132102438Y-91485714D01*
X132102438Y-91485714D02*
X132197676Y-91390476D01*
X132197676Y-91390476D02*
X132388152Y-91342857D01*
X132388152Y-91342857D02*
X132721485Y-91342857D01*
X132721485Y-91342857D02*
X132911961Y-91390476D01*
X132911961Y-91390476D02*
X133007200Y-91485714D01*
X133007200Y-91485714D02*
X133054819Y-91580952D01*
X133054819Y-91580952D02*
X133054819Y-91771428D01*
X133054819Y-90390476D02*
X133054819Y-90961904D01*
X133054819Y-90676190D02*
X132054819Y-90676190D01*
X132054819Y-90676190D02*
X132197676Y-90771428D01*
X132197676Y-90771428D02*
X132292914Y-90866666D01*
X132292914Y-90866666D02*
X132340533Y-90961904D01*
X88761905Y-89604819D02*
X88761905Y-88604819D01*
X88761905Y-88604819D02*
X89000000Y-88604819D01*
X89000000Y-88604819D02*
X89142857Y-88652438D01*
X89142857Y-88652438D02*
X89238095Y-88747676D01*
X89238095Y-88747676D02*
X89285714Y-88842914D01*
X89285714Y-88842914D02*
X89333333Y-89033390D01*
X89333333Y-89033390D02*
X89333333Y-89176247D01*
X89333333Y-89176247D02*
X89285714Y-89366723D01*
X89285714Y-89366723D02*
X89238095Y-89461961D01*
X89238095Y-89461961D02*
X89142857Y-89557200D01*
X89142857Y-89557200D02*
X89000000Y-89604819D01*
X89000000Y-89604819D02*
X88761905Y-89604819D01*
X89714286Y-88700057D02*
X89761905Y-88652438D01*
X89761905Y-88652438D02*
X89857143Y-88604819D01*
X89857143Y-88604819D02*
X90095238Y-88604819D01*
X90095238Y-88604819D02*
X90190476Y-88652438D01*
X90190476Y-88652438D02*
X90238095Y-88700057D01*
X90238095Y-88700057D02*
X90285714Y-88795295D01*
X90285714Y-88795295D02*
X90285714Y-88890533D01*
X90285714Y-88890533D02*
X90238095Y-89033390D01*
X90238095Y-89033390D02*
X89666667Y-89604819D01*
X89666667Y-89604819D02*
X90285714Y-89604819D01*
X101433333Y-66924819D02*
X101100000Y-66448628D01*
X100861905Y-66924819D02*
X100861905Y-65924819D01*
X100861905Y-65924819D02*
X101242857Y-65924819D01*
X101242857Y-65924819D02*
X101338095Y-65972438D01*
X101338095Y-65972438D02*
X101385714Y-66020057D01*
X101385714Y-66020057D02*
X101433333Y-66115295D01*
X101433333Y-66115295D02*
X101433333Y-66258152D01*
X101433333Y-66258152D02*
X101385714Y-66353390D01*
X101385714Y-66353390D02*
X101338095Y-66401009D01*
X101338095Y-66401009D02*
X101242857Y-66448628D01*
X101242857Y-66448628D02*
X100861905Y-66448628D01*
X102385714Y-66924819D02*
X101814286Y-66924819D01*
X102100000Y-66924819D02*
X102100000Y-65924819D01*
X102100000Y-65924819D02*
X102004762Y-66067676D01*
X102004762Y-66067676D02*
X101909524Y-66162914D01*
X101909524Y-66162914D02*
X101814286Y-66210533D01*
X91488095Y-98704819D02*
X91488095Y-99514342D01*
X91488095Y-99514342D02*
X91535714Y-99609580D01*
X91535714Y-99609580D02*
X91583333Y-99657200D01*
X91583333Y-99657200D02*
X91678571Y-99704819D01*
X91678571Y-99704819D02*
X91869047Y-99704819D01*
X91869047Y-99704819D02*
X91964285Y-99657200D01*
X91964285Y-99657200D02*
X92011904Y-99609580D01*
X92011904Y-99609580D02*
X92059523Y-99514342D01*
X92059523Y-99514342D02*
X92059523Y-98704819D01*
X93011904Y-98704819D02*
X92535714Y-98704819D01*
X92535714Y-98704819D02*
X92488095Y-99181009D01*
X92488095Y-99181009D02*
X92535714Y-99133390D01*
X92535714Y-99133390D02*
X92630952Y-99085771D01*
X92630952Y-99085771D02*
X92869047Y-99085771D01*
X92869047Y-99085771D02*
X92964285Y-99133390D01*
X92964285Y-99133390D02*
X93011904Y-99181009D01*
X93011904Y-99181009D02*
X93059523Y-99276247D01*
X93059523Y-99276247D02*
X93059523Y-99514342D01*
X93059523Y-99514342D02*
X93011904Y-99609580D01*
X93011904Y-99609580D02*
X92964285Y-99657200D01*
X92964285Y-99657200D02*
X92869047Y-99704819D01*
X92869047Y-99704819D02*
X92630952Y-99704819D01*
X92630952Y-99704819D02*
X92535714Y-99657200D01*
X92535714Y-99657200D02*
X92488095Y-99609580D01*
X119159580Y-70892857D02*
X119207200Y-70940476D01*
X119207200Y-70940476D02*
X119254819Y-71083333D01*
X119254819Y-71083333D02*
X119254819Y-71178571D01*
X119254819Y-71178571D02*
X119207200Y-71321428D01*
X119207200Y-71321428D02*
X119111961Y-71416666D01*
X119111961Y-71416666D02*
X119016723Y-71464285D01*
X119016723Y-71464285D02*
X118826247Y-71511904D01*
X118826247Y-71511904D02*
X118683390Y-71511904D01*
X118683390Y-71511904D02*
X118492914Y-71464285D01*
X118492914Y-71464285D02*
X118397676Y-71416666D01*
X118397676Y-71416666D02*
X118302438Y-71321428D01*
X118302438Y-71321428D02*
X118254819Y-71178571D01*
X118254819Y-71178571D02*
X118254819Y-71083333D01*
X118254819Y-71083333D02*
X118302438Y-70940476D01*
X118302438Y-70940476D02*
X118350057Y-70892857D01*
X119254819Y-69940476D02*
X119254819Y-70511904D01*
X119254819Y-70226190D02*
X118254819Y-70226190D01*
X118254819Y-70226190D02*
X118397676Y-70321428D01*
X118397676Y-70321428D02*
X118492914Y-70416666D01*
X118492914Y-70416666D02*
X118540533Y-70511904D01*
X119254819Y-68988095D02*
X119254819Y-69559523D01*
X119254819Y-69273809D02*
X118254819Y-69273809D01*
X118254819Y-69273809D02*
X118397676Y-69369047D01*
X118397676Y-69369047D02*
X118492914Y-69464285D01*
X118492914Y-69464285D02*
X118540533Y-69559523D01*
X117659580Y-70916666D02*
X117707200Y-70964285D01*
X117707200Y-70964285D02*
X117754819Y-71107142D01*
X117754819Y-71107142D02*
X117754819Y-71202380D01*
X117754819Y-71202380D02*
X117707200Y-71345237D01*
X117707200Y-71345237D02*
X117611961Y-71440475D01*
X117611961Y-71440475D02*
X117516723Y-71488094D01*
X117516723Y-71488094D02*
X117326247Y-71535713D01*
X117326247Y-71535713D02*
X117183390Y-71535713D01*
X117183390Y-71535713D02*
X116992914Y-71488094D01*
X116992914Y-71488094D02*
X116897676Y-71440475D01*
X116897676Y-71440475D02*
X116802438Y-71345237D01*
X116802438Y-71345237D02*
X116754819Y-71202380D01*
X116754819Y-71202380D02*
X116754819Y-71107142D01*
X116754819Y-71107142D02*
X116802438Y-70964285D01*
X116802438Y-70964285D02*
X116850057Y-70916666D01*
X116754819Y-70583332D02*
X116754819Y-69916666D01*
X116754819Y-69916666D02*
X117754819Y-70345237D01*
D13*
X93266233Y-82740000D02*
X93558767Y-82740000D01*
X93266233Y-83760000D02*
X93558767Y-83760000D01*
X109490000Y-59160000D02*
X109490000Y-60860000D01*
X118830000Y-59160000D02*
X118830000Y-60860000D01*
X125680000Y-70930000D02*
X129820000Y-70930000D01*
X125680000Y-71230000D02*
X125680000Y-70930000D01*
X125680000Y-74070000D02*
X125680000Y-73770000D01*
X129820000Y-70930000D02*
X129820000Y-71230000D01*
X129820000Y-73770000D02*
X129820000Y-74070000D01*
X129820000Y-74070000D02*
X125680000Y-74070000D01*
X104353733Y-81740000D02*
X104646267Y-81740000D01*
X104353733Y-82760000D02*
X104646267Y-82760000D01*
X133690000Y-98653733D02*
X133690000Y-98946267D01*
X134710000Y-98653733D02*
X134710000Y-98946267D01*
X115227500Y-74004724D02*
X115227500Y-73495276D01*
X116272500Y-74004724D02*
X116272500Y-73495276D01*
X113777500Y-90395276D02*
X113777500Y-90904724D01*
X114822500Y-90395276D02*
X114822500Y-90904724D01*
X110740000Y-73603733D02*
X110740000Y-73896267D01*
X111760000Y-73603733D02*
X111760000Y-73896267D01*
X112240000Y-73603733D02*
X112240000Y-73896267D01*
X113260000Y-73603733D02*
X113260000Y-73896267D01*
X115490000Y-87103733D02*
X115490000Y-87396267D01*
X116510000Y-87103733D02*
X116510000Y-87396267D01*
X119146267Y-81240000D02*
X118853733Y-81240000D01*
X119146267Y-82260000D02*
X118853733Y-82260000D01*
X135154724Y-85077500D02*
X134645276Y-85077500D01*
X135154724Y-86122500D02*
X134645276Y-86122500D01*
X108603733Y-92740000D02*
X108896267Y-92740000D01*
X108603733Y-93760000D02*
X108896267Y-93760000D01*
X104290000Y-98753733D02*
X104290000Y-99046267D01*
X105310000Y-98753733D02*
X105310000Y-99046267D01*
X123370000Y-89420000D02*
X123370000Y-90055000D01*
X123370000Y-90055000D02*
X122735000Y-90055000D01*
X94090000Y-75940000D02*
X95910000Y-75940000D01*
X94090000Y-75990000D02*
X94090000Y-75940000D01*
X94090000Y-79060000D02*
X94090000Y-79010000D01*
X95910000Y-75940000D02*
X95910000Y-75990000D01*
X95910000Y-77110000D02*
X95910000Y-77890000D01*
X95910000Y-79010000D02*
X95910000Y-79060000D01*
X95910000Y-79060000D02*
X94090000Y-79060000D01*
X93550000Y-75990000D02*
X93310000Y-75660000D01*
X93790000Y-75660000D01*
X93550000Y-75990000D01*
G36*
X93550000Y-75990000D02*
G01*
X93310000Y-75660000D01*
X93790000Y-75660000D01*
X93550000Y-75990000D01*
G37*
X113603733Y-92740000D02*
X113896267Y-92740000D01*
X113603733Y-93760000D02*
X113896267Y-93760000D01*
X133690000Y-103346267D02*
X133690000Y-103053733D01*
X134710000Y-103346267D02*
X134710000Y-103053733D01*
X94690000Y-101596267D02*
X94690000Y-101303733D01*
X95710000Y-101596267D02*
X95710000Y-101303733D01*
X104290000Y-103046267D02*
X104290000Y-102753733D01*
X105310000Y-103046267D02*
X105310000Y-102753733D01*
X93600000Y-59830000D02*
X95300000Y-59830000D01*
X93600000Y-69170000D02*
X95300000Y-69170000D01*
X93157776Y-81227500D02*
X93667224Y-81227500D01*
X93157776Y-82272500D02*
X93667224Y-82272500D01*
X108090000Y-84210000D02*
X108090000Y-83560000D01*
X108740000Y-76990000D02*
X108090000Y-76990000D01*
X108740000Y-84210000D02*
X108090000Y-84210000D01*
X114660000Y-76990000D02*
X115310000Y-76990000D01*
X114660000Y-84210000D02*
X115310000Y-84210000D01*
X115310000Y-76990000D02*
X115310000Y-77640000D01*
X115310000Y-84210000D02*
X115310000Y-83560000D01*
X104453733Y-77165000D02*
X104746267Y-77165000D01*
X104453733Y-78185000D02*
X104746267Y-78185000D01*
X124015000Y-57275000D02*
X124015000Y-59935000D01*
X124015000Y-59935000D02*
X129215000Y-59935000D01*
X124075000Y-62645000D02*
X124075000Y-61375000D01*
X124965000Y-60265000D02*
X124965000Y-59935000D01*
X125345000Y-62645000D02*
X124075000Y-62645000D01*
X125725000Y-60265000D02*
X125725000Y-59935000D01*
X126615000Y-59935000D02*
X126615000Y-57275000D01*
X127445000Y-57275000D02*
X127445000Y-56675000D01*
X127465000Y-56675000D02*
X128225000Y-56675000D01*
X127505000Y-60332071D02*
X127505000Y-59935000D01*
X128245000Y-56675000D02*
X128245000Y-57275000D01*
X128265000Y-60332071D02*
X128265000Y-59935000D01*
X129215000Y-57275000D02*
X124015000Y-57275000D01*
X129215000Y-59935000D02*
X129215000Y-57275000D01*
D14*
X124965000Y-57275000D02*
X125725000Y-57275000D01*
X125725000Y-56675000D01*
X124965000Y-56675000D01*
X124965000Y-57275000D01*
G36*
X124965000Y-57275000D02*
G01*
X125725000Y-57275000D01*
X125725000Y-56675000D01*
X124965000Y-56675000D01*
X124965000Y-57275000D01*
G37*
D13*
X113300000Y-89000000D02*
X109300000Y-89000000D01*
X113300000Y-92300000D02*
X113300000Y-89000000D01*
X89746267Y-102690000D02*
X89453733Y-102690000D01*
X89746267Y-103710000D02*
X89453733Y-103710000D01*
X113990000Y-87103733D02*
X113990000Y-87396267D01*
X115010000Y-87103733D02*
X115010000Y-87396267D01*
X135154724Y-82377500D02*
X134645276Y-82377500D01*
X135154724Y-83422500D02*
X134645276Y-83422500D01*
X125045276Y-67577500D02*
X125554724Y-67577500D01*
X125045276Y-68622500D02*
X125554724Y-68622500D01*
X97490000Y-77646267D02*
X97490000Y-77353733D01*
X98510000Y-77646267D02*
X98510000Y-77353733D01*
X99600000Y-62050000D02*
X99600000Y-59750000D01*
X102500000Y-62050000D02*
X99600000Y-62050000D01*
X102500000Y-62050000D02*
X102800000Y-61750000D01*
X102800000Y-59750000D02*
X99600000Y-59750000D01*
X102800000Y-59750000D02*
X102800000Y-61750000D01*
X124790000Y-103146267D02*
X124790000Y-102853733D01*
X125810000Y-103146267D02*
X125810000Y-102853733D01*
X119196267Y-76690000D02*
X118903733Y-76690000D01*
X119196267Y-77710000D02*
X118903733Y-77710000D01*
X117515000Y-101100000D02*
X117515000Y-98900000D01*
X117515000Y-101100000D02*
X117515000Y-103300000D01*
X124285000Y-101100000D02*
X124285000Y-97500000D01*
X124285000Y-101100000D02*
X124285000Y-103300000D01*
X95525000Y-73400000D02*
X95525000Y-72000000D01*
X96225000Y-71300000D02*
X96825000Y-71300000D01*
X96825000Y-74100000D02*
X96225000Y-74100000D01*
X97525000Y-72000000D02*
X97525000Y-73400000D01*
X95525000Y-72000000D02*
G75*
G02*
X96225000Y-71300000I700000J0D01*
G01*
X96225000Y-74100000D02*
G75*
G02*
X95525000Y-73400000I-1J699999D01*
G01*
X96825000Y-71300000D02*
G75*
G02*
X97525000Y-72000000I0J-700000D01*
G01*
X97525000Y-73400000D02*
G75*
G02*
X96825000Y-74100000I-699999J-1D01*
G01*
X103490000Y-60853733D02*
X103490000Y-61146267D01*
X104510000Y-60853733D02*
X104510000Y-61146267D01*
X113727500Y-74004724D02*
X113727500Y-73495276D01*
X114772500Y-74004724D02*
X114772500Y-73495276D01*
X106953733Y-67390000D02*
X107246267Y-67390000D01*
X106953733Y-68410000D02*
X107246267Y-68410000D01*
X124790000Y-98753733D02*
X124790000Y-99046267D01*
X125810000Y-98753733D02*
X125810000Y-99046267D01*
X101575000Y-68975000D02*
X101575000Y-69235000D01*
X101575000Y-69235000D02*
X99900000Y-69235000D01*
X101575000Y-74425000D02*
X101575000Y-74165000D01*
X104300000Y-68975000D02*
X101575000Y-68975000D01*
X104300000Y-68975000D02*
X107025000Y-68975000D01*
X104300000Y-74425000D02*
X101575000Y-74425000D01*
X104300000Y-74425000D02*
X107025000Y-74425000D01*
X107025000Y-68975000D02*
X107025000Y-69235000D01*
X107025000Y-74425000D02*
X107025000Y-74165000D01*
X130285276Y-67577500D02*
X130794724Y-67577500D01*
X130285276Y-68622500D02*
X130794724Y-68622500D01*
X97015000Y-101100000D02*
X97015000Y-98900000D01*
X97015000Y-101100000D02*
X97015000Y-103300000D01*
X103785000Y-101100000D02*
X103785000Y-97500000D01*
X103785000Y-101100000D02*
X103785000Y-103300000D01*
X91490000Y-77646267D02*
X91490000Y-77353733D01*
X92510000Y-77646267D02*
X92510000Y-77353733D01*
X126415000Y-101000000D02*
X126415000Y-98800000D01*
X126415000Y-101000000D02*
X126415000Y-103200000D01*
X133185000Y-101000000D02*
X133185000Y-97400000D01*
X133185000Y-101000000D02*
X133185000Y-103200000D01*
X89650000Y-74610000D02*
X89650000Y-71950000D01*
X89650000Y-74610000D02*
X91350000Y-74610000D01*
X91350000Y-74610000D02*
X91350000Y-71950000D01*
X96988748Y-79765000D02*
X97511252Y-79765000D01*
X96988748Y-81235000D02*
X97511252Y-81235000D01*
X133320000Y-91960000D02*
X133320000Y-90500000D01*
X133320000Y-91960000D02*
X134250000Y-91960000D01*
X136480000Y-91960000D02*
X135550000Y-91960000D01*
X136480000Y-91960000D02*
X136480000Y-88800000D01*
X91110000Y-86450000D02*
X88450000Y-86450000D01*
X91110000Y-88150000D02*
X88450000Y-88150000D01*
X91110000Y-88150000D02*
X91110000Y-86450000D01*
X101345276Y-67377500D02*
X101854724Y-67377500D01*
X101345276Y-68422500D02*
X101854724Y-68422500D01*
X90800000Y-99950000D02*
X90800000Y-100150000D01*
X90800000Y-102150000D02*
X90800000Y-102350000D01*
X90800000Y-102350000D02*
X93400000Y-102350000D01*
X93400000Y-99950000D02*
X90800000Y-99950000D01*
X93400000Y-99950000D02*
X93400000Y-100150000D01*
X93400000Y-102250000D02*
X93800000Y-102250000D01*
X93400000Y-102350000D02*
X93400000Y-102250000D01*
X118240000Y-73603733D02*
X118240000Y-73896267D01*
X119260000Y-73603733D02*
X119260000Y-73896267D01*
X116740000Y-73603733D02*
X116740000Y-73896267D01*
X117760000Y-73603733D02*
X117760000Y-73896267D01*
%LPC*%
D15*
G36*
X136416962Y-116783715D02*
G01*
X87116962Y-116783715D01*
X87116962Y-109783715D01*
X136416962Y-109783715D01*
X136416962Y-116783715D01*
G37*
D16*
X92550000Y-83250000D03*
X94275000Y-83250000D03*
D17*
X117050000Y-61665000D03*
X111270000Y-61665000D03*
D18*
X117360000Y-62740000D03*
X116560000Y-62740000D03*
D19*
X115410000Y-62740000D03*
X114410000Y-62740000D03*
X113910000Y-62740000D03*
X112910000Y-62740000D03*
D18*
X111760000Y-62740000D03*
X110960000Y-62740000D03*
X110960000Y-62740000D03*
X111760000Y-62740000D03*
D19*
X112410000Y-62740000D03*
X113410000Y-62740000D03*
X114910000Y-62740000D03*
X115910000Y-62740000D03*
D18*
X116560000Y-62740000D03*
X117360000Y-62740000D03*
D20*
X118480000Y-62165000D03*
D21*
X118480000Y-57985000D03*
D20*
X109840000Y-62165000D03*
D21*
X109840000Y-57985000D03*
D22*
X125650000Y-72500000D03*
X129850000Y-72500000D03*
D16*
X103637500Y-82250000D03*
X105362500Y-82250000D03*
D23*
X134200000Y-97937500D03*
X134200000Y-99662500D03*
D24*
X115750000Y-74662500D03*
X115750000Y-72837500D03*
D25*
X114300000Y-89737500D03*
X114300000Y-91562500D03*
D23*
X111250000Y-72887500D03*
X111250000Y-74612500D03*
X112750000Y-72887500D03*
X112750000Y-74612500D03*
X116000000Y-86387500D03*
X116000000Y-88112500D03*
D26*
X88266962Y-109283715D03*
X90016962Y-109283715D03*
X91516962Y-109283715D03*
X93016962Y-109283715D03*
X94516962Y-109283715D03*
X96016962Y-109283715D03*
X97516962Y-109283715D03*
X99016962Y-109283715D03*
X100516962Y-109283715D03*
X102016962Y-109283715D03*
X103516962Y-109283715D03*
X105016962Y-109283715D03*
X106516962Y-109283715D03*
X108016962Y-109283715D03*
X109516962Y-109283715D03*
X111016962Y-109283715D03*
X112516962Y-109283715D03*
X114016962Y-109283715D03*
X115516962Y-109283715D03*
X117016962Y-109283715D03*
X118516962Y-109283715D03*
X120016962Y-109283715D03*
X121516962Y-109283715D03*
X123016962Y-109283715D03*
X124516962Y-109283715D03*
X126016962Y-109283715D03*
X127516962Y-109283715D03*
X129016962Y-109283715D03*
X130516962Y-109283715D03*
X132016962Y-109283715D03*
X133516962Y-109283715D03*
X135266962Y-109283715D03*
D27*
X119862500Y-81750000D03*
X118137500Y-81750000D03*
D28*
X135812500Y-85600000D03*
X133987500Y-85600000D03*
D16*
X107887500Y-93250000D03*
X109612500Y-93250000D03*
D23*
X104800000Y-98037500D03*
X104800000Y-99762500D03*
D29*
X119560000Y-90690000D03*
D30*
X122100000Y-90690000D03*
D29*
X124640000Y-90690000D03*
X119560000Y-87515000D03*
X124640000Y-87515000D03*
D30*
X121084000Y-85610000D03*
X123116000Y-85610000D03*
D31*
X122735000Y-89420000D03*
X121465000Y-89420000D03*
X122735000Y-88150000D03*
X121465000Y-88150000D03*
X122735000Y-86880000D03*
X121465000Y-86880000D03*
D32*
X92100000Y-96100000D03*
D33*
X93862500Y-76550000D03*
X93862500Y-77500000D03*
X93862500Y-78450000D03*
X96137500Y-78450000D03*
X96137500Y-76550000D03*
D16*
X112887500Y-93250000D03*
X114612500Y-93250000D03*
D34*
X134200000Y-104062500D03*
X134200000Y-102337500D03*
X95200000Y-102312500D03*
X95200000Y-100587500D03*
X104800000Y-103762500D03*
X104800000Y-102037500D03*
D35*
X111770000Y-101359673D03*
D17*
X96105000Y-61610000D03*
X96105000Y-67390000D03*
D36*
X97180000Y-61300000D03*
X97180000Y-62100000D03*
D37*
X97180000Y-63250000D03*
X97180000Y-64250000D03*
X97180000Y-64750000D03*
X97180000Y-65750000D03*
D36*
X97180000Y-66900000D03*
X97180000Y-67700000D03*
X97180000Y-67700000D03*
X97180000Y-66900000D03*
D37*
X97180000Y-66250000D03*
X97180000Y-65250000D03*
X97180000Y-63750000D03*
X97180000Y-62750000D03*
D36*
X97180000Y-62100000D03*
X97180000Y-61300000D03*
D38*
X96605000Y-60180000D03*
D39*
X92425000Y-60180000D03*
D38*
X96605000Y-68820000D03*
D39*
X92425000Y-68820000D03*
D40*
X92500000Y-81750000D03*
X94325000Y-81750000D03*
D41*
X108262500Y-78000000D03*
X108262500Y-78400000D03*
X108262500Y-78800000D03*
X108262500Y-79200000D03*
X108262500Y-79600000D03*
X108262500Y-80000000D03*
X108262500Y-80400000D03*
X108262500Y-80800000D03*
X108262500Y-81200000D03*
X108262500Y-81600000D03*
X108262500Y-82000000D03*
X108262500Y-82400000D03*
X108262500Y-82800000D03*
X108262500Y-83200000D03*
D42*
X109100000Y-84037500D03*
X109500000Y-84037500D03*
X109900000Y-84037500D03*
X110300000Y-84037500D03*
X110700000Y-84037500D03*
X111100000Y-84037500D03*
X111500000Y-84037500D03*
X111900000Y-84037500D03*
X112300000Y-84037500D03*
X112700000Y-84037500D03*
X113100000Y-84037500D03*
X113500000Y-84037500D03*
X113900000Y-84037500D03*
X114300000Y-84037500D03*
D41*
X115137500Y-83200000D03*
X115137500Y-82800000D03*
X115137500Y-82400000D03*
X115137500Y-82000000D03*
X115137500Y-81600000D03*
X115137500Y-81200000D03*
X115137500Y-80800000D03*
X115137500Y-80400000D03*
X115137500Y-80000000D03*
X115137500Y-79600000D03*
X115137500Y-79200000D03*
X115137500Y-78800000D03*
X115137500Y-78400000D03*
X115137500Y-78000000D03*
D42*
X114300000Y-77162500D03*
X113900000Y-77162500D03*
X113500000Y-77162500D03*
X113100000Y-77162500D03*
X112700000Y-77162500D03*
X112300000Y-77162500D03*
X111900000Y-77162500D03*
X111500000Y-77162500D03*
X111100000Y-77162500D03*
X110700000Y-77162500D03*
X110300000Y-77162500D03*
X109900000Y-77162500D03*
X109500000Y-77162500D03*
X109100000Y-77162500D03*
D43*
X111700000Y-80600000D03*
D16*
X103737500Y-77675000D03*
X105462500Y-77675000D03*
D32*
X92100000Y-64000000D03*
D44*
X125345000Y-61375000D03*
D45*
X127885000Y-61375000D03*
D46*
X112400000Y-89800000D03*
X110200000Y-89800000D03*
X110200000Y-91500000D03*
X112400000Y-91500000D03*
D27*
X90462500Y-103200000D03*
X88737500Y-103200000D03*
D23*
X114500000Y-86387500D03*
X114500000Y-88112500D03*
D28*
X135812500Y-82900000D03*
X133987500Y-82900000D03*
D40*
X124387500Y-68100000D03*
X126212500Y-68100000D03*
D34*
X98000000Y-78362500D03*
X98000000Y-76637500D03*
D47*
X102115000Y-61450000D03*
X102115000Y-60350000D03*
X100285000Y-60350000D03*
X100285000Y-61450000D03*
D34*
X125300000Y-103862500D03*
X125300000Y-102137500D03*
D27*
X119912500Y-77200000D03*
X118187500Y-77200000D03*
D48*
X123825000Y-98237500D03*
X123175000Y-98237500D03*
X122525000Y-98237500D03*
X121875000Y-98237500D03*
X121225000Y-98237500D03*
X120575000Y-98237500D03*
X119925000Y-98237500D03*
X119275000Y-98237500D03*
X118625000Y-98237500D03*
X117975000Y-98237500D03*
X117975000Y-103962500D03*
X118625000Y-103962500D03*
X119275000Y-103962500D03*
X119925000Y-103962500D03*
X120575000Y-103962500D03*
X121225000Y-103962500D03*
X121875000Y-103962500D03*
X122525000Y-103962500D03*
X123175000Y-103962500D03*
X123825000Y-103962500D03*
D49*
X96525000Y-73350000D03*
D50*
X96525000Y-72050000D03*
D23*
X104000000Y-60137500D03*
X104000000Y-61862500D03*
D24*
X114250000Y-74662500D03*
X114250000Y-72837500D03*
D16*
X106237500Y-67900000D03*
X107962500Y-67900000D03*
D32*
X131500000Y-64000000D03*
D23*
X125300000Y-98037500D03*
X125300000Y-99762500D03*
D51*
X100700000Y-69795000D03*
X100700000Y-71065000D03*
X100700000Y-72335000D03*
X100700000Y-73605000D03*
X107900000Y-73605000D03*
X107900000Y-72335000D03*
X107900000Y-71065000D03*
X107900000Y-69795000D03*
D40*
X129627500Y-68100000D03*
X131452500Y-68100000D03*
D48*
X103325000Y-98237500D03*
X102675000Y-98237500D03*
X102025000Y-98237500D03*
X101375000Y-98237500D03*
X100725000Y-98237500D03*
X100075000Y-98237500D03*
X99425000Y-98237500D03*
X98775000Y-98237500D03*
X98125000Y-98237500D03*
X97475000Y-98237500D03*
X97475000Y-103962500D03*
X98125000Y-103962500D03*
X98775000Y-103962500D03*
X99425000Y-103962500D03*
X100075000Y-103962500D03*
X100725000Y-103962500D03*
X101375000Y-103962500D03*
X102025000Y-103962500D03*
X102675000Y-103962500D03*
X103325000Y-103962500D03*
D34*
X92000000Y-78362500D03*
X92000000Y-76637500D03*
D48*
X132725000Y-98137500D03*
X132075000Y-98137500D03*
X131425000Y-98137500D03*
X130775000Y-98137500D03*
X130125000Y-98137500D03*
X129475000Y-98137500D03*
X128825000Y-98137500D03*
X128175000Y-98137500D03*
X127525000Y-98137500D03*
X126875000Y-98137500D03*
X126875000Y-103862500D03*
X127525000Y-103862500D03*
X128175000Y-103862500D03*
X128825000Y-103862500D03*
X129475000Y-103862500D03*
X130125000Y-103862500D03*
X130775000Y-103862500D03*
X131425000Y-103862500D03*
X132075000Y-103862500D03*
X132725000Y-103862500D03*
D52*
X90500000Y-74050000D03*
X90500000Y-71950000D03*
D53*
X96300000Y-80500000D03*
X98200000Y-80500000D03*
D54*
X135850000Y-89700000D03*
X133950000Y-89700000D03*
X134900000Y-92700000D03*
D55*
X90550000Y-87300000D03*
X88450000Y-87300000D03*
D40*
X100687500Y-67900000D03*
X102512500Y-67900000D03*
D56*
X93650000Y-101900000D03*
X93650000Y-101400000D03*
X93650000Y-100900000D03*
X93650000Y-100400000D03*
X90550000Y-100400000D03*
X90550000Y-100900000D03*
X90550000Y-101400000D03*
X90550000Y-101900000D03*
D23*
X118750000Y-72887500D03*
X118750000Y-74612500D03*
X117250000Y-72887500D03*
X117250000Y-74612500D03*
%LPD*%
M02*
