G04 #@! TF.GenerationSoftware,KiCad,Pcbnew,9.0.5*
G04 #@! TF.CreationDate,2025-10-24T14:18:36+02:00*
G04 #@! TF.ProjectId,GameboyCartridgeV1.1,47616d65-626f-4794-9361-727472696467,rev?*
G04 #@! TF.SameCoordinates,Original*
G04 #@! TF.FileFunction,Copper,L2,Inr*
G04 #@! TF.FilePolarity,Positive*
%FSLAX46Y46*%
G04 Gerber Fmt 4.6, Leading zero omitted, Abs format (unit mm)*
G04 Created by KiCad (PCBNEW 9.0.5) date 2025-10-24 14:18:36*
%MOMM*%
%LPD*%
G01*
G04 APERTURE LIST*
G04 #@! TA.AperFunction,ComponentPad*
%ADD10O,1.000000X2.100000*%
G04 #@! TD*
G04 #@! TA.AperFunction,ComponentPad*
%ADD11O,1.000000X1.800000*%
G04 #@! TD*
G04 #@! TA.AperFunction,ComponentPad*
%ADD12C,0.800000*%
G04 #@! TD*
G04 #@! TA.AperFunction,ComponentPad*
%ADD13R,1.700000X1.700000*%
G04 #@! TD*
G04 #@! TA.AperFunction,ComponentPad*
%ADD14O,1.700000X1.700000*%
G04 #@! TD*
G04 #@! TA.AperFunction,ViaPad*
%ADD15C,0.600000*%
G04 #@! TD*
G04 APERTURE END LIST*
D10*
X109835000Y-66340000D03*
X118475000Y-66340000D03*
X118480000Y-62165000D03*
D11*
X118480000Y-57985000D03*
D10*
X109840000Y-62165000D03*
D11*
X109840000Y-57985000D03*
D12*
X88266962Y-109283715D03*
X90016962Y-109283715D03*
X91516962Y-109283715D03*
X93016962Y-109283715D03*
X94516962Y-109283715D03*
X96016962Y-109283715D03*
X97516962Y-109283715D03*
X99016962Y-109283715D03*
X100516962Y-109283715D03*
X102016962Y-109283715D03*
X103516962Y-109283715D03*
X105016962Y-109283715D03*
X106516962Y-109283715D03*
X108016962Y-109283715D03*
X109516962Y-109283715D03*
X111016962Y-109283715D03*
X112516962Y-109283715D03*
X114016962Y-109283715D03*
X115516962Y-109283715D03*
X117016962Y-109283715D03*
X118516962Y-109283715D03*
X120016962Y-109283715D03*
X121516962Y-109283715D03*
X123016962Y-109283715D03*
X124516962Y-109283715D03*
X126016962Y-109283715D03*
X127516962Y-109283715D03*
X129016962Y-109283715D03*
X130516962Y-109283715D03*
X132016962Y-109283715D03*
X133516962Y-109283715D03*
X135266962Y-109283715D03*
D13*
X125345000Y-61375000D03*
D14*
X127885000Y-61375000D03*
D15*
X124500000Y-85400000D03*
X124100000Y-65300000D03*
X137700000Y-104200000D03*
X112800000Y-79500000D03*
X85900000Y-76200000D03*
X127900000Y-56200000D03*
X105400000Y-105300000D03*
X85900000Y-94200000D03*
X85900000Y-100200000D03*
X135000000Y-67600000D03*
X137700000Y-106200000D03*
X133953022Y-87630570D03*
X85900000Y-92200000D03*
X118500000Y-71600000D03*
X95200000Y-98400000D03*
X121900000Y-56200000D03*
X110200000Y-83000000D03*
X107500000Y-84700000D03*
X98400000Y-78900000D03*
X85900000Y-62200000D03*
X135000000Y-60900000D03*
X116900000Y-66500000D03*
X85900000Y-102200000D03*
X85900000Y-78200000D03*
X96800000Y-65900000D03*
X85900000Y-66200000D03*
X85900000Y-68200000D03*
X130700000Y-76900000D03*
X91900000Y-56200000D03*
X85900000Y-64200000D03*
X134200000Y-96700000D03*
X137700000Y-70200000D03*
X121900000Y-58100000D03*
X134200000Y-105400000D03*
X125900000Y-56200000D03*
X96600000Y-94000000D03*
X137700000Y-86200000D03*
X117400000Y-105100000D03*
X96700000Y-67900000D03*
X105800000Y-98000000D03*
X111800000Y-71300000D03*
X120550000Y-77360000D03*
X129900000Y-58000000D03*
X111700000Y-80700000D03*
X119900000Y-56200000D03*
X113500000Y-87800000D03*
X96800000Y-57900000D03*
X126600000Y-105300000D03*
X137700000Y-84200000D03*
X137700000Y-60200000D03*
X92100000Y-106500000D03*
X107800000Y-90000000D03*
X137700000Y-72200000D03*
X132000000Y-60900000D03*
X125300000Y-105300000D03*
X137700000Y-76200000D03*
X93400000Y-77400000D03*
X127900000Y-100900000D03*
X123000000Y-92900000D03*
X94900000Y-57900000D03*
X135000000Y-79700000D03*
X90000000Y-65400000D03*
X137700000Y-68200000D03*
X135000000Y-69700000D03*
X85900000Y-56200000D03*
X94600000Y-106500000D03*
X85900000Y-70200000D03*
X137700000Y-100200000D03*
X112400000Y-73000000D03*
X114900000Y-57700000D03*
X137700000Y-98200000D03*
X123900000Y-72400000D03*
X111900000Y-56200000D03*
X109900000Y-56200000D03*
X112800000Y-57700000D03*
X91900000Y-76600000D03*
X137700000Y-94200000D03*
X111400000Y-73000000D03*
X85900000Y-90200000D03*
X89900000Y-56200000D03*
X118700000Y-100000000D03*
X100800000Y-57900000D03*
X112800000Y-68800000D03*
X123300000Y-81600000D03*
X129900000Y-65300000D03*
X135000000Y-77800000D03*
X103000000Y-82800000D03*
X92200000Y-101550000D03*
X115900000Y-56200000D03*
X85900000Y-74200000D03*
X137700000Y-78200000D03*
X120560000Y-81600000D03*
X85900000Y-104200000D03*
X113900000Y-56200000D03*
X104600000Y-68300000D03*
X95800000Y-90400000D03*
X126800000Y-89700000D03*
X99900000Y-59300000D03*
X111350000Y-88650000D03*
X115700000Y-86000000D03*
X137700000Y-66200000D03*
X105900000Y-56200000D03*
X124800000Y-76900000D03*
X85900000Y-86200000D03*
X107900000Y-56200000D03*
X129000000Y-72500000D03*
X135000000Y-75700000D03*
X137700000Y-88200000D03*
X127900000Y-58000000D03*
X111700000Y-79500000D03*
X137700000Y-74200000D03*
X112700000Y-66500000D03*
X101900000Y-56200000D03*
X95200000Y-103500000D03*
X129900000Y-56200000D03*
X106900000Y-57900000D03*
X92200000Y-94200000D03*
X137700000Y-90200000D03*
X112400000Y-94250000D03*
X110505474Y-63864476D03*
X117900000Y-56200000D03*
X112800000Y-81800000D03*
X85900000Y-60200000D03*
X137700000Y-82200000D03*
X121100000Y-100000000D03*
X91000000Y-68200000D03*
X107200000Y-106500000D03*
X85900000Y-82200000D03*
X89500000Y-102100000D03*
X99900000Y-56200000D03*
X117905474Y-63864476D03*
X91900000Y-78700000D03*
X92700000Y-89300000D03*
X136400000Y-58900000D03*
X100300000Y-65900000D03*
X106700000Y-60100000D03*
X85900000Y-96200000D03*
X97900000Y-56200000D03*
X92200000Y-98100000D03*
X85900000Y-80200000D03*
X116900000Y-68800000D03*
X95300000Y-105400000D03*
X85900000Y-98200000D03*
X135000000Y-63200000D03*
X103900000Y-56200000D03*
X137700000Y-96200000D03*
X137700000Y-62200000D03*
X111700000Y-81800000D03*
X92500000Y-85400000D03*
X93700000Y-105400000D03*
X85900000Y-106200000D03*
X100700000Y-74700000D03*
X108400000Y-94200000D03*
X123900000Y-56200000D03*
X110600000Y-81800000D03*
X110600000Y-79500000D03*
X135000000Y-65200000D03*
X102700000Y-100900000D03*
X135000000Y-71700000D03*
X97000000Y-105400000D03*
X85900000Y-58200000D03*
X93900000Y-56200000D03*
X95900000Y-56200000D03*
X135300000Y-100900000D03*
X85900000Y-84200000D03*
X103000000Y-57900000D03*
X131900000Y-56200000D03*
X137700000Y-80200000D03*
X133550000Y-58900000D03*
X85900000Y-72200000D03*
X137700000Y-92200000D03*
X88800000Y-82900000D03*
X110600000Y-80700000D03*
X98800000Y-57900000D03*
X131300000Y-100900000D03*
X131900000Y-58000000D03*
X125300000Y-93700000D03*
X117000000Y-71600000D03*
X112800000Y-80700000D03*
X104500000Y-71700000D03*
X102900000Y-77800000D03*
X87900000Y-56200000D03*
X127500000Y-77900000D03*
X125900000Y-58100000D03*
X137700000Y-102200000D03*
X137700000Y-64200000D03*
X94100000Y-65400000D03*
X104900000Y-57900000D03*
X85900000Y-88200000D03*
X135000000Y-73700000D03*
X125300000Y-97000000D03*
X102700000Y-99600000D03*
X123200000Y-99600000D03*
X106200000Y-81900000D03*
X117500000Y-76300000D03*
X132100000Y-99400000D03*
X109475000Y-78425000D03*
X106200000Y-69800000D03*
X132500000Y-68100000D03*
X115100000Y-77200000D03*
X117460000Y-81600000D03*
X95200000Y-99450000D03*
X116600000Y-77200000D03*
X123000000Y-91800000D03*
X106700000Y-77800000D03*
X111300000Y-82950000D03*
X93700000Y-78500000D03*
X92700000Y-88200000D03*
X94500000Y-77700000D03*
X112800000Y-78200000D03*
X120800000Y-92650000D03*
X113543466Y-85156974D03*
X126800000Y-78500000D03*
X113850000Y-82950000D03*
X126000000Y-89100000D03*
X118000000Y-89100000D03*
X114200000Y-85800500D03*
X123200000Y-102500000D03*
X132100000Y-102500000D03*
X88265112Y-106594801D03*
X88272528Y-105663384D03*
X102700000Y-102700000D03*
X111705474Y-63864476D03*
X91000000Y-69300000D03*
X116605474Y-63864476D03*
X121174500Y-105400000D03*
X121200000Y-106400000D03*
X122500000Y-105400000D03*
X123800000Y-105400000D03*
X129424500Y-105400000D03*
X129904610Y-106039295D03*
X130724500Y-105400000D03*
X132700000Y-105400000D03*
X111500000Y-78300000D03*
X113000000Y-82900000D03*
X113700000Y-78500000D03*
X118000000Y-99500000D03*
X95800000Y-91500000D03*
X97500000Y-93600000D03*
X122800000Y-72400000D03*
X98800000Y-66000000D03*
G04 #@! TA.AperFunction,Conductor*
G36*
X133320740Y-55791069D02*
G01*
X133387738Y-55810881D01*
X133433392Y-55863772D01*
X133444500Y-55915068D01*
X133444500Y-58320235D01*
X133459438Y-58335173D01*
X133480562Y-58335173D01*
X137876000Y-58335173D01*
X137943039Y-58354858D01*
X137988794Y-58407662D01*
X138000000Y-58459173D01*
X138000000Y-106550500D01*
X137980315Y-106617539D01*
X137927511Y-106663294D01*
X137876000Y-106674500D01*
X136359437Y-106674500D01*
X136344500Y-106689437D01*
X136344500Y-108909917D01*
X136324815Y-108976956D01*
X136272011Y-109022711D01*
X136202853Y-109032655D01*
X136139297Y-109003630D01*
X136105939Y-108957370D01*
X136064531Y-108857404D01*
X136064529Y-108857399D01*
X136057439Y-108846790D01*
X135620516Y-109283714D01*
X135620516Y-109283716D01*
X136057438Y-109720638D01*
X136057438Y-109720637D01*
X136064534Y-109710021D01*
X136105939Y-109610060D01*
X136149779Y-109555656D01*
X136216073Y-109533591D01*
X136283773Y-109550870D01*
X136331384Y-109602007D01*
X136344500Y-109657512D01*
X136344500Y-113676000D01*
X136324815Y-113743039D01*
X136272011Y-113788794D01*
X136220500Y-113800000D01*
X87319500Y-113800000D01*
X87252461Y-113780315D01*
X87206706Y-113727511D01*
X87195500Y-113676000D01*
X87195500Y-110074191D01*
X134830037Y-110074191D01*
X134830037Y-110074192D01*
X134840646Y-110081282D01*
X134840651Y-110081284D01*
X135004441Y-110149128D01*
X135004449Y-110149130D01*
X135178315Y-110183714D01*
X135178319Y-110183715D01*
X135355605Y-110183715D01*
X135355608Y-110183714D01*
X135529474Y-110149130D01*
X135529486Y-110149127D01*
X135693268Y-110081287D01*
X135703884Y-110074191D01*
X135703885Y-110074191D01*
X135266963Y-109637269D01*
X135266962Y-109637269D01*
X134830037Y-110074191D01*
X87195500Y-110074191D01*
X87195500Y-109352710D01*
X87566461Y-109352710D01*
X87593380Y-109488037D01*
X87593383Y-109488047D01*
X87646183Y-109615519D01*
X87646190Y-109615532D01*
X87722847Y-109730256D01*
X87722850Y-109730260D01*
X87820416Y-109827826D01*
X87820420Y-109827829D01*
X87935144Y-109904486D01*
X87935157Y-109904493D01*
X88062629Y-109957293D01*
X88062634Y-109957295D01*
X88062638Y-109957295D01*
X88062639Y-109957296D01*
X88197966Y-109984215D01*
X88197969Y-109984215D01*
X88335957Y-109984215D01*
X88427003Y-109966104D01*
X88471290Y-109957295D01*
X88598773Y-109904490D01*
X88713504Y-109827829D01*
X88811076Y-109730257D01*
X88887737Y-109615526D01*
X88940542Y-109488043D01*
X88967462Y-109352710D01*
X89316461Y-109352710D01*
X89343380Y-109488037D01*
X89343383Y-109488047D01*
X89396183Y-109615519D01*
X89396190Y-109615532D01*
X89472847Y-109730256D01*
X89472850Y-109730260D01*
X89570416Y-109827826D01*
X89570420Y-109827829D01*
X89685144Y-109904486D01*
X89685157Y-109904493D01*
X89812629Y-109957293D01*
X89812634Y-109957295D01*
X89812638Y-109957295D01*
X89812639Y-109957296D01*
X89947966Y-109984215D01*
X89947969Y-109984215D01*
X90085957Y-109984215D01*
X90177003Y-109966104D01*
X90221290Y-109957295D01*
X90348773Y-109904490D01*
X90463504Y-109827829D01*
X90561076Y-109730257D01*
X90637737Y-109615526D01*
X90652401Y-109580125D01*
X90696242Y-109525721D01*
X90762536Y-109503656D01*
X90830235Y-109520935D01*
X90877846Y-109572072D01*
X90881523Y-109580125D01*
X90896183Y-109615519D01*
X90896190Y-109615532D01*
X90972847Y-109730256D01*
X90972850Y-109730260D01*
X91070416Y-109827826D01*
X91070420Y-109827829D01*
X91185144Y-109904486D01*
X91185157Y-109904493D01*
X91312629Y-109957293D01*
X91312634Y-109957295D01*
X91312638Y-109957295D01*
X91312639Y-109957296D01*
X91447966Y-109984215D01*
X91447969Y-109984215D01*
X91585957Y-109984215D01*
X91677003Y-109966104D01*
X91721290Y-109957295D01*
X91848773Y-109904490D01*
X91963504Y-109827829D01*
X92061076Y-109730257D01*
X92137737Y-109615526D01*
X92152401Y-109580125D01*
X92196242Y-109525721D01*
X92262536Y-109503656D01*
X92330235Y-109520935D01*
X92377846Y-109572072D01*
X92381523Y-109580125D01*
X92396183Y-109615519D01*
X92396190Y-109615532D01*
X92472847Y-109730256D01*
X92472850Y-109730260D01*
X92570416Y-109827826D01*
X92570420Y-109827829D01*
X92685144Y-109904486D01*
X92685157Y-109904493D01*
X92812629Y-109957293D01*
X92812634Y-109957295D01*
X92812638Y-109957295D01*
X92812639Y-109957296D01*
X92947966Y-109984215D01*
X92947969Y-109984215D01*
X93085957Y-109984215D01*
X93177003Y-109966104D01*
X93221290Y-109957295D01*
X93348773Y-109904490D01*
X93463504Y-109827829D01*
X93561076Y-109730257D01*
X93637737Y-109615526D01*
X93652401Y-109580125D01*
X93696242Y-109525721D01*
X93762536Y-109503656D01*
X93830235Y-109520935D01*
X93877846Y-109572072D01*
X93881523Y-109580125D01*
X93896183Y-109615519D01*
X93896190Y-109615532D01*
X93972847Y-109730256D01*
X93972850Y-109730260D01*
X94070416Y-109827826D01*
X94070420Y-109827829D01*
X94185144Y-109904486D01*
X94185157Y-109904493D01*
X94312629Y-109957293D01*
X94312634Y-109957295D01*
X94312638Y-109957295D01*
X94312639Y-109957296D01*
X94447966Y-109984215D01*
X94447969Y-109984215D01*
X94585957Y-109984215D01*
X94677003Y-109966104D01*
X94721290Y-109957295D01*
X94848773Y-109904490D01*
X94963504Y-109827829D01*
X95061076Y-109730257D01*
X95137737Y-109615526D01*
X95152401Y-109580125D01*
X95196242Y-109525721D01*
X95262536Y-109503656D01*
X95330235Y-109520935D01*
X95377846Y-109572072D01*
X95381523Y-109580125D01*
X95396183Y-109615519D01*
X95396190Y-109615532D01*
X95472847Y-109730256D01*
X95472850Y-109730260D01*
X95570416Y-109827826D01*
X95570420Y-109827829D01*
X95685144Y-109904486D01*
X95685157Y-109904493D01*
X95812629Y-109957293D01*
X95812634Y-109957295D01*
X95812638Y-109957295D01*
X95812639Y-109957296D01*
X95947966Y-109984215D01*
X95947969Y-109984215D01*
X96085957Y-109984215D01*
X96177003Y-109966104D01*
X96221290Y-109957295D01*
X96348773Y-109904490D01*
X96463504Y-109827829D01*
X96561076Y-109730257D01*
X96637737Y-109615526D01*
X96652401Y-109580125D01*
X96696242Y-109525721D01*
X96762536Y-109503656D01*
X96830235Y-109520935D01*
X96877846Y-109572072D01*
X96881523Y-109580125D01*
X96896183Y-109615519D01*
X96896190Y-109615532D01*
X96972847Y-109730256D01*
X96972850Y-109730260D01*
X97070416Y-109827826D01*
X97070420Y-109827829D01*
X97185144Y-109904486D01*
X97185157Y-109904493D01*
X97312629Y-109957293D01*
X97312634Y-109957295D01*
X97312638Y-109957295D01*
X97312639Y-109957296D01*
X97447966Y-109984215D01*
X97447969Y-109984215D01*
X97585957Y-109984215D01*
X97677003Y-109966104D01*
X97721290Y-109957295D01*
X97848773Y-109904490D01*
X97963504Y-109827829D01*
X98061076Y-109730257D01*
X98137737Y-109615526D01*
X98152401Y-109580125D01*
X98196242Y-109525721D01*
X98262536Y-109503656D01*
X98330235Y-109520935D01*
X98377846Y-109572072D01*
X98381523Y-109580125D01*
X98396183Y-109615519D01*
X98396190Y-109615532D01*
X98472847Y-109730256D01*
X98472850Y-109730260D01*
X98570416Y-109827826D01*
X98570420Y-109827829D01*
X98685144Y-109904486D01*
X98685157Y-109904493D01*
X98812629Y-109957293D01*
X98812634Y-109957295D01*
X98812638Y-109957295D01*
X98812639Y-109957296D01*
X98947966Y-109984215D01*
X98947969Y-109984215D01*
X99085957Y-109984215D01*
X99177003Y-109966104D01*
X99221290Y-109957295D01*
X99348773Y-109904490D01*
X99463504Y-109827829D01*
X99561076Y-109730257D01*
X99637737Y-109615526D01*
X99652401Y-109580125D01*
X99696242Y-109525721D01*
X99762536Y-109503656D01*
X99830235Y-109520935D01*
X99877846Y-109572072D01*
X99881523Y-109580125D01*
X99896183Y-109615519D01*
X99896190Y-109615532D01*
X99972847Y-109730256D01*
X99972850Y-109730260D01*
X100070416Y-109827826D01*
X100070420Y-109827829D01*
X100185144Y-109904486D01*
X100185157Y-109904493D01*
X100312629Y-109957293D01*
X100312634Y-109957295D01*
X100312638Y-109957295D01*
X100312639Y-109957296D01*
X100447966Y-109984215D01*
X100447969Y-109984215D01*
X100585957Y-109984215D01*
X100677003Y-109966104D01*
X100721290Y-109957295D01*
X100848773Y-109904490D01*
X100963504Y-109827829D01*
X101061076Y-109730257D01*
X101137737Y-109615526D01*
X101152401Y-109580125D01*
X101196242Y-109525721D01*
X101262536Y-109503656D01*
X101330235Y-109520935D01*
X101377846Y-109572072D01*
X101381523Y-109580125D01*
X101396183Y-109615519D01*
X101396190Y-109615532D01*
X101472847Y-109730256D01*
X101472850Y-109730260D01*
X101570416Y-109827826D01*
X101570420Y-109827829D01*
X101685144Y-109904486D01*
X101685157Y-109904493D01*
X101812629Y-109957293D01*
X101812634Y-109957295D01*
X101812638Y-109957295D01*
X101812639Y-109957296D01*
X101947966Y-109984215D01*
X101947969Y-109984215D01*
X102085957Y-109984215D01*
X102177003Y-109966104D01*
X102221290Y-109957295D01*
X102348773Y-109904490D01*
X102463504Y-109827829D01*
X102561076Y-109730257D01*
X102637737Y-109615526D01*
X102652401Y-109580125D01*
X102696242Y-109525721D01*
X102762536Y-109503656D01*
X102830235Y-109520935D01*
X102877846Y-109572072D01*
X102881523Y-109580125D01*
X102896183Y-109615519D01*
X102896190Y-109615532D01*
X102972847Y-109730256D01*
X102972850Y-109730260D01*
X103070416Y-109827826D01*
X103070420Y-109827829D01*
X103185144Y-109904486D01*
X103185157Y-109904493D01*
X103312629Y-109957293D01*
X103312634Y-109957295D01*
X103312638Y-109957295D01*
X103312639Y-109957296D01*
X103447966Y-109984215D01*
X103447969Y-109984215D01*
X103585957Y-109984215D01*
X103677003Y-109966104D01*
X103721290Y-109957295D01*
X103848773Y-109904490D01*
X103963504Y-109827829D01*
X104061076Y-109730257D01*
X104137737Y-109615526D01*
X104152401Y-109580125D01*
X104196242Y-109525721D01*
X104262536Y-109503656D01*
X104330235Y-109520935D01*
X104377846Y-109572072D01*
X104381523Y-109580125D01*
X104396183Y-109615519D01*
X104396190Y-109615532D01*
X104472847Y-109730256D01*
X104472850Y-109730260D01*
X104570416Y-109827826D01*
X104570420Y-109827829D01*
X104685144Y-109904486D01*
X104685157Y-109904493D01*
X104812629Y-109957293D01*
X104812634Y-109957295D01*
X104812638Y-109957295D01*
X104812639Y-109957296D01*
X104947966Y-109984215D01*
X104947969Y-109984215D01*
X105085957Y-109984215D01*
X105177003Y-109966104D01*
X105221290Y-109957295D01*
X105348773Y-109904490D01*
X105463504Y-109827829D01*
X105561076Y-109730257D01*
X105637737Y-109615526D01*
X105652401Y-109580125D01*
X105696242Y-109525721D01*
X105762536Y-109503656D01*
X105830235Y-109520935D01*
X105877846Y-109572072D01*
X105881523Y-109580125D01*
X105896183Y-109615519D01*
X105896190Y-109615532D01*
X105972847Y-109730256D01*
X105972850Y-109730260D01*
X106070416Y-109827826D01*
X106070420Y-109827829D01*
X106185144Y-109904486D01*
X106185157Y-109904493D01*
X106312629Y-109957293D01*
X106312634Y-109957295D01*
X106312638Y-109957295D01*
X106312639Y-109957296D01*
X106447966Y-109984215D01*
X106447969Y-109984215D01*
X106585957Y-109984215D01*
X106677003Y-109966104D01*
X106721290Y-109957295D01*
X106848773Y-109904490D01*
X106963504Y-109827829D01*
X107061076Y-109730257D01*
X107137737Y-109615526D01*
X107152401Y-109580125D01*
X107196242Y-109525721D01*
X107262536Y-109503656D01*
X107330235Y-109520935D01*
X107377846Y-109572072D01*
X107381523Y-109580125D01*
X107396183Y-109615519D01*
X107396190Y-109615532D01*
X107472847Y-109730256D01*
X107472850Y-109730260D01*
X107570416Y-109827826D01*
X107570420Y-109827829D01*
X107685144Y-109904486D01*
X107685157Y-109904493D01*
X107812629Y-109957293D01*
X107812634Y-109957295D01*
X107812638Y-109957295D01*
X107812639Y-109957296D01*
X107947966Y-109984215D01*
X107947969Y-109984215D01*
X108085957Y-109984215D01*
X108177003Y-109966104D01*
X108221290Y-109957295D01*
X108348773Y-109904490D01*
X108463504Y-109827829D01*
X108561076Y-109730257D01*
X108637737Y-109615526D01*
X108652401Y-109580125D01*
X108696242Y-109525721D01*
X108762536Y-109503656D01*
X108830235Y-109520935D01*
X108877846Y-109572072D01*
X108881523Y-109580125D01*
X108896183Y-109615519D01*
X108896190Y-109615532D01*
X108972847Y-109730256D01*
X108972850Y-109730260D01*
X109070416Y-109827826D01*
X109070420Y-109827829D01*
X109185144Y-109904486D01*
X109185157Y-109904493D01*
X109312629Y-109957293D01*
X109312634Y-109957295D01*
X109312638Y-109957295D01*
X109312639Y-109957296D01*
X109447966Y-109984215D01*
X109447969Y-109984215D01*
X109585957Y-109984215D01*
X109677003Y-109966104D01*
X109721290Y-109957295D01*
X109848773Y-109904490D01*
X109963504Y-109827829D01*
X110061076Y-109730257D01*
X110137737Y-109615526D01*
X110152401Y-109580125D01*
X110196242Y-109525721D01*
X110262536Y-109503656D01*
X110330235Y-109520935D01*
X110377846Y-109572072D01*
X110381523Y-109580125D01*
X110396183Y-109615519D01*
X110396190Y-109615532D01*
X110472847Y-109730256D01*
X110472850Y-109730260D01*
X110570416Y-109827826D01*
X110570420Y-109827829D01*
X110685144Y-109904486D01*
X110685157Y-109904493D01*
X110812629Y-109957293D01*
X110812634Y-109957295D01*
X110812638Y-109957295D01*
X110812639Y-109957296D01*
X110947966Y-109984215D01*
X110947969Y-109984215D01*
X111085957Y-109984215D01*
X111177003Y-109966104D01*
X111221290Y-109957295D01*
X111348773Y-109904490D01*
X111463504Y-109827829D01*
X111561076Y-109730257D01*
X111637737Y-109615526D01*
X111652401Y-109580125D01*
X111696242Y-109525721D01*
X111762536Y-109503656D01*
X111830235Y-109520935D01*
X111877846Y-109572072D01*
X111881523Y-109580125D01*
X111896183Y-109615519D01*
X111896190Y-109615532D01*
X111972847Y-109730256D01*
X111972850Y-109730260D01*
X112070416Y-109827826D01*
X112070420Y-109827829D01*
X112185144Y-109904486D01*
X112185157Y-109904493D01*
X112312629Y-109957293D01*
X112312634Y-109957295D01*
X112312638Y-109957295D01*
X112312639Y-109957296D01*
X112447966Y-109984215D01*
X112447969Y-109984215D01*
X112585957Y-109984215D01*
X112677003Y-109966104D01*
X112721290Y-109957295D01*
X112848773Y-109904490D01*
X112963504Y-109827829D01*
X113061076Y-109730257D01*
X113137737Y-109615526D01*
X113152401Y-109580125D01*
X113196242Y-109525721D01*
X113262536Y-109503656D01*
X113330235Y-109520935D01*
X113377846Y-109572072D01*
X113381523Y-109580125D01*
X113396183Y-109615519D01*
X113396190Y-109615532D01*
X113472847Y-109730256D01*
X113472850Y-109730260D01*
X113570416Y-109827826D01*
X113570420Y-109827829D01*
X113685144Y-109904486D01*
X113685157Y-109904493D01*
X113812629Y-109957293D01*
X113812634Y-109957295D01*
X113812638Y-109957295D01*
X113812639Y-109957296D01*
X113947966Y-109984215D01*
X113947969Y-109984215D01*
X114085957Y-109984215D01*
X114177003Y-109966104D01*
X114221290Y-109957295D01*
X114348773Y-109904490D01*
X114463504Y-109827829D01*
X114561076Y-109730257D01*
X114637737Y-109615526D01*
X114652401Y-109580125D01*
X114696242Y-109525721D01*
X114762536Y-109503656D01*
X114830235Y-109520935D01*
X114877846Y-109572072D01*
X114881523Y-109580125D01*
X114896183Y-109615519D01*
X114896190Y-109615532D01*
X114972847Y-109730256D01*
X114972850Y-109730260D01*
X115070416Y-109827826D01*
X115070420Y-109827829D01*
X115185144Y-109904486D01*
X115185157Y-109904493D01*
X115312629Y-109957293D01*
X115312634Y-109957295D01*
X115312638Y-109957295D01*
X115312639Y-109957296D01*
X115447966Y-109984215D01*
X115447969Y-109984215D01*
X115585957Y-109984215D01*
X115677003Y-109966104D01*
X115721290Y-109957295D01*
X115848773Y-109904490D01*
X115963504Y-109827829D01*
X116061076Y-109730257D01*
X116137737Y-109615526D01*
X116152401Y-109580125D01*
X116196242Y-109525721D01*
X116262536Y-109503656D01*
X116330235Y-109520935D01*
X116377846Y-109572072D01*
X116381523Y-109580125D01*
X116396183Y-109615519D01*
X116396190Y-109615532D01*
X116472847Y-109730256D01*
X116472850Y-109730260D01*
X116570416Y-109827826D01*
X116570420Y-109827829D01*
X116685144Y-109904486D01*
X116685157Y-109904493D01*
X116812629Y-109957293D01*
X116812634Y-109957295D01*
X116812638Y-109957295D01*
X116812639Y-109957296D01*
X116947966Y-109984215D01*
X116947969Y-109984215D01*
X117085957Y-109984215D01*
X117177003Y-109966104D01*
X117221290Y-109957295D01*
X117348773Y-109904490D01*
X117463504Y-109827829D01*
X117561076Y-109730257D01*
X117637737Y-109615526D01*
X117652401Y-109580125D01*
X117696242Y-109525721D01*
X117762536Y-109503656D01*
X117830235Y-109520935D01*
X117877846Y-109572072D01*
X117881523Y-109580125D01*
X117896183Y-109615519D01*
X117896190Y-109615532D01*
X117972847Y-109730256D01*
X117972850Y-109730260D01*
X118070416Y-109827826D01*
X118070420Y-109827829D01*
X118185144Y-109904486D01*
X118185157Y-109904493D01*
X118312629Y-109957293D01*
X118312634Y-109957295D01*
X118312638Y-109957295D01*
X118312639Y-109957296D01*
X118447966Y-109984215D01*
X118447969Y-109984215D01*
X118585957Y-109984215D01*
X118677003Y-109966104D01*
X118721290Y-109957295D01*
X118848773Y-109904490D01*
X118963504Y-109827829D01*
X119061076Y-109730257D01*
X119137737Y-109615526D01*
X119152401Y-109580125D01*
X119196242Y-109525721D01*
X119262536Y-109503656D01*
X119330235Y-109520935D01*
X119377846Y-109572072D01*
X119381523Y-109580125D01*
X119396183Y-109615519D01*
X119396190Y-109615532D01*
X119472847Y-109730256D01*
X119472850Y-109730260D01*
X119570416Y-109827826D01*
X119570420Y-109827829D01*
X119685144Y-109904486D01*
X119685157Y-109904493D01*
X119812629Y-109957293D01*
X119812634Y-109957295D01*
X119812638Y-109957295D01*
X119812639Y-109957296D01*
X119947966Y-109984215D01*
X119947969Y-109984215D01*
X120085957Y-109984215D01*
X120177003Y-109966104D01*
X120221290Y-109957295D01*
X120348773Y-109904490D01*
X120463504Y-109827829D01*
X120561076Y-109730257D01*
X120637737Y-109615526D01*
X120652401Y-109580125D01*
X120696242Y-109525721D01*
X120762536Y-109503656D01*
X120830235Y-109520935D01*
X120877846Y-109572072D01*
X120881523Y-109580125D01*
X120896183Y-109615519D01*
X120896190Y-109615532D01*
X120972847Y-109730256D01*
X120972850Y-109730260D01*
X121070416Y-109827826D01*
X121070420Y-109827829D01*
X121185144Y-109904486D01*
X121185157Y-109904493D01*
X121312629Y-109957293D01*
X121312634Y-109957295D01*
X121312638Y-109957295D01*
X121312639Y-109957296D01*
X121447966Y-109984215D01*
X121447969Y-109984215D01*
X121585957Y-109984215D01*
X121677003Y-109966104D01*
X121721290Y-109957295D01*
X121848773Y-109904490D01*
X121963504Y-109827829D01*
X122061076Y-109730257D01*
X122137737Y-109615526D01*
X122152401Y-109580125D01*
X122196242Y-109525721D01*
X122262536Y-109503656D01*
X122330235Y-109520935D01*
X122377846Y-109572072D01*
X122381523Y-109580125D01*
X122396183Y-109615519D01*
X122396190Y-109615532D01*
X122472847Y-109730256D01*
X122472850Y-109730260D01*
X122570416Y-109827826D01*
X122570420Y-109827829D01*
X122685144Y-109904486D01*
X122685157Y-109904493D01*
X122812629Y-109957293D01*
X122812634Y-109957295D01*
X122812638Y-109957295D01*
X122812639Y-109957296D01*
X122947966Y-109984215D01*
X122947969Y-109984215D01*
X123085957Y-109984215D01*
X123177003Y-109966104D01*
X123221290Y-109957295D01*
X123348773Y-109904490D01*
X123463504Y-109827829D01*
X123561076Y-109730257D01*
X123637737Y-109615526D01*
X123652401Y-109580125D01*
X123696242Y-109525721D01*
X123762536Y-109503656D01*
X123830235Y-109520935D01*
X123877846Y-109572072D01*
X123881523Y-109580125D01*
X123896183Y-109615519D01*
X123896190Y-109615532D01*
X123972847Y-109730256D01*
X123972850Y-109730260D01*
X124070416Y-109827826D01*
X124070420Y-109827829D01*
X124185144Y-109904486D01*
X124185157Y-109904493D01*
X124312629Y-109957293D01*
X124312634Y-109957295D01*
X124312638Y-109957295D01*
X124312639Y-109957296D01*
X124447966Y-109984215D01*
X124447969Y-109984215D01*
X124585957Y-109984215D01*
X124677003Y-109966104D01*
X124721290Y-109957295D01*
X124848773Y-109904490D01*
X124963504Y-109827829D01*
X125061076Y-109730257D01*
X125137737Y-109615526D01*
X125152401Y-109580125D01*
X125196242Y-109525721D01*
X125262536Y-109503656D01*
X125330235Y-109520935D01*
X125377846Y-109572072D01*
X125381523Y-109580125D01*
X125396183Y-109615519D01*
X125396190Y-109615532D01*
X125472847Y-109730256D01*
X125472850Y-109730260D01*
X125570416Y-109827826D01*
X125570420Y-109827829D01*
X125685144Y-109904486D01*
X125685157Y-109904493D01*
X125812629Y-109957293D01*
X125812634Y-109957295D01*
X125812638Y-109957295D01*
X125812639Y-109957296D01*
X125947966Y-109984215D01*
X125947969Y-109984215D01*
X126085957Y-109984215D01*
X126177003Y-109966104D01*
X126221290Y-109957295D01*
X126348773Y-109904490D01*
X126463504Y-109827829D01*
X126561076Y-109730257D01*
X126637737Y-109615526D01*
X126652401Y-109580125D01*
X126696242Y-109525721D01*
X126762536Y-109503656D01*
X126830235Y-109520935D01*
X126877846Y-109572072D01*
X126881523Y-109580125D01*
X126896183Y-109615519D01*
X126896190Y-109615532D01*
X126972847Y-109730256D01*
X126972850Y-109730260D01*
X127070416Y-109827826D01*
X127070420Y-109827829D01*
X127185144Y-109904486D01*
X127185157Y-109904493D01*
X127312629Y-109957293D01*
X127312634Y-109957295D01*
X127312638Y-109957295D01*
X127312639Y-109957296D01*
X127447966Y-109984215D01*
X127447969Y-109984215D01*
X127585957Y-109984215D01*
X127677003Y-109966104D01*
X127721290Y-109957295D01*
X127848773Y-109904490D01*
X127963504Y-109827829D01*
X128061076Y-109730257D01*
X128137737Y-109615526D01*
X128152401Y-109580125D01*
X128196242Y-109525721D01*
X128262536Y-109503656D01*
X128330235Y-109520935D01*
X128377846Y-109572072D01*
X128381523Y-109580125D01*
X128396183Y-109615519D01*
X128396190Y-109615532D01*
X128472847Y-109730256D01*
X128472850Y-109730260D01*
X128570416Y-109827826D01*
X128570420Y-109827829D01*
X128685144Y-109904486D01*
X128685157Y-109904493D01*
X128812629Y-109957293D01*
X128812634Y-109957295D01*
X128812638Y-109957295D01*
X128812639Y-109957296D01*
X128947966Y-109984215D01*
X128947969Y-109984215D01*
X129085957Y-109984215D01*
X129177003Y-109966104D01*
X129221290Y-109957295D01*
X129348773Y-109904490D01*
X129463504Y-109827829D01*
X129561076Y-109730257D01*
X129637737Y-109615526D01*
X129652401Y-109580125D01*
X129696242Y-109525721D01*
X129762536Y-109503656D01*
X129830235Y-109520935D01*
X129877846Y-109572072D01*
X129881523Y-109580125D01*
X129896183Y-109615519D01*
X129896190Y-109615532D01*
X129972847Y-109730256D01*
X129972850Y-109730260D01*
X130070416Y-109827826D01*
X130070420Y-109827829D01*
X130185144Y-109904486D01*
X130185157Y-109904493D01*
X130312629Y-109957293D01*
X130312634Y-109957295D01*
X130312638Y-109957295D01*
X130312639Y-109957296D01*
X130447966Y-109984215D01*
X130447969Y-109984215D01*
X130585957Y-109984215D01*
X130677003Y-109966104D01*
X130721290Y-109957295D01*
X130848773Y-109904490D01*
X130963504Y-109827829D01*
X131061076Y-109730257D01*
X131137737Y-109615526D01*
X131152401Y-109580125D01*
X131196242Y-109525721D01*
X131262536Y-109503656D01*
X131330235Y-109520935D01*
X131377846Y-109572072D01*
X131381523Y-109580125D01*
X131396183Y-109615519D01*
X131396190Y-109615532D01*
X131472847Y-109730256D01*
X131472850Y-109730260D01*
X131570416Y-109827826D01*
X131570420Y-109827829D01*
X131685144Y-109904486D01*
X131685157Y-109904493D01*
X131812629Y-109957293D01*
X131812634Y-109957295D01*
X131812638Y-109957295D01*
X131812639Y-109957296D01*
X131947966Y-109984215D01*
X131947969Y-109984215D01*
X132085957Y-109984215D01*
X132177003Y-109966104D01*
X132221290Y-109957295D01*
X132348773Y-109904490D01*
X132463504Y-109827829D01*
X132561076Y-109730257D01*
X132637737Y-109615526D01*
X132652401Y-109580125D01*
X132696242Y-109525721D01*
X132762536Y-109503656D01*
X132830235Y-109520935D01*
X132877846Y-109572072D01*
X132881523Y-109580125D01*
X132896183Y-109615519D01*
X132896190Y-109615532D01*
X132972847Y-109730256D01*
X132972850Y-109730260D01*
X133070416Y-109827826D01*
X133070420Y-109827829D01*
X133185144Y-109904486D01*
X133185157Y-109904493D01*
X133312629Y-109957293D01*
X133312634Y-109957295D01*
X133312638Y-109957295D01*
X133312639Y-109957296D01*
X133447966Y-109984215D01*
X133447969Y-109984215D01*
X133585957Y-109984215D01*
X133677003Y-109966104D01*
X133721290Y-109957295D01*
X133765090Y-109939152D01*
X133827220Y-109913418D01*
X133848766Y-109904493D01*
X133848766Y-109904492D01*
X133848773Y-109904490D01*
X133963504Y-109827829D01*
X134061076Y-109730257D01*
X134137737Y-109615526D01*
X134169535Y-109538758D01*
X134213374Y-109484357D01*
X134279668Y-109462291D01*
X134347367Y-109479569D01*
X134394978Y-109530706D01*
X134398967Y-109540710D01*
X134399217Y-109540607D01*
X134469392Y-109710026D01*
X134476484Y-109720638D01*
X134913408Y-109283715D01*
X134873912Y-109244219D01*
X134966962Y-109244219D01*
X134966962Y-109323211D01*
X134987406Y-109399511D01*
X135026902Y-109467920D01*
X135082757Y-109523775D01*
X135151166Y-109563271D01*
X135227466Y-109583715D01*
X135306458Y-109583715D01*
X135382758Y-109563271D01*
X135451167Y-109523775D01*
X135507022Y-109467920D01*
X135546518Y-109399511D01*
X135566962Y-109323211D01*
X135566962Y-109244219D01*
X135546518Y-109167919D01*
X135507022Y-109099510D01*
X135451167Y-109043655D01*
X135382758Y-109004159D01*
X135306458Y-108983715D01*
X135227466Y-108983715D01*
X135151166Y-109004159D01*
X135082757Y-109043655D01*
X135026902Y-109099510D01*
X134987406Y-109167919D01*
X134966962Y-109244219D01*
X134873912Y-109244219D01*
X134476484Y-108846791D01*
X134476483Y-108846791D01*
X134469391Y-108857406D01*
X134399217Y-109026823D01*
X134397055Y-109025927D01*
X134364424Y-109075680D01*
X134300602Y-109104113D01*
X134231539Y-109093528D01*
X134179162Y-109047285D01*
X134169534Y-109028669D01*
X134137740Y-108951910D01*
X134137733Y-108951897D01*
X134061076Y-108837173D01*
X134061073Y-108837169D01*
X133963507Y-108739603D01*
X133963503Y-108739600D01*
X133848779Y-108662943D01*
X133848770Y-108662938D01*
X133827212Y-108654009D01*
X133827210Y-108654008D01*
X133721294Y-108610136D01*
X133721284Y-108610133D01*
X133585957Y-108583215D01*
X133585955Y-108583215D01*
X133447969Y-108583215D01*
X133447967Y-108583215D01*
X133312639Y-108610133D01*
X133312629Y-108610136D01*
X133185157Y-108662936D01*
X133185144Y-108662943D01*
X133070420Y-108739600D01*
X133070416Y-108739603D01*
X132972850Y-108837169D01*
X132972847Y-108837173D01*
X132896190Y-108951897D01*
X132896185Y-108951907D01*
X132881523Y-108987305D01*
X132837682Y-109041709D01*
X132771387Y-109063773D01*
X132703688Y-109046493D01*
X132656078Y-108995356D01*
X132652401Y-108987305D01*
X132637738Y-108951907D01*
X132637737Y-108951904D01*
X132637735Y-108951901D01*
X132637733Y-108951897D01*
X132561076Y-108837173D01*
X132561073Y-108837169D01*
X132463507Y-108739603D01*
X132463503Y-108739600D01*
X132348779Y-108662943D01*
X132348766Y-108662936D01*
X132221294Y-108610136D01*
X132221284Y-108610133D01*
X132085957Y-108583215D01*
X132085955Y-108583215D01*
X131947969Y-108583215D01*
X131947967Y-108583215D01*
X131812639Y-108610133D01*
X131812629Y-108610136D01*
X131685157Y-108662936D01*
X131685144Y-108662943D01*
X131570420Y-108739600D01*
X131570416Y-108739603D01*
X131472850Y-108837169D01*
X131472847Y-108837173D01*
X131396190Y-108951897D01*
X131396185Y-108951907D01*
X131381523Y-108987305D01*
X131337682Y-109041709D01*
X131271387Y-109063773D01*
X131203688Y-109046493D01*
X131156078Y-108995356D01*
X131152401Y-108987305D01*
X131137738Y-108951907D01*
X131137737Y-108951904D01*
X131137735Y-108951901D01*
X131137733Y-108951897D01*
X131061076Y-108837173D01*
X131061073Y-108837169D01*
X130963507Y-108739603D01*
X130963503Y-108739600D01*
X130848779Y-108662943D01*
X130848766Y-108662936D01*
X130721294Y-108610136D01*
X130721284Y-108610133D01*
X130585957Y-108583215D01*
X130585955Y-108583215D01*
X130447969Y-108583215D01*
X130447967Y-108583215D01*
X130312639Y-108610133D01*
X130312629Y-108610136D01*
X130185157Y-108662936D01*
X130185144Y-108662943D01*
X130070420Y-108739600D01*
X130070416Y-108739603D01*
X129972850Y-108837169D01*
X129972847Y-108837173D01*
X129896190Y-108951897D01*
X129896185Y-108951907D01*
X129881523Y-108987305D01*
X129837682Y-109041709D01*
X129771387Y-109063773D01*
X129703688Y-109046493D01*
X129656078Y-108995356D01*
X129652401Y-108987305D01*
X129637738Y-108951907D01*
X129637737Y-108951904D01*
X129637735Y-108951901D01*
X129637733Y-108951897D01*
X129561076Y-108837173D01*
X129561073Y-108837169D01*
X129463507Y-108739603D01*
X129463503Y-108739600D01*
X129348779Y-108662943D01*
X129348766Y-108662936D01*
X129221294Y-108610136D01*
X129221284Y-108610133D01*
X129085957Y-108583215D01*
X129085955Y-108583215D01*
X128947969Y-108583215D01*
X128947967Y-108583215D01*
X128812639Y-108610133D01*
X128812629Y-108610136D01*
X128685157Y-108662936D01*
X128685144Y-108662943D01*
X128570420Y-108739600D01*
X128570416Y-108739603D01*
X128472850Y-108837169D01*
X128472847Y-108837173D01*
X128396190Y-108951897D01*
X128396185Y-108951907D01*
X128381523Y-108987305D01*
X128337682Y-109041709D01*
X128271387Y-109063773D01*
X128203688Y-109046493D01*
X128156078Y-108995356D01*
X128152401Y-108987305D01*
X128137738Y-108951907D01*
X128137737Y-108951904D01*
X128137735Y-108951901D01*
X128137733Y-108951897D01*
X128061076Y-108837173D01*
X128061073Y-108837169D01*
X127963507Y-108739603D01*
X127963503Y-108739600D01*
X127848779Y-108662943D01*
X127848766Y-108662936D01*
X127721294Y-108610136D01*
X127721284Y-108610133D01*
X127585957Y-108583215D01*
X127585955Y-108583215D01*
X127447969Y-108583215D01*
X127447967Y-108583215D01*
X127312639Y-108610133D01*
X127312629Y-108610136D01*
X127185157Y-108662936D01*
X127185144Y-108662943D01*
X127070420Y-108739600D01*
X127070416Y-108739603D01*
X126972850Y-108837169D01*
X126972847Y-108837173D01*
X126896190Y-108951897D01*
X126896185Y-108951907D01*
X126881523Y-108987305D01*
X126837682Y-109041709D01*
X126771387Y-109063773D01*
X126703688Y-109046493D01*
X126656078Y-108995356D01*
X126652401Y-108987305D01*
X126637738Y-108951907D01*
X126637737Y-108951904D01*
X126637735Y-108951901D01*
X126637733Y-108951897D01*
X126561076Y-108837173D01*
X126561073Y-108837169D01*
X126463507Y-108739603D01*
X126463503Y-108739600D01*
X126348779Y-108662943D01*
X126348766Y-108662936D01*
X126221294Y-108610136D01*
X126221284Y-108610133D01*
X126085957Y-108583215D01*
X126085955Y-108583215D01*
X125947969Y-108583215D01*
X125947967Y-108583215D01*
X125812639Y-108610133D01*
X125812629Y-108610136D01*
X125685157Y-108662936D01*
X125685144Y-108662943D01*
X125570420Y-108739600D01*
X125570416Y-108739603D01*
X125472850Y-108837169D01*
X125472847Y-108837173D01*
X125396190Y-108951897D01*
X125396185Y-108951907D01*
X125381523Y-108987305D01*
X125337682Y-109041709D01*
X125271387Y-109063773D01*
X125203688Y-109046493D01*
X125156078Y-108995356D01*
X125152401Y-108987305D01*
X125137738Y-108951907D01*
X125137737Y-108951904D01*
X125137735Y-108951901D01*
X125137733Y-108951897D01*
X125061076Y-108837173D01*
X125061073Y-108837169D01*
X124963507Y-108739603D01*
X124963503Y-108739600D01*
X124848779Y-108662943D01*
X124848766Y-108662936D01*
X124721294Y-108610136D01*
X124721284Y-108610133D01*
X124585957Y-108583215D01*
X124585955Y-108583215D01*
X124447969Y-108583215D01*
X124447967Y-108583215D01*
X124312639Y-108610133D01*
X124312629Y-108610136D01*
X124185157Y-108662936D01*
X124185144Y-108662943D01*
X124070420Y-108739600D01*
X124070416Y-108739603D01*
X123972850Y-108837169D01*
X123972847Y-108837173D01*
X123896190Y-108951897D01*
X123896185Y-108951907D01*
X123881523Y-108987305D01*
X123837682Y-109041709D01*
X123771387Y-109063773D01*
X123703688Y-109046493D01*
X123656078Y-108995356D01*
X123652401Y-108987305D01*
X123637738Y-108951907D01*
X123637737Y-108951904D01*
X123637735Y-108951901D01*
X123637733Y-108951897D01*
X123561076Y-108837173D01*
X123561073Y-108837169D01*
X123463507Y-108739603D01*
X123463503Y-108739600D01*
X123348779Y-108662943D01*
X123348766Y-108662936D01*
X123221294Y-108610136D01*
X123221284Y-108610133D01*
X123085957Y-108583215D01*
X123085955Y-108583215D01*
X122947969Y-108583215D01*
X122947967Y-108583215D01*
X122812639Y-108610133D01*
X122812629Y-108610136D01*
X122685157Y-108662936D01*
X122685144Y-108662943D01*
X122570420Y-108739600D01*
X122570416Y-108739603D01*
X122472850Y-108837169D01*
X122472847Y-108837173D01*
X122396190Y-108951897D01*
X122396185Y-108951907D01*
X122381523Y-108987305D01*
X122337682Y-109041709D01*
X122271387Y-109063773D01*
X122203688Y-109046493D01*
X122156078Y-108995356D01*
X122152401Y-108987305D01*
X122137738Y-108951907D01*
X122137737Y-108951904D01*
X122137735Y-108951901D01*
X122137733Y-108951897D01*
X122061076Y-108837173D01*
X122061073Y-108837169D01*
X121963507Y-108739603D01*
X121963503Y-108739600D01*
X121848779Y-108662943D01*
X121848766Y-108662936D01*
X121721294Y-108610136D01*
X121721284Y-108610133D01*
X121585957Y-108583215D01*
X121585955Y-108583215D01*
X121447969Y-108583215D01*
X121447967Y-108583215D01*
X121312639Y-108610133D01*
X121312629Y-108610136D01*
X121185157Y-108662936D01*
X121185144Y-108662943D01*
X121070420Y-108739600D01*
X121070416Y-108739603D01*
X120972850Y-108837169D01*
X120972847Y-108837173D01*
X120896190Y-108951897D01*
X120896185Y-108951907D01*
X120881523Y-108987305D01*
X120837682Y-109041709D01*
X120771387Y-109063773D01*
X120703688Y-109046493D01*
X120656078Y-108995356D01*
X120652401Y-108987305D01*
X120637738Y-108951907D01*
X120637737Y-108951904D01*
X120637735Y-108951901D01*
X120637733Y-108951897D01*
X120561076Y-108837173D01*
X120561073Y-108837169D01*
X120463507Y-108739603D01*
X120463503Y-108739600D01*
X120348779Y-108662943D01*
X120348766Y-108662936D01*
X120221294Y-108610136D01*
X120221284Y-108610133D01*
X120085957Y-108583215D01*
X120085955Y-108583215D01*
X119947969Y-108583215D01*
X119947967Y-108583215D01*
X119812639Y-108610133D01*
X119812629Y-108610136D01*
X119685157Y-108662936D01*
X119685144Y-108662943D01*
X119570420Y-108739600D01*
X119570416Y-108739603D01*
X119472850Y-108837169D01*
X119472847Y-108837173D01*
X119396190Y-108951897D01*
X119396185Y-108951907D01*
X119381523Y-108987305D01*
X119337682Y-109041709D01*
X119271387Y-109063773D01*
X119203688Y-109046493D01*
X119156078Y-108995356D01*
X119152401Y-108987305D01*
X119137738Y-108951907D01*
X119137737Y-108951904D01*
X119137735Y-108951901D01*
X119137733Y-108951897D01*
X119061076Y-108837173D01*
X119061073Y-108837169D01*
X118963507Y-108739603D01*
X118963503Y-108739600D01*
X118848779Y-108662943D01*
X118848766Y-108662936D01*
X118721294Y-108610136D01*
X118721284Y-108610133D01*
X118585957Y-108583215D01*
X118585955Y-108583215D01*
X118447969Y-108583215D01*
X118447967Y-108583215D01*
X118312639Y-108610133D01*
X118312629Y-108610136D01*
X118185157Y-108662936D01*
X118185144Y-108662943D01*
X118070420Y-108739600D01*
X118070416Y-108739603D01*
X117972850Y-108837169D01*
X117972847Y-108837173D01*
X117896190Y-108951897D01*
X117896185Y-108951907D01*
X117881523Y-108987305D01*
X117837682Y-109041709D01*
X117771387Y-109063773D01*
X117703688Y-109046493D01*
X117656078Y-108995356D01*
X117652401Y-108987305D01*
X117637738Y-108951907D01*
X117637737Y-108951904D01*
X117637735Y-108951901D01*
X117637733Y-108951897D01*
X117561076Y-108837173D01*
X117561073Y-108837169D01*
X117463507Y-108739603D01*
X117463503Y-108739600D01*
X117348779Y-108662943D01*
X117348766Y-108662936D01*
X117221294Y-108610136D01*
X117221284Y-108610133D01*
X117085957Y-108583215D01*
X117085955Y-108583215D01*
X116947969Y-108583215D01*
X116947967Y-108583215D01*
X116812639Y-108610133D01*
X116812629Y-108610136D01*
X116685157Y-108662936D01*
X116685144Y-108662943D01*
X116570420Y-108739600D01*
X116570416Y-108739603D01*
X116472850Y-108837169D01*
X116472847Y-108837173D01*
X116396190Y-108951897D01*
X116396185Y-108951907D01*
X116381523Y-108987305D01*
X116337682Y-109041709D01*
X116271387Y-109063773D01*
X116203688Y-109046493D01*
X116156078Y-108995356D01*
X116152401Y-108987305D01*
X116137738Y-108951907D01*
X116137737Y-108951904D01*
X116137735Y-108951901D01*
X116137733Y-108951897D01*
X116061076Y-108837173D01*
X116061073Y-108837169D01*
X115963507Y-108739603D01*
X115963503Y-108739600D01*
X115848779Y-108662943D01*
X115848766Y-108662936D01*
X115721294Y-108610136D01*
X115721284Y-108610133D01*
X115585957Y-108583215D01*
X115585955Y-108583215D01*
X115447969Y-108583215D01*
X115447967Y-108583215D01*
X115312639Y-108610133D01*
X115312629Y-108610136D01*
X115185157Y-108662936D01*
X115185144Y-108662943D01*
X115070420Y-108739600D01*
X115070416Y-108739603D01*
X114972850Y-108837169D01*
X114972847Y-108837173D01*
X114896190Y-108951897D01*
X114896185Y-108951907D01*
X114881523Y-108987305D01*
X114837682Y-109041709D01*
X114771387Y-109063773D01*
X114703688Y-109046493D01*
X114656078Y-108995356D01*
X114652401Y-108987305D01*
X114637738Y-108951907D01*
X114637737Y-108951904D01*
X114637735Y-108951901D01*
X114637733Y-108951897D01*
X114561076Y-108837173D01*
X114561073Y-108837169D01*
X114463507Y-108739603D01*
X114463503Y-108739600D01*
X114348779Y-108662943D01*
X114348766Y-108662936D01*
X114221294Y-108610136D01*
X114221284Y-108610133D01*
X114085957Y-108583215D01*
X114085955Y-108583215D01*
X113947969Y-108583215D01*
X113947967Y-108583215D01*
X113812639Y-108610133D01*
X113812629Y-108610136D01*
X113685157Y-108662936D01*
X113685144Y-108662943D01*
X113570420Y-108739600D01*
X113570416Y-108739603D01*
X113472850Y-108837169D01*
X113472847Y-108837173D01*
X113396190Y-108951897D01*
X113396185Y-108951907D01*
X113381523Y-108987305D01*
X113337682Y-109041709D01*
X113271387Y-109063773D01*
X113203688Y-109046493D01*
X113156078Y-108995356D01*
X113152401Y-108987305D01*
X113137738Y-108951907D01*
X113137737Y-108951904D01*
X113137735Y-108951901D01*
X113137733Y-108951897D01*
X113061076Y-108837173D01*
X113061073Y-108837169D01*
X112963507Y-108739603D01*
X112963503Y-108739600D01*
X112848779Y-108662943D01*
X112848766Y-108662936D01*
X112721294Y-108610136D01*
X112721284Y-108610133D01*
X112585957Y-108583215D01*
X112585955Y-108583215D01*
X112447969Y-108583215D01*
X112447967Y-108583215D01*
X112312639Y-108610133D01*
X112312629Y-108610136D01*
X112185157Y-108662936D01*
X112185144Y-108662943D01*
X112070420Y-108739600D01*
X112070416Y-108739603D01*
X111972850Y-108837169D01*
X111972847Y-108837173D01*
X111896190Y-108951897D01*
X111896185Y-108951907D01*
X111881523Y-108987305D01*
X111837682Y-109041709D01*
X111771387Y-109063773D01*
X111703688Y-109046493D01*
X111656078Y-108995356D01*
X111652401Y-108987305D01*
X111637738Y-108951907D01*
X111637737Y-108951904D01*
X111637735Y-108951901D01*
X111637733Y-108951897D01*
X111561076Y-108837173D01*
X111561073Y-108837169D01*
X111463507Y-108739603D01*
X111463503Y-108739600D01*
X111348779Y-108662943D01*
X111348766Y-108662936D01*
X111221294Y-108610136D01*
X111221284Y-108610133D01*
X111085957Y-108583215D01*
X111085955Y-108583215D01*
X110947969Y-108583215D01*
X110947967Y-108583215D01*
X110812639Y-108610133D01*
X110812629Y-108610136D01*
X110685157Y-108662936D01*
X110685144Y-108662943D01*
X110570420Y-108739600D01*
X110570416Y-108739603D01*
X110472850Y-108837169D01*
X110472847Y-108837173D01*
X110396190Y-108951897D01*
X110396185Y-108951907D01*
X110381523Y-108987305D01*
X110337682Y-109041709D01*
X110271387Y-109063773D01*
X110203688Y-109046493D01*
X110156078Y-108995356D01*
X110152401Y-108987305D01*
X110137738Y-108951907D01*
X110137737Y-108951904D01*
X110137735Y-108951901D01*
X110137733Y-108951897D01*
X110061076Y-108837173D01*
X110061073Y-108837169D01*
X109963507Y-108739603D01*
X109963503Y-108739600D01*
X109848779Y-108662943D01*
X109848766Y-108662936D01*
X109721294Y-108610136D01*
X109721284Y-108610133D01*
X109585957Y-108583215D01*
X109585955Y-108583215D01*
X109447969Y-108583215D01*
X109447967Y-108583215D01*
X109312639Y-108610133D01*
X109312629Y-108610136D01*
X109185157Y-108662936D01*
X109185144Y-108662943D01*
X109070420Y-108739600D01*
X109070416Y-108739603D01*
X108972850Y-108837169D01*
X108972847Y-108837173D01*
X108896190Y-108951897D01*
X108896185Y-108951907D01*
X108881523Y-108987305D01*
X108837682Y-109041709D01*
X108771387Y-109063773D01*
X108703688Y-109046493D01*
X108656078Y-108995356D01*
X108652401Y-108987305D01*
X108637738Y-108951907D01*
X108637737Y-108951904D01*
X108637735Y-108951901D01*
X108637733Y-108951897D01*
X108561076Y-108837173D01*
X108561073Y-108837169D01*
X108463507Y-108739603D01*
X108463503Y-108739600D01*
X108348779Y-108662943D01*
X108348766Y-108662936D01*
X108221294Y-108610136D01*
X108221284Y-108610133D01*
X108085957Y-108583215D01*
X108085955Y-108583215D01*
X107947969Y-108583215D01*
X107947967Y-108583215D01*
X107812639Y-108610133D01*
X107812629Y-108610136D01*
X107685157Y-108662936D01*
X107685144Y-108662943D01*
X107570420Y-108739600D01*
X107570416Y-108739603D01*
X107472850Y-108837169D01*
X107472847Y-108837173D01*
X107396190Y-108951897D01*
X107396185Y-108951907D01*
X107381523Y-108987305D01*
X107337682Y-109041709D01*
X107271387Y-109063773D01*
X107203688Y-109046493D01*
X107156078Y-108995356D01*
X107152401Y-108987305D01*
X107137738Y-108951907D01*
X107137737Y-108951904D01*
X107137735Y-108951901D01*
X107137733Y-108951897D01*
X107061076Y-108837173D01*
X107061073Y-108837169D01*
X106963507Y-108739603D01*
X106963503Y-108739600D01*
X106848779Y-108662943D01*
X106848766Y-108662936D01*
X106721294Y-108610136D01*
X106721284Y-108610133D01*
X106585957Y-108583215D01*
X106585955Y-108583215D01*
X106447969Y-108583215D01*
X106447967Y-108583215D01*
X106312639Y-108610133D01*
X106312629Y-108610136D01*
X106185157Y-108662936D01*
X106185144Y-108662943D01*
X106070420Y-108739600D01*
X106070416Y-108739603D01*
X105972850Y-108837169D01*
X105972847Y-108837173D01*
X105896190Y-108951897D01*
X105896185Y-108951907D01*
X105881523Y-108987305D01*
X105837682Y-109041709D01*
X105771387Y-109063773D01*
X105703688Y-109046493D01*
X105656078Y-108995356D01*
X105652401Y-108987305D01*
X105637738Y-108951907D01*
X105637737Y-108951904D01*
X105637735Y-108951901D01*
X105637733Y-108951897D01*
X105561076Y-108837173D01*
X105561073Y-108837169D01*
X105463507Y-108739603D01*
X105463503Y-108739600D01*
X105348779Y-108662943D01*
X105348766Y-108662936D01*
X105221294Y-108610136D01*
X105221284Y-108610133D01*
X105085957Y-108583215D01*
X105085955Y-108583215D01*
X104947969Y-108583215D01*
X104947967Y-108583215D01*
X104812639Y-108610133D01*
X104812629Y-108610136D01*
X104685157Y-108662936D01*
X104685144Y-108662943D01*
X104570420Y-108739600D01*
X104570416Y-108739603D01*
X104472850Y-108837169D01*
X104472847Y-108837173D01*
X104396190Y-108951897D01*
X104396185Y-108951907D01*
X104381523Y-108987305D01*
X104337682Y-109041709D01*
X104271387Y-109063773D01*
X104203688Y-109046493D01*
X104156078Y-108995356D01*
X104152401Y-108987305D01*
X104137738Y-108951907D01*
X104137737Y-108951904D01*
X104137735Y-108951901D01*
X104137733Y-108951897D01*
X104061076Y-108837173D01*
X104061073Y-108837169D01*
X103963507Y-108739603D01*
X103963503Y-108739600D01*
X103848779Y-108662943D01*
X103848766Y-108662936D01*
X103721294Y-108610136D01*
X103721284Y-108610133D01*
X103585957Y-108583215D01*
X103585955Y-108583215D01*
X103447969Y-108583215D01*
X103447967Y-108583215D01*
X103312639Y-108610133D01*
X103312629Y-108610136D01*
X103185157Y-108662936D01*
X103185144Y-108662943D01*
X103070420Y-108739600D01*
X103070416Y-108739603D01*
X102972850Y-108837169D01*
X102972847Y-108837173D01*
X102896190Y-108951897D01*
X102896185Y-108951907D01*
X102881523Y-108987305D01*
X102837682Y-109041709D01*
X102771387Y-109063773D01*
X102703688Y-109046493D01*
X102656078Y-108995356D01*
X102652401Y-108987305D01*
X102637738Y-108951907D01*
X102637737Y-108951904D01*
X102637735Y-108951901D01*
X102637733Y-108951897D01*
X102561076Y-108837173D01*
X102561073Y-108837169D01*
X102463507Y-108739603D01*
X102463503Y-108739600D01*
X102348779Y-108662943D01*
X102348766Y-108662936D01*
X102221294Y-108610136D01*
X102221284Y-108610133D01*
X102085957Y-108583215D01*
X102085955Y-108583215D01*
X101947969Y-108583215D01*
X101947967Y-108583215D01*
X101812639Y-108610133D01*
X101812629Y-108610136D01*
X101685157Y-108662936D01*
X101685144Y-108662943D01*
X101570420Y-108739600D01*
X101570416Y-108739603D01*
X101472850Y-108837169D01*
X101472847Y-108837173D01*
X101396190Y-108951897D01*
X101396185Y-108951907D01*
X101381523Y-108987305D01*
X101337682Y-109041709D01*
X101271387Y-109063773D01*
X101203688Y-109046493D01*
X101156078Y-108995356D01*
X101152401Y-108987305D01*
X101137738Y-108951907D01*
X101137737Y-108951904D01*
X101137735Y-108951901D01*
X101137733Y-108951897D01*
X101061076Y-108837173D01*
X101061073Y-108837169D01*
X100963507Y-108739603D01*
X100963503Y-108739600D01*
X100848779Y-108662943D01*
X100848766Y-108662936D01*
X100721294Y-108610136D01*
X100721284Y-108610133D01*
X100585957Y-108583215D01*
X100585955Y-108583215D01*
X100447969Y-108583215D01*
X100447967Y-108583215D01*
X100312639Y-108610133D01*
X100312629Y-108610136D01*
X100185157Y-108662936D01*
X100185144Y-108662943D01*
X100070420Y-108739600D01*
X100070416Y-108739603D01*
X99972850Y-108837169D01*
X99972847Y-108837173D01*
X99896190Y-108951897D01*
X99896185Y-108951907D01*
X99881523Y-108987305D01*
X99837682Y-109041709D01*
X99771387Y-109063773D01*
X99703688Y-109046493D01*
X99656078Y-108995356D01*
X99652401Y-108987305D01*
X99637738Y-108951907D01*
X99637737Y-108951904D01*
X99637735Y-108951901D01*
X99637733Y-108951897D01*
X99561076Y-108837173D01*
X99561073Y-108837169D01*
X99463507Y-108739603D01*
X99463503Y-108739600D01*
X99348779Y-108662943D01*
X99348766Y-108662936D01*
X99221294Y-108610136D01*
X99221284Y-108610133D01*
X99085957Y-108583215D01*
X99085955Y-108583215D01*
X98947969Y-108583215D01*
X98947967Y-108583215D01*
X98812639Y-108610133D01*
X98812629Y-108610136D01*
X98685157Y-108662936D01*
X98685144Y-108662943D01*
X98570420Y-108739600D01*
X98570416Y-108739603D01*
X98472850Y-108837169D01*
X98472847Y-108837173D01*
X98396190Y-108951897D01*
X98396185Y-108951907D01*
X98381523Y-108987305D01*
X98337682Y-109041709D01*
X98271387Y-109063773D01*
X98203688Y-109046493D01*
X98156078Y-108995356D01*
X98152401Y-108987305D01*
X98137738Y-108951907D01*
X98137737Y-108951904D01*
X98137735Y-108951901D01*
X98137733Y-108951897D01*
X98061076Y-108837173D01*
X98061073Y-108837169D01*
X97963507Y-108739603D01*
X97963503Y-108739600D01*
X97848779Y-108662943D01*
X97848766Y-108662936D01*
X97721294Y-108610136D01*
X97721284Y-108610133D01*
X97585957Y-108583215D01*
X97585955Y-108583215D01*
X97447969Y-108583215D01*
X97447967Y-108583215D01*
X97312639Y-108610133D01*
X97312629Y-108610136D01*
X97185157Y-108662936D01*
X97185144Y-108662943D01*
X97070420Y-108739600D01*
X97070416Y-108739603D01*
X96972850Y-108837169D01*
X96972847Y-108837173D01*
X96896190Y-108951897D01*
X96896185Y-108951907D01*
X96881523Y-108987305D01*
X96837682Y-109041709D01*
X96771387Y-109063773D01*
X96703688Y-109046493D01*
X96656078Y-108995356D01*
X96652401Y-108987305D01*
X96637738Y-108951907D01*
X96637737Y-108951904D01*
X96637735Y-108951901D01*
X96637733Y-108951897D01*
X96561076Y-108837173D01*
X96561073Y-108837169D01*
X96463507Y-108739603D01*
X96463503Y-108739600D01*
X96348779Y-108662943D01*
X96348766Y-108662936D01*
X96221294Y-108610136D01*
X96221284Y-108610133D01*
X96085957Y-108583215D01*
X96085955Y-108583215D01*
X95947969Y-108583215D01*
X95947967Y-108583215D01*
X95812639Y-108610133D01*
X95812629Y-108610136D01*
X95685157Y-108662936D01*
X95685144Y-108662943D01*
X95570420Y-108739600D01*
X95570416Y-108739603D01*
X95472850Y-108837169D01*
X95472847Y-108837173D01*
X95396190Y-108951897D01*
X95396185Y-108951907D01*
X95381523Y-108987305D01*
X95337682Y-109041709D01*
X95271387Y-109063773D01*
X95203688Y-109046493D01*
X95156078Y-108995356D01*
X95152401Y-108987305D01*
X95137738Y-108951907D01*
X95137737Y-108951904D01*
X95137735Y-108951901D01*
X95137733Y-108951897D01*
X95061076Y-108837173D01*
X95061073Y-108837169D01*
X94963507Y-108739603D01*
X94963503Y-108739600D01*
X94848779Y-108662943D01*
X94848766Y-108662936D01*
X94721294Y-108610136D01*
X94721284Y-108610133D01*
X94585957Y-108583215D01*
X94585955Y-108583215D01*
X94447969Y-108583215D01*
X94447967Y-108583215D01*
X94312639Y-108610133D01*
X94312629Y-108610136D01*
X94185157Y-108662936D01*
X94185144Y-108662943D01*
X94070420Y-108739600D01*
X94070416Y-108739603D01*
X93972850Y-108837169D01*
X93972847Y-108837173D01*
X93896190Y-108951897D01*
X93896185Y-108951907D01*
X93881523Y-108987305D01*
X93837682Y-109041709D01*
X93771387Y-109063773D01*
X93703688Y-109046493D01*
X93656078Y-108995356D01*
X93652401Y-108987305D01*
X93637738Y-108951907D01*
X93637737Y-108951904D01*
X93637735Y-108951901D01*
X93637733Y-108951897D01*
X93561076Y-108837173D01*
X93561073Y-108837169D01*
X93463507Y-108739603D01*
X93463503Y-108739600D01*
X93348779Y-108662943D01*
X93348766Y-108662936D01*
X93221294Y-108610136D01*
X93221284Y-108610133D01*
X93085957Y-108583215D01*
X93085955Y-108583215D01*
X92947969Y-108583215D01*
X92947967Y-108583215D01*
X92812639Y-108610133D01*
X92812629Y-108610136D01*
X92685157Y-108662936D01*
X92685144Y-108662943D01*
X92570420Y-108739600D01*
X92570416Y-108739603D01*
X92472850Y-108837169D01*
X92472847Y-108837173D01*
X92396190Y-108951897D01*
X92396185Y-108951907D01*
X92381523Y-108987305D01*
X92337682Y-109041709D01*
X92271387Y-109063773D01*
X92203688Y-109046493D01*
X92156078Y-108995356D01*
X92152401Y-108987305D01*
X92137738Y-108951907D01*
X92137737Y-108951904D01*
X92137735Y-108951901D01*
X92137733Y-108951897D01*
X92061076Y-108837173D01*
X92061073Y-108837169D01*
X91963507Y-108739603D01*
X91963503Y-108739600D01*
X91848779Y-108662943D01*
X91848766Y-108662936D01*
X91721294Y-108610136D01*
X91721284Y-108610133D01*
X91585957Y-108583215D01*
X91585955Y-108583215D01*
X91447969Y-108583215D01*
X91447967Y-108583215D01*
X91312639Y-108610133D01*
X91312629Y-108610136D01*
X91185157Y-108662936D01*
X91185144Y-108662943D01*
X91070420Y-108739600D01*
X91070416Y-108739603D01*
X90972850Y-108837169D01*
X90972847Y-108837173D01*
X90896190Y-108951897D01*
X90896185Y-108951907D01*
X90881523Y-108987305D01*
X90837682Y-109041709D01*
X90771387Y-109063773D01*
X90703688Y-109046493D01*
X90656078Y-108995356D01*
X90652401Y-108987305D01*
X90637738Y-108951907D01*
X90637737Y-108951904D01*
X90637735Y-108951901D01*
X90637733Y-108951897D01*
X90561076Y-108837173D01*
X90561073Y-108837169D01*
X90463507Y-108739603D01*
X90463503Y-108739600D01*
X90348779Y-108662943D01*
X90348766Y-108662936D01*
X90221294Y-108610136D01*
X90221284Y-108610133D01*
X90085957Y-108583215D01*
X90085955Y-108583215D01*
X89947969Y-108583215D01*
X89947967Y-108583215D01*
X89812639Y-108610133D01*
X89812629Y-108610136D01*
X89685157Y-108662936D01*
X89685144Y-108662943D01*
X89570420Y-108739600D01*
X89570416Y-108739603D01*
X89472850Y-108837169D01*
X89472847Y-108837173D01*
X89396190Y-108951897D01*
X89396183Y-108951910D01*
X89343383Y-109079382D01*
X89343380Y-109079392D01*
X89316462Y-109214719D01*
X89316462Y-109214722D01*
X89316462Y-109352708D01*
X89316462Y-109352710D01*
X89316461Y-109352710D01*
X88967462Y-109352710D01*
X88967462Y-109352708D01*
X88967462Y-109214722D01*
X88967462Y-109214719D01*
X88940543Y-109079392D01*
X88940542Y-109079391D01*
X88940542Y-109079387D01*
X88939007Y-109075680D01*
X88887740Y-108951910D01*
X88887733Y-108951897D01*
X88811076Y-108837173D01*
X88811073Y-108837169D01*
X88713507Y-108739603D01*
X88713503Y-108739600D01*
X88598779Y-108662943D01*
X88598766Y-108662936D01*
X88471294Y-108610136D01*
X88471284Y-108610133D01*
X88335957Y-108583215D01*
X88335955Y-108583215D01*
X88197969Y-108583215D01*
X88197967Y-108583215D01*
X88062639Y-108610133D01*
X88062629Y-108610136D01*
X87935157Y-108662936D01*
X87935144Y-108662943D01*
X87820420Y-108739600D01*
X87820416Y-108739603D01*
X87722850Y-108837169D01*
X87722847Y-108837173D01*
X87646190Y-108951897D01*
X87646183Y-108951910D01*
X87593383Y-109079382D01*
X87593380Y-109079392D01*
X87566462Y-109214719D01*
X87566462Y-109214722D01*
X87566462Y-109352708D01*
X87566462Y-109352710D01*
X87566461Y-109352710D01*
X87195500Y-109352710D01*
X87195500Y-108493236D01*
X134830038Y-108493236D01*
X134830038Y-108493237D01*
X135266962Y-108930161D01*
X135266963Y-108930161D01*
X135703885Y-108493237D01*
X135693273Y-108486145D01*
X135529482Y-108418301D01*
X135529474Y-108418299D01*
X135355608Y-108383715D01*
X135178315Y-108383715D01*
X135004449Y-108418299D01*
X135004441Y-108418301D01*
X134840653Y-108486144D01*
X134830038Y-108493236D01*
X87195500Y-108493236D01*
X87195500Y-106689438D01*
X87180562Y-106674500D01*
X85724000Y-106674500D01*
X85715314Y-106671949D01*
X85706353Y-106673238D01*
X85682312Y-106662259D01*
X85656961Y-106654815D01*
X85651033Y-106647974D01*
X85642797Y-106644213D01*
X85628507Y-106621978D01*
X85611206Y-106602011D01*
X85608918Y-106591496D01*
X85605023Y-106585435D01*
X85600000Y-106550500D01*
X85600000Y-106515744D01*
X87664612Y-106515744D01*
X87664612Y-106673858D01*
X87690030Y-106768717D01*
X87705535Y-106826584D01*
X87705538Y-106826591D01*
X87784587Y-106963510D01*
X87784591Y-106963515D01*
X87784592Y-106963517D01*
X87896396Y-107075321D01*
X87896398Y-107075322D01*
X87896402Y-107075325D01*
X88033321Y-107154374D01*
X88033328Y-107154378D01*
X88186055Y-107195301D01*
X88186057Y-107195301D01*
X88344167Y-107195301D01*
X88344169Y-107195301D01*
X88496896Y-107154378D01*
X88633828Y-107075321D01*
X88745632Y-106963517D01*
X88824689Y-106826585D01*
X88865612Y-106673858D01*
X88865612Y-106515744D01*
X88824689Y-106363017D01*
X88771609Y-106271079D01*
X88745636Y-106226091D01*
X88745630Y-106226083D01*
X88740028Y-106220481D01*
X88706543Y-106159158D01*
X88711527Y-106089466D01*
X88740028Y-106045119D01*
X88753048Y-106032100D01*
X88832105Y-105895168D01*
X88873028Y-105742441D01*
X88873028Y-105584327D01*
X88832105Y-105431600D01*
X88768218Y-105320943D01*
X120574000Y-105320943D01*
X120574000Y-105479057D01*
X120610716Y-105616081D01*
X120614923Y-105631783D01*
X120614926Y-105631790D01*
X120693975Y-105768709D01*
X120693981Y-105768717D01*
X120750332Y-105825068D01*
X120783817Y-105886391D01*
X120778833Y-105956083D01*
X120750335Y-106000428D01*
X120719479Y-106031285D01*
X120719475Y-106031290D01*
X120640426Y-106168209D01*
X120640423Y-106168216D01*
X120599500Y-106320943D01*
X120599500Y-106479057D01*
X120637796Y-106621978D01*
X120640423Y-106631783D01*
X120640426Y-106631790D01*
X120719475Y-106768709D01*
X120719479Y-106768714D01*
X120719480Y-106768716D01*
X120831284Y-106880520D01*
X120831286Y-106880521D01*
X120831290Y-106880524D01*
X120968209Y-106959573D01*
X120968216Y-106959577D01*
X121120943Y-107000500D01*
X121120945Y-107000500D01*
X121279055Y-107000500D01*
X121279057Y-107000500D01*
X121431784Y-106959577D01*
X121568716Y-106880520D01*
X121680520Y-106768716D01*
X121759577Y-106631784D01*
X121800500Y-106479057D01*
X121800500Y-106320943D01*
X121759577Y-106168216D01*
X121688505Y-106045114D01*
X121680524Y-106031290D01*
X121680521Y-106031286D01*
X121680520Y-106031284D01*
X121624167Y-105974931D01*
X121590682Y-105913608D01*
X121595666Y-105843916D01*
X121609004Y-105817974D01*
X121615694Y-105808041D01*
X121655020Y-105768716D01*
X121732010Y-105635362D01*
X121734406Y-105631807D01*
X121758128Y-105612131D01*
X121780429Y-105590868D01*
X121784776Y-105590030D01*
X121788185Y-105587203D01*
X121818772Y-105583477D01*
X121849036Y-105577644D01*
X121853148Y-105579290D01*
X121857542Y-105578755D01*
X121885286Y-105592156D01*
X121913901Y-105603612D01*
X121917427Y-105607681D01*
X121920457Y-105609145D01*
X121924706Y-105616081D01*
X121944636Y-105639082D01*
X122019480Y-105768716D01*
X122131284Y-105880520D01*
X122131286Y-105880521D01*
X122131290Y-105880524D01*
X122198765Y-105919480D01*
X122268216Y-105959577D01*
X122420943Y-106000500D01*
X122420945Y-106000500D01*
X122579055Y-106000500D01*
X122579057Y-106000500D01*
X122731784Y-105959577D01*
X122868716Y-105880520D01*
X122980520Y-105768716D01*
X122995691Y-105742439D01*
X123042613Y-105661168D01*
X123093179Y-105612952D01*
X123161786Y-105599728D01*
X123226651Y-105625696D01*
X123257387Y-105661168D01*
X123319475Y-105768709D01*
X123319479Y-105768714D01*
X123319480Y-105768716D01*
X123431284Y-105880520D01*
X123431286Y-105880521D01*
X123431290Y-105880524D01*
X123498765Y-105919480D01*
X123568216Y-105959577D01*
X123720943Y-106000500D01*
X123720945Y-106000500D01*
X123879055Y-106000500D01*
X123879057Y-106000500D01*
X124031784Y-105959577D01*
X124168716Y-105880520D01*
X124280520Y-105768716D01*
X124359577Y-105631784D01*
X124400500Y-105479057D01*
X124400500Y-105320943D01*
X128824000Y-105320943D01*
X128824000Y-105479057D01*
X128860716Y-105616081D01*
X128864923Y-105631783D01*
X128864926Y-105631790D01*
X128943975Y-105768709D01*
X128943979Y-105768714D01*
X128943980Y-105768716D01*
X129055784Y-105880520D01*
X129055786Y-105880521D01*
X129055790Y-105880524D01*
X129192713Y-105959576D01*
X129192715Y-105959576D01*
X129192716Y-105959577D01*
X129212201Y-105964797D01*
X129271861Y-106001160D01*
X129302392Y-106064006D01*
X129304110Y-106084573D01*
X129304110Y-106118352D01*
X129332977Y-106226083D01*
X129345033Y-106271078D01*
X129345036Y-106271085D01*
X129424085Y-106408004D01*
X129424089Y-106408009D01*
X129424090Y-106408011D01*
X129535894Y-106519815D01*
X129535896Y-106519816D01*
X129535900Y-106519819D01*
X129589042Y-106550500D01*
X129672826Y-106598872D01*
X129825553Y-106639795D01*
X129825555Y-106639795D01*
X129983665Y-106639795D01*
X129983667Y-106639795D01*
X130136394Y-106598872D01*
X130273326Y-106519815D01*
X130385130Y-106408011D01*
X130464187Y-106271079D01*
X130505110Y-106118352D01*
X130505110Y-106118343D01*
X130506171Y-106110292D01*
X130508860Y-106110646D01*
X130524795Y-106056380D01*
X130577599Y-106010625D01*
X130637315Y-106001678D01*
X130637315Y-106000500D01*
X130645180Y-106000500D01*
X130645307Y-106000481D01*
X130645435Y-106000497D01*
X130645443Y-106000500D01*
X130645451Y-106000500D01*
X130803555Y-106000500D01*
X130803557Y-106000500D01*
X130956284Y-105959577D01*
X131093216Y-105880520D01*
X131205020Y-105768716D01*
X131284077Y-105631784D01*
X131325000Y-105479057D01*
X131325000Y-105320943D01*
X132099500Y-105320943D01*
X132099500Y-105479057D01*
X132136216Y-105616081D01*
X132140423Y-105631783D01*
X132140426Y-105631790D01*
X132219475Y-105768709D01*
X132219479Y-105768714D01*
X132219480Y-105768716D01*
X132331284Y-105880520D01*
X132331286Y-105880521D01*
X132331290Y-105880524D01*
X132398765Y-105919480D01*
X132468216Y-105959577D01*
X132620943Y-106000500D01*
X132620945Y-106000500D01*
X132779055Y-106000500D01*
X132779057Y-106000500D01*
X132931784Y-105959577D01*
X133068716Y-105880520D01*
X133180520Y-105768716D01*
X133259577Y-105631784D01*
X133300500Y-105479057D01*
X133300500Y-105320943D01*
X133259577Y-105168216D01*
X133219779Y-105099283D01*
X133180524Y-105031290D01*
X133180518Y-105031282D01*
X133068717Y-104919481D01*
X133068709Y-104919475D01*
X132931790Y-104840426D01*
X132931786Y-104840424D01*
X132931784Y-104840423D01*
X132779057Y-104799500D01*
X132620943Y-104799500D01*
X132468216Y-104840423D01*
X132468209Y-104840426D01*
X132331290Y-104919475D01*
X132331282Y-104919481D01*
X132219481Y-105031282D01*
X132219475Y-105031290D01*
X132140426Y-105168209D01*
X132140423Y-105168216D01*
X132099500Y-105320943D01*
X131325000Y-105320943D01*
X131284077Y-105168216D01*
X131244279Y-105099283D01*
X131205024Y-105031290D01*
X131205018Y-105031282D01*
X131093217Y-104919481D01*
X131093209Y-104919475D01*
X130956290Y-104840426D01*
X130956286Y-104840424D01*
X130956284Y-104840423D01*
X130803557Y-104799500D01*
X130645443Y-104799500D01*
X130492716Y-104840423D01*
X130492709Y-104840426D01*
X130355790Y-104919475D01*
X130355782Y-104919481D01*
X130243981Y-105031282D01*
X130243977Y-105031287D01*
X130181887Y-105138832D01*
X130131320Y-105187047D01*
X130062713Y-105200271D01*
X129997848Y-105174303D01*
X129967113Y-105138832D01*
X129905022Y-105031287D01*
X129905018Y-105031282D01*
X129793217Y-104919481D01*
X129793209Y-104919475D01*
X129656290Y-104840426D01*
X129656286Y-104840424D01*
X129656284Y-104840423D01*
X129503557Y-104799500D01*
X129345443Y-104799500D01*
X129192716Y-104840423D01*
X129192709Y-104840426D01*
X129055790Y-104919475D01*
X129055782Y-104919481D01*
X128943981Y-105031282D01*
X128943975Y-105031290D01*
X128864926Y-105168209D01*
X128864923Y-105168216D01*
X128824000Y-105320943D01*
X124400500Y-105320943D01*
X124359577Y-105168216D01*
X124319779Y-105099283D01*
X124280524Y-105031290D01*
X124280518Y-105031282D01*
X124168717Y-104919481D01*
X124168709Y-104919475D01*
X124031790Y-104840426D01*
X124031786Y-104840424D01*
X124031784Y-104840423D01*
X123879057Y-104799500D01*
X123720943Y-104799500D01*
X123568216Y-104840423D01*
X123568209Y-104840426D01*
X123431290Y-104919475D01*
X123431282Y-104919481D01*
X123319481Y-105031282D01*
X123319477Y-105031287D01*
X123257387Y-105138832D01*
X123206820Y-105187047D01*
X123138213Y-105200271D01*
X123073348Y-105174303D01*
X123042613Y-105138832D01*
X122980522Y-105031287D01*
X122980518Y-105031282D01*
X122868717Y-104919481D01*
X122868709Y-104919475D01*
X122731790Y-104840426D01*
X122731786Y-104840424D01*
X122731784Y-104840423D01*
X122579057Y-104799500D01*
X122420943Y-104799500D01*
X122268216Y-104840423D01*
X122268209Y-104840426D01*
X122131290Y-104919475D01*
X122131282Y-104919481D01*
X122019481Y-105031282D01*
X122019477Y-105031287D01*
X121944637Y-105160916D01*
X121894070Y-105209131D01*
X121825463Y-105222355D01*
X121760599Y-105196387D01*
X121729863Y-105160916D01*
X121655022Y-105031287D01*
X121655018Y-105031282D01*
X121543217Y-104919481D01*
X121543209Y-104919475D01*
X121406290Y-104840426D01*
X121406286Y-104840424D01*
X121406284Y-104840423D01*
X121253557Y-104799500D01*
X121095443Y-104799500D01*
X120942716Y-104840423D01*
X120942709Y-104840426D01*
X120805790Y-104919475D01*
X120805782Y-104919481D01*
X120693981Y-105031282D01*
X120693975Y-105031290D01*
X120614926Y-105168209D01*
X120614923Y-105168216D01*
X120574000Y-105320943D01*
X88768218Y-105320943D01*
X88753052Y-105294674D01*
X88753046Y-105294666D01*
X88641245Y-105182865D01*
X88641237Y-105182859D01*
X88504318Y-105103810D01*
X88504314Y-105103808D01*
X88504312Y-105103807D01*
X88351585Y-105062884D01*
X88193471Y-105062884D01*
X88040744Y-105103807D01*
X88040737Y-105103810D01*
X87903818Y-105182859D01*
X87903810Y-105182865D01*
X87792009Y-105294666D01*
X87792003Y-105294674D01*
X87712954Y-105431593D01*
X87712951Y-105431600D01*
X87672028Y-105584327D01*
X87672028Y-105742441D01*
X87679069Y-105768716D01*
X87712951Y-105895167D01*
X87712954Y-105895174D01*
X87792003Y-106032093D01*
X87792009Y-106032101D01*
X87797610Y-106037702D01*
X87831095Y-106099025D01*
X87826111Y-106168717D01*
X87797615Y-106213060D01*
X87784590Y-106226085D01*
X87705538Y-106363010D01*
X87705535Y-106363017D01*
X87664612Y-106515744D01*
X85600000Y-106515744D01*
X85600000Y-102620943D01*
X102099500Y-102620943D01*
X102099500Y-102779057D01*
X102123525Y-102868717D01*
X102140423Y-102931783D01*
X102140426Y-102931790D01*
X102219475Y-103068709D01*
X102219479Y-103068714D01*
X102219480Y-103068716D01*
X102331284Y-103180520D01*
X102331286Y-103180521D01*
X102331290Y-103180524D01*
X102468209Y-103259573D01*
X102468216Y-103259577D01*
X102620943Y-103300500D01*
X102620945Y-103300500D01*
X102779055Y-103300500D01*
X102779057Y-103300500D01*
X102931784Y-103259577D01*
X103068716Y-103180520D01*
X103180520Y-103068716D01*
X103259577Y-102931784D01*
X103300500Y-102779057D01*
X103300500Y-102620943D01*
X103259577Y-102468216D01*
X103259573Y-102468209D01*
X103180524Y-102331290D01*
X103180518Y-102331282D01*
X103068717Y-102219481D01*
X103068709Y-102219475D01*
X102931790Y-102140426D01*
X102931786Y-102140424D01*
X102931784Y-102140423D01*
X102779057Y-102099500D01*
X102620943Y-102099500D01*
X102468216Y-102140423D01*
X102468209Y-102140426D01*
X102331290Y-102219475D01*
X102331282Y-102219481D01*
X102219481Y-102331282D01*
X102219475Y-102331290D01*
X102140426Y-102468209D01*
X102140423Y-102468216D01*
X102099500Y-102620943D01*
X85600000Y-102620943D01*
X85600000Y-101170513D01*
X107919500Y-101170513D01*
X107919500Y-101548832D01*
X107956581Y-101925339D01*
X108030384Y-102296376D01*
X108030387Y-102296387D01*
X108140212Y-102658433D01*
X108227312Y-102868709D01*
X108273625Y-102980520D01*
X108284992Y-103007961D01*
X108284994Y-103007966D01*
X108463326Y-103341601D01*
X108463343Y-103341629D01*
X108673506Y-103656162D01*
X108673523Y-103656185D01*
X108913531Y-103948634D01*
X109181038Y-104216141D01*
X109181043Y-104216145D01*
X109181044Y-104216146D01*
X109473493Y-104456154D01*
X109473500Y-104456159D01*
X109473510Y-104456166D01*
X109788043Y-104666329D01*
X109788048Y-104666332D01*
X109788060Y-104666340D01*
X109788069Y-104666344D01*
X109788071Y-104666346D01*
X110121706Y-104844678D01*
X110121708Y-104844678D01*
X110121714Y-104844682D01*
X110471241Y-104989461D01*
X110833276Y-105099283D01*
X110833282Y-105099284D01*
X110833285Y-105099285D01*
X110833296Y-105099288D01*
X111204333Y-105173091D01*
X111580837Y-105210173D01*
X111580840Y-105210173D01*
X111959160Y-105210173D01*
X111959163Y-105210173D01*
X112122668Y-105194069D01*
X112169946Y-105189413D01*
X112246923Y-105181831D01*
X112335667Y-105173091D01*
X112407899Y-105158723D01*
X112706703Y-105099288D01*
X112706714Y-105099285D01*
X112706714Y-105099284D01*
X112706724Y-105099283D01*
X113068759Y-104989461D01*
X113418286Y-104844682D01*
X113751940Y-104666340D01*
X114066507Y-104456154D01*
X114358956Y-104216146D01*
X114626473Y-103948629D01*
X114866481Y-103656180D01*
X115076667Y-103341613D01*
X115255009Y-103007959D01*
X115399788Y-102658432D01*
X115471829Y-102420943D01*
X122599500Y-102420943D01*
X122599500Y-102579057D01*
X122620769Y-102658432D01*
X122640423Y-102731783D01*
X122640426Y-102731790D01*
X122719475Y-102868709D01*
X122719479Y-102868714D01*
X122719480Y-102868716D01*
X122831284Y-102980520D01*
X122831286Y-102980521D01*
X122831290Y-102980524D01*
X122878822Y-103007966D01*
X122968216Y-103059577D01*
X123120943Y-103100500D01*
X123120945Y-103100500D01*
X123279055Y-103100500D01*
X123279057Y-103100500D01*
X123431784Y-103059577D01*
X123568716Y-102980520D01*
X123680520Y-102868716D01*
X123759577Y-102731784D01*
X123800500Y-102579057D01*
X123800500Y-102420943D01*
X131499500Y-102420943D01*
X131499500Y-102579057D01*
X131520769Y-102658432D01*
X131540423Y-102731783D01*
X131540426Y-102731790D01*
X131619475Y-102868709D01*
X131619479Y-102868714D01*
X131619480Y-102868716D01*
X131731284Y-102980520D01*
X131731286Y-102980521D01*
X131731290Y-102980524D01*
X131778822Y-103007966D01*
X131868216Y-103059577D01*
X132020943Y-103100500D01*
X132020945Y-103100500D01*
X132179055Y-103100500D01*
X132179057Y-103100500D01*
X132331784Y-103059577D01*
X132468716Y-102980520D01*
X132580520Y-102868716D01*
X132659577Y-102731784D01*
X132700500Y-102579057D01*
X132700500Y-102420943D01*
X132659577Y-102268216D01*
X132631437Y-102219475D01*
X132580524Y-102131290D01*
X132580518Y-102131282D01*
X132468717Y-102019481D01*
X132468709Y-102019475D01*
X132331790Y-101940426D01*
X132331786Y-101940424D01*
X132331784Y-101940423D01*
X132179057Y-101899500D01*
X132020943Y-101899500D01*
X131868216Y-101940423D01*
X131868209Y-101940426D01*
X131731290Y-102019475D01*
X131731282Y-102019481D01*
X131619481Y-102131282D01*
X131619475Y-102131290D01*
X131540426Y-102268209D01*
X131540423Y-102268216D01*
X131499500Y-102420943D01*
X123800500Y-102420943D01*
X123759577Y-102268216D01*
X123731437Y-102219475D01*
X123680524Y-102131290D01*
X123680518Y-102131282D01*
X123568717Y-102019481D01*
X123568709Y-102019475D01*
X123431790Y-101940426D01*
X123431786Y-101940424D01*
X123431784Y-101940423D01*
X123279057Y-101899500D01*
X123120943Y-101899500D01*
X122968216Y-101940423D01*
X122968209Y-101940426D01*
X122831290Y-102019475D01*
X122831282Y-102019481D01*
X122719481Y-102131282D01*
X122719475Y-102131290D01*
X122640426Y-102268209D01*
X122640423Y-102268216D01*
X122599500Y-102420943D01*
X115471829Y-102420943D01*
X115509610Y-102296397D01*
X115509612Y-102296387D01*
X115509615Y-102296376D01*
X115583418Y-101925339D01*
X115620500Y-101548832D01*
X115620500Y-101170513D01*
X115583418Y-100794006D01*
X115509615Y-100422969D01*
X115509612Y-100422958D01*
X115509611Y-100422955D01*
X115509610Y-100422949D01*
X115399788Y-100060914D01*
X115255009Y-99711387D01*
X115239185Y-99681783D01*
X115157550Y-99529055D01*
X115099763Y-99420943D01*
X117399500Y-99420943D01*
X117399500Y-99579057D01*
X117427026Y-99681783D01*
X117440423Y-99731783D01*
X117440426Y-99731790D01*
X117519475Y-99868709D01*
X117519479Y-99868714D01*
X117519480Y-99868716D01*
X117631284Y-99980520D01*
X117631286Y-99980521D01*
X117631290Y-99980524D01*
X117752492Y-100050499D01*
X117768216Y-100059577D01*
X117920943Y-100100500D01*
X117920945Y-100100500D01*
X118079055Y-100100500D01*
X118079057Y-100100500D01*
X118231784Y-100059577D01*
X118368716Y-99980520D01*
X118480520Y-99868716D01*
X118559577Y-99731784D01*
X118600500Y-99579057D01*
X118600500Y-99520943D01*
X122599500Y-99520943D01*
X122599500Y-99679057D01*
X122636922Y-99818716D01*
X122640423Y-99831783D01*
X122640426Y-99831790D01*
X122719475Y-99968709D01*
X122719479Y-99968714D01*
X122719480Y-99968716D01*
X122831284Y-100080520D01*
X122831286Y-100080521D01*
X122831290Y-100080524D01*
X122968209Y-100159573D01*
X122968216Y-100159577D01*
X123120943Y-100200500D01*
X123120945Y-100200500D01*
X123279055Y-100200500D01*
X123279057Y-100200500D01*
X123431784Y-100159577D01*
X123568716Y-100080520D01*
X123680520Y-99968716D01*
X123759577Y-99831784D01*
X123800500Y-99679057D01*
X123800500Y-99520943D01*
X123759577Y-99368216D01*
X123732285Y-99320945D01*
X123732284Y-99320943D01*
X131499500Y-99320943D01*
X131499500Y-99479057D01*
X131526295Y-99579055D01*
X131540423Y-99631783D01*
X131540426Y-99631790D01*
X131619475Y-99768709D01*
X131619479Y-99768714D01*
X131619480Y-99768716D01*
X131731284Y-99880520D01*
X131731286Y-99880521D01*
X131731290Y-99880524D01*
X131817887Y-99930520D01*
X131868216Y-99959577D01*
X132020943Y-100000500D01*
X132020945Y-100000500D01*
X132179055Y-100000500D01*
X132179057Y-100000500D01*
X132331784Y-99959577D01*
X132468716Y-99880520D01*
X132580520Y-99768716D01*
X132659577Y-99631784D01*
X132700500Y-99479057D01*
X132700500Y-99320943D01*
X132659577Y-99168216D01*
X132638258Y-99131290D01*
X132580524Y-99031290D01*
X132580518Y-99031282D01*
X132468717Y-98919481D01*
X132468709Y-98919475D01*
X132331790Y-98840426D01*
X132331786Y-98840424D01*
X132331784Y-98840423D01*
X132179057Y-98799500D01*
X132020943Y-98799500D01*
X131868216Y-98840423D01*
X131868209Y-98840426D01*
X131731290Y-98919475D01*
X131731282Y-98919481D01*
X131619481Y-99031282D01*
X131619475Y-99031290D01*
X131540426Y-99168209D01*
X131540423Y-99168216D01*
X131499500Y-99320943D01*
X123732284Y-99320943D01*
X123680522Y-99231287D01*
X123680518Y-99231282D01*
X123568717Y-99119481D01*
X123568709Y-99119475D01*
X123431790Y-99040426D01*
X123431786Y-99040424D01*
X123431784Y-99040423D01*
X123279057Y-98999500D01*
X123120943Y-98999500D01*
X122968216Y-99040423D01*
X122968209Y-99040426D01*
X122831290Y-99119475D01*
X122831282Y-99119481D01*
X122719481Y-99231282D01*
X122719475Y-99231290D01*
X122640426Y-99368209D01*
X122640426Y-99368210D01*
X122640423Y-99368216D01*
X122599500Y-99520943D01*
X118600500Y-99520943D01*
X118600500Y-99420943D01*
X118559577Y-99268216D01*
X118538256Y-99231287D01*
X118480524Y-99131290D01*
X118480518Y-99131282D01*
X118368717Y-99019481D01*
X118368709Y-99019475D01*
X118231790Y-98940426D01*
X118231786Y-98940424D01*
X118231784Y-98940423D01*
X118079057Y-98899500D01*
X117920943Y-98899500D01*
X117768216Y-98940423D01*
X117768209Y-98940426D01*
X117631290Y-99019475D01*
X117631282Y-99019481D01*
X117519481Y-99131282D01*
X117519475Y-99131290D01*
X117440426Y-99268209D01*
X117440423Y-99268216D01*
X117399500Y-99420943D01*
X115099763Y-99420943D01*
X115076667Y-99377733D01*
X115076656Y-99377716D01*
X114866493Y-99063183D01*
X114866486Y-99063173D01*
X114866481Y-99063166D01*
X114626473Y-98770717D01*
X114626472Y-98770716D01*
X114626468Y-98770711D01*
X114358961Y-98503204D01*
X114066512Y-98263196D01*
X114066489Y-98263179D01*
X113751956Y-98053016D01*
X113751928Y-98052999D01*
X113418293Y-97874667D01*
X113418288Y-97874665D01*
X113068760Y-97729885D01*
X112706714Y-97620060D01*
X112706703Y-97620057D01*
X112335666Y-97546254D01*
X112052099Y-97518326D01*
X111959163Y-97509173D01*
X111580837Y-97509173D01*
X111494966Y-97517630D01*
X111204333Y-97546254D01*
X110833296Y-97620057D01*
X110833285Y-97620060D01*
X110471239Y-97729885D01*
X110121711Y-97874665D01*
X110121706Y-97874667D01*
X109788071Y-98052999D01*
X109788043Y-98053016D01*
X109473510Y-98263179D01*
X109473487Y-98263196D01*
X109181038Y-98503204D01*
X108913531Y-98770711D01*
X108673523Y-99063160D01*
X108673506Y-99063183D01*
X108463343Y-99377716D01*
X108463326Y-99377744D01*
X108284994Y-99711379D01*
X108284992Y-99711384D01*
X108140212Y-100060912D01*
X108030387Y-100422958D01*
X108030384Y-100422969D01*
X107956581Y-100794006D01*
X107919500Y-101170513D01*
X85600000Y-101170513D01*
X85600000Y-99370943D01*
X94599500Y-99370943D01*
X94599500Y-99529057D01*
X94639693Y-99679057D01*
X94640423Y-99681783D01*
X94640426Y-99681790D01*
X94719475Y-99818709D01*
X94719479Y-99818714D01*
X94719480Y-99818716D01*
X94831284Y-99930520D01*
X94831286Y-99930521D01*
X94831290Y-99930524D01*
X94917887Y-99980520D01*
X94968216Y-100009577D01*
X95120943Y-100050500D01*
X95120945Y-100050500D01*
X95279055Y-100050500D01*
X95279057Y-100050500D01*
X95431784Y-100009577D01*
X95568716Y-99930520D01*
X95680520Y-99818716D01*
X95759577Y-99681784D01*
X95800500Y-99529057D01*
X95800500Y-99520943D01*
X102099500Y-99520943D01*
X102099500Y-99679057D01*
X102136922Y-99818716D01*
X102140423Y-99831783D01*
X102140426Y-99831790D01*
X102219475Y-99968709D01*
X102219479Y-99968714D01*
X102219480Y-99968716D01*
X102331284Y-100080520D01*
X102331286Y-100080521D01*
X102331290Y-100080524D01*
X102468209Y-100159573D01*
X102468216Y-100159577D01*
X102620943Y-100200500D01*
X102620945Y-100200500D01*
X102779055Y-100200500D01*
X102779057Y-100200500D01*
X102931784Y-100159577D01*
X103068716Y-100080520D01*
X103180520Y-99968716D01*
X103259577Y-99831784D01*
X103300500Y-99679057D01*
X103300500Y-99520943D01*
X103259577Y-99368216D01*
X103259573Y-99368209D01*
X103180524Y-99231290D01*
X103180518Y-99231282D01*
X103068717Y-99119481D01*
X103068709Y-99119475D01*
X102931790Y-99040426D01*
X102931786Y-99040424D01*
X102931784Y-99040423D01*
X102779057Y-98999500D01*
X102620943Y-98999500D01*
X102468216Y-99040423D01*
X102468209Y-99040426D01*
X102331290Y-99119475D01*
X102331282Y-99119481D01*
X102219481Y-99231282D01*
X102219475Y-99231290D01*
X102140426Y-99368209D01*
X102140426Y-99368210D01*
X102140423Y-99368216D01*
X102099500Y-99520943D01*
X95800500Y-99520943D01*
X95800500Y-99370943D01*
X95759577Y-99218216D01*
X95709391Y-99131290D01*
X95680524Y-99081290D01*
X95680518Y-99081282D01*
X95568717Y-98969481D01*
X95568709Y-98969475D01*
X95431790Y-98890426D01*
X95431786Y-98890424D01*
X95431784Y-98890423D01*
X95279057Y-98849500D01*
X95120943Y-98849500D01*
X94968216Y-98890423D01*
X94968209Y-98890426D01*
X94831290Y-98969475D01*
X94831282Y-98969481D01*
X94719481Y-99081282D01*
X94719475Y-99081290D01*
X94640426Y-99218209D01*
X94640423Y-99218216D01*
X94599500Y-99370943D01*
X85600000Y-99370943D01*
X85600000Y-93520943D01*
X96899500Y-93520943D01*
X96899500Y-93679056D01*
X96940423Y-93831783D01*
X96940426Y-93831790D01*
X97019475Y-93968709D01*
X97019479Y-93968714D01*
X97019480Y-93968716D01*
X97131284Y-94080520D01*
X97131286Y-94080521D01*
X97131290Y-94080524D01*
X97268209Y-94159573D01*
X97268216Y-94159577D01*
X97420943Y-94200500D01*
X97420945Y-94200500D01*
X97579055Y-94200500D01*
X97579057Y-94200500D01*
X97731784Y-94159577D01*
X97868716Y-94080520D01*
X97980520Y-93968716D01*
X98059577Y-93831784D01*
X98100500Y-93679057D01*
X98100500Y-93520943D01*
X98059577Y-93368216D01*
X98059573Y-93368209D01*
X97980524Y-93231290D01*
X97980518Y-93231282D01*
X97868717Y-93119481D01*
X97868709Y-93119475D01*
X97731790Y-93040426D01*
X97731786Y-93040424D01*
X97731784Y-93040423D01*
X97579057Y-92999500D01*
X97420943Y-92999500D01*
X97268216Y-93040423D01*
X97268209Y-93040426D01*
X97131290Y-93119475D01*
X97131282Y-93119481D01*
X97019481Y-93231282D01*
X97019475Y-93231290D01*
X96940426Y-93368209D01*
X96940423Y-93368216D01*
X96899500Y-93520943D01*
X85600000Y-93520943D01*
X85600000Y-92570943D01*
X120199500Y-92570943D01*
X120199500Y-92729056D01*
X120240423Y-92881783D01*
X120240426Y-92881790D01*
X120319475Y-93018709D01*
X120319479Y-93018714D01*
X120319480Y-93018716D01*
X120431284Y-93130520D01*
X120431286Y-93130521D01*
X120431290Y-93130524D01*
X120568209Y-93209573D01*
X120568216Y-93209577D01*
X120720943Y-93250500D01*
X120720945Y-93250500D01*
X120879055Y-93250500D01*
X120879057Y-93250500D01*
X121031784Y-93209577D01*
X121168716Y-93130520D01*
X121280520Y-93018716D01*
X121359577Y-92881784D01*
X121400500Y-92729057D01*
X121400500Y-92570943D01*
X121359577Y-92418216D01*
X121325722Y-92359577D01*
X121280524Y-92281290D01*
X121280518Y-92281282D01*
X121168717Y-92169481D01*
X121168709Y-92169475D01*
X121031790Y-92090426D01*
X121031786Y-92090424D01*
X121031784Y-92090423D01*
X120879057Y-92049500D01*
X120720943Y-92049500D01*
X120568216Y-92090423D01*
X120568209Y-92090426D01*
X120431290Y-92169475D01*
X120431282Y-92169481D01*
X120319481Y-92281282D01*
X120319475Y-92281290D01*
X120240426Y-92418209D01*
X120240423Y-92418216D01*
X120199500Y-92570943D01*
X85600000Y-92570943D01*
X85600000Y-91420943D01*
X95199500Y-91420943D01*
X95199500Y-91579057D01*
X95212283Y-91626762D01*
X95240423Y-91731783D01*
X95240426Y-91731790D01*
X95319475Y-91868709D01*
X95319479Y-91868714D01*
X95319480Y-91868716D01*
X95431284Y-91980520D01*
X95431286Y-91980521D01*
X95431290Y-91980524D01*
X95520087Y-92031790D01*
X95568216Y-92059577D01*
X95720943Y-92100500D01*
X95720945Y-92100500D01*
X95879055Y-92100500D01*
X95879057Y-92100500D01*
X96031784Y-92059577D01*
X96168716Y-91980520D01*
X96280520Y-91868716D01*
X96359577Y-91731784D01*
X96400500Y-91579057D01*
X96400500Y-91420943D01*
X96359577Y-91268216D01*
X96324571Y-91207583D01*
X96280524Y-91131290D01*
X96280518Y-91131282D01*
X96168717Y-91019481D01*
X96168709Y-91019475D01*
X96031790Y-90940426D01*
X96031786Y-90940424D01*
X96031784Y-90940423D01*
X95879057Y-90899500D01*
X95720943Y-90899500D01*
X95568216Y-90940423D01*
X95568209Y-90940426D01*
X95431290Y-91019475D01*
X95431282Y-91019481D01*
X95319481Y-91131282D01*
X95319475Y-91131290D01*
X95240426Y-91268209D01*
X95240423Y-91268216D01*
X95199500Y-91420943D01*
X85600000Y-91420943D01*
X85600000Y-89020943D01*
X117399500Y-89020943D01*
X117399500Y-89179057D01*
X117419059Y-89252050D01*
X117440423Y-89331783D01*
X117440426Y-89331790D01*
X117519475Y-89468709D01*
X117519479Y-89468714D01*
X117519480Y-89468716D01*
X117631284Y-89580520D01*
X117631286Y-89580521D01*
X117631290Y-89580524D01*
X117729064Y-89636973D01*
X117768216Y-89659577D01*
X117920943Y-89700500D01*
X117920945Y-89700500D01*
X118079055Y-89700500D01*
X118079057Y-89700500D01*
X118231784Y-89659577D01*
X118242404Y-89653445D01*
X118310302Y-89636973D01*
X118376329Y-89659825D01*
X118419520Y-89714746D01*
X118426162Y-89784299D01*
X118404721Y-89833718D01*
X118330157Y-89936346D01*
X118227400Y-90138018D01*
X118227398Y-90138021D01*
X118157458Y-90353274D01*
X118157458Y-90353277D01*
X118122050Y-90576831D01*
X118122050Y-90803168D01*
X118157458Y-91026722D01*
X118157458Y-91026725D01*
X118227398Y-91241978D01*
X118227400Y-91241981D01*
X118330155Y-91443650D01*
X118463193Y-91626761D01*
X118623239Y-91786807D01*
X118806350Y-91919845D01*
X119008019Y-92022600D01*
X119008021Y-92022601D01*
X119208801Y-92087837D01*
X119223279Y-92092542D01*
X119446831Y-92127950D01*
X119446832Y-92127950D01*
X119673168Y-92127950D01*
X119673169Y-92127950D01*
X119896721Y-92092542D01*
X119896724Y-92092541D01*
X119896725Y-92092541D01*
X120111978Y-92022601D01*
X120111978Y-92022600D01*
X120111981Y-92022600D01*
X120313650Y-91919845D01*
X120496761Y-91786807D01*
X120656807Y-91626761D01*
X120789845Y-91443650D01*
X120892600Y-91241981D01*
X120903777Y-91207583D01*
X120962541Y-91026725D01*
X120962541Y-91026724D01*
X120962542Y-91026721D01*
X120997950Y-90803169D01*
X120997950Y-90616540D01*
X121354200Y-90616540D01*
X121354200Y-90763459D01*
X121382858Y-90907534D01*
X121382861Y-90907544D01*
X121439078Y-91043266D01*
X121439083Y-91043275D01*
X121520698Y-91165419D01*
X121520701Y-91165423D01*
X121624576Y-91269298D01*
X121624580Y-91269301D01*
X121746724Y-91350916D01*
X121746730Y-91350919D01*
X121746731Y-91350920D01*
X121882458Y-91407140D01*
X122003841Y-91431284D01*
X122026540Y-91435799D01*
X122026544Y-91435800D01*
X122026545Y-91435800D01*
X122173456Y-91435800D01*
X122173456Y-91435799D01*
X122297356Y-91411155D01*
X122366946Y-91417382D01*
X122422124Y-91460245D01*
X122445368Y-91526135D01*
X122441321Y-91564865D01*
X122440423Y-91568215D01*
X122440423Y-91568216D01*
X122399500Y-91720943D01*
X122399500Y-91879057D01*
X122437963Y-92022601D01*
X122440423Y-92031783D01*
X122440426Y-92031790D01*
X122519475Y-92168709D01*
X122519479Y-92168714D01*
X122519480Y-92168716D01*
X122631284Y-92280520D01*
X122631286Y-92280521D01*
X122631290Y-92280524D01*
X122768209Y-92359573D01*
X122768216Y-92359577D01*
X122920943Y-92400500D01*
X122920945Y-92400500D01*
X123079055Y-92400500D01*
X123079057Y-92400500D01*
X123231784Y-92359577D01*
X123368716Y-92280520D01*
X123480520Y-92168716D01*
X123559577Y-92031784D01*
X123591236Y-91913630D01*
X123627600Y-91853971D01*
X123690447Y-91823442D01*
X123759822Y-91831737D01*
X123783891Y-91845404D01*
X123886350Y-91919845D01*
X124088019Y-92022600D01*
X124088021Y-92022601D01*
X124288801Y-92087837D01*
X124303279Y-92092542D01*
X124526831Y-92127950D01*
X124526832Y-92127950D01*
X124753168Y-92127950D01*
X124753169Y-92127950D01*
X124976721Y-92092542D01*
X124976724Y-92092541D01*
X124976725Y-92092541D01*
X125191978Y-92022601D01*
X125191978Y-92022600D01*
X125191981Y-92022600D01*
X125393650Y-91919845D01*
X125576761Y-91786807D01*
X125736807Y-91626761D01*
X125869845Y-91443650D01*
X125972600Y-91241981D01*
X125983777Y-91207583D01*
X126042541Y-91026725D01*
X126042541Y-91026724D01*
X126042542Y-91026721D01*
X126077950Y-90803169D01*
X126077950Y-90576831D01*
X126042542Y-90353279D01*
X126042541Y-90353275D01*
X126042541Y-90353274D01*
X125972601Y-90138021D01*
X125972599Y-90138018D01*
X125869845Y-89936350D01*
X125866674Y-89931986D01*
X125841536Y-89897385D01*
X125818056Y-89831579D01*
X125833882Y-89763525D01*
X125883987Y-89714830D01*
X125941854Y-89700500D01*
X126079055Y-89700500D01*
X126079057Y-89700500D01*
X126231784Y-89659577D01*
X126368716Y-89580520D01*
X126480520Y-89468716D01*
X126559577Y-89331784D01*
X126600500Y-89179057D01*
X126600500Y-89020943D01*
X126559577Y-88868216D01*
X126547675Y-88847601D01*
X126480524Y-88731290D01*
X126480518Y-88731282D01*
X126368717Y-88619481D01*
X126368709Y-88619475D01*
X126231790Y-88540426D01*
X126231786Y-88540424D01*
X126231784Y-88540423D01*
X126079057Y-88499500D01*
X125945487Y-88499500D01*
X125878448Y-88479815D01*
X125832693Y-88427011D01*
X125822749Y-88357853D01*
X125845168Y-88302615D01*
X125846151Y-88301261D01*
X125869845Y-88268650D01*
X125972600Y-88066981D01*
X126042542Y-87851721D01*
X126077950Y-87628169D01*
X126077950Y-87401831D01*
X126042542Y-87178279D01*
X126042541Y-87178275D01*
X126042541Y-87178274D01*
X125972601Y-86963021D01*
X125972599Y-86963018D01*
X125869844Y-86761349D01*
X125736807Y-86578239D01*
X125576761Y-86418193D01*
X125393650Y-86285155D01*
X125191981Y-86182400D01*
X125191978Y-86182398D01*
X124976723Y-86112458D01*
X124827686Y-86088852D01*
X124753169Y-86077050D01*
X124526831Y-86077050D01*
X124452313Y-86088852D01*
X124303277Y-86112458D01*
X124303274Y-86112458D01*
X124088021Y-86182398D01*
X124088018Y-86182400D01*
X123886349Y-86285155D01*
X123783234Y-86360073D01*
X123703239Y-86418193D01*
X123703237Y-86418195D01*
X123703236Y-86418195D01*
X123543195Y-86578236D01*
X123543195Y-86578237D01*
X123543193Y-86578239D01*
X123486058Y-86656878D01*
X123410155Y-86761349D01*
X123307400Y-86963018D01*
X123307398Y-86963021D01*
X123237458Y-87178274D01*
X123237458Y-87178277D01*
X123237458Y-87178279D01*
X123202050Y-87401831D01*
X123202050Y-87628169D01*
X123216512Y-87719475D01*
X123237458Y-87851722D01*
X123237458Y-87851725D01*
X123307398Y-88066978D01*
X123307400Y-88066981D01*
X123410155Y-88268650D01*
X123543193Y-88451761D01*
X123703239Y-88611807D01*
X123886350Y-88744845D01*
X124088019Y-88847600D01*
X124088021Y-88847601D01*
X124232858Y-88894661D01*
X124303279Y-88917542D01*
X124526831Y-88952950D01*
X124526832Y-88952950D01*
X124753168Y-88952950D01*
X124753169Y-88952950D01*
X124976721Y-88917542D01*
X124976724Y-88917541D01*
X124976725Y-88917541D01*
X125191978Y-88847601D01*
X125191978Y-88847600D01*
X125191981Y-88847600D01*
X125237950Y-88824177D01*
X125306616Y-88811281D01*
X125371357Y-88837556D01*
X125411615Y-88894661D01*
X125414609Y-88964467D01*
X125414019Y-88966754D01*
X125399500Y-89020941D01*
X125399500Y-89179056D01*
X125415571Y-89239034D01*
X125413908Y-89308884D01*
X125374745Y-89366746D01*
X125310517Y-89394250D01*
X125241615Y-89382663D01*
X125239502Y-89381612D01*
X125191987Y-89357402D01*
X125191978Y-89357398D01*
X124976723Y-89287458D01*
X124827686Y-89263852D01*
X124753169Y-89252050D01*
X124526831Y-89252050D01*
X124452313Y-89263852D01*
X124303277Y-89287458D01*
X124303274Y-89287458D01*
X124088021Y-89357398D01*
X124088018Y-89357400D01*
X123886349Y-89460155D01*
X123795026Y-89526506D01*
X123703239Y-89593193D01*
X123703237Y-89593195D01*
X123703236Y-89593195D01*
X123543195Y-89753236D01*
X123543195Y-89753237D01*
X123543193Y-89753239D01*
X123535720Y-89763525D01*
X123410155Y-89936349D01*
X123307400Y-90138018D01*
X123307398Y-90138021D01*
X123237458Y-90353274D01*
X123237458Y-90353277D01*
X123202050Y-90576831D01*
X123202050Y-90803168D01*
X123237458Y-91026722D01*
X123237458Y-91026725D01*
X123243483Y-91045266D01*
X123245478Y-91115107D01*
X123209398Y-91174940D01*
X123146697Y-91205768D01*
X123124947Y-91207583D01*
X123108931Y-91207504D01*
X123079057Y-91199500D01*
X122920943Y-91199500D01*
X122894963Y-91206461D01*
X122878330Y-91206380D01*
X122860145Y-91200943D01*
X122841172Y-91200491D01*
X122827363Y-91191144D01*
X122811387Y-91186368D01*
X122799027Y-91171963D01*
X122783312Y-91161325D01*
X122776749Y-91145997D01*
X122765891Y-91133342D01*
X122763281Y-91114543D01*
X122755811Y-91097095D01*
X122758325Y-91078837D01*
X122756285Y-91064135D01*
X122762075Y-91051618D01*
X122764373Y-91034931D01*
X122817140Y-90907542D01*
X122845800Y-90763455D01*
X122845800Y-90616545D01*
X122817140Y-90472458D01*
X122760920Y-90336731D01*
X122760919Y-90336730D01*
X122760916Y-90336724D01*
X122679301Y-90214580D01*
X122679298Y-90214576D01*
X122575423Y-90110701D01*
X122575419Y-90110698D01*
X122453275Y-90029083D01*
X122453266Y-90029078D01*
X122317544Y-89972861D01*
X122317545Y-89972861D01*
X122317542Y-89972860D01*
X122317538Y-89972859D01*
X122317534Y-89972858D01*
X122173459Y-89944200D01*
X122173455Y-89944200D01*
X122026545Y-89944200D01*
X122026540Y-89944200D01*
X121882465Y-89972858D01*
X121882455Y-89972861D01*
X121746733Y-90029078D01*
X121746724Y-90029083D01*
X121624580Y-90110698D01*
X121624576Y-90110701D01*
X121520701Y-90214576D01*
X121520698Y-90214580D01*
X121439083Y-90336724D01*
X121439078Y-90336733D01*
X121382861Y-90472455D01*
X121382858Y-90472465D01*
X121354200Y-90616540D01*
X120997950Y-90616540D01*
X120997950Y-90576831D01*
X120962542Y-90353279D01*
X120962541Y-90353275D01*
X120962541Y-90353274D01*
X120892601Y-90138021D01*
X120892599Y-90138018D01*
X120878681Y-90110701D01*
X120789845Y-89936350D01*
X120656807Y-89753239D01*
X120496761Y-89593193D01*
X120313650Y-89460155D01*
X120111981Y-89357400D01*
X120111978Y-89357398D01*
X119896723Y-89287458D01*
X119747686Y-89263852D01*
X119673169Y-89252050D01*
X119446831Y-89252050D01*
X119372313Y-89263852D01*
X119223277Y-89287458D01*
X119223274Y-89287458D01*
X119008021Y-89357398D01*
X119008018Y-89357400D01*
X118806345Y-89460157D01*
X118725559Y-89518852D01*
X118659753Y-89542332D01*
X118591699Y-89526506D01*
X118543004Y-89476400D01*
X118529129Y-89407922D01*
X118545286Y-89356535D01*
X118559577Y-89331784D01*
X118600500Y-89179057D01*
X118600500Y-89020943D01*
X118559577Y-88868216D01*
X118550258Y-88852076D01*
X118533787Y-88784177D01*
X118556640Y-88718150D01*
X118611562Y-88674960D01*
X118681115Y-88668319D01*
X118730530Y-88689758D01*
X118806350Y-88744845D01*
X119008019Y-88847600D01*
X119008021Y-88847601D01*
X119152858Y-88894661D01*
X119223279Y-88917542D01*
X119446831Y-88952950D01*
X119446832Y-88952950D01*
X119673168Y-88952950D01*
X119673169Y-88952950D01*
X119896721Y-88917542D01*
X119896724Y-88917541D01*
X119896725Y-88917541D01*
X120111978Y-88847601D01*
X120111978Y-88847600D01*
X120111981Y-88847600D01*
X120313650Y-88744845D01*
X120496761Y-88611807D01*
X120656807Y-88451761D01*
X120789845Y-88268650D01*
X120892600Y-88066981D01*
X120962542Y-87851721D01*
X120997950Y-87628169D01*
X120997950Y-87401831D01*
X120962542Y-87178279D01*
X120962541Y-87178275D01*
X120962541Y-87178274D01*
X120892601Y-86963021D01*
X120892599Y-86963018D01*
X120789844Y-86761349D01*
X120656807Y-86578239D01*
X120496761Y-86418193D01*
X120313650Y-86285155D01*
X120111981Y-86182400D01*
X120111978Y-86182398D01*
X119896723Y-86112458D01*
X119747686Y-86088852D01*
X119673169Y-86077050D01*
X119446831Y-86077050D01*
X119372313Y-86088852D01*
X119223277Y-86112458D01*
X119223274Y-86112458D01*
X119008021Y-86182398D01*
X119008018Y-86182400D01*
X118806349Y-86285155D01*
X118703234Y-86360073D01*
X118623239Y-86418193D01*
X118623237Y-86418195D01*
X118623236Y-86418195D01*
X118463195Y-86578236D01*
X118463195Y-86578237D01*
X118463193Y-86578239D01*
X118406058Y-86656878D01*
X118330155Y-86761349D01*
X118227400Y-86963018D01*
X118227398Y-86963021D01*
X118157458Y-87178274D01*
X118157458Y-87178277D01*
X118157458Y-87178279D01*
X118122050Y-87401831D01*
X118122050Y-87628169D01*
X118136512Y-87719475D01*
X118157458Y-87851722D01*
X118157458Y-87851725D01*
X118227398Y-88066978D01*
X118227400Y-88066981D01*
X118330155Y-88268650D01*
X118398463Y-88362668D01*
X118421943Y-88428473D01*
X118406118Y-88496527D01*
X118356012Y-88545222D01*
X118287534Y-88559098D01*
X118236151Y-88542943D01*
X118231792Y-88540426D01*
X118231785Y-88540423D01*
X118231784Y-88540423D01*
X118079057Y-88499500D01*
X117920943Y-88499500D01*
X117768216Y-88540423D01*
X117768209Y-88540426D01*
X117631290Y-88619475D01*
X117631282Y-88619481D01*
X117519481Y-88731282D01*
X117519475Y-88731290D01*
X117440426Y-88868209D01*
X117440423Y-88868216D01*
X117399500Y-89020943D01*
X85600000Y-89020943D01*
X85600000Y-88120943D01*
X92099500Y-88120943D01*
X92099500Y-88279057D01*
X92120614Y-88357853D01*
X92140423Y-88431783D01*
X92140426Y-88431790D01*
X92219475Y-88568709D01*
X92219479Y-88568714D01*
X92219480Y-88568716D01*
X92331284Y-88680520D01*
X92331286Y-88680521D01*
X92331290Y-88680524D01*
X92419221Y-88731290D01*
X92468216Y-88759577D01*
X92620943Y-88800500D01*
X92620945Y-88800500D01*
X92779055Y-88800500D01*
X92779057Y-88800500D01*
X92931784Y-88759577D01*
X93068716Y-88680520D01*
X93180520Y-88568716D01*
X93259577Y-88431784D01*
X93300500Y-88279057D01*
X93300500Y-88120943D01*
X93259577Y-87968216D01*
X93192320Y-87851722D01*
X93180524Y-87831290D01*
X93180518Y-87831282D01*
X93068717Y-87719481D01*
X93068709Y-87719475D01*
X92931790Y-87640426D01*
X92931786Y-87640424D01*
X92931784Y-87640423D01*
X92779057Y-87599500D01*
X92620943Y-87599500D01*
X92468216Y-87640423D01*
X92468209Y-87640426D01*
X92331290Y-87719475D01*
X92331282Y-87719481D01*
X92219481Y-87831282D01*
X92219475Y-87831290D01*
X92140426Y-87968209D01*
X92140423Y-87968216D01*
X92099500Y-88120943D01*
X85600000Y-88120943D01*
X85600000Y-85077917D01*
X112942966Y-85077917D01*
X112942966Y-85236031D01*
X112965461Y-85319981D01*
X112983889Y-85388757D01*
X112983892Y-85388764D01*
X113062941Y-85525683D01*
X113062945Y-85525688D01*
X113062946Y-85525690D01*
X113174750Y-85637494D01*
X113174752Y-85637495D01*
X113174756Y-85637498D01*
X113254359Y-85683456D01*
X113311682Y-85716551D01*
X113464409Y-85757474D01*
X113475500Y-85757474D01*
X113542539Y-85777159D01*
X113588294Y-85829963D01*
X113597360Y-85871639D01*
X113598439Y-85871497D01*
X113599500Y-85879556D01*
X113640423Y-86032283D01*
X113640426Y-86032290D01*
X113719475Y-86169209D01*
X113719479Y-86169214D01*
X113719480Y-86169216D01*
X113831284Y-86281020D01*
X113831286Y-86281021D01*
X113831290Y-86281024D01*
X113960806Y-86355799D01*
X113968216Y-86360077D01*
X114120943Y-86401000D01*
X114120945Y-86401000D01*
X114279055Y-86401000D01*
X114279057Y-86401000D01*
X114431784Y-86360077D01*
X114568716Y-86281020D01*
X114680520Y-86169216D01*
X114759577Y-86032284D01*
X114800500Y-85879557D01*
X114800500Y-85721443D01*
X114759577Y-85568716D01*
X114741003Y-85536544D01*
X114741001Y-85536540D01*
X120338200Y-85536540D01*
X120338200Y-85683459D01*
X120366858Y-85827534D01*
X120366861Y-85827544D01*
X120423078Y-85963266D01*
X120423083Y-85963275D01*
X120504698Y-86085419D01*
X120504701Y-86085423D01*
X120608576Y-86189298D01*
X120608580Y-86189301D01*
X120730724Y-86270916D01*
X120730730Y-86270919D01*
X120730731Y-86270920D01*
X120866458Y-86327140D01*
X121010540Y-86355799D01*
X121010544Y-86355800D01*
X121010545Y-86355800D01*
X121157456Y-86355800D01*
X121157457Y-86355799D01*
X121301542Y-86327140D01*
X121437269Y-86270920D01*
X121559420Y-86189301D01*
X121663301Y-86085420D01*
X121744920Y-85963269D01*
X121801140Y-85827542D01*
X121829800Y-85683455D01*
X121829800Y-85536545D01*
X121829799Y-85536540D01*
X122370200Y-85536540D01*
X122370200Y-85683459D01*
X122398858Y-85827534D01*
X122398861Y-85827544D01*
X122455078Y-85963266D01*
X122455083Y-85963275D01*
X122536698Y-86085419D01*
X122536701Y-86085423D01*
X122640576Y-86189298D01*
X122640580Y-86189301D01*
X122762724Y-86270916D01*
X122762730Y-86270919D01*
X122762731Y-86270920D01*
X122898458Y-86327140D01*
X123042540Y-86355799D01*
X123042544Y-86355800D01*
X123042545Y-86355800D01*
X123189456Y-86355800D01*
X123189457Y-86355799D01*
X123333542Y-86327140D01*
X123469269Y-86270920D01*
X123591420Y-86189301D01*
X123695301Y-86085420D01*
X123776920Y-85963269D01*
X123833140Y-85827542D01*
X123861800Y-85683455D01*
X123861800Y-85536545D01*
X123833140Y-85392458D01*
X123776920Y-85256731D01*
X123776919Y-85256730D01*
X123776916Y-85256724D01*
X123695301Y-85134580D01*
X123695298Y-85134576D01*
X123591423Y-85030701D01*
X123591419Y-85030698D01*
X123469275Y-84949083D01*
X123469266Y-84949078D01*
X123333544Y-84892861D01*
X123333545Y-84892861D01*
X123333542Y-84892860D01*
X123333538Y-84892859D01*
X123333534Y-84892858D01*
X123189459Y-84864200D01*
X123189455Y-84864200D01*
X123042545Y-84864200D01*
X123042540Y-84864200D01*
X122898465Y-84892858D01*
X122898455Y-84892861D01*
X122762733Y-84949078D01*
X122762724Y-84949083D01*
X122640580Y-85030698D01*
X122640576Y-85030701D01*
X122536701Y-85134576D01*
X122536698Y-85134580D01*
X122455083Y-85256724D01*
X122455078Y-85256733D01*
X122398861Y-85392455D01*
X122398858Y-85392465D01*
X122370200Y-85536540D01*
X121829799Y-85536540D01*
X121801140Y-85392458D01*
X121744920Y-85256731D01*
X121744919Y-85256730D01*
X121744916Y-85256724D01*
X121663301Y-85134580D01*
X121663298Y-85134576D01*
X121559423Y-85030701D01*
X121559419Y-85030698D01*
X121437275Y-84949083D01*
X121437266Y-84949078D01*
X121301544Y-84892861D01*
X121301545Y-84892861D01*
X121301542Y-84892860D01*
X121301538Y-84892859D01*
X121301534Y-84892858D01*
X121157459Y-84864200D01*
X121157455Y-84864200D01*
X121010545Y-84864200D01*
X121010540Y-84864200D01*
X120866465Y-84892858D01*
X120866455Y-84892861D01*
X120730733Y-84949078D01*
X120730724Y-84949083D01*
X120608580Y-85030698D01*
X120608576Y-85030701D01*
X120504701Y-85134576D01*
X120504698Y-85134580D01*
X120423083Y-85256724D01*
X120423078Y-85256733D01*
X120366861Y-85392455D01*
X120366858Y-85392465D01*
X120338200Y-85536540D01*
X114741001Y-85536540D01*
X114680524Y-85431790D01*
X114680518Y-85431782D01*
X114568717Y-85319981D01*
X114568709Y-85319975D01*
X114431790Y-85240926D01*
X114431786Y-85240924D01*
X114431784Y-85240923D01*
X114279057Y-85200000D01*
X114279056Y-85200000D01*
X114267966Y-85200000D01*
X114200927Y-85180315D01*
X114155172Y-85127511D01*
X114146105Y-85085834D01*
X114145027Y-85085977D01*
X114143966Y-85077924D01*
X114143966Y-85077917D01*
X114103043Y-84925190D01*
X114084378Y-84892861D01*
X114023990Y-84788264D01*
X114023984Y-84788256D01*
X113912183Y-84676455D01*
X113912175Y-84676449D01*
X113775256Y-84597400D01*
X113775252Y-84597398D01*
X113775250Y-84597397D01*
X113622523Y-84556474D01*
X113464409Y-84556474D01*
X113311682Y-84597397D01*
X113311675Y-84597400D01*
X113174756Y-84676449D01*
X113174748Y-84676455D01*
X113062947Y-84788256D01*
X113062941Y-84788264D01*
X112983892Y-84925183D01*
X112983889Y-84925190D01*
X112942966Y-85077917D01*
X85600000Y-85077917D01*
X85600000Y-82870943D01*
X110699500Y-82870943D01*
X110699500Y-83029057D01*
X110727026Y-83131783D01*
X110740423Y-83181783D01*
X110740426Y-83181790D01*
X110819475Y-83318709D01*
X110819479Y-83318714D01*
X110819480Y-83318716D01*
X110931284Y-83430520D01*
X110931286Y-83430521D01*
X110931290Y-83430524D01*
X111052492Y-83500499D01*
X111068216Y-83509577D01*
X111220943Y-83550500D01*
X111220945Y-83550500D01*
X111379055Y-83550500D01*
X111379057Y-83550500D01*
X111531784Y-83509577D01*
X111668716Y-83430520D01*
X111780520Y-83318716D01*
X111859577Y-83181784D01*
X111900500Y-83029057D01*
X111900500Y-82870943D01*
X111887103Y-82820943D01*
X112399500Y-82820943D01*
X112399500Y-82979057D01*
X112412898Y-83029057D01*
X112440423Y-83131783D01*
X112440426Y-83131790D01*
X112519475Y-83268709D01*
X112519479Y-83268714D01*
X112519480Y-83268716D01*
X112631284Y-83380520D01*
X112631286Y-83380521D01*
X112631290Y-83380524D01*
X112717887Y-83430520D01*
X112768216Y-83459577D01*
X112920943Y-83500500D01*
X112920945Y-83500500D01*
X113079055Y-83500500D01*
X113079057Y-83500500D01*
X113231784Y-83459577D01*
X113325983Y-83405191D01*
X113393881Y-83388719D01*
X113459908Y-83411571D01*
X113475662Y-83424898D01*
X113481284Y-83430520D01*
X113481286Y-83430521D01*
X113481290Y-83430524D01*
X113602492Y-83500499D01*
X113618216Y-83509577D01*
X113770943Y-83550500D01*
X113770945Y-83550500D01*
X113929055Y-83550500D01*
X113929057Y-83550500D01*
X114081784Y-83509577D01*
X114218716Y-83430520D01*
X114330520Y-83318716D01*
X114409577Y-83181784D01*
X114450500Y-83029057D01*
X114450500Y-82870943D01*
X114409577Y-82718216D01*
X114380706Y-82668209D01*
X114330524Y-82581290D01*
X114330518Y-82581282D01*
X114218717Y-82469481D01*
X114218709Y-82469475D01*
X114081790Y-82390426D01*
X114081786Y-82390424D01*
X114081784Y-82390423D01*
X113929057Y-82349500D01*
X113770943Y-82349500D01*
X113618216Y-82390423D01*
X113618215Y-82390423D01*
X113524017Y-82444808D01*
X113456117Y-82461279D01*
X113390090Y-82438427D01*
X113374337Y-82425101D01*
X113368717Y-82419481D01*
X113368709Y-82419475D01*
X113231790Y-82340426D01*
X113231786Y-82340424D01*
X113231784Y-82340423D01*
X113079057Y-82299500D01*
X112920943Y-82299500D01*
X112768216Y-82340423D01*
X112768209Y-82340426D01*
X112631290Y-82419475D01*
X112631282Y-82419481D01*
X112519481Y-82531282D01*
X112519475Y-82531290D01*
X112440426Y-82668209D01*
X112440423Y-82668216D01*
X112399500Y-82820943D01*
X111887103Y-82820943D01*
X111859577Y-82718216D01*
X111830706Y-82668209D01*
X111780524Y-82581290D01*
X111780518Y-82581282D01*
X111668717Y-82469481D01*
X111668709Y-82469475D01*
X111531790Y-82390426D01*
X111531786Y-82390424D01*
X111531784Y-82390423D01*
X111379057Y-82349500D01*
X111220943Y-82349500D01*
X111068216Y-82390423D01*
X111068209Y-82390426D01*
X110931290Y-82469475D01*
X110931282Y-82469481D01*
X110819481Y-82581282D01*
X110819475Y-82581290D01*
X110740426Y-82718209D01*
X110740424Y-82718214D01*
X110740423Y-82718216D01*
X110699500Y-82870943D01*
X85600000Y-82870943D01*
X85600000Y-81820943D01*
X105599500Y-81820943D01*
X105599500Y-81979057D01*
X105626687Y-82080518D01*
X105640423Y-82131783D01*
X105640426Y-82131790D01*
X105719475Y-82268709D01*
X105719479Y-82268714D01*
X105719480Y-82268716D01*
X105831284Y-82380520D01*
X105831286Y-82380521D01*
X105831290Y-82380524D01*
X105942635Y-82444808D01*
X105968216Y-82459577D01*
X106120943Y-82500500D01*
X106120945Y-82500500D01*
X106279055Y-82500500D01*
X106279057Y-82500500D01*
X106431784Y-82459577D01*
X106568716Y-82380520D01*
X106680520Y-82268716D01*
X106759577Y-82131784D01*
X106800500Y-81979057D01*
X106800500Y-81820943D01*
X106759577Y-81668216D01*
X106680520Y-81531284D01*
X106670179Y-81520943D01*
X116859500Y-81520943D01*
X116859500Y-81679056D01*
X116900423Y-81831783D01*
X116900426Y-81831790D01*
X116979475Y-81968709D01*
X116979479Y-81968714D01*
X116979480Y-81968716D01*
X117091284Y-82080520D01*
X117091286Y-82080521D01*
X117091290Y-82080524D01*
X117180087Y-82131790D01*
X117228216Y-82159577D01*
X117380943Y-82200500D01*
X117380945Y-82200500D01*
X117539055Y-82200500D01*
X117539057Y-82200500D01*
X117691784Y-82159577D01*
X117828716Y-82080520D01*
X117940520Y-81968716D01*
X118019577Y-81831784D01*
X118060500Y-81679057D01*
X118060500Y-81520943D01*
X118019577Y-81368216D01*
X117979904Y-81299500D01*
X117940524Y-81231290D01*
X117940518Y-81231282D01*
X117828717Y-81119481D01*
X117828709Y-81119475D01*
X117691790Y-81040426D01*
X117691786Y-81040424D01*
X117691784Y-81040423D01*
X117539057Y-80999500D01*
X117380943Y-80999500D01*
X117228216Y-81040423D01*
X117228209Y-81040426D01*
X117091290Y-81119475D01*
X117091282Y-81119481D01*
X116979481Y-81231282D01*
X116979475Y-81231290D01*
X116900426Y-81368209D01*
X116900423Y-81368216D01*
X116859500Y-81520943D01*
X106670179Y-81520943D01*
X106568716Y-81419480D01*
X106568714Y-81419479D01*
X106568709Y-81419475D01*
X106431790Y-81340426D01*
X106431786Y-81340424D01*
X106431784Y-81340423D01*
X106279057Y-81299500D01*
X106120943Y-81299500D01*
X105968216Y-81340423D01*
X105968209Y-81340426D01*
X105831290Y-81419475D01*
X105831282Y-81419481D01*
X105719481Y-81531282D01*
X105719475Y-81531290D01*
X105640426Y-81668209D01*
X105640423Y-81668216D01*
X105599500Y-81820943D01*
X85600000Y-81820943D01*
X85600000Y-78420943D01*
X93099500Y-78420943D01*
X93099500Y-78579057D01*
X93126687Y-78680518D01*
X93140423Y-78731783D01*
X93140426Y-78731790D01*
X93219475Y-78868709D01*
X93219479Y-78868714D01*
X93219480Y-78868716D01*
X93331284Y-78980520D01*
X93331286Y-78980521D01*
X93331290Y-78980524D01*
X93409192Y-79025500D01*
X93468216Y-79059577D01*
X93620943Y-79100500D01*
X93620945Y-79100500D01*
X93779055Y-79100500D01*
X93779057Y-79100500D01*
X93931784Y-79059577D01*
X94068716Y-78980520D01*
X94180520Y-78868716D01*
X94259577Y-78731784D01*
X94300500Y-78579057D01*
X94300500Y-78424500D01*
X94320185Y-78357461D01*
X94372989Y-78311706D01*
X94424500Y-78300500D01*
X94579055Y-78300500D01*
X94579057Y-78300500D01*
X94731784Y-78259577D01*
X94868716Y-78180520D01*
X94980520Y-78068716D01*
X95059577Y-77931784D01*
X95100500Y-77779057D01*
X95100500Y-77720943D01*
X106099500Y-77720943D01*
X106099500Y-77879057D01*
X106137529Y-78020981D01*
X106140423Y-78031783D01*
X106140426Y-78031790D01*
X106219475Y-78168709D01*
X106219479Y-78168714D01*
X106219480Y-78168716D01*
X106331284Y-78280520D01*
X106331286Y-78280521D01*
X106331290Y-78280524D01*
X106385300Y-78311706D01*
X106468216Y-78359577D01*
X106620943Y-78400500D01*
X106620945Y-78400500D01*
X106779055Y-78400500D01*
X106779057Y-78400500D01*
X106931784Y-78359577D01*
X106955399Y-78345943D01*
X108874500Y-78345943D01*
X108874500Y-78504057D01*
X108891826Y-78568716D01*
X108915423Y-78656783D01*
X108915426Y-78656790D01*
X108994475Y-78793709D01*
X108994479Y-78793714D01*
X108994480Y-78793716D01*
X109106284Y-78905520D01*
X109106286Y-78905521D01*
X109106290Y-78905524D01*
X109236189Y-78980520D01*
X109243216Y-78984577D01*
X109395943Y-79025500D01*
X109395945Y-79025500D01*
X109554055Y-79025500D01*
X109554057Y-79025500D01*
X109706784Y-78984577D01*
X109843716Y-78905520D01*
X109955520Y-78793716D01*
X110034577Y-78656784D01*
X110075500Y-78504057D01*
X110075500Y-78345943D01*
X110042006Y-78220943D01*
X110899500Y-78220943D01*
X110899500Y-78379057D01*
X110932994Y-78504056D01*
X110940423Y-78531783D01*
X110940426Y-78531790D01*
X111019475Y-78668709D01*
X111019479Y-78668714D01*
X111019480Y-78668716D01*
X111131284Y-78780520D01*
X111131286Y-78780521D01*
X111131290Y-78780524D01*
X111268209Y-78859573D01*
X111268216Y-78859577D01*
X111420943Y-78900500D01*
X111420945Y-78900500D01*
X111579055Y-78900500D01*
X111579057Y-78900500D01*
X111731784Y-78859577D01*
X111868716Y-78780520D01*
X111980520Y-78668716D01*
X112059577Y-78531784D01*
X112059579Y-78531773D01*
X112062686Y-78524277D01*
X112065760Y-78525550D01*
X112093996Y-78479124D01*
X112156812Y-78448532D01*
X112226196Y-78456758D01*
X112280118Y-78501190D01*
X112284884Y-78508795D01*
X112319477Y-78568712D01*
X112319479Y-78568715D01*
X112319480Y-78568716D01*
X112431284Y-78680520D01*
X112431286Y-78680521D01*
X112431290Y-78680524D01*
X112564572Y-78757473D01*
X112568216Y-78759577D01*
X112720943Y-78800500D01*
X112720945Y-78800500D01*
X112879055Y-78800500D01*
X112879057Y-78800500D01*
X113031784Y-78759577D01*
X113031789Y-78759573D01*
X113031933Y-78759515D01*
X113032068Y-78759500D01*
X113039635Y-78757473D01*
X113039951Y-78758652D01*
X113101403Y-78752043D01*
X113163883Y-78783316D01*
X113186777Y-78812074D01*
X113219477Y-78868712D01*
X113219479Y-78868715D01*
X113219480Y-78868716D01*
X113331284Y-78980520D01*
X113331286Y-78980521D01*
X113331290Y-78980524D01*
X113409192Y-79025500D01*
X113468216Y-79059577D01*
X113620943Y-79100500D01*
X113620945Y-79100500D01*
X113779055Y-79100500D01*
X113779057Y-79100500D01*
X113931784Y-79059577D01*
X114068716Y-78980520D01*
X114180520Y-78868716D01*
X114259577Y-78731784D01*
X114300500Y-78579057D01*
X114300500Y-78420943D01*
X126199500Y-78420943D01*
X126199500Y-78579057D01*
X126226687Y-78680518D01*
X126240423Y-78731783D01*
X126240426Y-78731790D01*
X126319475Y-78868709D01*
X126319479Y-78868714D01*
X126319480Y-78868716D01*
X126431284Y-78980520D01*
X126431286Y-78980521D01*
X126431290Y-78980524D01*
X126509192Y-79025500D01*
X126568216Y-79059577D01*
X126720943Y-79100500D01*
X126720945Y-79100500D01*
X126879055Y-79100500D01*
X126879057Y-79100500D01*
X127031784Y-79059577D01*
X127168716Y-78980520D01*
X127280520Y-78868716D01*
X127359577Y-78731784D01*
X127400500Y-78579057D01*
X127400500Y-78420943D01*
X127359577Y-78268216D01*
X127316272Y-78193209D01*
X127280524Y-78131290D01*
X127280518Y-78131282D01*
X127168717Y-78019481D01*
X127168709Y-78019475D01*
X127031790Y-77940426D01*
X127031786Y-77940424D01*
X127031784Y-77940423D01*
X126879057Y-77899500D01*
X126720943Y-77899500D01*
X126568216Y-77940423D01*
X126568209Y-77940426D01*
X126431290Y-78019475D01*
X126431282Y-78019481D01*
X126319481Y-78131282D01*
X126319475Y-78131290D01*
X126240426Y-78268209D01*
X126240423Y-78268216D01*
X126199500Y-78420943D01*
X114300500Y-78420943D01*
X114259577Y-78268216D01*
X114216272Y-78193209D01*
X114180524Y-78131290D01*
X114180518Y-78131282D01*
X114068717Y-78019481D01*
X114068709Y-78019475D01*
X113931790Y-77940426D01*
X113931786Y-77940424D01*
X113931784Y-77940423D01*
X113779057Y-77899500D01*
X113620943Y-77899500D01*
X113468206Y-77940425D01*
X113468047Y-77940492D01*
X113467901Y-77940507D01*
X113460365Y-77942527D01*
X113460049Y-77941350D01*
X113398577Y-77947952D01*
X113336102Y-77916669D01*
X113313222Y-77887925D01*
X113280522Y-77831287D01*
X113280518Y-77831282D01*
X113168717Y-77719481D01*
X113168709Y-77719475D01*
X113031790Y-77640426D01*
X113031786Y-77640424D01*
X113031784Y-77640423D01*
X112879057Y-77599500D01*
X112720943Y-77599500D01*
X112568216Y-77640423D01*
X112568209Y-77640426D01*
X112431290Y-77719475D01*
X112431282Y-77719481D01*
X112319481Y-77831282D01*
X112319475Y-77831290D01*
X112240426Y-77968209D01*
X112237314Y-77975723D01*
X112234260Y-77974458D01*
X112205887Y-78020981D01*
X112143032Y-78051493D01*
X112073658Y-78043179D01*
X112019793Y-77998679D01*
X112015115Y-77991204D01*
X111980522Y-77931287D01*
X111980518Y-77931282D01*
X111868717Y-77819481D01*
X111868709Y-77819475D01*
X111731790Y-77740426D01*
X111731786Y-77740424D01*
X111731784Y-77740423D01*
X111579057Y-77699500D01*
X111420943Y-77699500D01*
X111268216Y-77740423D01*
X111268209Y-77740426D01*
X111131290Y-77819475D01*
X111131282Y-77819481D01*
X111019481Y-77931282D01*
X111019475Y-77931290D01*
X110940426Y-78068209D01*
X110940423Y-78068216D01*
X110899500Y-78220943D01*
X110042006Y-78220943D01*
X110034577Y-78193216D01*
X110020428Y-78168709D01*
X109955524Y-78056290D01*
X109955518Y-78056282D01*
X109843717Y-77944481D01*
X109843709Y-77944475D01*
X109706790Y-77865426D01*
X109706786Y-77865424D01*
X109706784Y-77865423D01*
X109554057Y-77824500D01*
X109395943Y-77824500D01*
X109243216Y-77865423D01*
X109243209Y-77865426D01*
X109106290Y-77944475D01*
X109106282Y-77944481D01*
X108994481Y-78056282D01*
X108994475Y-78056290D01*
X108915426Y-78193209D01*
X108915424Y-78193214D01*
X108915423Y-78193216D01*
X108874500Y-78345943D01*
X106955399Y-78345943D01*
X107068716Y-78280520D01*
X107180520Y-78168716D01*
X107259577Y-78031784D01*
X107300500Y-77879057D01*
X107300500Y-77720943D01*
X107259577Y-77568216D01*
X107201843Y-77468216D01*
X107180524Y-77431290D01*
X107180518Y-77431282D01*
X107068717Y-77319481D01*
X107068709Y-77319475D01*
X106931790Y-77240426D01*
X106931786Y-77240424D01*
X106931784Y-77240423D01*
X106779057Y-77199500D01*
X106620943Y-77199500D01*
X106468216Y-77240423D01*
X106468209Y-77240426D01*
X106331290Y-77319475D01*
X106331282Y-77319481D01*
X106219481Y-77431282D01*
X106219475Y-77431290D01*
X106140426Y-77568209D01*
X106140423Y-77568216D01*
X106099500Y-77720943D01*
X95100500Y-77720943D01*
X95100500Y-77620943D01*
X95059577Y-77468216D01*
X95038258Y-77431290D01*
X94980524Y-77331290D01*
X94980518Y-77331282D01*
X94868717Y-77219481D01*
X94868709Y-77219475D01*
X94731790Y-77140426D01*
X94731786Y-77140424D01*
X94731784Y-77140423D01*
X94659084Y-77120943D01*
X114499500Y-77120943D01*
X114499500Y-77279057D01*
X114540289Y-77431282D01*
X114540423Y-77431783D01*
X114540426Y-77431790D01*
X114619475Y-77568709D01*
X114619479Y-77568714D01*
X114619480Y-77568716D01*
X114731284Y-77680520D01*
X114731286Y-77680521D01*
X114731290Y-77680524D01*
X114835040Y-77740423D01*
X114868216Y-77759577D01*
X115020943Y-77800500D01*
X115020945Y-77800500D01*
X115179055Y-77800500D01*
X115179057Y-77800500D01*
X115331784Y-77759577D01*
X115468716Y-77680520D01*
X115580520Y-77568716D01*
X115659577Y-77431784D01*
X115700500Y-77279057D01*
X115700500Y-77120943D01*
X115999500Y-77120943D01*
X115999500Y-77279057D01*
X116040289Y-77431282D01*
X116040423Y-77431783D01*
X116040426Y-77431790D01*
X116119475Y-77568709D01*
X116119479Y-77568714D01*
X116119480Y-77568716D01*
X116231284Y-77680520D01*
X116231286Y-77680521D01*
X116231290Y-77680524D01*
X116335040Y-77740423D01*
X116368216Y-77759577D01*
X116520943Y-77800500D01*
X116520945Y-77800500D01*
X116679055Y-77800500D01*
X116679057Y-77800500D01*
X116831784Y-77759577D01*
X116968716Y-77680520D01*
X117080520Y-77568716D01*
X117159577Y-77431784D01*
X117200500Y-77279057D01*
X117200500Y-77120943D01*
X117175399Y-77027264D01*
X117177062Y-76957418D01*
X117216224Y-76899555D01*
X117280453Y-76872051D01*
X117327263Y-76875398D01*
X117420943Y-76900500D01*
X117420946Y-76900500D01*
X117579055Y-76900500D01*
X117579057Y-76900500D01*
X117731784Y-76859577D01*
X117868716Y-76780520D01*
X117980520Y-76668716D01*
X118059577Y-76531784D01*
X118100500Y-76379057D01*
X118100500Y-76220943D01*
X118059577Y-76068216D01*
X118059573Y-76068209D01*
X117980524Y-75931290D01*
X117980518Y-75931282D01*
X117868717Y-75819481D01*
X117868709Y-75819475D01*
X117731790Y-75740426D01*
X117731786Y-75740424D01*
X117731784Y-75740423D01*
X117579057Y-75699500D01*
X117420943Y-75699500D01*
X117268216Y-75740423D01*
X117268209Y-75740426D01*
X117131290Y-75819475D01*
X117131282Y-75819481D01*
X117019481Y-75931282D01*
X117019475Y-75931290D01*
X116940426Y-76068209D01*
X116940423Y-76068216D01*
X116899500Y-76220943D01*
X116899500Y-76379056D01*
X116924600Y-76472732D01*
X116922937Y-76542582D01*
X116883774Y-76600444D01*
X116819546Y-76627948D01*
X116772732Y-76624600D01*
X116748443Y-76618091D01*
X116679057Y-76599500D01*
X116520943Y-76599500D01*
X116368216Y-76640423D01*
X116368209Y-76640426D01*
X116231290Y-76719475D01*
X116231282Y-76719481D01*
X116119481Y-76831282D01*
X116119475Y-76831290D01*
X116040426Y-76968209D01*
X116040423Y-76968216D01*
X115999500Y-77120943D01*
X115700500Y-77120943D01*
X115659577Y-76968216D01*
X115596855Y-76859577D01*
X115580524Y-76831290D01*
X115580518Y-76831282D01*
X115468717Y-76719481D01*
X115468709Y-76719475D01*
X115331790Y-76640426D01*
X115331786Y-76640424D01*
X115331784Y-76640423D01*
X115179057Y-76599500D01*
X115020943Y-76599500D01*
X114868216Y-76640423D01*
X114868209Y-76640426D01*
X114731290Y-76719475D01*
X114731282Y-76719481D01*
X114619481Y-76831282D01*
X114619475Y-76831290D01*
X114540426Y-76968209D01*
X114540423Y-76968216D01*
X114499500Y-77120943D01*
X94659084Y-77120943D01*
X94579057Y-77099500D01*
X94420943Y-77099500D01*
X94268216Y-77140423D01*
X94268209Y-77140426D01*
X94131290Y-77219475D01*
X94131282Y-77219481D01*
X94019481Y-77331282D01*
X94019475Y-77331290D01*
X93940426Y-77468209D01*
X93940423Y-77468216D01*
X93899500Y-77620943D01*
X93899500Y-77775500D01*
X93879815Y-77842539D01*
X93827011Y-77888294D01*
X93775500Y-77899500D01*
X93620943Y-77899500D01*
X93468216Y-77940423D01*
X93468209Y-77940426D01*
X93331290Y-78019475D01*
X93331282Y-78019481D01*
X93219481Y-78131282D01*
X93219475Y-78131290D01*
X93140426Y-78268209D01*
X93140423Y-78268216D01*
X93099500Y-78420943D01*
X85600000Y-78420943D01*
X85600000Y-72320943D01*
X122199500Y-72320943D01*
X122199500Y-72479056D01*
X122240423Y-72631783D01*
X122240426Y-72631790D01*
X122319475Y-72768709D01*
X122319479Y-72768714D01*
X122319480Y-72768716D01*
X122431284Y-72880520D01*
X122431286Y-72880521D01*
X122431290Y-72880524D01*
X122568209Y-72959573D01*
X122568216Y-72959577D01*
X122720943Y-73000500D01*
X122720945Y-73000500D01*
X122879055Y-73000500D01*
X122879057Y-73000500D01*
X123031784Y-72959577D01*
X123168716Y-72880520D01*
X123280520Y-72768716D01*
X123359577Y-72631784D01*
X123400500Y-72479057D01*
X123400500Y-72320943D01*
X123359577Y-72168216D01*
X123359573Y-72168209D01*
X123280524Y-72031290D01*
X123280518Y-72031282D01*
X123168717Y-71919481D01*
X123168709Y-71919475D01*
X123031790Y-71840426D01*
X123031786Y-71840424D01*
X123031784Y-71840423D01*
X122879057Y-71799500D01*
X122720943Y-71799500D01*
X122568216Y-71840423D01*
X122568209Y-71840426D01*
X122431290Y-71919475D01*
X122431282Y-71919481D01*
X122319481Y-72031282D01*
X122319475Y-72031290D01*
X122240426Y-72168209D01*
X122240423Y-72168216D01*
X122199500Y-72320943D01*
X85600000Y-72320943D01*
X85600000Y-69220943D01*
X90399500Y-69220943D01*
X90399500Y-69379056D01*
X90440423Y-69531783D01*
X90440426Y-69531790D01*
X90519475Y-69668709D01*
X90519479Y-69668714D01*
X90519480Y-69668716D01*
X90631284Y-69780520D01*
X90631286Y-69780521D01*
X90631290Y-69780524D01*
X90768209Y-69859573D01*
X90768216Y-69859577D01*
X90920943Y-69900500D01*
X90920945Y-69900500D01*
X91079055Y-69900500D01*
X91079057Y-69900500D01*
X91231784Y-69859577D01*
X91368716Y-69780520D01*
X91428293Y-69720943D01*
X105599500Y-69720943D01*
X105599500Y-69879057D01*
X105605246Y-69900499D01*
X105640423Y-70031783D01*
X105640426Y-70031790D01*
X105719475Y-70168709D01*
X105719479Y-70168714D01*
X105719480Y-70168716D01*
X105831284Y-70280520D01*
X105831286Y-70280521D01*
X105831290Y-70280524D01*
X105968209Y-70359573D01*
X105968216Y-70359577D01*
X106120943Y-70400500D01*
X106120945Y-70400500D01*
X106279055Y-70400500D01*
X106279057Y-70400500D01*
X106431784Y-70359577D01*
X106568716Y-70280520D01*
X106680520Y-70168716D01*
X106759577Y-70031784D01*
X106800500Y-69879057D01*
X106800500Y-69720943D01*
X106759577Y-69568216D01*
X106738543Y-69531783D01*
X106680524Y-69431290D01*
X106680518Y-69431282D01*
X106568717Y-69319481D01*
X106568709Y-69319475D01*
X106431790Y-69240426D01*
X106431786Y-69240424D01*
X106431784Y-69240423D01*
X106279057Y-69199500D01*
X106120943Y-69199500D01*
X105968216Y-69240423D01*
X105968209Y-69240426D01*
X105831290Y-69319475D01*
X105831282Y-69319481D01*
X105719481Y-69431282D01*
X105719475Y-69431290D01*
X105640426Y-69568209D01*
X105640423Y-69568216D01*
X105599500Y-69720943D01*
X91428293Y-69720943D01*
X91480520Y-69668716D01*
X91484352Y-69662078D01*
X91490855Y-69650816D01*
X91538547Y-69568209D01*
X91559577Y-69531784D01*
X91600500Y-69379057D01*
X91600500Y-69220943D01*
X91559577Y-69068216D01*
X91559573Y-69068209D01*
X91480524Y-68931290D01*
X91480518Y-68931282D01*
X91368717Y-68819481D01*
X91368709Y-68819475D01*
X91231790Y-68740426D01*
X91231786Y-68740424D01*
X91231784Y-68740423D01*
X91079057Y-68699500D01*
X90920943Y-68699500D01*
X90768216Y-68740423D01*
X90768209Y-68740426D01*
X90631290Y-68819475D01*
X90631282Y-68819481D01*
X90519481Y-68931282D01*
X90519475Y-68931290D01*
X90440426Y-69068209D01*
X90440423Y-69068216D01*
X90399500Y-69220943D01*
X85600000Y-69220943D01*
X85600000Y-68020943D01*
X131899500Y-68020943D01*
X131899500Y-68179056D01*
X131940423Y-68331783D01*
X131940426Y-68331790D01*
X132019475Y-68468709D01*
X132019479Y-68468714D01*
X132019480Y-68468716D01*
X132131284Y-68580520D01*
X132131286Y-68580521D01*
X132131290Y-68580524D01*
X132268209Y-68659573D01*
X132268216Y-68659577D01*
X132420943Y-68700500D01*
X132420945Y-68700500D01*
X132579055Y-68700500D01*
X132579057Y-68700500D01*
X132731784Y-68659577D01*
X132868716Y-68580520D01*
X132980520Y-68468716D01*
X133059577Y-68331784D01*
X133100500Y-68179057D01*
X133100500Y-68020943D01*
X133059577Y-67868216D01*
X133049966Y-67851569D01*
X132980524Y-67731290D01*
X132980518Y-67731282D01*
X132868717Y-67619481D01*
X132868709Y-67619475D01*
X132731790Y-67540426D01*
X132731786Y-67540424D01*
X132731784Y-67540423D01*
X132579057Y-67499500D01*
X132420943Y-67499500D01*
X132268216Y-67540423D01*
X132268209Y-67540426D01*
X132131290Y-67619475D01*
X132131282Y-67619481D01*
X132019481Y-67731282D01*
X132019475Y-67731290D01*
X131940426Y-67868209D01*
X131940423Y-67868216D01*
X131899500Y-68020943D01*
X85600000Y-68020943D01*
X85600000Y-65920943D01*
X98199500Y-65920943D01*
X98199500Y-66079057D01*
X98230129Y-66193364D01*
X98240423Y-66231783D01*
X98240426Y-66231790D01*
X98319475Y-66368709D01*
X98319479Y-66368714D01*
X98319480Y-66368716D01*
X98431284Y-66480520D01*
X98431286Y-66480521D01*
X98431290Y-66480524D01*
X98568209Y-66559573D01*
X98568216Y-66559577D01*
X98720943Y-66600500D01*
X98720945Y-66600500D01*
X98879055Y-66600500D01*
X98879057Y-66600500D01*
X99031784Y-66559577D01*
X99168716Y-66480520D01*
X99280520Y-66368716D01*
X99359577Y-66231784D01*
X99400500Y-66079057D01*
X99400500Y-65920943D01*
X99359577Y-65768216D01*
X99347567Y-65747415D01*
X99347567Y-65747413D01*
X99315288Y-65691504D01*
X108835000Y-65691504D01*
X108835000Y-66090000D01*
X109535000Y-66090000D01*
X109535000Y-66590000D01*
X108835000Y-66590000D01*
X108835000Y-66988495D01*
X108873427Y-67181681D01*
X108873430Y-67181693D01*
X108948807Y-67363671D01*
X108948814Y-67363684D01*
X109058248Y-67527462D01*
X109058251Y-67527466D01*
X109197533Y-67666748D01*
X109197537Y-67666751D01*
X109361315Y-67776185D01*
X109361328Y-67776192D01*
X109543308Y-67851569D01*
X109585000Y-67859862D01*
X109585000Y-67056988D01*
X109594940Y-67074205D01*
X109650795Y-67130060D01*
X109719204Y-67169556D01*
X109795504Y-67190000D01*
X109874496Y-67190000D01*
X109950796Y-67169556D01*
X110019205Y-67130060D01*
X110075060Y-67074205D01*
X110085000Y-67056988D01*
X110085000Y-67859862D01*
X110126690Y-67851569D01*
X110126692Y-67851569D01*
X110308671Y-67776192D01*
X110308684Y-67776185D01*
X110472462Y-67666751D01*
X110472466Y-67666748D01*
X110611748Y-67527466D01*
X110611751Y-67527462D01*
X110721185Y-67363684D01*
X110721192Y-67363671D01*
X110796569Y-67181693D01*
X110796572Y-67181681D01*
X110834999Y-66988495D01*
X110835000Y-66988492D01*
X110835000Y-66590000D01*
X110135000Y-66590000D01*
X110135000Y-66090000D01*
X110673216Y-66090000D01*
X110740255Y-66109685D01*
X110780602Y-66151999D01*
X110804485Y-66193365D01*
X110911635Y-66300515D01*
X111042865Y-66376281D01*
X111189234Y-66415500D01*
X111189236Y-66415500D01*
X111340764Y-66415500D01*
X111340766Y-66415500D01*
X111487135Y-66376281D01*
X111618365Y-66300515D01*
X111725515Y-66193365D01*
X111801281Y-66062135D01*
X111840500Y-65915766D01*
X111840500Y-65764234D01*
X116469500Y-65764234D01*
X116469500Y-65915765D01*
X116508719Y-66062136D01*
X116518488Y-66079056D01*
X116584485Y-66193365D01*
X116691635Y-66300515D01*
X116822865Y-66376281D01*
X116969234Y-66415500D01*
X116969236Y-66415500D01*
X117120763Y-66415500D01*
X117120766Y-66415500D01*
X117267135Y-66376281D01*
X117398365Y-66300515D01*
X117505515Y-66193365D01*
X117529397Y-66151999D01*
X117579964Y-66103784D01*
X117636784Y-66090000D01*
X118175000Y-66090000D01*
X118175000Y-66590000D01*
X117475000Y-66590000D01*
X117475000Y-66988495D01*
X117513427Y-67181681D01*
X117513430Y-67181693D01*
X117588807Y-67363671D01*
X117588814Y-67363684D01*
X117698248Y-67527462D01*
X117698251Y-67527466D01*
X117837533Y-67666748D01*
X117837537Y-67666751D01*
X118001315Y-67776185D01*
X118001328Y-67776192D01*
X118183308Y-67851569D01*
X118225000Y-67859862D01*
X118225000Y-67056988D01*
X118234940Y-67074205D01*
X118290795Y-67130060D01*
X118359204Y-67169556D01*
X118435504Y-67190000D01*
X118514496Y-67190000D01*
X118590796Y-67169556D01*
X118659205Y-67130060D01*
X118715060Y-67074205D01*
X118725000Y-67056988D01*
X118725000Y-67859862D01*
X118766690Y-67851569D01*
X118766692Y-67851569D01*
X118948671Y-67776192D01*
X118948684Y-67776185D01*
X119112462Y-67666751D01*
X119112466Y-67666748D01*
X119251748Y-67527466D01*
X119251751Y-67527462D01*
X119361185Y-67363684D01*
X119361192Y-67363671D01*
X119436569Y-67181693D01*
X119436572Y-67181681D01*
X119474999Y-66988495D01*
X119475000Y-66988492D01*
X119475000Y-66590000D01*
X118775000Y-66590000D01*
X118775000Y-66090000D01*
X119475000Y-66090000D01*
X119475000Y-65691508D01*
X119474999Y-65691504D01*
X119436572Y-65498318D01*
X119436569Y-65498306D01*
X119361192Y-65316328D01*
X119361185Y-65316315D01*
X119251751Y-65152537D01*
X119251748Y-65152533D01*
X119112466Y-65013251D01*
X119112462Y-65013248D01*
X118948684Y-64903814D01*
X118948671Y-64903807D01*
X118766691Y-64828429D01*
X118766683Y-64828427D01*
X118725000Y-64820135D01*
X118725000Y-65623011D01*
X118715060Y-65605795D01*
X118659205Y-65549940D01*
X118590796Y-65510444D01*
X118514496Y-65490000D01*
X118435504Y-65490000D01*
X118359204Y-65510444D01*
X118290795Y-65549940D01*
X118234940Y-65605795D01*
X118225000Y-65623011D01*
X118225000Y-64820136D01*
X118224999Y-64820135D01*
X118183316Y-64828427D01*
X118183308Y-64828429D01*
X118001328Y-64903807D01*
X118001315Y-64903814D01*
X117837537Y-65013248D01*
X117837533Y-65013251D01*
X117698251Y-65152533D01*
X117698248Y-65152537D01*
X117588814Y-65316315D01*
X117588809Y-65316324D01*
X117584866Y-65325845D01*
X117541023Y-65380247D01*
X117474728Y-65402310D01*
X117407030Y-65385029D01*
X117401597Y-65381351D01*
X117267136Y-65303719D01*
X117193950Y-65284109D01*
X117120766Y-65264500D01*
X116969234Y-65264500D01*
X116822863Y-65303719D01*
X116691635Y-65379485D01*
X116691632Y-65379487D01*
X116584487Y-65486632D01*
X116584485Y-65486635D01*
X116508719Y-65617863D01*
X116469500Y-65764234D01*
X111840500Y-65764234D01*
X111801281Y-65617865D01*
X111725515Y-65486635D01*
X111618365Y-65379485D01*
X111548406Y-65339094D01*
X111487136Y-65303719D01*
X111413950Y-65284109D01*
X111340766Y-65264500D01*
X111189234Y-65264500D01*
X111042863Y-65303719D01*
X110951428Y-65356510D01*
X110911635Y-65379485D01*
X110911633Y-65379486D01*
X110904597Y-65383549D01*
X110903327Y-65381349D01*
X110849995Y-65401960D01*
X110781552Y-65387914D01*
X110731568Y-65339094D01*
X110725131Y-65325838D01*
X110721192Y-65316328D01*
X110721185Y-65316315D01*
X110611751Y-65152537D01*
X110611748Y-65152533D01*
X110472466Y-65013251D01*
X110472462Y-65013248D01*
X110308684Y-64903814D01*
X110308671Y-64903807D01*
X110126691Y-64828429D01*
X110126683Y-64828427D01*
X110085000Y-64820135D01*
X110085000Y-65623011D01*
X110075060Y-65605795D01*
X110019205Y-65549940D01*
X109950796Y-65510444D01*
X109874496Y-65490000D01*
X109795504Y-65490000D01*
X109719204Y-65510444D01*
X109650795Y-65549940D01*
X109594940Y-65605795D01*
X109585000Y-65623011D01*
X109585000Y-64820136D01*
X109584999Y-64820135D01*
X109543316Y-64828427D01*
X109543308Y-64828429D01*
X109361328Y-64903807D01*
X109361315Y-64903814D01*
X109197537Y-65013248D01*
X109197533Y-65013251D01*
X109058251Y-65152533D01*
X109058248Y-65152537D01*
X108948814Y-65316315D01*
X108948807Y-65316328D01*
X108873430Y-65498306D01*
X108873427Y-65498318D01*
X108835000Y-65691504D01*
X99315288Y-65691504D01*
X99280524Y-65631290D01*
X99280518Y-65631282D01*
X99168717Y-65519481D01*
X99168709Y-65519475D01*
X99031790Y-65440426D01*
X99031786Y-65440424D01*
X99031784Y-65440423D01*
X98879057Y-65399500D01*
X98720943Y-65399500D01*
X98568216Y-65440423D01*
X98568209Y-65440426D01*
X98431290Y-65519475D01*
X98431282Y-65519481D01*
X98319481Y-65631282D01*
X98319475Y-65631290D01*
X98240426Y-65768209D01*
X98240423Y-65768216D01*
X98199500Y-65920943D01*
X85600000Y-65920943D01*
X85600000Y-63785419D01*
X111104974Y-63785419D01*
X111104974Y-63943532D01*
X111145897Y-64096259D01*
X111145900Y-64096266D01*
X111224949Y-64233185D01*
X111224953Y-64233190D01*
X111224954Y-64233192D01*
X111336758Y-64344996D01*
X111336760Y-64344997D01*
X111336764Y-64345000D01*
X111473683Y-64424049D01*
X111473690Y-64424053D01*
X111626417Y-64464976D01*
X111626419Y-64464976D01*
X111784529Y-64464976D01*
X111784531Y-64464976D01*
X111937258Y-64424053D01*
X112074190Y-64344996D01*
X112185994Y-64233192D01*
X112265051Y-64096260D01*
X112305974Y-63943533D01*
X112305974Y-63785419D01*
X116004974Y-63785419D01*
X116004974Y-63943532D01*
X116045897Y-64096259D01*
X116045900Y-64096266D01*
X116124949Y-64233185D01*
X116124953Y-64233190D01*
X116124954Y-64233192D01*
X116236758Y-64344996D01*
X116236760Y-64344997D01*
X116236764Y-64345000D01*
X116373683Y-64424049D01*
X116373690Y-64424053D01*
X116526417Y-64464976D01*
X116526419Y-64464976D01*
X116684529Y-64464976D01*
X116684531Y-64464976D01*
X116837258Y-64424053D01*
X116974190Y-64344996D01*
X117085994Y-64233192D01*
X117165051Y-64096260D01*
X117205974Y-63943533D01*
X117205974Y-63785419D01*
X117165051Y-63632692D01*
X117146861Y-63601185D01*
X117085998Y-63495766D01*
X117085992Y-63495758D01*
X116974191Y-63383957D01*
X116974183Y-63383951D01*
X116837264Y-63304902D01*
X116837260Y-63304900D01*
X116837258Y-63304899D01*
X116684531Y-63263976D01*
X116526417Y-63263976D01*
X116373690Y-63304899D01*
X116373683Y-63304902D01*
X116236764Y-63383951D01*
X116236756Y-63383957D01*
X116124955Y-63495758D01*
X116124949Y-63495766D01*
X116045900Y-63632685D01*
X116045897Y-63632692D01*
X116004974Y-63785419D01*
X112305974Y-63785419D01*
X112265051Y-63632692D01*
X112246861Y-63601185D01*
X112185998Y-63495766D01*
X112185992Y-63495758D01*
X112074191Y-63383957D01*
X112074183Y-63383951D01*
X111937264Y-63304902D01*
X111937260Y-63304900D01*
X111937258Y-63304899D01*
X111784531Y-63263976D01*
X111626417Y-63263976D01*
X111473690Y-63304899D01*
X111473683Y-63304902D01*
X111336764Y-63383951D01*
X111336756Y-63383957D01*
X111224955Y-63495758D01*
X111224949Y-63495766D01*
X111145900Y-63632685D01*
X111145897Y-63632692D01*
X111104974Y-63785419D01*
X85600000Y-63785419D01*
X85600000Y-61516504D01*
X108840000Y-61516504D01*
X108840000Y-61915000D01*
X109540000Y-61915000D01*
X109540000Y-62415000D01*
X108840000Y-62415000D01*
X108840000Y-62813495D01*
X108878427Y-63006681D01*
X108878430Y-63006693D01*
X108953807Y-63188671D01*
X108953814Y-63188684D01*
X109063248Y-63352462D01*
X109063251Y-63352466D01*
X109202533Y-63491748D01*
X109202537Y-63491751D01*
X109366315Y-63601185D01*
X109366328Y-63601192D01*
X109548308Y-63676569D01*
X109590000Y-63684862D01*
X109590000Y-62881988D01*
X109599940Y-62899205D01*
X109655795Y-62955060D01*
X109724204Y-62994556D01*
X109800504Y-63015000D01*
X109879496Y-63015000D01*
X109955796Y-62994556D01*
X110024205Y-62955060D01*
X110080060Y-62899205D01*
X110090000Y-62881988D01*
X110090000Y-63684862D01*
X110131690Y-63676569D01*
X110131692Y-63676569D01*
X110165102Y-63662731D01*
X110313671Y-63601192D01*
X110313684Y-63601185D01*
X110477462Y-63491751D01*
X110477466Y-63491748D01*
X110616748Y-63352466D01*
X110616751Y-63352462D01*
X110726185Y-63188684D01*
X110726192Y-63188671D01*
X110801569Y-63006693D01*
X110801572Y-63006681D01*
X110839999Y-62813495D01*
X110840000Y-62813492D01*
X110840000Y-62415000D01*
X110140000Y-62415000D01*
X110140000Y-61915000D01*
X110678216Y-61915000D01*
X110745255Y-61934685D01*
X110785602Y-61976999D01*
X110809485Y-62018365D01*
X110916635Y-62125515D01*
X111047865Y-62201281D01*
X111194234Y-62240500D01*
X111194236Y-62240500D01*
X111345764Y-62240500D01*
X111345766Y-62240500D01*
X111492135Y-62201281D01*
X111623365Y-62125515D01*
X111730515Y-62018365D01*
X111806281Y-61887135D01*
X111845500Y-61740766D01*
X111845500Y-61589234D01*
X116474500Y-61589234D01*
X116474500Y-61740766D01*
X116494109Y-61813950D01*
X116513719Y-61887136D01*
X116517230Y-61893217D01*
X116589485Y-62018365D01*
X116696635Y-62125515D01*
X116827865Y-62201281D01*
X116974234Y-62240500D01*
X116974236Y-62240500D01*
X117125763Y-62240500D01*
X117125766Y-62240500D01*
X117272135Y-62201281D01*
X117403365Y-62125515D01*
X117510515Y-62018365D01*
X117534397Y-61976999D01*
X117584964Y-61928784D01*
X117641784Y-61915000D01*
X118180000Y-61915000D01*
X118180000Y-62415000D01*
X117480000Y-62415000D01*
X117480000Y-62813495D01*
X117518427Y-63006681D01*
X117518430Y-63006693D01*
X117593807Y-63188671D01*
X117593814Y-63188684D01*
X117703248Y-63352462D01*
X117703251Y-63352466D01*
X117842533Y-63491748D01*
X117842537Y-63491751D01*
X118006315Y-63601185D01*
X118006328Y-63601192D01*
X118188308Y-63676569D01*
X118230000Y-63684862D01*
X118230000Y-62881988D01*
X118239940Y-62899205D01*
X118295795Y-62955060D01*
X118364204Y-62994556D01*
X118440504Y-63015000D01*
X118519496Y-63015000D01*
X118595796Y-62994556D01*
X118664205Y-62955060D01*
X118720060Y-62899205D01*
X118730000Y-62881988D01*
X118730000Y-63684862D01*
X118771690Y-63676569D01*
X118771692Y-63676569D01*
X118953671Y-63601192D01*
X118953684Y-63601185D01*
X119117462Y-63491751D01*
X119117466Y-63491748D01*
X119256748Y-63352466D01*
X119256751Y-63352462D01*
X119366185Y-63188684D01*
X119366192Y-63188671D01*
X119441569Y-63006693D01*
X119441572Y-63006681D01*
X119479999Y-62813495D01*
X119480000Y-62813492D01*
X119480000Y-62415000D01*
X118780000Y-62415000D01*
X118780000Y-61915000D01*
X119480000Y-61915000D01*
X119480000Y-61516508D01*
X119479999Y-61516504D01*
X119441572Y-61323318D01*
X119441569Y-61323306D01*
X119366192Y-61141328D01*
X119366185Y-61141315D01*
X119256751Y-60977537D01*
X119256748Y-60977533D01*
X119117466Y-60838251D01*
X119117462Y-60838248D01*
X118953684Y-60728814D01*
X118953671Y-60728807D01*
X118771691Y-60653429D01*
X118771683Y-60653427D01*
X118730000Y-60645135D01*
X118730000Y-61448011D01*
X118720060Y-61430795D01*
X118664205Y-61374940D01*
X118595796Y-61335444D01*
X118519496Y-61315000D01*
X118440504Y-61315000D01*
X118364204Y-61335444D01*
X118295795Y-61374940D01*
X118239940Y-61430795D01*
X118230000Y-61448011D01*
X118230000Y-60645136D01*
X118229999Y-60645135D01*
X118188316Y-60653427D01*
X118188308Y-60653429D01*
X118006328Y-60728807D01*
X118006315Y-60728814D01*
X117842537Y-60838248D01*
X117842533Y-60838251D01*
X117703251Y-60977533D01*
X117703248Y-60977537D01*
X117593814Y-61141315D01*
X117593809Y-61141324D01*
X117589866Y-61150845D01*
X117546023Y-61205247D01*
X117479728Y-61227310D01*
X117412030Y-61210029D01*
X117406597Y-61206351D01*
X117272136Y-61128719D01*
X117198950Y-61109109D01*
X117125766Y-61089500D01*
X116974234Y-61089500D01*
X116827863Y-61128719D01*
X116696635Y-61204485D01*
X116696632Y-61204487D01*
X116589487Y-61311632D01*
X116589485Y-61311635D01*
X116513719Y-61442863D01*
X116480191Y-61567993D01*
X116474500Y-61589234D01*
X111845500Y-61589234D01*
X111806281Y-61442865D01*
X111730515Y-61311635D01*
X111623365Y-61204485D01*
X111553406Y-61164094D01*
X111492136Y-61128719D01*
X111418950Y-61109109D01*
X111345766Y-61089500D01*
X111194234Y-61089500D01*
X111047863Y-61128719D01*
X110956428Y-61181510D01*
X110916635Y-61204485D01*
X110916633Y-61204486D01*
X110909597Y-61208549D01*
X110908327Y-61206349D01*
X110854995Y-61226960D01*
X110786552Y-61212914D01*
X110736568Y-61164094D01*
X110730131Y-61150838D01*
X110726192Y-61141328D01*
X110726185Y-61141315D01*
X110616751Y-60977537D01*
X110616748Y-60977533D01*
X110477466Y-60838251D01*
X110477462Y-60838248D01*
X110313684Y-60728814D01*
X110313671Y-60728807D01*
X110131691Y-60653429D01*
X110131683Y-60653427D01*
X110090000Y-60645135D01*
X110090000Y-61448011D01*
X110080060Y-61430795D01*
X110024205Y-61374940D01*
X109955796Y-61335444D01*
X109879496Y-61315000D01*
X109800504Y-61315000D01*
X109724204Y-61335444D01*
X109655795Y-61374940D01*
X109599940Y-61430795D01*
X109590000Y-61448011D01*
X109590000Y-60645136D01*
X109589999Y-60645135D01*
X109548316Y-60653427D01*
X109548308Y-60653429D01*
X109366328Y-60728807D01*
X109366315Y-60728814D01*
X109202537Y-60838248D01*
X109202533Y-60838251D01*
X109063251Y-60977533D01*
X109063248Y-60977537D01*
X108953814Y-61141315D01*
X108953807Y-61141328D01*
X108878430Y-61323306D01*
X108878427Y-61323318D01*
X108840000Y-61516504D01*
X85600000Y-61516504D01*
X85600000Y-60480131D01*
X124194500Y-60480131D01*
X124194500Y-62269856D01*
X124194502Y-62269882D01*
X124197413Y-62294987D01*
X124197415Y-62294991D01*
X124242793Y-62397764D01*
X124242794Y-62397765D01*
X124322235Y-62477206D01*
X124425009Y-62522585D01*
X124450135Y-62525500D01*
X126239864Y-62525499D01*
X126239879Y-62525497D01*
X126239882Y-62525497D01*
X126264987Y-62522586D01*
X126264988Y-62522585D01*
X126264991Y-62522585D01*
X126367765Y-62477206D01*
X126447206Y-62397765D01*
X126492585Y-62294991D01*
X126495500Y-62269865D01*
X126495499Y-62138076D01*
X126515183Y-62071040D01*
X126567987Y-62025285D01*
X126637145Y-62015341D01*
X126700701Y-62044365D01*
X126727500Y-62078605D01*
X126727832Y-62078402D01*
X126729603Y-62081292D01*
X126729977Y-62081770D01*
X126730377Y-62082555D01*
X126855272Y-62254459D01*
X126855276Y-62254464D01*
X127005535Y-62404723D01*
X127005540Y-62404727D01*
X127177442Y-62529620D01*
X127366782Y-62626095D01*
X127568871Y-62691757D01*
X127635000Y-62702231D01*
X127635000Y-61808012D01*
X127692007Y-61840925D01*
X127819174Y-61875000D01*
X127950826Y-61875000D01*
X128077993Y-61840925D01*
X128135000Y-61808012D01*
X128135000Y-62702230D01*
X128201126Y-62691757D01*
X128201129Y-62691757D01*
X128403217Y-62626095D01*
X128592557Y-62529620D01*
X128764459Y-62404727D01*
X128764464Y-62404723D01*
X128914723Y-62254464D01*
X128914727Y-62254459D01*
X129039620Y-62082557D01*
X129136095Y-61893217D01*
X129201757Y-61691129D01*
X129201757Y-61691126D01*
X129212231Y-61625000D01*
X128318012Y-61625000D01*
X128350925Y-61567993D01*
X128385000Y-61440826D01*
X128385000Y-61309174D01*
X128350925Y-61182007D01*
X128318012Y-61125000D01*
X129212231Y-61125000D01*
X129201757Y-61058873D01*
X129201757Y-61058870D01*
X129136095Y-60856782D01*
X129039620Y-60667442D01*
X128914727Y-60495540D01*
X128914723Y-60495535D01*
X128764464Y-60345276D01*
X128764459Y-60345272D01*
X128592557Y-60220379D01*
X128403215Y-60123903D01*
X128201124Y-60058241D01*
X128135000Y-60047768D01*
X128135000Y-60941988D01*
X128077993Y-60909075D01*
X127950826Y-60875000D01*
X127819174Y-60875000D01*
X127692007Y-60909075D01*
X127635000Y-60941988D01*
X127635000Y-60047768D01*
X127634999Y-60047768D01*
X127568875Y-60058241D01*
X127366784Y-60123903D01*
X127177442Y-60220379D01*
X127005540Y-60345272D01*
X127005535Y-60345276D01*
X126855276Y-60495535D01*
X126855272Y-60495540D01*
X126730376Y-60667445D01*
X126729981Y-60668222D01*
X126729752Y-60668463D01*
X126727832Y-60671598D01*
X126727173Y-60671194D01*
X126682004Y-60719016D01*
X126614183Y-60735808D01*
X126548049Y-60713267D01*
X126504600Y-60658550D01*
X126495499Y-60611922D01*
X126495499Y-60480143D01*
X126495499Y-60480136D01*
X126495497Y-60480117D01*
X126492586Y-60455012D01*
X126492585Y-60455010D01*
X126492585Y-60455009D01*
X126447206Y-60352235D01*
X126367765Y-60272794D01*
X126367763Y-60272793D01*
X126264992Y-60227415D01*
X126239865Y-60224500D01*
X124450143Y-60224500D01*
X124450117Y-60224502D01*
X124425012Y-60227413D01*
X124425008Y-60227415D01*
X124322235Y-60272793D01*
X124242794Y-60352234D01*
X124197415Y-60455006D01*
X124197415Y-60455008D01*
X124194500Y-60480131D01*
X85600000Y-60480131D01*
X85600000Y-57486504D01*
X108840000Y-57486504D01*
X108840000Y-57735000D01*
X109540000Y-57735000D01*
X109540000Y-58235000D01*
X108840000Y-58235000D01*
X108840000Y-58483495D01*
X108878427Y-58676681D01*
X108878430Y-58676693D01*
X108953807Y-58858671D01*
X108953814Y-58858684D01*
X109063248Y-59022462D01*
X109063251Y-59022466D01*
X109202533Y-59161748D01*
X109202537Y-59161751D01*
X109366315Y-59271185D01*
X109366328Y-59271192D01*
X109548308Y-59346569D01*
X109590000Y-59354862D01*
X109590000Y-58551988D01*
X109599940Y-58569205D01*
X109655795Y-58625060D01*
X109724204Y-58664556D01*
X109800504Y-58685000D01*
X109879496Y-58685000D01*
X109955796Y-58664556D01*
X110024205Y-58625060D01*
X110080060Y-58569205D01*
X110090000Y-58551988D01*
X110090000Y-59354862D01*
X110131690Y-59346569D01*
X110131692Y-59346569D01*
X110313671Y-59271192D01*
X110313684Y-59271185D01*
X110477462Y-59161751D01*
X110477466Y-59161748D01*
X110616748Y-59022466D01*
X110616751Y-59022462D01*
X110726185Y-58858684D01*
X110726192Y-58858671D01*
X110801569Y-58676693D01*
X110801572Y-58676681D01*
X110839999Y-58483495D01*
X110840000Y-58483492D01*
X110840000Y-58235000D01*
X110140000Y-58235000D01*
X110140000Y-57735000D01*
X110840000Y-57735000D01*
X110840000Y-57486508D01*
X110839999Y-57486504D01*
X117480000Y-57486504D01*
X117480000Y-57735000D01*
X118180000Y-57735000D01*
X118180000Y-58235000D01*
X117480000Y-58235000D01*
X117480000Y-58483495D01*
X117518427Y-58676681D01*
X117518430Y-58676693D01*
X117593807Y-58858671D01*
X117593814Y-58858684D01*
X117703248Y-59022462D01*
X117703251Y-59022466D01*
X117842533Y-59161748D01*
X117842537Y-59161751D01*
X118006315Y-59271185D01*
X118006328Y-59271192D01*
X118188308Y-59346569D01*
X118230000Y-59354862D01*
X118230000Y-58551988D01*
X118239940Y-58569205D01*
X118295795Y-58625060D01*
X118364204Y-58664556D01*
X118440504Y-58685000D01*
X118519496Y-58685000D01*
X118595796Y-58664556D01*
X118664205Y-58625060D01*
X118720060Y-58569205D01*
X118730000Y-58551988D01*
X118730000Y-59354862D01*
X118771690Y-59346569D01*
X118771692Y-59346569D01*
X118953671Y-59271192D01*
X118953684Y-59271185D01*
X119117462Y-59161751D01*
X119117466Y-59161748D01*
X119256748Y-59022466D01*
X119256751Y-59022462D01*
X119366185Y-58858684D01*
X119366192Y-58858671D01*
X119441569Y-58676693D01*
X119441572Y-58676681D01*
X119479999Y-58483495D01*
X119480000Y-58483492D01*
X119480000Y-58235000D01*
X118780000Y-58235000D01*
X118780000Y-57735000D01*
X119480000Y-57735000D01*
X119480000Y-57486508D01*
X119479999Y-57486504D01*
X119441572Y-57293318D01*
X119441569Y-57293306D01*
X119366192Y-57111328D01*
X119366185Y-57111315D01*
X119256751Y-56947537D01*
X119256748Y-56947533D01*
X119117466Y-56808251D01*
X119117462Y-56808248D01*
X118953684Y-56698814D01*
X118953671Y-56698807D01*
X118771691Y-56623429D01*
X118771683Y-56623427D01*
X118730000Y-56615135D01*
X118730000Y-57418011D01*
X118720060Y-57400795D01*
X118664205Y-57344940D01*
X118595796Y-57305444D01*
X118519496Y-57285000D01*
X118440504Y-57285000D01*
X118364204Y-57305444D01*
X118295795Y-57344940D01*
X118239940Y-57400795D01*
X118230000Y-57418011D01*
X118230000Y-56615136D01*
X118229999Y-56615135D01*
X118188316Y-56623427D01*
X118188308Y-56623429D01*
X118006328Y-56698807D01*
X118006315Y-56698814D01*
X117842537Y-56808248D01*
X117842533Y-56808251D01*
X117703251Y-56947533D01*
X117703248Y-56947537D01*
X117593814Y-57111315D01*
X117593807Y-57111328D01*
X117518430Y-57293306D01*
X117518427Y-57293318D01*
X117480000Y-57486504D01*
X110839999Y-57486504D01*
X110801572Y-57293318D01*
X110801569Y-57293306D01*
X110726192Y-57111328D01*
X110726185Y-57111315D01*
X110616751Y-56947537D01*
X110616748Y-56947533D01*
X110477466Y-56808251D01*
X110477462Y-56808248D01*
X110313684Y-56698814D01*
X110313671Y-56698807D01*
X110131691Y-56623429D01*
X110131683Y-56623427D01*
X110090000Y-56615135D01*
X110090000Y-57418011D01*
X110080060Y-57400795D01*
X110024205Y-57344940D01*
X109955796Y-57305444D01*
X109879496Y-57285000D01*
X109800504Y-57285000D01*
X109724204Y-57305444D01*
X109655795Y-57344940D01*
X109599940Y-57400795D01*
X109590000Y-57418011D01*
X109590000Y-56615136D01*
X109589999Y-56615135D01*
X109548316Y-56623427D01*
X109548308Y-56623429D01*
X109366328Y-56698807D01*
X109366315Y-56698814D01*
X109202537Y-56808248D01*
X109202533Y-56808251D01*
X109063251Y-56947533D01*
X109063248Y-56947537D01*
X108953814Y-57111315D01*
X108953807Y-57111328D01*
X108878430Y-57293306D01*
X108878427Y-57293318D01*
X108840000Y-57486504D01*
X85600000Y-57486504D01*
X85600000Y-55859173D01*
X85619685Y-55792134D01*
X85672489Y-55746379D01*
X85724000Y-55735173D01*
X104030809Y-55735173D01*
X133320740Y-55791069D01*
G37*
G04 #@! TD.AperFunction*
M02*
