M48
; DRILL file {KiCad 9.0.5} date 2025-10-24T15:50:49+0200
; FORMAT={-:-/ absolute / metric / decimal}
; #@! TF.CreationDate,2025-10-24T15:50:49+02:00
; #@! TF.GenerationSoftware,Kicad,Pcbnew,9.0.5
; #@! TF.FileFunction,Plated,1,2,PTH
FMAT,2
METRIC
; #@! TA.AperFunction,Plated,PTH,ViaDrill
T1C0.300
; #@! TA.AperFunction,Plated,PTH,ComponentDrill
T2C0.600
; #@! TA.AperFunction,Plated,PTH,ComponentDrill
T3C1.000
%
G90
G05
T1
X85.9Y-56.2
X85.9Y-58.2
X85.9Y-60.2
X85.9Y-62.2
X85.9Y-64.2
X85.9Y-66.2
X85.9Y-68.2
X85.9Y-70.2
X85.9Y-72.2
X85.9Y-74.2
X85.9Y-76.2
X85.9Y-78.2
X85.9Y-80.2
X85.9Y-82.2
X85.9Y-84.2
X85.9Y-86.2
X85.9Y-88.2
X85.9Y-90.2
X85.9Y-92.2
X85.9Y-94.2
X85.9Y-96.2
X85.9Y-98.2
X85.9Y-100.2
X85.9Y-102.2
X85.9Y-104.2
X85.9Y-106.2
X87.9Y-56.2
X88.273Y-105.663
X89.5Y-102.1
X89.9Y-56.2
X91.9Y-56.2
X92.1Y-106.5
X92.2Y-101.55
X92.75Y-84.5
X93.7Y-105.4
X93.9Y-56.2
X94.6Y-106.5
X94.9Y-57.9
X95.0Y-77.5
X95.2Y-103.5
X95.25Y-80.5
X95.3Y-105.4
X95.8Y-91.5
X95.9Y-56.2
X96.7Y-67.9
X96.8Y-57.9
X97.0Y-105.4
X97.5Y-93.6
X97.9Y-56.2
X98.8Y-57.9
X98.8Y-66.0
X99.25Y-60.25
X99.9Y-56.2
X100.7Y-74.7
X100.8Y-57.9
X101.9Y-56.2
X102.575Y-85.25
X102.6Y-77.8
X102.7Y-100.9
X102.7Y-102.7
X102.75Y-83.0
X103.0Y-57.9
X103.9Y-56.2
X104.9Y-57.9
X105.25Y-60.0
X105.4Y-105.3
X105.8Y-98.0
X105.891Y-69.25
X105.9Y-56.2
X106.75Y-75.0
X106.9Y-57.9
X107.2Y-106.5
X107.5Y-84.7
X107.8Y-90.0
X107.9Y-56.2
X108.0Y-94.25
X109.25Y-83.0
X109.491Y-78.05
X109.9Y-56.2
X110.5Y-86.449
X110.505Y-63.864
X110.6Y-79.5
X110.6Y-80.7
X110.6Y-81.8
X111.25Y-71.75
X111.35Y-88.65
X111.59Y-75.654
X111.7Y-79.5
X111.7Y-80.7
X111.7Y-81.8
X111.9Y-56.2
X112.0Y-71.05
X112.25Y-82.65
X112.45Y-85.75
X112.6Y-78.5
X112.65Y-69.25
X112.75Y-71.75
X112.75Y-94.25
X112.8Y-57.7
X112.8Y-79.5
X112.8Y-80.7
X112.8Y-81.8
X113.269Y-84.892
X113.75Y-67.95
X113.871Y-85.466
X113.9Y-56.2
X114.1Y-83.1
X114.9Y-57.7
X115.181Y-85.569
X115.463Y-65.732
X115.9Y-56.2
X116.6Y-77.162
X116.75Y-69.25
X117.25Y-71.75
X117.293Y-81.672
X117.4Y-105.1
X117.9Y-56.2
X117.905Y-63.864
X118.0Y-89.1
X118.0Y-99.5
X118.7Y-100.0
X118.75Y-71.75
X119.9Y-56.2
X120.0Y-76.0
X120.8Y-92.65
X120.94Y-81.6
X121.1Y-100.0
X121.174Y-105.4
X121.2Y-106.4
X121.9Y-56.2
X121.9Y-58.1
X122.5Y-105.4
X122.8Y-72.4
X123.0Y-91.8
X123.2Y-99.6
X123.2Y-102.5
X123.8Y-105.4
X123.9Y-56.2
X124.1Y-65.3
X124.5Y-85.4
X124.75Y-78.5
X124.75Y-81.75
X125.3Y-97.0
X125.3Y-105.3
X125.9Y-56.2
X125.9Y-58.1
X126.0Y-89.1
X126.6Y-105.3
X126.8Y-78.0
X127.9Y-56.2
X127.9Y-58.0
X127.9Y-100.9
X129.0Y-72.5
X129.424Y-105.4
X129.9Y-56.2
X129.9Y-58.0
X129.9Y-65.3
X129.905Y-106.039
X130.725Y-105.4
X131.3Y-100.9
X131.9Y-56.2
X131.9Y-58.0
X132.0Y-60.9
X132.1Y-99.4
X132.1Y-102.5
X132.7Y-105.4
X133.55Y-58.9
X133.95Y-87.5
X134.2Y-96.7
X134.2Y-105.4
X135.0Y-60.9
X135.0Y-63.2
X135.0Y-65.2
X135.3Y-100.9
X136.4Y-58.9
X137.7Y-60.2
X137.7Y-62.2
X137.7Y-64.2
X137.7Y-66.2
X137.7Y-68.2
X137.7Y-70.2
X137.7Y-72.2
X137.7Y-74.2
X137.7Y-76.2
X137.7Y-78.2
X137.7Y-80.2
X137.7Y-82.2
X137.7Y-84.2
X137.7Y-86.2
X137.7Y-88.2
X137.7Y-90.2
X137.7Y-92.2
X137.7Y-94.2
X137.7Y-96.2
X137.7Y-98.2
X137.7Y-100.2
X137.7Y-102.2
X137.7Y-104.2
X137.7Y-106.2
T2
X88.267Y-109.284
X90.017Y-109.284
X91.517Y-109.284
X93.017Y-109.284
X94.517Y-109.284
X96.017Y-109.284
X97.517Y-109.284
X99.017Y-109.284
X100.517Y-109.284
X102.017Y-109.284
X103.517Y-109.284
X105.017Y-109.284
X106.517Y-109.284
X108.017Y-109.284
X109.517Y-109.284
X111.017Y-109.284
X112.517Y-109.284
X114.017Y-109.284
X115.517Y-109.284
X117.017Y-109.284
X118.517Y-109.284
X120.017Y-109.284
X121.517Y-109.284
X123.017Y-109.284
X124.517Y-109.284
X126.017Y-109.284
X127.517Y-109.284
X129.017Y-109.284
X130.517Y-109.284
X132.017Y-109.284
X133.517Y-109.284
X135.267Y-109.284
T3
X125.345Y-61.375
X127.885Y-61.375
T2
G00X109.835Y-66.89
M15
G01X109.835Y-65.79
M16
G05
G00X109.84Y-58.385
M15
G01X109.84Y-57.585
M16
G05
G00X109.84Y-62.715
M15
G01X109.84Y-61.615
M16
G05
G00X118.475Y-66.89
M15
G01X118.475Y-65.79
M16
G05
G00X118.48Y-58.385
M15
G01X118.48Y-57.585
M16
G05
G00X118.48Y-62.715
M15
G01X118.48Y-61.615
M16
G05
M30
