G04 #@! TF.GenerationSoftware,KiCad,Pcbnew,9.0.5*
G04 #@! TF.CreationDate,2025-10-24T16:53:28+02:00*
G04 #@! TF.ProjectId,GameboyCartridgeV1.1,47616d65-626f-4794-9361-727472696467,rev?*
G04 #@! TF.SameCoordinates,Original*
G04 #@! TF.FileFunction,Soldermask,Top*
G04 #@! TF.FilePolarity,Negative*
%FSLAX46Y46*%
G04 Gerber Fmt 4.6, Leading zero omitted, Abs format (unit mm)*
G04 Created by KiCad (PCBNEW 9.0.5) date 2025-10-24 16:53:28*
%MOMM*%
%LPD*%
G01*
G04 APERTURE LIST*
G04 Aperture macros list*
%AMRoundRect*
0 Rectangle with rounded corners*
0 $1 Rounding radius*
0 $2 $3 $4 $5 $6 $7 $8 $9 X,Y pos of 4 corners*
0 Add a 4 corners polygon primitive as box body*
4,1,4,$2,$3,$4,$5,$6,$7,$8,$9,$2,$3,0*
0 Add four circle primitives for the rounded corners*
1,1,$1+$1,$2,$3*
1,1,$1+$1,$4,$5*
1,1,$1+$1,$6,$7*
1,1,$1+$1,$8,$9*
0 Add four rect primitives between the rounded corners*
20,1,$1+$1,$2,$3,$4,$5,0*
20,1,$1+$1,$4,$5,$6,$7,0*
20,1,$1+$1,$6,$7,$8,$9,0*
20,1,$1+$1,$8,$9,$2,$3,0*%
%AMFreePoly0*
4,1,23,0.500000,-0.750000,0.000000,-0.750000,0.000000,-0.745722,-0.065263,-0.745722,-0.191342,-0.711940,-0.304381,-0.646677,-0.396677,-0.554381,-0.461940,-0.441342,-0.495722,-0.315263,-0.495722,-0.250000,-0.500000,-0.250000,-0.500000,0.250000,-0.495722,0.250000,-0.495722,0.315263,-0.461940,0.441342,-0.396677,0.554381,-0.304381,0.646677,-0.191342,0.711940,-0.065263,0.745722,0.000000,0.745722,
0.000000,0.750000,0.500000,0.750000,0.500000,-0.750000,0.500000,-0.750000,$1*%
%AMFreePoly1*
4,1,23,0.000000,0.745722,0.065263,0.745722,0.191342,0.711940,0.304381,0.646677,0.396677,0.554381,0.461940,0.441342,0.495722,0.315263,0.495722,0.250000,0.500000,0.250000,0.500000,-0.250000,0.495722,-0.250000,0.495722,-0.315263,0.461940,-0.441342,0.396677,-0.554381,0.304381,-0.646677,0.191342,-0.711940,0.065263,-0.745722,0.000000,-0.745722,0.000000,-0.750000,-0.500000,-0.750000,
-0.500000,0.750000,0.000000,0.750000,0.000000,0.745722,0.000000,0.745722,$1*%
G04 Aperture macros list end*
%ADD10C,0.000000*%
%ADD11RoundRect,0.237500X-0.300000X-0.237500X0.300000X-0.237500X0.300000X0.237500X-0.300000X0.237500X0*%
%ADD12C,0.650000*%
%ADD13RoundRect,0.150000X0.150000X0.425000X-0.150000X0.425000X-0.150000X-0.425000X0.150000X-0.425000X0*%
%ADD14RoundRect,0.075000X0.075000X0.500000X-0.075000X0.500000X-0.075000X-0.500000X0.075000X-0.500000X0*%
%ADD15O,1.000000X2.100000*%
%ADD16O,1.000000X1.800000*%
%ADD17RoundRect,0.200000X-0.200000X-0.800000X0.200000X-0.800000X0.200000X0.800000X-0.200000X0.800000X0*%
%ADD18RoundRect,0.237500X-0.237500X0.300000X-0.237500X-0.300000X0.237500X-0.300000X0.237500X0.300000X0*%
%ADD19RoundRect,0.237500X0.237500X-0.250000X0.237500X0.250000X-0.237500X0.250000X-0.237500X-0.250000X0*%
%ADD20RoundRect,0.237500X-0.237500X0.250000X-0.237500X-0.250000X0.237500X-0.250000X0.237500X0.250000X0*%
%ADD21C,0.800000*%
%ADD22RoundRect,0.237500X0.300000X0.237500X-0.300000X0.237500X-0.300000X-0.237500X0.300000X-0.237500X0*%
%ADD23RoundRect,0.237500X0.250000X0.237500X-0.250000X0.237500X-0.250000X-0.237500X0.250000X-0.237500X0*%
%ADD24C,2.374900*%
%ADD25C,0.990600*%
%ADD26C,0.787400*%
%ADD27C,2.000000*%
%ADD28RoundRect,0.150000X-0.512500X-0.150000X0.512500X-0.150000X0.512500X0.150000X-0.512500X0.150000X0*%
%ADD29RoundRect,0.237500X0.237500X-0.300000X0.237500X0.300000X-0.237500X0.300000X-0.237500X-0.300000X0*%
%ADD30C,7.200000*%
%ADD31RoundRect,0.150000X-0.425000X0.150000X-0.425000X-0.150000X0.425000X-0.150000X0.425000X0.150000X0*%
%ADD32RoundRect,0.075000X-0.500000X0.075000X-0.500000X-0.075000X0.500000X-0.075000X0.500000X0.075000X0*%
%ADD33O,2.100000X1.000000*%
%ADD34O,1.800000X1.000000*%
%ADD35RoundRect,0.237500X-0.250000X-0.237500X0.250000X-0.237500X0.250000X0.237500X-0.250000X0.237500X0*%
%ADD36RoundRect,0.050000X-0.387500X-0.050000X0.387500X-0.050000X0.387500X0.050000X-0.387500X0.050000X0*%
%ADD37RoundRect,0.050000X-0.050000X-0.387500X0.050000X-0.387500X0.050000X0.387500X-0.050000X0.387500X0*%
%ADD38R,3.200000X3.200000*%
%ADD39R,1.700000X1.700000*%
%ADD40O,1.700000X1.700000*%
%ADD41R,1.400000X1.200000*%
%ADD42R,0.700000X0.700000*%
%ADD43RoundRect,0.100000X-0.100000X0.637500X-0.100000X-0.637500X0.100000X-0.637500X0.100000X0.637500X0*%
%ADD44FreePoly0,90.000000*%
%ADD45FreePoly1,90.000000*%
%ADD46RoundRect,0.150000X-0.650000X-0.150000X0.650000X-0.150000X0.650000X0.150000X-0.650000X0.150000X0*%
%ADD47RoundRect,0.112500X0.112500X-0.187500X0.112500X0.187500X-0.112500X0.187500X-0.112500X-0.187500X0*%
%ADD48RoundRect,0.250000X-0.250000X-0.475000X0.250000X-0.475000X0.250000X0.475000X-0.250000X0.475000X0*%
%ADD49R,0.800000X1.900000*%
%ADD50RoundRect,0.112500X0.187500X0.112500X-0.187500X0.112500X-0.187500X-0.112500X0.187500X-0.112500X0*%
%ADD51R,0.750000X0.250000*%
G04 APERTURE END LIST*
D10*
G36*
X136416962Y-116783715D02*
G01*
X87116962Y-116783715D01*
X87116962Y-109783715D01*
X136416962Y-109783715D01*
X136416962Y-116783715D01*
G37*
D11*
X92550000Y-83250000D03*
X94275000Y-83250000D03*
D12*
X117050000Y-61665000D03*
X111270000Y-61665000D03*
D13*
X117360000Y-62740000D03*
X116560000Y-62740000D03*
D14*
X115410000Y-62740000D03*
X114410000Y-62740000D03*
X113910000Y-62740000D03*
X112910000Y-62740000D03*
D13*
X111760000Y-62740000D03*
X110960000Y-62740000D03*
X110960000Y-62740000D03*
X111760000Y-62740000D03*
D14*
X112410000Y-62740000D03*
X113410000Y-62740000D03*
X114910000Y-62740000D03*
X115910000Y-62740000D03*
D13*
X116560000Y-62740000D03*
X117360000Y-62740000D03*
D15*
X118480000Y-62165000D03*
D16*
X118480000Y-57985000D03*
D15*
X109840000Y-62165000D03*
D16*
X109840000Y-57985000D03*
D17*
X125650000Y-72500000D03*
X129850000Y-72500000D03*
D11*
X103637500Y-82250000D03*
X105362500Y-82250000D03*
D18*
X134200000Y-97937500D03*
X134200000Y-99662500D03*
D19*
X115750000Y-74662500D03*
X115750000Y-72837500D03*
D20*
X114300000Y-89737500D03*
X114300000Y-91562500D03*
D18*
X111250000Y-72887500D03*
X111250000Y-74612500D03*
X112750000Y-72887500D03*
X112750000Y-74612500D03*
X116000000Y-86387500D03*
X116000000Y-88112500D03*
D21*
X88266962Y-109283715D03*
X90016962Y-109283715D03*
X91516962Y-109283715D03*
X93016962Y-109283715D03*
X94516962Y-109283715D03*
X96016962Y-109283715D03*
X97516962Y-109283715D03*
X99016962Y-109283715D03*
X100516962Y-109283715D03*
X102016962Y-109283715D03*
X103516962Y-109283715D03*
X105016962Y-109283715D03*
X106516962Y-109283715D03*
X108016962Y-109283715D03*
X109516962Y-109283715D03*
X111016962Y-109283715D03*
X112516962Y-109283715D03*
X114016962Y-109283715D03*
X115516962Y-109283715D03*
X117016962Y-109283715D03*
X118516962Y-109283715D03*
X120016962Y-109283715D03*
X121516962Y-109283715D03*
X123016962Y-109283715D03*
X124516962Y-109283715D03*
X126016962Y-109283715D03*
X127516962Y-109283715D03*
X129016962Y-109283715D03*
X130516962Y-109283715D03*
X132016962Y-109283715D03*
X133516962Y-109283715D03*
X135266962Y-109283715D03*
D22*
X119862500Y-81750000D03*
X118137500Y-81750000D03*
D23*
X135812500Y-85600000D03*
X133987500Y-85600000D03*
D11*
X107887500Y-93250000D03*
X109612500Y-93250000D03*
D18*
X104800000Y-98037500D03*
X104800000Y-99762500D03*
D24*
X119560000Y-90690000D03*
D25*
X122100000Y-90690000D03*
D24*
X124640000Y-90690000D03*
X119560000Y-87515000D03*
X124640000Y-87515000D03*
D25*
X121084000Y-85610000D03*
X123116000Y-85610000D03*
D26*
X122735000Y-89420000D03*
X121465000Y-89420000D03*
X122735000Y-88150000D03*
X121465000Y-88150000D03*
X122735000Y-86880000D03*
X121465000Y-86880000D03*
D27*
X92100000Y-96100000D03*
D28*
X93862500Y-76550000D03*
X93862500Y-77500000D03*
X93862500Y-78450000D03*
X96137500Y-78450000D03*
X96137500Y-76550000D03*
D11*
X112887500Y-93250000D03*
X114612500Y-93250000D03*
D29*
X134200000Y-104062500D03*
X134200000Y-102337500D03*
X95200000Y-102312500D03*
X95200000Y-100587500D03*
X104800000Y-103762500D03*
X104800000Y-102037500D03*
D30*
X111770000Y-101359673D03*
D12*
X96105000Y-61610000D03*
X96105000Y-67390000D03*
D31*
X97180000Y-61300000D03*
X97180000Y-62100000D03*
D32*
X97180000Y-63250000D03*
X97180000Y-64250000D03*
X97180000Y-64750000D03*
X97180000Y-65750000D03*
D31*
X97180000Y-66900000D03*
X97180000Y-67700000D03*
X97180000Y-67700000D03*
X97180000Y-66900000D03*
D32*
X97180000Y-66250000D03*
X97180000Y-65250000D03*
X97180000Y-63750000D03*
X97180000Y-62750000D03*
D31*
X97180000Y-62100000D03*
X97180000Y-61300000D03*
D33*
X96605000Y-60180000D03*
D34*
X92425000Y-60180000D03*
D33*
X96605000Y-68820000D03*
D34*
X92425000Y-68820000D03*
D35*
X92500000Y-81750000D03*
X94325000Y-81750000D03*
D36*
X108262500Y-78000000D03*
X108262500Y-78400000D03*
X108262500Y-78800000D03*
X108262500Y-79200000D03*
X108262500Y-79600000D03*
X108262500Y-80000000D03*
X108262500Y-80400000D03*
X108262500Y-80800000D03*
X108262500Y-81200000D03*
X108262500Y-81600000D03*
X108262500Y-82000000D03*
X108262500Y-82400000D03*
X108262500Y-82800000D03*
X108262500Y-83200000D03*
D37*
X109100000Y-84037500D03*
X109500000Y-84037500D03*
X109900000Y-84037500D03*
X110300000Y-84037500D03*
X110700000Y-84037500D03*
X111100000Y-84037500D03*
X111500000Y-84037500D03*
X111900000Y-84037500D03*
X112300000Y-84037500D03*
X112700000Y-84037500D03*
X113100000Y-84037500D03*
X113500000Y-84037500D03*
X113900000Y-84037500D03*
X114300000Y-84037500D03*
D36*
X115137500Y-83200000D03*
X115137500Y-82800000D03*
X115137500Y-82400000D03*
X115137500Y-82000000D03*
X115137500Y-81600000D03*
X115137500Y-81200000D03*
X115137500Y-80800000D03*
X115137500Y-80400000D03*
X115137500Y-80000000D03*
X115137500Y-79600000D03*
X115137500Y-79200000D03*
X115137500Y-78800000D03*
X115137500Y-78400000D03*
X115137500Y-78000000D03*
D37*
X114300000Y-77162500D03*
X113900000Y-77162500D03*
X113500000Y-77162500D03*
X113100000Y-77162500D03*
X112700000Y-77162500D03*
X112300000Y-77162500D03*
X111900000Y-77162500D03*
X111500000Y-77162500D03*
X111100000Y-77162500D03*
X110700000Y-77162500D03*
X110300000Y-77162500D03*
X109900000Y-77162500D03*
X109500000Y-77162500D03*
X109100000Y-77162500D03*
D38*
X111700000Y-80600000D03*
D11*
X103737500Y-77675000D03*
X105462500Y-77675000D03*
D27*
X92100000Y-64000000D03*
D39*
X125345000Y-61375000D03*
D40*
X127885000Y-61375000D03*
D41*
X112400000Y-89800000D03*
X110200000Y-89800000D03*
X110200000Y-91500000D03*
X112400000Y-91500000D03*
D22*
X90462500Y-103200000D03*
X88737500Y-103200000D03*
D18*
X114500000Y-86387500D03*
X114500000Y-88112500D03*
D23*
X135812500Y-82900000D03*
X133987500Y-82900000D03*
D35*
X124387500Y-68100000D03*
X126212500Y-68100000D03*
D29*
X98000000Y-78362500D03*
X98000000Y-76637500D03*
D42*
X102115000Y-61450000D03*
X102115000Y-60350000D03*
X100285000Y-60350000D03*
X100285000Y-61450000D03*
D29*
X125300000Y-103862500D03*
X125300000Y-102137500D03*
D22*
X119912500Y-77200000D03*
X118187500Y-77200000D03*
D43*
X123825000Y-98237500D03*
X123175000Y-98237500D03*
X122525000Y-98237500D03*
X121875000Y-98237500D03*
X121225000Y-98237500D03*
X120575000Y-98237500D03*
X119925000Y-98237500D03*
X119275000Y-98237500D03*
X118625000Y-98237500D03*
X117975000Y-98237500D03*
X117975000Y-103962500D03*
X118625000Y-103962500D03*
X119275000Y-103962500D03*
X119925000Y-103962500D03*
X120575000Y-103962500D03*
X121225000Y-103962500D03*
X121875000Y-103962500D03*
X122525000Y-103962500D03*
X123175000Y-103962500D03*
X123825000Y-103962500D03*
D44*
X96525000Y-73350000D03*
D45*
X96525000Y-72050000D03*
D18*
X104000000Y-60137500D03*
X104000000Y-61862500D03*
D19*
X114250000Y-74662500D03*
X114250000Y-72837500D03*
D11*
X106237500Y-67900000D03*
X107962500Y-67900000D03*
D27*
X131500000Y-64000000D03*
D18*
X125300000Y-98037500D03*
X125300000Y-99762500D03*
D46*
X100700000Y-69795000D03*
X100700000Y-71065000D03*
X100700000Y-72335000D03*
X100700000Y-73605000D03*
X107900000Y-73605000D03*
X107900000Y-72335000D03*
X107900000Y-71065000D03*
X107900000Y-69795000D03*
D35*
X129627500Y-68100000D03*
X131452500Y-68100000D03*
D43*
X103325000Y-98237500D03*
X102675000Y-98237500D03*
X102025000Y-98237500D03*
X101375000Y-98237500D03*
X100725000Y-98237500D03*
X100075000Y-98237500D03*
X99425000Y-98237500D03*
X98775000Y-98237500D03*
X98125000Y-98237500D03*
X97475000Y-98237500D03*
X97475000Y-103962500D03*
X98125000Y-103962500D03*
X98775000Y-103962500D03*
X99425000Y-103962500D03*
X100075000Y-103962500D03*
X100725000Y-103962500D03*
X101375000Y-103962500D03*
X102025000Y-103962500D03*
X102675000Y-103962500D03*
X103325000Y-103962500D03*
D29*
X92000000Y-78362500D03*
X92000000Y-76637500D03*
D43*
X132725000Y-98137500D03*
X132075000Y-98137500D03*
X131425000Y-98137500D03*
X130775000Y-98137500D03*
X130125000Y-98137500D03*
X129475000Y-98137500D03*
X128825000Y-98137500D03*
X128175000Y-98137500D03*
X127525000Y-98137500D03*
X126875000Y-98137500D03*
X126875000Y-103862500D03*
X127525000Y-103862500D03*
X128175000Y-103862500D03*
X128825000Y-103862500D03*
X129475000Y-103862500D03*
X130125000Y-103862500D03*
X130775000Y-103862500D03*
X131425000Y-103862500D03*
X132075000Y-103862500D03*
X132725000Y-103862500D03*
D47*
X90500000Y-74050000D03*
X90500000Y-71950000D03*
D48*
X96300000Y-80500000D03*
X98200000Y-80500000D03*
D49*
X135850000Y-89700000D03*
X133950000Y-89700000D03*
X134900000Y-92700000D03*
D50*
X90550000Y-87300000D03*
X88450000Y-87300000D03*
D35*
X100687500Y-67900000D03*
X102512500Y-67900000D03*
D51*
X93650000Y-101900000D03*
X93650000Y-101400000D03*
X93650000Y-100900000D03*
X93650000Y-100400000D03*
X90550000Y-100400000D03*
X90550000Y-100900000D03*
X90550000Y-101400000D03*
X90550000Y-101900000D03*
D18*
X118750000Y-72887500D03*
X118750000Y-74612500D03*
X117250000Y-72887500D03*
X117250000Y-74612500D03*
M02*
