G04 #@! TF.GenerationSoftware,KiCad,Pcbnew,9.0.3*
G04 #@! TF.CreationDate,2025-07-16T19:29:37+02:00*
G04 #@! TF.ProjectId,GameboyCartridgeV2.1,47616d65-626f-4794-9361-727472696467,rev?*
G04 #@! TF.SameCoordinates,Original*
G04 #@! TF.FileFunction,Soldermask,Bot*
G04 #@! TF.FilePolarity,Negative*
%FSLAX46Y46*%
G04 Gerber Fmt 4.6, Leading zero omitted, Abs format (unit mm)*
G04 Created by KiCad (PCBNEW 9.0.3) date 2025-07-16 19:29:37*
%MOMM*%
%LPD*%
G01*
G04 APERTURE LIST*
%ADD10C,7.200000*%
%ADD11C,0.990600*%
%ADD12R,1.700000X1.700000*%
%ADD13O,1.700000X1.700000*%
%ADD14C,0.650000*%
%ADD15O,1.000000X2.100000*%
%ADD16O,1.000000X1.800000*%
%ADD17C,0.800000*%
%ADD18C,0.600000*%
%ADD19C,1.000000*%
G04 APERTURE END LIST*
D10*
X139753038Y-108075958D03*
D11*
X162365000Y-93040000D03*
X161349000Y-87960000D03*
X163381000Y-87960000D03*
D12*
X143900000Y-66700000D03*
D13*
X146440000Y-66700000D03*
D14*
X157690000Y-68115000D03*
X151910000Y-68115000D03*
D15*
X159120000Y-68615000D03*
D16*
X159120000Y-64435000D03*
D15*
X150480000Y-68615000D03*
D16*
X150480000Y-64435000D03*
D17*
X116250000Y-116000000D03*
X118000000Y-116000000D03*
X119500000Y-116000000D03*
X121000000Y-116000000D03*
X122500000Y-116000000D03*
X124000000Y-116000000D03*
X125500000Y-116000000D03*
X127000000Y-116000000D03*
X128500000Y-116000000D03*
X130000000Y-116000000D03*
X131500000Y-116000000D03*
X133000000Y-116000000D03*
X134500000Y-116000000D03*
X136000000Y-116000000D03*
X137500000Y-116000000D03*
X139000000Y-116000000D03*
X140500000Y-116000000D03*
X142000000Y-116000000D03*
X143500000Y-116000000D03*
X145000000Y-116000000D03*
X146500000Y-116000000D03*
X148000000Y-116000000D03*
X149500000Y-116000000D03*
X151000000Y-116000000D03*
X152500000Y-116000000D03*
X154000000Y-116000000D03*
X155500000Y-116000000D03*
X157000000Y-116000000D03*
X158500000Y-116000000D03*
X160000000Y-116000000D03*
X161500000Y-116000000D03*
X163250000Y-116000000D03*
D18*
X143470167Y-89666667D03*
X143470167Y-90800000D03*
X143470167Y-91933333D03*
X144603500Y-89666667D03*
X144603500Y-90800000D03*
X144603500Y-91933333D03*
X145736833Y-89666667D03*
X145736833Y-90800000D03*
X145736833Y-91933333D03*
D19*
X133000000Y-89400000D03*
X128500000Y-93300000D03*
X126600000Y-70100000D03*
X131400000Y-93800000D03*
M02*
