%TF.GenerationSoftware,KiCad,Pcbnew,9.0.3*%
%TF.CreationDate,2025-07-16T19:29:39+02:00*%
%TF.ProjectId,GameboyCartridgeV2.1,47616d65-626f-4794-9361-727472696467,rev?*%
%TF.SameCoordinates,Original*%
%TF.FileFunction,Drillmap*%
%TF.FilePolarity,Positive*%
%FSLAX45Y45*%
G04 Gerber Fmt 4.5, Leading zero omitted, Abs format (unit mm)*
G04 Created by KiCad (PCBNEW 9.0.3) date 2025-07-16 19:29:39*
%MOMM*%
%LPD*%
G01*
G04 APERTURE LIST*
%ADD10C,0.150000*%
%ADD11C,0.200000*%
%ADD12C,0.100000*%
G04 APERTURE END LIST*
D10*
X11338304Y-11341628D02*
X11338304Y-6242596D01*
X16435304Y-12361628D02*
X16435304Y-11341628D01*
X11515304Y-12361628D02*
X16435304Y-12361628D01*
X11338304Y-6242596D02*
X16145304Y-6242596D01*
X16618304Y-6502596D02*
X16145304Y-6502596D01*
X16435304Y-11341628D02*
X16618304Y-11341628D01*
X16618304Y-11341628D02*
X16618304Y-6502596D01*
X16145304Y-6242596D02*
X16145304Y-6502596D01*
X11515304Y-11341628D02*
X11338304Y-11341628D01*
X11515304Y-12361628D02*
X11515304Y-11341628D01*
D11*
D12*
X11610000Y-6480000D02*
X11630000Y-6500000D01*
X11630000Y-6480000D02*
X11610000Y-6500000D01*
X11658945Y-7576413D02*
X11678945Y-7596413D01*
X11678945Y-7576413D02*
X11658945Y-7596413D01*
X11685000Y-9514366D02*
X11705000Y-9534366D01*
X11705000Y-9514366D02*
X11685000Y-9534366D01*
X11740000Y-6700000D02*
X11760000Y-6720000D01*
X11760000Y-6700000D02*
X11740000Y-6720000D01*
X11760000Y-7160000D02*
X11780000Y-7180000D01*
X11780000Y-7160000D02*
X11760000Y-7180000D01*
X11785000Y-9310000D02*
X11805000Y-9330000D01*
X11805000Y-9310000D02*
X11785000Y-9330000D01*
X11800000Y-7340000D02*
X11820000Y-7360000D01*
X11820000Y-7340000D02*
X11800000Y-7360000D01*
X11820000Y-8920000D02*
X11840000Y-8940000D01*
X11840000Y-8920000D02*
X11820000Y-8940000D01*
X11838000Y-11145000D02*
X11858000Y-11165000D01*
X11858000Y-11145000D02*
X11838000Y-11165000D01*
X11840000Y-7970000D02*
X11860000Y-7990000D01*
X11860000Y-7970000D02*
X11840000Y-7990000D01*
X11850000Y-6760000D02*
X11870000Y-6780000D01*
X11870000Y-6760000D02*
X11850000Y-6780000D01*
X11880000Y-10705225D02*
X11900000Y-10725225D01*
X11900000Y-10705225D02*
X11880000Y-10725225D01*
X11890000Y-6480000D02*
X11910000Y-6500000D01*
X11910000Y-6480000D02*
X11890000Y-6500000D01*
X11900000Y-10165000D02*
X11920000Y-10185000D01*
X11920000Y-10165000D02*
X11900000Y-10185000D01*
X11970000Y-7520000D02*
X11990000Y-7540000D01*
X11990000Y-7520000D02*
X11970000Y-7540000D01*
X11970000Y-7780000D02*
X11990000Y-7800000D01*
X11990000Y-7780000D02*
X11970000Y-7800000D01*
X11980000Y-9120000D02*
X12000000Y-9140000D01*
X12000000Y-9120000D02*
X11980000Y-9140000D01*
X11980000Y-9360000D02*
X12000000Y-9380000D01*
X12000000Y-9360000D02*
X11980000Y-9380000D01*
X12000000Y-7260000D02*
X12020000Y-7280000D01*
X12020000Y-7260000D02*
X12000000Y-7280000D01*
X12000000Y-7340000D02*
X12020000Y-7360000D01*
X12020000Y-7340000D02*
X12000000Y-7360000D01*
X12074000Y-6701000D02*
X12094000Y-6721000D01*
X12094000Y-6701000D02*
X12074000Y-6721000D01*
X12090000Y-6960000D02*
X12110000Y-6980000D01*
X12110000Y-6960000D02*
X12090000Y-6980000D01*
X12120000Y-9580000D02*
X12140000Y-9600000D01*
X12140000Y-9580000D02*
X12120000Y-9600000D01*
X12120000Y-9780000D02*
X12140000Y-9800000D01*
X12140000Y-9780000D02*
X12120000Y-9800000D01*
X12149000Y-6472000D02*
X12169000Y-6492000D01*
X12169000Y-6472000D02*
X12149000Y-6492000D01*
X12150000Y-10670000D02*
X12170000Y-10690000D01*
X12170000Y-10670000D02*
X12150000Y-10690000D01*
X12210000Y-7520000D02*
X12230000Y-7540000D01*
X12230000Y-7520000D02*
X12210000Y-7540000D01*
X12210000Y-7780000D02*
X12230000Y-7800000D01*
X12230000Y-7780000D02*
X12210000Y-7800000D01*
X12210000Y-9120000D02*
X12230000Y-9140000D01*
X12230000Y-9120000D02*
X12210000Y-9140000D01*
X12220000Y-9360000D02*
X12240000Y-9380000D01*
X12240000Y-9360000D02*
X12220000Y-9380000D01*
X12230000Y-6469000D02*
X12250000Y-6489000D01*
X12250000Y-6469000D02*
X12230000Y-6489000D01*
X12279000Y-10961000D02*
X12299000Y-10981000D01*
X12299000Y-10961000D02*
X12279000Y-10981000D01*
X12282000Y-11119000D02*
X12302000Y-11139000D01*
X12302000Y-11119000D02*
X12282000Y-11139000D01*
X12283000Y-6698000D02*
X12303000Y-6718000D01*
X12303000Y-6698000D02*
X12283000Y-6718000D01*
X12291250Y-6921250D02*
X12311250Y-6941250D01*
X12311250Y-6921250D02*
X12291250Y-6941250D01*
X12320000Y-10560000D02*
X12340000Y-10580000D01*
X12340000Y-10560000D02*
X12320000Y-10580000D01*
X12370000Y-9310000D02*
X12390000Y-9330000D01*
X12390000Y-9310000D02*
X12370000Y-9330000D01*
X12408837Y-6582020D02*
X12428837Y-6602020D01*
X12428837Y-6582020D02*
X12408837Y-6602020D01*
X12440000Y-6700000D02*
X12460000Y-6720000D01*
X12460000Y-6700000D02*
X12440000Y-6720000D01*
X12440000Y-10060000D02*
X12460000Y-10080000D01*
X12460000Y-10060000D02*
X12440000Y-10080000D01*
X12448000Y-6524000D02*
X12468000Y-6544000D01*
X12468000Y-6524000D02*
X12448000Y-6544000D01*
X12450000Y-8800000D02*
X12470000Y-8820000D01*
X12470000Y-8800000D02*
X12450000Y-8820000D01*
X12470000Y-8060000D02*
X12490000Y-8080000D01*
X12490000Y-8060000D02*
X12470000Y-8080000D01*
X12473611Y-6927772D02*
X12493611Y-6947772D01*
X12493611Y-6927772D02*
X12473611Y-6947772D01*
X12540000Y-11040000D02*
X12560000Y-11060000D01*
X12560000Y-11040000D02*
X12540000Y-11060000D01*
X12560000Y-10300000D02*
X12580000Y-10320000D01*
X12580000Y-10300000D02*
X12560000Y-10320000D01*
X12580000Y-9500000D02*
X12600000Y-9520000D01*
X12600000Y-9500000D02*
X12580000Y-9520000D01*
X12610000Y-9660000D02*
X12630000Y-9680000D01*
X12630000Y-9660000D02*
X12610000Y-9680000D01*
X12610000Y-9820000D02*
X12630000Y-9840000D01*
X12630000Y-9820000D02*
X12610000Y-9840000D01*
X12675026Y-6576218D02*
X12695026Y-6596218D01*
X12695026Y-6576218D02*
X12675026Y-6596218D01*
X12680000Y-7510000D02*
X12700000Y-7530000D01*
X12700000Y-7510000D02*
X12680000Y-7530000D01*
X12690000Y-7320000D02*
X12710000Y-7340000D01*
X12710000Y-7320000D02*
X12690000Y-7340000D01*
X12691000Y-6718000D02*
X12711000Y-6738000D01*
X12711000Y-6718000D02*
X12691000Y-6738000D01*
X12713460Y-7808120D02*
X12733460Y-7828120D01*
X12733460Y-7808120D02*
X12713460Y-7828120D01*
X12730000Y-9690000D02*
X12750000Y-9710000D01*
X12750000Y-9690000D02*
X12730000Y-9710000D01*
X12740000Y-9790000D02*
X12760000Y-9810000D01*
X12760000Y-9790000D02*
X12740000Y-9810000D01*
X12809000Y-10961000D02*
X12829000Y-10981000D01*
X12829000Y-10961000D02*
X12809000Y-10981000D01*
X12810000Y-11119000D02*
X12830000Y-11139000D01*
X12830000Y-11119000D02*
X12810000Y-11139000D01*
X12840000Y-7160000D02*
X12860000Y-7180000D01*
X12860000Y-7160000D02*
X12840000Y-7180000D01*
X12840000Y-7400000D02*
X12860000Y-7420000D01*
X12860000Y-7400000D02*
X12840000Y-7420000D01*
X12840000Y-9540000D02*
X12860000Y-9560000D01*
X12860000Y-9540000D02*
X12840000Y-9560000D01*
X12840000Y-9640000D02*
X12860000Y-9660000D01*
X12860000Y-9640000D02*
X12840000Y-9660000D01*
X12840000Y-9740000D02*
X12860000Y-9760000D01*
X12860000Y-9740000D02*
X12840000Y-9760000D01*
X12870000Y-7990000D02*
X12890000Y-8010000D01*
X12890000Y-7990000D02*
X12870000Y-8010000D01*
X12870000Y-8580000D02*
X12890000Y-8600000D01*
X12890000Y-8580000D02*
X12870000Y-8600000D01*
X12890000Y-9940000D02*
X12910000Y-9960000D01*
X12910000Y-9940000D02*
X12890000Y-9960000D01*
X12930000Y-8450000D02*
X12950000Y-8470000D01*
X12950000Y-8450000D02*
X12930000Y-8470000D01*
X12930000Y-9111250D02*
X12950000Y-9131250D01*
X12950000Y-9111250D02*
X12930000Y-9131250D01*
X12940000Y-9740000D02*
X12960000Y-9760000D01*
X12960000Y-9740000D02*
X12940000Y-9760000D01*
X12940000Y-9840000D02*
X12960000Y-9860000D01*
X12960000Y-9840000D02*
X12940000Y-9860000D01*
X12950000Y-8670000D02*
X12970000Y-8690000D01*
X12970000Y-8670000D02*
X12950000Y-8690000D01*
X12980000Y-7820000D02*
X13000000Y-7840000D01*
X13000000Y-7820000D02*
X12980000Y-7840000D01*
X13030000Y-6630000D02*
X13050000Y-6650000D01*
X13050000Y-6630000D02*
X13030000Y-6650000D01*
X13030000Y-7630000D02*
X13050000Y-7650000D01*
X13050000Y-7630000D02*
X13030000Y-7650000D01*
X13040000Y-9536316D02*
X13060000Y-9556316D01*
X13060000Y-9536316D02*
X13040000Y-9556316D01*
X13040000Y-9640000D02*
X13060000Y-9660000D01*
X13060000Y-9640000D02*
X13040000Y-9660000D01*
X13040000Y-9740000D02*
X13060000Y-9760000D01*
X13060000Y-9740000D02*
X13040000Y-9760000D01*
X13040000Y-9840000D02*
X13060000Y-9860000D01*
X13060000Y-9840000D02*
X13040000Y-9860000D01*
X13070000Y-9967500D02*
X13090000Y-9987500D01*
X13090000Y-9967500D02*
X13070000Y-9987500D01*
X13080000Y-10170000D02*
X13100000Y-10190000D01*
X13100000Y-10170000D02*
X13080000Y-10190000D01*
X13130000Y-9260000D02*
X13150000Y-9280000D01*
X13150000Y-9260000D02*
X13130000Y-9280000D01*
X13140000Y-6630000D02*
X13160000Y-6650000D01*
X13160000Y-6630000D02*
X13140000Y-6650000D01*
X13140000Y-6910000D02*
X13160000Y-6930000D01*
X13160000Y-6910000D02*
X13140000Y-6930000D01*
X13140000Y-9540000D02*
X13160000Y-9560000D01*
X13160000Y-9540000D02*
X13140000Y-9560000D01*
X13160000Y-9191250D02*
X13180000Y-9211250D01*
X13180000Y-9191250D02*
X13160000Y-9211250D01*
X13180000Y-9320000D02*
X13200000Y-9340000D01*
X13200000Y-9320000D02*
X13180000Y-9340000D01*
X13241147Y-9842500D02*
X13261147Y-9862500D01*
X13261147Y-9842500D02*
X13241147Y-9862500D01*
X13247500Y-8880000D02*
X13267500Y-8900000D01*
X13267500Y-8880000D02*
X13247500Y-8900000D01*
X13250000Y-6700000D02*
X13270000Y-6720000D01*
X13270000Y-6700000D02*
X13250000Y-6720000D01*
X13260000Y-6910000D02*
X13280000Y-6930000D01*
X13280000Y-6910000D02*
X13260000Y-6930000D01*
X13260000Y-7310000D02*
X13280000Y-7330000D01*
X13280000Y-7310000D02*
X13260000Y-7330000D01*
X13260000Y-8270000D02*
X13280000Y-8290000D01*
X13280000Y-8270000D02*
X13260000Y-8290000D01*
X13337000Y-10956000D02*
X13357000Y-10976000D01*
X13357000Y-10956000D02*
X13337000Y-10976000D01*
X13337000Y-11120000D02*
X13357000Y-11140000D01*
X13357000Y-11120000D02*
X13337000Y-11140000D01*
X13350000Y-7760000D02*
X13370000Y-7780000D01*
X13370000Y-7760000D02*
X13350000Y-7780000D01*
X13350000Y-7980000D02*
X13370000Y-8000000D01*
X13370000Y-7980000D02*
X13350000Y-8000000D01*
X13359127Y-10059127D02*
X13379127Y-10079127D01*
X13379127Y-10059127D02*
X13359127Y-10079127D01*
X13360000Y-6630000D02*
X13380000Y-6650000D01*
X13380000Y-6630000D02*
X13360000Y-6650000D01*
X13400000Y-8170000D02*
X13420000Y-8190000D01*
X13420000Y-8170000D02*
X13400000Y-8190000D01*
X13400000Y-8360000D02*
X13420000Y-8380000D01*
X13420000Y-8360000D02*
X13400000Y-8380000D01*
X13410000Y-8240000D02*
X13430000Y-8260000D01*
X13430000Y-8240000D02*
X13410000Y-8260000D01*
X13410000Y-8290000D02*
X13430000Y-8310000D01*
X13430000Y-8290000D02*
X13410000Y-8310000D01*
X13419127Y-9999127D02*
X13439127Y-10019127D01*
X13439127Y-9999127D02*
X13419127Y-10019127D01*
X13470000Y-6580000D02*
X13490000Y-6600000D01*
X13490000Y-6580000D02*
X13470000Y-6600000D01*
X13470000Y-6720000D02*
X13490000Y-6740000D01*
X13490000Y-6720000D02*
X13470000Y-6740000D01*
X13470000Y-6910000D02*
X13490000Y-6930000D01*
X13490000Y-6910000D02*
X13470000Y-6930000D01*
X13470000Y-7220000D02*
X13490000Y-7240000D01*
X13490000Y-7220000D02*
X13470000Y-7240000D01*
X13474127Y-9944127D02*
X13494127Y-9964127D01*
X13494127Y-9944127D02*
X13474127Y-9964127D01*
X13510000Y-7560000D02*
X13530000Y-7580000D01*
X13530000Y-7560000D02*
X13510000Y-7580000D01*
X13510000Y-8970000D02*
X13530000Y-8990000D01*
X13530000Y-8970000D02*
X13510000Y-8990000D01*
X13529127Y-9889127D02*
X13549127Y-9909127D01*
X13549127Y-9889127D02*
X13529127Y-9909127D01*
X13560000Y-11240000D02*
X13580000Y-11260000D01*
X13580000Y-11240000D02*
X13560000Y-11260000D01*
X13580000Y-6620000D02*
X13600000Y-6640000D01*
X13600000Y-6620000D02*
X13580000Y-6640000D01*
X13589127Y-9829127D02*
X13609127Y-9849127D01*
X13609127Y-9829127D02*
X13589127Y-9849127D01*
X13597500Y-8240000D02*
X13617500Y-8260000D01*
X13617500Y-8240000D02*
X13597500Y-8260000D01*
X13630000Y-8070000D02*
X13650000Y-8090000D01*
X13650000Y-8070000D02*
X13630000Y-8090000D01*
X13636957Y-9763479D02*
X13656957Y-9783479D01*
X13656957Y-9763479D02*
X13636957Y-9783479D01*
X13640000Y-8850000D02*
X13660000Y-8870000D01*
X13660000Y-8850000D02*
X13640000Y-8870000D01*
X13640000Y-9050000D02*
X13660000Y-9070000D01*
X13660000Y-9050000D02*
X13640000Y-9070000D01*
X13647123Y-9287123D02*
X13667123Y-9307123D01*
X13667123Y-9287123D02*
X13647123Y-9307123D01*
X13650000Y-9470000D02*
X13670000Y-9490000D01*
X13670000Y-9470000D02*
X13650000Y-9490000D01*
X13710000Y-8610000D02*
X13730000Y-8630000D01*
X13730000Y-8610000D02*
X13710000Y-8630000D01*
X13710000Y-9400000D02*
X13730000Y-9420000D01*
X13730000Y-9400000D02*
X13710000Y-9420000D01*
X13770000Y-7400000D02*
X13790000Y-7420000D01*
X13790000Y-7400000D02*
X13770000Y-7420000D01*
X13780000Y-6760000D02*
X13800000Y-6780000D01*
X13800000Y-6760000D02*
X13780000Y-6780000D01*
X13780000Y-6960000D02*
X13800000Y-6980000D01*
X13800000Y-6960000D02*
X13780000Y-6980000D01*
X13780000Y-7250000D02*
X13800000Y-7270000D01*
X13800000Y-7250000D02*
X13780000Y-7270000D01*
X13790000Y-8717500D02*
X13810000Y-8737500D01*
X13810000Y-8717500D02*
X13790000Y-8737500D01*
X13800000Y-7830000D02*
X13820000Y-7850000D01*
X13820000Y-7830000D02*
X13800000Y-7850000D01*
X13810000Y-6580000D02*
X13830000Y-6600000D01*
X13830000Y-6580000D02*
X13810000Y-6600000D01*
X13830000Y-7720000D02*
X13850000Y-7740000D01*
X13850000Y-7720000D02*
X13830000Y-7740000D01*
X13850000Y-8520000D02*
X13870000Y-8540000D01*
X13870000Y-8520000D02*
X13850000Y-8540000D01*
X13854488Y-8675138D02*
X13874488Y-8695138D01*
X13874488Y-8675138D02*
X13854488Y-8695138D01*
X13870000Y-8450000D02*
X13890000Y-8470000D01*
X13890000Y-8450000D02*
X13870000Y-8470000D01*
X13890000Y-7890000D02*
X13910000Y-7910000D01*
X13910000Y-7890000D02*
X13890000Y-7910000D01*
X13920000Y-8187500D02*
X13940000Y-8207500D01*
X13940000Y-8187500D02*
X13920000Y-8207500D01*
X13930000Y-8510000D02*
X13950000Y-8530000D01*
X13950000Y-8510000D02*
X13930000Y-8530000D01*
X14010000Y-8187500D02*
X14030000Y-8207500D01*
X14030000Y-8187500D02*
X14010000Y-8207500D01*
X14010000Y-8510000D02*
X14030000Y-8530000D01*
X14030000Y-8510000D02*
X14010000Y-8530000D01*
X14039779Y-8797500D02*
X14059779Y-8817500D01*
X14059779Y-8797500D02*
X14039779Y-8817500D01*
X14060000Y-9120000D02*
X14080000Y-9140000D01*
X14080000Y-9120000D02*
X14060000Y-9140000D01*
X14061597Y-9264813D02*
X14081597Y-9284813D01*
X14081597Y-9264813D02*
X14061597Y-9284813D01*
X14062123Y-9192123D02*
X14082123Y-9212123D01*
X14082123Y-9192123D02*
X14062123Y-9212123D01*
X14080000Y-6480000D02*
X14100000Y-6500000D01*
X14100000Y-6480000D02*
X14080000Y-6500000D01*
X14081000Y-6697000D02*
X14101000Y-6717000D01*
X14101000Y-6697000D02*
X14081000Y-6717000D01*
X14087810Y-8848423D02*
X14107810Y-8868423D01*
X14107810Y-8848423D02*
X14087810Y-8868423D01*
X14120000Y-8920000D02*
X14140000Y-8940000D01*
X14140000Y-8920000D02*
X14120000Y-8940000D01*
X14120000Y-8990000D02*
X14140000Y-9010000D01*
X14140000Y-8990000D02*
X14120000Y-9010000D01*
X14120000Y-10340000D02*
X14140000Y-10360000D01*
X14140000Y-10340000D02*
X14120000Y-10360000D01*
X14125000Y-7100000D02*
X14145000Y-7120000D01*
X14145000Y-7100000D02*
X14125000Y-7120000D01*
X14130000Y-9155998D02*
X14150000Y-9175998D01*
X14150000Y-9155998D02*
X14130000Y-9175998D01*
X14157301Y-8840000D02*
X14177301Y-8860000D01*
X14177301Y-8840000D02*
X14157301Y-8860000D01*
X14170727Y-9477808D02*
X14190727Y-9497808D01*
X14190727Y-9477808D02*
X14170727Y-9497808D01*
X14190000Y-8660000D02*
X14210000Y-8680000D01*
X14210000Y-8660000D02*
X14190000Y-8680000D01*
X14202500Y-8170000D02*
X14222500Y-8190000D01*
X14222500Y-8170000D02*
X14202500Y-8190000D01*
X14210000Y-8100000D02*
X14230000Y-8120000D01*
X14230000Y-8100000D02*
X14210000Y-8120000D01*
X14230000Y-8290000D02*
X14250000Y-8310000D01*
X14250000Y-8290000D02*
X14230000Y-8310000D01*
X14230000Y-8502500D02*
X14250000Y-8522500D01*
X14250000Y-8502500D02*
X14230000Y-8522500D01*
X14230000Y-9430000D02*
X14250000Y-9450000D01*
X14250000Y-9430000D02*
X14230000Y-9450000D01*
X14250000Y-9650000D02*
X14270000Y-9670000D01*
X14270000Y-9650000D02*
X14250000Y-9670000D01*
X14250000Y-9990000D02*
X14270000Y-10010000D01*
X14270000Y-9990000D02*
X14250000Y-10010000D01*
X14270000Y-9820000D02*
X14290000Y-9840000D01*
X14290000Y-9820000D02*
X14270000Y-9840000D01*
X14285816Y-9472245D02*
X14305816Y-9492245D01*
X14305816Y-9472245D02*
X14285816Y-9492245D01*
X14294000Y-11173000D02*
X14314000Y-11193000D01*
X14314000Y-11173000D02*
X14294000Y-11193000D01*
X14300000Y-9400000D02*
X14320000Y-9420000D01*
X14320000Y-9400000D02*
X14300000Y-9420000D01*
X14325000Y-7790000D02*
X14345000Y-7810000D01*
X14345000Y-7790000D02*
X14325000Y-7810000D01*
X14337850Y-9652218D02*
X14357850Y-9672218D01*
X14357850Y-9652218D02*
X14337850Y-9672218D01*
X14370000Y-8360000D02*
X14390000Y-8380000D01*
X14390000Y-8360000D02*
X14370000Y-8380000D01*
X14370000Y-9890000D02*
X14390000Y-9910000D01*
X14390000Y-9890000D02*
X14370000Y-9910000D01*
X14390000Y-9470000D02*
X14410000Y-9490000D01*
X14410000Y-9470000D02*
X14390000Y-9490000D01*
X14400000Y-8670000D02*
X14420000Y-8690000D01*
X14420000Y-8670000D02*
X14400000Y-8690000D01*
X14410000Y-8490000D02*
X14430000Y-8510000D01*
X14430000Y-8490000D02*
X14410000Y-8510000D01*
X14430000Y-10660000D02*
X14450000Y-10680000D01*
X14450000Y-10660000D02*
X14430000Y-10680000D01*
X14437958Y-8734463D02*
X14457958Y-8754463D01*
X14457958Y-8734463D02*
X14437958Y-8754463D01*
X14450000Y-9360000D02*
X14470000Y-9380000D01*
X14470000Y-9360000D02*
X14450000Y-9380000D01*
X14470000Y-8290000D02*
X14490000Y-8310000D01*
X14490000Y-8290000D02*
X14470000Y-8310000D01*
X14472039Y-8671561D02*
X14492039Y-8691561D01*
X14492039Y-8671561D02*
X14472039Y-8691561D01*
X14500000Y-10340000D02*
X14520000Y-10360000D01*
X14520000Y-10340000D02*
X14500000Y-10360000D01*
X14506000Y-10953000D02*
X14526000Y-10973000D01*
X14526000Y-10953000D02*
X14506000Y-10973000D01*
X14508000Y-11118000D02*
X14528000Y-11138000D01*
X14528000Y-11118000D02*
X14508000Y-11138000D01*
X14532443Y-7789833D02*
X14552443Y-7809833D01*
X14552443Y-7789833D02*
X14532443Y-7809833D01*
X14542021Y-8669954D02*
X14562021Y-8689954D01*
X14562021Y-8669954D02*
X14542021Y-8689954D01*
X14560000Y-10540000D02*
X14580000Y-10560000D01*
X14580000Y-10540000D02*
X14560000Y-10560000D01*
X14570000Y-9352500D02*
X14590000Y-9372500D01*
X14590000Y-9352500D02*
X14570000Y-9372500D01*
X14615000Y-7305000D02*
X14635000Y-7325000D01*
X14635000Y-7305000D02*
X14615000Y-7325000D01*
X14630000Y-9390000D02*
X14650000Y-9410000D01*
X14650000Y-9390000D02*
X14630000Y-9410000D01*
X14634612Y-8670000D02*
X14654612Y-8690000D01*
X14654612Y-8670000D02*
X14634612Y-8690000D01*
X14680000Y-9830000D02*
X14700000Y-9850000D01*
X14700000Y-9830000D02*
X14680000Y-9850000D01*
X14710000Y-8670000D02*
X14730000Y-8690000D01*
X14730000Y-8670000D02*
X14710000Y-8690000D01*
X14733796Y-8769726D02*
X14753796Y-8789726D01*
X14753796Y-8769726D02*
X14733796Y-8789726D01*
X14760000Y-8840000D02*
X14780000Y-8860000D01*
X14780000Y-8840000D02*
X14760000Y-8860000D01*
X14760000Y-9470000D02*
X14780000Y-9490000D01*
X14780000Y-9470000D02*
X14760000Y-9490000D01*
X14790000Y-9310000D02*
X14810000Y-9330000D01*
X14810000Y-9310000D02*
X14790000Y-9330000D01*
X14819000Y-10832000D02*
X14839000Y-10852000D01*
X14839000Y-10832000D02*
X14819000Y-10852000D01*
X14820000Y-8880000D02*
X14840000Y-8900000D01*
X14840000Y-8880000D02*
X14820000Y-8900000D01*
X14840000Y-9260000D02*
X14860000Y-9280000D01*
X14860000Y-9260000D02*
X14840000Y-9280000D01*
X14840000Y-9370000D02*
X14860000Y-9390000D01*
X14860000Y-9370000D02*
X14840000Y-9390000D01*
X14842500Y-7090000D02*
X14862500Y-7110000D01*
X14862500Y-7090000D02*
X14842500Y-7110000D01*
X14847000Y-10961000D02*
X14867000Y-10981000D01*
X14867000Y-10961000D02*
X14847000Y-10981000D01*
X14849000Y-11119000D02*
X14869000Y-11139000D01*
X14869000Y-11119000D02*
X14849000Y-11139000D01*
X14849562Y-9630438D02*
X14869562Y-9650438D01*
X14869562Y-9630438D02*
X14849562Y-9650438D01*
X14860000Y-8390000D02*
X14880000Y-8410000D01*
X14880000Y-8390000D02*
X14860000Y-8410000D01*
X14860000Y-8440000D02*
X14880000Y-8460000D01*
X14880000Y-8440000D02*
X14860000Y-8460000D01*
X14909954Y-9665834D02*
X14929954Y-9685834D01*
X14929954Y-9665834D02*
X14909954Y-9685834D01*
X14980000Y-8140000D02*
X15000000Y-8160000D01*
X15000000Y-8140000D02*
X14980000Y-8160000D01*
X15017500Y-9462500D02*
X15037500Y-9482500D01*
X15037500Y-9462500D02*
X15017500Y-9482500D01*
X15020000Y-8470000D02*
X15040000Y-8490000D01*
X15040000Y-8470000D02*
X15020000Y-8490000D01*
X15050000Y-7372750D02*
X15070000Y-7392750D01*
X15070000Y-7372750D02*
X15050000Y-7392750D01*
X15050000Y-7617250D02*
X15070000Y-7637250D01*
X15070000Y-7617250D02*
X15050000Y-7637250D01*
X15070000Y-9397500D02*
X15090000Y-9417500D01*
X15090000Y-9397500D02*
X15070000Y-9417500D01*
X15080000Y-8690000D02*
X15100000Y-8710000D01*
X15100000Y-8690000D02*
X15080000Y-8710000D01*
X15080000Y-9090000D02*
X15100000Y-9110000D01*
X15100000Y-9090000D02*
X15080000Y-9110000D01*
X15103000Y-7777000D02*
X15123000Y-7797000D01*
X15123000Y-7777000D02*
X15103000Y-7797000D01*
X15110000Y-10657082D02*
X15130000Y-10677082D01*
X15130000Y-10657082D02*
X15110000Y-10677082D01*
X15110000Y-10910000D02*
X15130000Y-10930000D01*
X15130000Y-10910000D02*
X15110000Y-10930000D01*
X15120000Y-9996016D02*
X15140000Y-10016016D01*
X15140000Y-9996016D02*
X15120000Y-10016016D01*
X15130000Y-10590000D02*
X15150000Y-10610000D01*
X15150000Y-10590000D02*
X15130000Y-10610000D01*
X15150000Y-9342500D02*
X15170000Y-9362500D01*
X15170000Y-9342500D02*
X15150000Y-9362500D01*
X15152123Y-9932123D02*
X15172123Y-9952123D01*
X15172123Y-9932123D02*
X15152123Y-9952123D01*
X15175000Y-7310000D02*
X15195000Y-7330000D01*
X15195000Y-7310000D02*
X15175000Y-7330000D01*
X15240000Y-9490000D02*
X15260000Y-9510000D01*
X15260000Y-9490000D02*
X15240000Y-9510000D01*
X15250000Y-9870000D02*
X15270000Y-9890000D01*
X15270000Y-9870000D02*
X15250000Y-9890000D01*
X15250000Y-9990000D02*
X15270000Y-10010000D01*
X15270000Y-9990000D02*
X15250000Y-10010000D01*
X15280000Y-8990000D02*
X15300000Y-9010000D01*
X15300000Y-8990000D02*
X15280000Y-9010000D01*
X15290000Y-9090000D02*
X15310000Y-9110000D01*
X15310000Y-9090000D02*
X15290000Y-9110000D01*
X15300000Y-8690000D02*
X15320000Y-8710000D01*
X15320000Y-8690000D02*
X15300000Y-8710000D01*
X15347500Y-7795000D02*
X15367500Y-7815000D01*
X15367500Y-7795000D02*
X15347500Y-7815000D01*
X15403000Y-10748000D02*
X15423000Y-10768000D01*
X15423000Y-10748000D02*
X15403000Y-10768000D01*
X15424000Y-9056000D02*
X15444000Y-9076000D01*
X15444000Y-9056000D02*
X15424000Y-9076000D01*
X15440000Y-8460000D02*
X15460000Y-8480000D01*
X15460000Y-8460000D02*
X15440000Y-8480000D01*
X15520000Y-7180000D02*
X15540000Y-7200000D01*
X15540000Y-7180000D02*
X15520000Y-7200000D01*
X15520000Y-7260000D02*
X15540000Y-7280000D01*
X15540000Y-7260000D02*
X15520000Y-7280000D01*
X15608000Y-10646000D02*
X15628000Y-10666000D01*
X15628000Y-10646000D02*
X15608000Y-10666000D01*
X15630000Y-10890000D02*
X15650000Y-10910000D01*
X15650000Y-10890000D02*
X15630000Y-10910000D01*
X15650000Y-10590000D02*
X15670000Y-10610000D01*
X15670000Y-10590000D02*
X15650000Y-10610000D01*
X15772500Y-7367500D02*
X15792500Y-7387500D01*
X15792500Y-7367500D02*
X15772500Y-7387500D01*
X15780000Y-10250000D02*
X15800000Y-10270000D01*
X15800000Y-10250000D02*
X15780000Y-10270000D01*
X15870000Y-10310000D02*
X15890000Y-10330000D01*
X15890000Y-10310000D02*
X15870000Y-10330000D01*
X15870000Y-10660000D02*
X15890000Y-10680000D01*
X15890000Y-10660000D02*
X15870000Y-10680000D01*
X15890000Y-8660000D02*
X15910000Y-8680000D01*
X15910000Y-8660000D02*
X15890000Y-8680000D01*
X15970000Y-10070000D02*
X15990000Y-10090000D01*
X15990000Y-10070000D02*
X15970000Y-10090000D01*
X15970000Y-10280000D02*
X15990000Y-10300000D01*
X15990000Y-10280000D02*
X15970000Y-10300000D01*
X15980000Y-9090000D02*
X16000000Y-9110000D01*
X16000000Y-9090000D02*
X15980000Y-9110000D01*
X15980000Y-10900000D02*
X16000000Y-10920000D01*
X16000000Y-10900000D02*
X15980000Y-10920000D01*
X15980000Y-11060000D02*
X16000000Y-11080000D01*
X16000000Y-11060000D02*
X15980000Y-11080000D01*
X15999000Y-7233000D02*
X16019000Y-7253000D01*
X16019000Y-7233000D02*
X15999000Y-7253000D01*
X16030000Y-9040000D02*
X16050000Y-9060000D01*
X16050000Y-9040000D02*
X16030000Y-9060000D01*
X16030000Y-9160000D02*
X16050000Y-9180000D01*
X16050000Y-9160000D02*
X16030000Y-9180000D01*
X16090000Y-8460000D02*
X16110000Y-8480000D01*
X16110000Y-8460000D02*
X16090000Y-8480000D01*
X16098000Y-10855000D02*
X16118000Y-10875000D01*
X16118000Y-10855000D02*
X16098000Y-10875000D01*
X16100000Y-9640000D02*
X16120000Y-9660000D01*
X16120000Y-9640000D02*
X16100000Y-9660000D01*
X16133738Y-9855775D02*
X16153738Y-9875775D01*
X16153738Y-9855775D02*
X16133738Y-9875775D01*
X16139000Y-10588000D02*
X16159000Y-10608000D01*
X16159000Y-10588000D02*
X16139000Y-10608000D01*
X16270000Y-7480000D02*
X16290000Y-7500000D01*
X16290000Y-7480000D02*
X16270000Y-7500000D01*
X16306000Y-10286000D02*
X16326000Y-10306000D01*
X16326000Y-10286000D02*
X16306000Y-10306000D01*
X16350000Y-7810000D02*
X16370000Y-7830000D01*
X16370000Y-7810000D02*
X16350000Y-7830000D01*
X16350000Y-8289000D02*
X16370000Y-8309000D01*
X16370000Y-8289000D02*
X16350000Y-8309000D01*
X16360000Y-9240000D02*
X16380000Y-9260000D01*
X16380000Y-9240000D02*
X16360000Y-9260000D01*
X16400000Y-8910000D02*
X16420000Y-8930000D01*
X16420000Y-8910000D02*
X16400000Y-8930000D01*
X11622500Y-11290000D02*
G75*
G02*
X11597500Y-11290000I-12500J0D01*
G01*
X11597500Y-11290000D02*
G75*
G02*
X11622500Y-11290000I12500J0D01*
G01*
X11622500Y-11350000D02*
G75*
G02*
X11597500Y-11350000I-12500J0D01*
G01*
X11597500Y-11350000D02*
G75*
G02*
X11622500Y-11350000I12500J0D01*
G01*
X14655000Y-8350000D02*
G75*
G02*
X14630000Y-8350000I-12500J0D01*
G01*
X14630000Y-8350000D02*
G75*
G02*
X14655000Y-8350000I12500J0D01*
G01*
X14656146Y-8860000D02*
G75*
G02*
X14631146Y-8860000I-12500J0D01*
G01*
X14631146Y-8860000D02*
G75*
G02*
X14656146Y-8860000I12500J0D01*
G01*
X14657112Y-8410000D02*
G75*
G02*
X14632112Y-8410000I-12500J0D01*
G01*
X14632112Y-8410000D02*
G75*
G02*
X14657112Y-8410000I12500J0D01*
G01*
X15127500Y-6995000D02*
G75*
G02*
X15102500Y-6995000I-12500J0D01*
G01*
X15102500Y-6995000D02*
G75*
G02*
X15127500Y-6995000I12500J0D01*
G01*
X15252500Y-7000000D02*
G75*
G02*
X15227500Y-7000000I-12500J0D01*
G01*
X15227500Y-7000000D02*
G75*
G02*
X15252500Y-7000000I12500J0D01*
G01*
X15732500Y-7000000D02*
G75*
G02*
X15707500Y-7000000I-12500J0D01*
G01*
X15707500Y-7000000D02*
G75*
G02*
X15732500Y-7000000I12500J0D01*
G01*
X15850000Y-6992500D02*
G75*
G02*
X15825000Y-6992500I-12500J0D01*
G01*
X15825000Y-6992500D02*
G75*
G02*
X15850000Y-6992500I12500J0D01*
G01*
X16162500Y-6920000D02*
G75*
G02*
X16137500Y-6920000I-12500J0D01*
G01*
X16137500Y-6920000D02*
G75*
G02*
X16162500Y-6920000I12500J0D01*
G01*
X16292500Y-7285000D02*
G75*
G02*
X16267500Y-7285000I-12500J0D01*
G01*
X16267500Y-7285000D02*
G75*
G02*
X16292500Y-7285000I12500J0D01*
G01*
X16292500Y-7345000D02*
G75*
G02*
X16267500Y-7345000I-12500J0D01*
G01*
X16267500Y-7345000D02*
G75*
G02*
X16292500Y-7345000I12500J0D01*
G01*
X14347017Y-8954167D02*
X14347017Y-8979167D01*
X14334517Y-8966667D02*
X14359517Y-8966667D01*
X14347017Y-9067500D02*
X14347017Y-9092500D01*
X14334517Y-9080000D02*
X14359517Y-9080000D01*
X14347017Y-9180833D02*
X14347017Y-9205833D01*
X14334517Y-9193333D02*
X14359517Y-9193333D01*
X14460350Y-8954167D02*
X14460350Y-8979167D01*
X14447850Y-8966667D02*
X14472850Y-8966667D01*
X14460350Y-9067500D02*
X14460350Y-9092500D01*
X14447850Y-9080000D02*
X14472850Y-9080000D01*
X14460350Y-9180833D02*
X14460350Y-9205833D01*
X14447850Y-9193333D02*
X14472850Y-9193333D01*
X14573683Y-8954167D02*
X14573683Y-8979167D01*
X14561183Y-8966667D02*
X14586183Y-8966667D01*
X14573683Y-9067500D02*
X14573683Y-9092500D01*
X14561183Y-9080000D02*
X14586183Y-9080000D01*
X14573683Y-9180833D02*
X14573683Y-9205833D01*
X14561183Y-9193333D02*
X14586183Y-9193333D01*
X11398910Y-6302235D02*
X11398910Y-6281022D01*
X11377697Y-6281022D01*
X11377697Y-6302235D01*
X11398910Y-6302235D01*
X11398910Y-6502235D02*
X11398910Y-6481022D01*
X11377697Y-6481022D01*
X11377697Y-6502235D01*
X11398910Y-6502235D01*
X11398910Y-6702235D02*
X11398910Y-6681022D01*
X11377697Y-6681022D01*
X11377697Y-6702235D01*
X11398910Y-6702235D01*
X11398910Y-6902235D02*
X11398910Y-6881022D01*
X11377697Y-6881022D01*
X11377697Y-6902235D01*
X11398910Y-6902235D01*
X11398910Y-7102235D02*
X11398910Y-7081022D01*
X11377697Y-7081022D01*
X11377697Y-7102235D01*
X11398910Y-7102235D01*
X11398910Y-7302235D02*
X11398910Y-7281022D01*
X11377697Y-7281022D01*
X11377697Y-7302235D01*
X11398910Y-7302235D01*
X11398910Y-7502235D02*
X11398910Y-7481022D01*
X11377697Y-7481022D01*
X11377697Y-7502235D01*
X11398910Y-7502235D01*
X11398910Y-7702235D02*
X11398910Y-7681022D01*
X11377697Y-7681022D01*
X11377697Y-7702235D01*
X11398910Y-7702235D01*
X11398910Y-7902235D02*
X11398910Y-7881022D01*
X11377697Y-7881022D01*
X11377697Y-7902235D01*
X11398910Y-7902235D01*
X11398910Y-8102235D02*
X11398910Y-8081022D01*
X11377697Y-8081022D01*
X11377697Y-8102235D01*
X11398910Y-8102235D01*
X11398910Y-8302235D02*
X11398910Y-8281022D01*
X11377697Y-8281022D01*
X11377697Y-8302235D01*
X11398910Y-8302235D01*
X11398910Y-8502235D02*
X11398910Y-8481022D01*
X11377697Y-8481022D01*
X11377697Y-8502235D01*
X11398910Y-8502235D01*
X11398910Y-8702235D02*
X11398910Y-8681022D01*
X11377697Y-8681022D01*
X11377697Y-8702235D01*
X11398910Y-8702235D01*
X11398910Y-8902235D02*
X11398910Y-8881022D01*
X11377697Y-8881022D01*
X11377697Y-8902235D01*
X11398910Y-8902235D01*
X11398910Y-9102235D02*
X11398910Y-9081022D01*
X11377697Y-9081022D01*
X11377697Y-9102235D01*
X11398910Y-9102235D01*
X11398910Y-9302235D02*
X11398910Y-9281022D01*
X11377697Y-9281022D01*
X11377697Y-9302235D01*
X11398910Y-9302235D01*
X11398910Y-9502235D02*
X11398910Y-9481022D01*
X11377697Y-9481022D01*
X11377697Y-9502235D01*
X11398910Y-9502235D01*
X11398910Y-9702235D02*
X11398910Y-9681022D01*
X11377697Y-9681022D01*
X11377697Y-9702235D01*
X11398910Y-9702235D01*
X11398910Y-9902235D02*
X11398910Y-9881022D01*
X11377697Y-9881022D01*
X11377697Y-9902235D01*
X11398910Y-9902235D01*
X11398910Y-10102235D02*
X11398910Y-10081022D01*
X11377697Y-10081022D01*
X11377697Y-10102235D01*
X11398910Y-10102235D01*
X11398910Y-10302235D02*
X11398910Y-10281022D01*
X11377697Y-10281022D01*
X11377697Y-10302235D01*
X11398910Y-10302235D01*
X11398910Y-10502235D02*
X11398910Y-10481022D01*
X11377697Y-10481022D01*
X11377697Y-10502235D01*
X11398910Y-10502235D01*
X11398910Y-10702235D02*
X11398910Y-10681022D01*
X11377697Y-10681022D01*
X11377697Y-10702235D01*
X11398910Y-10702235D01*
X11398910Y-10902235D02*
X11398910Y-10881022D01*
X11377697Y-10881022D01*
X11377697Y-10902235D01*
X11398910Y-10902235D01*
X11398910Y-11102235D02*
X11398910Y-11081022D01*
X11377697Y-11081022D01*
X11377697Y-11102235D01*
X11398910Y-11102235D01*
X11398910Y-11302235D02*
X11398910Y-11281022D01*
X11377697Y-11281022D01*
X11377697Y-11302235D01*
X11398910Y-11302235D01*
X11585607Y-10060607D02*
X11585607Y-10039393D01*
X11564393Y-10039393D01*
X11564393Y-10060607D01*
X11585607Y-10060607D01*
X11598910Y-6302235D02*
X11598910Y-6281022D01*
X11577697Y-6281022D01*
X11577697Y-6302235D01*
X11598910Y-6302235D01*
X11620607Y-9490607D02*
X11620607Y-9469393D01*
X11599393Y-9469393D01*
X11599393Y-9490607D01*
X11620607Y-9490607D01*
X11620607Y-9580607D02*
X11620607Y-9559393D01*
X11599393Y-9559393D01*
X11599393Y-9580607D01*
X11620607Y-9580607D01*
X11650607Y-10365607D02*
X11650607Y-10344393D01*
X11629393Y-10344393D01*
X11629393Y-10365607D01*
X11650607Y-10365607D01*
X11710607Y-10365607D02*
X11710607Y-10344393D01*
X11689393Y-10344393D01*
X11689393Y-10365607D01*
X11710607Y-10365607D01*
X11710607Y-10460607D02*
X11710607Y-10439393D01*
X11689393Y-10439393D01*
X11689393Y-10460607D01*
X11710607Y-10460607D01*
X11798910Y-6302235D02*
X11798910Y-6281022D01*
X11777697Y-6281022D01*
X11777697Y-6302235D01*
X11798910Y-6302235D01*
X11805607Y-10160607D02*
X11805607Y-10139393D01*
X11784393Y-10139393D01*
X11784393Y-10160607D01*
X11805607Y-10160607D01*
X11805607Y-10220607D02*
X11805607Y-10199393D01*
X11784393Y-10199393D01*
X11784393Y-10220607D01*
X11805607Y-10220607D01*
X11815607Y-10700607D02*
X11815607Y-10679393D01*
X11794393Y-10679393D01*
X11794393Y-10700607D01*
X11815607Y-10700607D01*
X11815607Y-10770607D02*
X11815607Y-10749393D01*
X11794393Y-10749393D01*
X11794393Y-10770607D01*
X11815607Y-10770607D01*
X11850607Y-9910607D02*
X11850607Y-9889393D01*
X11829393Y-9889393D01*
X11829393Y-9910607D01*
X11850607Y-9910607D01*
X11900607Y-9860607D02*
X11900607Y-9839393D01*
X11879393Y-9839393D01*
X11879393Y-9860607D01*
X11900607Y-9860607D01*
X11998910Y-6302235D02*
X11998910Y-6281022D01*
X11977697Y-6281022D01*
X11977697Y-6302235D01*
X11998910Y-6302235D01*
X12035607Y-10160607D02*
X12035607Y-10139393D01*
X12014393Y-10139393D01*
X12014393Y-10160607D01*
X12035607Y-10160607D01*
X12035607Y-10220607D02*
X12035607Y-10199393D01*
X12014393Y-10199393D01*
X12014393Y-10220607D01*
X12035607Y-10220607D01*
X12190607Y-9995607D02*
X12190607Y-9974393D01*
X12169393Y-9974393D01*
X12169393Y-9995607D01*
X12190607Y-9995607D01*
X12198910Y-6302235D02*
X12198910Y-6281022D01*
X12177697Y-6281022D01*
X12177697Y-6302235D01*
X12198910Y-6302235D01*
X12398910Y-6302235D02*
X12398910Y-6281022D01*
X12377697Y-6281022D01*
X12377697Y-6302235D01*
X12398910Y-6302235D01*
X12500607Y-7023107D02*
X12500607Y-7001893D01*
X12479393Y-7001893D01*
X12479393Y-7023107D01*
X12500607Y-7023107D01*
X12598910Y-6302235D02*
X12598910Y-6281022D01*
X12577697Y-6281022D01*
X12577697Y-6302235D01*
X12598910Y-6302235D01*
X12798910Y-6302235D02*
X12798910Y-6281022D01*
X12777697Y-6281022D01*
X12777697Y-6302235D01*
X12798910Y-6302235D01*
X12998910Y-6302235D02*
X12998910Y-6281022D01*
X12977697Y-6281022D01*
X12977697Y-6302235D01*
X12998910Y-6302235D01*
X13198910Y-6302235D02*
X13198910Y-6281022D01*
X13177697Y-6281022D01*
X13177697Y-6302235D01*
X13198910Y-6302235D01*
X13398910Y-6302235D02*
X13398910Y-6281022D01*
X13377697Y-6281022D01*
X13377697Y-6302235D01*
X13398910Y-6302235D01*
X13598910Y-6302235D02*
X13598910Y-6281022D01*
X13577697Y-6281022D01*
X13577697Y-6302235D01*
X13598910Y-6302235D01*
X13798910Y-6302235D02*
X13798910Y-6281022D01*
X13777697Y-6281022D01*
X13777697Y-6302235D01*
X13798910Y-6302235D01*
X13998910Y-6302235D02*
X13998910Y-6281022D01*
X13977697Y-6281022D01*
X13977697Y-6302235D01*
X13998910Y-6302235D01*
X14198910Y-6302235D02*
X14198910Y-6281022D01*
X14177697Y-6281022D01*
X14177697Y-6302235D01*
X14198910Y-6302235D01*
X14360607Y-7885607D02*
X14360607Y-7864393D01*
X14339393Y-7864393D01*
X14339393Y-7885607D01*
X14360607Y-7885607D01*
X14398910Y-6302235D02*
X14398910Y-6281022D01*
X14377697Y-6281022D01*
X14377697Y-6302235D01*
X14398910Y-6302235D01*
X14540607Y-7885607D02*
X14540607Y-7864393D01*
X14519393Y-7864393D01*
X14519393Y-7885607D01*
X14540607Y-7885607D01*
X14598910Y-6302235D02*
X14598910Y-6281022D01*
X14577697Y-6281022D01*
X14577697Y-6302235D01*
X14598910Y-6302235D01*
X14798910Y-6302235D02*
X14798910Y-6281022D01*
X14777697Y-6281022D01*
X14777697Y-6302235D01*
X14798910Y-6302235D01*
X14998910Y-6302235D02*
X14998910Y-6281022D01*
X14977697Y-6281022D01*
X14977697Y-6302235D01*
X14998910Y-6302235D01*
X15070607Y-7468357D02*
X15070607Y-7447143D01*
X15049393Y-7447143D01*
X15049393Y-7468357D01*
X15070607Y-7468357D01*
X15070607Y-7562857D02*
X15070607Y-7541643D01*
X15049393Y-7541643D01*
X15049393Y-7562857D01*
X15070607Y-7562857D01*
X15198910Y-6302235D02*
X15198910Y-6281022D01*
X15177697Y-6281022D01*
X15177697Y-6302235D01*
X15198910Y-6302235D01*
X15398910Y-6302235D02*
X15398910Y-6281022D01*
X15377697Y-6281022D01*
X15377697Y-6302235D01*
X15398910Y-6302235D01*
X15598910Y-6302235D02*
X15598910Y-6281022D01*
X15577697Y-6281022D01*
X15577697Y-6302235D01*
X15598910Y-6302235D01*
X15798910Y-6302235D02*
X15798910Y-6281022D01*
X15777697Y-6281022D01*
X15777697Y-6302235D01*
X15798910Y-6302235D01*
X15998910Y-6302235D02*
X15998910Y-6281022D01*
X15977697Y-6281022D01*
X15977697Y-6302235D01*
X15998910Y-6302235D01*
X16163910Y-6572235D02*
X16163910Y-6551022D01*
X16142697Y-6551022D01*
X16142697Y-6572235D01*
X16163910Y-6572235D01*
X16330607Y-11480607D02*
X16330607Y-11459393D01*
X16309393Y-11459393D01*
X16309393Y-11480607D01*
X16330607Y-11480607D01*
X16448910Y-6572235D02*
X16448910Y-6551022D01*
X16427697Y-6551022D01*
X16427697Y-6572235D01*
X16448910Y-6572235D01*
X16578910Y-6702235D02*
X16578910Y-6681022D01*
X16557697Y-6681022D01*
X16557697Y-6702235D01*
X16578910Y-6702235D01*
X16578910Y-6902235D02*
X16578910Y-6881022D01*
X16557697Y-6881022D01*
X16557697Y-6902235D01*
X16578910Y-6902235D01*
X16578910Y-7102235D02*
X16578910Y-7081022D01*
X16557697Y-7081022D01*
X16557697Y-7102235D01*
X16578910Y-7102235D01*
X16578910Y-7302235D02*
X16578910Y-7281022D01*
X16557697Y-7281022D01*
X16557697Y-7302235D01*
X16578910Y-7302235D01*
X16578910Y-7502235D02*
X16578910Y-7481022D01*
X16557697Y-7481022D01*
X16557697Y-7502235D01*
X16578910Y-7502235D01*
X16578910Y-7702235D02*
X16578910Y-7681022D01*
X16557697Y-7681022D01*
X16557697Y-7702235D01*
X16578910Y-7702235D01*
X16578910Y-7902235D02*
X16578910Y-7881022D01*
X16557697Y-7881022D01*
X16557697Y-7902235D01*
X16578910Y-7902235D01*
X16578910Y-8102235D02*
X16578910Y-8081022D01*
X16557697Y-8081022D01*
X16557697Y-8102235D01*
X16578910Y-8102235D01*
X16578910Y-8302235D02*
X16578910Y-8281022D01*
X16557697Y-8281022D01*
X16557697Y-8302235D01*
X16578910Y-8302235D01*
X16578910Y-8502235D02*
X16578910Y-8481022D01*
X16557697Y-8481022D01*
X16557697Y-8502235D01*
X16578910Y-8502235D01*
X16578910Y-8702235D02*
X16578910Y-8681022D01*
X16557697Y-8681022D01*
X16557697Y-8702235D01*
X16578910Y-8702235D01*
X16578910Y-8902235D02*
X16578910Y-8881022D01*
X16557697Y-8881022D01*
X16557697Y-8902235D01*
X16578910Y-8902235D01*
X16578910Y-9102235D02*
X16578910Y-9081022D01*
X16557697Y-9081022D01*
X16557697Y-9102235D01*
X16578910Y-9102235D01*
X16578910Y-9302235D02*
X16578910Y-9281022D01*
X16557697Y-9281022D01*
X16557697Y-9302235D01*
X16578910Y-9302235D01*
X16578910Y-9502235D02*
X16578910Y-9481022D01*
X16557697Y-9481022D01*
X16557697Y-9502235D01*
X16578910Y-9502235D01*
X16578910Y-9702235D02*
X16578910Y-9681022D01*
X16557697Y-9681022D01*
X16557697Y-9702235D01*
X16578910Y-9702235D01*
X16578910Y-9902235D02*
X16578910Y-9881022D01*
X16557697Y-9881022D01*
X16557697Y-9902235D01*
X16578910Y-9902235D01*
X16578910Y-10102235D02*
X16578910Y-10081022D01*
X16557697Y-10081022D01*
X16557697Y-10102235D01*
X16578910Y-10102235D01*
X16578910Y-10302235D02*
X16578910Y-10281022D01*
X16557697Y-10281022D01*
X16557697Y-10302235D01*
X16578910Y-10302235D01*
X16578910Y-10502235D02*
X16578910Y-10481022D01*
X16557697Y-10481022D01*
X16557697Y-10502235D01*
X16578910Y-10502235D01*
X16578910Y-10702235D02*
X16578910Y-10681022D01*
X16557697Y-10681022D01*
X16557697Y-10702235D01*
X16578910Y-10702235D01*
X16578910Y-10902235D02*
X16578910Y-10881022D01*
X16557697Y-10881022D01*
X16557697Y-10902235D01*
X16578910Y-10902235D01*
X16578910Y-11102235D02*
X16578910Y-11081022D01*
X16557697Y-11081022D01*
X16557697Y-11102235D01*
X16578910Y-11102235D01*
X16578910Y-11302235D02*
X16578910Y-11281022D01*
X16557697Y-11281022D01*
X16557697Y-11302235D01*
X16578910Y-11302235D01*
X11625000Y-11630000D02*
X11655000Y-11600000D01*
X11625000Y-11570000D01*
X11595000Y-11600000D01*
X11625000Y-11630000D01*
X11800000Y-11630000D02*
X11830000Y-11600000D01*
X11800000Y-11570000D01*
X11770000Y-11600000D01*
X11800000Y-11630000D01*
X11950000Y-11630000D02*
X11980000Y-11600000D01*
X11950000Y-11570000D01*
X11920000Y-11600000D01*
X11950000Y-11630000D01*
X12100000Y-11630000D02*
X12130000Y-11600000D01*
X12100000Y-11570000D01*
X12070000Y-11600000D01*
X12100000Y-11630000D01*
X12250000Y-11630000D02*
X12280000Y-11600000D01*
X12250000Y-11570000D01*
X12220000Y-11600000D01*
X12250000Y-11630000D01*
X12400000Y-11630000D02*
X12430000Y-11600000D01*
X12400000Y-11570000D01*
X12370000Y-11600000D01*
X12400000Y-11630000D01*
X12550000Y-11630000D02*
X12580000Y-11600000D01*
X12550000Y-11570000D01*
X12520000Y-11600000D01*
X12550000Y-11630000D01*
X12700000Y-11630000D02*
X12730000Y-11600000D01*
X12700000Y-11570000D01*
X12670000Y-11600000D01*
X12700000Y-11630000D01*
X12850000Y-11630000D02*
X12880000Y-11600000D01*
X12850000Y-11570000D01*
X12820000Y-11600000D01*
X12850000Y-11630000D01*
X13000000Y-11630000D02*
X13030000Y-11600000D01*
X13000000Y-11570000D01*
X12970000Y-11600000D01*
X13000000Y-11630000D01*
X13150000Y-11630000D02*
X13180000Y-11600000D01*
X13150000Y-11570000D01*
X13120000Y-11600000D01*
X13150000Y-11630000D01*
X13300000Y-11630000D02*
X13330000Y-11600000D01*
X13300000Y-11570000D01*
X13270000Y-11600000D01*
X13300000Y-11630000D01*
X13450000Y-11630000D02*
X13480000Y-11600000D01*
X13450000Y-11570000D01*
X13420000Y-11600000D01*
X13450000Y-11630000D01*
X13600000Y-11630000D02*
X13630000Y-11600000D01*
X13600000Y-11570000D01*
X13570000Y-11600000D01*
X13600000Y-11630000D01*
X13750000Y-11630000D02*
X13780000Y-11600000D01*
X13750000Y-11570000D01*
X13720000Y-11600000D01*
X13750000Y-11630000D01*
X13900000Y-11630000D02*
X13930000Y-11600000D01*
X13900000Y-11570000D01*
X13870000Y-11600000D01*
X13900000Y-11630000D01*
X14050000Y-11630000D02*
X14080000Y-11600000D01*
X14050000Y-11570000D01*
X14020000Y-11600000D01*
X14050000Y-11630000D01*
X14200000Y-11630000D02*
X14230000Y-11600000D01*
X14200000Y-11570000D01*
X14170000Y-11600000D01*
X14200000Y-11630000D01*
X14350000Y-11630000D02*
X14380000Y-11600000D01*
X14350000Y-11570000D01*
X14320000Y-11600000D01*
X14350000Y-11630000D01*
X14500000Y-11630000D02*
X14530000Y-11600000D01*
X14500000Y-11570000D01*
X14470000Y-11600000D01*
X14500000Y-11630000D01*
X14650000Y-11630000D02*
X14680000Y-11600000D01*
X14650000Y-11570000D01*
X14620000Y-11600000D01*
X14650000Y-11630000D01*
X14800000Y-11630000D02*
X14830000Y-11600000D01*
X14800000Y-11570000D01*
X14770000Y-11600000D01*
X14800000Y-11630000D01*
X14950000Y-11630000D02*
X14980000Y-11600000D01*
X14950000Y-11570000D01*
X14920000Y-11600000D01*
X14950000Y-11630000D01*
X15048000Y-6473500D02*
X15078000Y-6443500D01*
X15048000Y-6413500D01*
X15018000Y-6443500D01*
X15048000Y-6473500D01*
X15078000Y-6483500D02*
X15078000Y-6403500D01*
X15018000Y-6403500D02*
G75*
G02*
X15078000Y-6403500I30000J0D01*
G01*
X15018000Y-6403500D02*
X15018000Y-6483500D01*
X15018000Y-6483500D02*
G75*
G03*
X15078000Y-6483500I30000J0D01*
G01*
X15048000Y-6891500D02*
X15078000Y-6861500D01*
X15048000Y-6831500D01*
X15018000Y-6861500D01*
X15048000Y-6891500D01*
X15078000Y-6916500D02*
X15078000Y-6806500D01*
X15018000Y-6806500D02*
G75*
G02*
X15078000Y-6806500I30000J0D01*
G01*
X15018000Y-6806500D02*
X15018000Y-6916500D01*
X15018000Y-6916500D02*
G75*
G03*
X15078000Y-6916500I30000J0D01*
G01*
X15100000Y-11630000D02*
X15130000Y-11600000D01*
X15100000Y-11570000D01*
X15070000Y-11600000D01*
X15100000Y-11630000D01*
X15250000Y-11630000D02*
X15280000Y-11600000D01*
X15250000Y-11570000D01*
X15220000Y-11600000D01*
X15250000Y-11630000D01*
X15400000Y-11630000D02*
X15430000Y-11600000D01*
X15400000Y-11570000D01*
X15370000Y-11600000D01*
X15400000Y-11630000D01*
X15550000Y-11630000D02*
X15580000Y-11600000D01*
X15550000Y-11570000D01*
X15520000Y-11600000D01*
X15550000Y-11630000D01*
X15700000Y-11630000D02*
X15730000Y-11600000D01*
X15700000Y-11570000D01*
X15670000Y-11600000D01*
X15700000Y-11630000D01*
X15850000Y-11630000D02*
X15880000Y-11600000D01*
X15850000Y-11570000D01*
X15820000Y-11600000D01*
X15850000Y-11630000D01*
X15912000Y-6473500D02*
X15942000Y-6443500D01*
X15912000Y-6413500D01*
X15882000Y-6443500D01*
X15912000Y-6473500D01*
X15942000Y-6483500D02*
X15942000Y-6403500D01*
X15882000Y-6403500D02*
G75*
G02*
X15942000Y-6403500I30000J0D01*
G01*
X15882000Y-6403500D02*
X15882000Y-6483500D01*
X15882000Y-6483500D02*
G75*
G03*
X15942000Y-6483500I30000J0D01*
G01*
X15912000Y-6891500D02*
X15942000Y-6861500D01*
X15912000Y-6831500D01*
X15882000Y-6861500D01*
X15912000Y-6891500D01*
X15942000Y-6916500D02*
X15942000Y-6806500D01*
X15882000Y-6806500D02*
G75*
G02*
X15942000Y-6806500I30000J0D01*
G01*
X15882000Y-6806500D02*
X15882000Y-6916500D01*
X15882000Y-6916500D02*
G75*
G03*
X15942000Y-6916500I30000J0D01*
G01*
X16000000Y-11630000D02*
X16030000Y-11600000D01*
X16000000Y-11570000D01*
X15970000Y-11600000D01*
X16000000Y-11630000D01*
X16150000Y-11630000D02*
X16180000Y-11600000D01*
X16150000Y-11570000D01*
X16120000Y-11600000D01*
X16150000Y-11630000D01*
X16325000Y-11630000D02*
X16355000Y-11600000D01*
X16325000Y-11570000D01*
X16295000Y-11600000D01*
X16325000Y-11630000D01*
X14340000Y-6620000D02*
X14440000Y-6720000D01*
X14440000Y-6620000D02*
X14340000Y-6720000D01*
X14440000Y-6670000D02*
G75*
G02*
X14340000Y-6670000I-50000J0D01*
G01*
X14340000Y-6670000D02*
G75*
G02*
X14440000Y-6670000I50000J0D01*
G01*
X14594000Y-6620000D02*
X14694000Y-6720000D01*
X14694000Y-6620000D02*
X14594000Y-6720000D01*
X14694000Y-6670000D02*
G75*
G02*
X14594000Y-6670000I-50000J0D01*
G01*
X14594000Y-6670000D02*
G75*
G02*
X14694000Y-6670000I50000J0D01*
G01*
D11*
X11591581Y-12680612D02*
X11591581Y-12480612D01*
X11591581Y-12480612D02*
X11639200Y-12480612D01*
X11639200Y-12480612D02*
X11667771Y-12490136D01*
X11667771Y-12490136D02*
X11686819Y-12509184D01*
X11686819Y-12509184D02*
X11696342Y-12528231D01*
X11696342Y-12528231D02*
X11705866Y-12566326D01*
X11705866Y-12566326D02*
X11705866Y-12594898D01*
X11705866Y-12594898D02*
X11696342Y-12632993D01*
X11696342Y-12632993D02*
X11686819Y-12652041D01*
X11686819Y-12652041D02*
X11667771Y-12671088D01*
X11667771Y-12671088D02*
X11639200Y-12680612D01*
X11639200Y-12680612D02*
X11591581Y-12680612D01*
X11791581Y-12680612D02*
X11791581Y-12547279D01*
X11791581Y-12585374D02*
X11801104Y-12566326D01*
X11801104Y-12566326D02*
X11810628Y-12556803D01*
X11810628Y-12556803D02*
X11829676Y-12547279D01*
X11829676Y-12547279D02*
X11848723Y-12547279D01*
X11915390Y-12680612D02*
X11915390Y-12547279D01*
X11915390Y-12480612D02*
X11905866Y-12490136D01*
X11905866Y-12490136D02*
X11915390Y-12499660D01*
X11915390Y-12499660D02*
X11924914Y-12490136D01*
X11924914Y-12490136D02*
X11915390Y-12480612D01*
X11915390Y-12480612D02*
X11915390Y-12499660D01*
X12039200Y-12680612D02*
X12020152Y-12671088D01*
X12020152Y-12671088D02*
X12010628Y-12652041D01*
X12010628Y-12652041D02*
X12010628Y-12480612D01*
X12143961Y-12680612D02*
X12124914Y-12671088D01*
X12124914Y-12671088D02*
X12115390Y-12652041D01*
X12115390Y-12652041D02*
X12115390Y-12480612D01*
X12372533Y-12680612D02*
X12372533Y-12480612D01*
X12372533Y-12480612D02*
X12439200Y-12623469D01*
X12439200Y-12623469D02*
X12505866Y-12480612D01*
X12505866Y-12480612D02*
X12505866Y-12680612D01*
X12686819Y-12680612D02*
X12686819Y-12575850D01*
X12686819Y-12575850D02*
X12677295Y-12556803D01*
X12677295Y-12556803D02*
X12658247Y-12547279D01*
X12658247Y-12547279D02*
X12620152Y-12547279D01*
X12620152Y-12547279D02*
X12601104Y-12556803D01*
X12686819Y-12671088D02*
X12667771Y-12680612D01*
X12667771Y-12680612D02*
X12620152Y-12680612D01*
X12620152Y-12680612D02*
X12601104Y-12671088D01*
X12601104Y-12671088D02*
X12591581Y-12652041D01*
X12591581Y-12652041D02*
X12591581Y-12632993D01*
X12591581Y-12632993D02*
X12601104Y-12613946D01*
X12601104Y-12613946D02*
X12620152Y-12604422D01*
X12620152Y-12604422D02*
X12667771Y-12604422D01*
X12667771Y-12604422D02*
X12686819Y-12594898D01*
X12782057Y-12547279D02*
X12782057Y-12747279D01*
X12782057Y-12556803D02*
X12801104Y-12547279D01*
X12801104Y-12547279D02*
X12839200Y-12547279D01*
X12839200Y-12547279D02*
X12858247Y-12556803D01*
X12858247Y-12556803D02*
X12867771Y-12566326D01*
X12867771Y-12566326D02*
X12877295Y-12585374D01*
X12877295Y-12585374D02*
X12877295Y-12642517D01*
X12877295Y-12642517D02*
X12867771Y-12661565D01*
X12867771Y-12661565D02*
X12858247Y-12671088D01*
X12858247Y-12671088D02*
X12839200Y-12680612D01*
X12839200Y-12680612D02*
X12801104Y-12680612D01*
X12801104Y-12680612D02*
X12782057Y-12671088D01*
X12963009Y-12661565D02*
X12972533Y-12671088D01*
X12972533Y-12671088D02*
X12963009Y-12680612D01*
X12963009Y-12680612D02*
X12953485Y-12671088D01*
X12953485Y-12671088D02*
X12963009Y-12661565D01*
X12963009Y-12661565D02*
X12963009Y-12680612D01*
X12963009Y-12556803D02*
X12972533Y-12566326D01*
X12972533Y-12566326D02*
X12963009Y-12575850D01*
X12963009Y-12575850D02*
X12953485Y-12566326D01*
X12953485Y-12566326D02*
X12963009Y-12556803D01*
X12963009Y-12556803D02*
X12963009Y-12575850D01*
D12*
X11310804Y-12999128D02*
X11330804Y-13019128D01*
X11330804Y-12999128D02*
X11310804Y-13019128D01*
D11*
X11629676Y-12900612D02*
X11648723Y-12900612D01*
X11648723Y-12900612D02*
X11667771Y-12910136D01*
X11667771Y-12910136D02*
X11677295Y-12919660D01*
X11677295Y-12919660D02*
X11686819Y-12938707D01*
X11686819Y-12938707D02*
X11696342Y-12976803D01*
X11696342Y-12976803D02*
X11696342Y-13024422D01*
X11696342Y-13024422D02*
X11686819Y-13062517D01*
X11686819Y-13062517D02*
X11677295Y-13081565D01*
X11677295Y-13081565D02*
X11667771Y-13091088D01*
X11667771Y-13091088D02*
X11648723Y-13100612D01*
X11648723Y-13100612D02*
X11629676Y-13100612D01*
X11629676Y-13100612D02*
X11610628Y-13091088D01*
X11610628Y-13091088D02*
X11601104Y-13081565D01*
X11601104Y-13081565D02*
X11591581Y-13062517D01*
X11591581Y-13062517D02*
X11582057Y-13024422D01*
X11582057Y-13024422D02*
X11582057Y-12976803D01*
X11582057Y-12976803D02*
X11591581Y-12938707D01*
X11591581Y-12938707D02*
X11601104Y-12919660D01*
X11601104Y-12919660D02*
X11610628Y-12910136D01*
X11610628Y-12910136D02*
X11629676Y-12900612D01*
X11782057Y-13081565D02*
X11791581Y-13091088D01*
X11791581Y-13091088D02*
X11782057Y-13100612D01*
X11782057Y-13100612D02*
X11772533Y-13091088D01*
X11772533Y-13091088D02*
X11782057Y-13081565D01*
X11782057Y-13081565D02*
X11782057Y-13100612D01*
X11867771Y-12919660D02*
X11877295Y-12910136D01*
X11877295Y-12910136D02*
X11896342Y-12900612D01*
X11896342Y-12900612D02*
X11943962Y-12900612D01*
X11943962Y-12900612D02*
X11963009Y-12910136D01*
X11963009Y-12910136D02*
X11972533Y-12919660D01*
X11972533Y-12919660D02*
X11982057Y-12938707D01*
X11982057Y-12938707D02*
X11982057Y-12957755D01*
X11982057Y-12957755D02*
X11972533Y-12986326D01*
X11972533Y-12986326D02*
X11858247Y-13100612D01*
X11858247Y-13100612D02*
X11982057Y-13100612D01*
X12105866Y-12900612D02*
X12124914Y-12900612D01*
X12124914Y-12900612D02*
X12143962Y-12910136D01*
X12143962Y-12910136D02*
X12153485Y-12919660D01*
X12153485Y-12919660D02*
X12163009Y-12938707D01*
X12163009Y-12938707D02*
X12172533Y-12976803D01*
X12172533Y-12976803D02*
X12172533Y-13024422D01*
X12172533Y-13024422D02*
X12163009Y-13062517D01*
X12163009Y-13062517D02*
X12153485Y-13081565D01*
X12153485Y-13081565D02*
X12143962Y-13091088D01*
X12143962Y-13091088D02*
X12124914Y-13100612D01*
X12124914Y-13100612D02*
X12105866Y-13100612D01*
X12105866Y-13100612D02*
X12086819Y-13091088D01*
X12086819Y-13091088D02*
X12077295Y-13081565D01*
X12077295Y-13081565D02*
X12067771Y-13062517D01*
X12067771Y-13062517D02*
X12058247Y-13024422D01*
X12058247Y-13024422D02*
X12058247Y-12976803D01*
X12058247Y-12976803D02*
X12067771Y-12938707D01*
X12067771Y-12938707D02*
X12077295Y-12919660D01*
X12077295Y-12919660D02*
X12086819Y-12910136D01*
X12086819Y-12910136D02*
X12105866Y-12900612D01*
X12296342Y-12900612D02*
X12315390Y-12900612D01*
X12315390Y-12900612D02*
X12334438Y-12910136D01*
X12334438Y-12910136D02*
X12343962Y-12919660D01*
X12343962Y-12919660D02*
X12353485Y-12938707D01*
X12353485Y-12938707D02*
X12363009Y-12976803D01*
X12363009Y-12976803D02*
X12363009Y-13024422D01*
X12363009Y-13024422D02*
X12353485Y-13062517D01*
X12353485Y-13062517D02*
X12343962Y-13081565D01*
X12343962Y-13081565D02*
X12334438Y-13091088D01*
X12334438Y-13091088D02*
X12315390Y-13100612D01*
X12315390Y-13100612D02*
X12296342Y-13100612D01*
X12296342Y-13100612D02*
X12277295Y-13091088D01*
X12277295Y-13091088D02*
X12267771Y-13081565D01*
X12267771Y-13081565D02*
X12258247Y-13062517D01*
X12258247Y-13062517D02*
X12248723Y-13024422D01*
X12248723Y-13024422D02*
X12248723Y-12976803D01*
X12248723Y-12976803D02*
X12258247Y-12938707D01*
X12258247Y-12938707D02*
X12267771Y-12919660D01*
X12267771Y-12919660D02*
X12277295Y-12910136D01*
X12277295Y-12910136D02*
X12296342Y-12900612D01*
X12448723Y-13100612D02*
X12448723Y-12967279D01*
X12448723Y-12986326D02*
X12458247Y-12976803D01*
X12458247Y-12976803D02*
X12477295Y-12967279D01*
X12477295Y-12967279D02*
X12505866Y-12967279D01*
X12505866Y-12967279D02*
X12524914Y-12976803D01*
X12524914Y-12976803D02*
X12534438Y-12995850D01*
X12534438Y-12995850D02*
X12534438Y-13100612D01*
X12534438Y-12995850D02*
X12543962Y-12976803D01*
X12543962Y-12976803D02*
X12563009Y-12967279D01*
X12563009Y-12967279D02*
X12591581Y-12967279D01*
X12591581Y-12967279D02*
X12610628Y-12976803D01*
X12610628Y-12976803D02*
X12620152Y-12995850D01*
X12620152Y-12995850D02*
X12620152Y-13100612D01*
X12715390Y-13100612D02*
X12715390Y-12967279D01*
X12715390Y-12986326D02*
X12724914Y-12976803D01*
X12724914Y-12976803D02*
X12743962Y-12967279D01*
X12743962Y-12967279D02*
X12772533Y-12967279D01*
X12772533Y-12967279D02*
X12791581Y-12976803D01*
X12791581Y-12976803D02*
X12801104Y-12995850D01*
X12801104Y-12995850D02*
X12801104Y-13100612D01*
X12801104Y-12995850D02*
X12810628Y-12976803D01*
X12810628Y-12976803D02*
X12829676Y-12967279D01*
X12829676Y-12967279D02*
X12858247Y-12967279D01*
X12858247Y-12967279D02*
X12877295Y-12976803D01*
X12877295Y-12976803D02*
X12886819Y-12995850D01*
X12886819Y-12995850D02*
X12886819Y-13100612D01*
X13277295Y-12891088D02*
X13105866Y-13148231D01*
X13534438Y-12900612D02*
X13553486Y-12900612D01*
X13553486Y-12900612D02*
X13572533Y-12910136D01*
X13572533Y-12910136D02*
X13582057Y-12919660D01*
X13582057Y-12919660D02*
X13591581Y-12938707D01*
X13591581Y-12938707D02*
X13601105Y-12976803D01*
X13601105Y-12976803D02*
X13601105Y-13024422D01*
X13601105Y-13024422D02*
X13591581Y-13062517D01*
X13591581Y-13062517D02*
X13582057Y-13081565D01*
X13582057Y-13081565D02*
X13572533Y-13091088D01*
X13572533Y-13091088D02*
X13553486Y-13100612D01*
X13553486Y-13100612D02*
X13534438Y-13100612D01*
X13534438Y-13100612D02*
X13515390Y-13091088D01*
X13515390Y-13091088D02*
X13505866Y-13081565D01*
X13505866Y-13081565D02*
X13496343Y-13062517D01*
X13496343Y-13062517D02*
X13486819Y-13024422D01*
X13486819Y-13024422D02*
X13486819Y-12976803D01*
X13486819Y-12976803D02*
X13496343Y-12938707D01*
X13496343Y-12938707D02*
X13505866Y-12919660D01*
X13505866Y-12919660D02*
X13515390Y-12910136D01*
X13515390Y-12910136D02*
X13534438Y-12900612D01*
X13686819Y-13081565D02*
X13696343Y-13091088D01*
X13696343Y-13091088D02*
X13686819Y-13100612D01*
X13686819Y-13100612D02*
X13677295Y-13091088D01*
X13677295Y-13091088D02*
X13686819Y-13081565D01*
X13686819Y-13081565D02*
X13686819Y-13100612D01*
X13820152Y-12900612D02*
X13839200Y-12900612D01*
X13839200Y-12900612D02*
X13858247Y-12910136D01*
X13858247Y-12910136D02*
X13867771Y-12919660D01*
X13867771Y-12919660D02*
X13877295Y-12938707D01*
X13877295Y-12938707D02*
X13886819Y-12976803D01*
X13886819Y-12976803D02*
X13886819Y-13024422D01*
X13886819Y-13024422D02*
X13877295Y-13062517D01*
X13877295Y-13062517D02*
X13867771Y-13081565D01*
X13867771Y-13081565D02*
X13858247Y-13091088D01*
X13858247Y-13091088D02*
X13839200Y-13100612D01*
X13839200Y-13100612D02*
X13820152Y-13100612D01*
X13820152Y-13100612D02*
X13801105Y-13091088D01*
X13801105Y-13091088D02*
X13791581Y-13081565D01*
X13791581Y-13081565D02*
X13782057Y-13062517D01*
X13782057Y-13062517D02*
X13772533Y-13024422D01*
X13772533Y-13024422D02*
X13772533Y-12976803D01*
X13772533Y-12976803D02*
X13782057Y-12938707D01*
X13782057Y-12938707D02*
X13791581Y-12919660D01*
X13791581Y-12919660D02*
X13801105Y-12910136D01*
X13801105Y-12910136D02*
X13820152Y-12900612D01*
X14010628Y-12900612D02*
X14029676Y-12900612D01*
X14029676Y-12900612D02*
X14048724Y-12910136D01*
X14048724Y-12910136D02*
X14058247Y-12919660D01*
X14058247Y-12919660D02*
X14067771Y-12938707D01*
X14067771Y-12938707D02*
X14077295Y-12976803D01*
X14077295Y-12976803D02*
X14077295Y-13024422D01*
X14077295Y-13024422D02*
X14067771Y-13062517D01*
X14067771Y-13062517D02*
X14058247Y-13081565D01*
X14058247Y-13081565D02*
X14048724Y-13091088D01*
X14048724Y-13091088D02*
X14029676Y-13100612D01*
X14029676Y-13100612D02*
X14010628Y-13100612D01*
X14010628Y-13100612D02*
X13991581Y-13091088D01*
X13991581Y-13091088D02*
X13982057Y-13081565D01*
X13982057Y-13081565D02*
X13972533Y-13062517D01*
X13972533Y-13062517D02*
X13963009Y-13024422D01*
X13963009Y-13024422D02*
X13963009Y-12976803D01*
X13963009Y-12976803D02*
X13972533Y-12938707D01*
X13972533Y-12938707D02*
X13982057Y-12919660D01*
X13982057Y-12919660D02*
X13991581Y-12910136D01*
X13991581Y-12910136D02*
X14010628Y-12900612D01*
X14143962Y-12900612D02*
X14277295Y-12900612D01*
X14277295Y-12900612D02*
X14191581Y-13100612D01*
X14363009Y-13100612D02*
X14401105Y-13100612D01*
X14401105Y-13100612D02*
X14420152Y-13091088D01*
X14420152Y-13091088D02*
X14429676Y-13081565D01*
X14429676Y-13081565D02*
X14448724Y-13052993D01*
X14448724Y-13052993D02*
X14458247Y-13014898D01*
X14458247Y-13014898D02*
X14458247Y-12938707D01*
X14458247Y-12938707D02*
X14448724Y-12919660D01*
X14448724Y-12919660D02*
X14439200Y-12910136D01*
X14439200Y-12910136D02*
X14420152Y-12900612D01*
X14420152Y-12900612D02*
X14382057Y-12900612D01*
X14382057Y-12900612D02*
X14363009Y-12910136D01*
X14363009Y-12910136D02*
X14353486Y-12919660D01*
X14353486Y-12919660D02*
X14343962Y-12938707D01*
X14343962Y-12938707D02*
X14343962Y-12986326D01*
X14343962Y-12986326D02*
X14353486Y-13005374D01*
X14353486Y-13005374D02*
X14363009Y-13014898D01*
X14363009Y-13014898D02*
X14382057Y-13024422D01*
X14382057Y-13024422D02*
X14420152Y-13024422D01*
X14420152Y-13024422D02*
X14439200Y-13014898D01*
X14439200Y-13014898D02*
X14448724Y-13005374D01*
X14448724Y-13005374D02*
X14458247Y-12986326D01*
X14534438Y-12900612D02*
X14534438Y-12938707D01*
X14610628Y-12900612D02*
X14610628Y-12938707D01*
X14905867Y-13176803D02*
X14896343Y-13167279D01*
X14896343Y-13167279D02*
X14877295Y-13138707D01*
X14877295Y-13138707D02*
X14867771Y-13119660D01*
X14867771Y-13119660D02*
X14858248Y-13091088D01*
X14858248Y-13091088D02*
X14848724Y-13043469D01*
X14848724Y-13043469D02*
X14848724Y-13005374D01*
X14848724Y-13005374D02*
X14858248Y-12957755D01*
X14858248Y-12957755D02*
X14867771Y-12929184D01*
X14867771Y-12929184D02*
X14877295Y-12910136D01*
X14877295Y-12910136D02*
X14896343Y-12881565D01*
X14896343Y-12881565D02*
X14905867Y-12872041D01*
X14972533Y-12919660D02*
X14982057Y-12910136D01*
X14982057Y-12910136D02*
X15001105Y-12900612D01*
X15001105Y-12900612D02*
X15048724Y-12900612D01*
X15048724Y-12900612D02*
X15067771Y-12910136D01*
X15067771Y-12910136D02*
X15077295Y-12919660D01*
X15077295Y-12919660D02*
X15086819Y-12938707D01*
X15086819Y-12938707D02*
X15086819Y-12957755D01*
X15086819Y-12957755D02*
X15077295Y-12986326D01*
X15077295Y-12986326D02*
X14963009Y-13100612D01*
X14963009Y-13100612D02*
X15086819Y-13100612D01*
X15267771Y-12900612D02*
X15172533Y-12900612D01*
X15172533Y-12900612D02*
X15163009Y-12995850D01*
X15163009Y-12995850D02*
X15172533Y-12986326D01*
X15172533Y-12986326D02*
X15191581Y-12976803D01*
X15191581Y-12976803D02*
X15239200Y-12976803D01*
X15239200Y-12976803D02*
X15258248Y-12986326D01*
X15258248Y-12986326D02*
X15267771Y-12995850D01*
X15267771Y-12995850D02*
X15277295Y-13014898D01*
X15277295Y-13014898D02*
X15277295Y-13062517D01*
X15277295Y-13062517D02*
X15267771Y-13081565D01*
X15267771Y-13081565D02*
X15258248Y-13091088D01*
X15258248Y-13091088D02*
X15239200Y-13100612D01*
X15239200Y-13100612D02*
X15191581Y-13100612D01*
X15191581Y-13100612D02*
X15172533Y-13091088D01*
X15172533Y-13091088D02*
X15163009Y-13081565D01*
X15372533Y-13100612D02*
X15410628Y-13100612D01*
X15410628Y-13100612D02*
X15429676Y-13091088D01*
X15429676Y-13091088D02*
X15439200Y-13081565D01*
X15439200Y-13081565D02*
X15458248Y-13052993D01*
X15458248Y-13052993D02*
X15467771Y-13014898D01*
X15467771Y-13014898D02*
X15467771Y-12938707D01*
X15467771Y-12938707D02*
X15458248Y-12919660D01*
X15458248Y-12919660D02*
X15448724Y-12910136D01*
X15448724Y-12910136D02*
X15429676Y-12900612D01*
X15429676Y-12900612D02*
X15391581Y-12900612D01*
X15391581Y-12900612D02*
X15372533Y-12910136D01*
X15372533Y-12910136D02*
X15363009Y-12919660D01*
X15363009Y-12919660D02*
X15353486Y-12938707D01*
X15353486Y-12938707D02*
X15353486Y-12986326D01*
X15353486Y-12986326D02*
X15363009Y-13005374D01*
X15363009Y-13005374D02*
X15372533Y-13014898D01*
X15372533Y-13014898D02*
X15391581Y-13024422D01*
X15391581Y-13024422D02*
X15429676Y-13024422D01*
X15429676Y-13024422D02*
X15448724Y-13014898D01*
X15448724Y-13014898D02*
X15458248Y-13005374D01*
X15458248Y-13005374D02*
X15467771Y-12986326D01*
X15705867Y-13100612D02*
X15705867Y-12900612D01*
X15791581Y-13100612D02*
X15791581Y-12995850D01*
X15791581Y-12995850D02*
X15782057Y-12976803D01*
X15782057Y-12976803D02*
X15763010Y-12967279D01*
X15763010Y-12967279D02*
X15734438Y-12967279D01*
X15734438Y-12967279D02*
X15715390Y-12976803D01*
X15715390Y-12976803D02*
X15705867Y-12986326D01*
X15915390Y-13100612D02*
X15896343Y-13091088D01*
X15896343Y-13091088D02*
X15886819Y-13081565D01*
X15886819Y-13081565D02*
X15877295Y-13062517D01*
X15877295Y-13062517D02*
X15877295Y-13005374D01*
X15877295Y-13005374D02*
X15886819Y-12986326D01*
X15886819Y-12986326D02*
X15896343Y-12976803D01*
X15896343Y-12976803D02*
X15915390Y-12967279D01*
X15915390Y-12967279D02*
X15943962Y-12967279D01*
X15943962Y-12967279D02*
X15963010Y-12976803D01*
X15963010Y-12976803D02*
X15972533Y-12986326D01*
X15972533Y-12986326D02*
X15982057Y-13005374D01*
X15982057Y-13005374D02*
X15982057Y-13062517D01*
X15982057Y-13062517D02*
X15972533Y-13081565D01*
X15972533Y-13081565D02*
X15963010Y-13091088D01*
X15963010Y-13091088D02*
X15943962Y-13100612D01*
X15943962Y-13100612D02*
X15915390Y-13100612D01*
X16096343Y-13100612D02*
X16077295Y-13091088D01*
X16077295Y-13091088D02*
X16067771Y-13072041D01*
X16067771Y-13072041D02*
X16067771Y-12900612D01*
X16248724Y-13091088D02*
X16229676Y-13100612D01*
X16229676Y-13100612D02*
X16191581Y-13100612D01*
X16191581Y-13100612D02*
X16172533Y-13091088D01*
X16172533Y-13091088D02*
X16163010Y-13072041D01*
X16163010Y-13072041D02*
X16163010Y-12995850D01*
X16163010Y-12995850D02*
X16172533Y-12976803D01*
X16172533Y-12976803D02*
X16191581Y-12967279D01*
X16191581Y-12967279D02*
X16229676Y-12967279D01*
X16229676Y-12967279D02*
X16248724Y-12976803D01*
X16248724Y-12976803D02*
X16258248Y-12995850D01*
X16258248Y-12995850D02*
X16258248Y-13014898D01*
X16258248Y-13014898D02*
X16163010Y-13033946D01*
X16334438Y-13091088D02*
X16353486Y-13100612D01*
X16353486Y-13100612D02*
X16391581Y-13100612D01*
X16391581Y-13100612D02*
X16410629Y-13091088D01*
X16410629Y-13091088D02*
X16420152Y-13072041D01*
X16420152Y-13072041D02*
X16420152Y-13062517D01*
X16420152Y-13062517D02*
X16410629Y-13043469D01*
X16410629Y-13043469D02*
X16391581Y-13033946D01*
X16391581Y-13033946D02*
X16363010Y-13033946D01*
X16363010Y-13033946D02*
X16343962Y-13024422D01*
X16343962Y-13024422D02*
X16334438Y-13005374D01*
X16334438Y-13005374D02*
X16334438Y-12995850D01*
X16334438Y-12995850D02*
X16343962Y-12976803D01*
X16343962Y-12976803D02*
X16363010Y-12967279D01*
X16363010Y-12967279D02*
X16391581Y-12967279D01*
X16391581Y-12967279D02*
X16410629Y-12976803D01*
X16486819Y-13176803D02*
X16496343Y-13167279D01*
X16496343Y-13167279D02*
X16515391Y-13138707D01*
X16515391Y-13138707D02*
X16524914Y-13119660D01*
X16524914Y-13119660D02*
X16534438Y-13091088D01*
X16534438Y-13091088D02*
X16543962Y-13043469D01*
X16543962Y-13043469D02*
X16543962Y-13005374D01*
X16543962Y-13005374D02*
X16534438Y-12957755D01*
X16534438Y-12957755D02*
X16524914Y-12929184D01*
X16524914Y-12929184D02*
X16515391Y-12910136D01*
X16515391Y-12910136D02*
X16496343Y-12881565D01*
X16496343Y-12881565D02*
X16486819Y-12872041D01*
D12*
X11330804Y-13273128D02*
G75*
G02*
X11305804Y-13273128I-12500J0D01*
G01*
X11305804Y-13273128D02*
G75*
G02*
X11330804Y-13273128I12500J0D01*
G01*
D11*
X11629676Y-13164612D02*
X11648723Y-13164612D01*
X11648723Y-13164612D02*
X11667771Y-13174136D01*
X11667771Y-13174136D02*
X11677295Y-13183660D01*
X11677295Y-13183660D02*
X11686819Y-13202707D01*
X11686819Y-13202707D02*
X11696342Y-13240803D01*
X11696342Y-13240803D02*
X11696342Y-13288422D01*
X11696342Y-13288422D02*
X11686819Y-13326517D01*
X11686819Y-13326517D02*
X11677295Y-13345565D01*
X11677295Y-13345565D02*
X11667771Y-13355088D01*
X11667771Y-13355088D02*
X11648723Y-13364612D01*
X11648723Y-13364612D02*
X11629676Y-13364612D01*
X11629676Y-13364612D02*
X11610628Y-13355088D01*
X11610628Y-13355088D02*
X11601104Y-13345565D01*
X11601104Y-13345565D02*
X11591581Y-13326517D01*
X11591581Y-13326517D02*
X11582057Y-13288422D01*
X11582057Y-13288422D02*
X11582057Y-13240803D01*
X11582057Y-13240803D02*
X11591581Y-13202707D01*
X11591581Y-13202707D02*
X11601104Y-13183660D01*
X11601104Y-13183660D02*
X11610628Y-13174136D01*
X11610628Y-13174136D02*
X11629676Y-13164612D01*
X11782057Y-13345565D02*
X11791581Y-13355088D01*
X11791581Y-13355088D02*
X11782057Y-13364612D01*
X11782057Y-13364612D02*
X11772533Y-13355088D01*
X11772533Y-13355088D02*
X11782057Y-13345565D01*
X11782057Y-13345565D02*
X11782057Y-13364612D01*
X11867771Y-13183660D02*
X11877295Y-13174136D01*
X11877295Y-13174136D02*
X11896342Y-13164612D01*
X11896342Y-13164612D02*
X11943962Y-13164612D01*
X11943962Y-13164612D02*
X11963009Y-13174136D01*
X11963009Y-13174136D02*
X11972533Y-13183660D01*
X11972533Y-13183660D02*
X11982057Y-13202707D01*
X11982057Y-13202707D02*
X11982057Y-13221755D01*
X11982057Y-13221755D02*
X11972533Y-13250326D01*
X11972533Y-13250326D02*
X11858247Y-13364612D01*
X11858247Y-13364612D02*
X11982057Y-13364612D01*
X12163009Y-13164612D02*
X12067771Y-13164612D01*
X12067771Y-13164612D02*
X12058247Y-13259850D01*
X12058247Y-13259850D02*
X12067771Y-13250326D01*
X12067771Y-13250326D02*
X12086819Y-13240803D01*
X12086819Y-13240803D02*
X12134438Y-13240803D01*
X12134438Y-13240803D02*
X12153485Y-13250326D01*
X12153485Y-13250326D02*
X12163009Y-13259850D01*
X12163009Y-13259850D02*
X12172533Y-13278898D01*
X12172533Y-13278898D02*
X12172533Y-13326517D01*
X12172533Y-13326517D02*
X12163009Y-13345565D01*
X12163009Y-13345565D02*
X12153485Y-13355088D01*
X12153485Y-13355088D02*
X12134438Y-13364612D01*
X12134438Y-13364612D02*
X12086819Y-13364612D01*
X12086819Y-13364612D02*
X12067771Y-13355088D01*
X12067771Y-13355088D02*
X12058247Y-13345565D01*
X12296342Y-13164612D02*
X12315390Y-13164612D01*
X12315390Y-13164612D02*
X12334438Y-13174136D01*
X12334438Y-13174136D02*
X12343962Y-13183660D01*
X12343962Y-13183660D02*
X12353485Y-13202707D01*
X12353485Y-13202707D02*
X12363009Y-13240803D01*
X12363009Y-13240803D02*
X12363009Y-13288422D01*
X12363009Y-13288422D02*
X12353485Y-13326517D01*
X12353485Y-13326517D02*
X12343962Y-13345565D01*
X12343962Y-13345565D02*
X12334438Y-13355088D01*
X12334438Y-13355088D02*
X12315390Y-13364612D01*
X12315390Y-13364612D02*
X12296342Y-13364612D01*
X12296342Y-13364612D02*
X12277295Y-13355088D01*
X12277295Y-13355088D02*
X12267771Y-13345565D01*
X12267771Y-13345565D02*
X12258247Y-13326517D01*
X12258247Y-13326517D02*
X12248723Y-13288422D01*
X12248723Y-13288422D02*
X12248723Y-13240803D01*
X12248723Y-13240803D02*
X12258247Y-13202707D01*
X12258247Y-13202707D02*
X12267771Y-13183660D01*
X12267771Y-13183660D02*
X12277295Y-13174136D01*
X12277295Y-13174136D02*
X12296342Y-13164612D01*
X12448723Y-13364612D02*
X12448723Y-13231279D01*
X12448723Y-13250326D02*
X12458247Y-13240803D01*
X12458247Y-13240803D02*
X12477295Y-13231279D01*
X12477295Y-13231279D02*
X12505866Y-13231279D01*
X12505866Y-13231279D02*
X12524914Y-13240803D01*
X12524914Y-13240803D02*
X12534438Y-13259850D01*
X12534438Y-13259850D02*
X12534438Y-13364612D01*
X12534438Y-13259850D02*
X12543962Y-13240803D01*
X12543962Y-13240803D02*
X12563009Y-13231279D01*
X12563009Y-13231279D02*
X12591581Y-13231279D01*
X12591581Y-13231279D02*
X12610628Y-13240803D01*
X12610628Y-13240803D02*
X12620152Y-13259850D01*
X12620152Y-13259850D02*
X12620152Y-13364612D01*
X12715390Y-13364612D02*
X12715390Y-13231279D01*
X12715390Y-13250326D02*
X12724914Y-13240803D01*
X12724914Y-13240803D02*
X12743962Y-13231279D01*
X12743962Y-13231279D02*
X12772533Y-13231279D01*
X12772533Y-13231279D02*
X12791581Y-13240803D01*
X12791581Y-13240803D02*
X12801104Y-13259850D01*
X12801104Y-13259850D02*
X12801104Y-13364612D01*
X12801104Y-13259850D02*
X12810628Y-13240803D01*
X12810628Y-13240803D02*
X12829676Y-13231279D01*
X12829676Y-13231279D02*
X12858247Y-13231279D01*
X12858247Y-13231279D02*
X12877295Y-13240803D01*
X12877295Y-13240803D02*
X12886819Y-13259850D01*
X12886819Y-13259850D02*
X12886819Y-13364612D01*
X13277295Y-13155088D02*
X13105866Y-13412231D01*
X13534438Y-13164612D02*
X13553486Y-13164612D01*
X13553486Y-13164612D02*
X13572533Y-13174136D01*
X13572533Y-13174136D02*
X13582057Y-13183660D01*
X13582057Y-13183660D02*
X13591581Y-13202707D01*
X13591581Y-13202707D02*
X13601105Y-13240803D01*
X13601105Y-13240803D02*
X13601105Y-13288422D01*
X13601105Y-13288422D02*
X13591581Y-13326517D01*
X13591581Y-13326517D02*
X13582057Y-13345565D01*
X13582057Y-13345565D02*
X13572533Y-13355088D01*
X13572533Y-13355088D02*
X13553486Y-13364612D01*
X13553486Y-13364612D02*
X13534438Y-13364612D01*
X13534438Y-13364612D02*
X13515390Y-13355088D01*
X13515390Y-13355088D02*
X13505866Y-13345565D01*
X13505866Y-13345565D02*
X13496343Y-13326517D01*
X13496343Y-13326517D02*
X13486819Y-13288422D01*
X13486819Y-13288422D02*
X13486819Y-13240803D01*
X13486819Y-13240803D02*
X13496343Y-13202707D01*
X13496343Y-13202707D02*
X13505866Y-13183660D01*
X13505866Y-13183660D02*
X13515390Y-13174136D01*
X13515390Y-13174136D02*
X13534438Y-13164612D01*
X13686819Y-13345565D02*
X13696343Y-13355088D01*
X13696343Y-13355088D02*
X13686819Y-13364612D01*
X13686819Y-13364612D02*
X13677295Y-13355088D01*
X13677295Y-13355088D02*
X13686819Y-13345565D01*
X13686819Y-13345565D02*
X13686819Y-13364612D01*
X13820152Y-13164612D02*
X13839200Y-13164612D01*
X13839200Y-13164612D02*
X13858247Y-13174136D01*
X13858247Y-13174136D02*
X13867771Y-13183660D01*
X13867771Y-13183660D02*
X13877295Y-13202707D01*
X13877295Y-13202707D02*
X13886819Y-13240803D01*
X13886819Y-13240803D02*
X13886819Y-13288422D01*
X13886819Y-13288422D02*
X13877295Y-13326517D01*
X13877295Y-13326517D02*
X13867771Y-13345565D01*
X13867771Y-13345565D02*
X13858247Y-13355088D01*
X13858247Y-13355088D02*
X13839200Y-13364612D01*
X13839200Y-13364612D02*
X13820152Y-13364612D01*
X13820152Y-13364612D02*
X13801105Y-13355088D01*
X13801105Y-13355088D02*
X13791581Y-13345565D01*
X13791581Y-13345565D02*
X13782057Y-13326517D01*
X13782057Y-13326517D02*
X13772533Y-13288422D01*
X13772533Y-13288422D02*
X13772533Y-13240803D01*
X13772533Y-13240803D02*
X13782057Y-13202707D01*
X13782057Y-13202707D02*
X13791581Y-13183660D01*
X13791581Y-13183660D02*
X13801105Y-13174136D01*
X13801105Y-13174136D02*
X13820152Y-13164612D01*
X14010628Y-13164612D02*
X14029676Y-13164612D01*
X14029676Y-13164612D02*
X14048724Y-13174136D01*
X14048724Y-13174136D02*
X14058247Y-13183660D01*
X14058247Y-13183660D02*
X14067771Y-13202707D01*
X14067771Y-13202707D02*
X14077295Y-13240803D01*
X14077295Y-13240803D02*
X14077295Y-13288422D01*
X14077295Y-13288422D02*
X14067771Y-13326517D01*
X14067771Y-13326517D02*
X14058247Y-13345565D01*
X14058247Y-13345565D02*
X14048724Y-13355088D01*
X14048724Y-13355088D02*
X14029676Y-13364612D01*
X14029676Y-13364612D02*
X14010628Y-13364612D01*
X14010628Y-13364612D02*
X13991581Y-13355088D01*
X13991581Y-13355088D02*
X13982057Y-13345565D01*
X13982057Y-13345565D02*
X13972533Y-13326517D01*
X13972533Y-13326517D02*
X13963009Y-13288422D01*
X13963009Y-13288422D02*
X13963009Y-13240803D01*
X13963009Y-13240803D02*
X13972533Y-13202707D01*
X13972533Y-13202707D02*
X13982057Y-13183660D01*
X13982057Y-13183660D02*
X13991581Y-13174136D01*
X13991581Y-13174136D02*
X14010628Y-13164612D01*
X14172533Y-13364612D02*
X14210628Y-13364612D01*
X14210628Y-13364612D02*
X14229676Y-13355088D01*
X14229676Y-13355088D02*
X14239200Y-13345565D01*
X14239200Y-13345565D02*
X14258247Y-13316993D01*
X14258247Y-13316993D02*
X14267771Y-13278898D01*
X14267771Y-13278898D02*
X14267771Y-13202707D01*
X14267771Y-13202707D02*
X14258247Y-13183660D01*
X14258247Y-13183660D02*
X14248724Y-13174136D01*
X14248724Y-13174136D02*
X14229676Y-13164612D01*
X14229676Y-13164612D02*
X14191581Y-13164612D01*
X14191581Y-13164612D02*
X14172533Y-13174136D01*
X14172533Y-13174136D02*
X14163009Y-13183660D01*
X14163009Y-13183660D02*
X14153486Y-13202707D01*
X14153486Y-13202707D02*
X14153486Y-13250326D01*
X14153486Y-13250326D02*
X14163009Y-13269374D01*
X14163009Y-13269374D02*
X14172533Y-13278898D01*
X14172533Y-13278898D02*
X14191581Y-13288422D01*
X14191581Y-13288422D02*
X14229676Y-13288422D01*
X14229676Y-13288422D02*
X14248724Y-13278898D01*
X14248724Y-13278898D02*
X14258247Y-13269374D01*
X14258247Y-13269374D02*
X14267771Y-13250326D01*
X14382057Y-13250326D02*
X14363009Y-13240803D01*
X14363009Y-13240803D02*
X14353486Y-13231279D01*
X14353486Y-13231279D02*
X14343962Y-13212231D01*
X14343962Y-13212231D02*
X14343962Y-13202707D01*
X14343962Y-13202707D02*
X14353486Y-13183660D01*
X14353486Y-13183660D02*
X14363009Y-13174136D01*
X14363009Y-13174136D02*
X14382057Y-13164612D01*
X14382057Y-13164612D02*
X14420152Y-13164612D01*
X14420152Y-13164612D02*
X14439200Y-13174136D01*
X14439200Y-13174136D02*
X14448724Y-13183660D01*
X14448724Y-13183660D02*
X14458247Y-13202707D01*
X14458247Y-13202707D02*
X14458247Y-13212231D01*
X14458247Y-13212231D02*
X14448724Y-13231279D01*
X14448724Y-13231279D02*
X14439200Y-13240803D01*
X14439200Y-13240803D02*
X14420152Y-13250326D01*
X14420152Y-13250326D02*
X14382057Y-13250326D01*
X14382057Y-13250326D02*
X14363009Y-13259850D01*
X14363009Y-13259850D02*
X14353486Y-13269374D01*
X14353486Y-13269374D02*
X14343962Y-13288422D01*
X14343962Y-13288422D02*
X14343962Y-13326517D01*
X14343962Y-13326517D02*
X14353486Y-13345565D01*
X14353486Y-13345565D02*
X14363009Y-13355088D01*
X14363009Y-13355088D02*
X14382057Y-13364612D01*
X14382057Y-13364612D02*
X14420152Y-13364612D01*
X14420152Y-13364612D02*
X14439200Y-13355088D01*
X14439200Y-13355088D02*
X14448724Y-13345565D01*
X14448724Y-13345565D02*
X14458247Y-13326517D01*
X14458247Y-13326517D02*
X14458247Y-13288422D01*
X14458247Y-13288422D02*
X14448724Y-13269374D01*
X14448724Y-13269374D02*
X14439200Y-13259850D01*
X14439200Y-13259850D02*
X14420152Y-13250326D01*
X14534438Y-13164612D02*
X14534438Y-13202707D01*
X14610628Y-13164612D02*
X14610628Y-13202707D01*
X14905867Y-13440803D02*
X14896343Y-13431279D01*
X14896343Y-13431279D02*
X14877295Y-13402707D01*
X14877295Y-13402707D02*
X14867771Y-13383660D01*
X14867771Y-13383660D02*
X14858248Y-13355088D01*
X14858248Y-13355088D02*
X14848724Y-13307469D01*
X14848724Y-13307469D02*
X14848724Y-13269374D01*
X14848724Y-13269374D02*
X14858248Y-13221755D01*
X14858248Y-13221755D02*
X14867771Y-13193184D01*
X14867771Y-13193184D02*
X14877295Y-13174136D01*
X14877295Y-13174136D02*
X14896343Y-13145565D01*
X14896343Y-13145565D02*
X14905867Y-13136041D01*
X15086819Y-13364612D02*
X14972533Y-13364612D01*
X15029676Y-13364612D02*
X15029676Y-13164612D01*
X15029676Y-13164612D02*
X15010628Y-13193184D01*
X15010628Y-13193184D02*
X14991581Y-13212231D01*
X14991581Y-13212231D02*
X14972533Y-13221755D01*
X15163009Y-13183660D02*
X15172533Y-13174136D01*
X15172533Y-13174136D02*
X15191581Y-13164612D01*
X15191581Y-13164612D02*
X15239200Y-13164612D01*
X15239200Y-13164612D02*
X15258248Y-13174136D01*
X15258248Y-13174136D02*
X15267771Y-13183660D01*
X15267771Y-13183660D02*
X15277295Y-13202707D01*
X15277295Y-13202707D02*
X15277295Y-13221755D01*
X15277295Y-13221755D02*
X15267771Y-13250326D01*
X15267771Y-13250326D02*
X15153486Y-13364612D01*
X15153486Y-13364612D02*
X15277295Y-13364612D01*
X15515390Y-13364612D02*
X15515390Y-13164612D01*
X15601105Y-13364612D02*
X15601105Y-13259850D01*
X15601105Y-13259850D02*
X15591581Y-13240803D01*
X15591581Y-13240803D02*
X15572533Y-13231279D01*
X15572533Y-13231279D02*
X15543962Y-13231279D01*
X15543962Y-13231279D02*
X15524914Y-13240803D01*
X15524914Y-13240803D02*
X15515390Y-13250326D01*
X15724914Y-13364612D02*
X15705867Y-13355088D01*
X15705867Y-13355088D02*
X15696343Y-13345565D01*
X15696343Y-13345565D02*
X15686819Y-13326517D01*
X15686819Y-13326517D02*
X15686819Y-13269374D01*
X15686819Y-13269374D02*
X15696343Y-13250326D01*
X15696343Y-13250326D02*
X15705867Y-13240803D01*
X15705867Y-13240803D02*
X15724914Y-13231279D01*
X15724914Y-13231279D02*
X15753486Y-13231279D01*
X15753486Y-13231279D02*
X15772533Y-13240803D01*
X15772533Y-13240803D02*
X15782057Y-13250326D01*
X15782057Y-13250326D02*
X15791581Y-13269374D01*
X15791581Y-13269374D02*
X15791581Y-13326517D01*
X15791581Y-13326517D02*
X15782057Y-13345565D01*
X15782057Y-13345565D02*
X15772533Y-13355088D01*
X15772533Y-13355088D02*
X15753486Y-13364612D01*
X15753486Y-13364612D02*
X15724914Y-13364612D01*
X15905867Y-13364612D02*
X15886819Y-13355088D01*
X15886819Y-13355088D02*
X15877295Y-13336041D01*
X15877295Y-13336041D02*
X15877295Y-13164612D01*
X16058248Y-13355088D02*
X16039200Y-13364612D01*
X16039200Y-13364612D02*
X16001105Y-13364612D01*
X16001105Y-13364612D02*
X15982057Y-13355088D01*
X15982057Y-13355088D02*
X15972533Y-13336041D01*
X15972533Y-13336041D02*
X15972533Y-13259850D01*
X15972533Y-13259850D02*
X15982057Y-13240803D01*
X15982057Y-13240803D02*
X16001105Y-13231279D01*
X16001105Y-13231279D02*
X16039200Y-13231279D01*
X16039200Y-13231279D02*
X16058248Y-13240803D01*
X16058248Y-13240803D02*
X16067771Y-13259850D01*
X16067771Y-13259850D02*
X16067771Y-13278898D01*
X16067771Y-13278898D02*
X15972533Y-13297946D01*
X16143962Y-13355088D02*
X16163010Y-13364612D01*
X16163010Y-13364612D02*
X16201105Y-13364612D01*
X16201105Y-13364612D02*
X16220152Y-13355088D01*
X16220152Y-13355088D02*
X16229676Y-13336041D01*
X16229676Y-13336041D02*
X16229676Y-13326517D01*
X16229676Y-13326517D02*
X16220152Y-13307469D01*
X16220152Y-13307469D02*
X16201105Y-13297946D01*
X16201105Y-13297946D02*
X16172533Y-13297946D01*
X16172533Y-13297946D02*
X16153486Y-13288422D01*
X16153486Y-13288422D02*
X16143962Y-13269374D01*
X16143962Y-13269374D02*
X16143962Y-13259850D01*
X16143962Y-13259850D02*
X16153486Y-13240803D01*
X16153486Y-13240803D02*
X16172533Y-13231279D01*
X16172533Y-13231279D02*
X16201105Y-13231279D01*
X16201105Y-13231279D02*
X16220152Y-13240803D01*
X16296343Y-13440803D02*
X16305867Y-13431279D01*
X16305867Y-13431279D02*
X16324914Y-13402707D01*
X16324914Y-13402707D02*
X16334438Y-13383660D01*
X16334438Y-13383660D02*
X16343962Y-13355088D01*
X16343962Y-13355088D02*
X16353486Y-13307469D01*
X16353486Y-13307469D02*
X16353486Y-13269374D01*
X16353486Y-13269374D02*
X16343962Y-13221755D01*
X16343962Y-13221755D02*
X16334438Y-13193184D01*
X16334438Y-13193184D02*
X16324914Y-13174136D01*
X16324914Y-13174136D02*
X16305867Y-13145565D01*
X16305867Y-13145565D02*
X16296343Y-13136041D01*
D12*
X11318304Y-13524628D02*
X11318304Y-13549628D01*
X11305804Y-13537128D02*
X11330804Y-13537128D01*
D11*
X11629676Y-13428612D02*
X11648723Y-13428612D01*
X11648723Y-13428612D02*
X11667771Y-13438136D01*
X11667771Y-13438136D02*
X11677295Y-13447660D01*
X11677295Y-13447660D02*
X11686819Y-13466707D01*
X11686819Y-13466707D02*
X11696342Y-13504803D01*
X11696342Y-13504803D02*
X11696342Y-13552422D01*
X11696342Y-13552422D02*
X11686819Y-13590517D01*
X11686819Y-13590517D02*
X11677295Y-13609565D01*
X11677295Y-13609565D02*
X11667771Y-13619088D01*
X11667771Y-13619088D02*
X11648723Y-13628612D01*
X11648723Y-13628612D02*
X11629676Y-13628612D01*
X11629676Y-13628612D02*
X11610628Y-13619088D01*
X11610628Y-13619088D02*
X11601104Y-13609565D01*
X11601104Y-13609565D02*
X11591581Y-13590517D01*
X11591581Y-13590517D02*
X11582057Y-13552422D01*
X11582057Y-13552422D02*
X11582057Y-13504803D01*
X11582057Y-13504803D02*
X11591581Y-13466707D01*
X11591581Y-13466707D02*
X11601104Y-13447660D01*
X11601104Y-13447660D02*
X11610628Y-13438136D01*
X11610628Y-13438136D02*
X11629676Y-13428612D01*
X11782057Y-13609565D02*
X11791581Y-13619088D01*
X11791581Y-13619088D02*
X11782057Y-13628612D01*
X11782057Y-13628612D02*
X11772533Y-13619088D01*
X11772533Y-13619088D02*
X11782057Y-13609565D01*
X11782057Y-13609565D02*
X11782057Y-13628612D01*
X11867771Y-13447660D02*
X11877295Y-13438136D01*
X11877295Y-13438136D02*
X11896342Y-13428612D01*
X11896342Y-13428612D02*
X11943962Y-13428612D01*
X11943962Y-13428612D02*
X11963009Y-13438136D01*
X11963009Y-13438136D02*
X11972533Y-13447660D01*
X11972533Y-13447660D02*
X11982057Y-13466707D01*
X11982057Y-13466707D02*
X11982057Y-13485755D01*
X11982057Y-13485755D02*
X11972533Y-13514326D01*
X11972533Y-13514326D02*
X11858247Y-13628612D01*
X11858247Y-13628612D02*
X11982057Y-13628612D01*
X12163009Y-13428612D02*
X12067771Y-13428612D01*
X12067771Y-13428612D02*
X12058247Y-13523850D01*
X12058247Y-13523850D02*
X12067771Y-13514326D01*
X12067771Y-13514326D02*
X12086819Y-13504803D01*
X12086819Y-13504803D02*
X12134438Y-13504803D01*
X12134438Y-13504803D02*
X12153485Y-13514326D01*
X12153485Y-13514326D02*
X12163009Y-13523850D01*
X12163009Y-13523850D02*
X12172533Y-13542898D01*
X12172533Y-13542898D02*
X12172533Y-13590517D01*
X12172533Y-13590517D02*
X12163009Y-13609565D01*
X12163009Y-13609565D02*
X12153485Y-13619088D01*
X12153485Y-13619088D02*
X12134438Y-13628612D01*
X12134438Y-13628612D02*
X12086819Y-13628612D01*
X12086819Y-13628612D02*
X12067771Y-13619088D01*
X12067771Y-13619088D02*
X12058247Y-13609565D01*
X12296342Y-13428612D02*
X12315390Y-13428612D01*
X12315390Y-13428612D02*
X12334438Y-13438136D01*
X12334438Y-13438136D02*
X12343962Y-13447660D01*
X12343962Y-13447660D02*
X12353485Y-13466707D01*
X12353485Y-13466707D02*
X12363009Y-13504803D01*
X12363009Y-13504803D02*
X12363009Y-13552422D01*
X12363009Y-13552422D02*
X12353485Y-13590517D01*
X12353485Y-13590517D02*
X12343962Y-13609565D01*
X12343962Y-13609565D02*
X12334438Y-13619088D01*
X12334438Y-13619088D02*
X12315390Y-13628612D01*
X12315390Y-13628612D02*
X12296342Y-13628612D01*
X12296342Y-13628612D02*
X12277295Y-13619088D01*
X12277295Y-13619088D02*
X12267771Y-13609565D01*
X12267771Y-13609565D02*
X12258247Y-13590517D01*
X12258247Y-13590517D02*
X12248723Y-13552422D01*
X12248723Y-13552422D02*
X12248723Y-13504803D01*
X12248723Y-13504803D02*
X12258247Y-13466707D01*
X12258247Y-13466707D02*
X12267771Y-13447660D01*
X12267771Y-13447660D02*
X12277295Y-13438136D01*
X12277295Y-13438136D02*
X12296342Y-13428612D01*
X12448723Y-13628612D02*
X12448723Y-13495279D01*
X12448723Y-13514326D02*
X12458247Y-13504803D01*
X12458247Y-13504803D02*
X12477295Y-13495279D01*
X12477295Y-13495279D02*
X12505866Y-13495279D01*
X12505866Y-13495279D02*
X12524914Y-13504803D01*
X12524914Y-13504803D02*
X12534438Y-13523850D01*
X12534438Y-13523850D02*
X12534438Y-13628612D01*
X12534438Y-13523850D02*
X12543962Y-13504803D01*
X12543962Y-13504803D02*
X12563009Y-13495279D01*
X12563009Y-13495279D02*
X12591581Y-13495279D01*
X12591581Y-13495279D02*
X12610628Y-13504803D01*
X12610628Y-13504803D02*
X12620152Y-13523850D01*
X12620152Y-13523850D02*
X12620152Y-13628612D01*
X12715390Y-13628612D02*
X12715390Y-13495279D01*
X12715390Y-13514326D02*
X12724914Y-13504803D01*
X12724914Y-13504803D02*
X12743962Y-13495279D01*
X12743962Y-13495279D02*
X12772533Y-13495279D01*
X12772533Y-13495279D02*
X12791581Y-13504803D01*
X12791581Y-13504803D02*
X12801104Y-13523850D01*
X12801104Y-13523850D02*
X12801104Y-13628612D01*
X12801104Y-13523850D02*
X12810628Y-13504803D01*
X12810628Y-13504803D02*
X12829676Y-13495279D01*
X12829676Y-13495279D02*
X12858247Y-13495279D01*
X12858247Y-13495279D02*
X12877295Y-13504803D01*
X12877295Y-13504803D02*
X12886819Y-13523850D01*
X12886819Y-13523850D02*
X12886819Y-13628612D01*
X13277295Y-13419088D02*
X13105866Y-13676231D01*
X13534438Y-13428612D02*
X13553486Y-13428612D01*
X13553486Y-13428612D02*
X13572533Y-13438136D01*
X13572533Y-13438136D02*
X13582057Y-13447660D01*
X13582057Y-13447660D02*
X13591581Y-13466707D01*
X13591581Y-13466707D02*
X13601105Y-13504803D01*
X13601105Y-13504803D02*
X13601105Y-13552422D01*
X13601105Y-13552422D02*
X13591581Y-13590517D01*
X13591581Y-13590517D02*
X13582057Y-13609565D01*
X13582057Y-13609565D02*
X13572533Y-13619088D01*
X13572533Y-13619088D02*
X13553486Y-13628612D01*
X13553486Y-13628612D02*
X13534438Y-13628612D01*
X13534438Y-13628612D02*
X13515390Y-13619088D01*
X13515390Y-13619088D02*
X13505866Y-13609565D01*
X13505866Y-13609565D02*
X13496343Y-13590517D01*
X13496343Y-13590517D02*
X13486819Y-13552422D01*
X13486819Y-13552422D02*
X13486819Y-13504803D01*
X13486819Y-13504803D02*
X13496343Y-13466707D01*
X13496343Y-13466707D02*
X13505866Y-13447660D01*
X13505866Y-13447660D02*
X13515390Y-13438136D01*
X13515390Y-13438136D02*
X13534438Y-13428612D01*
X13686819Y-13609565D02*
X13696343Y-13619088D01*
X13696343Y-13619088D02*
X13686819Y-13628612D01*
X13686819Y-13628612D02*
X13677295Y-13619088D01*
X13677295Y-13619088D02*
X13686819Y-13609565D01*
X13686819Y-13609565D02*
X13686819Y-13628612D01*
X13820152Y-13428612D02*
X13839200Y-13428612D01*
X13839200Y-13428612D02*
X13858247Y-13438136D01*
X13858247Y-13438136D02*
X13867771Y-13447660D01*
X13867771Y-13447660D02*
X13877295Y-13466707D01*
X13877295Y-13466707D02*
X13886819Y-13504803D01*
X13886819Y-13504803D02*
X13886819Y-13552422D01*
X13886819Y-13552422D02*
X13877295Y-13590517D01*
X13877295Y-13590517D02*
X13867771Y-13609565D01*
X13867771Y-13609565D02*
X13858247Y-13619088D01*
X13858247Y-13619088D02*
X13839200Y-13628612D01*
X13839200Y-13628612D02*
X13820152Y-13628612D01*
X13820152Y-13628612D02*
X13801105Y-13619088D01*
X13801105Y-13619088D02*
X13791581Y-13609565D01*
X13791581Y-13609565D02*
X13782057Y-13590517D01*
X13782057Y-13590517D02*
X13772533Y-13552422D01*
X13772533Y-13552422D02*
X13772533Y-13504803D01*
X13772533Y-13504803D02*
X13782057Y-13466707D01*
X13782057Y-13466707D02*
X13791581Y-13447660D01*
X13791581Y-13447660D02*
X13801105Y-13438136D01*
X13801105Y-13438136D02*
X13820152Y-13428612D01*
X14010628Y-13428612D02*
X14029676Y-13428612D01*
X14029676Y-13428612D02*
X14048724Y-13438136D01*
X14048724Y-13438136D02*
X14058247Y-13447660D01*
X14058247Y-13447660D02*
X14067771Y-13466707D01*
X14067771Y-13466707D02*
X14077295Y-13504803D01*
X14077295Y-13504803D02*
X14077295Y-13552422D01*
X14077295Y-13552422D02*
X14067771Y-13590517D01*
X14067771Y-13590517D02*
X14058247Y-13609565D01*
X14058247Y-13609565D02*
X14048724Y-13619088D01*
X14048724Y-13619088D02*
X14029676Y-13628612D01*
X14029676Y-13628612D02*
X14010628Y-13628612D01*
X14010628Y-13628612D02*
X13991581Y-13619088D01*
X13991581Y-13619088D02*
X13982057Y-13609565D01*
X13982057Y-13609565D02*
X13972533Y-13590517D01*
X13972533Y-13590517D02*
X13963009Y-13552422D01*
X13963009Y-13552422D02*
X13963009Y-13504803D01*
X13963009Y-13504803D02*
X13972533Y-13466707D01*
X13972533Y-13466707D02*
X13982057Y-13447660D01*
X13982057Y-13447660D02*
X13991581Y-13438136D01*
X13991581Y-13438136D02*
X14010628Y-13428612D01*
X14172533Y-13628612D02*
X14210628Y-13628612D01*
X14210628Y-13628612D02*
X14229676Y-13619088D01*
X14229676Y-13619088D02*
X14239200Y-13609565D01*
X14239200Y-13609565D02*
X14258247Y-13580993D01*
X14258247Y-13580993D02*
X14267771Y-13542898D01*
X14267771Y-13542898D02*
X14267771Y-13466707D01*
X14267771Y-13466707D02*
X14258247Y-13447660D01*
X14258247Y-13447660D02*
X14248724Y-13438136D01*
X14248724Y-13438136D02*
X14229676Y-13428612D01*
X14229676Y-13428612D02*
X14191581Y-13428612D01*
X14191581Y-13428612D02*
X14172533Y-13438136D01*
X14172533Y-13438136D02*
X14163009Y-13447660D01*
X14163009Y-13447660D02*
X14153486Y-13466707D01*
X14153486Y-13466707D02*
X14153486Y-13514326D01*
X14153486Y-13514326D02*
X14163009Y-13533374D01*
X14163009Y-13533374D02*
X14172533Y-13542898D01*
X14172533Y-13542898D02*
X14191581Y-13552422D01*
X14191581Y-13552422D02*
X14229676Y-13552422D01*
X14229676Y-13552422D02*
X14248724Y-13542898D01*
X14248724Y-13542898D02*
X14258247Y-13533374D01*
X14258247Y-13533374D02*
X14267771Y-13514326D01*
X14382057Y-13514326D02*
X14363009Y-13504803D01*
X14363009Y-13504803D02*
X14353486Y-13495279D01*
X14353486Y-13495279D02*
X14343962Y-13476231D01*
X14343962Y-13476231D02*
X14343962Y-13466707D01*
X14343962Y-13466707D02*
X14353486Y-13447660D01*
X14353486Y-13447660D02*
X14363009Y-13438136D01*
X14363009Y-13438136D02*
X14382057Y-13428612D01*
X14382057Y-13428612D02*
X14420152Y-13428612D01*
X14420152Y-13428612D02*
X14439200Y-13438136D01*
X14439200Y-13438136D02*
X14448724Y-13447660D01*
X14448724Y-13447660D02*
X14458247Y-13466707D01*
X14458247Y-13466707D02*
X14458247Y-13476231D01*
X14458247Y-13476231D02*
X14448724Y-13495279D01*
X14448724Y-13495279D02*
X14439200Y-13504803D01*
X14439200Y-13504803D02*
X14420152Y-13514326D01*
X14420152Y-13514326D02*
X14382057Y-13514326D01*
X14382057Y-13514326D02*
X14363009Y-13523850D01*
X14363009Y-13523850D02*
X14353486Y-13533374D01*
X14353486Y-13533374D02*
X14343962Y-13552422D01*
X14343962Y-13552422D02*
X14343962Y-13590517D01*
X14343962Y-13590517D02*
X14353486Y-13609565D01*
X14353486Y-13609565D02*
X14363009Y-13619088D01*
X14363009Y-13619088D02*
X14382057Y-13628612D01*
X14382057Y-13628612D02*
X14420152Y-13628612D01*
X14420152Y-13628612D02*
X14439200Y-13619088D01*
X14439200Y-13619088D02*
X14448724Y-13609565D01*
X14448724Y-13609565D02*
X14458247Y-13590517D01*
X14458247Y-13590517D02*
X14458247Y-13552422D01*
X14458247Y-13552422D02*
X14448724Y-13533374D01*
X14448724Y-13533374D02*
X14439200Y-13523850D01*
X14439200Y-13523850D02*
X14420152Y-13514326D01*
X14534438Y-13428612D02*
X14534438Y-13466707D01*
X14610628Y-13428612D02*
X14610628Y-13466707D01*
X14905867Y-13704803D02*
X14896343Y-13695279D01*
X14896343Y-13695279D02*
X14877295Y-13666707D01*
X14877295Y-13666707D02*
X14867771Y-13647660D01*
X14867771Y-13647660D02*
X14858248Y-13619088D01*
X14858248Y-13619088D02*
X14848724Y-13571469D01*
X14848724Y-13571469D02*
X14848724Y-13533374D01*
X14848724Y-13533374D02*
X14858248Y-13485755D01*
X14858248Y-13485755D02*
X14867771Y-13457184D01*
X14867771Y-13457184D02*
X14877295Y-13438136D01*
X14877295Y-13438136D02*
X14896343Y-13409565D01*
X14896343Y-13409565D02*
X14905867Y-13400041D01*
X14991581Y-13628612D02*
X15029676Y-13628612D01*
X15029676Y-13628612D02*
X15048724Y-13619088D01*
X15048724Y-13619088D02*
X15058248Y-13609565D01*
X15058248Y-13609565D02*
X15077295Y-13580993D01*
X15077295Y-13580993D02*
X15086819Y-13542898D01*
X15086819Y-13542898D02*
X15086819Y-13466707D01*
X15086819Y-13466707D02*
X15077295Y-13447660D01*
X15077295Y-13447660D02*
X15067771Y-13438136D01*
X15067771Y-13438136D02*
X15048724Y-13428612D01*
X15048724Y-13428612D02*
X15010628Y-13428612D01*
X15010628Y-13428612D02*
X14991581Y-13438136D01*
X14991581Y-13438136D02*
X14982057Y-13447660D01*
X14982057Y-13447660D02*
X14972533Y-13466707D01*
X14972533Y-13466707D02*
X14972533Y-13514326D01*
X14972533Y-13514326D02*
X14982057Y-13533374D01*
X14982057Y-13533374D02*
X14991581Y-13542898D01*
X14991581Y-13542898D02*
X15010628Y-13552422D01*
X15010628Y-13552422D02*
X15048724Y-13552422D01*
X15048724Y-13552422D02*
X15067771Y-13542898D01*
X15067771Y-13542898D02*
X15077295Y-13533374D01*
X15077295Y-13533374D02*
X15086819Y-13514326D01*
X15324914Y-13628612D02*
X15324914Y-13428612D01*
X15410629Y-13628612D02*
X15410629Y-13523850D01*
X15410629Y-13523850D02*
X15401105Y-13504803D01*
X15401105Y-13504803D02*
X15382057Y-13495279D01*
X15382057Y-13495279D02*
X15353486Y-13495279D01*
X15353486Y-13495279D02*
X15334438Y-13504803D01*
X15334438Y-13504803D02*
X15324914Y-13514326D01*
X15534438Y-13628612D02*
X15515390Y-13619088D01*
X15515390Y-13619088D02*
X15505867Y-13609565D01*
X15505867Y-13609565D02*
X15496343Y-13590517D01*
X15496343Y-13590517D02*
X15496343Y-13533374D01*
X15496343Y-13533374D02*
X15505867Y-13514326D01*
X15505867Y-13514326D02*
X15515390Y-13504803D01*
X15515390Y-13504803D02*
X15534438Y-13495279D01*
X15534438Y-13495279D02*
X15563010Y-13495279D01*
X15563010Y-13495279D02*
X15582057Y-13504803D01*
X15582057Y-13504803D02*
X15591581Y-13514326D01*
X15591581Y-13514326D02*
X15601105Y-13533374D01*
X15601105Y-13533374D02*
X15601105Y-13590517D01*
X15601105Y-13590517D02*
X15591581Y-13609565D01*
X15591581Y-13609565D02*
X15582057Y-13619088D01*
X15582057Y-13619088D02*
X15563010Y-13628612D01*
X15563010Y-13628612D02*
X15534438Y-13628612D01*
X15715390Y-13628612D02*
X15696343Y-13619088D01*
X15696343Y-13619088D02*
X15686819Y-13600041D01*
X15686819Y-13600041D02*
X15686819Y-13428612D01*
X15867771Y-13619088D02*
X15848724Y-13628612D01*
X15848724Y-13628612D02*
X15810629Y-13628612D01*
X15810629Y-13628612D02*
X15791581Y-13619088D01*
X15791581Y-13619088D02*
X15782057Y-13600041D01*
X15782057Y-13600041D02*
X15782057Y-13523850D01*
X15782057Y-13523850D02*
X15791581Y-13504803D01*
X15791581Y-13504803D02*
X15810629Y-13495279D01*
X15810629Y-13495279D02*
X15848724Y-13495279D01*
X15848724Y-13495279D02*
X15867771Y-13504803D01*
X15867771Y-13504803D02*
X15877295Y-13523850D01*
X15877295Y-13523850D02*
X15877295Y-13542898D01*
X15877295Y-13542898D02*
X15782057Y-13561946D01*
X15953486Y-13619088D02*
X15972533Y-13628612D01*
X15972533Y-13628612D02*
X16010629Y-13628612D01*
X16010629Y-13628612D02*
X16029676Y-13619088D01*
X16029676Y-13619088D02*
X16039200Y-13600041D01*
X16039200Y-13600041D02*
X16039200Y-13590517D01*
X16039200Y-13590517D02*
X16029676Y-13571469D01*
X16029676Y-13571469D02*
X16010629Y-13561946D01*
X16010629Y-13561946D02*
X15982057Y-13561946D01*
X15982057Y-13561946D02*
X15963010Y-13552422D01*
X15963010Y-13552422D02*
X15953486Y-13533374D01*
X15953486Y-13533374D02*
X15953486Y-13523850D01*
X15953486Y-13523850D02*
X15963010Y-13504803D01*
X15963010Y-13504803D02*
X15982057Y-13495279D01*
X15982057Y-13495279D02*
X16010629Y-13495279D01*
X16010629Y-13495279D02*
X16029676Y-13504803D01*
X16105867Y-13704803D02*
X16115391Y-13695279D01*
X16115391Y-13695279D02*
X16134438Y-13666707D01*
X16134438Y-13666707D02*
X16143962Y-13647660D01*
X16143962Y-13647660D02*
X16153486Y-13619088D01*
X16153486Y-13619088D02*
X16163010Y-13571469D01*
X16163010Y-13571469D02*
X16163010Y-13533374D01*
X16163010Y-13533374D02*
X16153486Y-13485755D01*
X16153486Y-13485755D02*
X16143962Y-13457184D01*
X16143962Y-13457184D02*
X16134438Y-13438136D01*
X16134438Y-13438136D02*
X16115391Y-13409565D01*
X16115391Y-13409565D02*
X16105867Y-13400041D01*
D12*
X11326410Y-13811735D02*
X11326410Y-13790522D01*
X11305197Y-13790522D01*
X11305197Y-13811735D01*
X11326410Y-13811735D01*
D11*
X11629676Y-13692612D02*
X11648723Y-13692612D01*
X11648723Y-13692612D02*
X11667771Y-13702136D01*
X11667771Y-13702136D02*
X11677295Y-13711660D01*
X11677295Y-13711660D02*
X11686819Y-13730707D01*
X11686819Y-13730707D02*
X11696342Y-13768803D01*
X11696342Y-13768803D02*
X11696342Y-13816422D01*
X11696342Y-13816422D02*
X11686819Y-13854517D01*
X11686819Y-13854517D02*
X11677295Y-13873565D01*
X11677295Y-13873565D02*
X11667771Y-13883088D01*
X11667771Y-13883088D02*
X11648723Y-13892612D01*
X11648723Y-13892612D02*
X11629676Y-13892612D01*
X11629676Y-13892612D02*
X11610628Y-13883088D01*
X11610628Y-13883088D02*
X11601104Y-13873565D01*
X11601104Y-13873565D02*
X11591581Y-13854517D01*
X11591581Y-13854517D02*
X11582057Y-13816422D01*
X11582057Y-13816422D02*
X11582057Y-13768803D01*
X11582057Y-13768803D02*
X11591581Y-13730707D01*
X11591581Y-13730707D02*
X11601104Y-13711660D01*
X11601104Y-13711660D02*
X11610628Y-13702136D01*
X11610628Y-13702136D02*
X11629676Y-13692612D01*
X11782057Y-13873565D02*
X11791581Y-13883088D01*
X11791581Y-13883088D02*
X11782057Y-13892612D01*
X11782057Y-13892612D02*
X11772533Y-13883088D01*
X11772533Y-13883088D02*
X11782057Y-13873565D01*
X11782057Y-13873565D02*
X11782057Y-13892612D01*
X11858247Y-13692612D02*
X11982057Y-13692612D01*
X11982057Y-13692612D02*
X11915390Y-13768803D01*
X11915390Y-13768803D02*
X11943962Y-13768803D01*
X11943962Y-13768803D02*
X11963009Y-13778326D01*
X11963009Y-13778326D02*
X11972533Y-13787850D01*
X11972533Y-13787850D02*
X11982057Y-13806898D01*
X11982057Y-13806898D02*
X11982057Y-13854517D01*
X11982057Y-13854517D02*
X11972533Y-13873565D01*
X11972533Y-13873565D02*
X11963009Y-13883088D01*
X11963009Y-13883088D02*
X11943962Y-13892612D01*
X11943962Y-13892612D02*
X11886819Y-13892612D01*
X11886819Y-13892612D02*
X11867771Y-13883088D01*
X11867771Y-13883088D02*
X11858247Y-13873565D01*
X12105866Y-13692612D02*
X12124914Y-13692612D01*
X12124914Y-13692612D02*
X12143962Y-13702136D01*
X12143962Y-13702136D02*
X12153485Y-13711660D01*
X12153485Y-13711660D02*
X12163009Y-13730707D01*
X12163009Y-13730707D02*
X12172533Y-13768803D01*
X12172533Y-13768803D02*
X12172533Y-13816422D01*
X12172533Y-13816422D02*
X12163009Y-13854517D01*
X12163009Y-13854517D02*
X12153485Y-13873565D01*
X12153485Y-13873565D02*
X12143962Y-13883088D01*
X12143962Y-13883088D02*
X12124914Y-13892612D01*
X12124914Y-13892612D02*
X12105866Y-13892612D01*
X12105866Y-13892612D02*
X12086819Y-13883088D01*
X12086819Y-13883088D02*
X12077295Y-13873565D01*
X12077295Y-13873565D02*
X12067771Y-13854517D01*
X12067771Y-13854517D02*
X12058247Y-13816422D01*
X12058247Y-13816422D02*
X12058247Y-13768803D01*
X12058247Y-13768803D02*
X12067771Y-13730707D01*
X12067771Y-13730707D02*
X12077295Y-13711660D01*
X12077295Y-13711660D02*
X12086819Y-13702136D01*
X12086819Y-13702136D02*
X12105866Y-13692612D01*
X12296342Y-13692612D02*
X12315390Y-13692612D01*
X12315390Y-13692612D02*
X12334438Y-13702136D01*
X12334438Y-13702136D02*
X12343962Y-13711660D01*
X12343962Y-13711660D02*
X12353485Y-13730707D01*
X12353485Y-13730707D02*
X12363009Y-13768803D01*
X12363009Y-13768803D02*
X12363009Y-13816422D01*
X12363009Y-13816422D02*
X12353485Y-13854517D01*
X12353485Y-13854517D02*
X12343962Y-13873565D01*
X12343962Y-13873565D02*
X12334438Y-13883088D01*
X12334438Y-13883088D02*
X12315390Y-13892612D01*
X12315390Y-13892612D02*
X12296342Y-13892612D01*
X12296342Y-13892612D02*
X12277295Y-13883088D01*
X12277295Y-13883088D02*
X12267771Y-13873565D01*
X12267771Y-13873565D02*
X12258247Y-13854517D01*
X12258247Y-13854517D02*
X12248723Y-13816422D01*
X12248723Y-13816422D02*
X12248723Y-13768803D01*
X12248723Y-13768803D02*
X12258247Y-13730707D01*
X12258247Y-13730707D02*
X12267771Y-13711660D01*
X12267771Y-13711660D02*
X12277295Y-13702136D01*
X12277295Y-13702136D02*
X12296342Y-13692612D01*
X12448723Y-13892612D02*
X12448723Y-13759279D01*
X12448723Y-13778326D02*
X12458247Y-13768803D01*
X12458247Y-13768803D02*
X12477295Y-13759279D01*
X12477295Y-13759279D02*
X12505866Y-13759279D01*
X12505866Y-13759279D02*
X12524914Y-13768803D01*
X12524914Y-13768803D02*
X12534438Y-13787850D01*
X12534438Y-13787850D02*
X12534438Y-13892612D01*
X12534438Y-13787850D02*
X12543962Y-13768803D01*
X12543962Y-13768803D02*
X12563009Y-13759279D01*
X12563009Y-13759279D02*
X12591581Y-13759279D01*
X12591581Y-13759279D02*
X12610628Y-13768803D01*
X12610628Y-13768803D02*
X12620152Y-13787850D01*
X12620152Y-13787850D02*
X12620152Y-13892612D01*
X12715390Y-13892612D02*
X12715390Y-13759279D01*
X12715390Y-13778326D02*
X12724914Y-13768803D01*
X12724914Y-13768803D02*
X12743962Y-13759279D01*
X12743962Y-13759279D02*
X12772533Y-13759279D01*
X12772533Y-13759279D02*
X12791581Y-13768803D01*
X12791581Y-13768803D02*
X12801104Y-13787850D01*
X12801104Y-13787850D02*
X12801104Y-13892612D01*
X12801104Y-13787850D02*
X12810628Y-13768803D01*
X12810628Y-13768803D02*
X12829676Y-13759279D01*
X12829676Y-13759279D02*
X12858247Y-13759279D01*
X12858247Y-13759279D02*
X12877295Y-13768803D01*
X12877295Y-13768803D02*
X12886819Y-13787850D01*
X12886819Y-13787850D02*
X12886819Y-13892612D01*
X13277295Y-13683088D02*
X13105866Y-13940231D01*
X13534438Y-13692612D02*
X13553486Y-13692612D01*
X13553486Y-13692612D02*
X13572533Y-13702136D01*
X13572533Y-13702136D02*
X13582057Y-13711660D01*
X13582057Y-13711660D02*
X13591581Y-13730707D01*
X13591581Y-13730707D02*
X13601105Y-13768803D01*
X13601105Y-13768803D02*
X13601105Y-13816422D01*
X13601105Y-13816422D02*
X13591581Y-13854517D01*
X13591581Y-13854517D02*
X13582057Y-13873565D01*
X13582057Y-13873565D02*
X13572533Y-13883088D01*
X13572533Y-13883088D02*
X13553486Y-13892612D01*
X13553486Y-13892612D02*
X13534438Y-13892612D01*
X13534438Y-13892612D02*
X13515390Y-13883088D01*
X13515390Y-13883088D02*
X13505866Y-13873565D01*
X13505866Y-13873565D02*
X13496343Y-13854517D01*
X13496343Y-13854517D02*
X13486819Y-13816422D01*
X13486819Y-13816422D02*
X13486819Y-13768803D01*
X13486819Y-13768803D02*
X13496343Y-13730707D01*
X13496343Y-13730707D02*
X13505866Y-13711660D01*
X13505866Y-13711660D02*
X13515390Y-13702136D01*
X13515390Y-13702136D02*
X13534438Y-13692612D01*
X13686819Y-13873565D02*
X13696343Y-13883088D01*
X13696343Y-13883088D02*
X13686819Y-13892612D01*
X13686819Y-13892612D02*
X13677295Y-13883088D01*
X13677295Y-13883088D02*
X13686819Y-13873565D01*
X13686819Y-13873565D02*
X13686819Y-13892612D01*
X13820152Y-13692612D02*
X13839200Y-13692612D01*
X13839200Y-13692612D02*
X13858247Y-13702136D01*
X13858247Y-13702136D02*
X13867771Y-13711660D01*
X13867771Y-13711660D02*
X13877295Y-13730707D01*
X13877295Y-13730707D02*
X13886819Y-13768803D01*
X13886819Y-13768803D02*
X13886819Y-13816422D01*
X13886819Y-13816422D02*
X13877295Y-13854517D01*
X13877295Y-13854517D02*
X13867771Y-13873565D01*
X13867771Y-13873565D02*
X13858247Y-13883088D01*
X13858247Y-13883088D02*
X13839200Y-13892612D01*
X13839200Y-13892612D02*
X13820152Y-13892612D01*
X13820152Y-13892612D02*
X13801105Y-13883088D01*
X13801105Y-13883088D02*
X13791581Y-13873565D01*
X13791581Y-13873565D02*
X13782057Y-13854517D01*
X13782057Y-13854517D02*
X13772533Y-13816422D01*
X13772533Y-13816422D02*
X13772533Y-13768803D01*
X13772533Y-13768803D02*
X13782057Y-13730707D01*
X13782057Y-13730707D02*
X13791581Y-13711660D01*
X13791581Y-13711660D02*
X13801105Y-13702136D01*
X13801105Y-13702136D02*
X13820152Y-13692612D01*
X14077295Y-13892612D02*
X13963009Y-13892612D01*
X14020152Y-13892612D02*
X14020152Y-13692612D01*
X14020152Y-13692612D02*
X14001105Y-13721184D01*
X14001105Y-13721184D02*
X13982057Y-13740231D01*
X13982057Y-13740231D02*
X13963009Y-13749755D01*
X14267771Y-13892612D02*
X14153486Y-13892612D01*
X14210628Y-13892612D02*
X14210628Y-13692612D01*
X14210628Y-13692612D02*
X14191581Y-13721184D01*
X14191581Y-13721184D02*
X14172533Y-13740231D01*
X14172533Y-13740231D02*
X14153486Y-13749755D01*
X14382057Y-13778326D02*
X14363009Y-13768803D01*
X14363009Y-13768803D02*
X14353486Y-13759279D01*
X14353486Y-13759279D02*
X14343962Y-13740231D01*
X14343962Y-13740231D02*
X14343962Y-13730707D01*
X14343962Y-13730707D02*
X14353486Y-13711660D01*
X14353486Y-13711660D02*
X14363009Y-13702136D01*
X14363009Y-13702136D02*
X14382057Y-13692612D01*
X14382057Y-13692612D02*
X14420152Y-13692612D01*
X14420152Y-13692612D02*
X14439200Y-13702136D01*
X14439200Y-13702136D02*
X14448724Y-13711660D01*
X14448724Y-13711660D02*
X14458247Y-13730707D01*
X14458247Y-13730707D02*
X14458247Y-13740231D01*
X14458247Y-13740231D02*
X14448724Y-13759279D01*
X14448724Y-13759279D02*
X14439200Y-13768803D01*
X14439200Y-13768803D02*
X14420152Y-13778326D01*
X14420152Y-13778326D02*
X14382057Y-13778326D01*
X14382057Y-13778326D02*
X14363009Y-13787850D01*
X14363009Y-13787850D02*
X14353486Y-13797374D01*
X14353486Y-13797374D02*
X14343962Y-13816422D01*
X14343962Y-13816422D02*
X14343962Y-13854517D01*
X14343962Y-13854517D02*
X14353486Y-13873565D01*
X14353486Y-13873565D02*
X14363009Y-13883088D01*
X14363009Y-13883088D02*
X14382057Y-13892612D01*
X14382057Y-13892612D02*
X14420152Y-13892612D01*
X14420152Y-13892612D02*
X14439200Y-13883088D01*
X14439200Y-13883088D02*
X14448724Y-13873565D01*
X14448724Y-13873565D02*
X14458247Y-13854517D01*
X14458247Y-13854517D02*
X14458247Y-13816422D01*
X14458247Y-13816422D02*
X14448724Y-13797374D01*
X14448724Y-13797374D02*
X14439200Y-13787850D01*
X14439200Y-13787850D02*
X14420152Y-13778326D01*
X14534438Y-13692612D02*
X14534438Y-13730707D01*
X14610628Y-13692612D02*
X14610628Y-13730707D01*
X14905867Y-13968803D02*
X14896343Y-13959279D01*
X14896343Y-13959279D02*
X14877295Y-13930707D01*
X14877295Y-13930707D02*
X14867771Y-13911660D01*
X14867771Y-13911660D02*
X14858248Y-13883088D01*
X14858248Y-13883088D02*
X14848724Y-13835469D01*
X14848724Y-13835469D02*
X14848724Y-13797374D01*
X14848724Y-13797374D02*
X14858248Y-13749755D01*
X14858248Y-13749755D02*
X14867771Y-13721184D01*
X14867771Y-13721184D02*
X14877295Y-13702136D01*
X14877295Y-13702136D02*
X14896343Y-13673565D01*
X14896343Y-13673565D02*
X14905867Y-13664041D01*
X14991581Y-13892612D02*
X15029676Y-13892612D01*
X15029676Y-13892612D02*
X15048724Y-13883088D01*
X15048724Y-13883088D02*
X15058248Y-13873565D01*
X15058248Y-13873565D02*
X15077295Y-13844993D01*
X15077295Y-13844993D02*
X15086819Y-13806898D01*
X15086819Y-13806898D02*
X15086819Y-13730707D01*
X15086819Y-13730707D02*
X15077295Y-13711660D01*
X15077295Y-13711660D02*
X15067771Y-13702136D01*
X15067771Y-13702136D02*
X15048724Y-13692612D01*
X15048724Y-13692612D02*
X15010628Y-13692612D01*
X15010628Y-13692612D02*
X14991581Y-13702136D01*
X14991581Y-13702136D02*
X14982057Y-13711660D01*
X14982057Y-13711660D02*
X14972533Y-13730707D01*
X14972533Y-13730707D02*
X14972533Y-13778326D01*
X14972533Y-13778326D02*
X14982057Y-13797374D01*
X14982057Y-13797374D02*
X14991581Y-13806898D01*
X14991581Y-13806898D02*
X15010628Y-13816422D01*
X15010628Y-13816422D02*
X15048724Y-13816422D01*
X15048724Y-13816422D02*
X15067771Y-13806898D01*
X15067771Y-13806898D02*
X15077295Y-13797374D01*
X15077295Y-13797374D02*
X15086819Y-13778326D01*
X15258248Y-13692612D02*
X15220152Y-13692612D01*
X15220152Y-13692612D02*
X15201105Y-13702136D01*
X15201105Y-13702136D02*
X15191581Y-13711660D01*
X15191581Y-13711660D02*
X15172533Y-13740231D01*
X15172533Y-13740231D02*
X15163009Y-13778326D01*
X15163009Y-13778326D02*
X15163009Y-13854517D01*
X15163009Y-13854517D02*
X15172533Y-13873565D01*
X15172533Y-13873565D02*
X15182057Y-13883088D01*
X15182057Y-13883088D02*
X15201105Y-13892612D01*
X15201105Y-13892612D02*
X15239200Y-13892612D01*
X15239200Y-13892612D02*
X15258248Y-13883088D01*
X15258248Y-13883088D02*
X15267771Y-13873565D01*
X15267771Y-13873565D02*
X15277295Y-13854517D01*
X15277295Y-13854517D02*
X15277295Y-13806898D01*
X15277295Y-13806898D02*
X15267771Y-13787850D01*
X15267771Y-13787850D02*
X15258248Y-13778326D01*
X15258248Y-13778326D02*
X15239200Y-13768803D01*
X15239200Y-13768803D02*
X15201105Y-13768803D01*
X15201105Y-13768803D02*
X15182057Y-13778326D01*
X15182057Y-13778326D02*
X15172533Y-13787850D01*
X15172533Y-13787850D02*
X15163009Y-13806898D01*
X15515390Y-13892612D02*
X15515390Y-13692612D01*
X15601105Y-13892612D02*
X15601105Y-13787850D01*
X15601105Y-13787850D02*
X15591581Y-13768803D01*
X15591581Y-13768803D02*
X15572533Y-13759279D01*
X15572533Y-13759279D02*
X15543962Y-13759279D01*
X15543962Y-13759279D02*
X15524914Y-13768803D01*
X15524914Y-13768803D02*
X15515390Y-13778326D01*
X15724914Y-13892612D02*
X15705867Y-13883088D01*
X15705867Y-13883088D02*
X15696343Y-13873565D01*
X15696343Y-13873565D02*
X15686819Y-13854517D01*
X15686819Y-13854517D02*
X15686819Y-13797374D01*
X15686819Y-13797374D02*
X15696343Y-13778326D01*
X15696343Y-13778326D02*
X15705867Y-13768803D01*
X15705867Y-13768803D02*
X15724914Y-13759279D01*
X15724914Y-13759279D02*
X15753486Y-13759279D01*
X15753486Y-13759279D02*
X15772533Y-13768803D01*
X15772533Y-13768803D02*
X15782057Y-13778326D01*
X15782057Y-13778326D02*
X15791581Y-13797374D01*
X15791581Y-13797374D02*
X15791581Y-13854517D01*
X15791581Y-13854517D02*
X15782057Y-13873565D01*
X15782057Y-13873565D02*
X15772533Y-13883088D01*
X15772533Y-13883088D02*
X15753486Y-13892612D01*
X15753486Y-13892612D02*
X15724914Y-13892612D01*
X15905867Y-13892612D02*
X15886819Y-13883088D01*
X15886819Y-13883088D02*
X15877295Y-13864041D01*
X15877295Y-13864041D02*
X15877295Y-13692612D01*
X16058248Y-13883088D02*
X16039200Y-13892612D01*
X16039200Y-13892612D02*
X16001105Y-13892612D01*
X16001105Y-13892612D02*
X15982057Y-13883088D01*
X15982057Y-13883088D02*
X15972533Y-13864041D01*
X15972533Y-13864041D02*
X15972533Y-13787850D01*
X15972533Y-13787850D02*
X15982057Y-13768803D01*
X15982057Y-13768803D02*
X16001105Y-13759279D01*
X16001105Y-13759279D02*
X16039200Y-13759279D01*
X16039200Y-13759279D02*
X16058248Y-13768803D01*
X16058248Y-13768803D02*
X16067771Y-13787850D01*
X16067771Y-13787850D02*
X16067771Y-13806898D01*
X16067771Y-13806898D02*
X15972533Y-13825946D01*
X16143962Y-13883088D02*
X16163010Y-13892612D01*
X16163010Y-13892612D02*
X16201105Y-13892612D01*
X16201105Y-13892612D02*
X16220152Y-13883088D01*
X16220152Y-13883088D02*
X16229676Y-13864041D01*
X16229676Y-13864041D02*
X16229676Y-13854517D01*
X16229676Y-13854517D02*
X16220152Y-13835469D01*
X16220152Y-13835469D02*
X16201105Y-13825946D01*
X16201105Y-13825946D02*
X16172533Y-13825946D01*
X16172533Y-13825946D02*
X16153486Y-13816422D01*
X16153486Y-13816422D02*
X16143962Y-13797374D01*
X16143962Y-13797374D02*
X16143962Y-13787850D01*
X16143962Y-13787850D02*
X16153486Y-13768803D01*
X16153486Y-13768803D02*
X16172533Y-13759279D01*
X16172533Y-13759279D02*
X16201105Y-13759279D01*
X16201105Y-13759279D02*
X16220152Y-13768803D01*
X16296343Y-13968803D02*
X16305867Y-13959279D01*
X16305867Y-13959279D02*
X16324914Y-13930707D01*
X16324914Y-13930707D02*
X16334438Y-13911660D01*
X16334438Y-13911660D02*
X16343962Y-13883088D01*
X16343962Y-13883088D02*
X16353486Y-13835469D01*
X16353486Y-13835469D02*
X16353486Y-13797374D01*
X16353486Y-13797374D02*
X16343962Y-13749755D01*
X16343962Y-13749755D02*
X16334438Y-13721184D01*
X16334438Y-13721184D02*
X16324914Y-13702136D01*
X16324914Y-13702136D02*
X16305867Y-13673565D01*
X16305867Y-13673565D02*
X16296343Y-13664041D01*
D12*
X11300804Y-14095128D02*
X11330804Y-14065128D01*
X11300804Y-14035128D01*
X11270804Y-14065128D01*
X11300804Y-14095128D01*
D11*
X11629676Y-13956612D02*
X11648723Y-13956612D01*
X11648723Y-13956612D02*
X11667771Y-13966136D01*
X11667771Y-13966136D02*
X11677295Y-13975660D01*
X11677295Y-13975660D02*
X11686819Y-13994707D01*
X11686819Y-13994707D02*
X11696342Y-14032803D01*
X11696342Y-14032803D02*
X11696342Y-14080422D01*
X11696342Y-14080422D02*
X11686819Y-14118517D01*
X11686819Y-14118517D02*
X11677295Y-14137565D01*
X11677295Y-14137565D02*
X11667771Y-14147088D01*
X11667771Y-14147088D02*
X11648723Y-14156612D01*
X11648723Y-14156612D02*
X11629676Y-14156612D01*
X11629676Y-14156612D02*
X11610628Y-14147088D01*
X11610628Y-14147088D02*
X11601104Y-14137565D01*
X11601104Y-14137565D02*
X11591581Y-14118517D01*
X11591581Y-14118517D02*
X11582057Y-14080422D01*
X11582057Y-14080422D02*
X11582057Y-14032803D01*
X11582057Y-14032803D02*
X11591581Y-13994707D01*
X11591581Y-13994707D02*
X11601104Y-13975660D01*
X11601104Y-13975660D02*
X11610628Y-13966136D01*
X11610628Y-13966136D02*
X11629676Y-13956612D01*
X11782057Y-14137565D02*
X11791581Y-14147088D01*
X11791581Y-14147088D02*
X11782057Y-14156612D01*
X11782057Y-14156612D02*
X11772533Y-14147088D01*
X11772533Y-14147088D02*
X11782057Y-14137565D01*
X11782057Y-14137565D02*
X11782057Y-14156612D01*
X11963009Y-13956612D02*
X11924914Y-13956612D01*
X11924914Y-13956612D02*
X11905866Y-13966136D01*
X11905866Y-13966136D02*
X11896342Y-13975660D01*
X11896342Y-13975660D02*
X11877295Y-14004231D01*
X11877295Y-14004231D02*
X11867771Y-14042326D01*
X11867771Y-14042326D02*
X11867771Y-14118517D01*
X11867771Y-14118517D02*
X11877295Y-14137565D01*
X11877295Y-14137565D02*
X11886819Y-14147088D01*
X11886819Y-14147088D02*
X11905866Y-14156612D01*
X11905866Y-14156612D02*
X11943962Y-14156612D01*
X11943962Y-14156612D02*
X11963009Y-14147088D01*
X11963009Y-14147088D02*
X11972533Y-14137565D01*
X11972533Y-14137565D02*
X11982057Y-14118517D01*
X11982057Y-14118517D02*
X11982057Y-14070898D01*
X11982057Y-14070898D02*
X11972533Y-14051850D01*
X11972533Y-14051850D02*
X11963009Y-14042326D01*
X11963009Y-14042326D02*
X11943962Y-14032803D01*
X11943962Y-14032803D02*
X11905866Y-14032803D01*
X11905866Y-14032803D02*
X11886819Y-14042326D01*
X11886819Y-14042326D02*
X11877295Y-14051850D01*
X11877295Y-14051850D02*
X11867771Y-14070898D01*
X12105866Y-13956612D02*
X12124914Y-13956612D01*
X12124914Y-13956612D02*
X12143962Y-13966136D01*
X12143962Y-13966136D02*
X12153485Y-13975660D01*
X12153485Y-13975660D02*
X12163009Y-13994707D01*
X12163009Y-13994707D02*
X12172533Y-14032803D01*
X12172533Y-14032803D02*
X12172533Y-14080422D01*
X12172533Y-14080422D02*
X12163009Y-14118517D01*
X12163009Y-14118517D02*
X12153485Y-14137565D01*
X12153485Y-14137565D02*
X12143962Y-14147088D01*
X12143962Y-14147088D02*
X12124914Y-14156612D01*
X12124914Y-14156612D02*
X12105866Y-14156612D01*
X12105866Y-14156612D02*
X12086819Y-14147088D01*
X12086819Y-14147088D02*
X12077295Y-14137565D01*
X12077295Y-14137565D02*
X12067771Y-14118517D01*
X12067771Y-14118517D02*
X12058247Y-14080422D01*
X12058247Y-14080422D02*
X12058247Y-14032803D01*
X12058247Y-14032803D02*
X12067771Y-13994707D01*
X12067771Y-13994707D02*
X12077295Y-13975660D01*
X12077295Y-13975660D02*
X12086819Y-13966136D01*
X12086819Y-13966136D02*
X12105866Y-13956612D01*
X12296342Y-13956612D02*
X12315390Y-13956612D01*
X12315390Y-13956612D02*
X12334438Y-13966136D01*
X12334438Y-13966136D02*
X12343962Y-13975660D01*
X12343962Y-13975660D02*
X12353485Y-13994707D01*
X12353485Y-13994707D02*
X12363009Y-14032803D01*
X12363009Y-14032803D02*
X12363009Y-14080422D01*
X12363009Y-14080422D02*
X12353485Y-14118517D01*
X12353485Y-14118517D02*
X12343962Y-14137565D01*
X12343962Y-14137565D02*
X12334438Y-14147088D01*
X12334438Y-14147088D02*
X12315390Y-14156612D01*
X12315390Y-14156612D02*
X12296342Y-14156612D01*
X12296342Y-14156612D02*
X12277295Y-14147088D01*
X12277295Y-14147088D02*
X12267771Y-14137565D01*
X12267771Y-14137565D02*
X12258247Y-14118517D01*
X12258247Y-14118517D02*
X12248723Y-14080422D01*
X12248723Y-14080422D02*
X12248723Y-14032803D01*
X12248723Y-14032803D02*
X12258247Y-13994707D01*
X12258247Y-13994707D02*
X12267771Y-13975660D01*
X12267771Y-13975660D02*
X12277295Y-13966136D01*
X12277295Y-13966136D02*
X12296342Y-13956612D01*
X12448723Y-14156612D02*
X12448723Y-14023279D01*
X12448723Y-14042326D02*
X12458247Y-14032803D01*
X12458247Y-14032803D02*
X12477295Y-14023279D01*
X12477295Y-14023279D02*
X12505866Y-14023279D01*
X12505866Y-14023279D02*
X12524914Y-14032803D01*
X12524914Y-14032803D02*
X12534438Y-14051850D01*
X12534438Y-14051850D02*
X12534438Y-14156612D01*
X12534438Y-14051850D02*
X12543962Y-14032803D01*
X12543962Y-14032803D02*
X12563009Y-14023279D01*
X12563009Y-14023279D02*
X12591581Y-14023279D01*
X12591581Y-14023279D02*
X12610628Y-14032803D01*
X12610628Y-14032803D02*
X12620152Y-14051850D01*
X12620152Y-14051850D02*
X12620152Y-14156612D01*
X12715390Y-14156612D02*
X12715390Y-14023279D01*
X12715390Y-14042326D02*
X12724914Y-14032803D01*
X12724914Y-14032803D02*
X12743962Y-14023279D01*
X12743962Y-14023279D02*
X12772533Y-14023279D01*
X12772533Y-14023279D02*
X12791581Y-14032803D01*
X12791581Y-14032803D02*
X12801104Y-14051850D01*
X12801104Y-14051850D02*
X12801104Y-14156612D01*
X12801104Y-14051850D02*
X12810628Y-14032803D01*
X12810628Y-14032803D02*
X12829676Y-14023279D01*
X12829676Y-14023279D02*
X12858247Y-14023279D01*
X12858247Y-14023279D02*
X12877295Y-14032803D01*
X12877295Y-14032803D02*
X12886819Y-14051850D01*
X12886819Y-14051850D02*
X12886819Y-14156612D01*
X13277295Y-13947088D02*
X13105866Y-14204231D01*
X13534438Y-13956612D02*
X13553486Y-13956612D01*
X13553486Y-13956612D02*
X13572533Y-13966136D01*
X13572533Y-13966136D02*
X13582057Y-13975660D01*
X13582057Y-13975660D02*
X13591581Y-13994707D01*
X13591581Y-13994707D02*
X13601105Y-14032803D01*
X13601105Y-14032803D02*
X13601105Y-14080422D01*
X13601105Y-14080422D02*
X13591581Y-14118517D01*
X13591581Y-14118517D02*
X13582057Y-14137565D01*
X13582057Y-14137565D02*
X13572533Y-14147088D01*
X13572533Y-14147088D02*
X13553486Y-14156612D01*
X13553486Y-14156612D02*
X13534438Y-14156612D01*
X13534438Y-14156612D02*
X13515390Y-14147088D01*
X13515390Y-14147088D02*
X13505866Y-14137565D01*
X13505866Y-14137565D02*
X13496343Y-14118517D01*
X13496343Y-14118517D02*
X13486819Y-14080422D01*
X13486819Y-14080422D02*
X13486819Y-14032803D01*
X13486819Y-14032803D02*
X13496343Y-13994707D01*
X13496343Y-13994707D02*
X13505866Y-13975660D01*
X13505866Y-13975660D02*
X13515390Y-13966136D01*
X13515390Y-13966136D02*
X13534438Y-13956612D01*
X13686819Y-14137565D02*
X13696343Y-14147088D01*
X13696343Y-14147088D02*
X13686819Y-14156612D01*
X13686819Y-14156612D02*
X13677295Y-14147088D01*
X13677295Y-14147088D02*
X13686819Y-14137565D01*
X13686819Y-14137565D02*
X13686819Y-14156612D01*
X13820152Y-13956612D02*
X13839200Y-13956612D01*
X13839200Y-13956612D02*
X13858247Y-13966136D01*
X13858247Y-13966136D02*
X13867771Y-13975660D01*
X13867771Y-13975660D02*
X13877295Y-13994707D01*
X13877295Y-13994707D02*
X13886819Y-14032803D01*
X13886819Y-14032803D02*
X13886819Y-14080422D01*
X13886819Y-14080422D02*
X13877295Y-14118517D01*
X13877295Y-14118517D02*
X13867771Y-14137565D01*
X13867771Y-14137565D02*
X13858247Y-14147088D01*
X13858247Y-14147088D02*
X13839200Y-14156612D01*
X13839200Y-14156612D02*
X13820152Y-14156612D01*
X13820152Y-14156612D02*
X13801105Y-14147088D01*
X13801105Y-14147088D02*
X13791581Y-14137565D01*
X13791581Y-14137565D02*
X13782057Y-14118517D01*
X13782057Y-14118517D02*
X13772533Y-14080422D01*
X13772533Y-14080422D02*
X13772533Y-14032803D01*
X13772533Y-14032803D02*
X13782057Y-13994707D01*
X13782057Y-13994707D02*
X13791581Y-13975660D01*
X13791581Y-13975660D02*
X13801105Y-13966136D01*
X13801105Y-13966136D02*
X13820152Y-13956612D01*
X13963009Y-13975660D02*
X13972533Y-13966136D01*
X13972533Y-13966136D02*
X13991581Y-13956612D01*
X13991581Y-13956612D02*
X14039200Y-13956612D01*
X14039200Y-13956612D02*
X14058247Y-13966136D01*
X14058247Y-13966136D02*
X14067771Y-13975660D01*
X14067771Y-13975660D02*
X14077295Y-13994707D01*
X14077295Y-13994707D02*
X14077295Y-14013755D01*
X14077295Y-14013755D02*
X14067771Y-14042326D01*
X14067771Y-14042326D02*
X13953486Y-14156612D01*
X13953486Y-14156612D02*
X14077295Y-14156612D01*
X14143962Y-13956612D02*
X14267771Y-13956612D01*
X14267771Y-13956612D02*
X14201105Y-14032803D01*
X14201105Y-14032803D02*
X14229676Y-14032803D01*
X14229676Y-14032803D02*
X14248724Y-14042326D01*
X14248724Y-14042326D02*
X14258247Y-14051850D01*
X14258247Y-14051850D02*
X14267771Y-14070898D01*
X14267771Y-14070898D02*
X14267771Y-14118517D01*
X14267771Y-14118517D02*
X14258247Y-14137565D01*
X14258247Y-14137565D02*
X14248724Y-14147088D01*
X14248724Y-14147088D02*
X14229676Y-14156612D01*
X14229676Y-14156612D02*
X14172533Y-14156612D01*
X14172533Y-14156612D02*
X14153486Y-14147088D01*
X14153486Y-14147088D02*
X14143962Y-14137565D01*
X14439200Y-13956612D02*
X14401105Y-13956612D01*
X14401105Y-13956612D02*
X14382057Y-13966136D01*
X14382057Y-13966136D02*
X14372533Y-13975660D01*
X14372533Y-13975660D02*
X14353486Y-14004231D01*
X14353486Y-14004231D02*
X14343962Y-14042326D01*
X14343962Y-14042326D02*
X14343962Y-14118517D01*
X14343962Y-14118517D02*
X14353486Y-14137565D01*
X14353486Y-14137565D02*
X14363009Y-14147088D01*
X14363009Y-14147088D02*
X14382057Y-14156612D01*
X14382057Y-14156612D02*
X14420152Y-14156612D01*
X14420152Y-14156612D02*
X14439200Y-14147088D01*
X14439200Y-14147088D02*
X14448724Y-14137565D01*
X14448724Y-14137565D02*
X14458247Y-14118517D01*
X14458247Y-14118517D02*
X14458247Y-14070898D01*
X14458247Y-14070898D02*
X14448724Y-14051850D01*
X14448724Y-14051850D02*
X14439200Y-14042326D01*
X14439200Y-14042326D02*
X14420152Y-14032803D01*
X14420152Y-14032803D02*
X14382057Y-14032803D01*
X14382057Y-14032803D02*
X14363009Y-14042326D01*
X14363009Y-14042326D02*
X14353486Y-14051850D01*
X14353486Y-14051850D02*
X14343962Y-14070898D01*
X14534438Y-13956612D02*
X14534438Y-13994707D01*
X14610628Y-13956612D02*
X14610628Y-13994707D01*
X14905867Y-14232803D02*
X14896343Y-14223279D01*
X14896343Y-14223279D02*
X14877295Y-14194707D01*
X14877295Y-14194707D02*
X14867771Y-14175660D01*
X14867771Y-14175660D02*
X14858248Y-14147088D01*
X14858248Y-14147088D02*
X14848724Y-14099469D01*
X14848724Y-14099469D02*
X14848724Y-14061374D01*
X14848724Y-14061374D02*
X14858248Y-14013755D01*
X14858248Y-14013755D02*
X14867771Y-13985184D01*
X14867771Y-13985184D02*
X14877295Y-13966136D01*
X14877295Y-13966136D02*
X14896343Y-13937565D01*
X14896343Y-13937565D02*
X14905867Y-13928041D01*
X14963009Y-13956612D02*
X15086819Y-13956612D01*
X15086819Y-13956612D02*
X15020152Y-14032803D01*
X15020152Y-14032803D02*
X15048724Y-14032803D01*
X15048724Y-14032803D02*
X15067771Y-14042326D01*
X15067771Y-14042326D02*
X15077295Y-14051850D01*
X15077295Y-14051850D02*
X15086819Y-14070898D01*
X15086819Y-14070898D02*
X15086819Y-14118517D01*
X15086819Y-14118517D02*
X15077295Y-14137565D01*
X15077295Y-14137565D02*
X15067771Y-14147088D01*
X15067771Y-14147088D02*
X15048724Y-14156612D01*
X15048724Y-14156612D02*
X14991581Y-14156612D01*
X14991581Y-14156612D02*
X14972533Y-14147088D01*
X14972533Y-14147088D02*
X14963009Y-14137565D01*
X15163009Y-13975660D02*
X15172533Y-13966136D01*
X15172533Y-13966136D02*
X15191581Y-13956612D01*
X15191581Y-13956612D02*
X15239200Y-13956612D01*
X15239200Y-13956612D02*
X15258248Y-13966136D01*
X15258248Y-13966136D02*
X15267771Y-13975660D01*
X15267771Y-13975660D02*
X15277295Y-13994707D01*
X15277295Y-13994707D02*
X15277295Y-14013755D01*
X15277295Y-14013755D02*
X15267771Y-14042326D01*
X15267771Y-14042326D02*
X15153486Y-14156612D01*
X15153486Y-14156612D02*
X15277295Y-14156612D01*
X15515390Y-14156612D02*
X15515390Y-13956612D01*
X15601105Y-14156612D02*
X15601105Y-14051850D01*
X15601105Y-14051850D02*
X15591581Y-14032803D01*
X15591581Y-14032803D02*
X15572533Y-14023279D01*
X15572533Y-14023279D02*
X15543962Y-14023279D01*
X15543962Y-14023279D02*
X15524914Y-14032803D01*
X15524914Y-14032803D02*
X15515390Y-14042326D01*
X15724914Y-14156612D02*
X15705867Y-14147088D01*
X15705867Y-14147088D02*
X15696343Y-14137565D01*
X15696343Y-14137565D02*
X15686819Y-14118517D01*
X15686819Y-14118517D02*
X15686819Y-14061374D01*
X15686819Y-14061374D02*
X15696343Y-14042326D01*
X15696343Y-14042326D02*
X15705867Y-14032803D01*
X15705867Y-14032803D02*
X15724914Y-14023279D01*
X15724914Y-14023279D02*
X15753486Y-14023279D01*
X15753486Y-14023279D02*
X15772533Y-14032803D01*
X15772533Y-14032803D02*
X15782057Y-14042326D01*
X15782057Y-14042326D02*
X15791581Y-14061374D01*
X15791581Y-14061374D02*
X15791581Y-14118517D01*
X15791581Y-14118517D02*
X15782057Y-14137565D01*
X15782057Y-14137565D02*
X15772533Y-14147088D01*
X15772533Y-14147088D02*
X15753486Y-14156612D01*
X15753486Y-14156612D02*
X15724914Y-14156612D01*
X15905867Y-14156612D02*
X15886819Y-14147088D01*
X15886819Y-14147088D02*
X15877295Y-14128041D01*
X15877295Y-14128041D02*
X15877295Y-13956612D01*
X16058248Y-14147088D02*
X16039200Y-14156612D01*
X16039200Y-14156612D02*
X16001105Y-14156612D01*
X16001105Y-14156612D02*
X15982057Y-14147088D01*
X15982057Y-14147088D02*
X15972533Y-14128041D01*
X15972533Y-14128041D02*
X15972533Y-14051850D01*
X15972533Y-14051850D02*
X15982057Y-14032803D01*
X15982057Y-14032803D02*
X16001105Y-14023279D01*
X16001105Y-14023279D02*
X16039200Y-14023279D01*
X16039200Y-14023279D02*
X16058248Y-14032803D01*
X16058248Y-14032803D02*
X16067771Y-14051850D01*
X16067771Y-14051850D02*
X16067771Y-14070898D01*
X16067771Y-14070898D02*
X15972533Y-14089946D01*
X16143962Y-14147088D02*
X16163010Y-14156612D01*
X16163010Y-14156612D02*
X16201105Y-14156612D01*
X16201105Y-14156612D02*
X16220152Y-14147088D01*
X16220152Y-14147088D02*
X16229676Y-14128041D01*
X16229676Y-14128041D02*
X16229676Y-14118517D01*
X16229676Y-14118517D02*
X16220152Y-14099469D01*
X16220152Y-14099469D02*
X16201105Y-14089946D01*
X16201105Y-14089946D02*
X16172533Y-14089946D01*
X16172533Y-14089946D02*
X16153486Y-14080422D01*
X16153486Y-14080422D02*
X16143962Y-14061374D01*
X16143962Y-14061374D02*
X16143962Y-14051850D01*
X16143962Y-14051850D02*
X16153486Y-14032803D01*
X16153486Y-14032803D02*
X16172533Y-14023279D01*
X16172533Y-14023279D02*
X16201105Y-14023279D01*
X16201105Y-14023279D02*
X16220152Y-14032803D01*
X16467772Y-14080422D02*
X16620153Y-14080422D01*
X16543962Y-14156612D02*
X16543962Y-14004231D01*
X16953486Y-14023279D02*
X16953486Y-14156612D01*
X16905867Y-13947088D02*
X16858248Y-14089946D01*
X16858248Y-14089946D02*
X16982057Y-14089946D01*
X17201105Y-14147088D02*
X17220153Y-14156612D01*
X17220153Y-14156612D02*
X17258248Y-14156612D01*
X17258248Y-14156612D02*
X17277296Y-14147088D01*
X17277296Y-14147088D02*
X17286819Y-14128041D01*
X17286819Y-14128041D02*
X17286819Y-14118517D01*
X17286819Y-14118517D02*
X17277296Y-14099469D01*
X17277296Y-14099469D02*
X17258248Y-14089946D01*
X17258248Y-14089946D02*
X17229676Y-14089946D01*
X17229676Y-14089946D02*
X17210629Y-14080422D01*
X17210629Y-14080422D02*
X17201105Y-14061374D01*
X17201105Y-14061374D02*
X17201105Y-14051850D01*
X17201105Y-14051850D02*
X17210629Y-14032803D01*
X17210629Y-14032803D02*
X17229676Y-14023279D01*
X17229676Y-14023279D02*
X17258248Y-14023279D01*
X17258248Y-14023279D02*
X17277296Y-14032803D01*
X17401105Y-14156612D02*
X17382057Y-14147088D01*
X17382057Y-14147088D02*
X17372534Y-14128041D01*
X17372534Y-14128041D02*
X17372534Y-13956612D01*
X17505867Y-14156612D02*
X17486819Y-14147088D01*
X17486819Y-14147088D02*
X17477296Y-14137565D01*
X17477296Y-14137565D02*
X17467772Y-14118517D01*
X17467772Y-14118517D02*
X17467772Y-14061374D01*
X17467772Y-14061374D02*
X17477296Y-14042326D01*
X17477296Y-14042326D02*
X17486819Y-14032803D01*
X17486819Y-14032803D02*
X17505867Y-14023279D01*
X17505867Y-14023279D02*
X17534438Y-14023279D01*
X17534438Y-14023279D02*
X17553486Y-14032803D01*
X17553486Y-14032803D02*
X17563010Y-14042326D01*
X17563010Y-14042326D02*
X17572534Y-14061374D01*
X17572534Y-14061374D02*
X17572534Y-14118517D01*
X17572534Y-14118517D02*
X17563010Y-14137565D01*
X17563010Y-14137565D02*
X17553486Y-14147088D01*
X17553486Y-14147088D02*
X17534438Y-14156612D01*
X17534438Y-14156612D02*
X17505867Y-14156612D01*
X17629677Y-14023279D02*
X17705867Y-14023279D01*
X17658248Y-13956612D02*
X17658248Y-14128041D01*
X17658248Y-14128041D02*
X17667772Y-14147088D01*
X17667772Y-14147088D02*
X17686819Y-14156612D01*
X17686819Y-14156612D02*
X17705867Y-14156612D01*
X17763010Y-14147088D02*
X17782057Y-14156612D01*
X17782057Y-14156612D02*
X17820153Y-14156612D01*
X17820153Y-14156612D02*
X17839200Y-14147088D01*
X17839200Y-14147088D02*
X17848724Y-14128041D01*
X17848724Y-14128041D02*
X17848724Y-14118517D01*
X17848724Y-14118517D02*
X17839200Y-14099469D01*
X17839200Y-14099469D02*
X17820153Y-14089946D01*
X17820153Y-14089946D02*
X17791581Y-14089946D01*
X17791581Y-14089946D02*
X17772534Y-14080422D01*
X17772534Y-14080422D02*
X17763010Y-14061374D01*
X17763010Y-14061374D02*
X17763010Y-14051850D01*
X17763010Y-14051850D02*
X17772534Y-14032803D01*
X17772534Y-14032803D02*
X17791581Y-14023279D01*
X17791581Y-14023279D02*
X17820153Y-14023279D01*
X17820153Y-14023279D02*
X17839200Y-14032803D01*
X17915391Y-14232803D02*
X17924915Y-14223279D01*
X17924915Y-14223279D02*
X17943962Y-14194707D01*
X17943962Y-14194707D02*
X17953486Y-14175660D01*
X17953486Y-14175660D02*
X17963010Y-14147088D01*
X17963010Y-14147088D02*
X17972534Y-14099469D01*
X17972534Y-14099469D02*
X17972534Y-14061374D01*
X17972534Y-14061374D02*
X17963010Y-14013755D01*
X17963010Y-14013755D02*
X17953486Y-13985184D01*
X17953486Y-13985184D02*
X17943962Y-13966136D01*
X17943962Y-13966136D02*
X17924915Y-13937565D01*
X17924915Y-13937565D02*
X17915391Y-13928041D01*
D12*
X11230804Y-14279128D02*
X11330804Y-14379128D01*
X11330804Y-14279128D02*
X11230804Y-14379128D01*
X11330804Y-14329128D02*
G75*
G02*
X11230804Y-14329128I-50000J0D01*
G01*
X11230804Y-14329128D02*
G75*
G02*
X11330804Y-14329128I50000J0D01*
G01*
D11*
X11696342Y-14420612D02*
X11582057Y-14420612D01*
X11639200Y-14420612D02*
X11639200Y-14220612D01*
X11639200Y-14220612D02*
X11620152Y-14249184D01*
X11620152Y-14249184D02*
X11601104Y-14268231D01*
X11601104Y-14268231D02*
X11582057Y-14277755D01*
X11782057Y-14401565D02*
X11791581Y-14411088D01*
X11791581Y-14411088D02*
X11782057Y-14420612D01*
X11782057Y-14420612D02*
X11772533Y-14411088D01*
X11772533Y-14411088D02*
X11782057Y-14401565D01*
X11782057Y-14401565D02*
X11782057Y-14420612D01*
X11915390Y-14220612D02*
X11934438Y-14220612D01*
X11934438Y-14220612D02*
X11953485Y-14230136D01*
X11953485Y-14230136D02*
X11963009Y-14239660D01*
X11963009Y-14239660D02*
X11972533Y-14258707D01*
X11972533Y-14258707D02*
X11982057Y-14296803D01*
X11982057Y-14296803D02*
X11982057Y-14344422D01*
X11982057Y-14344422D02*
X11972533Y-14382517D01*
X11972533Y-14382517D02*
X11963009Y-14401565D01*
X11963009Y-14401565D02*
X11953485Y-14411088D01*
X11953485Y-14411088D02*
X11934438Y-14420612D01*
X11934438Y-14420612D02*
X11915390Y-14420612D01*
X11915390Y-14420612D02*
X11896342Y-14411088D01*
X11896342Y-14411088D02*
X11886819Y-14401565D01*
X11886819Y-14401565D02*
X11877295Y-14382517D01*
X11877295Y-14382517D02*
X11867771Y-14344422D01*
X11867771Y-14344422D02*
X11867771Y-14296803D01*
X11867771Y-14296803D02*
X11877295Y-14258707D01*
X11877295Y-14258707D02*
X11886819Y-14239660D01*
X11886819Y-14239660D02*
X11896342Y-14230136D01*
X11896342Y-14230136D02*
X11915390Y-14220612D01*
X12105866Y-14220612D02*
X12124914Y-14220612D01*
X12124914Y-14220612D02*
X12143962Y-14230136D01*
X12143962Y-14230136D02*
X12153485Y-14239660D01*
X12153485Y-14239660D02*
X12163009Y-14258707D01*
X12163009Y-14258707D02*
X12172533Y-14296803D01*
X12172533Y-14296803D02*
X12172533Y-14344422D01*
X12172533Y-14344422D02*
X12163009Y-14382517D01*
X12163009Y-14382517D02*
X12153485Y-14401565D01*
X12153485Y-14401565D02*
X12143962Y-14411088D01*
X12143962Y-14411088D02*
X12124914Y-14420612D01*
X12124914Y-14420612D02*
X12105866Y-14420612D01*
X12105866Y-14420612D02*
X12086819Y-14411088D01*
X12086819Y-14411088D02*
X12077295Y-14401565D01*
X12077295Y-14401565D02*
X12067771Y-14382517D01*
X12067771Y-14382517D02*
X12058247Y-14344422D01*
X12058247Y-14344422D02*
X12058247Y-14296803D01*
X12058247Y-14296803D02*
X12067771Y-14258707D01*
X12067771Y-14258707D02*
X12077295Y-14239660D01*
X12077295Y-14239660D02*
X12086819Y-14230136D01*
X12086819Y-14230136D02*
X12105866Y-14220612D01*
X12296342Y-14220612D02*
X12315390Y-14220612D01*
X12315390Y-14220612D02*
X12334438Y-14230136D01*
X12334438Y-14230136D02*
X12343962Y-14239660D01*
X12343962Y-14239660D02*
X12353485Y-14258707D01*
X12353485Y-14258707D02*
X12363009Y-14296803D01*
X12363009Y-14296803D02*
X12363009Y-14344422D01*
X12363009Y-14344422D02*
X12353485Y-14382517D01*
X12353485Y-14382517D02*
X12343962Y-14401565D01*
X12343962Y-14401565D02*
X12334438Y-14411088D01*
X12334438Y-14411088D02*
X12315390Y-14420612D01*
X12315390Y-14420612D02*
X12296342Y-14420612D01*
X12296342Y-14420612D02*
X12277295Y-14411088D01*
X12277295Y-14411088D02*
X12267771Y-14401565D01*
X12267771Y-14401565D02*
X12258247Y-14382517D01*
X12258247Y-14382517D02*
X12248723Y-14344422D01*
X12248723Y-14344422D02*
X12248723Y-14296803D01*
X12248723Y-14296803D02*
X12258247Y-14258707D01*
X12258247Y-14258707D02*
X12267771Y-14239660D01*
X12267771Y-14239660D02*
X12277295Y-14230136D01*
X12277295Y-14230136D02*
X12296342Y-14220612D01*
X12448723Y-14420612D02*
X12448723Y-14287279D01*
X12448723Y-14306326D02*
X12458247Y-14296803D01*
X12458247Y-14296803D02*
X12477295Y-14287279D01*
X12477295Y-14287279D02*
X12505866Y-14287279D01*
X12505866Y-14287279D02*
X12524914Y-14296803D01*
X12524914Y-14296803D02*
X12534438Y-14315850D01*
X12534438Y-14315850D02*
X12534438Y-14420612D01*
X12534438Y-14315850D02*
X12543962Y-14296803D01*
X12543962Y-14296803D02*
X12563009Y-14287279D01*
X12563009Y-14287279D02*
X12591581Y-14287279D01*
X12591581Y-14287279D02*
X12610628Y-14296803D01*
X12610628Y-14296803D02*
X12620152Y-14315850D01*
X12620152Y-14315850D02*
X12620152Y-14420612D01*
X12715390Y-14420612D02*
X12715390Y-14287279D01*
X12715390Y-14306326D02*
X12724914Y-14296803D01*
X12724914Y-14296803D02*
X12743962Y-14287279D01*
X12743962Y-14287279D02*
X12772533Y-14287279D01*
X12772533Y-14287279D02*
X12791581Y-14296803D01*
X12791581Y-14296803D02*
X12801104Y-14315850D01*
X12801104Y-14315850D02*
X12801104Y-14420612D01*
X12801104Y-14315850D02*
X12810628Y-14296803D01*
X12810628Y-14296803D02*
X12829676Y-14287279D01*
X12829676Y-14287279D02*
X12858247Y-14287279D01*
X12858247Y-14287279D02*
X12877295Y-14296803D01*
X12877295Y-14296803D02*
X12886819Y-14315850D01*
X12886819Y-14315850D02*
X12886819Y-14420612D01*
X13277295Y-14211088D02*
X13105866Y-14468231D01*
X13534438Y-14220612D02*
X13553486Y-14220612D01*
X13553486Y-14220612D02*
X13572533Y-14230136D01*
X13572533Y-14230136D02*
X13582057Y-14239660D01*
X13582057Y-14239660D02*
X13591581Y-14258707D01*
X13591581Y-14258707D02*
X13601105Y-14296803D01*
X13601105Y-14296803D02*
X13601105Y-14344422D01*
X13601105Y-14344422D02*
X13591581Y-14382517D01*
X13591581Y-14382517D02*
X13582057Y-14401565D01*
X13582057Y-14401565D02*
X13572533Y-14411088D01*
X13572533Y-14411088D02*
X13553486Y-14420612D01*
X13553486Y-14420612D02*
X13534438Y-14420612D01*
X13534438Y-14420612D02*
X13515390Y-14411088D01*
X13515390Y-14411088D02*
X13505866Y-14401565D01*
X13505866Y-14401565D02*
X13496343Y-14382517D01*
X13496343Y-14382517D02*
X13486819Y-14344422D01*
X13486819Y-14344422D02*
X13486819Y-14296803D01*
X13486819Y-14296803D02*
X13496343Y-14258707D01*
X13496343Y-14258707D02*
X13505866Y-14239660D01*
X13505866Y-14239660D02*
X13515390Y-14230136D01*
X13515390Y-14230136D02*
X13534438Y-14220612D01*
X13686819Y-14401565D02*
X13696343Y-14411088D01*
X13696343Y-14411088D02*
X13686819Y-14420612D01*
X13686819Y-14420612D02*
X13677295Y-14411088D01*
X13677295Y-14411088D02*
X13686819Y-14401565D01*
X13686819Y-14401565D02*
X13686819Y-14420612D01*
X13820152Y-14220612D02*
X13839200Y-14220612D01*
X13839200Y-14220612D02*
X13858247Y-14230136D01*
X13858247Y-14230136D02*
X13867771Y-14239660D01*
X13867771Y-14239660D02*
X13877295Y-14258707D01*
X13877295Y-14258707D02*
X13886819Y-14296803D01*
X13886819Y-14296803D02*
X13886819Y-14344422D01*
X13886819Y-14344422D02*
X13877295Y-14382517D01*
X13877295Y-14382517D02*
X13867771Y-14401565D01*
X13867771Y-14401565D02*
X13858247Y-14411088D01*
X13858247Y-14411088D02*
X13839200Y-14420612D01*
X13839200Y-14420612D02*
X13820152Y-14420612D01*
X13820152Y-14420612D02*
X13801105Y-14411088D01*
X13801105Y-14411088D02*
X13791581Y-14401565D01*
X13791581Y-14401565D02*
X13782057Y-14382517D01*
X13782057Y-14382517D02*
X13772533Y-14344422D01*
X13772533Y-14344422D02*
X13772533Y-14296803D01*
X13772533Y-14296803D02*
X13782057Y-14258707D01*
X13782057Y-14258707D02*
X13791581Y-14239660D01*
X13791581Y-14239660D02*
X13801105Y-14230136D01*
X13801105Y-14230136D02*
X13820152Y-14220612D01*
X13953486Y-14220612D02*
X14077295Y-14220612D01*
X14077295Y-14220612D02*
X14010628Y-14296803D01*
X14010628Y-14296803D02*
X14039200Y-14296803D01*
X14039200Y-14296803D02*
X14058247Y-14306326D01*
X14058247Y-14306326D02*
X14067771Y-14315850D01*
X14067771Y-14315850D02*
X14077295Y-14334898D01*
X14077295Y-14334898D02*
X14077295Y-14382517D01*
X14077295Y-14382517D02*
X14067771Y-14401565D01*
X14067771Y-14401565D02*
X14058247Y-14411088D01*
X14058247Y-14411088D02*
X14039200Y-14420612D01*
X14039200Y-14420612D02*
X13982057Y-14420612D01*
X13982057Y-14420612D02*
X13963009Y-14411088D01*
X13963009Y-14411088D02*
X13953486Y-14401565D01*
X14172533Y-14420612D02*
X14210628Y-14420612D01*
X14210628Y-14420612D02*
X14229676Y-14411088D01*
X14229676Y-14411088D02*
X14239200Y-14401565D01*
X14239200Y-14401565D02*
X14258247Y-14372993D01*
X14258247Y-14372993D02*
X14267771Y-14334898D01*
X14267771Y-14334898D02*
X14267771Y-14258707D01*
X14267771Y-14258707D02*
X14258247Y-14239660D01*
X14258247Y-14239660D02*
X14248724Y-14230136D01*
X14248724Y-14230136D02*
X14229676Y-14220612D01*
X14229676Y-14220612D02*
X14191581Y-14220612D01*
X14191581Y-14220612D02*
X14172533Y-14230136D01*
X14172533Y-14230136D02*
X14163009Y-14239660D01*
X14163009Y-14239660D02*
X14153486Y-14258707D01*
X14153486Y-14258707D02*
X14153486Y-14306326D01*
X14153486Y-14306326D02*
X14163009Y-14325374D01*
X14163009Y-14325374D02*
X14172533Y-14334898D01*
X14172533Y-14334898D02*
X14191581Y-14344422D01*
X14191581Y-14344422D02*
X14229676Y-14344422D01*
X14229676Y-14344422D02*
X14248724Y-14334898D01*
X14248724Y-14334898D02*
X14258247Y-14325374D01*
X14258247Y-14325374D02*
X14267771Y-14306326D01*
X14439200Y-14287279D02*
X14439200Y-14420612D01*
X14391581Y-14211088D02*
X14343962Y-14353946D01*
X14343962Y-14353946D02*
X14467771Y-14353946D01*
X14534438Y-14220612D02*
X14534438Y-14258707D01*
X14610628Y-14220612D02*
X14610628Y-14258707D01*
X14905867Y-14496803D02*
X14896343Y-14487279D01*
X14896343Y-14487279D02*
X14877295Y-14458707D01*
X14877295Y-14458707D02*
X14867771Y-14439660D01*
X14867771Y-14439660D02*
X14858248Y-14411088D01*
X14858248Y-14411088D02*
X14848724Y-14363469D01*
X14848724Y-14363469D02*
X14848724Y-14325374D01*
X14848724Y-14325374D02*
X14858248Y-14277755D01*
X14858248Y-14277755D02*
X14867771Y-14249184D01*
X14867771Y-14249184D02*
X14877295Y-14230136D01*
X14877295Y-14230136D02*
X14896343Y-14201565D01*
X14896343Y-14201565D02*
X14905867Y-14192041D01*
X14972533Y-14239660D02*
X14982057Y-14230136D01*
X14982057Y-14230136D02*
X15001105Y-14220612D01*
X15001105Y-14220612D02*
X15048724Y-14220612D01*
X15048724Y-14220612D02*
X15067771Y-14230136D01*
X15067771Y-14230136D02*
X15077295Y-14239660D01*
X15077295Y-14239660D02*
X15086819Y-14258707D01*
X15086819Y-14258707D02*
X15086819Y-14277755D01*
X15086819Y-14277755D02*
X15077295Y-14306326D01*
X15077295Y-14306326D02*
X14963009Y-14420612D01*
X14963009Y-14420612D02*
X15086819Y-14420612D01*
X15324914Y-14420612D02*
X15324914Y-14220612D01*
X15410629Y-14420612D02*
X15410629Y-14315850D01*
X15410629Y-14315850D02*
X15401105Y-14296803D01*
X15401105Y-14296803D02*
X15382057Y-14287279D01*
X15382057Y-14287279D02*
X15353486Y-14287279D01*
X15353486Y-14287279D02*
X15334438Y-14296803D01*
X15334438Y-14296803D02*
X15324914Y-14306326D01*
X15534438Y-14420612D02*
X15515390Y-14411088D01*
X15515390Y-14411088D02*
X15505867Y-14401565D01*
X15505867Y-14401565D02*
X15496343Y-14382517D01*
X15496343Y-14382517D02*
X15496343Y-14325374D01*
X15496343Y-14325374D02*
X15505867Y-14306326D01*
X15505867Y-14306326D02*
X15515390Y-14296803D01*
X15515390Y-14296803D02*
X15534438Y-14287279D01*
X15534438Y-14287279D02*
X15563010Y-14287279D01*
X15563010Y-14287279D02*
X15582057Y-14296803D01*
X15582057Y-14296803D02*
X15591581Y-14306326D01*
X15591581Y-14306326D02*
X15601105Y-14325374D01*
X15601105Y-14325374D02*
X15601105Y-14382517D01*
X15601105Y-14382517D02*
X15591581Y-14401565D01*
X15591581Y-14401565D02*
X15582057Y-14411088D01*
X15582057Y-14411088D02*
X15563010Y-14420612D01*
X15563010Y-14420612D02*
X15534438Y-14420612D01*
X15715390Y-14420612D02*
X15696343Y-14411088D01*
X15696343Y-14411088D02*
X15686819Y-14392041D01*
X15686819Y-14392041D02*
X15686819Y-14220612D01*
X15867771Y-14411088D02*
X15848724Y-14420612D01*
X15848724Y-14420612D02*
X15810629Y-14420612D01*
X15810629Y-14420612D02*
X15791581Y-14411088D01*
X15791581Y-14411088D02*
X15782057Y-14392041D01*
X15782057Y-14392041D02*
X15782057Y-14315850D01*
X15782057Y-14315850D02*
X15791581Y-14296803D01*
X15791581Y-14296803D02*
X15810629Y-14287279D01*
X15810629Y-14287279D02*
X15848724Y-14287279D01*
X15848724Y-14287279D02*
X15867771Y-14296803D01*
X15867771Y-14296803D02*
X15877295Y-14315850D01*
X15877295Y-14315850D02*
X15877295Y-14334898D01*
X15877295Y-14334898D02*
X15782057Y-14353946D01*
X15953486Y-14411088D02*
X15972533Y-14420612D01*
X15972533Y-14420612D02*
X16010629Y-14420612D01*
X16010629Y-14420612D02*
X16029676Y-14411088D01*
X16029676Y-14411088D02*
X16039200Y-14392041D01*
X16039200Y-14392041D02*
X16039200Y-14382517D01*
X16039200Y-14382517D02*
X16029676Y-14363469D01*
X16029676Y-14363469D02*
X16010629Y-14353946D01*
X16010629Y-14353946D02*
X15982057Y-14353946D01*
X15982057Y-14353946D02*
X15963010Y-14344422D01*
X15963010Y-14344422D02*
X15953486Y-14325374D01*
X15953486Y-14325374D02*
X15953486Y-14315850D01*
X15953486Y-14315850D02*
X15963010Y-14296803D01*
X15963010Y-14296803D02*
X15982057Y-14287279D01*
X15982057Y-14287279D02*
X16010629Y-14287279D01*
X16010629Y-14287279D02*
X16029676Y-14296803D01*
X16105867Y-14496803D02*
X16115391Y-14487279D01*
X16115391Y-14487279D02*
X16134438Y-14458707D01*
X16134438Y-14458707D02*
X16143962Y-14439660D01*
X16143962Y-14439660D02*
X16153486Y-14411088D01*
X16153486Y-14411088D02*
X16163010Y-14363469D01*
X16163010Y-14363469D02*
X16163010Y-14325374D01*
X16163010Y-14325374D02*
X16153486Y-14277755D01*
X16153486Y-14277755D02*
X16143962Y-14249184D01*
X16143962Y-14249184D02*
X16134438Y-14230136D01*
X16134438Y-14230136D02*
X16115391Y-14201565D01*
X16115391Y-14201565D02*
X16105867Y-14192041D01*
M02*
