G04 #@! TF.GenerationSoftware,KiCad,Pcbnew,9.0.3*
G04 #@! TF.CreationDate,2025-07-16T19:29:37+02:00*
G04 #@! TF.ProjectId,GameboyCartridgeV2.1,47616d65-626f-4794-9361-727472696467,rev?*
G04 #@! TF.SameCoordinates,Original*
G04 #@! TF.FileFunction,Legend,Top*
G04 #@! TF.FilePolarity,Positive*
%FSLAX46Y46*%
G04 Gerber Fmt 4.6, Leading zero omitted, Abs format (unit mm)*
G04 Created by KiCad (PCBNEW 9.0.3) date 2025-07-16 19:29:37*
%MOMM*%
%LPD*%
G01*
G04 APERTURE LIST*
G04 Aperture macros list*
%AMRoundRect*
0 Rectangle with rounded corners*
0 $1 Rounding radius*
0 $2 $3 $4 $5 $6 $7 $8 $9 X,Y pos of 4 corners*
0 Add a 4 corners polygon primitive as box body*
4,1,4,$2,$3,$4,$5,$6,$7,$8,$9,$2,$3,0*
0 Add four circle primitives for the rounded corners*
1,1,$1+$1,$2,$3*
1,1,$1+$1,$4,$5*
1,1,$1+$1,$6,$7*
1,1,$1+$1,$8,$9*
0 Add four rect primitives between the rounded corners*
20,1,$1+$1,$2,$3,$4,$5,0*
20,1,$1+$1,$4,$5,$6,$7,0*
20,1,$1+$1,$6,$7,$8,$9,0*
20,1,$1+$1,$8,$9,$2,$3,0*%
%AMFreePoly0*
4,1,23,0.500000,-0.750000,0.000000,-0.750000,0.000000,-0.745722,-0.065263,-0.745722,-0.191342,-0.711940,-0.304381,-0.646677,-0.396677,-0.554381,-0.461940,-0.441342,-0.495722,-0.315263,-0.495722,-0.250000,-0.500000,-0.250000,-0.500000,0.250000,-0.495722,0.250000,-0.495722,0.315263,-0.461940,0.441342,-0.396677,0.554381,-0.304381,0.646677,-0.191342,0.711940,-0.065263,0.745722,0.000000,0.745722,
0.000000,0.750000,0.500000,0.750000,0.500000,-0.750000,0.500000,-0.750000,$1*%
%AMFreePoly1*
4,1,23,0.000000,0.745722,0.065263,0.745722,0.191342,0.711940,0.304381,0.646677,0.396677,0.554381,0.461940,0.441342,0.495722,0.315263,0.495722,0.250000,0.500000,0.250000,0.500000,-0.250000,0.495722,-0.250000,0.495722,-0.315263,0.461940,-0.441342,0.396677,-0.554381,0.304381,-0.646677,0.191342,-0.711940,0.065263,-0.745722,0.000000,-0.745722,0.000000,-0.750000,-0.500000,-0.750000,
-0.500000,0.750000,0.000000,0.750000,0.000000,0.745722,0.000000,0.745722,$1*%
G04 Aperture macros list end*
%ADD10C,0.150000*%
%ADD11C,0.100000*%
%ADD12C,0.120000*%
%ADD13C,0.127000*%
%ADD14C,0.200000*%
%ADD15C,0.191421*%
%ADD16C,0.350000*%
%ADD17C,0.000000*%
%ADD18C,0.010000*%
%ADD19RoundRect,0.140000X0.140000X0.170000X-0.140000X0.170000X-0.140000X-0.170000X0.140000X-0.170000X0*%
%ADD20RoundRect,0.200000X-0.275000X0.200000X-0.275000X-0.200000X0.275000X-0.200000X0.275000X0.200000X0*%
%ADD21RoundRect,0.225000X0.250000X-0.225000X0.250000X0.225000X-0.250000X0.225000X-0.250000X-0.225000X0*%
%ADD22R,1.100000X0.600000*%
%ADD23RoundRect,0.200000X-0.200000X-0.275000X0.200000X-0.275000X0.200000X0.275000X-0.200000X0.275000X0*%
%ADD24RoundRect,0.200000X0.275000X-0.200000X0.275000X0.200000X-0.275000X0.200000X-0.275000X-0.200000X0*%
%ADD25RoundRect,0.135000X-0.185000X0.135000X-0.185000X-0.135000X0.185000X-0.135000X0.185000X0.135000X0*%
%ADD26C,7.200000*%
%ADD27R,1.050000X0.650000*%
%ADD28RoundRect,0.150000X-0.512500X-0.150000X0.512500X-0.150000X0.512500X0.150000X-0.512500X0.150000X0*%
%ADD29RoundRect,0.140000X-0.140000X-0.170000X0.140000X-0.170000X0.140000X0.170000X-0.140000X0.170000X0*%
%ADD30RoundRect,0.200000X0.200000X0.275000X-0.200000X0.275000X-0.200000X-0.275000X0.200000X-0.275000X0*%
%ADD31C,0.990600*%
%ADD32C,0.787400*%
%ADD33C,0.410000*%
%ADD34R,0.700000X1.700000*%
%ADD35RoundRect,0.225000X-0.250000X0.225000X-0.250000X-0.225000X0.250000X-0.225000X0.250000X0.225000X0*%
%ADD36R,0.470000X0.530000*%
%ADD37RoundRect,0.140000X0.170000X-0.140000X0.170000X0.140000X-0.170000X0.140000X-0.170000X-0.140000X0*%
%ADD38RoundRect,0.225000X-0.225000X-0.250000X0.225000X-0.250000X0.225000X0.250000X-0.225000X0.250000X0*%
%ADD39RoundRect,0.140000X-0.170000X0.140000X-0.170000X-0.140000X0.170000X-0.140000X0.170000X0.140000X0*%
%ADD40RoundRect,0.250000X-0.500000X-0.750000X0.500000X-0.750000X0.500000X0.750000X-0.500000X0.750000X0*%
%ADD41RoundRect,0.250000X0.300000X0.300000X-0.300000X0.300000X-0.300000X-0.300000X0.300000X-0.300000X0*%
%ADD42RoundRect,0.093750X0.093750X-0.156250X0.093750X0.156250X-0.093750X0.156250X-0.093750X-0.156250X0*%
%ADD43RoundRect,0.075000X0.075000X-0.250000X0.075000X0.250000X-0.075000X0.250000X-0.075000X-0.250000X0*%
%ADD44RoundRect,0.250000X0.625000X-0.375000X0.625000X0.375000X-0.625000X0.375000X-0.625000X-0.375000X0*%
%ADD45RoundRect,0.225000X0.225000X0.250000X-0.225000X0.250000X-0.225000X-0.250000X0.225000X-0.250000X0*%
%ADD46RoundRect,0.150000X-0.150000X0.587500X-0.150000X-0.587500X0.150000X-0.587500X0.150000X0.587500X0*%
%ADD47R,0.700000X1.750000*%
%ADD48R,1.450000X1.000000*%
%ADD49R,1.000000X1.550000*%
%ADD50R,0.800000X1.500000*%
%ADD51R,1.300000X1.500000*%
%ADD52R,1.500000X1.500000*%
%ADD53R,0.800000X1.400000*%
%ADD54FreePoly0,0.000000*%
%ADD55FreePoly1,0.000000*%
%ADD56R,1.500000X0.900000*%
%ADD57RoundRect,0.100000X-0.100000X0.637500X-0.100000X-0.637500X0.100000X-0.637500X0.100000X0.637500X0*%
%ADD58R,1.400000X1.200000*%
%ADD59R,1.700000X1.700000*%
%ADD60O,1.700000X1.700000*%
%ADD61R,3.300000X3.500000*%
%ADD62C,10.200000*%
%ADD63RoundRect,0.150000X-0.650000X-0.150000X0.650000X-0.150000X0.650000X0.150000X-0.650000X0.150000X0*%
%ADD64C,0.650000*%
%ADD65RoundRect,0.150000X0.150000X0.425000X-0.150000X0.425000X-0.150000X-0.425000X0.150000X-0.425000X0*%
%ADD66RoundRect,0.075000X0.075000X0.500000X-0.075000X0.500000X-0.075000X-0.500000X0.075000X-0.500000X0*%
%ADD67O,1.000000X2.100000*%
%ADD68O,1.000000X1.800000*%
%ADD69C,0.800000*%
%ADD70RoundRect,0.087500X-0.725000X-0.087500X0.725000X-0.087500X0.725000X0.087500X-0.725000X0.087500X0*%
%ADD71RoundRect,0.055000X0.335000X-0.055000X0.335000X0.055000X-0.335000X0.055000X-0.335000X-0.055000X0*%
%ADD72RoundRect,0.055000X-0.055000X-0.335000X0.055000X-0.335000X0.055000X0.335000X-0.055000X0.335000X0*%
%ADD73C,0.600000*%
%ADD74R,1.133333X1.133333*%
G04 APERTURE END LIST*
D10*
X122384398Y-115061628D02*
X122355826Y-115090200D01*
X122355826Y-115090200D02*
X122270112Y-115118771D01*
X122270112Y-115118771D02*
X122212969Y-115118771D01*
X122212969Y-115118771D02*
X122127255Y-115090200D01*
X122127255Y-115090200D02*
X122070112Y-115033057D01*
X122070112Y-115033057D02*
X122041541Y-114975914D01*
X122041541Y-114975914D02*
X122012969Y-114861628D01*
X122012969Y-114861628D02*
X122012969Y-114775914D01*
X122012969Y-114775914D02*
X122041541Y-114661628D01*
X122041541Y-114661628D02*
X122070112Y-114604485D01*
X122070112Y-114604485D02*
X122127255Y-114547342D01*
X122127255Y-114547342D02*
X122212969Y-114518771D01*
X122212969Y-114518771D02*
X122270112Y-114518771D01*
X122270112Y-114518771D02*
X122355826Y-114547342D01*
X122355826Y-114547342D02*
X122384398Y-114575914D01*
X122612969Y-115090200D02*
X122698684Y-115118771D01*
X122698684Y-115118771D02*
X122841541Y-115118771D01*
X122841541Y-115118771D02*
X122898684Y-115090200D01*
X122898684Y-115090200D02*
X122927255Y-115061628D01*
X122927255Y-115061628D02*
X122955826Y-115004485D01*
X122955826Y-115004485D02*
X122955826Y-114947342D01*
X122955826Y-114947342D02*
X122927255Y-114890200D01*
X122927255Y-114890200D02*
X122898684Y-114861628D01*
X122898684Y-114861628D02*
X122841541Y-114833057D01*
X122841541Y-114833057D02*
X122727255Y-114804485D01*
X122727255Y-114804485D02*
X122670112Y-114775914D01*
X122670112Y-114775914D02*
X122641541Y-114747342D01*
X122641541Y-114747342D02*
X122612969Y-114690200D01*
X122612969Y-114690200D02*
X122612969Y-114633057D01*
X122612969Y-114633057D02*
X122641541Y-114575914D01*
X122641541Y-114575914D02*
X122670112Y-114547342D01*
X122670112Y-114547342D02*
X122727255Y-114518771D01*
X122727255Y-114518771D02*
X122870112Y-114518771D01*
X122870112Y-114518771D02*
X122955826Y-114547342D01*
X117684398Y-115061628D02*
X117655826Y-115090200D01*
X117655826Y-115090200D02*
X117570112Y-115118771D01*
X117570112Y-115118771D02*
X117512969Y-115118771D01*
X117512969Y-115118771D02*
X117427255Y-115090200D01*
X117427255Y-115090200D02*
X117370112Y-115033057D01*
X117370112Y-115033057D02*
X117341541Y-114975914D01*
X117341541Y-114975914D02*
X117312969Y-114861628D01*
X117312969Y-114861628D02*
X117312969Y-114775914D01*
X117312969Y-114775914D02*
X117341541Y-114661628D01*
X117341541Y-114661628D02*
X117370112Y-114604485D01*
X117370112Y-114604485D02*
X117427255Y-114547342D01*
X117427255Y-114547342D02*
X117512969Y-114518771D01*
X117512969Y-114518771D02*
X117570112Y-114518771D01*
X117570112Y-114518771D02*
X117655826Y-114547342D01*
X117655826Y-114547342D02*
X117684398Y-114575914D01*
X118227255Y-115118771D02*
X117941541Y-115118771D01*
X117941541Y-115118771D02*
X117941541Y-114518771D01*
X118427255Y-115118771D02*
X118427255Y-114518771D01*
X118770112Y-115118771D02*
X118512969Y-114775914D01*
X118770112Y-114518771D02*
X118427255Y-114861628D01*
X120984398Y-115118771D02*
X120784398Y-114833057D01*
X120641541Y-115118771D02*
X120641541Y-114518771D01*
X120641541Y-114518771D02*
X120870112Y-114518771D01*
X120870112Y-114518771D02*
X120927255Y-114547342D01*
X120927255Y-114547342D02*
X120955826Y-114575914D01*
X120955826Y-114575914D02*
X120984398Y-114633057D01*
X120984398Y-114633057D02*
X120984398Y-114718771D01*
X120984398Y-114718771D02*
X120955826Y-114775914D01*
X120955826Y-114775914D02*
X120927255Y-114804485D01*
X120927255Y-114804485D02*
X120870112Y-114833057D01*
X120870112Y-114833057D02*
X120641541Y-114833057D01*
X121241541Y-115118771D02*
X121241541Y-114518771D01*
X121241541Y-114518771D02*
X121384398Y-114518771D01*
X121384398Y-114518771D02*
X121470112Y-114547342D01*
X121470112Y-114547342D02*
X121527255Y-114604485D01*
X121527255Y-114604485D02*
X121555826Y-114661628D01*
X121555826Y-114661628D02*
X121584398Y-114775914D01*
X121584398Y-114775914D02*
X121584398Y-114861628D01*
X121584398Y-114861628D02*
X121555826Y-114975914D01*
X121555826Y-114975914D02*
X121527255Y-115033057D01*
X121527255Y-115033057D02*
X121470112Y-115090200D01*
X121470112Y-115090200D02*
X121384398Y-115118771D01*
X121384398Y-115118771D02*
X121241541Y-115118771D01*
X135612969Y-114947342D02*
X135898684Y-114947342D01*
X135555826Y-115118771D02*
X135755826Y-114518771D01*
X135755826Y-114518771D02*
X135955826Y-115118771D01*
X136241541Y-114775914D02*
X136184398Y-114747342D01*
X136184398Y-114747342D02*
X136155827Y-114718771D01*
X136155827Y-114718771D02*
X136127255Y-114661628D01*
X136127255Y-114661628D02*
X136127255Y-114633057D01*
X136127255Y-114633057D02*
X136155827Y-114575914D01*
X136155827Y-114575914D02*
X136184398Y-114547342D01*
X136184398Y-114547342D02*
X136241541Y-114518771D01*
X136241541Y-114518771D02*
X136355827Y-114518771D01*
X136355827Y-114518771D02*
X136412970Y-114547342D01*
X136412970Y-114547342D02*
X136441541Y-114575914D01*
X136441541Y-114575914D02*
X136470112Y-114633057D01*
X136470112Y-114633057D02*
X136470112Y-114661628D01*
X136470112Y-114661628D02*
X136441541Y-114718771D01*
X136441541Y-114718771D02*
X136412970Y-114747342D01*
X136412970Y-114747342D02*
X136355827Y-114775914D01*
X136355827Y-114775914D02*
X136241541Y-114775914D01*
X136241541Y-114775914D02*
X136184398Y-114804485D01*
X136184398Y-114804485D02*
X136155827Y-114833057D01*
X136155827Y-114833057D02*
X136127255Y-114890200D01*
X136127255Y-114890200D02*
X136127255Y-115004485D01*
X136127255Y-115004485D02*
X136155827Y-115061628D01*
X136155827Y-115061628D02*
X136184398Y-115090200D01*
X136184398Y-115090200D02*
X136241541Y-115118771D01*
X136241541Y-115118771D02*
X136355827Y-115118771D01*
X136355827Y-115118771D02*
X136412970Y-115090200D01*
X136412970Y-115090200D02*
X136441541Y-115061628D01*
X136441541Y-115061628D02*
X136470112Y-115004485D01*
X136470112Y-115004485D02*
X136470112Y-114890200D01*
X136470112Y-114890200D02*
X136441541Y-114833057D01*
X136441541Y-114833057D02*
X136412970Y-114804485D01*
X136412970Y-114804485D02*
X136355827Y-114775914D01*
X147641541Y-115118771D02*
X147641541Y-114518771D01*
X147641541Y-114518771D02*
X147784398Y-114518771D01*
X147784398Y-114518771D02*
X147870112Y-114547342D01*
X147870112Y-114547342D02*
X147927255Y-114604485D01*
X147927255Y-114604485D02*
X147955826Y-114661628D01*
X147955826Y-114661628D02*
X147984398Y-114775914D01*
X147984398Y-114775914D02*
X147984398Y-114861628D01*
X147984398Y-114861628D02*
X147955826Y-114975914D01*
X147955826Y-114975914D02*
X147927255Y-115033057D01*
X147927255Y-115033057D02*
X147870112Y-115090200D01*
X147870112Y-115090200D02*
X147784398Y-115118771D01*
X147784398Y-115118771D02*
X147641541Y-115118771D01*
X148355826Y-114518771D02*
X148412969Y-114518771D01*
X148412969Y-114518771D02*
X148470112Y-114547342D01*
X148470112Y-114547342D02*
X148498684Y-114575914D01*
X148498684Y-114575914D02*
X148527255Y-114633057D01*
X148527255Y-114633057D02*
X148555826Y-114747342D01*
X148555826Y-114747342D02*
X148555826Y-114890200D01*
X148555826Y-114890200D02*
X148527255Y-115004485D01*
X148527255Y-115004485D02*
X148498684Y-115061628D01*
X148498684Y-115061628D02*
X148470112Y-115090200D01*
X148470112Y-115090200D02*
X148412969Y-115118771D01*
X148412969Y-115118771D02*
X148355826Y-115118771D01*
X148355826Y-115118771D02*
X148298684Y-115090200D01*
X148298684Y-115090200D02*
X148270112Y-115061628D01*
X148270112Y-115061628D02*
X148241541Y-115004485D01*
X148241541Y-115004485D02*
X148212969Y-114890200D01*
X148212969Y-114890200D02*
X148212969Y-114747342D01*
X148212969Y-114747342D02*
X148241541Y-114633057D01*
X148241541Y-114633057D02*
X148270112Y-114575914D01*
X148270112Y-114575914D02*
X148298684Y-114547342D01*
X148298684Y-114547342D02*
X148355826Y-114518771D01*
X145812969Y-114947342D02*
X146098684Y-114947342D01*
X145755826Y-115118771D02*
X145955826Y-114518771D01*
X145955826Y-114518771D02*
X146155826Y-115118771D01*
X146670112Y-115118771D02*
X146327255Y-115118771D01*
X146498684Y-115118771D02*
X146498684Y-114518771D01*
X146498684Y-114518771D02*
X146441541Y-114604485D01*
X146441541Y-114604485D02*
X146384398Y-114661628D01*
X146384398Y-114661628D02*
X146327255Y-114690200D01*
X147212970Y-114518771D02*
X146927256Y-114518771D01*
X146927256Y-114518771D02*
X146898684Y-114804485D01*
X146898684Y-114804485D02*
X146927256Y-114775914D01*
X146927256Y-114775914D02*
X146984399Y-114747342D01*
X146984399Y-114747342D02*
X147127256Y-114747342D01*
X147127256Y-114747342D02*
X147184399Y-114775914D01*
X147184399Y-114775914D02*
X147212970Y-114804485D01*
X147212970Y-114804485D02*
X147241541Y-114861628D01*
X147241541Y-114861628D02*
X147241541Y-115004485D01*
X147241541Y-115004485D02*
X147212970Y-115061628D01*
X147212970Y-115061628D02*
X147184399Y-115090200D01*
X147184399Y-115090200D02*
X147127256Y-115118771D01*
X147127256Y-115118771D02*
X146984399Y-115118771D01*
X146984399Y-115118771D02*
X146927256Y-115090200D01*
X146927256Y-115090200D02*
X146898684Y-115061628D01*
X123612969Y-114947342D02*
X123898684Y-114947342D01*
X123555826Y-115118771D02*
X123755826Y-114518771D01*
X123755826Y-114518771D02*
X123955826Y-115118771D01*
X124270112Y-114518771D02*
X124327255Y-114518771D01*
X124327255Y-114518771D02*
X124384398Y-114547342D01*
X124384398Y-114547342D02*
X124412970Y-114575914D01*
X124412970Y-114575914D02*
X124441541Y-114633057D01*
X124441541Y-114633057D02*
X124470112Y-114747342D01*
X124470112Y-114747342D02*
X124470112Y-114890200D01*
X124470112Y-114890200D02*
X124441541Y-115004485D01*
X124441541Y-115004485D02*
X124412970Y-115061628D01*
X124412970Y-115061628D02*
X124384398Y-115090200D01*
X124384398Y-115090200D02*
X124327255Y-115118771D01*
X124327255Y-115118771D02*
X124270112Y-115118771D01*
X124270112Y-115118771D02*
X124212970Y-115090200D01*
X124212970Y-115090200D02*
X124184398Y-115061628D01*
X124184398Y-115061628D02*
X124155827Y-115004485D01*
X124155827Y-115004485D02*
X124127255Y-114890200D01*
X124127255Y-114890200D02*
X124127255Y-114747342D01*
X124127255Y-114747342D02*
X124155827Y-114633057D01*
X124155827Y-114633057D02*
X124184398Y-114575914D01*
X124184398Y-114575914D02*
X124212970Y-114547342D01*
X124212970Y-114547342D02*
X124270112Y-114518771D01*
X158141541Y-115118771D02*
X158141541Y-114518771D01*
X158141541Y-114518771D02*
X158284398Y-114518771D01*
X158284398Y-114518771D02*
X158370112Y-114547342D01*
X158370112Y-114547342D02*
X158427255Y-114604485D01*
X158427255Y-114604485D02*
X158455826Y-114661628D01*
X158455826Y-114661628D02*
X158484398Y-114775914D01*
X158484398Y-114775914D02*
X158484398Y-114861628D01*
X158484398Y-114861628D02*
X158455826Y-114975914D01*
X158455826Y-114975914D02*
X158427255Y-115033057D01*
X158427255Y-115033057D02*
X158370112Y-115090200D01*
X158370112Y-115090200D02*
X158284398Y-115118771D01*
X158284398Y-115118771D02*
X158141541Y-115118771D01*
X158684398Y-114518771D02*
X159084398Y-114518771D01*
X159084398Y-114518771D02*
X158827255Y-115118771D01*
X135233333Y-90959580D02*
X135185714Y-91007200D01*
X135185714Y-91007200D02*
X135042857Y-91054819D01*
X135042857Y-91054819D02*
X134947619Y-91054819D01*
X134947619Y-91054819D02*
X134804762Y-91007200D01*
X134804762Y-91007200D02*
X134709524Y-90911961D01*
X134709524Y-90911961D02*
X134661905Y-90816723D01*
X134661905Y-90816723D02*
X134614286Y-90626247D01*
X134614286Y-90626247D02*
X134614286Y-90483390D01*
X134614286Y-90483390D02*
X134661905Y-90292914D01*
X134661905Y-90292914D02*
X134709524Y-90197676D01*
X134709524Y-90197676D02*
X134804762Y-90102438D01*
X134804762Y-90102438D02*
X134947619Y-90054819D01*
X134947619Y-90054819D02*
X135042857Y-90054819D01*
X135042857Y-90054819D02*
X135185714Y-90102438D01*
X135185714Y-90102438D02*
X135233333Y-90150057D01*
X135566667Y-90054819D02*
X136233333Y-90054819D01*
X136233333Y-90054819D02*
X135804762Y-91054819D01*
X159694819Y-72606666D02*
X159218628Y-72939999D01*
X159694819Y-73178094D02*
X158694819Y-73178094D01*
X158694819Y-73178094D02*
X158694819Y-72797142D01*
X158694819Y-72797142D02*
X158742438Y-72701904D01*
X158742438Y-72701904D02*
X158790057Y-72654285D01*
X158790057Y-72654285D02*
X158885295Y-72606666D01*
X158885295Y-72606666D02*
X159028152Y-72606666D01*
X159028152Y-72606666D02*
X159123390Y-72654285D01*
X159123390Y-72654285D02*
X159171009Y-72701904D01*
X159171009Y-72701904D02*
X159218628Y-72797142D01*
X159218628Y-72797142D02*
X159218628Y-73178094D01*
X158694819Y-71701904D02*
X158694819Y-72178094D01*
X158694819Y-72178094D02*
X159171009Y-72225713D01*
X159171009Y-72225713D02*
X159123390Y-72178094D01*
X159123390Y-72178094D02*
X159075771Y-72082856D01*
X159075771Y-72082856D02*
X159075771Y-71844761D01*
X159075771Y-71844761D02*
X159123390Y-71749523D01*
X159123390Y-71749523D02*
X159171009Y-71701904D01*
X159171009Y-71701904D02*
X159266247Y-71654285D01*
X159266247Y-71654285D02*
X159504342Y-71654285D01*
X159504342Y-71654285D02*
X159599580Y-71701904D01*
X159599580Y-71701904D02*
X159647200Y-71749523D01*
X159647200Y-71749523D02*
X159694819Y-71844761D01*
X159694819Y-71844761D02*
X159694819Y-72082856D01*
X159694819Y-72082856D02*
X159647200Y-72178094D01*
X159647200Y-72178094D02*
X159599580Y-72225713D01*
X159259580Y-113242857D02*
X159307200Y-113290476D01*
X159307200Y-113290476D02*
X159354819Y-113433333D01*
X159354819Y-113433333D02*
X159354819Y-113528571D01*
X159354819Y-113528571D02*
X159307200Y-113671428D01*
X159307200Y-113671428D02*
X159211961Y-113766666D01*
X159211961Y-113766666D02*
X159116723Y-113814285D01*
X159116723Y-113814285D02*
X158926247Y-113861904D01*
X158926247Y-113861904D02*
X158783390Y-113861904D01*
X158783390Y-113861904D02*
X158592914Y-113814285D01*
X158592914Y-113814285D02*
X158497676Y-113766666D01*
X158497676Y-113766666D02*
X158402438Y-113671428D01*
X158402438Y-113671428D02*
X158354819Y-113528571D01*
X158354819Y-113528571D02*
X158354819Y-113433333D01*
X158354819Y-113433333D02*
X158402438Y-113290476D01*
X158402438Y-113290476D02*
X158450057Y-113242857D01*
X158450057Y-112861904D02*
X158402438Y-112814285D01*
X158402438Y-112814285D02*
X158354819Y-112719047D01*
X158354819Y-112719047D02*
X158354819Y-112480952D01*
X158354819Y-112480952D02*
X158402438Y-112385714D01*
X158402438Y-112385714D02*
X158450057Y-112338095D01*
X158450057Y-112338095D02*
X158545295Y-112290476D01*
X158545295Y-112290476D02*
X158640533Y-112290476D01*
X158640533Y-112290476D02*
X158783390Y-112338095D01*
X158783390Y-112338095D02*
X159354819Y-112909523D01*
X159354819Y-112909523D02*
X159354819Y-112290476D01*
X159354819Y-111338095D02*
X159354819Y-111909523D01*
X159354819Y-111623809D02*
X158354819Y-111623809D01*
X158354819Y-111623809D02*
X158497676Y-111719047D01*
X158497676Y-111719047D02*
X158592914Y-111814285D01*
X158592914Y-111814285D02*
X158640533Y-111909523D01*
X114478628Y-70376190D02*
X114954819Y-70376190D01*
X113954819Y-70709523D02*
X114478628Y-70376190D01*
X114478628Y-70376190D02*
X113954819Y-70042857D01*
X114050057Y-69757142D02*
X114002438Y-69709523D01*
X114002438Y-69709523D02*
X113954819Y-69614285D01*
X113954819Y-69614285D02*
X113954819Y-69376190D01*
X113954819Y-69376190D02*
X114002438Y-69280952D01*
X114002438Y-69280952D02*
X114050057Y-69233333D01*
X114050057Y-69233333D02*
X114145295Y-69185714D01*
X114145295Y-69185714D02*
X114240533Y-69185714D01*
X114240533Y-69185714D02*
X114383390Y-69233333D01*
X114383390Y-69233333D02*
X114954819Y-69804761D01*
X114954819Y-69804761D02*
X114954819Y-69185714D01*
X161737142Y-105554819D02*
X161403809Y-105078628D01*
X161165714Y-105554819D02*
X161165714Y-104554819D01*
X161165714Y-104554819D02*
X161546666Y-104554819D01*
X161546666Y-104554819D02*
X161641904Y-104602438D01*
X161641904Y-104602438D02*
X161689523Y-104650057D01*
X161689523Y-104650057D02*
X161737142Y-104745295D01*
X161737142Y-104745295D02*
X161737142Y-104888152D01*
X161737142Y-104888152D02*
X161689523Y-104983390D01*
X161689523Y-104983390D02*
X161641904Y-105031009D01*
X161641904Y-105031009D02*
X161546666Y-105078628D01*
X161546666Y-105078628D02*
X161165714Y-105078628D01*
X162689523Y-105554819D02*
X162118095Y-105554819D01*
X162403809Y-105554819D02*
X162403809Y-104554819D01*
X162403809Y-104554819D02*
X162308571Y-104697676D01*
X162308571Y-104697676D02*
X162213333Y-104792914D01*
X162213333Y-104792914D02*
X162118095Y-104840533D01*
X163546666Y-104888152D02*
X163546666Y-105554819D01*
X163308571Y-104507200D02*
X163070476Y-105221485D01*
X163070476Y-105221485D02*
X163689523Y-105221485D01*
X143954819Y-77966666D02*
X143478628Y-78299999D01*
X143954819Y-78538094D02*
X142954819Y-78538094D01*
X142954819Y-78538094D02*
X142954819Y-78157142D01*
X142954819Y-78157142D02*
X143002438Y-78061904D01*
X143002438Y-78061904D02*
X143050057Y-78014285D01*
X143050057Y-78014285D02*
X143145295Y-77966666D01*
X143145295Y-77966666D02*
X143288152Y-77966666D01*
X143288152Y-77966666D02*
X143383390Y-78014285D01*
X143383390Y-78014285D02*
X143431009Y-78061904D01*
X143431009Y-78061904D02*
X143478628Y-78157142D01*
X143478628Y-78157142D02*
X143478628Y-78538094D01*
X143954819Y-77490475D02*
X143954819Y-77299999D01*
X143954819Y-77299999D02*
X143907200Y-77204761D01*
X143907200Y-77204761D02*
X143859580Y-77157142D01*
X143859580Y-77157142D02*
X143716723Y-77061904D01*
X143716723Y-77061904D02*
X143526247Y-77014285D01*
X143526247Y-77014285D02*
X143145295Y-77014285D01*
X143145295Y-77014285D02*
X143050057Y-77061904D01*
X143050057Y-77061904D02*
X143002438Y-77109523D01*
X143002438Y-77109523D02*
X142954819Y-77204761D01*
X142954819Y-77204761D02*
X142954819Y-77395237D01*
X142954819Y-77395237D02*
X143002438Y-77490475D01*
X143002438Y-77490475D02*
X143050057Y-77538094D01*
X143050057Y-77538094D02*
X143145295Y-77585713D01*
X143145295Y-77585713D02*
X143383390Y-77585713D01*
X143383390Y-77585713D02*
X143478628Y-77538094D01*
X143478628Y-77538094D02*
X143526247Y-77490475D01*
X143526247Y-77490475D02*
X143573866Y-77395237D01*
X143573866Y-77395237D02*
X143573866Y-77204761D01*
X143573866Y-77204761D02*
X143526247Y-77109523D01*
X143526247Y-77109523D02*
X143478628Y-77061904D01*
X143478628Y-77061904D02*
X143383390Y-77014285D01*
X151524819Y-82566666D02*
X151048628Y-82899999D01*
X151524819Y-83138094D02*
X150524819Y-83138094D01*
X150524819Y-83138094D02*
X150524819Y-82757142D01*
X150524819Y-82757142D02*
X150572438Y-82661904D01*
X150572438Y-82661904D02*
X150620057Y-82614285D01*
X150620057Y-82614285D02*
X150715295Y-82566666D01*
X150715295Y-82566666D02*
X150858152Y-82566666D01*
X150858152Y-82566666D02*
X150953390Y-82614285D01*
X150953390Y-82614285D02*
X151001009Y-82661904D01*
X151001009Y-82661904D02*
X151048628Y-82757142D01*
X151048628Y-82757142D02*
X151048628Y-83138094D01*
X150524819Y-82233332D02*
X150524819Y-81566666D01*
X150524819Y-81566666D02*
X151524819Y-81995237D01*
X160091667Y-95382200D02*
X160234524Y-95429819D01*
X160234524Y-95429819D02*
X160472619Y-95429819D01*
X160472619Y-95429819D02*
X160567857Y-95382200D01*
X160567857Y-95382200D02*
X160615476Y-95334580D01*
X160615476Y-95334580D02*
X160663095Y-95239342D01*
X160663095Y-95239342D02*
X160663095Y-95144104D01*
X160663095Y-95144104D02*
X160615476Y-95048866D01*
X160615476Y-95048866D02*
X160567857Y-95001247D01*
X160567857Y-95001247D02*
X160472619Y-94953628D01*
X160472619Y-94953628D02*
X160282143Y-94906009D01*
X160282143Y-94906009D02*
X160186905Y-94858390D01*
X160186905Y-94858390D02*
X160139286Y-94810771D01*
X160139286Y-94810771D02*
X160091667Y-94715533D01*
X160091667Y-94715533D02*
X160091667Y-94620295D01*
X160091667Y-94620295D02*
X160139286Y-94525057D01*
X160139286Y-94525057D02*
X160186905Y-94477438D01*
X160186905Y-94477438D02*
X160282143Y-94429819D01*
X160282143Y-94429819D02*
X160520238Y-94429819D01*
X160520238Y-94429819D02*
X160663095Y-94477438D01*
X160996429Y-94429819D02*
X161234524Y-95429819D01*
X161234524Y-95429819D02*
X161425000Y-94715533D01*
X161425000Y-94715533D02*
X161615476Y-95429819D01*
X161615476Y-95429819D02*
X161853572Y-94429819D01*
X162186905Y-94525057D02*
X162234524Y-94477438D01*
X162234524Y-94477438D02*
X162329762Y-94429819D01*
X162329762Y-94429819D02*
X162567857Y-94429819D01*
X162567857Y-94429819D02*
X162663095Y-94477438D01*
X162663095Y-94477438D02*
X162710714Y-94525057D01*
X162710714Y-94525057D02*
X162758333Y-94620295D01*
X162758333Y-94620295D02*
X162758333Y-94715533D01*
X162758333Y-94715533D02*
X162710714Y-94858390D01*
X162710714Y-94858390D02*
X162139286Y-95429819D01*
X162139286Y-95429819D02*
X162758333Y-95429819D01*
X115338095Y-101804819D02*
X115338095Y-102614342D01*
X115338095Y-102614342D02*
X115385714Y-102709580D01*
X115385714Y-102709580D02*
X115433333Y-102757200D01*
X115433333Y-102757200D02*
X115528571Y-102804819D01*
X115528571Y-102804819D02*
X115719047Y-102804819D01*
X115719047Y-102804819D02*
X115814285Y-102757200D01*
X115814285Y-102757200D02*
X115861904Y-102709580D01*
X115861904Y-102709580D02*
X115909523Y-102614342D01*
X115909523Y-102614342D02*
X115909523Y-101804819D01*
X116814285Y-101804819D02*
X116623809Y-101804819D01*
X116623809Y-101804819D02*
X116528571Y-101852438D01*
X116528571Y-101852438D02*
X116480952Y-101900057D01*
X116480952Y-101900057D02*
X116385714Y-102042914D01*
X116385714Y-102042914D02*
X116338095Y-102233390D01*
X116338095Y-102233390D02*
X116338095Y-102614342D01*
X116338095Y-102614342D02*
X116385714Y-102709580D01*
X116385714Y-102709580D02*
X116433333Y-102757200D01*
X116433333Y-102757200D02*
X116528571Y-102804819D01*
X116528571Y-102804819D02*
X116719047Y-102804819D01*
X116719047Y-102804819D02*
X116814285Y-102757200D01*
X116814285Y-102757200D02*
X116861904Y-102709580D01*
X116861904Y-102709580D02*
X116909523Y-102614342D01*
X116909523Y-102614342D02*
X116909523Y-102376247D01*
X116909523Y-102376247D02*
X116861904Y-102281009D01*
X116861904Y-102281009D02*
X116814285Y-102233390D01*
X116814285Y-102233390D02*
X116719047Y-102185771D01*
X116719047Y-102185771D02*
X116528571Y-102185771D01*
X116528571Y-102185771D02*
X116433333Y-102233390D01*
X116433333Y-102233390D02*
X116385714Y-102281009D01*
X116385714Y-102281009D02*
X116338095Y-102376247D01*
X151357142Y-86199580D02*
X151309523Y-86247200D01*
X151309523Y-86247200D02*
X151166666Y-86294819D01*
X151166666Y-86294819D02*
X151071428Y-86294819D01*
X151071428Y-86294819D02*
X150928571Y-86247200D01*
X150928571Y-86247200D02*
X150833333Y-86151961D01*
X150833333Y-86151961D02*
X150785714Y-86056723D01*
X150785714Y-86056723D02*
X150738095Y-85866247D01*
X150738095Y-85866247D02*
X150738095Y-85723390D01*
X150738095Y-85723390D02*
X150785714Y-85532914D01*
X150785714Y-85532914D02*
X150833333Y-85437676D01*
X150833333Y-85437676D02*
X150928571Y-85342438D01*
X150928571Y-85342438D02*
X151071428Y-85294819D01*
X151071428Y-85294819D02*
X151166666Y-85294819D01*
X151166666Y-85294819D02*
X151309523Y-85342438D01*
X151309523Y-85342438D02*
X151357142Y-85390057D01*
X152309523Y-86294819D02*
X151738095Y-86294819D01*
X152023809Y-86294819D02*
X152023809Y-85294819D01*
X152023809Y-85294819D02*
X151928571Y-85437676D01*
X151928571Y-85437676D02*
X151833333Y-85532914D01*
X151833333Y-85532914D02*
X151738095Y-85580533D01*
X152642857Y-85294819D02*
X153261904Y-85294819D01*
X153261904Y-85294819D02*
X152928571Y-85675771D01*
X152928571Y-85675771D02*
X153071428Y-85675771D01*
X153071428Y-85675771D02*
X153166666Y-85723390D01*
X153166666Y-85723390D02*
X153214285Y-85771009D01*
X153214285Y-85771009D02*
X153261904Y-85866247D01*
X153261904Y-85866247D02*
X153261904Y-86104342D01*
X153261904Y-86104342D02*
X153214285Y-86199580D01*
X153214285Y-86199580D02*
X153166666Y-86247200D01*
X153166666Y-86247200D02*
X153071428Y-86294819D01*
X153071428Y-86294819D02*
X152785714Y-86294819D01*
X152785714Y-86294819D02*
X152690476Y-86247200D01*
X152690476Y-86247200D02*
X152642857Y-86199580D01*
X137133333Y-87254819D02*
X136800000Y-86778628D01*
X136561905Y-87254819D02*
X136561905Y-86254819D01*
X136561905Y-86254819D02*
X136942857Y-86254819D01*
X136942857Y-86254819D02*
X137038095Y-86302438D01*
X137038095Y-86302438D02*
X137085714Y-86350057D01*
X137085714Y-86350057D02*
X137133333Y-86445295D01*
X137133333Y-86445295D02*
X137133333Y-86588152D01*
X137133333Y-86588152D02*
X137085714Y-86683390D01*
X137085714Y-86683390D02*
X137038095Y-86731009D01*
X137038095Y-86731009D02*
X136942857Y-86778628D01*
X136942857Y-86778628D02*
X136561905Y-86778628D01*
X137514286Y-86350057D02*
X137561905Y-86302438D01*
X137561905Y-86302438D02*
X137657143Y-86254819D01*
X137657143Y-86254819D02*
X137895238Y-86254819D01*
X137895238Y-86254819D02*
X137990476Y-86302438D01*
X137990476Y-86302438D02*
X138038095Y-86350057D01*
X138038095Y-86350057D02*
X138085714Y-86445295D01*
X138085714Y-86445295D02*
X138085714Y-86540533D01*
X138085714Y-86540533D02*
X138038095Y-86683390D01*
X138038095Y-86683390D02*
X137466667Y-87254819D01*
X137466667Y-87254819D02*
X138085714Y-87254819D01*
X162066666Y-85754819D02*
X162066666Y-86469104D01*
X162066666Y-86469104D02*
X162019047Y-86611961D01*
X162019047Y-86611961D02*
X161923809Y-86707200D01*
X161923809Y-86707200D02*
X161780952Y-86754819D01*
X161780952Y-86754819D02*
X161685714Y-86754819D01*
X162971428Y-86088152D02*
X162971428Y-86754819D01*
X162733333Y-85707200D02*
X162495238Y-86421485D01*
X162495238Y-86421485D02*
X163114285Y-86421485D01*
X153957142Y-94959580D02*
X153909523Y-95007200D01*
X153909523Y-95007200D02*
X153766666Y-95054819D01*
X153766666Y-95054819D02*
X153671428Y-95054819D01*
X153671428Y-95054819D02*
X153528571Y-95007200D01*
X153528571Y-95007200D02*
X153433333Y-94911961D01*
X153433333Y-94911961D02*
X153385714Y-94816723D01*
X153385714Y-94816723D02*
X153338095Y-94626247D01*
X153338095Y-94626247D02*
X153338095Y-94483390D01*
X153338095Y-94483390D02*
X153385714Y-94292914D01*
X153385714Y-94292914D02*
X153433333Y-94197676D01*
X153433333Y-94197676D02*
X153528571Y-94102438D01*
X153528571Y-94102438D02*
X153671428Y-94054819D01*
X153671428Y-94054819D02*
X153766666Y-94054819D01*
X153766666Y-94054819D02*
X153909523Y-94102438D01*
X153909523Y-94102438D02*
X153957142Y-94150057D01*
X154909523Y-95054819D02*
X154338095Y-95054819D01*
X154623809Y-95054819D02*
X154623809Y-94054819D01*
X154623809Y-94054819D02*
X154528571Y-94197676D01*
X154528571Y-94197676D02*
X154433333Y-94292914D01*
X154433333Y-94292914D02*
X154338095Y-94340533D01*
X155290476Y-94150057D02*
X155338095Y-94102438D01*
X155338095Y-94102438D02*
X155433333Y-94054819D01*
X155433333Y-94054819D02*
X155671428Y-94054819D01*
X155671428Y-94054819D02*
X155766666Y-94102438D01*
X155766666Y-94102438D02*
X155814285Y-94150057D01*
X155814285Y-94150057D02*
X155861904Y-94245295D01*
X155861904Y-94245295D02*
X155861904Y-94340533D01*
X155861904Y-94340533D02*
X155814285Y-94483390D01*
X155814285Y-94483390D02*
X155242857Y-95054819D01*
X155242857Y-95054819D02*
X155861904Y-95054819D01*
X125138095Y-91654819D02*
X125138095Y-92464342D01*
X125138095Y-92464342D02*
X125185714Y-92559580D01*
X125185714Y-92559580D02*
X125233333Y-92607200D01*
X125233333Y-92607200D02*
X125328571Y-92654819D01*
X125328571Y-92654819D02*
X125519047Y-92654819D01*
X125519047Y-92654819D02*
X125614285Y-92607200D01*
X125614285Y-92607200D02*
X125661904Y-92559580D01*
X125661904Y-92559580D02*
X125709523Y-92464342D01*
X125709523Y-92464342D02*
X125709523Y-91654819D01*
X126614285Y-91988152D02*
X126614285Y-92654819D01*
X126376190Y-91607200D02*
X126138095Y-92321485D01*
X126138095Y-92321485D02*
X126757142Y-92321485D01*
X147633333Y-80763030D02*
X147157143Y-80763030D01*
X147157143Y-80763030D02*
X147157143Y-79763030D01*
X148490476Y-80763030D02*
X147919048Y-80763030D01*
X148204762Y-80763030D02*
X148204762Y-79763030D01*
X148204762Y-79763030D02*
X148109524Y-79905887D01*
X148109524Y-79905887D02*
X148014286Y-80001125D01*
X148014286Y-80001125D02*
X147919048Y-80048744D01*
X124259580Y-98142857D02*
X124307200Y-98190476D01*
X124307200Y-98190476D02*
X124354819Y-98333333D01*
X124354819Y-98333333D02*
X124354819Y-98428571D01*
X124354819Y-98428571D02*
X124307200Y-98571428D01*
X124307200Y-98571428D02*
X124211961Y-98666666D01*
X124211961Y-98666666D02*
X124116723Y-98714285D01*
X124116723Y-98714285D02*
X123926247Y-98761904D01*
X123926247Y-98761904D02*
X123783390Y-98761904D01*
X123783390Y-98761904D02*
X123592914Y-98714285D01*
X123592914Y-98714285D02*
X123497676Y-98666666D01*
X123497676Y-98666666D02*
X123402438Y-98571428D01*
X123402438Y-98571428D02*
X123354819Y-98428571D01*
X123354819Y-98428571D02*
X123354819Y-98333333D01*
X123354819Y-98333333D02*
X123402438Y-98190476D01*
X123402438Y-98190476D02*
X123450057Y-98142857D01*
X123450057Y-97761904D02*
X123402438Y-97714285D01*
X123402438Y-97714285D02*
X123354819Y-97619047D01*
X123354819Y-97619047D02*
X123354819Y-97380952D01*
X123354819Y-97380952D02*
X123402438Y-97285714D01*
X123402438Y-97285714D02*
X123450057Y-97238095D01*
X123450057Y-97238095D02*
X123545295Y-97190476D01*
X123545295Y-97190476D02*
X123640533Y-97190476D01*
X123640533Y-97190476D02*
X123783390Y-97238095D01*
X123783390Y-97238095D02*
X124354819Y-97809523D01*
X124354819Y-97809523D02*
X124354819Y-97190476D01*
X123354819Y-96857142D02*
X123354819Y-96238095D01*
X123354819Y-96238095D02*
X123735771Y-96571428D01*
X123735771Y-96571428D02*
X123735771Y-96428571D01*
X123735771Y-96428571D02*
X123783390Y-96333333D01*
X123783390Y-96333333D02*
X123831009Y-96285714D01*
X123831009Y-96285714D02*
X123926247Y-96238095D01*
X123926247Y-96238095D02*
X124164342Y-96238095D01*
X124164342Y-96238095D02*
X124259580Y-96285714D01*
X124259580Y-96285714D02*
X124307200Y-96333333D01*
X124307200Y-96333333D02*
X124354819Y-96428571D01*
X124354819Y-96428571D02*
X124354819Y-96714285D01*
X124354819Y-96714285D02*
X124307200Y-96809523D01*
X124307200Y-96809523D02*
X124259580Y-96857142D01*
X145754819Y-78042857D02*
X145278628Y-78376190D01*
X145754819Y-78614285D02*
X144754819Y-78614285D01*
X144754819Y-78614285D02*
X144754819Y-78233333D01*
X144754819Y-78233333D02*
X144802438Y-78138095D01*
X144802438Y-78138095D02*
X144850057Y-78090476D01*
X144850057Y-78090476D02*
X144945295Y-78042857D01*
X144945295Y-78042857D02*
X145088152Y-78042857D01*
X145088152Y-78042857D02*
X145183390Y-78090476D01*
X145183390Y-78090476D02*
X145231009Y-78138095D01*
X145231009Y-78138095D02*
X145278628Y-78233333D01*
X145278628Y-78233333D02*
X145278628Y-78614285D01*
X145754819Y-77090476D02*
X145754819Y-77661904D01*
X145754819Y-77376190D02*
X144754819Y-77376190D01*
X144754819Y-77376190D02*
X144897676Y-77471428D01*
X144897676Y-77471428D02*
X144992914Y-77566666D01*
X144992914Y-77566666D02*
X145040533Y-77661904D01*
X144754819Y-76471428D02*
X144754819Y-76376190D01*
X144754819Y-76376190D02*
X144802438Y-76280952D01*
X144802438Y-76280952D02*
X144850057Y-76233333D01*
X144850057Y-76233333D02*
X144945295Y-76185714D01*
X144945295Y-76185714D02*
X145135771Y-76138095D01*
X145135771Y-76138095D02*
X145373866Y-76138095D01*
X145373866Y-76138095D02*
X145564342Y-76185714D01*
X145564342Y-76185714D02*
X145659580Y-76233333D01*
X145659580Y-76233333D02*
X145707200Y-76280952D01*
X145707200Y-76280952D02*
X145754819Y-76376190D01*
X145754819Y-76376190D02*
X145754819Y-76471428D01*
X145754819Y-76471428D02*
X145707200Y-76566666D01*
X145707200Y-76566666D02*
X145659580Y-76614285D01*
X145659580Y-76614285D02*
X145564342Y-76661904D01*
X145564342Y-76661904D02*
X145373866Y-76709523D01*
X145373866Y-76709523D02*
X145135771Y-76709523D01*
X145135771Y-76709523D02*
X144945295Y-76661904D01*
X144945295Y-76661904D02*
X144850057Y-76614285D01*
X144850057Y-76614285D02*
X144802438Y-76566666D01*
X144802438Y-76566666D02*
X144754819Y-76471428D01*
X124354819Y-95042857D02*
X123878628Y-95376190D01*
X124354819Y-95614285D02*
X123354819Y-95614285D01*
X123354819Y-95614285D02*
X123354819Y-95233333D01*
X123354819Y-95233333D02*
X123402438Y-95138095D01*
X123402438Y-95138095D02*
X123450057Y-95090476D01*
X123450057Y-95090476D02*
X123545295Y-95042857D01*
X123545295Y-95042857D02*
X123688152Y-95042857D01*
X123688152Y-95042857D02*
X123783390Y-95090476D01*
X123783390Y-95090476D02*
X123831009Y-95138095D01*
X123831009Y-95138095D02*
X123878628Y-95233333D01*
X123878628Y-95233333D02*
X123878628Y-95614285D01*
X124354819Y-94090476D02*
X124354819Y-94661904D01*
X124354819Y-94376190D02*
X123354819Y-94376190D01*
X123354819Y-94376190D02*
X123497676Y-94471428D01*
X123497676Y-94471428D02*
X123592914Y-94566666D01*
X123592914Y-94566666D02*
X123640533Y-94661904D01*
X123450057Y-93709523D02*
X123402438Y-93661904D01*
X123402438Y-93661904D02*
X123354819Y-93566666D01*
X123354819Y-93566666D02*
X123354819Y-93328571D01*
X123354819Y-93328571D02*
X123402438Y-93233333D01*
X123402438Y-93233333D02*
X123450057Y-93185714D01*
X123450057Y-93185714D02*
X123545295Y-93138095D01*
X123545295Y-93138095D02*
X123640533Y-93138095D01*
X123640533Y-93138095D02*
X123783390Y-93185714D01*
X123783390Y-93185714D02*
X124354819Y-93757142D01*
X124354819Y-93757142D02*
X124354819Y-93138095D01*
X151833333Y-89199580D02*
X151785714Y-89247200D01*
X151785714Y-89247200D02*
X151642857Y-89294819D01*
X151642857Y-89294819D02*
X151547619Y-89294819D01*
X151547619Y-89294819D02*
X151404762Y-89247200D01*
X151404762Y-89247200D02*
X151309524Y-89151961D01*
X151309524Y-89151961D02*
X151261905Y-89056723D01*
X151261905Y-89056723D02*
X151214286Y-88866247D01*
X151214286Y-88866247D02*
X151214286Y-88723390D01*
X151214286Y-88723390D02*
X151261905Y-88532914D01*
X151261905Y-88532914D02*
X151309524Y-88437676D01*
X151309524Y-88437676D02*
X151404762Y-88342438D01*
X151404762Y-88342438D02*
X151547619Y-88294819D01*
X151547619Y-88294819D02*
X151642857Y-88294819D01*
X151642857Y-88294819D02*
X151785714Y-88342438D01*
X151785714Y-88342438D02*
X151833333Y-88390057D01*
X152309524Y-89294819D02*
X152500000Y-89294819D01*
X152500000Y-89294819D02*
X152595238Y-89247200D01*
X152595238Y-89247200D02*
X152642857Y-89199580D01*
X152642857Y-89199580D02*
X152738095Y-89056723D01*
X152738095Y-89056723D02*
X152785714Y-88866247D01*
X152785714Y-88866247D02*
X152785714Y-88485295D01*
X152785714Y-88485295D02*
X152738095Y-88390057D01*
X152738095Y-88390057D02*
X152690476Y-88342438D01*
X152690476Y-88342438D02*
X152595238Y-88294819D01*
X152595238Y-88294819D02*
X152404762Y-88294819D01*
X152404762Y-88294819D02*
X152309524Y-88342438D01*
X152309524Y-88342438D02*
X152261905Y-88390057D01*
X152261905Y-88390057D02*
X152214286Y-88485295D01*
X152214286Y-88485295D02*
X152214286Y-88723390D01*
X152214286Y-88723390D02*
X152261905Y-88818628D01*
X152261905Y-88818628D02*
X152309524Y-88866247D01*
X152309524Y-88866247D02*
X152404762Y-88913866D01*
X152404762Y-88913866D02*
X152595238Y-88913866D01*
X152595238Y-88913866D02*
X152690476Y-88866247D01*
X152690476Y-88866247D02*
X152738095Y-88818628D01*
X152738095Y-88818628D02*
X152785714Y-88723390D01*
X141659580Y-84542857D02*
X141707200Y-84590476D01*
X141707200Y-84590476D02*
X141754819Y-84733333D01*
X141754819Y-84733333D02*
X141754819Y-84828571D01*
X141754819Y-84828571D02*
X141707200Y-84971428D01*
X141707200Y-84971428D02*
X141611961Y-85066666D01*
X141611961Y-85066666D02*
X141516723Y-85114285D01*
X141516723Y-85114285D02*
X141326247Y-85161904D01*
X141326247Y-85161904D02*
X141183390Y-85161904D01*
X141183390Y-85161904D02*
X140992914Y-85114285D01*
X140992914Y-85114285D02*
X140897676Y-85066666D01*
X140897676Y-85066666D02*
X140802438Y-84971428D01*
X140802438Y-84971428D02*
X140754819Y-84828571D01*
X140754819Y-84828571D02*
X140754819Y-84733333D01*
X140754819Y-84733333D02*
X140802438Y-84590476D01*
X140802438Y-84590476D02*
X140850057Y-84542857D01*
X141754819Y-83590476D02*
X141754819Y-84161904D01*
X141754819Y-83876190D02*
X140754819Y-83876190D01*
X140754819Y-83876190D02*
X140897676Y-83971428D01*
X140897676Y-83971428D02*
X140992914Y-84066666D01*
X140992914Y-84066666D02*
X141040533Y-84161904D01*
X141754819Y-82638095D02*
X141754819Y-83209523D01*
X141754819Y-82923809D02*
X140754819Y-82923809D01*
X140754819Y-82923809D02*
X140897676Y-83019047D01*
X140897676Y-83019047D02*
X140992914Y-83114285D01*
X140992914Y-83114285D02*
X141040533Y-83209523D01*
X145259580Y-98442857D02*
X145307200Y-98490476D01*
X145307200Y-98490476D02*
X145354819Y-98633333D01*
X145354819Y-98633333D02*
X145354819Y-98728571D01*
X145354819Y-98728571D02*
X145307200Y-98871428D01*
X145307200Y-98871428D02*
X145211961Y-98966666D01*
X145211961Y-98966666D02*
X145116723Y-99014285D01*
X145116723Y-99014285D02*
X144926247Y-99061904D01*
X144926247Y-99061904D02*
X144783390Y-99061904D01*
X144783390Y-99061904D02*
X144592914Y-99014285D01*
X144592914Y-99014285D02*
X144497676Y-98966666D01*
X144497676Y-98966666D02*
X144402438Y-98871428D01*
X144402438Y-98871428D02*
X144354819Y-98728571D01*
X144354819Y-98728571D02*
X144354819Y-98633333D01*
X144354819Y-98633333D02*
X144402438Y-98490476D01*
X144402438Y-98490476D02*
X144450057Y-98442857D01*
X145354819Y-97490476D02*
X145354819Y-98061904D01*
X145354819Y-97776190D02*
X144354819Y-97776190D01*
X144354819Y-97776190D02*
X144497676Y-97871428D01*
X144497676Y-97871428D02*
X144592914Y-97966666D01*
X144592914Y-97966666D02*
X144640533Y-98061904D01*
X144354819Y-96633333D02*
X144354819Y-96823809D01*
X144354819Y-96823809D02*
X144402438Y-96919047D01*
X144402438Y-96919047D02*
X144450057Y-96966666D01*
X144450057Y-96966666D02*
X144592914Y-97061904D01*
X144592914Y-97061904D02*
X144783390Y-97109523D01*
X144783390Y-97109523D02*
X145164342Y-97109523D01*
X145164342Y-97109523D02*
X145259580Y-97061904D01*
X145259580Y-97061904D02*
X145307200Y-97014285D01*
X145307200Y-97014285D02*
X145354819Y-96919047D01*
X145354819Y-96919047D02*
X145354819Y-96728571D01*
X145354819Y-96728571D02*
X145307200Y-96633333D01*
X145307200Y-96633333D02*
X145259580Y-96585714D01*
X145259580Y-96585714D02*
X145164342Y-96538095D01*
X145164342Y-96538095D02*
X144926247Y-96538095D01*
X144926247Y-96538095D02*
X144831009Y-96585714D01*
X144831009Y-96585714D02*
X144783390Y-96633333D01*
X144783390Y-96633333D02*
X144735771Y-96728571D01*
X144735771Y-96728571D02*
X144735771Y-96919047D01*
X144735771Y-96919047D02*
X144783390Y-97014285D01*
X144783390Y-97014285D02*
X144831009Y-97061904D01*
X144831009Y-97061904D02*
X144926247Y-97109523D01*
X151419580Y-84466666D02*
X151467200Y-84514285D01*
X151467200Y-84514285D02*
X151514819Y-84657142D01*
X151514819Y-84657142D02*
X151514819Y-84752380D01*
X151514819Y-84752380D02*
X151467200Y-84895237D01*
X151467200Y-84895237D02*
X151371961Y-84990475D01*
X151371961Y-84990475D02*
X151276723Y-85038094D01*
X151276723Y-85038094D02*
X151086247Y-85085713D01*
X151086247Y-85085713D02*
X150943390Y-85085713D01*
X150943390Y-85085713D02*
X150752914Y-85038094D01*
X150752914Y-85038094D02*
X150657676Y-84990475D01*
X150657676Y-84990475D02*
X150562438Y-84895237D01*
X150562438Y-84895237D02*
X150514819Y-84752380D01*
X150514819Y-84752380D02*
X150514819Y-84657142D01*
X150514819Y-84657142D02*
X150562438Y-84514285D01*
X150562438Y-84514285D02*
X150610057Y-84466666D01*
X150514819Y-83609523D02*
X150514819Y-83799999D01*
X150514819Y-83799999D02*
X150562438Y-83895237D01*
X150562438Y-83895237D02*
X150610057Y-83942856D01*
X150610057Y-83942856D02*
X150752914Y-84038094D01*
X150752914Y-84038094D02*
X150943390Y-84085713D01*
X150943390Y-84085713D02*
X151324342Y-84085713D01*
X151324342Y-84085713D02*
X151419580Y-84038094D01*
X151419580Y-84038094D02*
X151467200Y-83990475D01*
X151467200Y-83990475D02*
X151514819Y-83895237D01*
X151514819Y-83895237D02*
X151514819Y-83704761D01*
X151514819Y-83704761D02*
X151467200Y-83609523D01*
X151467200Y-83609523D02*
X151419580Y-83561904D01*
X151419580Y-83561904D02*
X151324342Y-83514285D01*
X151324342Y-83514285D02*
X151086247Y-83514285D01*
X151086247Y-83514285D02*
X150991009Y-83561904D01*
X150991009Y-83561904D02*
X150943390Y-83609523D01*
X150943390Y-83609523D02*
X150895771Y-83704761D01*
X150895771Y-83704761D02*
X150895771Y-83895237D01*
X150895771Y-83895237D02*
X150943390Y-83990475D01*
X150943390Y-83990475D02*
X150991009Y-84038094D01*
X150991009Y-84038094D02*
X151086247Y-84085713D01*
X128633333Y-87254819D02*
X128300000Y-86778628D01*
X128061905Y-87254819D02*
X128061905Y-86254819D01*
X128061905Y-86254819D02*
X128442857Y-86254819D01*
X128442857Y-86254819D02*
X128538095Y-86302438D01*
X128538095Y-86302438D02*
X128585714Y-86350057D01*
X128585714Y-86350057D02*
X128633333Y-86445295D01*
X128633333Y-86445295D02*
X128633333Y-86588152D01*
X128633333Y-86588152D02*
X128585714Y-86683390D01*
X128585714Y-86683390D02*
X128538095Y-86731009D01*
X128538095Y-86731009D02*
X128442857Y-86778628D01*
X128442857Y-86778628D02*
X128061905Y-86778628D01*
X128966667Y-86254819D02*
X129585714Y-86254819D01*
X129585714Y-86254819D02*
X129252381Y-86635771D01*
X129252381Y-86635771D02*
X129395238Y-86635771D01*
X129395238Y-86635771D02*
X129490476Y-86683390D01*
X129490476Y-86683390D02*
X129538095Y-86731009D01*
X129538095Y-86731009D02*
X129585714Y-86826247D01*
X129585714Y-86826247D02*
X129585714Y-87064342D01*
X129585714Y-87064342D02*
X129538095Y-87159580D01*
X129538095Y-87159580D02*
X129490476Y-87207200D01*
X129490476Y-87207200D02*
X129395238Y-87254819D01*
X129395238Y-87254819D02*
X129109524Y-87254819D01*
X129109524Y-87254819D02*
X129014286Y-87207200D01*
X129014286Y-87207200D02*
X128966667Y-87159580D01*
X140233333Y-103859580D02*
X140185714Y-103907200D01*
X140185714Y-103907200D02*
X140042857Y-103954819D01*
X140042857Y-103954819D02*
X139947619Y-103954819D01*
X139947619Y-103954819D02*
X139804762Y-103907200D01*
X139804762Y-103907200D02*
X139709524Y-103811961D01*
X139709524Y-103811961D02*
X139661905Y-103716723D01*
X139661905Y-103716723D02*
X139614286Y-103526247D01*
X139614286Y-103526247D02*
X139614286Y-103383390D01*
X139614286Y-103383390D02*
X139661905Y-103192914D01*
X139661905Y-103192914D02*
X139709524Y-103097676D01*
X139709524Y-103097676D02*
X139804762Y-103002438D01*
X139804762Y-103002438D02*
X139947619Y-102954819D01*
X139947619Y-102954819D02*
X140042857Y-102954819D01*
X140042857Y-102954819D02*
X140185714Y-103002438D01*
X140185714Y-103002438D02*
X140233333Y-103050057D01*
X141090476Y-103288152D02*
X141090476Y-103954819D01*
X140852381Y-102907200D02*
X140614286Y-103621485D01*
X140614286Y-103621485D02*
X141233333Y-103621485D01*
X116057142Y-66629580D02*
X116009523Y-66677200D01*
X116009523Y-66677200D02*
X115866666Y-66724819D01*
X115866666Y-66724819D02*
X115771428Y-66724819D01*
X115771428Y-66724819D02*
X115628571Y-66677200D01*
X115628571Y-66677200D02*
X115533333Y-66581961D01*
X115533333Y-66581961D02*
X115485714Y-66486723D01*
X115485714Y-66486723D02*
X115438095Y-66296247D01*
X115438095Y-66296247D02*
X115438095Y-66153390D01*
X115438095Y-66153390D02*
X115485714Y-65962914D01*
X115485714Y-65962914D02*
X115533333Y-65867676D01*
X115533333Y-65867676D02*
X115628571Y-65772438D01*
X115628571Y-65772438D02*
X115771428Y-65724819D01*
X115771428Y-65724819D02*
X115866666Y-65724819D01*
X115866666Y-65724819D02*
X116009523Y-65772438D01*
X116009523Y-65772438D02*
X116057142Y-65820057D01*
X116438095Y-65820057D02*
X116485714Y-65772438D01*
X116485714Y-65772438D02*
X116580952Y-65724819D01*
X116580952Y-65724819D02*
X116819047Y-65724819D01*
X116819047Y-65724819D02*
X116914285Y-65772438D01*
X116914285Y-65772438D02*
X116961904Y-65820057D01*
X116961904Y-65820057D02*
X117009523Y-65915295D01*
X117009523Y-65915295D02*
X117009523Y-66010533D01*
X117009523Y-66010533D02*
X116961904Y-66153390D01*
X116961904Y-66153390D02*
X116390476Y-66724819D01*
X116390476Y-66724819D02*
X117009523Y-66724819D01*
X117342857Y-65724819D02*
X118009523Y-65724819D01*
X118009523Y-65724819D02*
X117580952Y-66724819D01*
D11*
X156316667Y-77119800D02*
X156459524Y-77167419D01*
X156459524Y-77167419D02*
X156697619Y-77167419D01*
X156697619Y-77167419D02*
X156792857Y-77119800D01*
X156792857Y-77119800D02*
X156840476Y-77072180D01*
X156840476Y-77072180D02*
X156888095Y-76976942D01*
X156888095Y-76976942D02*
X156888095Y-76881704D01*
X156888095Y-76881704D02*
X156840476Y-76786466D01*
X156840476Y-76786466D02*
X156792857Y-76738847D01*
X156792857Y-76738847D02*
X156697619Y-76691228D01*
X156697619Y-76691228D02*
X156507143Y-76643609D01*
X156507143Y-76643609D02*
X156411905Y-76595990D01*
X156411905Y-76595990D02*
X156364286Y-76548371D01*
X156364286Y-76548371D02*
X156316667Y-76453133D01*
X156316667Y-76453133D02*
X156316667Y-76357895D01*
X156316667Y-76357895D02*
X156364286Y-76262657D01*
X156364286Y-76262657D02*
X156411905Y-76215038D01*
X156411905Y-76215038D02*
X156507143Y-76167419D01*
X156507143Y-76167419D02*
X156745238Y-76167419D01*
X156745238Y-76167419D02*
X156888095Y-76215038D01*
X157221429Y-76167419D02*
X157459524Y-77167419D01*
X157459524Y-77167419D02*
X157650000Y-76453133D01*
X157650000Y-76453133D02*
X157840476Y-77167419D01*
X157840476Y-77167419D02*
X158078572Y-76167419D01*
X158983333Y-77167419D02*
X158411905Y-77167419D01*
X158697619Y-77167419D02*
X158697619Y-76167419D01*
X158697619Y-76167419D02*
X158602381Y-76310276D01*
X158602381Y-76310276D02*
X158507143Y-76405514D01*
X158507143Y-76405514D02*
X158411905Y-76453133D01*
D10*
X115961905Y-107704819D02*
X115961905Y-106704819D01*
X115961905Y-106704819D02*
X116200000Y-106704819D01*
X116200000Y-106704819D02*
X116342857Y-106752438D01*
X116342857Y-106752438D02*
X116438095Y-106847676D01*
X116438095Y-106847676D02*
X116485714Y-106942914D01*
X116485714Y-106942914D02*
X116533333Y-107133390D01*
X116533333Y-107133390D02*
X116533333Y-107276247D01*
X116533333Y-107276247D02*
X116485714Y-107466723D01*
X116485714Y-107466723D02*
X116438095Y-107561961D01*
X116438095Y-107561961D02*
X116342857Y-107657200D01*
X116342857Y-107657200D02*
X116200000Y-107704819D01*
X116200000Y-107704819D02*
X115961905Y-107704819D01*
X116914286Y-106800057D02*
X116961905Y-106752438D01*
X116961905Y-106752438D02*
X117057143Y-106704819D01*
X117057143Y-106704819D02*
X117295238Y-106704819D01*
X117295238Y-106704819D02*
X117390476Y-106752438D01*
X117390476Y-106752438D02*
X117438095Y-106800057D01*
X117438095Y-106800057D02*
X117485714Y-106895295D01*
X117485714Y-106895295D02*
X117485714Y-106990533D01*
X117485714Y-106990533D02*
X117438095Y-107133390D01*
X117438095Y-107133390D02*
X116866667Y-107704819D01*
X116866667Y-107704819D02*
X117485714Y-107704819D01*
X159159580Y-102242857D02*
X159207200Y-102290476D01*
X159207200Y-102290476D02*
X159254819Y-102433333D01*
X159254819Y-102433333D02*
X159254819Y-102528571D01*
X159254819Y-102528571D02*
X159207200Y-102671428D01*
X159207200Y-102671428D02*
X159111961Y-102766666D01*
X159111961Y-102766666D02*
X159016723Y-102814285D01*
X159016723Y-102814285D02*
X158826247Y-102861904D01*
X158826247Y-102861904D02*
X158683390Y-102861904D01*
X158683390Y-102861904D02*
X158492914Y-102814285D01*
X158492914Y-102814285D02*
X158397676Y-102766666D01*
X158397676Y-102766666D02*
X158302438Y-102671428D01*
X158302438Y-102671428D02*
X158254819Y-102528571D01*
X158254819Y-102528571D02*
X158254819Y-102433333D01*
X158254819Y-102433333D02*
X158302438Y-102290476D01*
X158302438Y-102290476D02*
X158350057Y-102242857D01*
X158350057Y-101861904D02*
X158302438Y-101814285D01*
X158302438Y-101814285D02*
X158254819Y-101719047D01*
X158254819Y-101719047D02*
X158254819Y-101480952D01*
X158254819Y-101480952D02*
X158302438Y-101385714D01*
X158302438Y-101385714D02*
X158350057Y-101338095D01*
X158350057Y-101338095D02*
X158445295Y-101290476D01*
X158445295Y-101290476D02*
X158540533Y-101290476D01*
X158540533Y-101290476D02*
X158683390Y-101338095D01*
X158683390Y-101338095D02*
X159254819Y-101909523D01*
X159254819Y-101909523D02*
X159254819Y-101290476D01*
X158254819Y-100671428D02*
X158254819Y-100576190D01*
X158254819Y-100576190D02*
X158302438Y-100480952D01*
X158302438Y-100480952D02*
X158350057Y-100433333D01*
X158350057Y-100433333D02*
X158445295Y-100385714D01*
X158445295Y-100385714D02*
X158635771Y-100338095D01*
X158635771Y-100338095D02*
X158873866Y-100338095D01*
X158873866Y-100338095D02*
X159064342Y-100385714D01*
X159064342Y-100385714D02*
X159159580Y-100433333D01*
X159159580Y-100433333D02*
X159207200Y-100480952D01*
X159207200Y-100480952D02*
X159254819Y-100576190D01*
X159254819Y-100576190D02*
X159254819Y-100671428D01*
X159254819Y-100671428D02*
X159207200Y-100766666D01*
X159207200Y-100766666D02*
X159159580Y-100814285D01*
X159159580Y-100814285D02*
X159064342Y-100861904D01*
X159064342Y-100861904D02*
X158873866Y-100909523D01*
X158873866Y-100909523D02*
X158635771Y-100909523D01*
X158635771Y-100909523D02*
X158445295Y-100861904D01*
X158445295Y-100861904D02*
X158350057Y-100814285D01*
X158350057Y-100814285D02*
X158302438Y-100766666D01*
X158302438Y-100766666D02*
X158254819Y-100671428D01*
X144059580Y-84442857D02*
X144107200Y-84490476D01*
X144107200Y-84490476D02*
X144154819Y-84633333D01*
X144154819Y-84633333D02*
X144154819Y-84728571D01*
X144154819Y-84728571D02*
X144107200Y-84871428D01*
X144107200Y-84871428D02*
X144011961Y-84966666D01*
X144011961Y-84966666D02*
X143916723Y-85014285D01*
X143916723Y-85014285D02*
X143726247Y-85061904D01*
X143726247Y-85061904D02*
X143583390Y-85061904D01*
X143583390Y-85061904D02*
X143392914Y-85014285D01*
X143392914Y-85014285D02*
X143297676Y-84966666D01*
X143297676Y-84966666D02*
X143202438Y-84871428D01*
X143202438Y-84871428D02*
X143154819Y-84728571D01*
X143154819Y-84728571D02*
X143154819Y-84633333D01*
X143154819Y-84633333D02*
X143202438Y-84490476D01*
X143202438Y-84490476D02*
X143250057Y-84442857D01*
X144154819Y-83490476D02*
X144154819Y-84061904D01*
X144154819Y-83776190D02*
X143154819Y-83776190D01*
X143154819Y-83776190D02*
X143297676Y-83871428D01*
X143297676Y-83871428D02*
X143392914Y-83966666D01*
X143392914Y-83966666D02*
X143440533Y-84061904D01*
X143488152Y-82633333D02*
X144154819Y-82633333D01*
X143107200Y-82871428D02*
X143821485Y-83109523D01*
X143821485Y-83109523D02*
X143821485Y-82490476D01*
X150359580Y-73042857D02*
X150407200Y-73090476D01*
X150407200Y-73090476D02*
X150454819Y-73233333D01*
X150454819Y-73233333D02*
X150454819Y-73328571D01*
X150454819Y-73328571D02*
X150407200Y-73471428D01*
X150407200Y-73471428D02*
X150311961Y-73566666D01*
X150311961Y-73566666D02*
X150216723Y-73614285D01*
X150216723Y-73614285D02*
X150026247Y-73661904D01*
X150026247Y-73661904D02*
X149883390Y-73661904D01*
X149883390Y-73661904D02*
X149692914Y-73614285D01*
X149692914Y-73614285D02*
X149597676Y-73566666D01*
X149597676Y-73566666D02*
X149502438Y-73471428D01*
X149502438Y-73471428D02*
X149454819Y-73328571D01*
X149454819Y-73328571D02*
X149454819Y-73233333D01*
X149454819Y-73233333D02*
X149502438Y-73090476D01*
X149502438Y-73090476D02*
X149550057Y-73042857D01*
X150454819Y-72090476D02*
X150454819Y-72661904D01*
X150454819Y-72376190D02*
X149454819Y-72376190D01*
X149454819Y-72376190D02*
X149597676Y-72471428D01*
X149597676Y-72471428D02*
X149692914Y-72566666D01*
X149692914Y-72566666D02*
X149740533Y-72661904D01*
X149883390Y-71519047D02*
X149835771Y-71614285D01*
X149835771Y-71614285D02*
X149788152Y-71661904D01*
X149788152Y-71661904D02*
X149692914Y-71709523D01*
X149692914Y-71709523D02*
X149645295Y-71709523D01*
X149645295Y-71709523D02*
X149550057Y-71661904D01*
X149550057Y-71661904D02*
X149502438Y-71614285D01*
X149502438Y-71614285D02*
X149454819Y-71519047D01*
X149454819Y-71519047D02*
X149454819Y-71328571D01*
X149454819Y-71328571D02*
X149502438Y-71233333D01*
X149502438Y-71233333D02*
X149550057Y-71185714D01*
X149550057Y-71185714D02*
X149645295Y-71138095D01*
X149645295Y-71138095D02*
X149692914Y-71138095D01*
X149692914Y-71138095D02*
X149788152Y-71185714D01*
X149788152Y-71185714D02*
X149835771Y-71233333D01*
X149835771Y-71233333D02*
X149883390Y-71328571D01*
X149883390Y-71328571D02*
X149883390Y-71519047D01*
X149883390Y-71519047D02*
X149931009Y-71614285D01*
X149931009Y-71614285D02*
X149978628Y-71661904D01*
X149978628Y-71661904D02*
X150073866Y-71709523D01*
X150073866Y-71709523D02*
X150264342Y-71709523D01*
X150264342Y-71709523D02*
X150359580Y-71661904D01*
X150359580Y-71661904D02*
X150407200Y-71614285D01*
X150407200Y-71614285D02*
X150454819Y-71519047D01*
X150454819Y-71519047D02*
X150454819Y-71328571D01*
X150454819Y-71328571D02*
X150407200Y-71233333D01*
X150407200Y-71233333D02*
X150359580Y-71185714D01*
X150359580Y-71185714D02*
X150264342Y-71138095D01*
X150264342Y-71138095D02*
X150073866Y-71138095D01*
X150073866Y-71138095D02*
X149978628Y-71185714D01*
X149978628Y-71185714D02*
X149931009Y-71233333D01*
X149931009Y-71233333D02*
X149883390Y-71328571D01*
X154538095Y-74064819D02*
X154538095Y-74874342D01*
X154538095Y-74874342D02*
X154585714Y-74969580D01*
X154585714Y-74969580D02*
X154633333Y-75017200D01*
X154633333Y-75017200D02*
X154728571Y-75064819D01*
X154728571Y-75064819D02*
X154919047Y-75064819D01*
X154919047Y-75064819D02*
X155014285Y-75017200D01*
X155014285Y-75017200D02*
X155061904Y-74969580D01*
X155061904Y-74969580D02*
X155109523Y-74874342D01*
X155109523Y-74874342D02*
X155109523Y-74064819D01*
X156109523Y-75064819D02*
X155538095Y-75064819D01*
X155823809Y-75064819D02*
X155823809Y-74064819D01*
X155823809Y-74064819D02*
X155728571Y-74207676D01*
X155728571Y-74207676D02*
X155633333Y-74302914D01*
X155633333Y-74302914D02*
X155538095Y-74350533D01*
X149884819Y-100966666D02*
X149408628Y-101299999D01*
X149884819Y-101538094D02*
X148884819Y-101538094D01*
X148884819Y-101538094D02*
X148884819Y-101157142D01*
X148884819Y-101157142D02*
X148932438Y-101061904D01*
X148932438Y-101061904D02*
X148980057Y-101014285D01*
X148980057Y-101014285D02*
X149075295Y-100966666D01*
X149075295Y-100966666D02*
X149218152Y-100966666D01*
X149218152Y-100966666D02*
X149313390Y-101014285D01*
X149313390Y-101014285D02*
X149361009Y-101061904D01*
X149361009Y-101061904D02*
X149408628Y-101157142D01*
X149408628Y-101157142D02*
X149408628Y-101538094D01*
X149313390Y-100395237D02*
X149265771Y-100490475D01*
X149265771Y-100490475D02*
X149218152Y-100538094D01*
X149218152Y-100538094D02*
X149122914Y-100585713D01*
X149122914Y-100585713D02*
X149075295Y-100585713D01*
X149075295Y-100585713D02*
X148980057Y-100538094D01*
X148980057Y-100538094D02*
X148932438Y-100490475D01*
X148932438Y-100490475D02*
X148884819Y-100395237D01*
X148884819Y-100395237D02*
X148884819Y-100204761D01*
X148884819Y-100204761D02*
X148932438Y-100109523D01*
X148932438Y-100109523D02*
X148980057Y-100061904D01*
X148980057Y-100061904D02*
X149075295Y-100014285D01*
X149075295Y-100014285D02*
X149122914Y-100014285D01*
X149122914Y-100014285D02*
X149218152Y-100061904D01*
X149218152Y-100061904D02*
X149265771Y-100109523D01*
X149265771Y-100109523D02*
X149313390Y-100204761D01*
X149313390Y-100204761D02*
X149313390Y-100395237D01*
X149313390Y-100395237D02*
X149361009Y-100490475D01*
X149361009Y-100490475D02*
X149408628Y-100538094D01*
X149408628Y-100538094D02*
X149503866Y-100585713D01*
X149503866Y-100585713D02*
X149694342Y-100585713D01*
X149694342Y-100585713D02*
X149789580Y-100538094D01*
X149789580Y-100538094D02*
X149837200Y-100490475D01*
X149837200Y-100490475D02*
X149884819Y-100395237D01*
X149884819Y-100395237D02*
X149884819Y-100204761D01*
X149884819Y-100204761D02*
X149837200Y-100109523D01*
X149837200Y-100109523D02*
X149789580Y-100061904D01*
X149789580Y-100061904D02*
X149694342Y-100014285D01*
X149694342Y-100014285D02*
X149503866Y-100014285D01*
X149503866Y-100014285D02*
X149408628Y-100061904D01*
X149408628Y-100061904D02*
X149361009Y-100109523D01*
X149361009Y-100109523D02*
X149313390Y-100204761D01*
X162396666Y-67511009D02*
X162063333Y-67511009D01*
X162063333Y-68034819D02*
X162063333Y-67034819D01*
X162063333Y-67034819D02*
X162539523Y-67034819D01*
X163444285Y-68034819D02*
X162872857Y-68034819D01*
X163158571Y-68034819D02*
X163158571Y-67034819D01*
X163158571Y-67034819D02*
X163063333Y-67177676D01*
X163063333Y-67177676D02*
X162968095Y-67272914D01*
X162968095Y-67272914D02*
X162872857Y-67320533D01*
X127157142Y-91559580D02*
X127109523Y-91607200D01*
X127109523Y-91607200D02*
X126966666Y-91654819D01*
X126966666Y-91654819D02*
X126871428Y-91654819D01*
X126871428Y-91654819D02*
X126728571Y-91607200D01*
X126728571Y-91607200D02*
X126633333Y-91511961D01*
X126633333Y-91511961D02*
X126585714Y-91416723D01*
X126585714Y-91416723D02*
X126538095Y-91226247D01*
X126538095Y-91226247D02*
X126538095Y-91083390D01*
X126538095Y-91083390D02*
X126585714Y-90892914D01*
X126585714Y-90892914D02*
X126633333Y-90797676D01*
X126633333Y-90797676D02*
X126728571Y-90702438D01*
X126728571Y-90702438D02*
X126871428Y-90654819D01*
X126871428Y-90654819D02*
X126966666Y-90654819D01*
X126966666Y-90654819D02*
X127109523Y-90702438D01*
X127109523Y-90702438D02*
X127157142Y-90750057D01*
X127538095Y-90750057D02*
X127585714Y-90702438D01*
X127585714Y-90702438D02*
X127680952Y-90654819D01*
X127680952Y-90654819D02*
X127919047Y-90654819D01*
X127919047Y-90654819D02*
X128014285Y-90702438D01*
X128014285Y-90702438D02*
X128061904Y-90750057D01*
X128061904Y-90750057D02*
X128109523Y-90845295D01*
X128109523Y-90845295D02*
X128109523Y-90940533D01*
X128109523Y-90940533D02*
X128061904Y-91083390D01*
X128061904Y-91083390D02*
X127490476Y-91654819D01*
X127490476Y-91654819D02*
X128109523Y-91654819D01*
X128490476Y-90750057D02*
X128538095Y-90702438D01*
X128538095Y-90702438D02*
X128633333Y-90654819D01*
X128633333Y-90654819D02*
X128871428Y-90654819D01*
X128871428Y-90654819D02*
X128966666Y-90702438D01*
X128966666Y-90702438D02*
X129014285Y-90750057D01*
X129014285Y-90750057D02*
X129061904Y-90845295D01*
X129061904Y-90845295D02*
X129061904Y-90940533D01*
X129061904Y-90940533D02*
X129014285Y-91083390D01*
X129014285Y-91083390D02*
X128442857Y-91654819D01*
X128442857Y-91654819D02*
X129061904Y-91654819D01*
X115677142Y-72539580D02*
X115629523Y-72587200D01*
X115629523Y-72587200D02*
X115486666Y-72634819D01*
X115486666Y-72634819D02*
X115391428Y-72634819D01*
X115391428Y-72634819D02*
X115248571Y-72587200D01*
X115248571Y-72587200D02*
X115153333Y-72491961D01*
X115153333Y-72491961D02*
X115105714Y-72396723D01*
X115105714Y-72396723D02*
X115058095Y-72206247D01*
X115058095Y-72206247D02*
X115058095Y-72063390D01*
X115058095Y-72063390D02*
X115105714Y-71872914D01*
X115105714Y-71872914D02*
X115153333Y-71777676D01*
X115153333Y-71777676D02*
X115248571Y-71682438D01*
X115248571Y-71682438D02*
X115391428Y-71634819D01*
X115391428Y-71634819D02*
X115486666Y-71634819D01*
X115486666Y-71634819D02*
X115629523Y-71682438D01*
X115629523Y-71682438D02*
X115677142Y-71730057D01*
X116058095Y-71730057D02*
X116105714Y-71682438D01*
X116105714Y-71682438D02*
X116200952Y-71634819D01*
X116200952Y-71634819D02*
X116439047Y-71634819D01*
X116439047Y-71634819D02*
X116534285Y-71682438D01*
X116534285Y-71682438D02*
X116581904Y-71730057D01*
X116581904Y-71730057D02*
X116629523Y-71825295D01*
X116629523Y-71825295D02*
X116629523Y-71920533D01*
X116629523Y-71920533D02*
X116581904Y-72063390D01*
X116581904Y-72063390D02*
X116010476Y-72634819D01*
X116010476Y-72634819D02*
X116629523Y-72634819D01*
X117200952Y-72063390D02*
X117105714Y-72015771D01*
X117105714Y-72015771D02*
X117058095Y-71968152D01*
X117058095Y-71968152D02*
X117010476Y-71872914D01*
X117010476Y-71872914D02*
X117010476Y-71825295D01*
X117010476Y-71825295D02*
X117058095Y-71730057D01*
X117058095Y-71730057D02*
X117105714Y-71682438D01*
X117105714Y-71682438D02*
X117200952Y-71634819D01*
X117200952Y-71634819D02*
X117391428Y-71634819D01*
X117391428Y-71634819D02*
X117486666Y-71682438D01*
X117486666Y-71682438D02*
X117534285Y-71730057D01*
X117534285Y-71730057D02*
X117581904Y-71825295D01*
X117581904Y-71825295D02*
X117581904Y-71872914D01*
X117581904Y-71872914D02*
X117534285Y-71968152D01*
X117534285Y-71968152D02*
X117486666Y-72015771D01*
X117486666Y-72015771D02*
X117391428Y-72063390D01*
X117391428Y-72063390D02*
X117200952Y-72063390D01*
X117200952Y-72063390D02*
X117105714Y-72111009D01*
X117105714Y-72111009D02*
X117058095Y-72158628D01*
X117058095Y-72158628D02*
X117010476Y-72253866D01*
X117010476Y-72253866D02*
X117010476Y-72444342D01*
X117010476Y-72444342D02*
X117058095Y-72539580D01*
X117058095Y-72539580D02*
X117105714Y-72587200D01*
X117105714Y-72587200D02*
X117200952Y-72634819D01*
X117200952Y-72634819D02*
X117391428Y-72634819D01*
X117391428Y-72634819D02*
X117486666Y-72587200D01*
X117486666Y-72587200D02*
X117534285Y-72539580D01*
X117534285Y-72539580D02*
X117581904Y-72444342D01*
X117581904Y-72444342D02*
X117581904Y-72253866D01*
X117581904Y-72253866D02*
X117534285Y-72158628D01*
X117534285Y-72158628D02*
X117486666Y-72111009D01*
X117486666Y-72111009D02*
X117391428Y-72063390D01*
X165362557Y-109675238D02*
X165314938Y-109770476D01*
X165314938Y-109770476D02*
X165219700Y-109865714D01*
X165219700Y-109865714D02*
X165076842Y-110008571D01*
X165076842Y-110008571D02*
X165029223Y-110103809D01*
X165029223Y-110103809D02*
X165029223Y-110199047D01*
X165267319Y-110151428D02*
X165219700Y-110246666D01*
X165219700Y-110246666D02*
X165124461Y-110341904D01*
X165124461Y-110341904D02*
X164933985Y-110389523D01*
X164933985Y-110389523D02*
X164600652Y-110389523D01*
X164600652Y-110389523D02*
X164410176Y-110341904D01*
X164410176Y-110341904D02*
X164314938Y-110246666D01*
X164314938Y-110246666D02*
X164267319Y-110151428D01*
X164267319Y-110151428D02*
X164267319Y-109960952D01*
X164267319Y-109960952D02*
X164314938Y-109865714D01*
X164314938Y-109865714D02*
X164410176Y-109770476D01*
X164410176Y-109770476D02*
X164600652Y-109722857D01*
X164600652Y-109722857D02*
X164933985Y-109722857D01*
X164933985Y-109722857D02*
X165124461Y-109770476D01*
X165124461Y-109770476D02*
X165219700Y-109865714D01*
X165219700Y-109865714D02*
X165267319Y-109960952D01*
X165267319Y-109960952D02*
X165267319Y-110151428D01*
X165267319Y-108770476D02*
X165267319Y-109341904D01*
X165267319Y-109056190D02*
X164267319Y-109056190D01*
X164267319Y-109056190D02*
X164410176Y-109151428D01*
X164410176Y-109151428D02*
X164505414Y-109246666D01*
X164505414Y-109246666D02*
X164553033Y-109341904D01*
X158024819Y-89142857D02*
X157548628Y-89476190D01*
X158024819Y-89714285D02*
X157024819Y-89714285D01*
X157024819Y-89714285D02*
X157024819Y-89333333D01*
X157024819Y-89333333D02*
X157072438Y-89238095D01*
X157072438Y-89238095D02*
X157120057Y-89190476D01*
X157120057Y-89190476D02*
X157215295Y-89142857D01*
X157215295Y-89142857D02*
X157358152Y-89142857D01*
X157358152Y-89142857D02*
X157453390Y-89190476D01*
X157453390Y-89190476D02*
X157501009Y-89238095D01*
X157501009Y-89238095D02*
X157548628Y-89333333D01*
X157548628Y-89333333D02*
X157548628Y-89714285D01*
X158024819Y-88190476D02*
X158024819Y-88761904D01*
X158024819Y-88476190D02*
X157024819Y-88476190D01*
X157024819Y-88476190D02*
X157167676Y-88571428D01*
X157167676Y-88571428D02*
X157262914Y-88666666D01*
X157262914Y-88666666D02*
X157310533Y-88761904D01*
X157024819Y-87333333D02*
X157024819Y-87523809D01*
X157024819Y-87523809D02*
X157072438Y-87619047D01*
X157072438Y-87619047D02*
X157120057Y-87666666D01*
X157120057Y-87666666D02*
X157262914Y-87761904D01*
X157262914Y-87761904D02*
X157453390Y-87809523D01*
X157453390Y-87809523D02*
X157834342Y-87809523D01*
X157834342Y-87809523D02*
X157929580Y-87761904D01*
X157929580Y-87761904D02*
X157977200Y-87714285D01*
X157977200Y-87714285D02*
X158024819Y-87619047D01*
X158024819Y-87619047D02*
X158024819Y-87428571D01*
X158024819Y-87428571D02*
X157977200Y-87333333D01*
X157977200Y-87333333D02*
X157929580Y-87285714D01*
X157929580Y-87285714D02*
X157834342Y-87238095D01*
X157834342Y-87238095D02*
X157596247Y-87238095D01*
X157596247Y-87238095D02*
X157501009Y-87285714D01*
X157501009Y-87285714D02*
X157453390Y-87333333D01*
X157453390Y-87333333D02*
X157405771Y-87428571D01*
X157405771Y-87428571D02*
X157405771Y-87619047D01*
X157405771Y-87619047D02*
X157453390Y-87714285D01*
X157453390Y-87714285D02*
X157501009Y-87761904D01*
X157501009Y-87761904D02*
X157596247Y-87809523D01*
X128633333Y-89354819D02*
X128300000Y-88878628D01*
X128061905Y-89354819D02*
X128061905Y-88354819D01*
X128061905Y-88354819D02*
X128442857Y-88354819D01*
X128442857Y-88354819D02*
X128538095Y-88402438D01*
X128538095Y-88402438D02*
X128585714Y-88450057D01*
X128585714Y-88450057D02*
X128633333Y-88545295D01*
X128633333Y-88545295D02*
X128633333Y-88688152D01*
X128633333Y-88688152D02*
X128585714Y-88783390D01*
X128585714Y-88783390D02*
X128538095Y-88831009D01*
X128538095Y-88831009D02*
X128442857Y-88878628D01*
X128442857Y-88878628D02*
X128061905Y-88878628D01*
X129585714Y-89354819D02*
X129014286Y-89354819D01*
X129300000Y-89354819D02*
X129300000Y-88354819D01*
X129300000Y-88354819D02*
X129204762Y-88497676D01*
X129204762Y-88497676D02*
X129109524Y-88592914D01*
X129109524Y-88592914D02*
X129014286Y-88640533D01*
X124614819Y-75813333D02*
X125329104Y-75813333D01*
X125329104Y-75813333D02*
X125471961Y-75860952D01*
X125471961Y-75860952D02*
X125567200Y-75956190D01*
X125567200Y-75956190D02*
X125614819Y-76099047D01*
X125614819Y-76099047D02*
X125614819Y-76194285D01*
X124710057Y-75384761D02*
X124662438Y-75337142D01*
X124662438Y-75337142D02*
X124614819Y-75241904D01*
X124614819Y-75241904D02*
X124614819Y-75003809D01*
X124614819Y-75003809D02*
X124662438Y-74908571D01*
X124662438Y-74908571D02*
X124710057Y-74860952D01*
X124710057Y-74860952D02*
X124805295Y-74813333D01*
X124805295Y-74813333D02*
X124900533Y-74813333D01*
X124900533Y-74813333D02*
X125043390Y-74860952D01*
X125043390Y-74860952D02*
X125614819Y-75432380D01*
X125614819Y-75432380D02*
X125614819Y-74813333D01*
X135366666Y-76254819D02*
X135366666Y-76969104D01*
X135366666Y-76969104D02*
X135319047Y-77111961D01*
X135319047Y-77111961D02*
X135223809Y-77207200D01*
X135223809Y-77207200D02*
X135080952Y-77254819D01*
X135080952Y-77254819D02*
X134985714Y-77254819D01*
X135842857Y-77254819D02*
X135842857Y-76254819D01*
X135842857Y-76254819D02*
X136223809Y-76254819D01*
X136223809Y-76254819D02*
X136319047Y-76302438D01*
X136319047Y-76302438D02*
X136366666Y-76350057D01*
X136366666Y-76350057D02*
X136414285Y-76445295D01*
X136414285Y-76445295D02*
X136414285Y-76588152D01*
X136414285Y-76588152D02*
X136366666Y-76683390D01*
X136366666Y-76683390D02*
X136319047Y-76731009D01*
X136319047Y-76731009D02*
X136223809Y-76778628D01*
X136223809Y-76778628D02*
X135842857Y-76778628D01*
X137366666Y-77254819D02*
X136795238Y-77254819D01*
X137080952Y-77254819D02*
X137080952Y-76254819D01*
X137080952Y-76254819D02*
X136985714Y-76397676D01*
X136985714Y-76397676D02*
X136890476Y-76492914D01*
X136890476Y-76492914D02*
X136795238Y-76540533D01*
X140311905Y-76004819D02*
X140311905Y-75004819D01*
X140311905Y-75004819D02*
X140550000Y-75004819D01*
X140550000Y-75004819D02*
X140692857Y-75052438D01*
X140692857Y-75052438D02*
X140788095Y-75147676D01*
X140788095Y-75147676D02*
X140835714Y-75242914D01*
X140835714Y-75242914D02*
X140883333Y-75433390D01*
X140883333Y-75433390D02*
X140883333Y-75576247D01*
X140883333Y-75576247D02*
X140835714Y-75766723D01*
X140835714Y-75766723D02*
X140788095Y-75861961D01*
X140788095Y-75861961D02*
X140692857Y-75957200D01*
X140692857Y-75957200D02*
X140550000Y-76004819D01*
X140550000Y-76004819D02*
X140311905Y-76004819D01*
X141835714Y-76004819D02*
X141264286Y-76004819D01*
X141550000Y-76004819D02*
X141550000Y-75004819D01*
X141550000Y-75004819D02*
X141454762Y-75147676D01*
X141454762Y-75147676D02*
X141359524Y-75242914D01*
X141359524Y-75242914D02*
X141264286Y-75290533D01*
X148235714Y-74154819D02*
X147664286Y-74154819D01*
X147950000Y-74154819D02*
X147950000Y-73154819D01*
X147950000Y-73154819D02*
X147854762Y-73297676D01*
X147854762Y-73297676D02*
X147759524Y-73392914D01*
X147759524Y-73392914D02*
X147664286Y-73440533D01*
X128533333Y-78754819D02*
X128200000Y-78278628D01*
X127961905Y-78754819D02*
X127961905Y-77754819D01*
X127961905Y-77754819D02*
X128342857Y-77754819D01*
X128342857Y-77754819D02*
X128438095Y-77802438D01*
X128438095Y-77802438D02*
X128485714Y-77850057D01*
X128485714Y-77850057D02*
X128533333Y-77945295D01*
X128533333Y-77945295D02*
X128533333Y-78088152D01*
X128533333Y-78088152D02*
X128485714Y-78183390D01*
X128485714Y-78183390D02*
X128438095Y-78231009D01*
X128438095Y-78231009D02*
X128342857Y-78278628D01*
X128342857Y-78278628D02*
X127961905Y-78278628D01*
X129390476Y-77754819D02*
X129200000Y-77754819D01*
X129200000Y-77754819D02*
X129104762Y-77802438D01*
X129104762Y-77802438D02*
X129057143Y-77850057D01*
X129057143Y-77850057D02*
X128961905Y-77992914D01*
X128961905Y-77992914D02*
X128914286Y-78183390D01*
X128914286Y-78183390D02*
X128914286Y-78564342D01*
X128914286Y-78564342D02*
X128961905Y-78659580D01*
X128961905Y-78659580D02*
X129009524Y-78707200D01*
X129009524Y-78707200D02*
X129104762Y-78754819D01*
X129104762Y-78754819D02*
X129295238Y-78754819D01*
X129295238Y-78754819D02*
X129390476Y-78707200D01*
X129390476Y-78707200D02*
X129438095Y-78659580D01*
X129438095Y-78659580D02*
X129485714Y-78564342D01*
X129485714Y-78564342D02*
X129485714Y-78326247D01*
X129485714Y-78326247D02*
X129438095Y-78231009D01*
X129438095Y-78231009D02*
X129390476Y-78183390D01*
X129390476Y-78183390D02*
X129295238Y-78135771D01*
X129295238Y-78135771D02*
X129104762Y-78135771D01*
X129104762Y-78135771D02*
X129009524Y-78183390D01*
X129009524Y-78183390D02*
X128961905Y-78231009D01*
X128961905Y-78231009D02*
X128914286Y-78326247D01*
X150738095Y-102254819D02*
X150738095Y-103064342D01*
X150738095Y-103064342D02*
X150785714Y-103159580D01*
X150785714Y-103159580D02*
X150833333Y-103207200D01*
X150833333Y-103207200D02*
X150928571Y-103254819D01*
X150928571Y-103254819D02*
X151119047Y-103254819D01*
X151119047Y-103254819D02*
X151214285Y-103207200D01*
X151214285Y-103207200D02*
X151261904Y-103159580D01*
X151261904Y-103159580D02*
X151309523Y-103064342D01*
X151309523Y-103064342D02*
X151309523Y-102254819D01*
X151690476Y-102254819D02*
X152357142Y-102254819D01*
X152357142Y-102254819D02*
X151928571Y-103254819D01*
X141523809Y-100878628D02*
X141523809Y-101354819D01*
X141190476Y-100354819D02*
X141523809Y-100878628D01*
X141523809Y-100878628D02*
X141857142Y-100354819D01*
X142714285Y-101354819D02*
X142142857Y-101354819D01*
X142428571Y-101354819D02*
X142428571Y-100354819D01*
X142428571Y-100354819D02*
X142333333Y-100497676D01*
X142333333Y-100497676D02*
X142238095Y-100592914D01*
X142238095Y-100592914D02*
X142142857Y-100640533D01*
X119357142Y-66724819D02*
X119023809Y-66248628D01*
X118785714Y-66724819D02*
X118785714Y-65724819D01*
X118785714Y-65724819D02*
X119166666Y-65724819D01*
X119166666Y-65724819D02*
X119261904Y-65772438D01*
X119261904Y-65772438D02*
X119309523Y-65820057D01*
X119309523Y-65820057D02*
X119357142Y-65915295D01*
X119357142Y-65915295D02*
X119357142Y-66058152D01*
X119357142Y-66058152D02*
X119309523Y-66153390D01*
X119309523Y-66153390D02*
X119261904Y-66201009D01*
X119261904Y-66201009D02*
X119166666Y-66248628D01*
X119166666Y-66248628D02*
X118785714Y-66248628D01*
X120309523Y-66724819D02*
X119738095Y-66724819D01*
X120023809Y-66724819D02*
X120023809Y-65724819D01*
X120023809Y-65724819D02*
X119928571Y-65867676D01*
X119928571Y-65867676D02*
X119833333Y-65962914D01*
X119833333Y-65962914D02*
X119738095Y-66010533D01*
X121214285Y-65724819D02*
X120738095Y-65724819D01*
X120738095Y-65724819D02*
X120690476Y-66201009D01*
X120690476Y-66201009D02*
X120738095Y-66153390D01*
X120738095Y-66153390D02*
X120833333Y-66105771D01*
X120833333Y-66105771D02*
X121071428Y-66105771D01*
X121071428Y-66105771D02*
X121166666Y-66153390D01*
X121166666Y-66153390D02*
X121214285Y-66201009D01*
X121214285Y-66201009D02*
X121261904Y-66296247D01*
X121261904Y-66296247D02*
X121261904Y-66534342D01*
X121261904Y-66534342D02*
X121214285Y-66629580D01*
X121214285Y-66629580D02*
X121166666Y-66677200D01*
X121166666Y-66677200D02*
X121071428Y-66724819D01*
X121071428Y-66724819D02*
X120833333Y-66724819D01*
X120833333Y-66724819D02*
X120738095Y-66677200D01*
X120738095Y-66677200D02*
X120690476Y-66629580D01*
X153857142Y-91459580D02*
X153809523Y-91507200D01*
X153809523Y-91507200D02*
X153666666Y-91554819D01*
X153666666Y-91554819D02*
X153571428Y-91554819D01*
X153571428Y-91554819D02*
X153428571Y-91507200D01*
X153428571Y-91507200D02*
X153333333Y-91411961D01*
X153333333Y-91411961D02*
X153285714Y-91316723D01*
X153285714Y-91316723D02*
X153238095Y-91126247D01*
X153238095Y-91126247D02*
X153238095Y-90983390D01*
X153238095Y-90983390D02*
X153285714Y-90792914D01*
X153285714Y-90792914D02*
X153333333Y-90697676D01*
X153333333Y-90697676D02*
X153428571Y-90602438D01*
X153428571Y-90602438D02*
X153571428Y-90554819D01*
X153571428Y-90554819D02*
X153666666Y-90554819D01*
X153666666Y-90554819D02*
X153809523Y-90602438D01*
X153809523Y-90602438D02*
X153857142Y-90650057D01*
X154809523Y-91554819D02*
X154238095Y-91554819D01*
X154523809Y-91554819D02*
X154523809Y-90554819D01*
X154523809Y-90554819D02*
X154428571Y-90697676D01*
X154428571Y-90697676D02*
X154333333Y-90792914D01*
X154333333Y-90792914D02*
X154238095Y-90840533D01*
X155142857Y-90554819D02*
X155809523Y-90554819D01*
X155809523Y-90554819D02*
X155380952Y-91554819D01*
X122857142Y-66659580D02*
X122809523Y-66707200D01*
X122809523Y-66707200D02*
X122666666Y-66754819D01*
X122666666Y-66754819D02*
X122571428Y-66754819D01*
X122571428Y-66754819D02*
X122428571Y-66707200D01*
X122428571Y-66707200D02*
X122333333Y-66611961D01*
X122333333Y-66611961D02*
X122285714Y-66516723D01*
X122285714Y-66516723D02*
X122238095Y-66326247D01*
X122238095Y-66326247D02*
X122238095Y-66183390D01*
X122238095Y-66183390D02*
X122285714Y-65992914D01*
X122285714Y-65992914D02*
X122333333Y-65897676D01*
X122333333Y-65897676D02*
X122428571Y-65802438D01*
X122428571Y-65802438D02*
X122571428Y-65754819D01*
X122571428Y-65754819D02*
X122666666Y-65754819D01*
X122666666Y-65754819D02*
X122809523Y-65802438D01*
X122809523Y-65802438D02*
X122857142Y-65850057D01*
X123238095Y-65850057D02*
X123285714Y-65802438D01*
X123285714Y-65802438D02*
X123380952Y-65754819D01*
X123380952Y-65754819D02*
X123619047Y-65754819D01*
X123619047Y-65754819D02*
X123714285Y-65802438D01*
X123714285Y-65802438D02*
X123761904Y-65850057D01*
X123761904Y-65850057D02*
X123809523Y-65945295D01*
X123809523Y-65945295D02*
X123809523Y-66040533D01*
X123809523Y-66040533D02*
X123761904Y-66183390D01*
X123761904Y-66183390D02*
X123190476Y-66754819D01*
X123190476Y-66754819D02*
X123809523Y-66754819D01*
X124666666Y-66088152D02*
X124666666Y-66754819D01*
X124428571Y-65707200D02*
X124190476Y-66421485D01*
X124190476Y-66421485D02*
X124809523Y-66421485D01*
X151834819Y-72536666D02*
X151358628Y-72869999D01*
X151834819Y-73108094D02*
X150834819Y-73108094D01*
X150834819Y-73108094D02*
X150834819Y-72727142D01*
X150834819Y-72727142D02*
X150882438Y-72631904D01*
X150882438Y-72631904D02*
X150930057Y-72584285D01*
X150930057Y-72584285D02*
X151025295Y-72536666D01*
X151025295Y-72536666D02*
X151168152Y-72536666D01*
X151168152Y-72536666D02*
X151263390Y-72584285D01*
X151263390Y-72584285D02*
X151311009Y-72631904D01*
X151311009Y-72631904D02*
X151358628Y-72727142D01*
X151358628Y-72727142D02*
X151358628Y-73108094D01*
X151168152Y-71679523D02*
X151834819Y-71679523D01*
X150787200Y-71917618D02*
X151501485Y-72155713D01*
X151501485Y-72155713D02*
X151501485Y-71536666D01*
X147061905Y-109454819D02*
X147061905Y-108454819D01*
X147061905Y-108454819D02*
X147300000Y-108454819D01*
X147300000Y-108454819D02*
X147442857Y-108502438D01*
X147442857Y-108502438D02*
X147538095Y-108597676D01*
X147538095Y-108597676D02*
X147585714Y-108692914D01*
X147585714Y-108692914D02*
X147633333Y-108883390D01*
X147633333Y-108883390D02*
X147633333Y-109026247D01*
X147633333Y-109026247D02*
X147585714Y-109216723D01*
X147585714Y-109216723D02*
X147538095Y-109311961D01*
X147538095Y-109311961D02*
X147442857Y-109407200D01*
X147442857Y-109407200D02*
X147300000Y-109454819D01*
X147300000Y-109454819D02*
X147061905Y-109454819D01*
X148204762Y-108883390D02*
X148109524Y-108835771D01*
X148109524Y-108835771D02*
X148061905Y-108788152D01*
X148061905Y-108788152D02*
X148014286Y-108692914D01*
X148014286Y-108692914D02*
X148014286Y-108645295D01*
X148014286Y-108645295D02*
X148061905Y-108550057D01*
X148061905Y-108550057D02*
X148109524Y-108502438D01*
X148109524Y-108502438D02*
X148204762Y-108454819D01*
X148204762Y-108454819D02*
X148395238Y-108454819D01*
X148395238Y-108454819D02*
X148490476Y-108502438D01*
X148490476Y-108502438D02*
X148538095Y-108550057D01*
X148538095Y-108550057D02*
X148585714Y-108645295D01*
X148585714Y-108645295D02*
X148585714Y-108692914D01*
X148585714Y-108692914D02*
X148538095Y-108788152D01*
X148538095Y-108788152D02*
X148490476Y-108835771D01*
X148490476Y-108835771D02*
X148395238Y-108883390D01*
X148395238Y-108883390D02*
X148204762Y-108883390D01*
X148204762Y-108883390D02*
X148109524Y-108931009D01*
X148109524Y-108931009D02*
X148061905Y-108978628D01*
X148061905Y-108978628D02*
X148014286Y-109073866D01*
X148014286Y-109073866D02*
X148014286Y-109264342D01*
X148014286Y-109264342D02*
X148061905Y-109359580D01*
X148061905Y-109359580D02*
X148109524Y-109407200D01*
X148109524Y-109407200D02*
X148204762Y-109454819D01*
X148204762Y-109454819D02*
X148395238Y-109454819D01*
X148395238Y-109454819D02*
X148490476Y-109407200D01*
X148490476Y-109407200D02*
X148538095Y-109359580D01*
X148538095Y-109359580D02*
X148585714Y-109264342D01*
X148585714Y-109264342D02*
X148585714Y-109073866D01*
X148585714Y-109073866D02*
X148538095Y-108978628D01*
X148538095Y-108978628D02*
X148490476Y-108931009D01*
X148490476Y-108931009D02*
X148395238Y-108883390D01*
X141204819Y-67473333D02*
X141919104Y-67473333D01*
X141919104Y-67473333D02*
X142061961Y-67520952D01*
X142061961Y-67520952D02*
X142157200Y-67616190D01*
X142157200Y-67616190D02*
X142204819Y-67759047D01*
X142204819Y-67759047D02*
X142204819Y-67854285D01*
X141204819Y-67092380D02*
X141204819Y-66473333D01*
X141204819Y-66473333D02*
X141585771Y-66806666D01*
X141585771Y-66806666D02*
X141585771Y-66663809D01*
X141585771Y-66663809D02*
X141633390Y-66568571D01*
X141633390Y-66568571D02*
X141681009Y-66520952D01*
X141681009Y-66520952D02*
X141776247Y-66473333D01*
X141776247Y-66473333D02*
X142014342Y-66473333D01*
X142014342Y-66473333D02*
X142109580Y-66520952D01*
X142109580Y-66520952D02*
X142157200Y-66568571D01*
X142157200Y-66568571D02*
X142204819Y-66663809D01*
X142204819Y-66663809D02*
X142204819Y-66949523D01*
X142204819Y-66949523D02*
X142157200Y-67044761D01*
X142157200Y-67044761D02*
X142109580Y-67092380D01*
X136657142Y-94159580D02*
X136609523Y-94207200D01*
X136609523Y-94207200D02*
X136466666Y-94254819D01*
X136466666Y-94254819D02*
X136371428Y-94254819D01*
X136371428Y-94254819D02*
X136228571Y-94207200D01*
X136228571Y-94207200D02*
X136133333Y-94111961D01*
X136133333Y-94111961D02*
X136085714Y-94016723D01*
X136085714Y-94016723D02*
X136038095Y-93826247D01*
X136038095Y-93826247D02*
X136038095Y-93683390D01*
X136038095Y-93683390D02*
X136085714Y-93492914D01*
X136085714Y-93492914D02*
X136133333Y-93397676D01*
X136133333Y-93397676D02*
X136228571Y-93302438D01*
X136228571Y-93302438D02*
X136371428Y-93254819D01*
X136371428Y-93254819D02*
X136466666Y-93254819D01*
X136466666Y-93254819D02*
X136609523Y-93302438D01*
X136609523Y-93302438D02*
X136657142Y-93350057D01*
X137609523Y-94254819D02*
X137038095Y-94254819D01*
X137323809Y-94254819D02*
X137323809Y-93254819D01*
X137323809Y-93254819D02*
X137228571Y-93397676D01*
X137228571Y-93397676D02*
X137133333Y-93492914D01*
X137133333Y-93492914D02*
X137038095Y-93540533D01*
X138085714Y-94254819D02*
X138276190Y-94254819D01*
X138276190Y-94254819D02*
X138371428Y-94207200D01*
X138371428Y-94207200D02*
X138419047Y-94159580D01*
X138419047Y-94159580D02*
X138514285Y-94016723D01*
X138514285Y-94016723D02*
X138561904Y-93826247D01*
X138561904Y-93826247D02*
X138561904Y-93445295D01*
X138561904Y-93445295D02*
X138514285Y-93350057D01*
X138514285Y-93350057D02*
X138466666Y-93302438D01*
X138466666Y-93302438D02*
X138371428Y-93254819D01*
X138371428Y-93254819D02*
X138180952Y-93254819D01*
X138180952Y-93254819D02*
X138085714Y-93302438D01*
X138085714Y-93302438D02*
X138038095Y-93350057D01*
X138038095Y-93350057D02*
X137990476Y-93445295D01*
X137990476Y-93445295D02*
X137990476Y-93683390D01*
X137990476Y-93683390D02*
X138038095Y-93778628D01*
X138038095Y-93778628D02*
X138085714Y-93826247D01*
X138085714Y-93826247D02*
X138180952Y-93873866D01*
X138180952Y-93873866D02*
X138371428Y-93873866D01*
X138371428Y-93873866D02*
X138466666Y-93826247D01*
X138466666Y-93826247D02*
X138514285Y-93778628D01*
X138514285Y-93778628D02*
X138561904Y-93683390D01*
X141159580Y-98942857D02*
X141207200Y-98990476D01*
X141207200Y-98990476D02*
X141254819Y-99133333D01*
X141254819Y-99133333D02*
X141254819Y-99228571D01*
X141254819Y-99228571D02*
X141207200Y-99371428D01*
X141207200Y-99371428D02*
X141111961Y-99466666D01*
X141111961Y-99466666D02*
X141016723Y-99514285D01*
X141016723Y-99514285D02*
X140826247Y-99561904D01*
X140826247Y-99561904D02*
X140683390Y-99561904D01*
X140683390Y-99561904D02*
X140492914Y-99514285D01*
X140492914Y-99514285D02*
X140397676Y-99466666D01*
X140397676Y-99466666D02*
X140302438Y-99371428D01*
X140302438Y-99371428D02*
X140254819Y-99228571D01*
X140254819Y-99228571D02*
X140254819Y-99133333D01*
X140254819Y-99133333D02*
X140302438Y-98990476D01*
X140302438Y-98990476D02*
X140350057Y-98942857D01*
X141254819Y-97990476D02*
X141254819Y-98561904D01*
X141254819Y-98276190D02*
X140254819Y-98276190D01*
X140254819Y-98276190D02*
X140397676Y-98371428D01*
X140397676Y-98371428D02*
X140492914Y-98466666D01*
X140492914Y-98466666D02*
X140540533Y-98561904D01*
X140254819Y-97371428D02*
X140254819Y-97276190D01*
X140254819Y-97276190D02*
X140302438Y-97180952D01*
X140302438Y-97180952D02*
X140350057Y-97133333D01*
X140350057Y-97133333D02*
X140445295Y-97085714D01*
X140445295Y-97085714D02*
X140635771Y-97038095D01*
X140635771Y-97038095D02*
X140873866Y-97038095D01*
X140873866Y-97038095D02*
X141064342Y-97085714D01*
X141064342Y-97085714D02*
X141159580Y-97133333D01*
X141159580Y-97133333D02*
X141207200Y-97180952D01*
X141207200Y-97180952D02*
X141254819Y-97276190D01*
X141254819Y-97276190D02*
X141254819Y-97371428D01*
X141254819Y-97371428D02*
X141207200Y-97466666D01*
X141207200Y-97466666D02*
X141159580Y-97514285D01*
X141159580Y-97514285D02*
X141064342Y-97561904D01*
X141064342Y-97561904D02*
X140873866Y-97609523D01*
X140873866Y-97609523D02*
X140635771Y-97609523D01*
X140635771Y-97609523D02*
X140445295Y-97561904D01*
X140445295Y-97561904D02*
X140350057Y-97514285D01*
X140350057Y-97514285D02*
X140302438Y-97466666D01*
X140302438Y-97466666D02*
X140254819Y-97371428D01*
X123117142Y-64064819D02*
X122783809Y-63588628D01*
X122545714Y-64064819D02*
X122545714Y-63064819D01*
X122545714Y-63064819D02*
X122926666Y-63064819D01*
X122926666Y-63064819D02*
X123021904Y-63112438D01*
X123021904Y-63112438D02*
X123069523Y-63160057D01*
X123069523Y-63160057D02*
X123117142Y-63255295D01*
X123117142Y-63255295D02*
X123117142Y-63398152D01*
X123117142Y-63398152D02*
X123069523Y-63493390D01*
X123069523Y-63493390D02*
X123021904Y-63541009D01*
X123021904Y-63541009D02*
X122926666Y-63588628D01*
X122926666Y-63588628D02*
X122545714Y-63588628D01*
X124069523Y-64064819D02*
X123498095Y-64064819D01*
X123783809Y-64064819D02*
X123783809Y-63064819D01*
X123783809Y-63064819D02*
X123688571Y-63207676D01*
X123688571Y-63207676D02*
X123593333Y-63302914D01*
X123593333Y-63302914D02*
X123498095Y-63350533D01*
X124402857Y-63064819D02*
X125069523Y-63064819D01*
X125069523Y-63064819D02*
X124640952Y-64064819D01*
X116514285Y-76331009D02*
X116657142Y-76378628D01*
X116657142Y-76378628D02*
X116704761Y-76426247D01*
X116704761Y-76426247D02*
X116752380Y-76521485D01*
X116752380Y-76521485D02*
X116752380Y-76664342D01*
X116752380Y-76664342D02*
X116704761Y-76759580D01*
X116704761Y-76759580D02*
X116657142Y-76807200D01*
X116657142Y-76807200D02*
X116561904Y-76854819D01*
X116561904Y-76854819D02*
X116180952Y-76854819D01*
X116180952Y-76854819D02*
X116180952Y-75854819D01*
X116180952Y-75854819D02*
X116514285Y-75854819D01*
X116514285Y-75854819D02*
X116609523Y-75902438D01*
X116609523Y-75902438D02*
X116657142Y-75950057D01*
X116657142Y-75950057D02*
X116704761Y-76045295D01*
X116704761Y-76045295D02*
X116704761Y-76140533D01*
X116704761Y-76140533D02*
X116657142Y-76235771D01*
X116657142Y-76235771D02*
X116609523Y-76283390D01*
X116609523Y-76283390D02*
X116514285Y-76331009D01*
X116514285Y-76331009D02*
X116180952Y-76331009D01*
X117038095Y-75854819D02*
X117609523Y-75854819D01*
X117323809Y-76854819D02*
X117323809Y-75854819D01*
X118466666Y-76854819D02*
X117895238Y-76854819D01*
X118180952Y-76854819D02*
X118180952Y-75854819D01*
X118180952Y-75854819D02*
X118085714Y-75997676D01*
X118085714Y-75997676D02*
X117990476Y-76092914D01*
X117990476Y-76092914D02*
X117895238Y-76140533D01*
X161697142Y-102544819D02*
X161363809Y-102068628D01*
X161125714Y-102544819D02*
X161125714Y-101544819D01*
X161125714Y-101544819D02*
X161506666Y-101544819D01*
X161506666Y-101544819D02*
X161601904Y-101592438D01*
X161601904Y-101592438D02*
X161649523Y-101640057D01*
X161649523Y-101640057D02*
X161697142Y-101735295D01*
X161697142Y-101735295D02*
X161697142Y-101878152D01*
X161697142Y-101878152D02*
X161649523Y-101973390D01*
X161649523Y-101973390D02*
X161601904Y-102021009D01*
X161601904Y-102021009D02*
X161506666Y-102068628D01*
X161506666Y-102068628D02*
X161125714Y-102068628D01*
X162649523Y-102544819D02*
X162078095Y-102544819D01*
X162363809Y-102544819D02*
X162363809Y-101544819D01*
X162363809Y-101544819D02*
X162268571Y-101687676D01*
X162268571Y-101687676D02*
X162173333Y-101782914D01*
X162173333Y-101782914D02*
X162078095Y-101830533D01*
X162982857Y-101544819D02*
X163601904Y-101544819D01*
X163601904Y-101544819D02*
X163268571Y-101925771D01*
X163268571Y-101925771D02*
X163411428Y-101925771D01*
X163411428Y-101925771D02*
X163506666Y-101973390D01*
X163506666Y-101973390D02*
X163554285Y-102021009D01*
X163554285Y-102021009D02*
X163601904Y-102116247D01*
X163601904Y-102116247D02*
X163601904Y-102354342D01*
X163601904Y-102354342D02*
X163554285Y-102449580D01*
X163554285Y-102449580D02*
X163506666Y-102497200D01*
X163506666Y-102497200D02*
X163411428Y-102544819D01*
X163411428Y-102544819D02*
X163125714Y-102544819D01*
X163125714Y-102544819D02*
X163030476Y-102497200D01*
X163030476Y-102497200D02*
X162982857Y-102449580D01*
X132838095Y-78654819D02*
X132838095Y-79464342D01*
X132838095Y-79464342D02*
X132885714Y-79559580D01*
X132885714Y-79559580D02*
X132933333Y-79607200D01*
X132933333Y-79607200D02*
X133028571Y-79654819D01*
X133028571Y-79654819D02*
X133219047Y-79654819D01*
X133219047Y-79654819D02*
X133314285Y-79607200D01*
X133314285Y-79607200D02*
X133361904Y-79559580D01*
X133361904Y-79559580D02*
X133409523Y-79464342D01*
X133409523Y-79464342D02*
X133409523Y-78654819D01*
X133838095Y-78750057D02*
X133885714Y-78702438D01*
X133885714Y-78702438D02*
X133980952Y-78654819D01*
X133980952Y-78654819D02*
X134219047Y-78654819D01*
X134219047Y-78654819D02*
X134314285Y-78702438D01*
X134314285Y-78702438D02*
X134361904Y-78750057D01*
X134361904Y-78750057D02*
X134409523Y-78845295D01*
X134409523Y-78845295D02*
X134409523Y-78940533D01*
X134409523Y-78940533D02*
X134361904Y-79083390D01*
X134361904Y-79083390D02*
X133790476Y-79654819D01*
X133790476Y-79654819D02*
X134409523Y-79654819D01*
X148284819Y-69103333D02*
X148999104Y-69103333D01*
X148999104Y-69103333D02*
X149141961Y-69150952D01*
X149141961Y-69150952D02*
X149237200Y-69246190D01*
X149237200Y-69246190D02*
X149284819Y-69389047D01*
X149284819Y-69389047D02*
X149284819Y-69484285D01*
X149284819Y-68103333D02*
X149284819Y-68674761D01*
X149284819Y-68389047D02*
X148284819Y-68389047D01*
X148284819Y-68389047D02*
X148427676Y-68484285D01*
X148427676Y-68484285D02*
X148522914Y-68579523D01*
X148522914Y-68579523D02*
X148570533Y-68674761D01*
X134357142Y-88959580D02*
X134309523Y-89007200D01*
X134309523Y-89007200D02*
X134166666Y-89054819D01*
X134166666Y-89054819D02*
X134071428Y-89054819D01*
X134071428Y-89054819D02*
X133928571Y-89007200D01*
X133928571Y-89007200D02*
X133833333Y-88911961D01*
X133833333Y-88911961D02*
X133785714Y-88816723D01*
X133785714Y-88816723D02*
X133738095Y-88626247D01*
X133738095Y-88626247D02*
X133738095Y-88483390D01*
X133738095Y-88483390D02*
X133785714Y-88292914D01*
X133785714Y-88292914D02*
X133833333Y-88197676D01*
X133833333Y-88197676D02*
X133928571Y-88102438D01*
X133928571Y-88102438D02*
X134071428Y-88054819D01*
X134071428Y-88054819D02*
X134166666Y-88054819D01*
X134166666Y-88054819D02*
X134309523Y-88102438D01*
X134309523Y-88102438D02*
X134357142Y-88150057D01*
X135309523Y-89054819D02*
X134738095Y-89054819D01*
X135023809Y-89054819D02*
X135023809Y-88054819D01*
X135023809Y-88054819D02*
X134928571Y-88197676D01*
X134928571Y-88197676D02*
X134833333Y-88292914D01*
X134833333Y-88292914D02*
X134738095Y-88340533D01*
X136214285Y-88054819D02*
X135738095Y-88054819D01*
X135738095Y-88054819D02*
X135690476Y-88531009D01*
X135690476Y-88531009D02*
X135738095Y-88483390D01*
X135738095Y-88483390D02*
X135833333Y-88435771D01*
X135833333Y-88435771D02*
X136071428Y-88435771D01*
X136071428Y-88435771D02*
X136166666Y-88483390D01*
X136166666Y-88483390D02*
X136214285Y-88531009D01*
X136214285Y-88531009D02*
X136261904Y-88626247D01*
X136261904Y-88626247D02*
X136261904Y-88864342D01*
X136261904Y-88864342D02*
X136214285Y-88959580D01*
X136214285Y-88959580D02*
X136166666Y-89007200D01*
X136166666Y-89007200D02*
X136071428Y-89054819D01*
X136071428Y-89054819D02*
X135833333Y-89054819D01*
X135833333Y-89054819D02*
X135738095Y-89007200D01*
X135738095Y-89007200D02*
X135690476Y-88959580D01*
X116557142Y-99609580D02*
X116509523Y-99657200D01*
X116509523Y-99657200D02*
X116366666Y-99704819D01*
X116366666Y-99704819D02*
X116271428Y-99704819D01*
X116271428Y-99704819D02*
X116128571Y-99657200D01*
X116128571Y-99657200D02*
X116033333Y-99561961D01*
X116033333Y-99561961D02*
X115985714Y-99466723D01*
X115985714Y-99466723D02*
X115938095Y-99276247D01*
X115938095Y-99276247D02*
X115938095Y-99133390D01*
X115938095Y-99133390D02*
X115985714Y-98942914D01*
X115985714Y-98942914D02*
X116033333Y-98847676D01*
X116033333Y-98847676D02*
X116128571Y-98752438D01*
X116128571Y-98752438D02*
X116271428Y-98704819D01*
X116271428Y-98704819D02*
X116366666Y-98704819D01*
X116366666Y-98704819D02*
X116509523Y-98752438D01*
X116509523Y-98752438D02*
X116557142Y-98800057D01*
X116938095Y-98800057D02*
X116985714Y-98752438D01*
X116985714Y-98752438D02*
X117080952Y-98704819D01*
X117080952Y-98704819D02*
X117319047Y-98704819D01*
X117319047Y-98704819D02*
X117414285Y-98752438D01*
X117414285Y-98752438D02*
X117461904Y-98800057D01*
X117461904Y-98800057D02*
X117509523Y-98895295D01*
X117509523Y-98895295D02*
X117509523Y-98990533D01*
X117509523Y-98990533D02*
X117461904Y-99133390D01*
X117461904Y-99133390D02*
X116890476Y-99704819D01*
X116890476Y-99704819D02*
X117509523Y-99704819D01*
X118414285Y-98704819D02*
X117938095Y-98704819D01*
X117938095Y-98704819D02*
X117890476Y-99181009D01*
X117890476Y-99181009D02*
X117938095Y-99133390D01*
X117938095Y-99133390D02*
X118033333Y-99085771D01*
X118033333Y-99085771D02*
X118271428Y-99085771D01*
X118271428Y-99085771D02*
X118366666Y-99133390D01*
X118366666Y-99133390D02*
X118414285Y-99181009D01*
X118414285Y-99181009D02*
X118461904Y-99276247D01*
X118461904Y-99276247D02*
X118461904Y-99514342D01*
X118461904Y-99514342D02*
X118414285Y-99609580D01*
X118414285Y-99609580D02*
X118366666Y-99657200D01*
X118366666Y-99657200D02*
X118271428Y-99704819D01*
X118271428Y-99704819D02*
X118033333Y-99704819D01*
X118033333Y-99704819D02*
X117938095Y-99657200D01*
X117938095Y-99657200D02*
X117890476Y-99609580D01*
X162652380Y-113962295D02*
X163147618Y-113962295D01*
X163147618Y-113962295D02*
X162880952Y-114267057D01*
X162880952Y-114267057D02*
X162995237Y-114267057D01*
X162995237Y-114267057D02*
X163071428Y-114305152D01*
X163071428Y-114305152D02*
X163109523Y-114343247D01*
X163109523Y-114343247D02*
X163147618Y-114419438D01*
X163147618Y-114419438D02*
X163147618Y-114609914D01*
X163147618Y-114609914D02*
X163109523Y-114686104D01*
X163109523Y-114686104D02*
X163071428Y-114724200D01*
X163071428Y-114724200D02*
X162995237Y-114762295D01*
X162995237Y-114762295D02*
X162766666Y-114762295D01*
X162766666Y-114762295D02*
X162690475Y-114724200D01*
X162690475Y-114724200D02*
X162652380Y-114686104D01*
X163452380Y-114038485D02*
X163490476Y-114000390D01*
X163490476Y-114000390D02*
X163566666Y-113962295D01*
X163566666Y-113962295D02*
X163757142Y-113962295D01*
X163757142Y-113962295D02*
X163833333Y-114000390D01*
X163833333Y-114000390D02*
X163871428Y-114038485D01*
X163871428Y-114038485D02*
X163909523Y-114114676D01*
X163909523Y-114114676D02*
X163909523Y-114190866D01*
X163909523Y-114190866D02*
X163871428Y-114305152D01*
X163871428Y-114305152D02*
X163414285Y-114762295D01*
X163414285Y-114762295D02*
X163909523Y-114762295D01*
X116428571Y-114762295D02*
X115971428Y-114762295D01*
X116200000Y-114762295D02*
X116200000Y-113962295D01*
X116200000Y-113962295D02*
X116123809Y-114076580D01*
X116123809Y-114076580D02*
X116047619Y-114152771D01*
X116047619Y-114152771D02*
X115971428Y-114190866D01*
X117311905Y-96254819D02*
X117311905Y-95254819D01*
X117311905Y-95254819D02*
X117550000Y-95254819D01*
X117550000Y-95254819D02*
X117692857Y-95302438D01*
X117692857Y-95302438D02*
X117788095Y-95397676D01*
X117788095Y-95397676D02*
X117835714Y-95492914D01*
X117835714Y-95492914D02*
X117883333Y-95683390D01*
X117883333Y-95683390D02*
X117883333Y-95826247D01*
X117883333Y-95826247D02*
X117835714Y-96016723D01*
X117835714Y-96016723D02*
X117788095Y-96111961D01*
X117788095Y-96111961D02*
X117692857Y-96207200D01*
X117692857Y-96207200D02*
X117550000Y-96254819D01*
X117550000Y-96254819D02*
X117311905Y-96254819D01*
X118216667Y-95254819D02*
X118835714Y-95254819D01*
X118835714Y-95254819D02*
X118502381Y-95635771D01*
X118502381Y-95635771D02*
X118645238Y-95635771D01*
X118645238Y-95635771D02*
X118740476Y-95683390D01*
X118740476Y-95683390D02*
X118788095Y-95731009D01*
X118788095Y-95731009D02*
X118835714Y-95826247D01*
X118835714Y-95826247D02*
X118835714Y-96064342D01*
X118835714Y-96064342D02*
X118788095Y-96159580D01*
X118788095Y-96159580D02*
X118740476Y-96207200D01*
X118740476Y-96207200D02*
X118645238Y-96254819D01*
X118645238Y-96254819D02*
X118359524Y-96254819D01*
X118359524Y-96254819D02*
X118264286Y-96207200D01*
X118264286Y-96207200D02*
X118216667Y-96159580D01*
X146659580Y-100066666D02*
X146707200Y-100114285D01*
X146707200Y-100114285D02*
X146754819Y-100257142D01*
X146754819Y-100257142D02*
X146754819Y-100352380D01*
X146754819Y-100352380D02*
X146707200Y-100495237D01*
X146707200Y-100495237D02*
X146611961Y-100590475D01*
X146611961Y-100590475D02*
X146516723Y-100638094D01*
X146516723Y-100638094D02*
X146326247Y-100685713D01*
X146326247Y-100685713D02*
X146183390Y-100685713D01*
X146183390Y-100685713D02*
X145992914Y-100638094D01*
X145992914Y-100638094D02*
X145897676Y-100590475D01*
X145897676Y-100590475D02*
X145802438Y-100495237D01*
X145802438Y-100495237D02*
X145754819Y-100352380D01*
X145754819Y-100352380D02*
X145754819Y-100257142D01*
X145754819Y-100257142D02*
X145802438Y-100114285D01*
X145802438Y-100114285D02*
X145850057Y-100066666D01*
X146183390Y-99495237D02*
X146135771Y-99590475D01*
X146135771Y-99590475D02*
X146088152Y-99638094D01*
X146088152Y-99638094D02*
X145992914Y-99685713D01*
X145992914Y-99685713D02*
X145945295Y-99685713D01*
X145945295Y-99685713D02*
X145850057Y-99638094D01*
X145850057Y-99638094D02*
X145802438Y-99590475D01*
X145802438Y-99590475D02*
X145754819Y-99495237D01*
X145754819Y-99495237D02*
X145754819Y-99304761D01*
X145754819Y-99304761D02*
X145802438Y-99209523D01*
X145802438Y-99209523D02*
X145850057Y-99161904D01*
X145850057Y-99161904D02*
X145945295Y-99114285D01*
X145945295Y-99114285D02*
X145992914Y-99114285D01*
X145992914Y-99114285D02*
X146088152Y-99161904D01*
X146088152Y-99161904D02*
X146135771Y-99209523D01*
X146135771Y-99209523D02*
X146183390Y-99304761D01*
X146183390Y-99304761D02*
X146183390Y-99495237D01*
X146183390Y-99495237D02*
X146231009Y-99590475D01*
X146231009Y-99590475D02*
X146278628Y-99638094D01*
X146278628Y-99638094D02*
X146373866Y-99685713D01*
X146373866Y-99685713D02*
X146564342Y-99685713D01*
X146564342Y-99685713D02*
X146659580Y-99638094D01*
X146659580Y-99638094D02*
X146707200Y-99590475D01*
X146707200Y-99590475D02*
X146754819Y-99495237D01*
X146754819Y-99495237D02*
X146754819Y-99304761D01*
X146754819Y-99304761D02*
X146707200Y-99209523D01*
X146707200Y-99209523D02*
X146659580Y-99161904D01*
X146659580Y-99161904D02*
X146564342Y-99114285D01*
X146564342Y-99114285D02*
X146373866Y-99114285D01*
X146373866Y-99114285D02*
X146278628Y-99161904D01*
X146278628Y-99161904D02*
X146231009Y-99209523D01*
X146231009Y-99209523D02*
X146183390Y-99304761D01*
X126861905Y-109354819D02*
X126861905Y-108354819D01*
X126861905Y-108354819D02*
X127100000Y-108354819D01*
X127100000Y-108354819D02*
X127242857Y-108402438D01*
X127242857Y-108402438D02*
X127338095Y-108497676D01*
X127338095Y-108497676D02*
X127385714Y-108592914D01*
X127385714Y-108592914D02*
X127433333Y-108783390D01*
X127433333Y-108783390D02*
X127433333Y-108926247D01*
X127433333Y-108926247D02*
X127385714Y-109116723D01*
X127385714Y-109116723D02*
X127338095Y-109211961D01*
X127338095Y-109211961D02*
X127242857Y-109307200D01*
X127242857Y-109307200D02*
X127100000Y-109354819D01*
X127100000Y-109354819D02*
X126861905Y-109354819D01*
X127766667Y-108354819D02*
X128433333Y-108354819D01*
X128433333Y-108354819D02*
X128004762Y-109354819D01*
X147524819Y-79042857D02*
X147048628Y-79376190D01*
X147524819Y-79614285D02*
X146524819Y-79614285D01*
X146524819Y-79614285D02*
X146524819Y-79233333D01*
X146524819Y-79233333D02*
X146572438Y-79138095D01*
X146572438Y-79138095D02*
X146620057Y-79090476D01*
X146620057Y-79090476D02*
X146715295Y-79042857D01*
X146715295Y-79042857D02*
X146858152Y-79042857D01*
X146858152Y-79042857D02*
X146953390Y-79090476D01*
X146953390Y-79090476D02*
X147001009Y-79138095D01*
X147001009Y-79138095D02*
X147048628Y-79233333D01*
X147048628Y-79233333D02*
X147048628Y-79614285D01*
X147524819Y-78090476D02*
X147524819Y-78661904D01*
X147524819Y-78376190D02*
X146524819Y-78376190D01*
X146524819Y-78376190D02*
X146667676Y-78471428D01*
X146667676Y-78471428D02*
X146762914Y-78566666D01*
X146762914Y-78566666D02*
X146810533Y-78661904D01*
X147524819Y-77138095D02*
X147524819Y-77709523D01*
X147524819Y-77423809D02*
X146524819Y-77423809D01*
X146524819Y-77423809D02*
X146667676Y-77519047D01*
X146667676Y-77519047D02*
X146762914Y-77614285D01*
X146762914Y-77614285D02*
X146810533Y-77709523D01*
X132061905Y-109354819D02*
X132061905Y-108354819D01*
X132061905Y-108354819D02*
X132300000Y-108354819D01*
X132300000Y-108354819D02*
X132442857Y-108402438D01*
X132442857Y-108402438D02*
X132538095Y-108497676D01*
X132538095Y-108497676D02*
X132585714Y-108592914D01*
X132585714Y-108592914D02*
X132633333Y-108783390D01*
X132633333Y-108783390D02*
X132633333Y-108926247D01*
X132633333Y-108926247D02*
X132585714Y-109116723D01*
X132585714Y-109116723D02*
X132538095Y-109211961D01*
X132538095Y-109211961D02*
X132442857Y-109307200D01*
X132442857Y-109307200D02*
X132300000Y-109354819D01*
X132300000Y-109354819D02*
X132061905Y-109354819D01*
X133490476Y-108688152D02*
X133490476Y-109354819D01*
X133252381Y-108307200D02*
X133014286Y-109021485D01*
X133014286Y-109021485D02*
X133633333Y-109021485D01*
X120088095Y-72534819D02*
X120088095Y-73344342D01*
X120088095Y-73344342D02*
X120135714Y-73439580D01*
X120135714Y-73439580D02*
X120183333Y-73487200D01*
X120183333Y-73487200D02*
X120278571Y-73534819D01*
X120278571Y-73534819D02*
X120469047Y-73534819D01*
X120469047Y-73534819D02*
X120564285Y-73487200D01*
X120564285Y-73487200D02*
X120611904Y-73439580D01*
X120611904Y-73439580D02*
X120659523Y-73344342D01*
X120659523Y-73344342D02*
X120659523Y-72534819D01*
X121611904Y-72534819D02*
X121135714Y-72534819D01*
X121135714Y-72534819D02*
X121088095Y-73011009D01*
X121088095Y-73011009D02*
X121135714Y-72963390D01*
X121135714Y-72963390D02*
X121230952Y-72915771D01*
X121230952Y-72915771D02*
X121469047Y-72915771D01*
X121469047Y-72915771D02*
X121564285Y-72963390D01*
X121564285Y-72963390D02*
X121611904Y-73011009D01*
X121611904Y-73011009D02*
X121659523Y-73106247D01*
X121659523Y-73106247D02*
X121659523Y-73344342D01*
X121659523Y-73344342D02*
X121611904Y-73439580D01*
X121611904Y-73439580D02*
X121564285Y-73487200D01*
X121564285Y-73487200D02*
X121469047Y-73534819D01*
X121469047Y-73534819D02*
X121230952Y-73534819D01*
X121230952Y-73534819D02*
X121135714Y-73487200D01*
X121135714Y-73487200D02*
X121088095Y-73439580D01*
X121461905Y-109354819D02*
X121461905Y-108354819D01*
X121461905Y-108354819D02*
X121700000Y-108354819D01*
X121700000Y-108354819D02*
X121842857Y-108402438D01*
X121842857Y-108402438D02*
X121938095Y-108497676D01*
X121938095Y-108497676D02*
X121985714Y-108592914D01*
X121985714Y-108592914D02*
X122033333Y-108783390D01*
X122033333Y-108783390D02*
X122033333Y-108926247D01*
X122033333Y-108926247D02*
X121985714Y-109116723D01*
X121985714Y-109116723D02*
X121938095Y-109211961D01*
X121938095Y-109211961D02*
X121842857Y-109307200D01*
X121842857Y-109307200D02*
X121700000Y-109354819D01*
X121700000Y-109354819D02*
X121461905Y-109354819D01*
X122938095Y-108354819D02*
X122461905Y-108354819D01*
X122461905Y-108354819D02*
X122414286Y-108831009D01*
X122414286Y-108831009D02*
X122461905Y-108783390D01*
X122461905Y-108783390D02*
X122557143Y-108735771D01*
X122557143Y-108735771D02*
X122795238Y-108735771D01*
X122795238Y-108735771D02*
X122890476Y-108783390D01*
X122890476Y-108783390D02*
X122938095Y-108831009D01*
X122938095Y-108831009D02*
X122985714Y-108926247D01*
X122985714Y-108926247D02*
X122985714Y-109164342D01*
X122985714Y-109164342D02*
X122938095Y-109259580D01*
X122938095Y-109259580D02*
X122890476Y-109307200D01*
X122890476Y-109307200D02*
X122795238Y-109354819D01*
X122795238Y-109354819D02*
X122557143Y-109354819D01*
X122557143Y-109354819D02*
X122461905Y-109307200D01*
X122461905Y-109307200D02*
X122414286Y-109259580D01*
X120357142Y-99609580D02*
X120309523Y-99657200D01*
X120309523Y-99657200D02*
X120166666Y-99704819D01*
X120166666Y-99704819D02*
X120071428Y-99704819D01*
X120071428Y-99704819D02*
X119928571Y-99657200D01*
X119928571Y-99657200D02*
X119833333Y-99561961D01*
X119833333Y-99561961D02*
X119785714Y-99466723D01*
X119785714Y-99466723D02*
X119738095Y-99276247D01*
X119738095Y-99276247D02*
X119738095Y-99133390D01*
X119738095Y-99133390D02*
X119785714Y-98942914D01*
X119785714Y-98942914D02*
X119833333Y-98847676D01*
X119833333Y-98847676D02*
X119928571Y-98752438D01*
X119928571Y-98752438D02*
X120071428Y-98704819D01*
X120071428Y-98704819D02*
X120166666Y-98704819D01*
X120166666Y-98704819D02*
X120309523Y-98752438D01*
X120309523Y-98752438D02*
X120357142Y-98800057D01*
X120738095Y-98800057D02*
X120785714Y-98752438D01*
X120785714Y-98752438D02*
X120880952Y-98704819D01*
X120880952Y-98704819D02*
X121119047Y-98704819D01*
X121119047Y-98704819D02*
X121214285Y-98752438D01*
X121214285Y-98752438D02*
X121261904Y-98800057D01*
X121261904Y-98800057D02*
X121309523Y-98895295D01*
X121309523Y-98895295D02*
X121309523Y-98990533D01*
X121309523Y-98990533D02*
X121261904Y-99133390D01*
X121261904Y-99133390D02*
X120690476Y-99704819D01*
X120690476Y-99704819D02*
X121309523Y-99704819D01*
X122166666Y-98704819D02*
X121976190Y-98704819D01*
X121976190Y-98704819D02*
X121880952Y-98752438D01*
X121880952Y-98752438D02*
X121833333Y-98800057D01*
X121833333Y-98800057D02*
X121738095Y-98942914D01*
X121738095Y-98942914D02*
X121690476Y-99133390D01*
X121690476Y-99133390D02*
X121690476Y-99514342D01*
X121690476Y-99514342D02*
X121738095Y-99609580D01*
X121738095Y-99609580D02*
X121785714Y-99657200D01*
X121785714Y-99657200D02*
X121880952Y-99704819D01*
X121880952Y-99704819D02*
X122071428Y-99704819D01*
X122071428Y-99704819D02*
X122166666Y-99657200D01*
X122166666Y-99657200D02*
X122214285Y-99609580D01*
X122214285Y-99609580D02*
X122261904Y-99514342D01*
X122261904Y-99514342D02*
X122261904Y-99276247D01*
X122261904Y-99276247D02*
X122214285Y-99181009D01*
X122214285Y-99181009D02*
X122166666Y-99133390D01*
X122166666Y-99133390D02*
X122071428Y-99085771D01*
X122071428Y-99085771D02*
X121880952Y-99085771D01*
X121880952Y-99085771D02*
X121785714Y-99133390D01*
X121785714Y-99133390D02*
X121738095Y-99181009D01*
X121738095Y-99181009D02*
X121690476Y-99276247D01*
X139833333Y-78059580D02*
X139785714Y-78107200D01*
X139785714Y-78107200D02*
X139642857Y-78154819D01*
X139642857Y-78154819D02*
X139547619Y-78154819D01*
X139547619Y-78154819D02*
X139404762Y-78107200D01*
X139404762Y-78107200D02*
X139309524Y-78011961D01*
X139309524Y-78011961D02*
X139261905Y-77916723D01*
X139261905Y-77916723D02*
X139214286Y-77726247D01*
X139214286Y-77726247D02*
X139214286Y-77583390D01*
X139214286Y-77583390D02*
X139261905Y-77392914D01*
X139261905Y-77392914D02*
X139309524Y-77297676D01*
X139309524Y-77297676D02*
X139404762Y-77202438D01*
X139404762Y-77202438D02*
X139547619Y-77154819D01*
X139547619Y-77154819D02*
X139642857Y-77154819D01*
X139642857Y-77154819D02*
X139785714Y-77202438D01*
X139785714Y-77202438D02*
X139833333Y-77250057D01*
X140785714Y-78154819D02*
X140214286Y-78154819D01*
X140500000Y-78154819D02*
X140500000Y-77154819D01*
X140500000Y-77154819D02*
X140404762Y-77297676D01*
X140404762Y-77297676D02*
X140309524Y-77392914D01*
X140309524Y-77392914D02*
X140214286Y-77440533D01*
X143761905Y-109454819D02*
X143761905Y-108454819D01*
X143761905Y-108454819D02*
X144000000Y-108454819D01*
X144000000Y-108454819D02*
X144142857Y-108502438D01*
X144142857Y-108502438D02*
X144238095Y-108597676D01*
X144238095Y-108597676D02*
X144285714Y-108692914D01*
X144285714Y-108692914D02*
X144333333Y-108883390D01*
X144333333Y-108883390D02*
X144333333Y-109026247D01*
X144333333Y-109026247D02*
X144285714Y-109216723D01*
X144285714Y-109216723D02*
X144238095Y-109311961D01*
X144238095Y-109311961D02*
X144142857Y-109407200D01*
X144142857Y-109407200D02*
X144000000Y-109454819D01*
X144000000Y-109454819D02*
X143761905Y-109454819D01*
X145190476Y-108454819D02*
X145000000Y-108454819D01*
X145000000Y-108454819D02*
X144904762Y-108502438D01*
X144904762Y-108502438D02*
X144857143Y-108550057D01*
X144857143Y-108550057D02*
X144761905Y-108692914D01*
X144761905Y-108692914D02*
X144714286Y-108883390D01*
X144714286Y-108883390D02*
X144714286Y-109264342D01*
X144714286Y-109264342D02*
X144761905Y-109359580D01*
X144761905Y-109359580D02*
X144809524Y-109407200D01*
X144809524Y-109407200D02*
X144904762Y-109454819D01*
X144904762Y-109454819D02*
X145095238Y-109454819D01*
X145095238Y-109454819D02*
X145190476Y-109407200D01*
X145190476Y-109407200D02*
X145238095Y-109359580D01*
X145238095Y-109359580D02*
X145285714Y-109264342D01*
X145285714Y-109264342D02*
X145285714Y-109026247D01*
X145285714Y-109026247D02*
X145238095Y-108931009D01*
X145238095Y-108931009D02*
X145190476Y-108883390D01*
X145190476Y-108883390D02*
X145095238Y-108835771D01*
X145095238Y-108835771D02*
X144904762Y-108835771D01*
X144904762Y-108835771D02*
X144809524Y-108883390D01*
X144809524Y-108883390D02*
X144761905Y-108931009D01*
X144761905Y-108931009D02*
X144714286Y-109026247D01*
X138938095Y-83754819D02*
X138938095Y-84564342D01*
X138938095Y-84564342D02*
X138985714Y-84659580D01*
X138985714Y-84659580D02*
X139033333Y-84707200D01*
X139033333Y-84707200D02*
X139128571Y-84754819D01*
X139128571Y-84754819D02*
X139319047Y-84754819D01*
X139319047Y-84754819D02*
X139414285Y-84707200D01*
X139414285Y-84707200D02*
X139461904Y-84659580D01*
X139461904Y-84659580D02*
X139509523Y-84564342D01*
X139509523Y-84564342D02*
X139509523Y-83754819D01*
X139890476Y-83754819D02*
X140509523Y-83754819D01*
X140509523Y-83754819D02*
X140176190Y-84135771D01*
X140176190Y-84135771D02*
X140319047Y-84135771D01*
X140319047Y-84135771D02*
X140414285Y-84183390D01*
X140414285Y-84183390D02*
X140461904Y-84231009D01*
X140461904Y-84231009D02*
X140509523Y-84326247D01*
X140509523Y-84326247D02*
X140509523Y-84564342D01*
X140509523Y-84564342D02*
X140461904Y-84659580D01*
X140461904Y-84659580D02*
X140414285Y-84707200D01*
X140414285Y-84707200D02*
X140319047Y-84754819D01*
X140319047Y-84754819D02*
X140033333Y-84754819D01*
X140033333Y-84754819D02*
X139938095Y-84707200D01*
X139938095Y-84707200D02*
X139890476Y-84659580D01*
D12*
X137607836Y-90240000D02*
X137392164Y-90240000D01*
X137607836Y-90960000D02*
X137392164Y-90960000D01*
X157287500Y-72202742D02*
X157287500Y-72677258D01*
X158332500Y-72202742D02*
X158332500Y-72677258D01*
X158390000Y-110040580D02*
X158390000Y-109759420D01*
X159410000Y-110040580D02*
X159410000Y-109759420D01*
X115200000Y-68700000D02*
X115200000Y-71100000D01*
X116800000Y-68700000D02*
X115200000Y-68700000D01*
X116800000Y-71100000D02*
X116800000Y-68700000D01*
X162142742Y-106007500D02*
X162617258Y-106007500D01*
X162142742Y-107052500D02*
X162617258Y-107052500D01*
X142977500Y-80537258D02*
X142977500Y-80062742D01*
X144022500Y-80537258D02*
X144022500Y-80062742D01*
X149520000Y-82246359D02*
X149520000Y-82553641D01*
X150280000Y-82246359D02*
X150280000Y-82553641D01*
X159225000Y-95875000D02*
X159225000Y-95995000D01*
X159225000Y-97005000D02*
X159225000Y-98145000D01*
X159225000Y-99155000D02*
X159225000Y-99275000D01*
X159225000Y-99275000D02*
X163625000Y-99275000D01*
X163625000Y-95875000D02*
X159225000Y-95875000D01*
X163625000Y-95995000D02*
X163625000Y-95875000D01*
X163625000Y-98145000D02*
X163625000Y-97005000D01*
X163625000Y-99275000D02*
X163625000Y-99155000D01*
X119100000Y-101990000D02*
X118300000Y-101990000D01*
X119100000Y-101990000D02*
X119900000Y-101990000D01*
X119100000Y-105110000D02*
X118300000Y-105110000D01*
X119100000Y-105110000D02*
X119900000Y-105110000D01*
X117800000Y-102040000D02*
X117560000Y-101710000D01*
X118040000Y-101710000D01*
X117800000Y-102040000D01*
G36*
X117800000Y-102040000D02*
G01*
X117560000Y-101710000D01*
X118040000Y-101710000D01*
X117800000Y-102040000D01*
G37*
X151892164Y-86640000D02*
X152107836Y-86640000D01*
X151892164Y-87360000D02*
X152107836Y-87360000D01*
X135037258Y-86277500D02*
X134562742Y-86277500D01*
X135037258Y-87322500D02*
X134562742Y-87322500D01*
X163635000Y-91770000D02*
X163635000Y-92405000D01*
X163635000Y-92405000D02*
X163000000Y-92405000D01*
X151892164Y-94240000D02*
X152107836Y-94240000D01*
X151892164Y-94960000D02*
X152107836Y-94960000D01*
D13*
X126950000Y-92950000D02*
X126950000Y-94975000D01*
X126950000Y-92950000D02*
X128475000Y-92950000D01*
X126950000Y-101050000D02*
X126950000Y-99025000D01*
X126950000Y-101050000D02*
X128475000Y-101050000D01*
X133050000Y-92950000D02*
X131525000Y-92950000D01*
X133050000Y-92950000D02*
X133050000Y-94975000D01*
X133050000Y-101050000D02*
X131525000Y-101050000D01*
X133050000Y-101050000D02*
X133050000Y-99025000D01*
D14*
X126550000Y-95000000D02*
G75*
G02*
X126350000Y-95000000I-100000J0D01*
G01*
X126350000Y-95000000D02*
G75*
G02*
X126550000Y-95000000I100000J0D01*
G01*
D15*
X146795710Y-80808211D02*
G75*
G02*
X146604290Y-80808211I-95710J0D01*
G01*
X146604290Y-80808211D02*
G75*
G02*
X146795710Y-80808211I95710J0D01*
G01*
D12*
X124690000Y-97359420D02*
X124690000Y-97640580D01*
X125710000Y-97359420D02*
X125710000Y-97640580D01*
X144777500Y-80537258D02*
X144777500Y-80062742D01*
X145822500Y-80537258D02*
X145822500Y-80062742D01*
X124677500Y-94062742D02*
X124677500Y-94537258D01*
X125722500Y-94062742D02*
X125722500Y-94537258D01*
X151892164Y-89640000D02*
X152107836Y-89640000D01*
X151892164Y-90360000D02*
X152107836Y-90360000D01*
X142040000Y-84087836D02*
X142040000Y-83872164D01*
X142760000Y-84087836D02*
X142760000Y-83872164D01*
X146659420Y-102990000D02*
X146940580Y-102990000D01*
X146659420Y-104010000D02*
X146940580Y-104010000D01*
X143440000Y-97792164D02*
X143440000Y-98007836D01*
X144160000Y-97792164D02*
X144160000Y-98007836D01*
X149540000Y-84192164D02*
X149540000Y-84407836D01*
X150260000Y-84192164D02*
X150260000Y-84407836D01*
X131137258Y-86277500D02*
X130662742Y-86277500D01*
X131137258Y-87322500D02*
X130662742Y-87322500D01*
X142884420Y-102990000D02*
X143165580Y-102990000D01*
X142884420Y-104010000D02*
X143165580Y-104010000D01*
X116559420Y-67190000D02*
X116840580Y-67190000D01*
X116559420Y-68210000D02*
X116840580Y-68210000D01*
X119710000Y-108000000D02*
X115850000Y-108000000D01*
X119710000Y-110000000D02*
X115850000Y-110000000D01*
X119710000Y-110000000D02*
X119710000Y-108000000D01*
X158290000Y-104859420D02*
X158290000Y-105140580D01*
X159310000Y-104859420D02*
X159310000Y-105140580D01*
X144440000Y-84007836D02*
X144440000Y-83792164D01*
X145160000Y-84007836D02*
X145160000Y-83792164D01*
X148040000Y-72259420D02*
X148040000Y-72540580D01*
X149060000Y-72259420D02*
X149060000Y-72540580D01*
X154310000Y-71660000D02*
X154310000Y-72710000D01*
X156290000Y-71660000D02*
X156290000Y-72960000D01*
X154310000Y-73360000D02*
X154030000Y-73080000D01*
X154310000Y-73080000D01*
X154310000Y-73360000D01*
G36*
X154310000Y-73360000D02*
G01*
X154030000Y-73080000D01*
X154310000Y-73080000D01*
X154310000Y-73360000D01*
G37*
X147477500Y-100562742D02*
X147477500Y-101037258D01*
X148522500Y-100562742D02*
X148522500Y-101037258D01*
X161880000Y-71192064D02*
X161880000Y-69987936D01*
X163700000Y-71192064D02*
X163700000Y-69987936D01*
X130759420Y-90702500D02*
X131040580Y-90702500D01*
X130759420Y-91722500D02*
X131040580Y-91722500D01*
X116840580Y-72990000D02*
X116559420Y-72990000D01*
X116840580Y-74010000D02*
X116559420Y-74010000D01*
X160852500Y-109580000D02*
X160852500Y-108930000D01*
X160852500Y-109580000D02*
X160852500Y-110230000D01*
X163972500Y-109580000D02*
X163972500Y-108930000D01*
X163972500Y-109580000D02*
X163972500Y-110230000D01*
X164252500Y-108657500D02*
X163922500Y-108417500D01*
X164252500Y-108177500D01*
X164252500Y-108657500D01*
G36*
X164252500Y-108657500D02*
G01*
X163922500Y-108417500D01*
X164252500Y-108177500D01*
X164252500Y-108657500D01*
G37*
X158477500Y-88737258D02*
X158477500Y-88262742D01*
X159522500Y-88737258D02*
X159522500Y-88262742D01*
X131137258Y-88377500D02*
X130662742Y-88377500D01*
X131137258Y-89422500D02*
X130662742Y-89422500D01*
X126045000Y-72300000D02*
X126045000Y-66000000D01*
X126045000Y-76010000D02*
X126045000Y-74200000D01*
X126155000Y-76010000D02*
X126045000Y-76010000D01*
X138915000Y-71600000D02*
X138915000Y-66000000D01*
X138915000Y-74850000D02*
X138915000Y-76010000D01*
X138915000Y-76010000D02*
X127655000Y-76010000D01*
X134800000Y-78700000D02*
X134800000Y-78100000D01*
X135500000Y-77400000D02*
X136900000Y-77400000D01*
X136900000Y-79400000D02*
X135500000Y-79400000D01*
X137600000Y-78100000D02*
X137600000Y-78700000D01*
X134800000Y-78100000D02*
G75*
G02*
X135500000Y-77400000I699999J1D01*
G01*
X135500000Y-79400000D02*
G75*
G02*
X134800000Y-78700000I-1J699999D01*
G01*
X136900000Y-77400000D02*
G75*
G02*
X137600000Y-78100000I0J-700000D01*
G01*
X137600000Y-78700000D02*
G75*
G02*
X136900000Y-79400000I-700000J0D01*
G01*
X140150000Y-69350000D02*
X140150000Y-70500000D01*
X147450000Y-69350000D02*
X140150000Y-69350000D01*
X147450000Y-74850000D02*
X140150000Y-74850000D01*
X131437258Y-77777500D02*
X130962742Y-77777500D01*
X131437258Y-78822500D02*
X130962742Y-78822500D01*
X150715000Y-107500000D02*
X150715000Y-105300000D01*
X150715000Y-107500000D02*
X150715000Y-109700000D01*
X157485000Y-107500000D02*
X157485000Y-105300000D01*
X157485000Y-107500000D02*
X157485000Y-109700000D01*
X157025000Y-103640000D02*
X156785000Y-103310000D01*
X157265000Y-103310000D01*
X157025000Y-103640000D01*
G36*
X157025000Y-103640000D02*
G01*
X156785000Y-103310000D01*
X157265000Y-103310000D01*
X157025000Y-103640000D01*
G37*
X146900000Y-99200000D02*
X142900000Y-99200000D01*
X146900000Y-102500000D02*
X146900000Y-99200000D01*
X119762742Y-67177500D02*
X120237258Y-67177500D01*
X119762742Y-68222500D02*
X120237258Y-68222500D01*
X151892164Y-90640000D02*
X152107836Y-90640000D01*
X151892164Y-91360000D02*
X152107836Y-91360000D01*
X123840580Y-67190000D02*
X123559420Y-67190000D01*
X123840580Y-68210000D02*
X123559420Y-68210000D01*
X152057500Y-72132742D02*
X152057500Y-72607258D01*
X153102500Y-72132742D02*
X153102500Y-72607258D01*
D11*
X147625000Y-111550000D02*
G75*
G02*
X147525000Y-111550000I-50000J0D01*
G01*
X147525000Y-111550000D02*
G75*
G02*
X147625000Y-111550000I50000J0D01*
G01*
D12*
X142570000Y-62600000D02*
X142570000Y-65260000D01*
X142570000Y-65260000D02*
X147770000Y-65260000D01*
X142630000Y-67970000D02*
X142630000Y-66700000D01*
X143520000Y-56600000D02*
X144280000Y-56600000D01*
X143520000Y-62600000D02*
X143520000Y-56600000D01*
X143520000Y-65590000D02*
X143520000Y-65260000D01*
X143580000Y-62600000D02*
X143580000Y-56600000D01*
X143700000Y-62600000D02*
X143700000Y-56600000D01*
X143820000Y-62600000D02*
X143820000Y-56600000D01*
X143900000Y-67970000D02*
X142630000Y-67970000D01*
X143940000Y-62600000D02*
X143940000Y-56600000D01*
X144060000Y-62600000D02*
X144060000Y-56600000D01*
X144180000Y-62600000D02*
X144180000Y-56600000D01*
X144280000Y-56600000D02*
X144280000Y-62600000D01*
X144280000Y-65590000D02*
X144280000Y-65260000D01*
X145170000Y-65260000D02*
X145170000Y-62600000D01*
X146060000Y-56600000D02*
X146820000Y-56600000D01*
X146060000Y-62600000D02*
X146060000Y-56600000D01*
X146060000Y-65657071D02*
X146060000Y-65260000D01*
X146820000Y-56600000D02*
X146820000Y-62600000D01*
X146820000Y-65657071D02*
X146820000Y-65260000D01*
X147770000Y-62600000D02*
X142570000Y-62600000D01*
X147770000Y-65260000D02*
X147770000Y-62600000D01*
X137607836Y-92240000D02*
X137392164Y-92240000D01*
X137607836Y-92960000D02*
X137392164Y-92960000D01*
X141640000Y-97792164D02*
X141640000Y-98007836D01*
X142360000Y-97792164D02*
X142360000Y-98007836D01*
X123997258Y-64277500D02*
X123522742Y-64277500D01*
X123997258Y-65322500D02*
X123522742Y-65322500D01*
X119000000Y-77750000D02*
X116900000Y-77750000D01*
X119000000Y-91250000D02*
X116900000Y-91250000D01*
X123000000Y-77750000D02*
X124450000Y-77750000D01*
X124450000Y-77750000D02*
X127050000Y-80350000D01*
X124450000Y-91250000D02*
X123000000Y-91250000D01*
X127050000Y-80350000D02*
X127850000Y-80350000D01*
X127050000Y-88650000D02*
X124450000Y-91250000D01*
X127850000Y-80350000D02*
X127850000Y-88650000D01*
X127850000Y-88650000D02*
X127050000Y-88650000D01*
X115400000Y-79200000D02*
G75*
G02*
X116950000Y-77750000I1499999J-49999D01*
G01*
X115415840Y-89914615D02*
G75*
G02*
X115800000Y-89000000I984160J124615D01*
G01*
X115800000Y-80000000D02*
G75*
G02*
X115415840Y-79085385I600001J790000D01*
G01*
X116950000Y-91250000D02*
G75*
G02*
X115400000Y-89800000I-50000J1500000D01*
G01*
X162102742Y-102997500D02*
X162577258Y-102997500D01*
X162102742Y-104042500D02*
X162577258Y-104042500D01*
X131175000Y-79975000D02*
X131175000Y-80235000D01*
X131175000Y-85425000D02*
X131175000Y-85165000D01*
X133900000Y-79975000D02*
X131175000Y-79975000D01*
X133900000Y-79975000D02*
X136625000Y-79975000D01*
X133900000Y-85425000D02*
X131175000Y-85425000D01*
X133900000Y-85425000D02*
X136625000Y-85425000D01*
X136625000Y-79975000D02*
X136625000Y-80235000D01*
X136625000Y-85425000D02*
X136625000Y-85165000D01*
X130392500Y-80235000D02*
X130152500Y-79905000D01*
X130632500Y-79905000D01*
X130392500Y-80235000D01*
G36*
X130392500Y-80235000D02*
G01*
X130152500Y-79905000D01*
X130632500Y-79905000D01*
X130392500Y-80235000D01*
G37*
X150130000Y-65610000D02*
X150130000Y-67310000D01*
X159470000Y-65610000D02*
X159470000Y-67310000D01*
X137607836Y-88240000D02*
X137392164Y-88240000D01*
X137607836Y-88960000D02*
X137392164Y-88960000D01*
X117059420Y-99990000D02*
X117340580Y-99990000D01*
X117059420Y-101010000D02*
X117340580Y-101010000D01*
X119710000Y-96500000D02*
X115850000Y-96500000D01*
X119710000Y-98500000D02*
X115850000Y-98500000D01*
X119710000Y-98500000D02*
X119710000Y-96500000D01*
X145840000Y-97792164D02*
X145840000Y-98007836D01*
X146560000Y-97792164D02*
X146560000Y-98007836D01*
D11*
X127237500Y-111550000D02*
G75*
G02*
X127137500Y-111550000I-50000J0D01*
G01*
X127137500Y-111550000D02*
G75*
G02*
X127237500Y-111550000I50000J0D01*
G01*
D12*
X147977500Y-78637258D02*
X147977500Y-78162742D01*
X149022500Y-78637258D02*
X149022500Y-78162742D01*
D11*
X132525000Y-111550000D02*
G75*
G02*
X132425000Y-111550000I-50000J0D01*
G01*
X132425000Y-111550000D02*
G75*
G02*
X132525000Y-111550000I50000J0D01*
G01*
D12*
X120900000Y-69090000D02*
X119400000Y-69090000D01*
X120900000Y-69090000D02*
X122400000Y-69090000D01*
X120900000Y-72310000D02*
X119400000Y-72310000D01*
X120900000Y-72310000D02*
X122400000Y-72310000D01*
X118687500Y-69265000D02*
X118447500Y-68935000D01*
X118927500Y-68935000D01*
X118687500Y-69265000D01*
G36*
X118687500Y-69265000D02*
G01*
X118447500Y-68935000D01*
X118927500Y-68935000D01*
X118687500Y-69265000D01*
G37*
D11*
X121950000Y-111550000D02*
G75*
G02*
X121850000Y-111550000I-50000J0D01*
G01*
X121850000Y-111550000D02*
G75*
G02*
X121950000Y-111550000I50000J0D01*
G01*
D12*
X121140580Y-100040000D02*
X120859420Y-100040000D01*
X121140580Y-101060000D02*
X120859420Y-101060000D01*
X139490000Y-79659420D02*
X139490000Y-79940580D01*
X140510000Y-79659420D02*
X140510000Y-79940580D01*
D11*
X144225000Y-111550000D02*
G75*
G02*
X144125000Y-111550000I-50000J0D01*
G01*
X144125000Y-111550000D02*
G75*
G02*
X144225000Y-111550000I50000J0D01*
G01*
D12*
X139453500Y-95950000D02*
X139453500Y-95000000D01*
X140403500Y-85650000D02*
X139213500Y-85650000D01*
X140403500Y-95950000D02*
X139453500Y-95950000D01*
X148803500Y-85650000D02*
X149753500Y-85650000D01*
X148803500Y-95950000D02*
X149753500Y-95950000D01*
X149753500Y-85650000D02*
X149753500Y-86600000D01*
X149753500Y-95950000D02*
X149753500Y-95000000D01*
%LPC*%
D16*
X155901954Y-79376218D02*
X155901954Y-82176218D01*
X156501954Y-82676218D02*
X156501954Y-78876218D01*
X157101954Y-82976218D02*
X157101954Y-78476218D01*
X157701954Y-83176218D02*
X157701954Y-78276218D01*
X158301954Y-82976218D02*
X158301954Y-78476218D01*
X158901954Y-78876218D02*
X158901954Y-82676218D01*
X159501954Y-79376218D02*
X159501954Y-82176218D01*
X160201954Y-80776218D02*
G75*
G02*
X155201954Y-80776218I-2500000J0D01*
G01*
X155201954Y-80776218D02*
G75*
G02*
X160201954Y-80776218I2500000J0D01*
G01*
D17*
G36*
X159585230Y-78892942D02*
G01*
X160392348Y-80776218D01*
X159585230Y-82659494D01*
X157709735Y-83463278D01*
X156077847Y-82919315D01*
X155003544Y-80770711D01*
X156076300Y-78893389D01*
X157696288Y-78083395D01*
X159585230Y-78892942D01*
G37*
D18*
X147775000Y-110430000D02*
X147375000Y-110430000D01*
X147375000Y-109850000D01*
X147775000Y-109850000D01*
X147775000Y-110430000D01*
G36*
X147775000Y-110430000D02*
G01*
X147375000Y-110430000D01*
X147375000Y-109850000D01*
X147775000Y-109850000D01*
X147775000Y-110430000D01*
G37*
X147775000Y-111150000D02*
X147375000Y-111150000D01*
X147375000Y-110570000D01*
X147775000Y-110570000D01*
X147775000Y-111150000D01*
G36*
X147775000Y-111150000D02*
G01*
X147375000Y-111150000D01*
X147375000Y-110570000D01*
X147775000Y-110570000D01*
X147775000Y-111150000D01*
G37*
X148225000Y-110430000D02*
X147875000Y-110430000D01*
X147875000Y-109850000D01*
X148225000Y-109850000D01*
X148225000Y-110430000D01*
G36*
X148225000Y-110430000D02*
G01*
X147875000Y-110430000D01*
X147875000Y-109850000D01*
X148225000Y-109850000D01*
X148225000Y-110430000D01*
G37*
X148225000Y-111150000D02*
X147875000Y-111150000D01*
X147875000Y-110570000D01*
X148225000Y-110570000D01*
X148225000Y-111150000D01*
G36*
X148225000Y-111150000D02*
G01*
X147875000Y-111150000D01*
X147875000Y-110570000D01*
X148225000Y-110570000D01*
X148225000Y-111150000D01*
G37*
X148825000Y-111150000D02*
X148325000Y-111150000D01*
X148325000Y-109850000D01*
X148825000Y-109850000D01*
X148825000Y-111150000D01*
G36*
X148825000Y-111150000D02*
G01*
X148325000Y-111150000D01*
X148325000Y-109850000D01*
X148825000Y-109850000D01*
X148825000Y-111150000D01*
G37*
X149275000Y-110430000D02*
X148925000Y-110430000D01*
X148925000Y-109850000D01*
X149275000Y-109850000D01*
X149275000Y-110430000D01*
G36*
X149275000Y-110430000D02*
G01*
X148925000Y-110430000D01*
X148925000Y-109850000D01*
X149275000Y-109850000D01*
X149275000Y-110430000D01*
G37*
X149275000Y-111150000D02*
X148925000Y-111150000D01*
X148925000Y-110570000D01*
X149275000Y-110570000D01*
X149275000Y-111150000D01*
G36*
X149275000Y-111150000D02*
G01*
X148925000Y-111150000D01*
X148925000Y-110570000D01*
X149275000Y-110570000D01*
X149275000Y-111150000D01*
G37*
X149775000Y-110430000D02*
X149375000Y-110430000D01*
X149375000Y-109850000D01*
X149775000Y-109850000D01*
X149775000Y-110430000D01*
G36*
X149775000Y-110430000D02*
G01*
X149375000Y-110430000D01*
X149375000Y-109850000D01*
X149775000Y-109850000D01*
X149775000Y-110430000D01*
G37*
X149775000Y-111150000D02*
X149375000Y-111150000D01*
X149375000Y-110570000D01*
X149775000Y-110570000D01*
X149775000Y-111150000D01*
G36*
X149775000Y-111150000D02*
G01*
X149375000Y-111150000D01*
X149375000Y-110570000D01*
X149775000Y-110570000D01*
X149775000Y-111150000D01*
G37*
D17*
G36*
X164400000Y-123500000D02*
G01*
X115100000Y-123500000D01*
X115100000Y-116500000D01*
X164400000Y-116500000D01*
X164400000Y-123500000D01*
G37*
D18*
X127387500Y-110430000D02*
X126987500Y-110430000D01*
X126987500Y-109850000D01*
X127387500Y-109850000D01*
X127387500Y-110430000D01*
G36*
X127387500Y-110430000D02*
G01*
X126987500Y-110430000D01*
X126987500Y-109850000D01*
X127387500Y-109850000D01*
X127387500Y-110430000D01*
G37*
X127387500Y-111150000D02*
X126987500Y-111150000D01*
X126987500Y-110570000D01*
X127387500Y-110570000D01*
X127387500Y-111150000D01*
G36*
X127387500Y-111150000D02*
G01*
X126987500Y-111150000D01*
X126987500Y-110570000D01*
X127387500Y-110570000D01*
X127387500Y-111150000D01*
G37*
X127837500Y-110430000D02*
X127487500Y-110430000D01*
X127487500Y-109850000D01*
X127837500Y-109850000D01*
X127837500Y-110430000D01*
G36*
X127837500Y-110430000D02*
G01*
X127487500Y-110430000D01*
X127487500Y-109850000D01*
X127837500Y-109850000D01*
X127837500Y-110430000D01*
G37*
X127837500Y-111150000D02*
X127487500Y-111150000D01*
X127487500Y-110570000D01*
X127837500Y-110570000D01*
X127837500Y-111150000D01*
G36*
X127837500Y-111150000D02*
G01*
X127487500Y-111150000D01*
X127487500Y-110570000D01*
X127837500Y-110570000D01*
X127837500Y-111150000D01*
G37*
X128437500Y-111150000D02*
X127937500Y-111150000D01*
X127937500Y-109850000D01*
X128437500Y-109850000D01*
X128437500Y-111150000D01*
G36*
X128437500Y-111150000D02*
G01*
X127937500Y-111150000D01*
X127937500Y-109850000D01*
X128437500Y-109850000D01*
X128437500Y-111150000D01*
G37*
X128887500Y-110430000D02*
X128537500Y-110430000D01*
X128537500Y-109850000D01*
X128887500Y-109850000D01*
X128887500Y-110430000D01*
G36*
X128887500Y-110430000D02*
G01*
X128537500Y-110430000D01*
X128537500Y-109850000D01*
X128887500Y-109850000D01*
X128887500Y-110430000D01*
G37*
X128887500Y-111150000D02*
X128537500Y-111150000D01*
X128537500Y-110570000D01*
X128887500Y-110570000D01*
X128887500Y-111150000D01*
G36*
X128887500Y-111150000D02*
G01*
X128537500Y-111150000D01*
X128537500Y-110570000D01*
X128887500Y-110570000D01*
X128887500Y-111150000D01*
G37*
X129387500Y-110430000D02*
X128987500Y-110430000D01*
X128987500Y-109850000D01*
X129387500Y-109850000D01*
X129387500Y-110430000D01*
G36*
X129387500Y-110430000D02*
G01*
X128987500Y-110430000D01*
X128987500Y-109850000D01*
X129387500Y-109850000D01*
X129387500Y-110430000D01*
G37*
X129387500Y-111150000D02*
X128987500Y-111150000D01*
X128987500Y-110570000D01*
X129387500Y-110570000D01*
X129387500Y-111150000D01*
G36*
X129387500Y-111150000D02*
G01*
X128987500Y-111150000D01*
X128987500Y-110570000D01*
X129387500Y-110570000D01*
X129387500Y-111150000D01*
G37*
X132675000Y-110430000D02*
X132275000Y-110430000D01*
X132275000Y-109850000D01*
X132675000Y-109850000D01*
X132675000Y-110430000D01*
G36*
X132675000Y-110430000D02*
G01*
X132275000Y-110430000D01*
X132275000Y-109850000D01*
X132675000Y-109850000D01*
X132675000Y-110430000D01*
G37*
X132675000Y-111150000D02*
X132275000Y-111150000D01*
X132275000Y-110570000D01*
X132675000Y-110570000D01*
X132675000Y-111150000D01*
G36*
X132675000Y-111150000D02*
G01*
X132275000Y-111150000D01*
X132275000Y-110570000D01*
X132675000Y-110570000D01*
X132675000Y-111150000D01*
G37*
X133125000Y-110430000D02*
X132775000Y-110430000D01*
X132775000Y-109850000D01*
X133125000Y-109850000D01*
X133125000Y-110430000D01*
G36*
X133125000Y-110430000D02*
G01*
X132775000Y-110430000D01*
X132775000Y-109850000D01*
X133125000Y-109850000D01*
X133125000Y-110430000D01*
G37*
X133125000Y-111150000D02*
X132775000Y-111150000D01*
X132775000Y-110570000D01*
X133125000Y-110570000D01*
X133125000Y-111150000D01*
G36*
X133125000Y-111150000D02*
G01*
X132775000Y-111150000D01*
X132775000Y-110570000D01*
X133125000Y-110570000D01*
X133125000Y-111150000D01*
G37*
X133725000Y-111150000D02*
X133225000Y-111150000D01*
X133225000Y-109850000D01*
X133725000Y-109850000D01*
X133725000Y-111150000D01*
G36*
X133725000Y-111150000D02*
G01*
X133225000Y-111150000D01*
X133225000Y-109850000D01*
X133725000Y-109850000D01*
X133725000Y-111150000D01*
G37*
X134175000Y-110430000D02*
X133825000Y-110430000D01*
X133825000Y-109850000D01*
X134175000Y-109850000D01*
X134175000Y-110430000D01*
G36*
X134175000Y-110430000D02*
G01*
X133825000Y-110430000D01*
X133825000Y-109850000D01*
X134175000Y-109850000D01*
X134175000Y-110430000D01*
G37*
X134175000Y-111150000D02*
X133825000Y-111150000D01*
X133825000Y-110570000D01*
X134175000Y-110570000D01*
X134175000Y-111150000D01*
G36*
X134175000Y-111150000D02*
G01*
X133825000Y-111150000D01*
X133825000Y-110570000D01*
X134175000Y-110570000D01*
X134175000Y-111150000D01*
G37*
X134675000Y-110430000D02*
X134275000Y-110430000D01*
X134275000Y-109850000D01*
X134675000Y-109850000D01*
X134675000Y-110430000D01*
G36*
X134675000Y-110430000D02*
G01*
X134275000Y-110430000D01*
X134275000Y-109850000D01*
X134675000Y-109850000D01*
X134675000Y-110430000D01*
G37*
X134675000Y-111150000D02*
X134275000Y-111150000D01*
X134275000Y-110570000D01*
X134675000Y-110570000D01*
X134675000Y-111150000D01*
G36*
X134675000Y-111150000D02*
G01*
X134275000Y-111150000D01*
X134275000Y-110570000D01*
X134675000Y-110570000D01*
X134675000Y-111150000D01*
G37*
X122100000Y-110430000D02*
X121700000Y-110430000D01*
X121700000Y-109850000D01*
X122100000Y-109850000D01*
X122100000Y-110430000D01*
G36*
X122100000Y-110430000D02*
G01*
X121700000Y-110430000D01*
X121700000Y-109850000D01*
X122100000Y-109850000D01*
X122100000Y-110430000D01*
G37*
X122100000Y-111150000D02*
X121700000Y-111150000D01*
X121700000Y-110570000D01*
X122100000Y-110570000D01*
X122100000Y-111150000D01*
G36*
X122100000Y-111150000D02*
G01*
X121700000Y-111150000D01*
X121700000Y-110570000D01*
X122100000Y-110570000D01*
X122100000Y-111150000D01*
G37*
X122550000Y-110430000D02*
X122200000Y-110430000D01*
X122200000Y-109850000D01*
X122550000Y-109850000D01*
X122550000Y-110430000D01*
G36*
X122550000Y-110430000D02*
G01*
X122200000Y-110430000D01*
X122200000Y-109850000D01*
X122550000Y-109850000D01*
X122550000Y-110430000D01*
G37*
X122550000Y-111150000D02*
X122200000Y-111150000D01*
X122200000Y-110570000D01*
X122550000Y-110570000D01*
X122550000Y-111150000D01*
G36*
X122550000Y-111150000D02*
G01*
X122200000Y-111150000D01*
X122200000Y-110570000D01*
X122550000Y-110570000D01*
X122550000Y-111150000D01*
G37*
X123150000Y-111150000D02*
X122650000Y-111150000D01*
X122650000Y-109850000D01*
X123150000Y-109850000D01*
X123150000Y-111150000D01*
G36*
X123150000Y-111150000D02*
G01*
X122650000Y-111150000D01*
X122650000Y-109850000D01*
X123150000Y-109850000D01*
X123150000Y-111150000D01*
G37*
X123600000Y-110430000D02*
X123250000Y-110430000D01*
X123250000Y-109850000D01*
X123600000Y-109850000D01*
X123600000Y-110430000D01*
G36*
X123600000Y-110430000D02*
G01*
X123250000Y-110430000D01*
X123250000Y-109850000D01*
X123600000Y-109850000D01*
X123600000Y-110430000D01*
G37*
X123600000Y-111150000D02*
X123250000Y-111150000D01*
X123250000Y-110570000D01*
X123600000Y-110570000D01*
X123600000Y-111150000D01*
G36*
X123600000Y-111150000D02*
G01*
X123250000Y-111150000D01*
X123250000Y-110570000D01*
X123600000Y-110570000D01*
X123600000Y-111150000D01*
G37*
X124100000Y-110430000D02*
X123700000Y-110430000D01*
X123700000Y-109850000D01*
X124100000Y-109850000D01*
X124100000Y-110430000D01*
G36*
X124100000Y-110430000D02*
G01*
X123700000Y-110430000D01*
X123700000Y-109850000D01*
X124100000Y-109850000D01*
X124100000Y-110430000D01*
G37*
X124100000Y-111150000D02*
X123700000Y-111150000D01*
X123700000Y-110570000D01*
X124100000Y-110570000D01*
X124100000Y-111150000D01*
G36*
X124100000Y-111150000D02*
G01*
X123700000Y-111150000D01*
X123700000Y-110570000D01*
X124100000Y-110570000D01*
X124100000Y-111150000D01*
G37*
X144375000Y-110430000D02*
X143975000Y-110430000D01*
X143975000Y-109850000D01*
X144375000Y-109850000D01*
X144375000Y-110430000D01*
G36*
X144375000Y-110430000D02*
G01*
X143975000Y-110430000D01*
X143975000Y-109850000D01*
X144375000Y-109850000D01*
X144375000Y-110430000D01*
G37*
X144375000Y-111150000D02*
X143975000Y-111150000D01*
X143975000Y-110570000D01*
X144375000Y-110570000D01*
X144375000Y-111150000D01*
G36*
X144375000Y-111150000D02*
G01*
X143975000Y-111150000D01*
X143975000Y-110570000D01*
X144375000Y-110570000D01*
X144375000Y-111150000D01*
G37*
X144825000Y-110430000D02*
X144475000Y-110430000D01*
X144475000Y-109850000D01*
X144825000Y-109850000D01*
X144825000Y-110430000D01*
G36*
X144825000Y-110430000D02*
G01*
X144475000Y-110430000D01*
X144475000Y-109850000D01*
X144825000Y-109850000D01*
X144825000Y-110430000D01*
G37*
X144825000Y-111150000D02*
X144475000Y-111150000D01*
X144475000Y-110570000D01*
X144825000Y-110570000D01*
X144825000Y-111150000D01*
G36*
X144825000Y-111150000D02*
G01*
X144475000Y-111150000D01*
X144475000Y-110570000D01*
X144825000Y-110570000D01*
X144825000Y-111150000D01*
G37*
X145425000Y-111150000D02*
X144925000Y-111150000D01*
X144925000Y-109850000D01*
X145425000Y-109850000D01*
X145425000Y-111150000D01*
G36*
X145425000Y-111150000D02*
G01*
X144925000Y-111150000D01*
X144925000Y-109850000D01*
X145425000Y-109850000D01*
X145425000Y-111150000D01*
G37*
X145875000Y-110430000D02*
X145525000Y-110430000D01*
X145525000Y-109850000D01*
X145875000Y-109850000D01*
X145875000Y-110430000D01*
G36*
X145875000Y-110430000D02*
G01*
X145525000Y-110430000D01*
X145525000Y-109850000D01*
X145875000Y-109850000D01*
X145875000Y-110430000D01*
G37*
X145875000Y-111150000D02*
X145525000Y-111150000D01*
X145525000Y-110570000D01*
X145875000Y-110570000D01*
X145875000Y-111150000D01*
G36*
X145875000Y-111150000D02*
G01*
X145525000Y-111150000D01*
X145525000Y-110570000D01*
X145875000Y-110570000D01*
X145875000Y-111150000D01*
G37*
X146375000Y-110430000D02*
X145975000Y-110430000D01*
X145975000Y-109850000D01*
X146375000Y-109850000D01*
X146375000Y-110430000D01*
G36*
X146375000Y-110430000D02*
G01*
X145975000Y-110430000D01*
X145975000Y-109850000D01*
X146375000Y-109850000D01*
X146375000Y-110430000D01*
G37*
X146375000Y-111150000D02*
X145975000Y-111150000D01*
X145975000Y-110570000D01*
X146375000Y-110570000D01*
X146375000Y-111150000D01*
G36*
X146375000Y-111150000D02*
G01*
X145975000Y-111150000D01*
X145975000Y-110570000D01*
X146375000Y-110570000D01*
X146375000Y-111150000D01*
G37*
D19*
X137980000Y-90600000D03*
X137020000Y-90600000D03*
D20*
X157810000Y-71615000D03*
X157810000Y-73265000D03*
D21*
X158900000Y-110675000D03*
X158900000Y-109125000D03*
D22*
X116000000Y-69200000D03*
X116000000Y-70600000D03*
D23*
X161555000Y-106530000D03*
X163205000Y-106530000D03*
D24*
X143500000Y-81125000D03*
X143500000Y-79475000D03*
D25*
X149900000Y-81890000D03*
X149900000Y-82910000D03*
D26*
X139753038Y-108075958D03*
D27*
X159350000Y-96500000D03*
X163500000Y-96500000D03*
X159350000Y-98650000D03*
X163500000Y-98650000D03*
D28*
X117962500Y-102600000D03*
X117962500Y-103550000D03*
X117962500Y-104500000D03*
X120237500Y-104500000D03*
X120237500Y-102600000D03*
D29*
X151520000Y-87000000D03*
X152480000Y-87000000D03*
D30*
X135625000Y-86800000D03*
X133975000Y-86800000D03*
D31*
X162365000Y-93040000D03*
X161349000Y-87960000D03*
X163381000Y-87960000D03*
D32*
X163000000Y-91770000D03*
X161730000Y-91770000D03*
X163000000Y-90500000D03*
X161730000Y-90500000D03*
X163000000Y-89230000D03*
X161730000Y-89230000D03*
D29*
X151520000Y-94600000D03*
X152480000Y-94600000D03*
D33*
X129000000Y-95000000D03*
X130000000Y-95000000D03*
X131000000Y-95000000D03*
X132000000Y-95000000D03*
X128000000Y-96000000D03*
X129000000Y-96000000D03*
X130000000Y-96000000D03*
X131000000Y-96000000D03*
X132000000Y-96000000D03*
X128000000Y-97000000D03*
X129000000Y-97000000D03*
X130000000Y-97000000D03*
X131000000Y-97000000D03*
X132000000Y-97000000D03*
X128000000Y-98000000D03*
X129000000Y-98000000D03*
X130000000Y-98000000D03*
X131000000Y-98000000D03*
X132000000Y-98000000D03*
X128000000Y-99000000D03*
X129000000Y-99000000D03*
X130000000Y-99000000D03*
X131000000Y-99000000D03*
X132000000Y-99000000D03*
D34*
X146900000Y-82108211D03*
X148300000Y-82108211D03*
D35*
X125200000Y-96725000D03*
X125200000Y-98275000D03*
D24*
X145300000Y-81125000D03*
X145300000Y-79475000D03*
D20*
X125200000Y-93475000D03*
X125200000Y-95125000D03*
D29*
X151520000Y-90000000D03*
X152480000Y-90000000D03*
D36*
X147080598Y-84730388D03*
X148110598Y-84730388D03*
D37*
X142400000Y-84460000D03*
X142400000Y-83500000D03*
D38*
X146025000Y-103500000D03*
X147575000Y-103500000D03*
D39*
X143800000Y-97420000D03*
X143800000Y-98380000D03*
X149900000Y-83820000D03*
X149900000Y-84780000D03*
D30*
X131725000Y-86800000D03*
X130075000Y-86800000D03*
D38*
X142250000Y-103500000D03*
X143800000Y-103500000D03*
X115925000Y-67700000D03*
X117475000Y-67700000D03*
D40*
X154451954Y-78026218D03*
X160951954Y-78026218D03*
X154495638Y-83523065D03*
X160951954Y-83526218D03*
D41*
X118900000Y-109000000D03*
X116100000Y-109000000D03*
D35*
X158800000Y-104225000D03*
X158800000Y-105775000D03*
D37*
X144800000Y-84380000D03*
X144800000Y-83420000D03*
D35*
X148550000Y-71625000D03*
X148550000Y-73175000D03*
D42*
X154762500Y-73160000D03*
D43*
X155300000Y-73235000D03*
D42*
X155837500Y-73160000D03*
X155837500Y-71460000D03*
D43*
X155300000Y-71385000D03*
D42*
X154762500Y-71460000D03*
D20*
X148000000Y-99975000D03*
X148000000Y-101625000D03*
D44*
X162790000Y-71990000D03*
X162790000Y-69190000D03*
D38*
X130125000Y-91212500D03*
X131675000Y-91212500D03*
D45*
X117475000Y-73500000D03*
X115925000Y-73500000D03*
D46*
X163362500Y-108642500D03*
X161462500Y-108642500D03*
X162412500Y-110517500D03*
D24*
X159000000Y-89325000D03*
X159000000Y-87675000D03*
D30*
X131725000Y-88900000D03*
X130075000Y-88900000D03*
D47*
X129305000Y-64875000D03*
X130405000Y-64875000D03*
X131505000Y-64875000D03*
X132605000Y-64875000D03*
X133705000Y-64875000D03*
X134805000Y-64875000D03*
X135905000Y-64875000D03*
X137005000Y-64875000D03*
D48*
X138130000Y-74100000D03*
D49*
X126905000Y-75675000D03*
D50*
X138455000Y-72600000D03*
D51*
X138205000Y-65000000D03*
D52*
X126855000Y-65000000D03*
D53*
X126505000Y-73250000D03*
D54*
X135550000Y-78400000D03*
D55*
X136850000Y-78400000D03*
D56*
X146250000Y-73750000D03*
X146250000Y-70450000D03*
X141350000Y-70450000D03*
X141350000Y-73750000D03*
D30*
X132025000Y-78300000D03*
X130375000Y-78300000D03*
D57*
X157025000Y-104637500D03*
X156375000Y-104637500D03*
X155725000Y-104637500D03*
X155075000Y-104637500D03*
X154425000Y-104637500D03*
X153775000Y-104637500D03*
X153125000Y-104637500D03*
X152475000Y-104637500D03*
X151825000Y-104637500D03*
X151175000Y-104637500D03*
X151175000Y-110362500D03*
X151825000Y-110362500D03*
X152475000Y-110362500D03*
X153125000Y-110362500D03*
X153775000Y-110362500D03*
X154425000Y-110362500D03*
X155075000Y-110362500D03*
X155725000Y-110362500D03*
X156375000Y-110362500D03*
X157025000Y-110362500D03*
D58*
X146000000Y-100000000D03*
X143800000Y-100000000D03*
X143800000Y-101700000D03*
X146000000Y-101700000D03*
D23*
X119175000Y-67700000D03*
X120825000Y-67700000D03*
D29*
X151520000Y-91000000D03*
X152480000Y-91000000D03*
D45*
X124475000Y-67700000D03*
X122925000Y-67700000D03*
D20*
X152580000Y-71545000D03*
X152580000Y-73195000D03*
D59*
X143900000Y-66700000D03*
D60*
X146440000Y-66700000D03*
D19*
X137980000Y-92600000D03*
X137020000Y-92600000D03*
D39*
X142000000Y-97420000D03*
X142000000Y-98380000D03*
D30*
X124585000Y-64800000D03*
X122935000Y-64800000D03*
D61*
X121000000Y-76600000D03*
X121000000Y-92400000D03*
D62*
X121000000Y-84500000D03*
D23*
X161515000Y-103520000D03*
X163165000Y-103520000D03*
D63*
X130300000Y-80795000D03*
X130300000Y-82065000D03*
X130300000Y-83335000D03*
X130300000Y-84605000D03*
X137500000Y-84605000D03*
X137500000Y-83335000D03*
X137500000Y-82065000D03*
X137500000Y-80795000D03*
D64*
X157690000Y-68115000D03*
X151910000Y-68115000D03*
D65*
X158000000Y-69190000D03*
X157200000Y-69190000D03*
D66*
X156050000Y-69190000D03*
X155050000Y-69190000D03*
X154550000Y-69190000D03*
X153550000Y-69190000D03*
D65*
X152400000Y-69190000D03*
X151600000Y-69190000D03*
X151600000Y-69190000D03*
X152400000Y-69190000D03*
D66*
X153050000Y-69190000D03*
X154050000Y-69190000D03*
X155550000Y-69190000D03*
X156550000Y-69190000D03*
D65*
X157200000Y-69190000D03*
X158000000Y-69190000D03*
D67*
X159120000Y-68615000D03*
D68*
X159120000Y-64435000D03*
D67*
X150480000Y-68615000D03*
D68*
X150480000Y-64435000D03*
D19*
X137980000Y-88600000D03*
X137020000Y-88600000D03*
D38*
X116425000Y-100500000D03*
X117975000Y-100500000D03*
D69*
X116250000Y-116000000D03*
X118000000Y-116000000D03*
X119500000Y-116000000D03*
X121000000Y-116000000D03*
X122500000Y-116000000D03*
X124000000Y-116000000D03*
X125500000Y-116000000D03*
X127000000Y-116000000D03*
X128500000Y-116000000D03*
X130000000Y-116000000D03*
X131500000Y-116000000D03*
X133000000Y-116000000D03*
X134500000Y-116000000D03*
X136000000Y-116000000D03*
X137500000Y-116000000D03*
X139000000Y-116000000D03*
X140500000Y-116000000D03*
X142000000Y-116000000D03*
X143500000Y-116000000D03*
X145000000Y-116000000D03*
X146500000Y-116000000D03*
X148000000Y-116000000D03*
X149500000Y-116000000D03*
X151000000Y-116000000D03*
X152500000Y-116000000D03*
X154000000Y-116000000D03*
X155500000Y-116000000D03*
X157000000Y-116000000D03*
X158500000Y-116000000D03*
X160000000Y-116000000D03*
X161500000Y-116000000D03*
X163250000Y-116000000D03*
D41*
X118900000Y-97500000D03*
X116100000Y-97500000D03*
D39*
X146200000Y-97420000D03*
X146200000Y-98380000D03*
D24*
X148500000Y-79225000D03*
X148500000Y-77575000D03*
D36*
X147085257Y-83760167D03*
X148115257Y-83760167D03*
D70*
X118787500Y-69700000D03*
X118787500Y-70200000D03*
X118787500Y-70700000D03*
X118787500Y-71200000D03*
X118787500Y-71700000D03*
X123012500Y-71700000D03*
X123012500Y-71200000D03*
X123012500Y-70700000D03*
X123012500Y-70200000D03*
X123012500Y-69700000D03*
D45*
X121775000Y-100550000D03*
X120225000Y-100550000D03*
D35*
X140000000Y-79025000D03*
X140000000Y-80575000D03*
D71*
X139707000Y-87000000D03*
X139707000Y-87400000D03*
X139707000Y-87800000D03*
X139707000Y-88200000D03*
X139707000Y-88600000D03*
X139707000Y-89000000D03*
X139707000Y-89400000D03*
X139707000Y-89800000D03*
X139707000Y-90200000D03*
X139707000Y-90600000D03*
X139707000Y-91000000D03*
X139707000Y-91400000D03*
X139707000Y-91800000D03*
X139707000Y-92200000D03*
X139707000Y-92600000D03*
X139707000Y-93000000D03*
X139707000Y-93400000D03*
X139707000Y-93800000D03*
X139707000Y-94200000D03*
X139707000Y-94600000D03*
D72*
X140803500Y-95696500D03*
X141203500Y-95696500D03*
X141603500Y-95696500D03*
X142003500Y-95696500D03*
X142403500Y-95696500D03*
X142803500Y-95696500D03*
X143203500Y-95696500D03*
X143603500Y-95696500D03*
X144003500Y-95696500D03*
X144403500Y-95696500D03*
X144803500Y-95696500D03*
X145203500Y-95696500D03*
X145603500Y-95696500D03*
X146003500Y-95696500D03*
X146403500Y-95696500D03*
X146803500Y-95696500D03*
X147203500Y-95696500D03*
X147603500Y-95696500D03*
X148003500Y-95696500D03*
X148403500Y-95696500D03*
D71*
X149500000Y-94600000D03*
X149500000Y-94200000D03*
X149500000Y-93800000D03*
X149500000Y-93400000D03*
X149500000Y-93000000D03*
X149500000Y-92600000D03*
X149500000Y-92200000D03*
X149500000Y-91800000D03*
X149500000Y-91400000D03*
X149500000Y-91000000D03*
X149500000Y-90600000D03*
X149500000Y-90200000D03*
X149500000Y-89800000D03*
X149500000Y-89400000D03*
X149500000Y-89000000D03*
X149500000Y-88600000D03*
X149500000Y-88200000D03*
X149500000Y-87800000D03*
X149500000Y-87400000D03*
X149500000Y-87000000D03*
D72*
X148403500Y-85903500D03*
X148003500Y-85903500D03*
X147603500Y-85903500D03*
X147203500Y-85903500D03*
X146803500Y-85903500D03*
X146403500Y-85903500D03*
X146003500Y-85903500D03*
X145603500Y-85903500D03*
X145203500Y-85903500D03*
X144803500Y-85903500D03*
X144403500Y-85903500D03*
X144003500Y-85903500D03*
X143603500Y-85903500D03*
X143203500Y-85903500D03*
X142803500Y-85903500D03*
X142403500Y-85903500D03*
X142003500Y-85903500D03*
X141603500Y-85903500D03*
X141203500Y-85903500D03*
X140803500Y-85903500D03*
D73*
X143470167Y-89666667D03*
D74*
X143470167Y-89666667D03*
D73*
X143470167Y-90800000D03*
D74*
X143470167Y-90800000D03*
D73*
X143470167Y-91933333D03*
D74*
X143470167Y-91933333D03*
D73*
X144603500Y-89666667D03*
D74*
X144603500Y-89666667D03*
D73*
X144603500Y-90800000D03*
D74*
X144603500Y-90800000D03*
D73*
X144603500Y-91933333D03*
D74*
X144603500Y-91933333D03*
D73*
X145736833Y-89666667D03*
D74*
X145736833Y-89666667D03*
D73*
X145736833Y-90800000D03*
D74*
X145736833Y-90800000D03*
D73*
X145736833Y-91933333D03*
D74*
X145736833Y-91933333D03*
%LPD*%
M02*
