M48
; DRILL file {KiCad 9.0.3} date 2025-07-16T19:29:39+0200
; FORMAT={-:-/ absolute / metric / decimal}
; #@! TF.CreationDate,2025-07-16T19:29:39+02:00
; #@! TF.GenerationSoftware,Kicad,Pcbnew,9.0.3
; #@! TF.FileFunction,Plated,1,4,PTH
FMAT,2
METRIC
; #@! TA.AperFunction,Plated,PTH,ViaDrill
T1C0.200
; #@! TA.AperFunction,Plated,PTH,ViaDrill
T2C0.250
; #@! TA.AperFunction,Plated,PTH,ComponentDrill
T3C0.250
; #@! TA.AperFunction,Plated,PTH,ViaDrill
T4C0.300
; #@! TA.AperFunction,Plated,PTH,ComponentDrill
T5C0.600
; #@! TA.AperFunction,Plated,PTH,ComponentDrill
T6C1.000
%
G90
G05
T1
X116.2Y-64.9
X116.689Y-75.864
X116.95Y-95.244
X117.5Y-67.1
X117.7Y-71.7
X117.95Y-93.2
X118.1Y-73.5
X118.3Y-89.3
X118.48Y-111.55
X118.5Y-79.8
X118.6Y-67.7
X118.9Y-107.152
X119.0Y-64.9
X119.1Y-101.75
X119.8Y-75.3
X119.8Y-77.9
X119.9Y-91.3
X119.9Y-93.7
X120.1Y-72.7
X120.1Y-73.5
X120.84Y-67.11
X121.0Y-69.7
X121.3Y-95.9
X121.3Y-97.9
X121.59Y-64.82
X121.6Y-106.8
X122.2Y-75.3
X122.2Y-77.9
X122.2Y-91.3
X122.3Y-93.7
X122.4Y-64.79
X122.89Y-109.71
X122.92Y-111.29
X122.93Y-67.08
X123.012Y-69.312
X123.3Y-105.7
X123.8Y-93.2
X124.188Y-65.92
X124.5Y-67.1
X124.5Y-100.7
X124.58Y-65.34
X124.6Y-88.1
X124.8Y-80.7
X124.836Y-69.378
X125.5Y-110.5
X125.7Y-103.1
X125.9Y-95.1
X126.2Y-96.7
X126.2Y-98.3
X126.85Y-65.862
X126.9Y-75.2
X127.0Y-73.3
X127.01Y-67.28
X127.235Y-78.181
X127.4Y-97.0
X127.5Y-98.0
X128.19Y-109.71
X128.2Y-111.29
X128.5Y-71.7
X128.5Y-74.1
X128.5Y-95.5
X128.5Y-96.5
X128.5Y-97.5
X128.8Y-80.0
X128.8Y-85.9
X129.0Y-99.5
X129.4Y-84.6
X129.4Y-91.212
X129.5Y-97.5
X129.5Y-98.5
X129.6Y-86.8
X129.9Y-78.3
X130.4Y-66.4
X130.4Y-76.4
X130.5Y-95.463
X130.5Y-96.5
X130.5Y-97.5
X130.5Y-98.5
X130.8Y-99.775
X130.9Y-101.8
X131.4Y-92.7
X131.5Y-66.4
X131.5Y-69.2
X131.5Y-95.5
X131.7Y-92.013
X131.9Y-93.3
X132.511Y-98.525
X132.575Y-88.9
X132.6Y-67.1
X132.7Y-69.2
X132.7Y-73.2
X132.7Y-82.8
X133.47Y-109.66
X133.47Y-111.3
X133.6Y-77.7
X133.6Y-79.9
X133.691Y-100.691
X133.7Y-66.4
X134.1Y-81.8
X134.1Y-83.7
X134.2Y-82.5
X134.2Y-83.0
X134.291Y-100.091
X134.8Y-65.9
X134.8Y-67.3
X134.8Y-69.2
X134.8Y-72.3
X134.841Y-99.541
X135.2Y-75.7
X135.2Y-89.8
X135.391Y-98.991
X135.7Y-112.5
X135.9Y-66.3
X135.991Y-98.391
X136.075Y-82.5
X136.4Y-80.8
X136.47Y-97.735
X136.5Y-88.6
X136.5Y-90.6
X136.571Y-92.971
X136.6Y-94.8
X137.2Y-86.2
X137.2Y-94.1
X137.8Y-74.1
X137.9Y-67.7
X137.9Y-69.7
X137.9Y-72.6
X138.0Y-87.275
X138.1Y-78.4
X138.2Y-65.9
X138.4Y-77.3
X138.6Y-85.3
X138.645Y-86.851
X138.8Y-84.6
X139.0Y-79.0
X139.3Y-81.975
X139.4Y-85.2
X140.2Y-81.975
X140.2Y-85.2
X140.498Y-88.075
X140.7Y-91.3
X140.716Y-92.748
X140.721Y-92.021
X140.9Y-64.9
X140.91Y-67.07
X140.978Y-88.584
X141.3Y-89.3
X141.3Y-90.0
X141.3Y-103.5
X141.35Y-71.1
X141.4Y-91.66
X141.673Y-88.5
X141.807Y-94.878
X142.0Y-86.7
X142.125Y-81.8
X142.2Y-81.1
X142.4Y-83.0
X142.4Y-85.125
X142.4Y-94.4
X142.6Y-96.6
X142.6Y-100.0
X142.8Y-98.3
X142.958Y-94.822
X143.04Y-111.83
X143.1Y-94.1
X143.35Y-78.0
X143.478Y-96.622
X143.8Y-83.7
X143.8Y-99.0
X144.0Y-94.8
X144.1Y-86.8
X144.2Y-85.0
X144.4Y-106.7
X144.48Y-87.445
X144.6Y-93.7
X144.8Y-83.0
X144.82Y-86.816
X145.1Y-103.5
X145.16Y-109.63
X145.18Y-111.28
X145.424Y-77.998
X145.52Y-86.8
X145.7Y-105.5
X145.8Y-93.625
X146.25Y-73.15
X146.4Y-94.0
X146.446Y-86.8
X146.9Y-98.4
X147.2Y-86.8
X147.438Y-87.797
X147.7Y-88.5
X147.7Y-94.8
X148.0Y-93.2
X148.29Y-108.42
X148.3Y-88.9
X148.5Y-92.7
X148.5Y-93.8
X148.525Y-71.0
X148.57Y-109.71
X148.59Y-111.29
X148.596Y-96.404
X148.7Y-84.0
X148.7Y-84.5
X149.2Y-96.758
X149.9Y-81.5
X150.275Y-94.725
X150.3Y-84.8
X150.6Y-73.827
X150.6Y-76.273
X150.8Y-94.075
X150.9Y-87.0
X150.9Y-91.0
X151.13Y-77.87
X151.2Y-106.671
X151.2Y-109.2
X151.3Y-100.06
X151.4Y-106.0
X151.6Y-93.525
X151.621Y-99.421
X151.85Y-73.2
X152.5Y-95.0
X152.6Y-98.8
X152.6Y-100.0
X152.9Y-90.0
X153.0Y-91.0
X153.1Y-87.0
X153.575Y-78.05
X154.13Y-107.58
X154.34Y-90.66
X154.5Y-84.7
X155.3Y-71.9
X155.3Y-72.7
X156.18Y-106.56
X156.4Y-109.0
X156.6Y-106.0
X157.825Y-73.775
X157.9Y-102.6
X158.8Y-103.2
X158.8Y-106.7
X159.0Y-86.7
X159.8Y-100.8
X159.8Y-102.9
X159.9Y-91.0
X159.9Y-109.1
X159.9Y-110.7
X160.09Y-72.43
X160.4Y-90.5
X160.4Y-91.7
X161.0Y-84.7
X161.08Y-108.65
X161.1Y-96.5
X161.437Y-98.658
X161.49Y-105.98
X162.8Y-74.9
X163.16Y-102.96
X163.6Y-78.2
X163.6Y-82.99
X163.7Y-92.5
X164.1Y-89.2
T2
X116.1Y-112.9
X116.1Y-113.5
X146.425Y-83.5
X146.436Y-88.6
X146.446Y-84.1
X151.15Y-69.95
X152.4Y-70.0
X157.2Y-70.0
X158.375Y-69.925
X161.5Y-69.2
X162.8Y-72.85
X162.8Y-73.45
T3
X143.47Y-89.667
X143.47Y-90.8
X143.47Y-91.933
X144.603Y-89.667
X144.603Y-90.8
X144.603Y-91.933
X145.737Y-89.667
X145.737Y-90.8
X145.737Y-91.933
T4
X113.883Y-62.916
X113.883Y-64.916
X113.883Y-66.916
X113.883Y-68.916
X113.883Y-70.916
X113.883Y-72.916
X113.883Y-74.916
X113.883Y-76.916
X113.883Y-78.916
X113.883Y-80.916
X113.883Y-82.916
X113.883Y-84.916
X113.883Y-86.916
X113.883Y-88.916
X113.883Y-90.916
X113.883Y-92.916
X113.883Y-94.916
X113.883Y-96.916
X113.883Y-98.916
X113.883Y-100.916
X113.883Y-102.916
X113.883Y-104.916
X113.883Y-106.916
X113.883Y-108.916
X113.883Y-110.916
X113.883Y-112.916
X115.75Y-100.5
X115.883Y-62.916
X116.1Y-94.8
X116.1Y-95.7
X116.4Y-103.55
X117.0Y-103.55
X117.0Y-104.5
X117.883Y-62.916
X117.95Y-101.5
X117.95Y-102.1
X118.05Y-106.9
X118.05Y-107.6
X118.4Y-99.0
X118.9Y-98.5
X119.883Y-62.916
X120.25Y-101.5
X120.25Y-102.1
X121.8Y-99.85
X121.883Y-62.916
X123.883Y-62.916
X124.9Y-70.125
X125.883Y-62.916
X127.883Y-62.916
X129.883Y-62.916
X131.883Y-62.916
X133.883Y-62.916
X135.883Y-62.916
X137.883Y-62.916
X139.883Y-62.916
X141.883Y-62.916
X143.5Y-78.75
X143.883Y-62.916
X145.3Y-78.75
X145.883Y-62.916
X147.883Y-62.916
X149.883Y-62.916
X150.6Y-74.578
X150.6Y-75.522
X151.883Y-62.916
X153.883Y-62.916
X155.883Y-62.916
X157.883Y-62.916
X159.883Y-62.916
X161.533Y-65.616
X163.2Y-114.7
X164.383Y-65.616
X165.683Y-66.916
X165.683Y-68.916
X165.683Y-70.916
X165.683Y-72.916
X165.683Y-74.916
X165.683Y-76.916
X165.683Y-78.916
X165.683Y-80.916
X165.683Y-82.916
X165.683Y-84.916
X165.683Y-86.916
X165.683Y-88.916
X165.683Y-90.916
X165.683Y-92.916
X165.683Y-94.916
X165.683Y-96.916
X165.683Y-98.916
X165.683Y-100.916
X165.683Y-102.916
X165.683Y-104.916
X165.683Y-106.916
X165.683Y-108.916
X165.683Y-110.916
X165.683Y-112.916
T5
X116.25Y-116.0
X118.0Y-116.0
X119.5Y-116.0
X121.0Y-116.0
X122.5Y-116.0
X124.0Y-116.0
X125.5Y-116.0
X127.0Y-116.0
X128.5Y-116.0
X130.0Y-116.0
X131.5Y-116.0
X133.0Y-116.0
X134.5Y-116.0
X136.0Y-116.0
X137.5Y-116.0
X139.0Y-116.0
X140.5Y-116.0
X142.0Y-116.0
X143.5Y-116.0
X145.0Y-116.0
X146.5Y-116.0
X148.0Y-116.0
X149.5Y-116.0
X151.0Y-116.0
X152.5Y-116.0
X154.0Y-116.0
X155.5Y-116.0
X157.0Y-116.0
X158.5Y-116.0
X160.0Y-116.0
X161.5Y-116.0
X163.25Y-116.0
T6
X143.9Y-66.7
X146.44Y-66.7
T5
X150.48Y-64.835G85X150.48Y-64.035
G05
X150.48Y-69.165G85X150.48Y-68.065
G05
X159.12Y-64.835G85X159.12Y-64.035
G05
X159.12Y-69.165G85X159.12Y-68.065
G05
M30
