G04 #@! TF.GenerationSoftware,KiCad,Pcbnew,9.0.3*
G04 #@! TF.CreationDate,2025-07-16T19:29:37+02:00*
G04 #@! TF.ProjectId,GameboyCartridgeV2.1,47616d65-626f-4794-9361-727472696467,rev?*
G04 #@! TF.SameCoordinates,Original*
G04 #@! TF.FileFunction,Copper,L1,Top*
G04 #@! TF.FilePolarity,Positive*
%FSLAX46Y46*%
G04 Gerber Fmt 4.6, Leading zero omitted, Abs format (unit mm)*
G04 Created by KiCad (PCBNEW 9.0.3) date 2025-07-16 19:29:37*
%MOMM*%
%LPD*%
G01*
G04 APERTURE LIST*
G04 Aperture macros list*
%AMRoundRect*
0 Rectangle with rounded corners*
0 $1 Rounding radius*
0 $2 $3 $4 $5 $6 $7 $8 $9 X,Y pos of 4 corners*
0 Add a 4 corners polygon primitive as box body*
4,1,4,$2,$3,$4,$5,$6,$7,$8,$9,$2,$3,0*
0 Add four circle primitives for the rounded corners*
1,1,$1+$1,$2,$3*
1,1,$1+$1,$4,$5*
1,1,$1+$1,$6,$7*
1,1,$1+$1,$8,$9*
0 Add four rect primitives between the rounded corners*
20,1,$1+$1,$2,$3,$4,$5,0*
20,1,$1+$1,$4,$5,$6,$7,0*
20,1,$1+$1,$6,$7,$8,$9,0*
20,1,$1+$1,$8,$9,$2,$3,0*%
%AMFreePoly0*
4,1,23,0.500000,-0.750000,0.000000,-0.750000,0.000000,-0.745722,-0.065263,-0.745722,-0.191342,-0.711940,-0.304381,-0.646677,-0.396677,-0.554381,-0.461940,-0.441342,-0.495722,-0.315263,-0.495722,-0.250000,-0.500000,-0.250000,-0.500000,0.250000,-0.495722,0.250000,-0.495722,0.315263,-0.461940,0.441342,-0.396677,0.554381,-0.304381,0.646677,-0.191342,0.711940,-0.065263,0.745722,0.000000,0.745722,
0.000000,0.750000,0.500000,0.750000,0.500000,-0.750000,0.500000,-0.750000,$1*%
%AMFreePoly1*
4,1,23,0.000000,0.745722,0.065263,0.745722,0.191342,0.711940,0.304381,0.646677,0.396677,0.554381,0.461940,0.441342,0.495722,0.315263,0.495722,0.250000,0.500000,0.250000,0.500000,-0.250000,0.495722,-0.250000,0.495722,-0.315263,0.461940,-0.441342,0.396677,-0.554381,0.304381,-0.646677,0.191342,-0.711940,0.065263,-0.745722,0.000000,-0.745722,0.000000,-0.750000,-0.500000,-0.750000,
-0.500000,0.750000,0.000000,0.750000,0.000000,0.745722,0.000000,0.745722,$1*%
%AMFreePoly2*
4,1,6,0.750000,-6.800000,-0.350000,-6.800000,-0.750000,-6.400000,-0.750000,0.500000,0.750000,0.500000,0.750000,-6.800000,0.750000,-6.800000,$1*%
%AMFreePoly3*
4,1,5,0.500000,-6.500000,-0.500000,-6.500000,-0.500000,0.500000,0.500000,0.500000,0.500000,-6.500000,0.500000,-6.500000,$1*%
%AMFreePoly4*
4,1,6,0.750000,-6.300000,0.250000,-6.800000,-0.750000,-6.800000,-0.750000,0.500000,0.750000,0.500000,0.750000,-6.300000,0.750000,-6.300000,$1*%
G04 Aperture macros list end*
G04 #@! TA.AperFunction,EtchedComponent*
%ADD10C,0.350000*%
G04 #@! TD*
G04 #@! TA.AperFunction,SMDPad,CuDef*
%ADD11RoundRect,0.140000X0.140000X0.170000X-0.140000X0.170000X-0.140000X-0.170000X0.140000X-0.170000X0*%
G04 #@! TD*
G04 #@! TA.AperFunction,SMDPad,CuDef*
%ADD12RoundRect,0.200000X-0.275000X0.200000X-0.275000X-0.200000X0.275000X-0.200000X0.275000X0.200000X0*%
G04 #@! TD*
G04 #@! TA.AperFunction,SMDPad,CuDef*
%ADD13RoundRect,0.225000X0.250000X-0.225000X0.250000X0.225000X-0.250000X0.225000X-0.250000X-0.225000X0*%
G04 #@! TD*
G04 #@! TA.AperFunction,SMDPad,CuDef*
%ADD14R,1.100000X0.600000*%
G04 #@! TD*
G04 #@! TA.AperFunction,SMDPad,CuDef*
%ADD15RoundRect,0.200000X-0.200000X-0.275000X0.200000X-0.275000X0.200000X0.275000X-0.200000X0.275000X0*%
G04 #@! TD*
G04 #@! TA.AperFunction,SMDPad,CuDef*
%ADD16RoundRect,0.200000X0.275000X-0.200000X0.275000X0.200000X-0.275000X0.200000X-0.275000X-0.200000X0*%
G04 #@! TD*
G04 #@! TA.AperFunction,SMDPad,CuDef*
%ADD17RoundRect,0.135000X-0.185000X0.135000X-0.185000X-0.135000X0.185000X-0.135000X0.185000X0.135000X0*%
G04 #@! TD*
G04 #@! TA.AperFunction,SMDPad,CuDef*
%ADD18R,1.050000X0.650000*%
G04 #@! TD*
G04 #@! TA.AperFunction,SMDPad,CuDef*
%ADD19RoundRect,0.150000X-0.512500X-0.150000X0.512500X-0.150000X0.512500X0.150000X-0.512500X0.150000X0*%
G04 #@! TD*
G04 #@! TA.AperFunction,SMDPad,CuDef*
%ADD20RoundRect,0.140000X-0.140000X-0.170000X0.140000X-0.170000X0.140000X0.170000X-0.140000X0.170000X0*%
G04 #@! TD*
G04 #@! TA.AperFunction,SMDPad,CuDef*
%ADD21RoundRect,0.200000X0.200000X0.275000X-0.200000X0.275000X-0.200000X-0.275000X0.200000X-0.275000X0*%
G04 #@! TD*
G04 #@! TA.AperFunction,ConnectorPad*
%ADD22C,0.787400*%
G04 #@! TD*
G04 #@! TA.AperFunction,SMDPad,CuDef*
%ADD23C,0.410000*%
G04 #@! TD*
G04 #@! TA.AperFunction,SMDPad,CuDef*
%ADD24R,0.700000X1.700000*%
G04 #@! TD*
G04 #@! TA.AperFunction,SMDPad,CuDef*
%ADD25RoundRect,0.225000X-0.250000X0.225000X-0.250000X-0.225000X0.250000X-0.225000X0.250000X0.225000X0*%
G04 #@! TD*
G04 #@! TA.AperFunction,SMDPad,CuDef*
%ADD26R,0.470000X0.530000*%
G04 #@! TD*
G04 #@! TA.AperFunction,SMDPad,CuDef*
%ADD27RoundRect,0.140000X0.170000X-0.140000X0.170000X0.140000X-0.170000X0.140000X-0.170000X-0.140000X0*%
G04 #@! TD*
G04 #@! TA.AperFunction,SMDPad,CuDef*
%ADD28RoundRect,0.225000X-0.225000X-0.250000X0.225000X-0.250000X0.225000X0.250000X-0.225000X0.250000X0*%
G04 #@! TD*
G04 #@! TA.AperFunction,SMDPad,CuDef*
%ADD29RoundRect,0.140000X-0.170000X0.140000X-0.170000X-0.140000X0.170000X-0.140000X0.170000X0.140000X0*%
G04 #@! TD*
G04 #@! TA.AperFunction,SMDPad,CuDef*
%ADD30RoundRect,0.250000X-0.500000X-0.750000X0.500000X-0.750000X0.500000X0.750000X-0.500000X0.750000X0*%
G04 #@! TD*
G04 #@! TA.AperFunction,SMDPad,CuDef*
%ADD31RoundRect,0.250000X0.300000X0.300000X-0.300000X0.300000X-0.300000X-0.300000X0.300000X-0.300000X0*%
G04 #@! TD*
G04 #@! TA.AperFunction,SMDPad,CuDef*
%ADD32RoundRect,0.093750X0.093750X-0.156250X0.093750X0.156250X-0.093750X0.156250X-0.093750X-0.156250X0*%
G04 #@! TD*
G04 #@! TA.AperFunction,SMDPad,CuDef*
%ADD33RoundRect,0.075000X0.075000X-0.250000X0.075000X0.250000X-0.075000X0.250000X-0.075000X-0.250000X0*%
G04 #@! TD*
G04 #@! TA.AperFunction,SMDPad,CuDef*
%ADD34RoundRect,0.250000X0.625000X-0.375000X0.625000X0.375000X-0.625000X0.375000X-0.625000X-0.375000X0*%
G04 #@! TD*
G04 #@! TA.AperFunction,SMDPad,CuDef*
%ADD35RoundRect,0.225000X0.225000X0.250000X-0.225000X0.250000X-0.225000X-0.250000X0.225000X-0.250000X0*%
G04 #@! TD*
G04 #@! TA.AperFunction,SMDPad,CuDef*
%ADD36RoundRect,0.150000X-0.150000X0.587500X-0.150000X-0.587500X0.150000X-0.587500X0.150000X0.587500X0*%
G04 #@! TD*
G04 #@! TA.AperFunction,SMDPad,CuDef*
%ADD37R,0.700000X1.750000*%
G04 #@! TD*
G04 #@! TA.AperFunction,SMDPad,CuDef*
%ADD38R,1.450000X1.000000*%
G04 #@! TD*
G04 #@! TA.AperFunction,SMDPad,CuDef*
%ADD39R,1.000000X1.550000*%
G04 #@! TD*
G04 #@! TA.AperFunction,SMDPad,CuDef*
%ADD40R,0.800000X1.500000*%
G04 #@! TD*
G04 #@! TA.AperFunction,SMDPad,CuDef*
%ADD41R,1.300000X1.500000*%
G04 #@! TD*
G04 #@! TA.AperFunction,SMDPad,CuDef*
%ADD42R,1.500000X1.500000*%
G04 #@! TD*
G04 #@! TA.AperFunction,SMDPad,CuDef*
%ADD43R,0.800000X1.400000*%
G04 #@! TD*
G04 #@! TA.AperFunction,SMDPad,CuDef*
%ADD44FreePoly0,0.000000*%
G04 #@! TD*
G04 #@! TA.AperFunction,SMDPad,CuDef*
%ADD45FreePoly1,0.000000*%
G04 #@! TD*
G04 #@! TA.AperFunction,SMDPad,CuDef*
%ADD46R,1.500000X0.900000*%
G04 #@! TD*
G04 #@! TA.AperFunction,SMDPad,CuDef*
%ADD47RoundRect,0.100000X-0.100000X0.637500X-0.100000X-0.637500X0.100000X-0.637500X0.100000X0.637500X0*%
G04 #@! TD*
G04 #@! TA.AperFunction,SMDPad,CuDef*
%ADD48R,1.400000X1.200000*%
G04 #@! TD*
G04 #@! TA.AperFunction,SMDPad,CuDef*
%ADD49R,0.300000X0.480000*%
G04 #@! TD*
G04 #@! TA.AperFunction,SMDPad,CuDef*
%ADD50R,0.250000X0.480000*%
G04 #@! TD*
G04 #@! TA.AperFunction,SMDPad,CuDef*
%ADD51R,0.400000X1.200000*%
G04 #@! TD*
G04 #@! TA.AperFunction,ComponentPad*
%ADD52R,1.700000X1.700000*%
G04 #@! TD*
G04 #@! TA.AperFunction,ComponentPad*
%ADD53O,1.700000X1.700000*%
G04 #@! TD*
G04 #@! TA.AperFunction,SMDPad,CuDef*
%ADD54R,3.300000X3.500000*%
G04 #@! TD*
G04 #@! TA.AperFunction,SMDPad,CuDef*
%ADD55C,10.200000*%
G04 #@! TD*
G04 #@! TA.AperFunction,SMDPad,CuDef*
%ADD56RoundRect,0.150000X-0.650000X-0.150000X0.650000X-0.150000X0.650000X0.150000X-0.650000X0.150000X0*%
G04 #@! TD*
G04 #@! TA.AperFunction,SMDPad,CuDef*
%ADD57RoundRect,0.150000X0.150000X0.425000X-0.150000X0.425000X-0.150000X-0.425000X0.150000X-0.425000X0*%
G04 #@! TD*
G04 #@! TA.AperFunction,SMDPad,CuDef*
%ADD58RoundRect,0.075000X0.075000X0.500000X-0.075000X0.500000X-0.075000X-0.500000X0.075000X-0.500000X0*%
G04 #@! TD*
G04 #@! TA.AperFunction,ComponentPad*
%ADD59O,1.000000X2.100000*%
G04 #@! TD*
G04 #@! TA.AperFunction,ComponentPad*
%ADD60O,1.000000X1.800000*%
G04 #@! TD*
G04 #@! TA.AperFunction,ComponentPad*
%ADD61C,0.800000*%
G04 #@! TD*
G04 #@! TA.AperFunction,ConnectorPad*
%ADD62FreePoly2,0.000000*%
G04 #@! TD*
G04 #@! TA.AperFunction,ConnectorPad*
%ADD63FreePoly3,0.000000*%
G04 #@! TD*
G04 #@! TA.AperFunction,ConnectorPad*
%ADD64FreePoly4,0.000000*%
G04 #@! TD*
G04 #@! TA.AperFunction,SMDPad,CuDef*
%ADD65RoundRect,0.087500X-0.725000X-0.087500X0.725000X-0.087500X0.725000X0.087500X-0.725000X0.087500X0*%
G04 #@! TD*
G04 #@! TA.AperFunction,SMDPad,CuDef*
%ADD66RoundRect,0.055000X0.335000X-0.055000X0.335000X0.055000X-0.335000X0.055000X-0.335000X-0.055000X0*%
G04 #@! TD*
G04 #@! TA.AperFunction,SMDPad,CuDef*
%ADD67RoundRect,0.055000X-0.055000X-0.335000X0.055000X-0.335000X0.055000X0.335000X-0.055000X0.335000X0*%
G04 #@! TD*
G04 #@! TA.AperFunction,ComponentPad*
%ADD68C,0.600000*%
G04 #@! TD*
G04 #@! TA.AperFunction,SMDPad,CuDef*
%ADD69R,1.133333X1.133333*%
G04 #@! TD*
G04 #@! TA.AperFunction,ViaPad*
%ADD70C,0.500000*%
G04 #@! TD*
G04 #@! TA.AperFunction,ViaPad*
%ADD71C,0.600000*%
G04 #@! TD*
G04 #@! TA.AperFunction,ViaPad*
%ADD72C,0.450000*%
G04 #@! TD*
G04 #@! TA.AperFunction,Conductor*
%ADD73C,0.150000*%
G04 #@! TD*
G04 #@! TA.AperFunction,Conductor*
%ADD74C,0.200000*%
G04 #@! TD*
G04 #@! TA.AperFunction,Conductor*
%ADD75C,0.600000*%
G04 #@! TD*
G04 #@! TA.AperFunction,Conductor*
%ADD76C,0.400000*%
G04 #@! TD*
G04 #@! TA.AperFunction,Conductor*
%ADD77C,0.800000*%
G04 #@! TD*
G04 #@! TA.AperFunction,Conductor*
%ADD78C,0.339000*%
G04 #@! TD*
G04 #@! TA.AperFunction,Conductor*
%ADD79C,1.000000*%
G04 #@! TD*
G04 APERTURE END LIST*
D10*
X155200000Y-77776218D02*
X156501954Y-77776218D01*
X155200000Y-83776218D02*
X155901954Y-83776218D01*
X155901954Y-83776218D02*
X155901954Y-79376218D01*
X155901954Y-83776218D02*
X157101954Y-83776218D01*
X156501954Y-77776218D02*
X156501954Y-82676218D01*
X156501954Y-77776218D02*
X157701954Y-77776218D01*
X157101954Y-83776218D02*
X157101954Y-78476218D01*
X157101954Y-83776218D02*
X158301954Y-83776218D01*
X157701954Y-77776218D02*
X157701954Y-83176218D01*
X157701954Y-77776218D02*
X158901954Y-77776218D01*
X158301954Y-83776218D02*
X158301954Y-78476218D01*
X158301954Y-83776218D02*
X159501954Y-83776218D01*
X158901954Y-77776218D02*
X158901954Y-82676218D01*
X158901954Y-77776218D02*
X160200000Y-77776218D01*
X159500000Y-83776218D02*
X160200000Y-83776218D01*
X159501954Y-83776218D02*
X159501954Y-79376218D01*
D11*
X137980000Y-90600000D03*
X137020000Y-90600000D03*
D12*
X157810000Y-71615000D03*
X157810000Y-73265000D03*
D13*
X158900000Y-110675000D03*
X158900000Y-109125000D03*
D14*
X116000000Y-69200000D03*
X116000000Y-70600000D03*
D15*
X161555000Y-106530000D03*
X163205000Y-106530000D03*
D16*
X143500000Y-81125000D03*
X143500000Y-79475000D03*
D17*
X149900000Y-81890000D03*
X149900000Y-82910000D03*
D18*
X159350000Y-96500000D03*
X163500000Y-96500000D03*
X159350000Y-98650000D03*
X163500000Y-98650000D03*
D19*
X117962500Y-102600000D03*
X117962500Y-103550000D03*
X117962500Y-104500000D03*
X120237500Y-104500000D03*
X120237500Y-102600000D03*
D20*
X151520000Y-87000000D03*
X152480000Y-87000000D03*
D21*
X135625000Y-86800000D03*
X133975000Y-86800000D03*
D22*
X163000000Y-91770000D03*
X161730000Y-91770000D03*
X163000000Y-90500000D03*
X161730000Y-90500000D03*
X163000000Y-89230000D03*
X161730000Y-89230000D03*
D20*
X151520000Y-94600000D03*
X152480000Y-94600000D03*
D23*
X129000000Y-95000000D03*
X130000000Y-95000000D03*
X131000000Y-95000000D03*
X132000000Y-95000000D03*
X128000000Y-96000000D03*
X129000000Y-96000000D03*
X130000000Y-96000000D03*
X131000000Y-96000000D03*
X132000000Y-96000000D03*
X128000000Y-97000000D03*
X129000000Y-97000000D03*
X130000000Y-97000000D03*
X131000000Y-97000000D03*
X132000000Y-97000000D03*
X128000000Y-98000000D03*
X129000000Y-98000000D03*
X130000000Y-98000000D03*
X131000000Y-98000000D03*
X132000000Y-98000000D03*
X128000000Y-99000000D03*
X129000000Y-99000000D03*
X130000000Y-99000000D03*
X131000000Y-99000000D03*
X132000000Y-99000000D03*
D24*
X146900000Y-82108211D03*
X148300000Y-82108211D03*
D25*
X125200000Y-96725000D03*
X125200000Y-98275000D03*
D16*
X145300000Y-81125000D03*
X145300000Y-79475000D03*
D12*
X125200000Y-93475000D03*
X125200000Y-95125000D03*
D20*
X151520000Y-90000000D03*
X152480000Y-90000000D03*
D26*
X147080598Y-84730388D03*
X148110598Y-84730388D03*
D27*
X142400000Y-84460000D03*
X142400000Y-83500000D03*
D28*
X146025000Y-103500000D03*
X147575000Y-103500000D03*
D29*
X143800000Y-97420000D03*
X143800000Y-98380000D03*
X149900000Y-83820000D03*
X149900000Y-84780000D03*
D21*
X131725000Y-86800000D03*
X130075000Y-86800000D03*
D28*
X142250000Y-103500000D03*
X143800000Y-103500000D03*
X115925000Y-67700000D03*
X117475000Y-67700000D03*
D30*
X154451954Y-78026218D03*
X160951954Y-78026218D03*
X154495638Y-83523065D03*
X160951954Y-83526218D03*
D31*
X118900000Y-109000000D03*
X116100000Y-109000000D03*
D25*
X158800000Y-104225000D03*
X158800000Y-105775000D03*
D27*
X144800000Y-84380000D03*
X144800000Y-83420000D03*
D25*
X148550000Y-71625000D03*
X148550000Y-73175000D03*
D32*
X154762500Y-73160000D03*
D33*
X155300000Y-73235000D03*
D32*
X155837500Y-73160000D03*
X155837500Y-71460000D03*
D33*
X155300000Y-71385000D03*
D32*
X154762500Y-71460000D03*
D12*
X148000000Y-99975000D03*
X148000000Y-101625000D03*
D34*
X162790000Y-71990000D03*
X162790000Y-69190000D03*
D28*
X130125000Y-91212500D03*
X131675000Y-91212500D03*
D35*
X117475000Y-73500000D03*
X115925000Y-73500000D03*
D36*
X163362500Y-108642500D03*
X161462500Y-108642500D03*
X162412500Y-110517500D03*
D16*
X159000000Y-89325000D03*
X159000000Y-87675000D03*
D21*
X131725000Y-88900000D03*
X130075000Y-88900000D03*
D37*
X129305000Y-64875000D03*
X130405000Y-64875000D03*
X131505000Y-64875000D03*
X132605000Y-64875000D03*
X133705000Y-64875000D03*
X134805000Y-64875000D03*
X135905000Y-64875000D03*
X137005000Y-64875000D03*
D38*
X138130000Y-74100000D03*
D39*
X126905000Y-75675000D03*
D40*
X138455000Y-72600000D03*
D41*
X138205000Y-65000000D03*
D42*
X126855000Y-65000000D03*
D43*
X126505000Y-73250000D03*
D44*
X135550000Y-78400000D03*
D45*
X136850000Y-78400000D03*
D46*
X146250000Y-73750000D03*
X146250000Y-70450000D03*
X141350000Y-70450000D03*
X141350000Y-73750000D03*
D21*
X132025000Y-78300000D03*
X130375000Y-78300000D03*
D47*
X157025000Y-104637500D03*
X156375000Y-104637500D03*
X155725000Y-104637500D03*
X155075000Y-104637500D03*
X154425000Y-104637500D03*
X153775000Y-104637500D03*
X153125000Y-104637500D03*
X152475000Y-104637500D03*
X151825000Y-104637500D03*
X151175000Y-104637500D03*
X151175000Y-110362500D03*
X151825000Y-110362500D03*
X152475000Y-110362500D03*
X153125000Y-110362500D03*
X153775000Y-110362500D03*
X154425000Y-110362500D03*
X155075000Y-110362500D03*
X155725000Y-110362500D03*
X156375000Y-110362500D03*
X157025000Y-110362500D03*
D48*
X146000000Y-100000000D03*
X143800000Y-100000000D03*
X143800000Y-101700000D03*
X146000000Y-101700000D03*
D15*
X119175000Y-67700000D03*
X120825000Y-67700000D03*
D20*
X151520000Y-91000000D03*
X152480000Y-91000000D03*
D35*
X124475000Y-67700000D03*
X122925000Y-67700000D03*
D12*
X152580000Y-71545000D03*
X152580000Y-73195000D03*
D49*
X147575000Y-110860000D03*
D50*
X148050000Y-110860000D03*
D51*
X148575000Y-110500000D03*
D50*
X149100000Y-110860000D03*
D49*
X149575000Y-110860000D03*
X149575000Y-110140000D03*
D50*
X149100000Y-110140000D03*
X148050000Y-110140000D03*
D49*
X147575000Y-110140000D03*
D52*
X143900000Y-66700000D03*
D53*
X146440000Y-66700000D03*
D11*
X137980000Y-92600000D03*
X137020000Y-92600000D03*
D29*
X142000000Y-97420000D03*
X142000000Y-98380000D03*
D21*
X124585000Y-64800000D03*
X122935000Y-64800000D03*
D54*
X121000000Y-76600000D03*
X121000000Y-92400000D03*
D55*
X121000000Y-84500000D03*
D15*
X161515000Y-103520000D03*
X163165000Y-103520000D03*
D56*
X130300000Y-80795000D03*
X130300000Y-82065000D03*
X130300000Y-83335000D03*
X130300000Y-84605000D03*
X137500000Y-84605000D03*
X137500000Y-83335000D03*
X137500000Y-82065000D03*
X137500000Y-80795000D03*
D57*
X158000000Y-69190000D03*
X157200000Y-69190000D03*
D58*
X156050000Y-69190000D03*
X155050000Y-69190000D03*
X154550000Y-69190000D03*
X153550000Y-69190000D03*
D57*
X152400000Y-69190000D03*
X151600000Y-69190000D03*
X151600000Y-69190000D03*
X152400000Y-69190000D03*
D58*
X153050000Y-69190000D03*
X154050000Y-69190000D03*
X155550000Y-69190000D03*
X156550000Y-69190000D03*
D57*
X157200000Y-69190000D03*
X158000000Y-69190000D03*
D59*
X159120000Y-68615000D03*
D60*
X159120000Y-64435000D03*
D59*
X150480000Y-68615000D03*
D60*
X150480000Y-64435000D03*
D11*
X137980000Y-88600000D03*
X137020000Y-88600000D03*
D28*
X116425000Y-100500000D03*
X117975000Y-100500000D03*
D61*
X116250000Y-116000000D03*
D62*
X116250000Y-116000000D03*
D61*
X118000000Y-116000000D03*
D63*
X118000000Y-116000000D03*
D61*
X119500000Y-116000000D03*
D63*
X119500000Y-116000000D03*
D61*
X121000000Y-116000000D03*
D63*
X121000000Y-116000000D03*
D61*
X122500000Y-116000000D03*
D63*
X122500000Y-116000000D03*
D61*
X124000000Y-116000000D03*
D63*
X124000000Y-116000000D03*
D61*
X125500000Y-116000000D03*
D63*
X125500000Y-116000000D03*
D61*
X127000000Y-116000000D03*
D63*
X127000000Y-116000000D03*
D61*
X128500000Y-116000000D03*
D63*
X128500000Y-116000000D03*
D61*
X130000000Y-116000000D03*
D63*
X130000000Y-116000000D03*
D61*
X131500000Y-116000000D03*
D63*
X131500000Y-116000000D03*
D61*
X133000000Y-116000000D03*
D63*
X133000000Y-116000000D03*
D61*
X134500000Y-116000000D03*
D63*
X134500000Y-116000000D03*
D61*
X136000000Y-116000000D03*
D63*
X136000000Y-116000000D03*
D61*
X137500000Y-116000000D03*
D63*
X137500000Y-116000000D03*
D61*
X139000000Y-116000000D03*
D63*
X139000000Y-116000000D03*
D61*
X140500000Y-116000000D03*
D63*
X140500000Y-116000000D03*
D61*
X142000000Y-116000000D03*
D63*
X142000000Y-116000000D03*
D61*
X143500000Y-116000000D03*
D63*
X143500000Y-116000000D03*
D61*
X145000000Y-116000000D03*
D63*
X145000000Y-116000000D03*
D61*
X146500000Y-116000000D03*
D63*
X146500000Y-116000000D03*
D61*
X148000000Y-116000000D03*
D63*
X148000000Y-116000000D03*
D61*
X149500000Y-116000000D03*
D63*
X149500000Y-116000000D03*
D61*
X151000000Y-116000000D03*
D63*
X151000000Y-116000000D03*
D61*
X152500000Y-116000000D03*
D63*
X152500000Y-116000000D03*
D61*
X154000000Y-116000000D03*
D63*
X154000000Y-116000000D03*
D61*
X155500000Y-116000000D03*
D63*
X155500000Y-116000000D03*
D61*
X157000000Y-116000000D03*
D63*
X157000000Y-116000000D03*
D61*
X158500000Y-116000000D03*
D63*
X158500000Y-116000000D03*
D61*
X160000000Y-116000000D03*
D63*
X160000000Y-116000000D03*
D61*
X161500000Y-116000000D03*
D63*
X161500000Y-116000000D03*
D61*
X163250000Y-116000000D03*
D64*
X163250000Y-116000000D03*
D31*
X118900000Y-97500000D03*
X116100000Y-97500000D03*
D29*
X146200000Y-97420000D03*
X146200000Y-98380000D03*
D49*
X127187500Y-110860000D03*
D50*
X127662500Y-110860000D03*
D51*
X128187500Y-110500000D03*
D50*
X128712500Y-110860000D03*
D49*
X129187500Y-110860000D03*
X129187500Y-110140000D03*
D50*
X128712500Y-110140000D03*
X127662500Y-110140000D03*
D49*
X127187500Y-110140000D03*
D16*
X148500000Y-79225000D03*
X148500000Y-77575000D03*
D26*
X147085257Y-83760167D03*
X148115257Y-83760167D03*
D49*
X132475000Y-110860000D03*
D50*
X132950000Y-110860000D03*
D51*
X133475000Y-110500000D03*
D50*
X134000000Y-110860000D03*
D49*
X134475000Y-110860000D03*
X134475000Y-110140000D03*
D50*
X134000000Y-110140000D03*
X132950000Y-110140000D03*
D49*
X132475000Y-110140000D03*
D65*
X118787500Y-69700000D03*
X118787500Y-70200000D03*
X118787500Y-70700000D03*
X118787500Y-71200000D03*
X118787500Y-71700000D03*
X123012500Y-71700000D03*
X123012500Y-71200000D03*
X123012500Y-70700000D03*
X123012500Y-70200000D03*
X123012500Y-69700000D03*
D49*
X121900000Y-110860000D03*
D50*
X122375000Y-110860000D03*
D51*
X122900000Y-110500000D03*
D50*
X123425000Y-110860000D03*
D49*
X123900000Y-110860000D03*
X123900000Y-110140000D03*
D50*
X123425000Y-110140000D03*
X122375000Y-110140000D03*
D49*
X121900000Y-110140000D03*
D35*
X121775000Y-100550000D03*
X120225000Y-100550000D03*
D25*
X140000000Y-79025000D03*
X140000000Y-80575000D03*
D49*
X144175000Y-110860000D03*
D50*
X144650000Y-110860000D03*
D51*
X145175000Y-110500000D03*
D50*
X145700000Y-110860000D03*
D49*
X146175000Y-110860000D03*
X146175000Y-110140000D03*
D50*
X145700000Y-110140000D03*
X144650000Y-110140000D03*
D49*
X144175000Y-110140000D03*
D66*
X139707000Y-87000000D03*
X139707000Y-87400000D03*
X139707000Y-87800000D03*
X139707000Y-88200000D03*
X139707000Y-88600000D03*
X139707000Y-89000000D03*
X139707000Y-89400000D03*
X139707000Y-89800000D03*
X139707000Y-90200000D03*
X139707000Y-90600000D03*
X139707000Y-91000000D03*
X139707000Y-91400000D03*
X139707000Y-91800000D03*
X139707000Y-92200000D03*
X139707000Y-92600000D03*
X139707000Y-93000000D03*
X139707000Y-93400000D03*
X139707000Y-93800000D03*
X139707000Y-94200000D03*
X139707000Y-94600000D03*
D67*
X140803500Y-95696500D03*
X141203500Y-95696500D03*
X141603500Y-95696500D03*
X142003500Y-95696500D03*
X142403500Y-95696500D03*
X142803500Y-95696500D03*
X143203500Y-95696500D03*
X143603500Y-95696500D03*
X144003500Y-95696500D03*
X144403500Y-95696500D03*
X144803500Y-95696500D03*
X145203500Y-95696500D03*
X145603500Y-95696500D03*
X146003500Y-95696500D03*
X146403500Y-95696500D03*
X146803500Y-95696500D03*
X147203500Y-95696500D03*
X147603500Y-95696500D03*
X148003500Y-95696500D03*
X148403500Y-95696500D03*
D66*
X149500000Y-94600000D03*
X149500000Y-94200000D03*
X149500000Y-93800000D03*
X149500000Y-93400000D03*
X149500000Y-93000000D03*
X149500000Y-92600000D03*
X149500000Y-92200000D03*
X149500000Y-91800000D03*
X149500000Y-91400000D03*
X149500000Y-91000000D03*
X149500000Y-90600000D03*
X149500000Y-90200000D03*
X149500000Y-89800000D03*
X149500000Y-89400000D03*
X149500000Y-89000000D03*
X149500000Y-88600000D03*
X149500000Y-88200000D03*
X149500000Y-87800000D03*
X149500000Y-87400000D03*
X149500000Y-87000000D03*
D67*
X148403500Y-85903500D03*
X148003500Y-85903500D03*
X147603500Y-85903500D03*
X147203500Y-85903500D03*
X146803500Y-85903500D03*
X146403500Y-85903500D03*
X146003500Y-85903500D03*
X145603500Y-85903500D03*
X145203500Y-85903500D03*
X144803500Y-85903500D03*
X144403500Y-85903500D03*
X144003500Y-85903500D03*
X143603500Y-85903500D03*
X143203500Y-85903500D03*
X142803500Y-85903500D03*
X142403500Y-85903500D03*
X142003500Y-85903500D03*
X141603500Y-85903500D03*
X141203500Y-85903500D03*
X140803500Y-85903500D03*
D68*
X143470167Y-89666667D03*
D69*
X143470167Y-89666667D03*
D68*
X143470167Y-90800000D03*
D69*
X143470167Y-90800000D03*
D68*
X143470167Y-91933333D03*
D69*
X143470167Y-91933333D03*
D68*
X144603500Y-89666667D03*
D69*
X144603500Y-89666667D03*
D68*
X144603500Y-90800000D03*
D69*
X144603500Y-90800000D03*
D68*
X144603500Y-91933333D03*
D69*
X144603500Y-91933333D03*
D68*
X145736833Y-89666667D03*
D69*
X145736833Y-89666667D03*
D68*
X145736833Y-90800000D03*
D69*
X145736833Y-90800000D03*
D68*
X145736833Y-91933333D03*
D69*
X145736833Y-91933333D03*
D70*
X132600000Y-67100000D03*
X159000000Y-86700000D03*
X123012500Y-69312500D03*
X122400000Y-64790000D03*
X140715969Y-92748130D03*
X161490000Y-105980000D03*
X125900000Y-95100000D03*
X130500000Y-98500000D03*
X150900000Y-87000000D03*
X127500000Y-98000000D03*
X147200000Y-86800000D03*
D71*
X120250000Y-101500000D03*
D70*
X122930000Y-67080000D03*
X131700000Y-92012500D03*
X156600000Y-106000000D03*
X140978096Y-88584226D03*
X146250000Y-73150000D03*
X149900000Y-81500000D03*
X150275000Y-94725000D03*
X131500000Y-95500000D03*
X126200000Y-98300000D03*
X163700000Y-92500000D03*
X120840000Y-67110000D03*
X141807272Y-94878075D03*
X129600000Y-86800000D03*
X158800000Y-106700000D03*
X142400000Y-85125000D03*
D71*
X120250000Y-102100000D03*
D70*
X145520207Y-86799536D03*
X129900000Y-78300000D03*
X136400000Y-80800000D03*
X150900000Y-91000000D03*
X144000000Y-94800000D03*
X136600000Y-94800000D03*
X116689448Y-75864128D03*
D72*
X145160000Y-109630000D03*
D71*
X159883038Y-62916285D03*
D70*
X149199538Y-96758341D03*
X141350000Y-71100000D03*
D71*
X165683038Y-72916285D03*
D70*
X124500000Y-100700000D03*
D71*
X165683038Y-102916285D03*
D70*
X128500000Y-97500000D03*
X127000000Y-73300000D03*
X129400000Y-91212500D03*
X134291268Y-100091268D03*
X117500000Y-67100000D03*
D71*
X123883038Y-62916285D03*
D70*
X128500000Y-74100000D03*
X124600000Y-88100000D03*
X124500000Y-67100000D03*
X143350000Y-78000000D03*
X140900000Y-64900000D03*
D71*
X165683038Y-106916285D03*
D70*
X150600000Y-76272503D03*
D71*
X129883038Y-62916285D03*
D70*
X128800000Y-85900000D03*
X147700000Y-88500000D03*
X133600000Y-77700000D03*
X143040000Y-111830000D03*
X152900000Y-90000000D03*
D71*
X153883038Y-62916285D03*
D72*
X128190000Y-109710000D03*
D70*
X135200000Y-75700000D03*
X118480000Y-111550000D03*
X123300000Y-105700000D03*
D71*
X165683038Y-86916285D03*
D70*
X160090000Y-72430000D03*
X143800000Y-99000000D03*
X144400000Y-106700000D03*
X145100000Y-103500000D03*
D71*
X121883038Y-62916285D03*
D72*
X122920000Y-111290000D03*
D70*
X150600000Y-73827497D03*
D71*
X113883038Y-104916285D03*
D70*
X158800000Y-103200000D03*
D71*
X165683038Y-110916285D03*
D70*
X150300000Y-84800000D03*
X151300000Y-100060164D03*
X151850000Y-73200000D03*
X138644876Y-86851384D03*
D71*
X113883038Y-108916285D03*
X141883038Y-62916285D03*
D70*
X116200000Y-64900000D03*
X128500000Y-96500000D03*
X121300000Y-95900000D03*
X153100000Y-87000000D03*
D71*
X113883038Y-112916285D03*
D70*
X154340000Y-90660000D03*
X137900000Y-72600000D03*
X138200000Y-65900000D03*
X124188368Y-65920196D03*
D71*
X139883038Y-62916285D03*
D70*
X159800000Y-100800000D03*
D71*
X165683038Y-100916285D03*
D72*
X133470000Y-109660000D03*
D71*
X113883038Y-86916285D03*
D70*
X164100000Y-89200000D03*
D71*
X165683038Y-78916285D03*
X165683038Y-74916285D03*
D70*
X136571232Y-92971232D03*
D72*
X148590000Y-111290000D03*
D70*
X131400000Y-92700000D03*
D71*
X161533038Y-65616285D03*
D70*
X117950000Y-93200000D03*
D71*
X113883038Y-64916285D03*
D70*
X132511471Y-98525000D03*
X118300000Y-89300000D03*
D71*
X113883038Y-96916285D03*
D70*
X134800000Y-72300000D03*
X134800000Y-65900000D03*
D71*
X165683038Y-112916285D03*
D70*
X130500000Y-95463157D03*
D71*
X113883038Y-68916285D03*
X113883038Y-100916285D03*
D70*
X139000000Y-79000000D03*
X153000000Y-91000000D03*
X151200000Y-109200000D03*
D71*
X165683038Y-68916285D03*
D70*
X127234599Y-78181197D03*
X145424434Y-77998328D03*
X141400000Y-91659979D03*
X142800000Y-98300000D03*
X136500000Y-88600000D03*
X137900000Y-67700000D03*
X130900000Y-101800000D03*
X135700000Y-112500000D03*
D72*
X145180000Y-111280000D03*
D71*
X125883038Y-62916285D03*
D70*
X151130000Y-77870000D03*
X139300000Y-81975000D03*
D71*
X147883038Y-62916285D03*
D70*
X137200000Y-94100000D03*
X134800000Y-67300000D03*
D71*
X113883038Y-78916285D03*
D70*
X127400000Y-97000000D03*
D71*
X157883038Y-62916285D03*
D70*
X135391268Y-98991268D03*
D71*
X113883038Y-98916285D03*
X165683038Y-66916285D03*
D70*
X154500000Y-84700000D03*
D71*
X113883038Y-94916285D03*
D70*
X154130000Y-107580000D03*
X134200000Y-82500000D03*
D71*
X127883038Y-62916285D03*
X158375000Y-69925000D03*
D70*
X148700000Y-84000000D03*
D71*
X165683038Y-76916285D03*
D70*
X132700000Y-82800000D03*
D71*
X113883038Y-62916285D03*
D70*
X121000000Y-69700000D03*
X129400000Y-84600000D03*
X128500000Y-71700000D03*
D71*
X165683038Y-70916285D03*
D70*
X144479576Y-87444625D03*
X132700000Y-73200000D03*
X135991268Y-98391268D03*
X157825000Y-73775000D03*
X119000000Y-64900000D03*
D71*
X165683038Y-96916285D03*
D70*
X133691268Y-100691268D03*
X121590000Y-64820000D03*
D71*
X131883038Y-62916285D03*
D70*
X138600000Y-85300000D03*
D71*
X113883038Y-102916285D03*
D70*
X152500000Y-95000000D03*
X159800000Y-102900000D03*
X124836114Y-69377723D03*
X138100000Y-78400000D03*
X126200000Y-96700000D03*
D71*
X165683038Y-80916285D03*
X115750000Y-100500000D03*
X165683038Y-84916285D03*
D70*
X128800000Y-80000000D03*
D71*
X145883038Y-62916285D03*
D70*
X141673013Y-88500000D03*
D71*
X165683038Y-82916285D03*
D70*
X134841268Y-99541268D03*
X124800000Y-80700000D03*
X144800000Y-83000000D03*
X134800000Y-69200000D03*
X116950000Y-95243655D03*
D71*
X115883038Y-62916285D03*
X113883038Y-76916285D03*
D70*
X159900000Y-91000000D03*
X141300000Y-103500000D03*
D71*
X155883038Y-62916285D03*
D70*
X152600000Y-100000000D03*
X148000000Y-93200000D03*
D71*
X143883038Y-62916285D03*
D70*
X143100000Y-94100000D03*
D71*
X113883038Y-106916285D03*
D70*
X163600000Y-82990000D03*
D71*
X165683038Y-98916285D03*
X121800000Y-99850000D03*
D70*
X161080000Y-108650000D03*
X146900000Y-98400000D03*
D71*
X149883038Y-62916285D03*
X163200000Y-114700000D03*
X119883038Y-62916285D03*
X165683038Y-104916285D03*
D72*
X122890000Y-109710000D03*
D70*
X156179998Y-106560002D03*
D71*
X113883038Y-92916285D03*
X113883038Y-88916285D03*
X113883038Y-74916285D03*
X133883038Y-62916285D03*
D70*
X142600000Y-100000000D03*
D71*
X165683038Y-92916285D03*
D70*
X121600000Y-106800000D03*
X148525000Y-71000000D03*
D71*
X117883038Y-62916285D03*
D70*
X127010000Y-67280000D03*
X125500000Y-110500000D03*
X151200000Y-106670822D03*
X134200000Y-83000000D03*
X117700000Y-71700000D03*
D71*
X113883038Y-110916285D03*
X113883038Y-70916285D03*
D70*
X144600000Y-93700000D03*
X120100000Y-73500000D03*
D72*
X128200000Y-111290000D03*
D70*
X148290000Y-108420000D03*
X119100000Y-101750000D03*
D71*
X113883038Y-66916285D03*
D70*
X123800000Y-93200000D03*
X133600000Y-79900000D03*
X136500000Y-90600000D03*
X136469575Y-97734787D03*
D71*
X164383038Y-65616285D03*
D70*
X162800000Y-74900000D03*
D71*
X113883038Y-84916285D03*
X117000000Y-103550000D03*
D72*
X133470000Y-111300000D03*
D70*
X118500000Y-79800000D03*
D71*
X116400000Y-103550000D03*
X135883038Y-62916285D03*
X113883038Y-82916285D03*
X113883038Y-80916285D03*
D72*
X148570000Y-109710000D03*
D70*
X118900000Y-107152253D03*
D71*
X165683038Y-90916285D03*
D70*
X159900000Y-110700000D03*
X142400000Y-83000000D03*
X137900000Y-69700000D03*
X155300000Y-72700000D03*
D71*
X151150000Y-69950000D03*
D70*
X148700000Y-84500000D03*
D71*
X113883038Y-90916285D03*
D70*
X142200000Y-81100000D03*
D71*
X113883038Y-72916285D03*
D70*
X125700000Y-103100000D03*
X145700000Y-105500000D03*
X132700000Y-69200000D03*
D71*
X165683038Y-108916285D03*
D70*
X161437385Y-98657749D03*
D71*
X165683038Y-88916285D03*
D70*
X118100000Y-73500000D03*
D71*
X151883038Y-62916285D03*
X137883038Y-62916285D03*
D70*
X161000000Y-84700000D03*
D71*
X165683038Y-94916285D03*
D70*
X129500000Y-98500000D03*
X163600000Y-78200000D03*
X121300000Y-97900000D03*
X126850259Y-65862182D03*
X140910000Y-67070000D03*
X146446121Y-86800000D03*
D71*
X146425000Y-83500000D03*
X146446121Y-84100000D03*
X146436460Y-88600000D03*
X161500000Y-69200000D03*
X152400000Y-70000000D03*
X157200000Y-70000000D03*
X116100000Y-94800000D03*
D70*
X155300000Y-71900000D03*
D71*
X162800000Y-73450000D03*
X116100000Y-95700000D03*
X162800000Y-72850000D03*
D70*
X160400000Y-90500000D03*
X145800000Y-93625000D03*
X151621232Y-99421232D03*
X161100000Y-96500000D03*
X160400000Y-91700000D03*
X146400000Y-94000000D03*
D71*
X143500000Y-78750000D03*
X150600000Y-74577500D03*
X150600000Y-75522500D03*
X145300000Y-78750000D03*
D70*
X130400000Y-76400000D03*
X130400000Y-66400000D03*
X138800000Y-84600000D03*
X144200000Y-85000000D03*
X143800000Y-83700000D03*
X134100000Y-83700000D03*
X142125000Y-81800000D03*
X134100000Y-81800000D03*
X144820389Y-86815606D03*
X136075000Y-82500000D03*
X144100000Y-86800000D03*
X139400000Y-85200000D03*
X129500000Y-97500000D03*
X135200000Y-89800000D03*
X131500000Y-69200000D03*
X131500000Y-66400000D03*
X137200000Y-86200000D03*
X141300000Y-90000003D03*
X130500000Y-97500000D03*
X140200000Y-81975000D03*
X135900000Y-66300000D03*
X140200000Y-85200000D03*
X142000000Y-86700000D03*
X141300000Y-89300000D03*
X132575000Y-88900000D03*
X148300000Y-88900000D03*
X163160000Y-102960000D03*
X128500000Y-95500000D03*
X140497793Y-88075000D03*
X140700000Y-91300000D03*
X130800000Y-99775000D03*
X140721230Y-92021233D03*
X129000000Y-99500000D03*
X133700000Y-66400000D03*
X138400000Y-77300000D03*
X131900000Y-93300000D03*
X130500000Y-96500000D03*
X152600000Y-98800000D03*
X148500000Y-92700000D03*
X142600000Y-96600000D03*
X143478500Y-96622177D03*
X142958159Y-94822448D03*
X142400000Y-94400000D03*
D71*
X116100000Y-113500000D03*
D70*
X159900000Y-109100000D03*
X156400000Y-109000000D03*
D71*
X116100000Y-112900000D03*
D70*
X148595624Y-96404376D03*
X151600000Y-93525000D03*
X150800000Y-94075000D03*
X147700000Y-94800000D03*
X148500000Y-93800000D03*
X118600000Y-67700000D03*
X120100000Y-72700000D03*
X138000000Y-87275000D03*
D71*
X117000000Y-104500000D03*
X118900000Y-98500000D03*
X117950000Y-101500000D03*
X117950000Y-102100000D03*
X118050000Y-106900000D03*
X118400000Y-99000000D03*
X118050000Y-107600000D03*
D70*
X137800000Y-74100000D03*
X126900000Y-75200000D03*
D71*
X124900000Y-70125000D03*
D70*
X124580000Y-65340000D03*
X122200000Y-91300000D03*
X119800000Y-77900000D03*
X122300000Y-93700000D03*
X122200000Y-75300000D03*
X119900000Y-91300000D03*
X119800000Y-75300000D03*
X122200000Y-77900000D03*
X119900000Y-93700000D03*
X153575000Y-78050000D03*
X147437962Y-87797262D03*
X157900000Y-102600000D03*
X151400000Y-106000000D03*
D73*
X163000000Y-91770000D02*
X163000000Y-91800000D01*
D74*
X122925000Y-67700000D02*
X122925000Y-67085000D01*
D75*
X120250000Y-101500000D02*
X120250000Y-100575000D01*
D73*
X142003500Y-95074303D02*
X141807272Y-94878075D01*
X139707000Y-88600000D02*
X137980000Y-88600000D01*
D74*
X126175000Y-98275000D02*
X126200000Y-98300000D01*
D73*
X150275000Y-94725000D02*
X150150000Y-94600000D01*
X142403500Y-84463500D02*
X142400000Y-84460000D01*
X145603500Y-85903500D02*
X145203500Y-85903500D01*
X125875000Y-95125000D02*
X125900000Y-95100000D01*
X145203500Y-85903500D02*
X145203500Y-85445284D01*
D74*
X131675000Y-91775000D02*
X131700000Y-91800000D01*
D75*
X120237500Y-102600000D02*
X120237500Y-102112500D01*
D73*
X144003500Y-94803500D02*
X144000000Y-94800000D01*
X144003500Y-95696500D02*
X144003500Y-94803500D01*
X140567839Y-92600000D02*
X140715969Y-92748130D01*
D74*
X123000000Y-69300000D02*
X123000000Y-67775000D01*
D73*
X131000000Y-99000000D02*
X130500000Y-98500000D01*
X120825000Y-67125000D02*
X120840000Y-67110000D01*
X156375000Y-105775000D02*
X156600000Y-106000000D01*
X128000000Y-98000000D02*
X127500000Y-98000000D01*
X156375000Y-104637500D02*
X156375000Y-105775000D01*
X142403500Y-85128500D02*
X142400000Y-85125000D01*
X142003500Y-95696500D02*
X142003500Y-97416500D01*
X161467500Y-106002500D02*
X161490000Y-105980000D01*
X144003500Y-95696500D02*
X144003500Y-97216500D01*
X145603500Y-86716243D02*
X145520207Y-86799536D01*
X137500000Y-80795000D02*
X139780000Y-80795000D01*
X139707000Y-88600000D02*
X140962322Y-88600000D01*
X130375000Y-78300000D02*
X129900000Y-78300000D01*
X150400000Y-94600000D02*
X151520000Y-94600000D01*
X139780000Y-80795000D02*
X140000000Y-80575000D01*
X122935000Y-64800000D02*
X122410000Y-64800000D01*
X150275000Y-94725000D02*
X150400000Y-94600000D01*
X158800000Y-105775000D02*
X158800000Y-106700000D01*
X149500000Y-87000000D02*
X150900000Y-87000000D01*
D74*
X122925000Y-67085000D02*
X122930000Y-67080000D01*
D73*
X142403500Y-85903500D02*
X142403500Y-85128500D01*
D75*
X120250000Y-100575000D02*
X120225000Y-100550000D01*
D73*
X125200000Y-95125000D02*
X125875000Y-95125000D01*
X163000000Y-91800000D02*
X163700000Y-92500000D01*
X144003500Y-97216500D02*
X143800000Y-97420000D01*
D76*
X132605000Y-67095000D02*
X132605000Y-64875000D01*
D73*
X147203500Y-86796500D02*
X147200000Y-86800000D01*
X150150000Y-94600000D02*
X149500000Y-94600000D01*
X130075000Y-86800000D02*
X129600000Y-86800000D01*
X151520000Y-87000000D02*
X150900000Y-87000000D01*
X157700000Y-106000000D02*
X156600000Y-106000000D01*
X131000000Y-96000000D02*
X131500000Y-95500000D01*
D74*
X149900000Y-81890000D02*
X149900000Y-81500000D01*
D73*
X145203500Y-85445284D02*
X144800000Y-85041784D01*
X122410000Y-64800000D02*
X122400000Y-64790000D01*
X151520000Y-91000000D02*
X150900000Y-91000000D01*
X120825000Y-67700000D02*
X120825000Y-67125000D01*
X137500000Y-80795000D02*
X136405000Y-80795000D01*
X140962322Y-88600000D02*
X140978096Y-88584226D01*
X144800000Y-85041784D02*
X144800000Y-84380000D01*
D75*
X120237500Y-102112500D02*
X120250000Y-102100000D01*
D73*
X149500000Y-91000000D02*
X150900000Y-91000000D01*
D75*
X120250000Y-102100000D02*
X120250000Y-101500000D01*
D73*
X142003500Y-95696500D02*
X142003500Y-95074303D01*
X139707000Y-92600000D02*
X140567839Y-92600000D01*
X161467500Y-106530000D02*
X161467500Y-106002500D01*
X159000000Y-87675000D02*
X159000000Y-86700000D01*
X147203500Y-85903500D02*
X147203500Y-86796500D01*
X142003500Y-97416500D02*
X142000000Y-97420000D01*
D74*
X125200000Y-98275000D02*
X126175000Y-98275000D01*
X123012500Y-69312500D02*
X123012500Y-69700000D01*
X123000000Y-67775000D02*
X122925000Y-67700000D01*
D73*
X145603500Y-85903500D02*
X145603500Y-86716243D01*
X136405000Y-80795000D02*
X136400000Y-80800000D01*
D76*
X132600000Y-67100000D02*
X132605000Y-67095000D01*
D73*
X158800000Y-105775000D02*
X157925000Y-105775000D01*
D74*
X131675000Y-91212500D02*
X131675000Y-91987500D01*
D73*
X149500000Y-87400000D02*
X149500000Y-87000000D01*
D74*
X146250000Y-73750000D02*
X146250000Y-73150000D01*
D73*
X157925000Y-105775000D02*
X157700000Y-106000000D01*
X139707000Y-92600000D02*
X137980000Y-92600000D01*
X142400000Y-84460000D02*
X142400000Y-85125000D01*
X117475000Y-67700000D02*
X117475000Y-67125000D01*
X145180000Y-111194560D02*
X145175000Y-111189560D01*
D75*
X116425000Y-100500000D02*
X115750000Y-100500000D01*
X117000000Y-103550000D02*
X116400000Y-103550000D01*
X121775000Y-100550000D02*
X121775000Y-99875000D01*
D73*
X142720000Y-98380000D02*
X142800000Y-98300000D01*
X148550000Y-71025000D02*
X148525000Y-71000000D01*
D76*
X121000000Y-86600000D02*
X118300000Y-89300000D01*
D73*
X146025000Y-103500000D02*
X145100000Y-103500000D01*
X139025000Y-79025000D02*
X139000000Y-79000000D01*
X148575000Y-109810440D02*
X148575000Y-110500000D01*
D74*
X130125000Y-91212500D02*
X129400000Y-91212500D01*
D73*
X159350000Y-98650000D02*
X161429636Y-98650000D01*
X124475000Y-67700000D02*
X124475000Y-67125000D01*
X117475000Y-67125000D02*
X117500000Y-67100000D01*
X142000000Y-98380000D02*
X142720000Y-98380000D01*
D76*
X138455000Y-72600000D02*
X137900000Y-72600000D01*
D73*
X145175000Y-109810440D02*
X145175000Y-110500000D01*
X132036471Y-99000000D02*
X132511471Y-98525000D01*
X145160000Y-109630000D02*
X145160000Y-109795440D01*
X152480000Y-94980000D02*
X152500000Y-95000000D01*
X146200000Y-98380000D02*
X146880000Y-98380000D01*
X129405000Y-84605000D02*
X129400000Y-84600000D01*
D76*
X121000000Y-84500000D02*
X124800000Y-80700000D01*
D73*
X122900000Y-110500000D02*
X122900000Y-111270000D01*
X146000000Y-101700000D02*
X146000000Y-103475000D01*
X126950000Y-73250000D02*
X127000000Y-73300000D01*
X133470000Y-109660000D02*
X133470000Y-109805440D01*
D75*
X163250000Y-116000000D02*
X163250000Y-114750000D01*
D76*
X121000000Y-84500000D02*
X121000000Y-86600000D01*
X151600000Y-69500000D02*
X151150000Y-69950000D01*
D74*
X155300000Y-73235000D02*
X155300000Y-72700000D01*
D73*
X137020000Y-92600000D02*
X136942464Y-92600000D01*
X128190000Y-109710000D02*
X128190000Y-109810000D01*
D76*
X134805000Y-65895000D02*
X134800000Y-65900000D01*
D73*
X164070000Y-89230000D02*
X164100000Y-89200000D01*
X163000000Y-89230000D02*
X164070000Y-89230000D01*
X144800000Y-83100000D02*
X144800000Y-83000000D01*
D75*
X117962500Y-103550000D02*
X117000000Y-103550000D01*
D76*
X126855000Y-65857441D02*
X126850259Y-65862182D01*
D73*
X145160000Y-109795440D02*
X145175000Y-109810440D01*
X148570000Y-109805440D02*
X148575000Y-109810440D01*
X157810000Y-73760000D02*
X157825000Y-73775000D01*
D76*
X121000000Y-84500000D02*
X124600000Y-88100000D01*
D73*
X118787500Y-71700000D02*
X119500000Y-71700000D01*
X122900000Y-110500000D02*
X122900000Y-109720000D01*
X152480000Y-87000000D02*
X153100000Y-87000000D01*
X161087500Y-108642500D02*
X161080000Y-108650000D01*
X143800000Y-100000000D02*
X142600000Y-100000000D01*
X133470000Y-111194560D02*
X133475000Y-111189560D01*
X148590000Y-111204560D02*
X148575000Y-111189560D01*
X133470000Y-109805440D02*
X133475000Y-109810440D01*
D76*
X134805000Y-64875000D02*
X134805000Y-65895000D01*
D73*
X144800000Y-83420000D02*
X144800000Y-83100000D01*
D74*
X151855000Y-73195000D02*
X151850000Y-73200000D01*
D76*
X126855000Y-65000000D02*
X126855000Y-65857441D01*
D74*
X126175000Y-96725000D02*
X126200000Y-96700000D01*
D73*
X136850000Y-78400000D02*
X138100000Y-78400000D01*
X158800000Y-104225000D02*
X158800000Y-103200000D01*
X148550000Y-71625000D02*
X148550000Y-71025000D01*
X130500000Y-95500000D02*
X130500000Y-95463157D01*
X142400000Y-83500000D02*
X142400000Y-83000000D01*
X118787500Y-71700000D02*
X117700000Y-71700000D01*
X158900000Y-110675000D02*
X159875000Y-110675000D01*
D76*
X158375000Y-69925000D02*
X158000000Y-69550000D01*
X151600000Y-69190000D02*
X151600000Y-69500000D01*
D73*
X161462500Y-108642500D02*
X161087500Y-108642500D01*
X128190000Y-109810000D02*
X128187500Y-109812500D01*
X145180000Y-111280000D02*
X145180000Y-111194560D01*
X117475000Y-73500000D02*
X118100000Y-73500000D01*
X136942464Y-92600000D02*
X136571232Y-92971232D01*
X128187500Y-109812500D02*
X128187500Y-110500000D01*
D76*
X121000000Y-84500000D02*
X121000000Y-82300000D01*
D73*
X133475000Y-109810440D02*
X133475000Y-110500000D01*
X128187500Y-111187500D02*
X128187500Y-110500000D01*
X148575000Y-111189560D02*
X148575000Y-110500000D01*
D75*
X163250000Y-114750000D02*
X163200000Y-114700000D01*
D73*
X128000000Y-97000000D02*
X127400000Y-97000000D01*
X124475000Y-67125000D02*
X124500000Y-67100000D01*
X132000000Y-99000000D02*
X132036471Y-99000000D01*
D76*
X158000000Y-69550000D02*
X158000000Y-69190000D01*
D73*
X137020000Y-90600000D02*
X136500000Y-90600000D01*
X140000000Y-79025000D02*
X139025000Y-79025000D01*
D75*
X121775000Y-99875000D02*
X121800000Y-99850000D01*
D73*
X122900000Y-111270000D02*
X122920000Y-111290000D01*
X143800000Y-98380000D02*
X143800000Y-99000000D01*
X126505000Y-73250000D02*
X126950000Y-73250000D01*
D74*
X152580000Y-73195000D02*
X151855000Y-73195000D01*
D73*
X122900000Y-109720000D02*
X122890000Y-109710000D01*
D74*
X125200000Y-96725000D02*
X126175000Y-96725000D01*
D73*
X148570000Y-109710000D02*
X148570000Y-109805440D01*
X146880000Y-98380000D02*
X146900000Y-98400000D01*
D74*
X149900000Y-84780000D02*
X150280000Y-84780000D01*
D73*
X148590000Y-111290000D02*
X148590000Y-111204560D01*
X161429636Y-98650000D02*
X161437385Y-98657749D01*
X159875000Y-110675000D02*
X159900000Y-110700000D01*
X152480000Y-94600000D02*
X152480000Y-94980000D01*
X141350000Y-70450000D02*
X141350000Y-71100000D01*
X151175000Y-110362500D02*
X151175000Y-109225000D01*
X152480000Y-90000000D02*
X152900000Y-90000000D01*
X163500000Y-98650000D02*
X161445134Y-98650000D01*
X133475000Y-111189560D02*
X133475000Y-110500000D01*
X152480000Y-91000000D02*
X153000000Y-91000000D01*
X128200000Y-111200000D02*
X128187500Y-111187500D01*
X130300000Y-84605000D02*
X129405000Y-84605000D01*
X145175000Y-111189560D02*
X145175000Y-110500000D01*
X133470000Y-111300000D02*
X133470000Y-111194560D01*
X151175000Y-109225000D02*
X151200000Y-109200000D01*
D76*
X138205000Y-65000000D02*
X138205000Y-65895000D01*
D73*
X128200000Y-111290000D02*
X128200000Y-111200000D01*
X142250000Y-103500000D02*
X141300000Y-103500000D01*
X130000000Y-96000000D02*
X130500000Y-95500000D01*
D76*
X121000000Y-82300000D02*
X118500000Y-79800000D01*
D73*
X161445134Y-98650000D02*
X161437385Y-98657749D01*
X157810000Y-73265000D02*
X157810000Y-73760000D01*
X146000000Y-103475000D02*
X146025000Y-103500000D01*
X137020000Y-88600000D02*
X136500000Y-88600000D01*
D74*
X150280000Y-84780000D02*
X150300000Y-84800000D01*
D76*
X138205000Y-65895000D02*
X138200000Y-65900000D01*
D73*
X149300000Y-85007000D02*
X149300000Y-84200000D01*
X148403500Y-85903500D02*
X149300000Y-85007000D01*
X149300000Y-84200000D02*
X149680000Y-83820000D01*
X149680000Y-83820000D02*
X149900000Y-83820000D01*
X149900000Y-83820000D02*
X149900000Y-82910000D01*
X142299441Y-90600559D02*
X142300000Y-90600000D01*
X146800000Y-90600000D02*
X146800000Y-88600000D01*
X145520000Y-97420000D02*
X146200000Y-97420000D01*
X140412160Y-90600000D02*
X140412719Y-90600559D01*
X146436460Y-88600000D02*
X146800000Y-88600000D01*
X142300000Y-93100000D02*
X142300000Y-90600000D01*
X145203500Y-95696500D02*
X145203500Y-93103500D01*
X142300000Y-90600000D02*
X142300000Y-88600000D01*
X149500000Y-90600000D02*
X150500000Y-90600000D01*
X146803500Y-88596500D02*
X146800000Y-88600000D01*
X145203500Y-97103500D02*
X145203500Y-95696500D01*
X145520000Y-97420000D02*
X145203500Y-97103500D01*
X139707000Y-90600000D02*
X137980000Y-90600000D01*
X140412719Y-90600559D02*
X142299441Y-90600559D01*
X145200000Y-93100000D02*
X142300000Y-93100000D01*
X139707000Y-90600000D02*
X140412160Y-90600000D01*
X151100000Y-90000000D02*
X151520000Y-90000000D01*
X142300000Y-88600000D02*
X146436460Y-88600000D01*
X150500000Y-90600000D02*
X151100000Y-90000000D01*
X145200000Y-93100000D02*
X146800000Y-93100000D01*
X146800000Y-93100000D02*
X146800000Y-90600000D01*
X146803500Y-85903500D02*
X146803500Y-86442621D01*
X149500000Y-90600000D02*
X148700000Y-90600000D01*
X146803500Y-86442621D02*
X146446121Y-86800000D01*
X145203500Y-93103500D02*
X145200000Y-93100000D01*
X148700000Y-90600000D02*
X146800000Y-90600000D01*
X151500000Y-85310000D02*
X151500000Y-81040000D01*
X142700000Y-77200000D02*
X141350000Y-75850000D01*
X149450000Y-85890000D02*
X150920000Y-85890000D01*
X149500000Y-87800000D02*
X148650000Y-87800000D01*
X148440000Y-87590000D02*
X148440000Y-86900000D01*
X147550000Y-80500000D02*
X146850000Y-79800000D01*
X148650000Y-87800000D02*
X148440000Y-87590000D01*
X150960000Y-80500000D02*
X147550000Y-80500000D01*
X148440000Y-86900000D02*
X149450000Y-85890000D01*
X146850000Y-78050000D02*
X146000000Y-77200000D01*
X151500000Y-81040000D02*
X150960000Y-80500000D01*
X141350000Y-75850000D02*
X141350000Y-73750000D01*
X146000000Y-77200000D02*
X142700000Y-77200000D01*
X150920000Y-85890000D02*
X151500000Y-85310000D01*
X146850000Y-79800000D02*
X146850000Y-78050000D01*
D76*
X162780000Y-69200000D02*
X162790000Y-69190000D01*
X152400000Y-69190000D02*
X152400000Y-70000000D01*
X161500000Y-69200000D02*
X162780000Y-69200000D01*
X157200000Y-70000000D02*
X157200000Y-69190000D01*
X162790000Y-72840000D02*
X162800000Y-72850000D01*
D77*
X116100000Y-95700000D02*
X116100000Y-94800000D01*
D74*
X155300000Y-71385000D02*
X155300000Y-71900000D01*
D76*
X162800000Y-72850000D02*
X162800000Y-73450000D01*
X162790000Y-71990000D02*
X162790000Y-72840000D01*
D77*
X116100000Y-97500000D02*
X116100000Y-95700000D01*
D74*
X154762500Y-71460000D02*
X154762500Y-70487500D01*
X154762500Y-70487500D02*
X154336681Y-70487500D01*
X154050000Y-70200819D02*
X154336681Y-70487500D01*
X154050000Y-69190000D02*
X154050000Y-70200819D01*
X154762500Y-70487500D02*
X155050000Y-70200000D01*
X155050000Y-70200000D02*
X155050000Y-69190000D01*
D73*
X156050000Y-69190000D02*
X156050000Y-69764999D01*
X156050000Y-69764999D02*
X156700000Y-70414999D01*
X156700000Y-70414999D02*
X156700000Y-71200000D01*
X156700000Y-71200000D02*
X157115000Y-71615000D01*
X157115000Y-71615000D02*
X157810000Y-71615000D01*
D74*
X155550000Y-70250000D02*
X155550000Y-69190000D01*
X155837500Y-70537500D02*
X155550000Y-70250000D01*
X155550000Y-69190000D02*
X155550000Y-68250000D01*
X154550000Y-69190000D02*
X154550000Y-68249999D01*
X154799999Y-68000000D02*
X154550000Y-68249999D01*
X155550000Y-68250000D02*
X155300000Y-68000000D01*
X155837500Y-71460000D02*
X155837500Y-70537500D01*
X155300000Y-68000000D02*
X154799999Y-68000000D01*
D73*
X153050000Y-69190000D02*
X153050000Y-70550000D01*
X153050000Y-70550000D02*
X152580000Y-71020000D01*
X152580000Y-71020000D02*
X152580000Y-71545000D01*
X160400000Y-90500000D02*
X161730000Y-90500000D01*
X145603500Y-93821500D02*
X145800000Y-93625000D01*
X145603500Y-95696500D02*
X145603500Y-93821500D01*
X164300000Y-91800000D02*
X163000000Y-90500000D01*
X164300000Y-94700000D02*
X164300000Y-91800000D01*
X146403500Y-95696500D02*
X146403500Y-94796500D01*
X159250000Y-94550000D02*
X159000000Y-94300000D01*
X159000000Y-94300000D02*
X159000000Y-89325000D01*
X146403500Y-94796500D02*
X147000000Y-94200000D01*
X161100000Y-96500000D02*
X159350000Y-96500000D01*
X163500000Y-96500000D02*
X163500000Y-95500000D01*
X161100000Y-96500000D02*
X163500000Y-96500000D01*
X147842463Y-94200000D02*
X151621232Y-97978769D01*
X163500000Y-95500000D02*
X164300000Y-94700000D01*
X147000000Y-94200000D02*
X147842463Y-94200000D01*
X151621232Y-97978769D02*
X151621232Y-99421232D01*
X159350000Y-96500000D02*
X159350000Y-94650000D01*
X159350000Y-94650000D02*
X159250000Y-94550000D01*
X146003500Y-94396500D02*
X146400000Y-94000000D01*
X161660000Y-91700000D02*
X161730000Y-91770000D01*
X146003500Y-95696500D02*
X146003500Y-94396500D01*
X160400000Y-91700000D02*
X161660000Y-91700000D01*
X142803500Y-86996500D02*
X142803500Y-85903500D01*
X137700000Y-86800000D02*
X138200000Y-86300000D01*
X135550000Y-78400000D02*
X135550000Y-86725000D01*
X140000000Y-86300000D02*
X140925000Y-87225000D01*
X138200000Y-86300000D02*
X140000000Y-86300000D01*
X142575000Y-87225000D02*
X142803500Y-86996500D01*
X135550000Y-86725000D02*
X135625000Y-86800000D01*
X140925000Y-87225000D02*
X142575000Y-87225000D01*
X135625000Y-86800000D02*
X137700000Y-86800000D01*
X133975000Y-85825000D02*
X135000000Y-84800000D01*
X130075000Y-88325000D02*
X130600000Y-87800000D01*
X133975000Y-86800000D02*
X133975000Y-85825000D01*
X131725000Y-86800000D02*
X133975000Y-86800000D01*
X134395000Y-80795000D02*
X132995000Y-80795000D01*
X132995000Y-80795000D02*
X130300000Y-80795000D01*
X130075000Y-88900000D02*
X130075000Y-88325000D01*
X131725000Y-87375000D02*
X131725000Y-86800000D01*
X135000000Y-81400000D02*
X134395000Y-80795000D01*
X130600000Y-87800000D02*
X131300000Y-87800000D01*
X135000000Y-84800000D02*
X135000000Y-81400000D01*
X131300000Y-87800000D02*
X131725000Y-87375000D01*
X149958216Y-88200000D02*
X149500000Y-88200000D01*
X153650000Y-87700000D02*
X150458216Y-87700000D01*
X154000000Y-86550000D02*
X154000000Y-87350000D01*
X150458216Y-87700000D02*
X149958216Y-88200000D01*
X151475000Y-79225000D02*
X152760000Y-80510000D01*
X152760000Y-85310000D02*
X154000000Y-86550000D01*
X152760000Y-80510000D02*
X152760000Y-85310000D01*
X148500000Y-79225000D02*
X151475000Y-79225000D01*
X154000000Y-87350000D02*
X153650000Y-87700000D01*
D78*
X154780500Y-73671196D02*
X154958000Y-73848696D01*
X154958000Y-74158338D02*
X154408339Y-74707999D01*
X150730499Y-74707999D02*
X150600000Y-74577500D01*
X154958000Y-73848696D02*
X154958000Y-74158338D01*
X154408339Y-74707999D02*
X150730499Y-74707999D01*
X154762500Y-73160000D02*
X154762500Y-73535001D01*
X143500000Y-79475000D02*
X143500000Y-78750000D01*
X154780500Y-73553001D02*
X154780500Y-73671196D01*
X154762500Y-73535001D02*
X154780500Y-73553001D01*
X150730499Y-75392001D02*
X150600000Y-75522500D01*
X155837500Y-73535001D02*
X155819500Y-73553001D01*
X155819500Y-73553001D02*
X155819500Y-73671196D01*
X155819500Y-73671196D02*
X155642000Y-73848696D01*
X155642000Y-74441662D02*
X154691661Y-75392001D01*
X145300000Y-79475000D02*
X145300000Y-78750000D01*
X155642000Y-73848696D02*
X155642000Y-74441662D01*
X154691661Y-75392001D02*
X150730499Y-75392001D01*
X155837500Y-73160000D02*
X155837500Y-73535001D01*
D73*
X138400000Y-76400000D02*
X132000000Y-76400000D01*
X140500000Y-77400000D02*
X139400000Y-77400000D01*
X130405000Y-64875000D02*
X130405000Y-66395000D01*
X141600000Y-78500000D02*
X140500000Y-77400000D01*
X141600000Y-85441784D02*
X141600000Y-78500000D01*
X132025000Y-76425000D02*
X132000000Y-76400000D01*
X132000000Y-76400000D02*
X130400000Y-76400000D01*
X141603500Y-85903500D02*
X141603500Y-85445284D01*
X132025000Y-78300000D02*
X132025000Y-76425000D01*
X130405000Y-66395000D02*
X130400000Y-66400000D01*
X141603500Y-85445284D02*
X141600000Y-85441784D01*
X139400000Y-77400000D02*
X138400000Y-76400000D01*
X137500000Y-84605000D02*
X138795000Y-84605000D01*
X138795000Y-84605000D02*
X138800000Y-84600000D01*
X137495000Y-84600000D02*
X137500000Y-84605000D01*
X144003500Y-85196500D02*
X144003500Y-85903500D01*
X144200000Y-85000000D02*
X144003500Y-85196500D01*
X131800000Y-83700000D02*
X131500000Y-83400000D01*
X130365000Y-83400000D02*
X130300000Y-83335000D01*
X131500000Y-83400000D02*
X130365000Y-83400000D01*
X134100000Y-83700000D02*
X131800000Y-83700000D01*
X143603500Y-83896500D02*
X143800000Y-83700000D01*
X143603500Y-85903500D02*
X143603500Y-83896500D01*
X143203500Y-84703500D02*
X143203500Y-82903500D01*
X143203500Y-85903500D02*
X143203500Y-84703500D01*
X143203500Y-82903500D02*
X142600000Y-82300000D01*
X130300000Y-82065000D02*
X133835000Y-82065000D01*
X133835000Y-82065000D02*
X134100000Y-81800000D01*
X142125000Y-81825000D02*
X142125000Y-81800000D01*
X142600000Y-82300000D02*
X142125000Y-81825000D01*
X144803500Y-85903500D02*
X144803500Y-86798717D01*
X136510000Y-82065000D02*
X137500000Y-82065000D01*
X136075000Y-82500000D02*
X136510000Y-82065000D01*
X144803500Y-86798717D02*
X144820389Y-86815606D01*
X144403500Y-86496500D02*
X144100000Y-86800000D01*
X139400000Y-85200000D02*
X139400000Y-83900000D01*
X138835000Y-83335000D02*
X137500000Y-83335000D01*
X139400000Y-83900000D02*
X138835000Y-83335000D01*
X144403500Y-85903500D02*
X144403500Y-86496500D01*
X135200000Y-89800000D02*
X135600000Y-89400000D01*
X135600000Y-89400000D02*
X138494974Y-89400000D01*
X138894974Y-89800000D02*
X139707000Y-89800000D01*
X138494974Y-89400000D02*
X138894974Y-89800000D01*
X129000000Y-98000000D02*
X129500000Y-97500000D01*
X134275877Y-95711052D02*
X134275878Y-95711052D01*
X135800000Y-91500000D02*
X138600000Y-91500000D01*
X133285927Y-96701002D02*
X133285928Y-96701002D01*
X133978892Y-96206027D02*
X134650643Y-96877778D01*
X134403155Y-97125265D02*
X133731403Y-96453513D01*
X134770852Y-95216077D02*
X134843465Y-95143465D01*
X135000000Y-94986930D02*
X135000000Y-92300000D01*
X134843465Y-95143465D02*
X135000000Y-94986930D01*
X134226378Y-95760548D02*
X134275877Y-95711052D01*
X134898130Y-96630290D02*
X134226378Y-95958538D01*
X135074907Y-95817117D02*
X134721353Y-95463563D01*
X131520000Y-97480000D02*
X132506930Y-97480000D01*
X133780902Y-96206027D02*
X133780903Y-96206027D01*
X138600000Y-91500000D02*
X139100000Y-91000000D01*
X133731404Y-97443463D02*
X133236429Y-96948488D01*
X133236429Y-96750498D02*
X133285927Y-96701002D01*
X133483917Y-96701002D02*
X134155668Y-97372753D01*
X132790954Y-96997989D02*
X132889949Y-97096984D01*
X134353658Y-97372753D02*
X134403155Y-97323255D01*
X133681907Y-97690951D02*
X133731404Y-97641453D01*
X131000000Y-98000000D02*
X131520000Y-97480000D01*
X133731403Y-96255523D02*
X133780902Y-96206027D01*
X135000000Y-92300000D02*
X135800000Y-91500000D01*
X132506930Y-97480000D02*
X132543465Y-97443465D01*
X135025410Y-96064605D02*
X135074907Y-96015107D01*
X132889949Y-97096984D02*
X132889948Y-97096982D01*
X134848633Y-96877778D02*
X134898130Y-96828280D01*
X134473867Y-95711052D02*
X134827420Y-96064605D01*
X134721353Y-95265573D02*
X134770852Y-95216077D01*
X139100000Y-91000000D02*
X139707000Y-91000000D01*
X132543465Y-97047487D02*
X132592964Y-96997989D01*
X132988942Y-97195976D02*
X133483917Y-97690951D01*
X132889948Y-97096982D02*
X132988942Y-97195976D01*
X133285928Y-96701002D02*
G75*
G02*
X133483916Y-96701002I98994J-98994D01*
G01*
X132543466Y-97245475D02*
G75*
G02*
X132543484Y-97047506I99034J98975D01*
G01*
X134898130Y-96828280D02*
G75*
G03*
X134898115Y-96630305I-99030J98980D01*
G01*
X133780903Y-96206027D02*
G75*
G02*
X133978893Y-96206026I98995J-98994D01*
G01*
X134827420Y-96064605D02*
G75*
G03*
X135025410Y-96064605I98995J98995D01*
G01*
X134650643Y-96877778D02*
G75*
G03*
X134848633Y-96877778I98995J98995D01*
G01*
X134721353Y-95463563D02*
G75*
G02*
X134721385Y-95265605I98947J98963D01*
G01*
X134403155Y-97323255D02*
G75*
G03*
X134403115Y-97125305I-98955J98955D01*
G01*
X134275878Y-95711052D02*
G75*
G02*
X134473868Y-95711051I98995J-98994D01*
G01*
X134226378Y-95958538D02*
G75*
G02*
X134226335Y-95760505I99022J99038D01*
G01*
X133731403Y-96453513D02*
G75*
G02*
X133731385Y-96255505I98997J99013D01*
G01*
X132543465Y-97443465D02*
G75*
G03*
X132543436Y-97245506I-98965J98965D01*
G01*
X132592964Y-96997989D02*
G75*
G02*
X132790954Y-96997989I98995J-98995D01*
G01*
X133483917Y-97690951D02*
G75*
G03*
X133681907Y-97690951I98995J98995D01*
G01*
X133236429Y-96948488D02*
G75*
G02*
X133236436Y-96750505I98971J98988D01*
G01*
X135074907Y-96015107D02*
G75*
G03*
X135074919Y-95817105I-99007J99007D01*
G01*
X133731404Y-97641453D02*
G75*
G03*
X133731362Y-97443505I-99004J98953D01*
G01*
X134155668Y-97372753D02*
G75*
G03*
X134353658Y-97372753I98995J98995D01*
G01*
X134992116Y-97607883D02*
X135350000Y-97250000D01*
X133606185Y-98993815D02*
X133138081Y-98525711D01*
X133606184Y-99389794D02*
X133705178Y-99290799D01*
X134200156Y-98399844D02*
X133979539Y-98179227D01*
X134200155Y-98795823D02*
X134299149Y-98696828D01*
X135350000Y-97250000D02*
X135500000Y-97100000D01*
X133309200Y-99290800D02*
X133408194Y-99389794D01*
X133606183Y-98993814D02*
X133606185Y-98993815D01*
X134497142Y-98102858D02*
X134596136Y-98201852D01*
X133705178Y-99092809D02*
X133606183Y-98993814D01*
X133435067Y-98228726D02*
X133903172Y-98696831D01*
X134276525Y-97882242D02*
X134497143Y-98102860D01*
X135500000Y-92400000D02*
X136050000Y-91850000D01*
X131800000Y-100000000D02*
X132600000Y-100000000D01*
X134497143Y-98102860D02*
X134497142Y-98102858D01*
X134794126Y-98201852D02*
X134893120Y-98102857D01*
X139248784Y-91400000D02*
X139707000Y-91400000D01*
X132893422Y-99468991D02*
X132720888Y-99296457D01*
X133309201Y-99290802D02*
X133309200Y-99290800D01*
X134893120Y-97706877D02*
X134992116Y-97607883D01*
X138798784Y-91850000D02*
X139248784Y-91400000D01*
X131497589Y-98502411D02*
X131497589Y-99697589D01*
X134299149Y-98498838D02*
X134200154Y-98399843D01*
X134200154Y-98399843D02*
X134200156Y-98399844D01*
X135500000Y-97100000D02*
X135500000Y-92400000D01*
X136050000Y-91850000D02*
X138798784Y-91850000D01*
X132720887Y-99058871D02*
X132780285Y-98999474D01*
X133903172Y-98696831D02*
X133903171Y-98696829D01*
X133903171Y-98696829D02*
X134002165Y-98795823D01*
X131497589Y-99697589D02*
X131800000Y-100000000D01*
X133017873Y-98999474D02*
X133190408Y-99172009D01*
X133979539Y-97941639D02*
X134038937Y-97882242D01*
X132000000Y-98000000D02*
X131497589Y-98502411D01*
X133190408Y-99172009D02*
X133309201Y-99290802D01*
X133138081Y-98288123D02*
X133197479Y-98228726D01*
X132600000Y-100000000D02*
X132893421Y-99706579D01*
X134038937Y-97882242D02*
G75*
G02*
X134276525Y-97882242I118794J-118794D01*
G01*
X133408194Y-99389794D02*
G75*
G03*
X133606184Y-99389794I98995J98995D01*
G01*
X133197479Y-98228726D02*
G75*
G02*
X133435067Y-98228726I118794J-118794D01*
G01*
X134596136Y-98201852D02*
G75*
G03*
X134794126Y-98201852I98995J98995D01*
G01*
X133979539Y-98179227D02*
G75*
G02*
X133979506Y-97941606I118761J118827D01*
G01*
X132780285Y-98999474D02*
G75*
G02*
X133017873Y-98999474I118794J-118794D01*
G01*
X134002165Y-98795823D02*
G75*
G03*
X134200155Y-98795823I98995J98995D01*
G01*
X134299149Y-98696828D02*
G75*
G03*
X134299182Y-98498805I-98949J99028D01*
G01*
X133705178Y-99290799D02*
G75*
G03*
X133705182Y-99092805I-98978J98999D01*
G01*
X133138081Y-98525711D02*
G75*
G02*
X133138064Y-98288106I118819J118811D01*
G01*
X132720888Y-99296457D02*
G75*
G02*
X132720923Y-99058907I118812J118757D01*
G01*
X134893120Y-97904867D02*
G75*
G02*
X134893148Y-97706905I98980J98967D01*
G01*
X134893120Y-98102857D02*
G75*
G03*
X134893082Y-97904905I-99020J98957D01*
G01*
X132893421Y-99706579D02*
G75*
G03*
X132893407Y-99469006I-118821J118779D01*
G01*
X156425000Y-88500000D02*
X157025000Y-89100000D01*
X149500000Y-89400000D02*
X150110052Y-89400000D01*
X150110052Y-89400000D02*
X151010052Y-88500000D01*
X151010052Y-88500000D02*
X156425000Y-88500000D01*
X157025000Y-104637500D02*
X157025000Y-89100000D01*
X123012500Y-71700000D02*
X126400000Y-71700000D01*
X131500000Y-69200000D02*
X128900000Y-69200000D01*
X128900000Y-69200000D02*
X126400000Y-71700000D01*
X137496500Y-85903500D02*
X137200000Y-86200000D01*
X131505000Y-66395000D02*
X131500000Y-66400000D01*
X140803500Y-85903500D02*
X137496500Y-85903500D01*
X131505000Y-64875000D02*
X131505000Y-66395000D01*
X151200000Y-89300000D02*
X155000000Y-89300000D01*
X155000000Y-89300000D02*
X155600000Y-89900000D01*
X150300000Y-90200000D02*
X151200000Y-89300000D01*
X149500000Y-90200000D02*
X150300000Y-90200000D01*
X155600000Y-102100000D02*
X155075000Y-102625000D01*
X155075000Y-102625000D02*
X155075000Y-104637500D01*
X155600000Y-89900000D02*
X155600000Y-102100000D01*
X130500000Y-97500000D02*
X130000000Y-98000000D01*
X141000003Y-90000003D02*
X140400000Y-89400000D01*
X141300000Y-90000003D02*
X141000003Y-90000003D01*
X140400000Y-89400000D02*
X139707000Y-89400000D01*
X135900000Y-67400000D02*
X135900000Y-66300000D01*
X140200000Y-85200000D02*
X140200000Y-81975000D01*
X125700000Y-71200000D02*
X128400000Y-68500000D01*
X142003500Y-86696500D02*
X142000000Y-86700000D01*
X135905000Y-66295000D02*
X135900000Y-66300000D01*
X128400000Y-68500000D02*
X134800000Y-68500000D01*
X135905000Y-64875000D02*
X135905000Y-66295000D01*
X134850000Y-68450000D02*
X135900000Y-67400000D01*
X123012500Y-71200000D02*
X125700000Y-71200000D01*
X134800000Y-68500000D02*
X134850000Y-68450000D01*
X142003500Y-85903500D02*
X142003500Y-86696500D01*
X134348000Y-93848000D02*
X133842000Y-93848000D01*
X133690000Y-93696000D02*
X133690000Y-93620000D01*
X133506162Y-95193838D02*
X133376055Y-95063731D01*
X133180892Y-95519108D02*
X133425550Y-95763766D01*
X132660459Y-96299756D02*
X132775010Y-96414307D01*
X134026594Y-94673407D02*
X134250000Y-94450000D01*
X133842000Y-93468000D02*
X134348000Y-93468000D01*
X132985726Y-95974485D02*
X132855619Y-95844378D01*
X133690000Y-92176000D02*
X133690000Y-92100000D01*
X131000000Y-97000000D02*
X131500000Y-96500000D01*
X133842000Y-92708000D02*
X134348000Y-92708000D01*
X131500000Y-96500000D02*
X132200000Y-96500000D01*
X133685766Y-95763766D02*
X133750819Y-95698712D01*
X132200000Y-96500000D02*
X132400244Y-96299756D01*
X132855619Y-95844378D02*
X132855621Y-95844379D01*
X134500000Y-91402979D02*
X134500000Y-91300000D01*
X132610963Y-95339505D02*
X132676018Y-95274451D01*
X138400000Y-89800000D02*
X138800000Y-90200000D01*
X134500000Y-91300000D02*
X136000000Y-89800000D01*
X138800000Y-90200000D02*
X139707000Y-90200000D01*
X134348000Y-93088000D02*
X133842000Y-93088000D01*
X133376055Y-95063731D02*
X133261504Y-94949180D01*
X134500000Y-91796000D02*
X134500000Y-91720000D01*
X133842000Y-91948000D02*
X134348000Y-91948000D01*
X136000000Y-89800000D02*
X138400000Y-89800000D01*
X132855621Y-95844379D02*
X132610963Y-95599721D01*
X134500000Y-92556000D02*
X134500000Y-92480000D01*
X133586775Y-94623910D02*
X133701327Y-94738462D01*
X133506160Y-95193837D02*
X133506162Y-95193838D01*
X133035225Y-96414307D02*
X133100278Y-96349253D01*
X133750819Y-95438496D02*
X133506160Y-95193837D01*
X134500000Y-93316000D02*
X134500000Y-93240000D01*
X133961541Y-94738463D02*
X134026594Y-94673407D01*
X134348000Y-92328000D02*
X133842000Y-92328000D01*
X132936234Y-95274451D02*
X133180893Y-95519110D01*
X134500000Y-91720000D02*
X134500000Y-91402979D01*
X133690000Y-92936000D02*
X133690000Y-92860000D01*
X134500000Y-94200000D02*
X134500000Y-94000000D01*
X133100278Y-96089037D02*
X132985726Y-95974485D01*
X133180893Y-95519110D02*
X133180892Y-95519108D01*
X134250000Y-94450000D02*
X134500000Y-94200000D01*
X133261504Y-94688964D02*
X133326559Y-94623910D01*
X133842000Y-93848000D02*
G75*
G02*
X133690000Y-93696000I0J152000D01*
G01*
X132676018Y-95274451D02*
G75*
G02*
X132936234Y-95274451I130108J-130110D01*
G01*
X133842000Y-92328000D02*
G75*
G02*
X133690000Y-92176000I0J152000D01*
G01*
X132400244Y-96299756D02*
G75*
G02*
X132660459Y-96299755I130108J-130108D01*
G01*
X134500000Y-92480000D02*
G75*
G03*
X134348000Y-92328000I-152000J0D01*
G01*
X133326559Y-94623910D02*
G75*
G02*
X133586775Y-94623910I130108J-130110D01*
G01*
X133842000Y-93088000D02*
G75*
G02*
X133690000Y-92936000I0J152000D01*
G01*
X132610963Y-95599721D02*
G75*
G02*
X132610950Y-95339492I130137J130121D01*
G01*
X134500000Y-93240000D02*
G75*
G03*
X134348000Y-93088000I-152000J0D01*
G01*
X133261504Y-94949180D02*
G75*
G02*
X133261532Y-94688992I130096J130080D01*
G01*
X133690000Y-92100000D02*
G75*
G02*
X133842000Y-91948000I152000J0D01*
G01*
X134348000Y-92708000D02*
G75*
G03*
X134500000Y-92556000I0J152000D01*
G01*
X133690000Y-93620000D02*
G75*
G02*
X133842000Y-93468000I152000J0D01*
G01*
X132775010Y-96414307D02*
G75*
G03*
X133035225Y-96414308I130108J130108D01*
G01*
X133750819Y-95698712D02*
G75*
G03*
X133750823Y-95438492I-130119J130112D01*
G01*
X134348000Y-93468000D02*
G75*
G03*
X134500000Y-93316000I0J152000D01*
G01*
X133100278Y-96349253D02*
G75*
G03*
X133100323Y-96088992I-130078J130153D01*
G01*
X133690000Y-92860000D02*
G75*
G02*
X133842000Y-92708000I152000J0D01*
G01*
X133701327Y-94738462D02*
G75*
G03*
X133961506Y-94738429I130073J130062D01*
G01*
X134500000Y-94000000D02*
G75*
G03*
X134348000Y-93848000I-152000J0D01*
G01*
X133425550Y-95763766D02*
G75*
G03*
X133685766Y-95763766I130108J130110D01*
G01*
X134348000Y-91948000D02*
G75*
G03*
X134500000Y-91796000I0J152000D01*
G01*
X131725000Y-88900000D02*
X132575000Y-88900000D01*
X125200000Y-93475000D02*
X125200000Y-92700000D01*
X131725000Y-88900000D02*
X131725000Y-89575000D01*
X139707000Y-89000000D02*
X140657537Y-89000000D01*
X140657537Y-89000000D02*
X140957537Y-89300000D01*
X130000000Y-94000000D02*
X129475000Y-93475000D01*
X127800000Y-90100000D02*
X131200000Y-90100000D01*
X140957537Y-89300000D02*
X141300000Y-89300000D01*
X129475000Y-93475000D02*
X125200000Y-93475000D01*
X125200000Y-92700000D02*
X127800000Y-90100000D01*
X132575000Y-88900000D02*
X132600000Y-88900000D01*
X131725000Y-89575000D02*
X131200000Y-90100000D01*
X130000000Y-95000000D02*
X130000000Y-94000000D01*
X149500000Y-88600000D02*
X148600000Y-88600000D01*
X148600000Y-88600000D02*
X148300000Y-88900000D01*
X163165000Y-103520000D02*
X163165000Y-102965000D01*
X163240000Y-103507500D02*
X163252500Y-103520000D01*
X163165000Y-102965000D02*
X163160000Y-102960000D01*
X153775000Y-102125000D02*
X153775000Y-104637500D01*
X153700000Y-92200000D02*
X154400000Y-92900000D01*
X150800000Y-92200000D02*
X153700000Y-92200000D01*
X154400000Y-101500000D02*
X153775000Y-102125000D01*
X149500000Y-91800000D02*
X150400000Y-91800000D01*
X150400000Y-91800000D02*
X150800000Y-92200000D01*
X153775000Y-104637500D02*
X153850000Y-104562500D01*
X154400000Y-92900000D02*
X154400000Y-101500000D01*
X155000000Y-92400000D02*
X155000000Y-101700000D01*
X150957537Y-91800000D02*
X154400000Y-91800000D01*
X150557537Y-91400000D02*
X150957537Y-91800000D01*
X154425000Y-102325000D02*
X154425000Y-104637500D01*
X154400000Y-91800000D02*
X155000000Y-92400000D01*
X154400000Y-102300000D02*
X154425000Y-102325000D01*
X155000000Y-101700000D02*
X154400000Y-102300000D01*
X149500000Y-91400000D02*
X150557537Y-91400000D01*
X151105026Y-88900000D02*
X155600000Y-88900000D01*
X156300000Y-102200000D02*
X155725000Y-102775000D01*
X149500000Y-89800000D02*
X150205026Y-89800000D01*
X150205026Y-89800000D02*
X151105026Y-88900000D01*
X156300000Y-89600000D02*
X156300000Y-102200000D01*
X155725000Y-102775000D02*
X155725000Y-104637500D01*
X155600000Y-88900000D02*
X156300000Y-89600000D01*
X140372793Y-88200000D02*
X140497793Y-88075000D01*
X129000000Y-96000000D02*
X128500000Y-95500000D01*
X139707000Y-88200000D02*
X140372793Y-88200000D01*
X139707000Y-91800000D02*
X140200000Y-91800000D01*
X140200000Y-91800000D02*
X140700000Y-91300000D01*
X130775000Y-99775000D02*
X130000000Y-99000000D01*
X130800000Y-99775000D02*
X130775000Y-99775000D01*
X129000000Y-99500000D02*
X129000000Y-99000000D01*
X140542463Y-92200000D02*
X140721230Y-92021233D01*
X139707000Y-92200000D02*
X140542463Y-92200000D01*
X153800000Y-93300000D02*
X153800000Y-101000000D01*
X153800000Y-101000000D02*
X153125000Y-101675000D01*
X150200000Y-92200000D02*
X150600000Y-92600000D01*
X150600000Y-92600000D02*
X153100000Y-92600000D01*
X153125000Y-101675000D02*
X153125000Y-104637500D01*
X153100000Y-92600000D02*
X153800000Y-93300000D01*
X149500000Y-92200000D02*
X150200000Y-92200000D01*
X133700000Y-66400000D02*
X133700000Y-67100000D01*
X133705000Y-66395000D02*
X133700000Y-66400000D01*
X141200000Y-78800000D02*
X140150000Y-77750000D01*
X133000000Y-67800000D02*
X128700000Y-67800000D01*
X133705000Y-64875000D02*
X133705000Y-66395000D01*
X128100000Y-67800000D02*
X128700000Y-67800000D01*
X138850000Y-77750000D02*
X138400000Y-77300000D01*
X140150000Y-77750000D02*
X138850000Y-77750000D01*
X141203500Y-78803500D02*
X141200000Y-78800000D01*
X141203500Y-85903500D02*
X141203500Y-78803500D01*
X133700000Y-67100000D02*
X133000000Y-67800000D01*
X123012500Y-70700000D02*
X125200000Y-70700000D01*
X125200000Y-70700000D02*
X128100000Y-67800000D01*
X133180008Y-92910945D02*
X133240819Y-92850133D01*
X132916964Y-92283034D02*
X132916965Y-92283035D01*
X132491288Y-92465470D02*
X132612910Y-92587092D01*
X132593112Y-91715935D02*
X132653923Y-91655125D01*
X133403456Y-91796545D02*
X133403456Y-91796544D01*
X134011569Y-91188432D02*
X134075000Y-91125000D01*
X132612910Y-92587092D02*
X132612909Y-92587091D01*
X133240819Y-92606889D02*
X132916964Y-92283034D01*
X132395121Y-92369303D02*
X132491288Y-92465470D01*
X132612909Y-92587091D02*
X132936763Y-92910945D01*
X134075000Y-90025000D02*
X134075000Y-91125000D01*
X132187231Y-92769525D02*
X132091065Y-92673359D01*
X132795343Y-92161413D02*
X132593111Y-91959181D01*
X133201225Y-91107822D02*
X133262036Y-91047012D01*
X132897167Y-91655125D02*
X133099400Y-91857358D01*
X132091066Y-92430113D02*
X132151877Y-92369303D01*
X133342646Y-91857357D02*
X133403456Y-91796545D01*
X139707000Y-87800000D02*
X136300000Y-87800000D01*
X131900000Y-93300000D02*
X132187231Y-93012769D01*
X130000000Y-97000000D02*
X130500000Y-96500000D01*
X133403456Y-91553300D02*
X133201224Y-91351068D01*
X132916965Y-92283035D02*
X132795343Y-92161413D01*
X133950759Y-91249244D02*
X134011569Y-91188432D01*
X133505280Y-91047012D02*
X133707513Y-91249245D01*
X136300000Y-87800000D02*
X134075000Y-90025000D01*
X133099400Y-91857358D02*
G75*
G03*
X133342624Y-91857335I121600J121658D01*
G01*
X132091065Y-92673359D02*
G75*
G02*
X132091029Y-92430077I121635J121659D01*
G01*
X133403456Y-91796544D02*
G75*
G03*
X133403478Y-91553278I-121656J121644D01*
G01*
X132187231Y-93012769D02*
G75*
G03*
X132187278Y-92769478I-121631J121669D01*
G01*
X133707513Y-91249245D02*
G75*
G03*
X133950724Y-91249209I121587J121645D01*
G01*
X132593111Y-91959181D02*
G75*
G02*
X132593153Y-91715977I121589J121581D01*
G01*
X132936763Y-92910945D02*
G75*
G03*
X133180008Y-92910946I121623J121625D01*
G01*
X133240819Y-92850133D02*
G75*
G03*
X133240830Y-92606878I-121619J121633D01*
G01*
X132653923Y-91655125D02*
G75*
G02*
X132897167Y-91655125I121622J-121620D01*
G01*
X132151877Y-92369303D02*
G75*
G02*
X132395121Y-92369303I121622J-121620D01*
G01*
X133201224Y-91351068D02*
G75*
G02*
X133201179Y-91107776I121576J121668D01*
G01*
X133262036Y-91047012D02*
G75*
G02*
X133505280Y-91047012I121622J-121620D01*
G01*
X153200000Y-100700000D02*
X153200000Y-93400000D01*
X150258216Y-92900000D02*
X150300000Y-92900000D01*
X149500000Y-92600000D02*
X149958216Y-92600000D01*
X150300000Y-92900000D02*
X150400000Y-93000000D01*
X153200000Y-93400000D02*
X152800000Y-93000000D01*
X152475000Y-104637500D02*
X152475000Y-101425000D01*
X152475000Y-101425000D02*
X153200000Y-100700000D01*
X149958216Y-92600000D02*
X150258216Y-92900000D01*
X152800000Y-93000000D02*
X150400000Y-93000000D01*
X148300000Y-82108211D02*
X148300000Y-82600000D01*
X148300000Y-82600000D02*
X147603500Y-83296500D01*
X147603500Y-83296500D02*
X147603500Y-85903500D01*
X148300000Y-82700000D02*
X148300000Y-82108211D01*
X148800000Y-93000000D02*
X148500000Y-92700000D01*
X152600000Y-99184927D02*
X152600000Y-98800000D01*
X151825000Y-104637500D02*
X151825000Y-99959927D01*
X151825000Y-99959927D02*
X152600000Y-99184927D01*
X149500000Y-93000000D02*
X148800000Y-93000000D01*
X132700000Y-100800000D02*
X136000000Y-97500000D01*
X138400000Y-93500000D02*
X138900000Y-93000000D01*
X136000000Y-94000000D02*
X136500000Y-93500000D01*
X138900000Y-93000000D02*
X139707000Y-93000000D01*
X129214000Y-100596000D02*
X129214000Y-101336000D01*
X136000000Y-97500000D02*
X136000000Y-94000000D01*
X130030000Y-100800000D02*
X130700000Y-100800000D01*
X136500000Y-93500000D02*
X138400000Y-93500000D01*
X128000000Y-99000000D02*
X128000000Y-100500000D01*
X129214000Y-100264000D02*
X129214000Y-100596000D01*
X129724000Y-101336000D02*
X129724000Y-101004000D01*
X128000000Y-100500000D02*
X128300000Y-100800000D01*
X128300000Y-100800000D02*
X128500000Y-100800000D01*
X129928000Y-100800000D02*
X130030000Y-100800000D01*
X128908000Y-100060000D02*
X129010000Y-100060000D01*
X130700000Y-100800000D02*
X132700000Y-100800000D01*
X129418000Y-101540000D02*
X129520000Y-101540000D01*
X128704000Y-100596000D02*
X128704000Y-100264000D01*
X128500000Y-100800000D02*
G75*
G03*
X128704000Y-100596000I0J204000D01*
G01*
X129520000Y-101540000D02*
G75*
G03*
X129724000Y-101336000I0J204000D01*
G01*
X129214000Y-101336000D02*
G75*
G03*
X129418000Y-101540000I204000J0D01*
G01*
X129724000Y-101004000D02*
G75*
G02*
X129928000Y-100800000I204000J0D01*
G01*
X129010000Y-100060000D02*
G75*
G02*
X129214000Y-100264000I0J-204000D01*
G01*
X128704000Y-100264000D02*
G75*
G02*
X128908000Y-100060000I204000J0D01*
G01*
X128300000Y-102900000D02*
X122375000Y-108825000D01*
X136512500Y-98612500D02*
X132675001Y-102450000D01*
X122375000Y-112125000D02*
X122375000Y-110860000D01*
X132225001Y-102900000D02*
X128300000Y-102900000D01*
X137000000Y-95394974D02*
X137000000Y-98125000D01*
X132675001Y-102450000D02*
X132225001Y-102900000D01*
X119000000Y-113100000D02*
X121400000Y-113100000D01*
X139707000Y-93400000D02*
X138994974Y-93400000D01*
X137000000Y-98125000D02*
X136512500Y-98612500D01*
X118000000Y-114100000D02*
X119000000Y-113100000D01*
X138994974Y-93400000D02*
X137000000Y-95394974D01*
X122375000Y-110860000D02*
X122375000Y-110140000D01*
X122375000Y-108825000D02*
X122375000Y-110140000D01*
X121400000Y-113100000D02*
X122375000Y-112125000D01*
X118000000Y-116000000D02*
X118000000Y-114100000D01*
X133000000Y-114300000D02*
X133000000Y-116000000D01*
X142758216Y-96600000D02*
X142600000Y-96600000D01*
X134000000Y-110860000D02*
X134000000Y-110140000D01*
X134000000Y-110860000D02*
X134000000Y-113300000D01*
X143203500Y-96154716D02*
X142758216Y-96600000D01*
X134000000Y-113300000D02*
X133000000Y-114300000D01*
X143203500Y-95696500D02*
X143203500Y-96154716D01*
X143603500Y-96497177D02*
X143478500Y-96622177D01*
X134475000Y-110860000D02*
X134475000Y-110140000D01*
X134475000Y-115975000D02*
X134500000Y-116000000D01*
X143603500Y-95696500D02*
X143603500Y-96497177D01*
X134475000Y-110860000D02*
X134475000Y-115975000D01*
X132950000Y-110860000D02*
X132950000Y-110140000D01*
X132950000Y-112950000D02*
X131500000Y-114400000D01*
X142803500Y-95696500D02*
X142803500Y-94977107D01*
X142803500Y-94977107D02*
X142958159Y-94822448D01*
X132950000Y-110860000D02*
X132950000Y-112950000D01*
X131500000Y-114400000D02*
X131500000Y-116000000D01*
X148000000Y-115400000D02*
X151825000Y-111575000D01*
X151825000Y-111575000D02*
X151825000Y-110362500D01*
X148000000Y-116000000D02*
X148000000Y-115400000D01*
X157025000Y-112125000D02*
X157025000Y-110362500D01*
X158500000Y-113600000D02*
X157025000Y-112125000D01*
X158500000Y-116000000D02*
X158500000Y-113600000D01*
X138935714Y-112750000D02*
X137500000Y-114185714D01*
X144650000Y-109390000D02*
X149500000Y-104540000D01*
X143225000Y-112750000D02*
X138935714Y-112750000D01*
X147203500Y-96403500D02*
X147203500Y-95696500D01*
X137500000Y-114185714D02*
X137500000Y-116000000D01*
X144650000Y-110140000D02*
X144650000Y-109390000D01*
X149500000Y-98700000D02*
X147203500Y-96403500D01*
X144650000Y-110860000D02*
X144650000Y-111325000D01*
X144650000Y-110860000D02*
X144650000Y-110140000D01*
X149500000Y-104540000D02*
X149500000Y-98700000D01*
X144650000Y-111325000D02*
X143225000Y-112750000D01*
X132475000Y-111725000D02*
X130000000Y-114200000D01*
X132475000Y-110860000D02*
X132475000Y-110140000D01*
X142403500Y-95696500D02*
X142403500Y-94403500D01*
X142403500Y-94403500D02*
X142400000Y-94400000D01*
X130000000Y-114200000D02*
X130000000Y-116000000D01*
X132475000Y-110860000D02*
X132475000Y-111725000D01*
X155725000Y-110362500D02*
X155725000Y-112425000D01*
X157000000Y-113700000D02*
X157000000Y-116000000D01*
X155725000Y-112425000D02*
X157000000Y-113700000D01*
X149500000Y-116000000D02*
X149500000Y-115175000D01*
X149500000Y-115175000D02*
X152475000Y-112200000D01*
X152475000Y-112200000D02*
X152475000Y-110362500D01*
X123425000Y-110860000D02*
X123425000Y-110140000D01*
X137425000Y-98808333D02*
X137633333Y-98600000D01*
X137425000Y-98816666D02*
X137425000Y-98808333D01*
X137633333Y-95256615D02*
X139089948Y-93800000D01*
X128941667Y-103658333D02*
X132300000Y-103658333D01*
X132583333Y-103658333D02*
X137425000Y-98816666D01*
X123425000Y-112475000D02*
X123425000Y-110860000D01*
X139089948Y-93800000D02*
X139707000Y-93800000D01*
X137633333Y-98600000D02*
X137633333Y-95256615D01*
X132300000Y-103658333D02*
X132583333Y-103658333D01*
X121000000Y-114900000D02*
X121000000Y-116000000D01*
X123425000Y-110140000D02*
X123425000Y-108825000D01*
X123425000Y-108825000D02*
X123625000Y-108625000D01*
X128591667Y-103658333D02*
X128941667Y-103658333D01*
X123625000Y-108625000D02*
X128591667Y-103658333D01*
X123425000Y-112475000D02*
X121000000Y-114900000D01*
X155075000Y-110362500D02*
X155075000Y-113175000D01*
X155075000Y-113175000D02*
X155500000Y-113600000D01*
X155500000Y-116000000D02*
X155500000Y-113600000D01*
D79*
X116250000Y-116000000D02*
X116250000Y-115150000D01*
D73*
X156375000Y-109025000D02*
X156400000Y-109000000D01*
X158900000Y-109125000D02*
X159875000Y-109125000D01*
X156375000Y-110362500D02*
X156375000Y-109025000D01*
D74*
X121900000Y-110860000D02*
X116400000Y-110860000D01*
D79*
X116250000Y-115150000D02*
X116200000Y-115100000D01*
D73*
X158300000Y-109000000D02*
X158425000Y-109125000D01*
X156400000Y-109000000D02*
X158300000Y-109000000D01*
X158425000Y-109125000D02*
X158900000Y-109125000D01*
D74*
X116000000Y-109100000D02*
X116000000Y-110460000D01*
X116100000Y-109000000D02*
X116000000Y-109100000D01*
D73*
X159875000Y-109125000D02*
X159900000Y-109100000D01*
D74*
X116000000Y-110460000D02*
X116400000Y-110860000D01*
D73*
X154425000Y-113975000D02*
X154000000Y-114400000D01*
X154000000Y-114400000D02*
X154000000Y-116000000D01*
X154425000Y-110362500D02*
X154425000Y-113975000D01*
X127187500Y-110140000D02*
X127187500Y-108200000D01*
X127187500Y-108200000D02*
X130212501Y-105174999D01*
X124000000Y-114500000D02*
X124000000Y-116000000D01*
X127187500Y-111312500D02*
X124000000Y-114500000D01*
X138899999Y-99575001D02*
X138837500Y-99637500D01*
X133300001Y-105174999D02*
X133437500Y-105037500D01*
X138837500Y-99637500D02*
X133437500Y-105037500D01*
X130212501Y-105174999D02*
X130600000Y-105174999D01*
X130600000Y-105174999D02*
X133300001Y-105174999D01*
X127187500Y-110860000D02*
X127187500Y-110140000D01*
X139707000Y-94600000D02*
X138899999Y-95407001D01*
X127187500Y-110860000D02*
X127187500Y-111312500D01*
X138899999Y-95407001D02*
X138899999Y-99575001D01*
X153775000Y-113125000D02*
X153775000Y-110362500D01*
X152500000Y-116000000D02*
X152500000Y-114400000D01*
X152500000Y-114400000D02*
X153775000Y-113125000D01*
X149100000Y-98900000D02*
X146803500Y-96603500D01*
X141750000Y-112300000D02*
X143190000Y-110860000D01*
X144175000Y-110140000D02*
X144175000Y-108795000D01*
X136000000Y-116000000D02*
X136000000Y-113800000D01*
X149100000Y-103870000D02*
X149100000Y-98900000D01*
X144175000Y-108795000D02*
X149100000Y-103870000D01*
X137500000Y-112300000D02*
X141750000Y-112300000D01*
X136000000Y-113800000D02*
X137500000Y-112300000D01*
X146803500Y-96603500D02*
X146803500Y-95696500D01*
X143190000Y-110860000D02*
X144175000Y-110860000D01*
X144175000Y-110860000D02*
X144175000Y-110140000D01*
X129187500Y-113112500D02*
X128500000Y-113800000D01*
X140800000Y-97400000D02*
X140800000Y-101000000D01*
X129187500Y-110140000D02*
X129187500Y-109500000D01*
X141603500Y-96596500D02*
X140800000Y-97400000D01*
X129187500Y-110860000D02*
X129187500Y-110140000D01*
X140800000Y-101000000D02*
X140812499Y-101012499D01*
X131237500Y-107449998D02*
X129187498Y-109500000D01*
X134374995Y-107449998D02*
X131237498Y-107449998D01*
X128500000Y-113800000D02*
X128500000Y-116000000D01*
X141603500Y-95696500D02*
X141603500Y-96596500D01*
X134374999Y-107449998D02*
X140812499Y-101012499D01*
X129187500Y-110860000D02*
X129187500Y-113112500D01*
X142000000Y-114805024D02*
X142705024Y-114100000D01*
X148403500Y-95696500D02*
X148403500Y-96212252D01*
X147575000Y-110860000D02*
X147575000Y-110140000D01*
X142000000Y-116000000D02*
X142000000Y-114805024D01*
X147575000Y-111519975D02*
X147575000Y-110860000D01*
X142705024Y-114100000D02*
X144994975Y-114100000D01*
X144994975Y-114100000D02*
X147575000Y-111519975D01*
X148403500Y-96212252D02*
X148595624Y-96404376D01*
X149500000Y-93800000D02*
X150332537Y-93800000D01*
X146000000Y-115000000D02*
X149100000Y-111900000D01*
X145000000Y-116000000D02*
X145000000Y-115200000D01*
X149100000Y-110860000D02*
X149100000Y-110140000D01*
X149100000Y-111900000D02*
X149100000Y-110860000D01*
X145200000Y-115000000D02*
X146000000Y-115000000D01*
X150607537Y-93525000D02*
X151600000Y-93525000D01*
X150332537Y-93800000D02*
X150607537Y-93525000D01*
X145000000Y-115200000D02*
X145200000Y-115000000D01*
X140071428Y-113200000D02*
X144300000Y-113200000D01*
X145700000Y-109480000D02*
X149900000Y-105280000D01*
X144300000Y-113200000D02*
X145700000Y-111800000D01*
X147603500Y-96154716D02*
X147603500Y-95696500D01*
X149900000Y-105280000D02*
X149900000Y-98451216D01*
X139000000Y-116000000D02*
X139000000Y-114271428D01*
X145700000Y-110140000D02*
X145700000Y-109480000D01*
X149900000Y-98451216D02*
X147603500Y-96154716D01*
X145700000Y-111800000D02*
X145700000Y-110860000D01*
X145700000Y-110860000D02*
X145700000Y-110140000D01*
X139000000Y-114271428D02*
X140071428Y-113200000D01*
X128712500Y-112387500D02*
X127000000Y-114100000D01*
X140166665Y-100541667D02*
X140104166Y-100604166D01*
X134016667Y-106691665D02*
X134104166Y-106604166D01*
X141203500Y-96200000D02*
X140166665Y-97236835D01*
X131300000Y-106691665D02*
X134016667Y-106691665D01*
X140166665Y-97236835D02*
X140166665Y-100541667D01*
X140104166Y-100604166D02*
X134104166Y-106604166D01*
X128712500Y-110860000D02*
X128712500Y-110140000D01*
X128712500Y-110140000D02*
X128712500Y-108874998D01*
X128712500Y-108874998D02*
X128943749Y-108643749D01*
X127000000Y-114100000D02*
X127000000Y-116000000D01*
X128712500Y-110860000D02*
X128712500Y-112387500D01*
X131300000Y-106691665D02*
X130895833Y-106691665D01*
X130895833Y-106691665D02*
X128943749Y-108643749D01*
X130920835Y-106691665D02*
X131200000Y-106691665D01*
X131200000Y-106691665D02*
X131300000Y-106691665D01*
X141203500Y-95696500D02*
X141203500Y-96200000D01*
X145550000Y-114550000D02*
X144200000Y-114550000D01*
X148050000Y-112050000D02*
X145550000Y-114550000D01*
X149500000Y-94200000D02*
X150675000Y-94200000D01*
X148050000Y-110860000D02*
X148050000Y-110140000D01*
X148050000Y-110860000D02*
X148050000Y-112050000D01*
X150675000Y-94200000D02*
X150800000Y-94075000D01*
X143500000Y-115250000D02*
X144200000Y-114550000D01*
X143500000Y-116000000D02*
X143500000Y-115250000D01*
X161100000Y-112600000D02*
X160000000Y-113700000D01*
X162412500Y-112187500D02*
X162000000Y-112600000D01*
X162412500Y-110517500D02*
X162412500Y-112187500D01*
X162000000Y-112600000D02*
X161100000Y-112600000D01*
X160000000Y-113700000D02*
X160000000Y-116000000D01*
X146175000Y-110860000D02*
X146175000Y-112200000D01*
X146175000Y-110860000D02*
X146175000Y-110140000D01*
X140500000Y-116000000D02*
X140500000Y-114450000D01*
X148003500Y-95696500D02*
X148003500Y-95103500D01*
X140500000Y-114450000D02*
X141300000Y-113650000D01*
X144725000Y-113650000D02*
X146175000Y-112200000D01*
X148003500Y-95103500D02*
X147700000Y-94800000D01*
X141300000Y-113650000D02*
X144725000Y-113650000D01*
X146500000Y-115294974D02*
X149575000Y-112219974D01*
X149575000Y-110860000D02*
X149575000Y-110140000D01*
X146500000Y-116000000D02*
X146500000Y-115294974D01*
X148900000Y-93400000D02*
X148500000Y-93800000D01*
X149575000Y-112219974D02*
X149575000Y-110860000D01*
X149500000Y-93400000D02*
X148900000Y-93400000D01*
X140403500Y-95696500D02*
X139533332Y-96566668D01*
X139533332Y-96566668D02*
X139533332Y-100033332D01*
X140803500Y-95696500D02*
X140403500Y-95696500D01*
X127662500Y-110860000D02*
X127662500Y-112137500D01*
X127662500Y-109200000D02*
X127662500Y-110140000D01*
X133658334Y-105933332D02*
X133795833Y-105795833D01*
X130554168Y-105933332D02*
X130800000Y-105933332D01*
X127662500Y-109200000D02*
X127662500Y-108825000D01*
X127662500Y-110860000D02*
X127662500Y-110140000D01*
X130800000Y-105933332D02*
X133658334Y-105933332D01*
X130700000Y-105933332D02*
X130800000Y-105933332D01*
X139533332Y-100033332D02*
X139545833Y-100045833D01*
X127662500Y-108825000D02*
X130554168Y-105933332D01*
X125500000Y-114300000D02*
X125500000Y-116000000D01*
X127662500Y-112137500D02*
X125500000Y-114300000D01*
X139545833Y-100045833D02*
X133795833Y-105795833D01*
X151000000Y-114700000D02*
X151000000Y-116000000D01*
X153125000Y-110362500D02*
X153125000Y-112575000D01*
X153125000Y-112575000D02*
X151000000Y-114700000D01*
X119175000Y-67700000D02*
X118600000Y-67700000D01*
X119900000Y-71200000D02*
X120100000Y-71400000D01*
X139707000Y-87400000D02*
X138125000Y-87400000D01*
X118787500Y-71200000D02*
X119900000Y-71200000D01*
X120100000Y-71400000D02*
X120100000Y-72700000D01*
X138125000Y-87400000D02*
X138000000Y-87275000D01*
D75*
X117950000Y-101500000D02*
X117950000Y-100525000D01*
X117962500Y-102112500D02*
X117950000Y-102100000D01*
D77*
X118050000Y-107600000D02*
X118050000Y-106900000D01*
X118900000Y-98500000D02*
X118400000Y-99000000D01*
D75*
X117950000Y-100525000D02*
X117975000Y-100500000D01*
D77*
X118900000Y-108450000D02*
X118050000Y-107600000D01*
D75*
X117962500Y-104500000D02*
X117000000Y-104500000D01*
X117962500Y-102600000D02*
X117962500Y-102112500D01*
X117950000Y-102100000D02*
X117950000Y-101500000D01*
D77*
X118900000Y-109000000D02*
X118900000Y-108450000D01*
X118900000Y-97500000D02*
X118900000Y-98500000D01*
D73*
X161427500Y-104357500D02*
X161427500Y-103520000D01*
X163292500Y-106530000D02*
X163292500Y-105002500D01*
X161740000Y-104670000D02*
X161427500Y-104357500D01*
X163292500Y-106530000D02*
X163292500Y-108572500D01*
X163292500Y-108572500D02*
X163362500Y-108642500D01*
X162960000Y-104670000D02*
X161740000Y-104670000D01*
X163292500Y-105002500D02*
X162960000Y-104670000D01*
X143800000Y-101700000D02*
X143800000Y-103500000D01*
X144403500Y-95696500D02*
X144403500Y-98753500D01*
X144700000Y-101700000D02*
X143800000Y-101700000D01*
X144900000Y-99250000D02*
X144900000Y-101500000D01*
X144900000Y-101500000D02*
X144700000Y-101700000D01*
X144403500Y-98753500D02*
X144900000Y-99250000D01*
X146375000Y-100000000D02*
X146000000Y-100000000D01*
X147575000Y-102925000D02*
X148000000Y-102500000D01*
X147575000Y-103500000D02*
X147575000Y-102925000D01*
X148000000Y-102500000D02*
X148000000Y-101625000D01*
X146400000Y-100000000D02*
X146000000Y-100000000D01*
X148000000Y-101625000D02*
X146375000Y-100000000D01*
X148500000Y-76500000D02*
X147600000Y-75600000D01*
X144750000Y-75600000D02*
X143900000Y-74750000D01*
X148500000Y-77575000D02*
X148500000Y-76500000D01*
X143900000Y-74750000D02*
X143900000Y-66700000D01*
X147600000Y-75600000D02*
X144750000Y-75600000D01*
X144803500Y-95696500D02*
X144803500Y-98203500D01*
X148000000Y-99300000D02*
X148000000Y-99975000D01*
X144803500Y-98203500D02*
X145635000Y-99035000D01*
X147735000Y-99035000D02*
X148000000Y-99300000D01*
X145635000Y-99035000D02*
X147735000Y-99035000D01*
X143500000Y-82000000D02*
X143500000Y-81125000D01*
X143850000Y-82350000D02*
X143500000Y-82000000D01*
X145500000Y-84941784D02*
X145500000Y-82600000D01*
X143500000Y-81125000D02*
X143500000Y-81400000D01*
X145500000Y-82600000D02*
X145250000Y-82350000D01*
X145250000Y-82350000D02*
X143850000Y-82350000D01*
X146003500Y-85445284D02*
X145500000Y-84941784D01*
X146003500Y-85903500D02*
X146003500Y-85445284D01*
X145850000Y-82250000D02*
X145300000Y-81700000D01*
X146403500Y-85350310D02*
X145850000Y-84796810D01*
X145300000Y-81700000D02*
X145300000Y-81125000D01*
X145850000Y-84796810D02*
X145850000Y-82250000D01*
X146403500Y-85903500D02*
X146403500Y-85350310D01*
X124585000Y-64800000D02*
X124585000Y-65335000D01*
X123012500Y-70200000D02*
X124825000Y-70200000D01*
X124880000Y-70105000D02*
X124900000Y-70125000D01*
X124825000Y-70200000D02*
X124900000Y-70125000D01*
X124585000Y-65335000D02*
X124580000Y-65340000D01*
D74*
X121000000Y-71100000D02*
X121000000Y-76600000D01*
X118787500Y-70700000D02*
X120600000Y-70700000D01*
X120600000Y-70700000D02*
X121000000Y-71100000D01*
D73*
X115925000Y-67700000D02*
X115925000Y-69125000D01*
X115925000Y-69125000D02*
X116000000Y-69200000D01*
X117200000Y-69200000D02*
X116000000Y-69200000D01*
X118787500Y-69700000D02*
X117700000Y-69700000D01*
X117700000Y-69700000D02*
X117200000Y-69200000D01*
X115925000Y-73500000D02*
X115925000Y-70675000D01*
X117400000Y-70600000D02*
X116000000Y-70600000D01*
X115925000Y-70675000D02*
X116000000Y-70600000D01*
X117800000Y-70200000D02*
X117400000Y-70600000D01*
X118787500Y-70200000D02*
X117800000Y-70200000D01*
X147260224Y-87975000D02*
X147437962Y-87797262D01*
X140165216Y-87000000D02*
X141140216Y-87975000D01*
X139707000Y-87000000D02*
X140165216Y-87000000D01*
X154428172Y-78050000D02*
X154451954Y-78026218D01*
X141140216Y-87975000D02*
X147260224Y-87975000D01*
X153575000Y-78050000D02*
X154428172Y-78050000D01*
X151175000Y-105775000D02*
X151400000Y-106000000D01*
X157900000Y-102600000D02*
X157900000Y-88800000D01*
X150858216Y-88100000D02*
X157200000Y-88100000D01*
X157900000Y-88800000D02*
X157200000Y-88100000D01*
X149500000Y-89000000D02*
X149958216Y-89000000D01*
X149958216Y-89000000D02*
X150858216Y-88100000D01*
X151175000Y-104637500D02*
X151175000Y-105775000D01*
X123900000Y-110860000D02*
X123900000Y-110140000D01*
X123900000Y-109400000D02*
X123900000Y-110140000D01*
X132941667Y-104416666D02*
X133191667Y-104166666D01*
X122500000Y-116000000D02*
X122500000Y-114500000D01*
X138266666Y-95182118D02*
X139248784Y-94200000D01*
X128883334Y-104416666D02*
X132941667Y-104416666D01*
X128450000Y-104850000D02*
X123900000Y-109400000D01*
X128450000Y-104850000D02*
X128883334Y-104416666D01*
X138229167Y-99129167D02*
X138266666Y-99091668D01*
X122500000Y-114500000D02*
X123900000Y-113100000D01*
X139248784Y-94200000D02*
X139707000Y-94200000D01*
X133191667Y-104166666D02*
X138229167Y-99129167D01*
X123900000Y-113100000D02*
X123900000Y-110860000D01*
X138266666Y-99091668D02*
X138266666Y-95182118D01*
G04 #@! TA.AperFunction,Conductor*
G36*
X148716444Y-83521674D02*
G01*
X148722218Y-83528170D01*
X148984254Y-83860398D01*
X149000151Y-83906224D01*
X149000151Y-84599900D01*
X148978477Y-84652226D01*
X148332176Y-85298526D01*
X148294287Y-85318778D01*
X148248808Y-85327824D01*
X148164294Y-85384293D01*
X148164293Y-85384294D01*
X148107824Y-85468808D01*
X148093000Y-85543334D01*
X148093001Y-86156553D01*
X148071327Y-86208879D01*
X148019001Y-86230553D01*
X147988000Y-86230553D01*
X147935674Y-86208879D01*
X147914000Y-86156553D01*
X147913999Y-85543335D01*
X147908040Y-85513378D01*
X147906618Y-85498917D01*
X147906619Y-85495227D01*
X147906632Y-85495163D01*
X147906632Y-85455410D01*
X147906659Y-85455344D01*
X147918142Y-85417499D01*
X147917602Y-85417211D01*
X147919054Y-85414493D01*
X147919109Y-85414314D01*
X147919316Y-85414004D01*
X147940987Y-85361684D01*
X147940989Y-85361680D01*
X147956632Y-85283039D01*
X147956632Y-85190678D01*
X147940989Y-85112037D01*
X147925165Y-85073835D01*
X147912298Y-85042770D01*
X147908853Y-85039325D01*
X147908116Y-85037474D01*
X147905961Y-85031828D01*
X147905958Y-85031824D01*
X147905015Y-85029352D01*
X147900151Y-85002965D01*
X147900151Y-84604553D01*
X147921825Y-84552227D01*
X147974151Y-84530553D01*
X148050151Y-84530553D01*
X148050151Y-84000000D01*
X147974129Y-84000000D01*
X147921803Y-83978326D01*
X147900129Y-83926022D01*
X147900022Y-83574022D01*
X147921680Y-83521690D01*
X147974000Y-83500000D01*
X148664118Y-83500000D01*
X148716444Y-83521674D01*
G37*
G04 #@! TD.AperFunction*
G04 #@! TA.AperFunction,Conductor*
G36*
X148629458Y-81285365D02*
G01*
X148651132Y-81337691D01*
X148651132Y-82933039D01*
X148629458Y-82985365D01*
X148372806Y-83242017D01*
X148320480Y-83263691D01*
X147901132Y-83263691D01*
X147888422Y-83276400D01*
X147850534Y-83296651D01*
X147802024Y-83306300D01*
X147735706Y-83350614D01*
X147735704Y-83350616D01*
X147691390Y-83416934D01*
X147679757Y-83475420D01*
X147679757Y-84044913D01*
X147691390Y-84103399D01*
X147738660Y-84174141D01*
X147751132Y-84215254D01*
X147751132Y-84270098D01*
X147733160Y-84313485D01*
X147735094Y-84314777D01*
X147686731Y-84387154D01*
X147680062Y-84420686D01*
X147676083Y-84440691D01*
X147675098Y-84445641D01*
X147675098Y-85015134D01*
X147686731Y-85073620D01*
X147735095Y-85146000D01*
X147733161Y-85147292D01*
X147751132Y-85190678D01*
X147751132Y-85283039D01*
X147729458Y-85335365D01*
X147701132Y-85363691D01*
X147701132Y-85495163D01*
X147698972Y-85500377D01*
X147699710Y-85509599D01*
X147693000Y-85543333D01*
X147693000Y-85835200D01*
X147693001Y-86089691D01*
X147671327Y-86142017D01*
X147619001Y-86163691D01*
X147588000Y-86163691D01*
X147535674Y-86142017D01*
X147514000Y-86089691D01*
X147513999Y-85543334D01*
X147502554Y-85485791D01*
X147501132Y-85471356D01*
X147501132Y-85363691D01*
X147495499Y-85350092D01*
X147498102Y-85349013D01*
X147485055Y-85318321D01*
X147481600Y-85131672D01*
X147494060Y-85089190D01*
X147504465Y-85073619D01*
X147516098Y-85015136D01*
X147516098Y-84445640D01*
X147504465Y-84387157D01*
X147504464Y-84387156D01*
X147504464Y-84387154D01*
X147463604Y-84326004D01*
X147451132Y-84284891D01*
X147451132Y-84212635D01*
X147463604Y-84171522D01*
X147509123Y-84103399D01*
X147509122Y-84103399D01*
X147509124Y-84103398D01*
X147520757Y-84044915D01*
X147520757Y-83475419D01*
X147509124Y-83416936D01*
X147470404Y-83358989D01*
X147457933Y-83318082D01*
X147457602Y-83198707D01*
X147479131Y-83146323D01*
X147490032Y-83137284D01*
X147953074Y-82822959D01*
X147951224Y-81337782D01*
X147972833Y-81285430D01*
X148025132Y-81263691D01*
X148577132Y-81263691D01*
X148629458Y-81285365D01*
G37*
G04 #@! TD.AperFunction*
G04 #@! TA.AperFunction,Conductor*
G36*
X116578326Y-108621674D02*
G01*
X116600000Y-108674000D01*
X116600000Y-114600001D01*
X116698993Y-115193958D01*
X116700000Y-115206124D01*
X116700000Y-115271000D01*
X116678326Y-115323326D01*
X116626000Y-115345000D01*
X115674000Y-115345000D01*
X115621674Y-115323326D01*
X115600000Y-115271000D01*
X115600000Y-108674000D01*
X115621674Y-108621674D01*
X115674000Y-108600000D01*
X116526000Y-108600000D01*
X116578326Y-108621674D01*
G37*
G04 #@! TD.AperFunction*
G04 #@! TA.AperFunction,Conductor*
G36*
X147229633Y-88269407D02*
G01*
X147265597Y-88318907D01*
X147267068Y-88375122D01*
X147249500Y-88440691D01*
X147249500Y-88559309D01*
X147276574Y-88660351D01*
X147280202Y-88673890D01*
X147339507Y-88776608D01*
X147339509Y-88776610D01*
X147339511Y-88776613D01*
X147371005Y-88808107D01*
X147398781Y-88862622D01*
X147400000Y-88878109D01*
X147400000Y-93301000D01*
X147381093Y-93359191D01*
X147331593Y-93395155D01*
X147301000Y-93400000D01*
X146247446Y-93400000D01*
X146189255Y-93381093D01*
X146164441Y-93353535D01*
X146164440Y-93353536D01*
X146164428Y-93353521D01*
X146161711Y-93350503D01*
X146160490Y-93348389D01*
X146160489Y-93348387D01*
X146076613Y-93264511D01*
X146076610Y-93264509D01*
X146076608Y-93264507D01*
X145973889Y-93205202D01*
X145973890Y-93205202D01*
X145960351Y-93201574D01*
X145859309Y-93174500D01*
X145740691Y-93174500D01*
X145670567Y-93193289D01*
X145626109Y-93205202D01*
X145523391Y-93264507D01*
X145439509Y-93348389D01*
X145438289Y-93350503D01*
X145436989Y-93351672D01*
X145435560Y-93353536D01*
X145435214Y-93353270D01*
X145392818Y-93391442D01*
X145352554Y-93400000D01*
X144978110Y-93400000D01*
X144919919Y-93381093D01*
X144908107Y-93371005D01*
X144896293Y-93359191D01*
X144876613Y-93339511D01*
X144876610Y-93339509D01*
X144876609Y-93339508D01*
X144876608Y-93339507D01*
X144773889Y-93280202D01*
X144773890Y-93280202D01*
X144715330Y-93264511D01*
X144659309Y-93249500D01*
X144540691Y-93249500D01*
X144484670Y-93264511D01*
X144426109Y-93280202D01*
X144323391Y-93339507D01*
X144291893Y-93371005D01*
X144237376Y-93398781D01*
X144221890Y-93400000D01*
X141799000Y-93400000D01*
X141740809Y-93381093D01*
X141704845Y-93331593D01*
X141700000Y-93301000D01*
X141700000Y-92038088D01*
X141718907Y-91979897D01*
X141728990Y-91968090D01*
X141760489Y-91936592D01*
X141819799Y-91833865D01*
X141850500Y-91719288D01*
X141850500Y-91600670D01*
X141819799Y-91486093D01*
X141819797Y-91486090D01*
X141819797Y-91486088D01*
X141760492Y-91383370D01*
X141760491Y-91383369D01*
X141760490Y-91383368D01*
X141760489Y-91383366D01*
X141728995Y-91351872D01*
X141701219Y-91297355D01*
X141700000Y-91281869D01*
X141700000Y-90234708D01*
X141713264Y-90185207D01*
X141719799Y-90173889D01*
X141750500Y-90059312D01*
X141750500Y-89940694D01*
X141719799Y-89826117D01*
X141719797Y-89826113D01*
X141713262Y-89814793D01*
X141700000Y-89765296D01*
X141700000Y-89534705D01*
X141713264Y-89485204D01*
X141719799Y-89473886D01*
X141750500Y-89359309D01*
X141750500Y-89240691D01*
X141719799Y-89126114D01*
X141719796Y-89126108D01*
X141719092Y-89124888D01*
X141719090Y-89124886D01*
X141713262Y-89114791D01*
X141704008Y-89080253D01*
X142703000Y-89080253D01*
X142703000Y-92519746D01*
X142703001Y-92519758D01*
X142714632Y-92578227D01*
X142714633Y-92578231D01*
X142758948Y-92644552D01*
X142825269Y-92688867D01*
X142869731Y-92697711D01*
X142883741Y-92700498D01*
X142883746Y-92700498D01*
X142883752Y-92700500D01*
X142883753Y-92700500D01*
X146323247Y-92700500D01*
X146323248Y-92700500D01*
X146381731Y-92688867D01*
X146448052Y-92644552D01*
X146492367Y-92578231D01*
X146504000Y-92519748D01*
X146504000Y-91346918D01*
X146504000Y-90213585D01*
X146504000Y-89080252D01*
X146492367Y-89021769D01*
X146448052Y-88955448D01*
X146440647Y-88950500D01*
X146381733Y-88911134D01*
X146381731Y-88911133D01*
X146381728Y-88911132D01*
X146381727Y-88911132D01*
X146323258Y-88899501D01*
X146323248Y-88899500D01*
X145189915Y-88899500D01*
X144056582Y-88899500D01*
X142883752Y-88899500D01*
X142883751Y-88899500D01*
X142883741Y-88899501D01*
X142825272Y-88911132D01*
X142825266Y-88911134D01*
X142758951Y-88955445D01*
X142758945Y-88955451D01*
X142714634Y-89021766D01*
X142714632Y-89021772D01*
X142703001Y-89080241D01*
X142703000Y-89080253D01*
X141704008Y-89080253D01*
X141700000Y-89065293D01*
X141700000Y-89035125D01*
X141718907Y-88976934D01*
X141768407Y-88940970D01*
X141773342Y-88939508D01*
X141846899Y-88919799D01*
X141949626Y-88860489D01*
X142033502Y-88776613D01*
X142092812Y-88673886D01*
X142123513Y-88559309D01*
X142123513Y-88440691D01*
X142105944Y-88375122D01*
X142109147Y-88314021D01*
X142147652Y-88266471D01*
X142201571Y-88250500D01*
X147171442Y-88250500D01*
X147229633Y-88269407D01*
G37*
G04 #@! TD.AperFunction*
G04 #@! TA.AperFunction,Conductor*
G36*
X147220495Y-81282337D02*
G01*
X147242405Y-81334487D01*
X147242421Y-81337276D01*
X147251417Y-82951417D01*
X147253165Y-83582028D01*
X147254150Y-83937577D01*
X147232621Y-83989963D01*
X147180452Y-84011781D01*
X146873873Y-84013032D01*
X146873871Y-84013033D01*
X146742548Y-84244950D01*
X146730481Y-84260813D01*
X146559267Y-84432028D01*
X146506941Y-84453702D01*
X146368245Y-84453702D01*
X146315919Y-84432028D01*
X146159267Y-84275376D01*
X146137593Y-84223050D01*
X146137593Y-83634354D01*
X146159267Y-83582028D01*
X146365919Y-83375376D01*
X146418245Y-83353702D01*
X146564575Y-83353702D01*
X146606550Y-83366759D01*
X146799997Y-83499999D01*
X146799999Y-83499999D01*
X146800000Y-83500000D01*
X146900000Y-83500000D01*
X146901091Y-83345309D01*
X146874702Y-83315661D01*
X146571319Y-82974808D01*
X146552595Y-82925546D01*
X146553955Y-81337273D01*
X146575674Y-81284968D01*
X146627619Y-81263340D01*
X147168073Y-81260900D01*
X147220495Y-81282337D01*
G37*
G04 #@! TD.AperFunction*
G04 #@! TA.AperFunction,Conductor*
G36*
X147249270Y-84521441D02*
G01*
X147270974Y-84573405D01*
X147273081Y-84970429D01*
X147292987Y-86045737D01*
X147293000Y-86047107D01*
X147293000Y-86263665D01*
X147296148Y-86279490D01*
X147294933Y-86285594D01*
X147297556Y-86292554D01*
X147308690Y-86893944D01*
X147287989Y-86946662D01*
X147236073Y-86969301D01*
X147234703Y-86969314D01*
X147184085Y-86969314D01*
X147131759Y-86947640D01*
X147110085Y-86895314D01*
X147110085Y-86290636D01*
X147110607Y-86285331D01*
X147110340Y-86284495D01*
X147110772Y-86283655D01*
X147111507Y-86276199D01*
X147114000Y-86263667D01*
X147113999Y-85543334D01*
X147111505Y-85530796D01*
X147110085Y-85516369D01*
X147110085Y-85269314D01*
X146881759Y-85040988D01*
X146860085Y-84988662D01*
X146860085Y-84573955D01*
X146881759Y-84521629D01*
X146934038Y-84499955D01*
X147196933Y-84499798D01*
X147249270Y-84521441D01*
G37*
G04 #@! TD.AperFunction*
M02*
